<svg xmlns="http://www.w3.org/2000/svg" fill="none" viewBox="56.11 77.88 387.78 349.68">
<path d="M250 427.56C357.082 427.56 443.89 422.492 443.89 416.24C443.89 409.988 357.082 404.92 250 404.92C142.917 404.92 56.11 409.988 56.11 416.24C56.11 422.492 142.917 427.56 250 427.56Z" fill="#F5F5F5"/>
<path d="M296.18 185.5L296.49 177.77C296.49 177.77 298.56 175.72 298.56 174.39C298.56 173.06 296.18 165.45 295.14 165.09C294.1 164.73 288.51 167.38 288.41 169.09C288.31 170.8 291.31 177.09 291.83 177.55L291 185.76L296.18 185.5Z" fill="#F9B7A2"/>
<path d="M380.41 174.83L377.75 167.18C376.617 166.37 375.566 165.453 374.61 164.44C373.88 163.44 377.95 156.23 378.55 156.23C380.522 156.965 382.37 157.997 384.03 159.29C384.63 160.01 381.45 165.89 381.45 165.89L385.4 172.49L380.41 174.83Z" fill="#F9B7A2"/>
<path d="M364.94 173.54C368.61 173.9 386.24 192.75 386.24 192.75L378.63 171.61L384.63 169.56C384.63 169.56 399.49 193.23 396.23 201.92C392.97 210.61 363.86 190.69 363.86 190.69L364.94 173.54Z" fill="#ED7240"/>
<path d="M308.52 398.49L304.41 393.12L311.37 386.4L317.7 380.3L323.65 385.86L315.65 392.55L308.52 398.49Z" fill="#F9B7A2"/>
<path d="M304.17 391.47C304.78 391.04 309.87 398.67 309.87 398.67C309.87 398.67 308.74 406.67 311.04 411.76C313.34 416.85 308.87 416.46 305.15 411.6L295.97 399.6C293.33 396.11 297.92 396 304.17 391.47Z" fill="#2E353A"/>
<path d="M309.79 400.15C309.79 400.15 313.2 399.05 313.6 400.89C314.05 403.01 309.79 400.15 309.79 400.15ZM309.79 400.15C309.79 400.15 313.23 402.71 312.32 403.87C310.94 405.61 309.79 400.15 309.79 400.15Z" stroke="#ED7240" stroke-width="0.48312" stroke-linecap="round" stroke-linejoin="round"/>
<path opacity="0.2" d="M315.65 392.55L311.37 386.4L317.7 380.3L323.65 385.86L315.65 392.55Z" fill="black"/>
<path d="M349.65 407H342.88L341.77 397.58L340.77 388.94L348.8 387.63L349.25 397.89L349.65 407Z" fill="#F9B7A2"/>
<path d="M341.43 406.57C341.43 405.82 350.61 406.41 350.61 406.41C350.61 406.41 356.25 412.14 361.72 413.41C367.19 414.68 364.14 418 358 418H342.88C338.53 418 341.25 414.3 341.43 406.57Z" fill="#2E353A"/>
<path d="M351.74 407.37C351.74 407.37 352.94 403.99 354.64 404.79C356.64 405.72 351.74 407.37 351.74 407.37ZM351.74 407.37C351.74 407.37 355.87 406.19 356.23 407.61C356.78 409.77 351.74 407.37 351.74 407.37Z" stroke="#ED7240" stroke-width="0.48312" stroke-linecap="round" stroke-linejoin="round"/>
<path opacity="0.2" d="M349.25 398.1L341.77 397.77L340.77 389.03L348.8 387.68L349.25 398.1Z" fill="black"/>
<path d="M366.53 244.26C366.53 244.26 386.53 291.51 389.66 312.26C392.79 333.01 321.8 388.57 321.8 388.57L314.54 380.85C314.54 380.85 367.36 326.55 367.36 317.21C367.36 307.87 346.76 265.21 346.76 265.21C346.76 265.21 344.77 248 366.53 244.26Z" fill="#ED7240"/>
<path opacity="0.6" d="M352.06 362.7C344.81 369.38 337.79 375.41 332.34 379.97C326.01 385.25 321.8 388.55 321.8 388.55L314.54 380.83C314.54 380.83 321.8 373.38 330.92 363.51C338.1 355.75 346.45 346.51 353.34 338.23C361.34 328.63 367.34 320.34 367.34 317.23C367.34 312.3 361.61 298.12 356.2 285.8C351.34 274.8 346.74 265.23 346.74 265.23C346.602 263.265 346.795 261.291 347.31 259.39C348.7 254.04 353.09 246.61 366.52 244.3C366.52 244.3 386.52 291.55 389.64 312.3C391.38 323.57 370.94 345.32 352.06 362.7Z" fill="white"/>
<path opacity="0.2" d="M353.34 338.23L352.06 362.7C344.81 369.38 337.79 375.41 332.34 379.97C331.087 374.579 330.609 369.036 330.92 363.51C338.1 355.75 346.45 346.51 353.34 338.23Z" fill="black"/>
<path opacity="0.2" d="M356.22 285.76C351.36 274.76 346.76 265.19 346.76 265.19C346.623 263.225 346.815 261.251 347.33 259.35C348.02 258.883 348.789 258.544 349.6 258.35C349.6 258.35 355.51 267.68 356.22 285.76Z" fill="black"/>
<path d="M330.51 135.82C330.51 135.82 336.58 128.25 346.51 129.94C356.44 131.63 354.72 150 354.72 150C356.575 151.587 357.956 153.656 358.711 155.978C359.466 158.3 359.566 160.785 359 163.16C357.06 171.49 334.41 176.31 325.75 170.52C317.09 164.73 323.75 146.36 327.96 143.76C332.17 141.16 330.51 135.82 330.51 135.82Z" fill="#2E353A"/>
<path d="M349.79 258.4L351 324.92V393H339.67C312.61 264 331.16 231.66 331.16 231.66H331.23C331.23 231.61 331.23 231.55 331.29 231.51C335.64 221.85 364.14 228.97 364.14 228.97C366.19 236.97 367.45 253.24 367.45 253.24L349.79 258.4Z" fill="#ED7240"/>
<path opacity="0.6" d="M349.79 258.4L351 324.92V393H339.67C312.61 264 331.16 231.66 331.16 231.66H331.23C331.23 231.61 331.23 231.55 331.29 231.51C335.64 221.85 364.14 228.97 364.14 228.97C366.19 236.97 367.45 253.24 367.45 253.24L349.79 258.4Z" fill="white"/>
<path d="M331 226.68V231.52L364 228.99V223.27L331 226.68Z" fill="#2E353A"/>
<path d="M342.062 224.682L340.424 224.765L340.849 233.104L342.487 233.021L342.062 224.682Z" fill="#ED7240"/>
<path d="M356.375 224.427L349.164 225.073L349.654 230.541L356.865 229.895L356.375 224.427Z" fill="white"/>
<path d="M362.233 222.447L360.595 222.531L361.02 230.87L362.658 230.786L362.233 222.447Z" fill="#ED7240"/>
<path opacity="0.6" d="M342.062 224.682L340.424 224.765L340.849 233.104L342.487 233.021L342.062 224.682Z" fill="white"/>
<path opacity="0.6" d="M362.233 222.447L360.595 222.531L361.02 230.87L362.658 230.786L362.233 222.447Z" fill="white"/>
<path d="M364.14 223.85L331.14 226.7C330.36 214.43 329.58 206.52 322.31 184.7C321.68 182.79 321 180.76 320.25 178.62C324.731 177.189 329.31 176.083 333.95 175.31C338.847 174.44 343.799 173.919 348.77 173.75C355.19 173.75 362.57 174.42 362.57 174.42C362.57 174.42 363.62 174.67 364.28 181.48C364.87 187.82 365.46 200.6 364.14 223.85Z" fill="#ED7240"/>
<path opacity="0.3" d="M364.14 223.85L331.14 226.7C330.36 214.43 329.58 206.52 322.31 184.7C321.68 182.79 321 180.76 320.25 178.62C324.731 177.189 329.31 176.083 333.95 175.31C338.847 174.44 343.799 173.919 348.77 173.75C355.19 173.75 362.57 174.42 362.57 174.42C362.57 174.42 363.62 174.67 364.28 181.48C364.87 187.82 365.46 200.6 364.14 223.85Z" fill="black"/>
<path d="M346 181C337.86 180 335.42 176.48 335.42 176.48C340.58 171.61 336.29 163.17 336.29 163.17L346.08 165C345.85 166.365 345.723 167.746 345.7 169.13C345.62 175.07 348.31 175.13 348.31 175.13C350.07 178.34 346 181 346 181Z" fill="#F9B7A2"/>
<path opacity="0.2" d="M346.12 165C345.89 166.365 345.763 167.746 345.74 169.13C341.02 168.03 336.33 163.13 336.33 163.13L346.12 165Z" fill="black"/>
<path d="M337.39 137.89C345.69 135.89 349.39 139.74 352.04 148.14C355.33 158.64 354.76 166.79 343.85 166.97C329 167.21 323.62 141.16 337.39 137.89Z" fill="#F9B7A2"/>
<path d="M346.57 149C347.528 150.082 348.613 151.046 349.8 151.87C349.636 152.275 349.362 152.625 349.008 152.882C348.654 153.138 348.236 153.29 347.8 153.32L346.57 149Z" fill="#DE5753"/>
<path d="M341.33 149.47C341.51 150.15 341.33 150.79 340.84 150.91C340.35 151.03 339.84 150.58 339.7 149.91C339.56 149.24 339.7 148.59 340.19 148.47C340.68 148.35 341.16 148.79 341.33 149.47Z" fill="#2E353A"/>
<path d="M340 148.54L341.33 147.54C341.33 147.54 340.93 149 340 148.54Z" fill="#2E353A"/>
<path d="M349.72 147.13C349.9 147.8 349.67 148.45 349.22 148.57C348.77 148.69 348.22 148.23 348.08 147.57C347.94 146.91 348.13 146.25 348.58 146.13C349.03 146.01 349.54 146.45 349.72 147.13Z" fill="#2E353A"/>
<path d="M348.4 146.19L349.72 145.19C349.72 145.19 349.31 146.66 348.4 146.19Z" fill="#2E353A"/>
<path d="M339.89 143.76C339.215 143.836 338.567 144.065 337.995 144.431C337.423 144.797 336.942 145.289 336.59 145.87" stroke="#2E353A" stroke-width="0.72468" stroke-linecap="round" stroke-linejoin="round"/>
<path d="M345.84 142C346.374 141.724 346.963 141.571 347.564 141.554C348.164 141.537 348.761 141.655 349.31 141.9" stroke="#2E353A" stroke-width="0.72468" stroke-linecap="round" stroke-linejoin="round"/>
<path d="M347.4 156.82C347.231 157.849 347.134 158.888 347.11 159.93L346.57 160.01C344.1 160.34 342.84 159.67 342.2 158.84C341.896 158.423 341.694 157.94 341.61 157.43C341.569 157.142 341.569 156.849 341.61 156.56C343.231 157.039 344.937 157.161 346.61 156.92C347.07 156.88 347.4 156.82 347.4 156.82Z" fill="#2E353A"/>
<path d="M346.55 156.92L346.45 157.84C344.12 158.14 342.45 158.04 341.61 157.43C341.569 157.142 341.569 156.849 341.61 156.56C343.212 157.03 344.896 157.153 346.55 156.92Z" fill="white"/>
<path d="M346.57 160C344.1 160.33 342.84 159.66 342.2 158.83C343.136 158.721 344.084 158.779 345 159C345.616 159.158 346.166 159.508 346.57 160Z" fill="#DE5753"/>
<path d="M331.64 154C331.64 154 333.9 146.27 332.07 141.15C332.07 141.15 346.91 130.54 351.68 147.03C351.68 147.03 349.78 131.83 335.44 134.88C321.1 137.93 326.11 158.78 334.94 163.25C334.94 163.27 330.25 158.85 331.64 154Z" fill="#2E353A"/>
<path d="M333.41 155.45C333.101 154.511 332.434 153.733 331.553 153.286C330.672 152.838 329.65 152.757 328.71 153.06C326.2 153.94 326.23 159.51 332.92 159.27C333.88 159.23 334.19 158.21 333.41 155.45Z" fill="#F9B7A2"/>
<path d="M364.27 181.43C351.87 187.56 332.87 186.13 322.27 184.65C321.64 182.74 320.96 180.71 320.21 178.57C324.691 177.139 329.27 176.033 333.91 175.26C338.807 174.39 343.759 173.869 348.73 173.7C355.15 173.7 362.53 174.37 362.53 174.37C362.53 174.37 363.61 174.62 364.27 181.43Z" fill="#F9B7A2"/>
<path d="M327.17 175.23C327.17 175.23 336.06 186.59 336.33 198.9C336.6 211.21 328.39 268 328.39 268L318.49 265.2C318.49 265.2 325.97 221.5 318.49 179.29L327.17 175.23Z" fill="#ED7240"/>
<path d="M354.72 174C354.72 174 358.34 185.77 357.86 194.23C357.38 202.69 366.53 244.34 366.53 244.34L369.19 250.74L366.56 224.91C366.56 224.91 368.15 187 364.94 174H354.72Z" fill="#ED7240"/>
<path d="M337.39 137.89C337.39 137.89 340.46 148.34 331.11 153.07C319.81 158.79 320.89 171.15 331.91 172.72C331.91 172.72 320.78 171.6 318.62 164.33C316.46 157.06 322.62 145.87 322.62 145.87C322.62 145.87 319.24 139.72 328.37 134.87C333.49 132.17 337.39 137.89 337.39 137.89Z" fill="#2E353A"/>
<path d="M338.21 391.37L352.37 389.29L351.19 394.95L339.5 396.52L338.21 391.37Z" fill="#ED7240"/>
<path d="M314.54 378.22L324.04 388.55L319.29 391.27L311.96 383.49L314.54 378.22Z" fill="#ED7240"/>
<path d="M370.82 151.36C369.11 148.3 365.82 146.9 363.4 148.24C360.98 149.58 360.47 153.13 362.17 156.19C363.87 159.25 367.17 160.64 369.59 159.31C372.01 157.98 372.53 154.41 370.82 151.36Z" fill="#ED7240"/>
<path d="M390.23 140.64L384.35 129.83C384.35 129.83 380.25 138.64 374.35 141.94L377.35 147.3L377.82 148.14L380.82 153.5C386.72 150.2 396.37 151.31 396.37 151.31L390.23 140.64Z" fill="#ED7240"/>
<path opacity="0.8" d="M370.82 151.36C369.11 148.3 365.82 146.9 363.4 148.24C360.98 149.58 360.47 153.13 362.17 156.19C363.87 159.25 367.17 160.64 369.59 159.31C372.01 157.98 372.53 154.41 370.82 151.36Z" fill="white"/>
<path opacity="0.8" d="M390.23 140.64L384.35 129.83C384.35 129.83 380.25 138.64 374.35 141.94L377.35 147.3L377.82 148.14L380.82 153.5C386.72 150.2 396.37 151.31 396.37 151.31L390.23 140.64Z" fill="white"/>
<path d="M370.42 157.69C370.42 157.69 374.67 163.84 378.64 166.09C378.777 166.165 378.936 166.187 379.089 166.154C379.241 166.121 379.376 166.035 379.47 165.91L382.86 161.72C382.918 161.641 382.958 161.549 382.977 161.453C382.996 161.356 382.994 161.257 382.97 161.161C382.946 161.066 382.901 160.977 382.839 160.901C382.777 160.824 382.699 160.763 382.61 160.72C380.94 159.98 377.04 158.08 374.79 155.42C371.87 151.94 370.42 157.69 370.42 157.69Z" fill="#ED7240"/>
<path opacity="0.3" d="M370.42 157.69C370.42 157.69 374.67 163.84 378.64 166.09C378.777 166.165 378.936 166.187 379.089 166.154C379.241 166.121 379.376 166.035 379.47 165.91L382.86 161.72C382.918 161.641 382.958 161.549 382.977 161.453C382.996 161.356 382.994 161.257 382.97 161.161C382.946 161.066 382.901 160.977 382.839 160.901C382.777 160.824 382.699 160.763 382.61 160.72C380.94 159.98 377.04 158.08 374.79 155.42C371.87 151.94 370.42 157.69 370.42 157.69Z" fill="black"/>
<path d="M396.3 151.63C394.95 152.38 391.11 148.09 387.73 142.04C384.35 135.99 382.73 130.48 384.06 129.72C385.39 128.96 389.25 133.26 392.63 139.3C396.01 145.34 397.66 150.87 396.3 151.63Z" fill="white"/>
<path opacity="0.4" d="M395.75 149.84C394.75 150.41 391.75 147.03 388.92 142.18C388.76 141.91 388.6 141.62 388.44 141.33C388.28 141.04 388.06 140.65 387.88 140.33C385.29 135.43 384.01 131.21 385.01 130.65C386.01 130.09 389.38 133.86 392.34 139.16C395.3 144.46 396.83 149.24 395.75 149.84Z" fill="black"/>
<path d="M369 160.43C369 160.43 367.55 159.43 364.92 154.69C362.07 149.59 362.15 148.17 362.15 148.17L375.32 140.8C375.32 140.8 375.48 142.65 378.15 147.43C380.82 152.21 382.15 153.06 382.15 153.06L369 160.43Z" fill="#ED7240"/>
<path d="M388.92 142.18C388.76 141.91 388.6 141.62 388.44 141.33C388.28 141.04 388.06 140.65 387.88 140.33L389.24 139.9C389.385 139.855 389.541 139.865 389.68 139.927C389.818 139.99 389.928 140.101 389.99 140.24L390.1 140.44C390.186 140.563 390.224 140.715 390.205 140.864C390.187 141.014 390.114 141.151 390 141.25L388.92 142.18Z" fill="white"/>
<path opacity="0.2" d="M388.92 142.18C388.76 141.91 388.6 141.62 388.44 141.33C388.28 141.04 388.06 140.65 387.88 140.33L389.24 139.9C389.385 139.855 389.541 139.865 389.68 139.927C389.818 139.99 389.928 140.101 389.99 140.24L390.1 140.44C390.186 140.563 390.224 140.715 390.205 140.864C390.187 141.014 390.114 141.151 390 141.25L388.92 142.18Z" fill="black"/>
<path d="M318.49 179.28C313.9 181.28 297.49 210.58 297.49 210.58L297.17 182.88L289.76 181.88C289.76 181.88 285.25 221.17 294.91 223.42C304.57 225.67 322.29 197.66 322.29 197.66L318.49 179.28Z" fill="#ED7240"/>
<path d="M336.33 136.65C336.33 136.65 340.58 139.72 337.42 147.73" stroke="#2E353A" stroke-width="0.5" stroke-linecap="round" stroke-linejoin="round"/>
<path d="M353.81 149.35C353.81 149.35 365.5 156.92 357.92 166.67" stroke="#2E353A" stroke-width="0.5" stroke-linecap="round" stroke-linejoin="round"/>
<path d="M283.91 77.8799H115.97C110.226 77.8799 105.57 82.5361 105.57 88.2799V406.95C105.57 412.694 110.226 417.35 115.97 417.35H283.91C289.654 417.35 294.31 412.694 294.31 406.95V88.2799C294.31 82.5361 289.654 77.8799 283.91 77.8799Z" fill="#2E353A"/>
<path d="M288 89.26V405.38C288 405.993 287.878 406.599 287.642 407.164C287.405 407.729 287.059 408.242 286.622 408.672C286.186 409.102 285.668 409.441 285.099 409.669C284.531 409.897 283.923 410.009 283.31 410H116.19C115.634 410.007 115.082 409.902 114.567 409.69C114.052 409.479 113.585 409.166 113.194 408.77C112.803 408.375 112.496 407.904 112.29 407.387C112.085 406.87 111.986 406.316 112 405.76V88.88C111.98 88.3893 112.057 87.8994 112.227 87.4385C112.396 86.9776 112.655 86.5548 112.989 86.1943C113.323 85.8338 113.724 85.5427 114.17 85.3378C114.617 85.1328 115.099 85.018 115.59 85H157.37C157.954 85.0104 158.523 85.1949 159.002 85.5297C159.481 85.8646 159.849 86.3347 160.06 86.88L161.79 91.14C162.004 91.6815 162.374 92.1474 162.852 92.4786C163.331 92.8097 163.898 92.9912 164.48 93H235.61C236.19 92.9976 236.755 92.8221 237.235 92.496C237.714 92.17 238.085 91.7083 238.3 91.17L240 86.89C240.218 86.3427 240.592 85.8717 241.075 85.5356C241.559 85.1995 242.131 85.0132 242.72 85H283.9C285.005 85.0314 286.054 85.4953 286.821 86.292C287.587 87.0886 288.011 88.1544 288 89.26Z" fill="#ED7240"/>
<path opacity="0.2" d="M288 105.5H112V145H288V105.5Z" fill="white"/>
<path opacity="0.6" d="M131.85 97.73H134.02V94.83H131.85V97.73Z" fill="white"/>
<path opacity="0.6" d="M128.31 97.7397H130.48V93.8698H128.31V97.7397Z" fill="white"/>
<path opacity="0.6" d="M124.77 97.7397H126.94V92.9097H124.77V97.7397Z" fill="white"/>
<path opacity="0.6" d="M121.22 97.73H123.39V91.93H121.22V97.73Z" fill="white"/>
<path opacity="0.6" d="M268.54 93.7798H267.25V96.6798H268.54V93.7798Z" fill="white"/>
<path opacity="0.6" d="M269.41 97.7397H279.68V92.7297H269.41V97.7397Z" fill="white"/>
<path opacity="0.6" d="M196.01 87.8298C197.346 87.8298 198.43 86.7463 198.43 85.4098C198.43 84.0732 197.346 82.9897 196.01 82.9897C194.673 82.9897 193.59 84.0732 193.59 85.4098C193.59 86.7463 194.673 87.8298 196.01 87.8298Z" fill="white"/>
<path opacity="0.6" d="M203.32 85.4099C203.32 85.7164 203.229 86.0161 203.059 86.271C202.888 86.5259 202.646 86.7246 202.363 86.8419C202.08 86.9592 201.768 86.9899 201.468 86.9301C201.167 86.8703 200.891 86.7226 200.674 86.5059C200.457 86.2891 200.31 86.0129 200.25 85.7122C200.19 85.4116 200.221 85.0999 200.338 84.8167C200.455 84.5335 200.654 84.2914 200.909 84.1211C201.164 83.9508 201.463 83.8599 201.77 83.8599C202.181 83.8599 202.575 84.0232 202.866 84.3139C203.157 84.6045 203.32 84.9988 203.32 85.4099Z" fill="white"/>
<path opacity="0.2" d="M288 350V405.38C288 405.993 287.878 406.599 287.642 407.164C287.405 407.729 287.059 408.242 286.622 408.672C286.186 409.102 285.668 409.441 285.099 409.669C284.531 409.897 283.923 410.009 283.31 410H116.19C115.634 410.007 115.082 409.902 114.567 409.69C114.052 409.479 113.585 409.166 113.194 408.77C112.803 408.375 112.496 407.904 112.29 407.387C112.085 406.87 111.987 406.316 112 405.76V350H288Z" fill="white"/>
<path d="M131.33 244.21L199.94 186.56L268.54 244.21L214.75 316.36L166.44 315.39L131.33 244.21Z" fill="#ED7240"/>
<path opacity="0.3" d="M131.33 244.21L199.94 186.56L268.54 244.21L214.75 316.36L166.44 315.39L131.33 244.21Z" fill="black"/>
<path d="M246.48 167.56H153.39C152.147 167.56 151.14 168.567 151.14 169.81V307.99C151.14 309.233 152.147 310.24 153.39 310.24H246.48C247.723 310.24 248.73 309.233 248.73 307.99V169.81C248.73 168.567 247.723 167.56 246.48 167.56Z" fill="white"/>
<path opacity="0.2" d="M237.63 180.44H162.25C161.852 180.44 161.53 180.762 161.53 181.16V182.62C161.53 183.018 161.852 183.34 162.25 183.34H237.63C238.028 183.34 238.35 183.018 238.35 182.62V181.16C238.35 180.762 238.028 180.44 237.63 180.44Z" fill="black"/>
<path opacity="0.2" d="M237.63 190.11H162.25C161.852 190.11 161.53 190.432 161.53 190.83V192.29C161.53 192.688 161.852 193.01 162.25 193.01H237.63C238.028 193.01 238.35 192.688 238.35 192.29V190.83C238.35 190.432 238.028 190.11 237.63 190.11Z" fill="black"/>
<path opacity="0.2" d="M237.63 199.78H162.25C161.852 199.78 161.53 200.102 161.53 200.5V201.96C161.53 202.357 161.852 202.68 162.25 202.68H237.63C238.028 202.68 238.35 202.357 238.35 201.96V200.5C238.35 200.102 238.028 199.78 237.63 199.78Z" fill="black"/>
<path opacity="0.2" d="M237.63 209.45H162.25C161.852 209.45 161.53 209.772 161.53 210.17V211.63C161.53 212.027 161.852 212.35 162.25 212.35H237.63C238.028 212.35 238.35 212.027 238.35 211.63V210.17C238.35 209.772 238.028 209.45 237.63 209.45Z" fill="black"/>
<path opacity="0.2" d="M237.63 219.12H162.25C161.852 219.12 161.53 219.442 161.53 219.84V221.3C161.53 221.698 161.852 222.02 162.25 222.02H237.63C238.028 222.02 238.35 221.698 238.35 221.3V219.84C238.35 219.442 238.028 219.12 237.63 219.12Z" fill="black"/>
<path opacity="0.2" d="M237.63 228.79H162.25C161.852 228.79 161.53 229.112 161.53 229.51V230.97C161.53 231.368 161.852 231.69 162.25 231.69H237.63C238.028 231.69 238.35 231.368 238.35 230.97V229.51C238.35 229.112 238.028 228.79 237.63 228.79Z" fill="black"/>
<path opacity="0.2" d="M237.63 238.46H162.25C161.852 238.46 161.53 238.782 161.53 239.18V240.64C161.53 241.038 161.852 241.36 162.25 241.36H237.63C238.028 241.36 238.35 241.038 238.35 240.64V239.18C238.35 238.782 238.028 238.46 237.63 238.46Z" fill="black"/>
<path opacity="0.2" d="M237.63 248.12H162.25C161.852 248.12 161.53 248.442 161.53 248.84V250.3C161.53 250.698 161.852 251.02 162.25 251.02H237.63C238.028 251.02 238.35 250.698 238.35 250.3V248.84C238.35 248.442 238.028 248.12 237.63 248.12Z" fill="black"/>
<path opacity="0.2" d="M237.63 257.79H162.25C161.852 257.79 161.53 258.112 161.53 258.51V259.97C161.53 260.368 161.852 260.69 162.25 260.69H237.63C238.028 260.69 238.35 260.368 238.35 259.97V258.51C238.35 258.112 238.028 257.79 237.63 257.79Z" fill="black"/>
<path d="M203.61 294.49L203.23 294.28C202.55 293.899 201.784 293.699 201.005 293.699C200.226 293.699 199.46 293.899 198.78 294.28L196.93 295.33L131 244.21V328.59C131.003 329.178 131.122 329.759 131.351 330.3C131.581 330.841 131.916 331.331 132.336 331.742C132.757 332.152 133.255 332.475 133.802 332.691C134.348 332.907 134.932 333.012 135.52 333H264.36C266.84 333 268 331.09 268 328.59V244.21L203.61 294.49Z" fill="#ED7240"/>
<path opacity="0.6" d="M203.61 294.49L203.23 294.28C202.55 293.899 201.784 293.699 201.005 293.699C200.226 293.699 199.46 293.899 198.78 294.28L196.93 295.33L131 244.21V328.59C131.003 329.178 131.122 329.759 131.351 330.3C131.581 330.841 131.916 331.331 132.336 331.742C132.757 332.152 133.255 332.475 133.802 332.691C134.348 332.907 134.932 333.012 135.52 333H264.36C266.84 333 268 331.09 268 328.59V244.21L203.61 294.49Z" fill="white"/>
<path opacity="0.2" d="M193.95 293.04L196.93 295.35L150.34 321.8L193.95 293.04Z" fill="black"/>
<path opacity="0.2" d="M254.5 322.8L203.54 294.54L205.89 292.7L254.5 322.8Z" fill="black"/>
<path d="M229.5 111.67H173.83C173.372 111.67 173 112.042 173 112.5V116.17C173 116.628 173.372 117 173.83 117H229.5C229.958 117 230.33 116.628 230.33 116.17V112.5C230.33 112.042 229.958 111.67 229.5 111.67Z" fill="#ED7240"/>
<path d="M275.67 139.67H250C249.116 139.667 248.269 139.314 247.645 138.688C247.02 138.062 246.67 137.214 246.67 136.33C246.67 135.447 247.021 134.6 247.645 133.975C248.27 133.351 249.117 133 250 133H275.67C276.553 133 277.4 133.351 278.025 133.975C278.649 134.6 279 135.447 279 136.33C279 137.214 278.649 138.062 278.025 138.688C277.401 139.314 276.554 139.667 275.67 139.67Z" fill="#ED7240"/>
<path d="M150.34 358.33H124.67V382.66H150.34V358.33Z" fill="#ED7240"/>
<path d="M181.56 358.33H155.89V382.66H181.56V358.33Z" fill="#ED7240"/>
<path d="M212.79 358.33H187.12V382.66H212.79V358.33Z" fill="#ED7240"/>
<path d="M244.02 358.33H218.35V382.66H244.02V358.33Z" fill="#ED7240"/>
<path d="M275.24 358.33H249.57V382.66H275.24V358.33Z" fill="#ED7240"/>
<path d="M275.67 399.83H250C249.117 399.83 248.27 399.479 247.645 398.854C247.021 398.23 246.67 397.383 246.67 396.5C246.67 395.616 247.02 394.768 247.645 394.141C248.269 393.515 249.116 393.162 250 393.16H275.67C276.554 393.162 277.401 393.515 278.025 394.141C278.649 394.768 279 395.616 279 396.5C279 397.383 278.649 398.23 278.025 398.854C277.4 399.479 276.553 399.83 275.67 399.83Z" fill="#ED7240"/>
<path opacity="0.1" d="M269.96 78L105.57 311.92V208.29L197.05 78H269.96Z" fill="white"/>
<path opacity="0.1" d="M174.86 77.9997L106 176.34V88.3397C105.946 86.9961 106.165 85.6554 106.644 84.3988C107.123 83.1423 107.852 81.996 108.787 81.0293C109.722 80.0627 110.843 79.2958 112.083 78.775C113.323 78.2543 114.655 77.9905 116 77.9997H174.86Z" fill="white"/>
<path d="M335.57 94.9102C291.48 101.12 232.75 118.62 182.31 140.57C149.49 154.85 92.24 183.28 77.61 213.22C73.23 222.22 73.19 230.56 77.51 238.05C81.83 245.54 91.86 250.75 106 254.3V252.66C92.5 249.25 82.8799 244.32 78.8499 237.31C74.8199 230.3 74.85 222.38 79 213.88C89.53 192.32 127.42 166.1 183 141.94C233.24 120 291.82 102.59 335.78 96.4002C335.978 96.3723 336.156 96.2672 336.276 96.1077C336.396 95.9483 336.448 95.7478 336.42 95.5502C336.392 95.3526 336.287 95.1742 336.128 95.0542C335.968 94.9341 335.768 94.8824 335.57 94.9102Z" fill="white"/>
<path d="M335.57 94.9102C291.48 101.12 232.75 118.62 182.31 140.57C149.49 154.85 92.24 183.28 77.61 213.22C73.23 222.22 73.19 230.56 77.51 238.05C81.83 245.54 91.86 250.75 106 254.3V252.66C92.5 249.25 82.8799 244.32 78.8499 237.31C74.8199 230.3 74.85 222.38 79 213.88C89.53 192.32 127.42 166.1 183 141.94C233.24 120 291.82 102.59 335.78 96.4002C335.978 96.3723 336.156 96.2672 336.276 96.1077C336.396 95.9483 336.448 95.7478 336.42 95.5502C336.392 95.3526 336.287 95.1742 336.128 95.0542C335.968 94.9341 335.768 94.8824 335.57 94.9102Z" fill="#ED7240"/>
<path d="M78.16 238.43C78.0275 238.431 77.8973 238.396 77.783 238.329C77.6687 238.262 77.5744 238.166 77.51 238.05C73.19 230.56 73.23 222.2 77.61 213.22C92.24 183.28 149.49 154.85 182.31 140.57C232.75 118.62 291.48 101.12 335.57 94.9102C335.768 94.8824 335.968 94.9341 336.128 95.0542C336.287 95.1742 336.392 95.3526 336.42 95.5502C336.448 95.7478 336.396 95.9483 336.276 96.1077C336.156 96.2672 335.978 96.3723 335.78 96.4002C291.78 102.59 233.24 120.04 182.91 141.94C127.38 166.1 89.49 192.32 79 213.88C74.85 222.38 74.7999 230.27 78.8499 237.31C78.9413 237.481 78.9632 237.68 78.911 237.867C78.8588 238.053 78.7366 238.212 78.57 238.31C78.4481 238.39 78.3054 238.431 78.16 238.43Z" fill="#ED7240"/>
<g opacity="0.8">
<path d="M78.16 238.43C78.0275 238.431 77.8973 238.396 77.783 238.329C77.6687 238.262 77.5744 238.166 77.51 238.05C73.19 230.56 73.23 222.2 77.61 213.22C92.24 183.28 149.49 154.85 182.31 140.57C232.75 118.62 291.48 101.12 335.57 94.9102C335.768 94.8824 335.968 94.9341 336.128 95.0542C336.287 95.1742 336.392 95.3526 336.42 95.5502C336.448 95.7478 336.396 95.9483 336.276 96.1077C336.156 96.2672 335.978 96.3723 335.78 96.4002C291.78 102.59 233.24 120.04 182.91 141.94C127.38 166.1 89.49 192.32 79 213.88C74.85 222.38 74.7999 230.27 78.8499 237.31C78.9413 237.481 78.9632 237.68 78.911 237.867C78.8588 238.053 78.7366 238.212 78.57 238.31C78.4481 238.39 78.3054 238.431 78.16 238.43Z" fill="white"/>
</g>
<path d="M356.18 105.5L398.66 83L361.5 95.23L356.18 105.5Z" fill="#ED7240"/>
<path opacity="0.3" d="M356.18 105.5L398.66 83L361.5 95.23L356.18 105.5Z" fill="black"/>
<path d="M346.14 85.58L354 91L356.18 105.5L361.5 95.23L374.96 102L398.66 83L346.14 85.58Z" fill="#ED7240"/>
<path opacity="0.6" d="M346.14 85.58L354 91L356.18 105.5L361.5 95.23L374.96 102L398.66 83L346.14 85.58Z" fill="#ED7240"/>
<path opacity="0.2" d="M354 91L398.66 83L361.5 95.23L356.18 105.5L354 91Z" fill="black"/>
</svg>