<svg version="1.2" xmlns="http://www.w3.org/2000/svg" viewBox="0 0 962 719" width="962" height="719">
	<title>EmailMarketing-svg</title>
	<defs>
		<clipPath clipPathUnits="userSpaceOnUse" id="cp1">
			<path d="m-66-58h1100v800h-1100z"/>
		</clipPath>
	</defs>
	<style>
		.s0 { fill: #ffffff } 
		.s1 { fill: #f7f7f7 } 
		.s2 { fill: #c0bebc } 
		.s3 { fill: #996930 } 
		.s4 { fill: #e48550 } 
		.s5 { fill: #f9b7a2 } 
		.s6 { fill: #493a2f } 
		.s7 { fill: #b97262 } 
		.s8 { fill: #efbfa5 } 
		.s9 { fill: #ee925e } 
		.s10 { fill: #dbaa7d } 
		.s11 { fill: #dba47d } 
		.s12 { fill: #ff5833 } 
		.s13 { fill: #995030 } 
		.s14 { opacity: .1;fill: #dba47d } 
		.s15 { fill: #ffa06a } 
		.s16 { fill: #7f7870 } 
		.s17 { fill: #493829 } 
		.s18 { fill: #c57142 } 
		.s19 { fill: #efe0d3 } 
		.s20 { fill: #ffb26a } 
		.s21 { fill: #ff976a } 
	</style>
	<g id="Clip-Path" clip-path="url(#cp1)">
		<g id="Layer">
			<path id="Layer" class="s0" d="m1034-58h-1100v800h1100z"/>
			<path id="Layer" class="s1" d="m451.3 616.3c-27.3 0-54.7 0.6-82 3.4-10.3 1-20.3 3.3-30.7 4.3-20.6 1.8-40.8 5.3-61.5 6.8-16.6 1.3-33.4 2.1-50 3.7-15.5 1.5-32.8 1.2-48.2-1.3-11.5-1.9-23-3-34.2-5.9-12.6-3.4-26.3-5.8-39.4-5.7-18.7 0.1-36.9 0.1-54.7 6-6.3 2.1-14 5.5-18.8 9.9-10.9 9.9-12.4 34.8-1.5 45.1 18.4 17.4 57.6 24.2 83.3 24.6 28.2 0.3 55.6-1.6 83.8-2.7 26.3-1 52.4-2.5 78.7-2.5 53.7 0.1 107.4 0 160.9-3.2 50.4-3.1 100.9-2.1 151.3-2.1 51.7 0 103.1 0.4 154.5 6.7 22.4 2.7 45.2 3.7 67.6 5.6 20.2 1.7 39.5-0.1 59.6-1.6 16.8-1.4 33.6-5.3 48.9-12 12.1-5.2 33.7-21.6 37.4-34.2 10.4-35.3-146.8-34.4-170.9-34.3-27 0.1-54.2 0.9-81.2-0.1-11.3-0.4-22.5-2.4-33.6-4.6-11-2.2-22.1-1.6-33.3-2.6-46.7-3.8-93.5-3.3-140.3-3.3-15.2 0-30.4-0.1-45.7 0z"/>
			<path id="Layer" class="s2" d="m913.6 473.3l-4.5 84.7-8.5 114.4-12.8 0.9-15.4-103.9-21.4-87.8z"/>
			<path id="Layer" class="s3" d="m888.3 678.6l14.2 5.9 6.4-7.4-7.3-6.3-13.8 0.9z"/>
			<path id="Layer" class="s2" d="m816.1 467l-2.7 50.8 8.2 151.1 12.8 0.7 19-99.1 16.9-108.7z"/>
			<path id="Layer" class="s3" d="m834 672l-14.1 6.2-6.5-4.3 7.2-6.5 13.8 0.7z"/>
			<path id="Layer" class="s4" d="m885.3 310.9l-39.9-2.6c0 0-22 3.3-34.8 56.3-7.1 29.6-7.8 75.6-6.9 110.7 1.1 5 7.5 26.7 30.4 22 39.2-8 60-15.3 77.4-12.8 14.8 2.6 12.7-17.6 10.5-32.9l-7.8-47.5z"/>
			<path id="Layer" class="s5" d="m875.6 261.8c-10.1-1.8-20.5-3.3-30.4-0.9-2.2 0.5-4.5 1.4-5.6 3.3-0.5 0.8-0.7 1.6-0.9 2.5-2.1 9.5-4.7 23.5 1.8 31.9 1.3 1.6 2.9 2.9 4.6 3.9 2.4 1.3 4.9 2.2 7.6 2.6q-0.7 3.5-2 6.9c2.4 3.3 13.1 3.3 15-0.1q0-4.3 0-8.6 1.9-0.8 3.6-2.1c4.5-3.2 7.3-7.9 8.8-13 1.7-5.7 4.2-11.1 5.7-16.8 0.5-2.1 0.9-4.5-0.3-6.3-1.2-1.9-3.7-2.5-6-2.9q-0.9-0.2-1.9-0.4z"/>
			<path id="Layer" class="s6" d="m842.5 268.6c4.8-3.4 12.2-5.1 16.9-4.9 14.1 0.4 19.6 10.5 20.9 23.4 3.7-5.1 10.7-11.6 10.9-17.9 0.1-5.2-0.9-12.3-4-16.6-2.9-4.1-9.9-6.1-14.1-8.4q-6-3.2-12-6.3c-0.8-0.5-1.7-0.9-2.6-1.1-1.1-0.1-2.2 0.2-3.3 0.5q-13.7 4.2-27.3 8.3c-1.8 0.6-3.8 1.3-4.3 3-0.4 1.1-0.1 2.2 0.2 3.3 1.2 4.8 3.4 9.6 4.1 14.4 0.7 2.8 3 17.1 7.9 15.3 1.3-2.5 1.4-5.5 2.5-8.1 0.7-1.9 2.3-3.5 4.2-4.9z"/>
			<path id="Layer" class="s4" d="m845.4 308.3l-14.5 5.1-51.2 58.3-2.5 18.7 27.4 41.2 6.3-15.8-12.1-30.8 16.7-12.8 20.8-52.6z"/>
			<path id="Layer" class="s4" d="m877 314.7l26.1-30.6-9.7-79.7 11.7-5.7 19.7 80.4-4.2 20.4-28.8 43.4z"/>
			<path id="Layer" class="s7" d="m902.6 199.9l-0.3-7.3-8.9-10.8-5.5 5.4 4.2 9.7-2.3 3.5 3.6 4z"/>
			<path id="Layer" class="s8" d="m193.3 296l13.1-9.2-1.8-8.4-13.4 4.6-6.4 4.2v4.7z"/>
			<path id="Layer" class="s3" d="m68.3 650.9c-1.4-1.5-3-2.3-4.8-2-1.7 0.2-3.3 1.4-4 2.9-0.4 1.1-0.5 2.3-0.6 3.5-0.5 6-0.5 20.2 7.5 22.3 3.4 0.8 6.1-4.5 7-7.6 1.4-4.5-0.6-14.1-5.1-19.1z"/>
			<path id="Layer" class="s8" d="m71.1 560.3l-0.4 36.6c0.5 16.3-2.1 32.7-1.6 48.9 0.1 3.8 1.1 7.7 0.2 11.4-1 3.6-3.9 4.3-6.9 2.4-4.1-2.4-3.4-8.2-4.1-12.4-1.9-11.5-4-22.9-6-34.4-0.9-5.7 1-13.6 0.6-19.3l-5.9-30.7z"/>
			<path id="Layer" class="s9" d="m29.3 501.2l15.9 70.7 3.4 66.9 25.2-0.6 6.9-187-49 0.9z"/>
			<path id="Layer" class="s3" d="m104.4 646.6c-1.4-1.4-3-2.2-4.8-1.8-1.7 0.4-3.2 1.6-3.8 3.3-0.5 1-0.5 2.2-0.6 3.4-0.2 6 0.4 20.3 8.5 21.9 3.4 0.6 6-1.9 6.8-5 1.2-4.6-1.4-17.1-6.1-21.8z"/>
			<path id="Layer" class="s8" d="m91.1 565.5l2.1 36.5c0.2 10.2 1.5 20.3 2.6 30.3 1 9.4-0.5 19.2 4.4 27.7 1.5 2.7 4.6 4.5 6.8 1.2 1.6-2.5 0.6-6.7 1-9.5 1.3-11.6 2.9-23.1 4.3-34.7 0.7-5.7-1.6-13.5-1.5-19.2l4.5-31z"/>
			<path id="Layer" class="s9" d="m123.1 496.8l2 68.7-10.8 69.5-25.7 0.8 1.2-75.2-13.6-62.4-4.6-40.8 40.8-4.8z"/>
			<path id="Layer" class="s2" d="m90.8 312l-44-1.1-25.4 47.4 9 44.4 1.6 53.1 62.7 0.8 20.6-3.3-5.4-56.8 2.8-69.2z"/>
			<path id="Layer" class="s2" d="m45.4 314.2l-35.7 54.3 5.4 30.3 55.2 38.2 10.4-9-36.9-46.7 1.4-29.5z"/>
			<path id="Layer" class="s2" d="m88.1 342.6l42.2 15.3 24.5-6 42.2-55.4-14.7-6.4-44.4 38-40.1-12z"/>
			<path id="Layer" class="s10" d="m59.8 311.7l13.7 19.3 6.4-0.5 10.7-19.6z"/>
			<path id="Layer" class="s8" d="m70.6 430.3l-0.2 7.4 13.1 4.7 7.5-5.7v-8.6l-7.2-0.4-0.3-1.9-2.4-1.5z"/>
			<path id="Layer" class="s8" d="m75.9 273c2.9-2.5 6.2-2.9 9.8-3 1.7 0 2.3 0.5 3.2 0.3 0.4-0.1 0.8-0.2 1.5-0.7 1.3-0.8 2.4-2.9 3.1-4.6 3.3 2.1 5.8 6 6.5 11.8 0.7 6.4 0.7 13.1-1.5 19.5-2.2 6.4-6.9 12.4-12.9 14.7q-0.5 0.3-1.1 0.4c-2.5 0.9-5 1-7.3 0.7l-7.6-3.7q-0.6-0.4-1.1-1c-2.5-10.8 0.2-28 7.4-34.4z"/>
			<path id="Layer" fill-rule="evenodd" class="s6" d="m24.5 382.3q1.3-1.1 2.5-2.2c6.1-5.5 12.4-11.3 14-19.2 0.8-3.8 0.5-7.5-0.3-11.3-1.3-6-3.8-12.1-4.4-18.3-1.1-10.6-0.2-25.8 2.3-36.2 2.8-11 8.8-21.1 16.1-29.8 8.7-10.6 25-22.4 36.6-8.6q0.2 0.3 0.4 0.5 1.9-0.9 3.9-1.5c8 6.7 10 17.5 9.2 27.5-0.8 9.9-5.9 21.2-3 31.1 0.2 1 0.6 1.9 0.6 2.9 0 1-0.5 2-1.4 2.4-0.6 0.2-1.2 0.1-1.8 0-4.9-0.6-10.2-1.4-13.5-5.1q-0.7-0.8-1.2-1.6 0.6-0.2 1.1-0.4c6-2.3 10.7-8.3 12.9-14.7 2.2-6.4 2.2-13.1 1.5-19.5-0.7-5.9-3.2-9.7-6.5-11.8-0.7 1.7-1.8 3.8-3.1 4.6-0.7 0.4-1.1 0.6-1.5 0.7-0.9 0.1-1.5-0.3-3.2-0.3-3.6 0-6.9 0.5-9.8 3-7.2 6.4-9.9 23.6-7.4 34.4q0 0.3 0.1 0.6 0.5 1.8 1.2 3.4 0.2 0.6 0.5 1.1c2.3 4.1 5.7 7.9 5.6 12.6q0 1.2-0.3 2.5c-0.4 1.5-1.1 3-1.6 4.4-5.9 15.6 0.6 33.1 10.2 46.2 5 6.7 11.5 12.6 14.3 20.4 0.5 1.4 0.8 2.8 0.9 4.3 0.7 7-2.7 14.7-9.5 15.9-1.6 0.3-3.3 0.2-4.8 0.8-5 2.4-2.8 10.6-6.5 14.8-2.4 2.6-6.5 2.7-10.1 2.6-1.2 0-2.4-0.1-3.4-0.7-2.1-1.4-1.9-4.4-2.5-6.9-1.1-4.4-5.5-7.2-9.9-8.2-4.5-1-9.1-0.5-13.6-0.5-5.7 0.1-11.4-0.8-16.4-3.5-2-1-3.8-2.4-5.4-4q0.3-1.7 0.6-3.5-0.3 1.8-0.6 3.5c-2.4-2.5-4.1-5.5-4.7-8.9-1.5-9 5.1-17.3 11.9-23.5zm38.9-102.4c-4.5 9.5-1.8 22.2 5.1 29-6.9-6.8-9.6-19.5-5.1-29zm-39.7 108.9q-0.5 1.5-1 3 0.5-1.5 1-3zm1.7-4.4q-0.6 1.6-1.2 3.2 0.6-1.6 1.2-3.2zm47.9-115.9q1.4-0.9 2.8-1.6-1.4 0.7-2.8 1.6z"/>
			<path id="Layer" class="s11" d="m883 21.9h-185.3v144.6h185.3z"/>
			<path id="Layer" class="s12" d="m689.1 98.7l0.9 121.9 177.4-1.3c13.4-0.1 24.2-11.8 24.1-26.1l-0.7-95.9-100.4 63.6z"/>
			<path id="Layer" class="s1" d="m868.4 48.8h-137.2v2.9h137.2z"/>
			<path id="Layer" class="s1" d="m868.4 71.8h-156.1v3.1h156.1z"/>
			<path id="Layer" class="s1" d="m868.4 94.9h-156.1v3.1h156.1z"/>
			<path id="Layer" class="s13" d="m194.2 187.7l-25.5 53.3-0.1-75.4 250.7-156.5z"/>
			<path id="Layer" class="s14" d="m168.7 166.2l150.5-78.1-125.7 101.1-24.6 50.9z"/>
			<path id="Layer" class="s15" d="m168.7 241l24.7-52.4 225.4-178.7z"/>
			<path id="Layer" class="s16" d="m418.8 9.9l0.5-0.8-2.9 2.2z"/>
			<path id="Layer" class="s11" d="m418.8 9.9l-2.4 1.4-222.9 176.9-0.3 0.2 71.9 64.5z"/>
			<path id="Layer" class="s11" d="m419.3 9.1l-312.4 101.8 61.3 55 248.2-154.6z"/>
			<path id="Layer" class="s3" d="m294.7 664.1l-1 7.8 14.6 6.8 8.8-3.8-6.8-8.8-14.6-9.9z"/>
			<path id="Layer" class="s2" d="m294.2 661.4l11.2-99.6-13.5-111.5 3-23.7 60.6-2.3 2.2 38.6-10.2 99.1-38.2 104.5z"/>
			<path id="Layer" class="s10" d="m361.2 314.1l30.4 8.3 35.3 62.5-16.7 15.4-23.5-27.8z"/>
			<path id="Layer" class="s2" d="m399.9 435.5l0.2 100.5-20.2 129.4-14.6-0.2-8-119.6-18.7-119.8z"/>
			<path id="Layer" class="s3" d="m365.3 671.4l15.7 5 7.9-4.8-7.7-8-15.8-0.1z"/>
			<path id="Layer" class="s10" d="m285.6 469.7c0.1-4.4 0.4-8 0.4-9.3 0.3-11.7 1.4-23.4 2.8-35 1.4-10.4 3-36.2 4.8-46.5 1.5-8.5 6.6-29.8 10.3-37.7 9.2-19.7 6.3-21.5 46.7-27.4 17.7-2.5 21.9 8.5 36.4 21.2 1.4 1.2 1.3 8.7 1.7 10.7q0.8 5.2 1.9 10.4 0.8 4 1.9 8.1c0 0 12.1 55.3 20.2 67 8 11.8 24.6 28.2-3.2 38.2-4.9 1.6-9.8 3.1-15 3.9 0 0-22.7-2.5-34.4-2.4-10.7 0.1-21.5 1.2-32.1 3-7.1 1.2-14.3 2.9-20.6 6.2-6 3.1-10.4 7.8-16.5 11-0.6 0.3-1.2 0.7-1.9 0.6-3.5-0.5-3.7-12.9-3.4-22z"/>
			<path id="Layer" class="s5" d="m350.7 319.4c-2.1 1-6.9 1.3-11.9-0.6-1-0.4-1.7-1.4-1.7-2.5q0.1-4.6 0.8-9.1c-3.8-1.3-8.2-3.3-8.8-7.2-0.2-1.3 0-2.5 0.2-3.8q1.3-7.7 2.7-15.3c0.3-1.8 0.6-3.6 1.6-5.1 1.6-2.7 4.9-3.9 8-4.4 8-1.4 16.6 0.3 22.7 5.5 1.7 1.4 3.2 3.1 3.9 5.1 1.1 3.1 0.3 6.5-0.6 9.7q-1.1 4.4-2.3 8.9c-0.9 3.4-2.2 7.2-5.4 8.5-1.8 0.7-3.8 0.5-5.4 1.5-2.8 1.7-2.4 5.8-3.8 8.8z"/>
			<path id="Layer" class="s6" d="m396.4 269.8q1.2-1.9 2.6-3.7c2-2.5 4.5-4.6 6.2-7.4 1.6-2.8 2.2-6.6 0.2-9.1-1.3-1.7-3.3-2.5-5.3-3.1-6.6-1.9-13.7-2.1-20.4-0.4-6.3 1.6-12 4.3-18.3 1.9-6-2.2-10.4-1.3-16.6 0.9-6.8 2.5-15.9 3-22 6.4-2.6 1.5-4.6 3.7-6.2 6.2-5.5 8.5-5.6 20.2-0.1 28.8 1.2 1.9 2.7 3.7 4.3 5.3 3.1 3.5 7 7.8 11.4 9.1 0.1-4-3.5-16.4-0.5-19.6 4.8-5.1 15.6-3.3 21.6-2.1 6.5 1.4 12.3 6 18.7 7 4.6 0.7 10.5-1.6 14.5-4 4.8-2.9 7.1-11.5 9.9-16.2z"/>
			<path id="Layer" class="s10" d="m317.1 321.4l-25.2 22.1-28.1 59.1 35.5 42.2 6.1-23.6z"/>
			<path id="Layer" class="s12" d="m489.8 343.5l-311.6 23.5 163.1 85.4z"/>
			<path id="Layer" class="s12" d="m168.5 374.1l15.1 200.7 292.1-22c22.1-1.7 38.5-22.2 36.8-45.8l-11.9-157.9-158.3 116.1z"/>
			<path id="Layer" class="s17" d="m433.9 347.7q-0.3 4 0 8.2c0.7 8.5 3.3 16.4 7.3 23.2l48.6-35.6z"/>
			<path id="Layer" class="s17" d="m491.5 405.4c4.6-0.4 9-1.3 13.1-2.7l-4-53.6-52.9 38.8c10.7 11.8 26.6 18.8 43.8 17.5z"/>
			<path id="Layer" class="s11" d="m538.2 382.2c20.9-21 20.9-55 0-76-21-20.9-55-20.9-76 0-21 21-20.9 55 0 76 21 20.9 55 20.9 76 0z"/>
			<path id="Layer" class="s0" d="m511.4 373.6l-12.6 0.7-2.5-41.4-7.8 0.5-0.8-12.6 20.5-1.2z"/>
			<path id="Layer" class="s3" d="m689 658.6c1.4-1.5 2.9-2.3 4.7-2 1.7 0.3 3.3 1.4 4 3 0.5 1 0.6 2.2 0.7 3.4-0.2-1.8 1.1 20-7.6 22.2-3.3 0.9-6.1-1.5-7-4.5-1.3-4.5 0.7-17.1 5.2-22.1z"/>
			<path id="Layer" class="s8" d="m686.2 568.3l0.4 36.5c-0.5 16.2 2 32.5 1.5 48.8-0.1 3.7-1 7.6-0.1 11.3 0.9 3.7 3.9 4.3 6.9 2.5 4-2.5 3.4-8.2 4-12.4 1.9-11.5 4.1-22.9 6-34.4 0.9-5.6-1-13.5-0.6-19.2 0 0 5.9-30.6 5.9-30.6z"/>
			<path id="Layer" class="s18" d="m727.9 509.2l-15.9 70.7-3.4 66.7-25.2-0.6-6.8-186.6 48.8 0.9z"/>
			<path id="Layer" class="s3" d="m652.9 657.3c1.5-1.4 3.1-2.1 4.8-1.8 1.7 0.4 3.2 1.7 3.9 3.3 0.4 1.1 0.4 2.3 0.5 3.4-0.1-1.8-0.1 20.2-8.5 21.8-3.3 0.7-6-1.8-6.8-4.9-1.1-4.6 1.4-17.1 6.1-21.8z"/>
			<path id="Layer" class="s8" d="m666.2 573.4l-2.1 36.5c-0.2 10.1-1.5 20.2-2.6 30.2-1 9.4 0.6 19.1-4.3 27.6-1.6 2.7-4.7 4.5-6.8 1.2-1.7-2.5-0.7-6.6-1-9.5-1.3-11.5-3-23.1-4.3-34.6-0.7-5.7 1.6-13.5 1.4-19.2 0 0-4.4-30.8-4.4-30.8z"/>
			<path id="Layer" class="s18" d="m634.3 504.9l-2 68.6 10.7 69.3 25.7 0.8-1.2-75.1 13.6-62.2 4.6-40.7-40.7-4.8z"/>
			<path id="Layer" class="s19" d="m666.5 320.5l43.9-1.1 25.4 47.3-9.1 44.3-1.6 53-62.5 0.8-20.6-3.3 5.5-56.6-3.1-75.7z"/>
			<path id="Layer" class="s19" d="m711.8 322.7l35.6 54.2-5.3 30.2-55.2 38.2-10.3-9.1 36.8-46.6-1.4-29.4z"/>
			<path id="Layer" class="s19" d="m664.3 349.1l-22.8 45.7-24.6 4.9-61.4-26.8 10.6-12 55.9 10.2 22.4-41.9z"/>
			<path id="Layer" class="s8" d="m669.3 283.7c6.6-19.2 31.9-12 37.2 5.1 3.4 11.2-5.2 25.7-16.8 28.9q-0.1 0.6-0.1 1.2c0 1.8-0.2 3.5-0.5 5.3-0.1 0.7-10.2-1.3-11.3-1.5-0.4-0.1-0.9-0.2-1.1-0.5-0.4-0.6 0.3-2.5 0.3-3.2q0.2-1.3 0.3-2.5c-5.7-2.8-9.3-8.7-10.3-14.8-1-6 0.3-12.2 2.3-18z"/>
			<path id="Layer" class="s6" d="m685.8 266.4c1.4 1.3 1.9 3.3 2.3 5.1 0.2 1.1 0.4 2.3 0.2 3.4-0.9 4.3-5.3 4.1-8.6 5.5-4.1 1.7-7.7 4.9-10 8.6-3.6 5.8-2 13.2-0.5 19.5 0.5 2.3 1.5 5.6-0.2 7.6-1.8 2-5.9 1.7-8 0.7-1.9-1-3.5-2.8-5.6-3.1-2.2-0.4-5.3 0.6-6.3-1.5-0.3-0.5-0.3-1.2-0.7-1.8-1.2-1.7-4.3 0.3-6.1-0.9-1-0.8-1-2.4-0.7-3.7 0.4-1.3 1-2.6 0.8-3.9-0.3-1.2-1.1-2.1-1.6-3.1-1-2-0.6-4.7 0.8-6.4 2.8-3.2 8.2-2.6 11.1-5.6 1.6-1.6 2.2-3.8 2.7-6 0.6-2.1 1.3-4.4 2.9-5.8 2.1-1.8 5-1.5 7-3.6 1.2-1.3 2-2.9 3.3-4 1.8-1.4 5.2-2.5 7.3-3.2 3.5-1.2 7.3-0.5 9.9 2.2z"/>
			<path id="Layer" class="s6" d="m701.9 297c0.1 6.4-3.1 13.2-0.1 18.8 2.9 5.6 10.2 6.6 16.5 6.9 1 0 14.2 1.2 14.2 0.9 1-4.4 2-8.9 4.3-12.7 2.3-3.9 6.2-7.1 10.6-7.4-1.3-0.2-1.9-1.8-1.8-3.1 0.2-1.3 0.9-2.5 1.3-3.7 0.9-3.1 0-6.8-2.4-8.9-4.6-4.4-13.1-2.6-17.1-7.6-2.4-3.1-2.2-7.6-3.5-11.3-2.5-7.3-10.5-8.9-16.4-12.2-6.4-3.5-12.3-5.4-19.6-4.2-9 1.5-15.7 10.7-12.3 19.4 4.5 11.1 22.4 10.1 25.7 21.4 0.4 1.2 0.5 2.5 0.6 3.7z"/>
			<path id="Layer" class="s20" d="m697.4 320.2l-13.6 19.2-6.4-0.5-10.7-19.5z"/>
			<path id="Layer" fill-rule="evenodd" class="s0" d="m628.4 464.8c-1.1 0-2-0.4-2.8-1.1l-30.9-31.8-19.3 24.7c-0.7 0.8-1.6 1.3-2.7 1.3-1.7 0-3.4-1.2-4-2.8l-45.6-122.8c-0.6-1.5-0.3-3 0.8-4 0.7-0.8 1.6-1.3 2.7-1.3q0.7 0 1.5 0.3l121.6 48.6c1.5 0.6 2.5 1.9 2.7 3.3 0.2 1.5-0.5 2.9-1.8 3.9l-24.6 18.3 30.9 31.6c1.5 1.6 1.5 4.2 0 5.7l-25.6 25c-0.8 0.7-1.8 1.1-2.9 1.1zm-34.2-42.9c1.2 0 2.2 0.4 3 1.2l31.3 32.1 19.9-19.4-31.3-32.1c-0.8-0.8-1.2-1.9-1.1-3 0.1-1.2 0.8-2.4 1.8-3.2l22.6-16.7-106.7-42.7 40 107.7 17.7-22.6c0.6-0.8 1.7-1.3 2.8-1.3z"/>
			<path id="Layer" fill-rule="evenodd" class="s0" d="m657.9 439.8l-13 12.6-12.6 12.4c-1 1-2.4 1.5-3.9 1.5-1.5 0-2.8-0.5-3.8-1.6l-4.2-4.3-14-14.3-11.6-11.9-8.4 10.7-9.8 12.6c-1 1.2-2.4 1.9-3.9 1.9-2.3 0-4.6-1.6-5.4-3.8l-2.8-7.5-2.8-7.6-24.5-66-13.9-37.3-1.7-4.4c-0.7-2-0.2-4.1 1.2-5.5 1-1.1 2.3-1.8 3.8-1.8q1 0 2 0.4l6.1 2.4 8.9 3.6 65.3 26.1 41.3 16.5c2.1 0.8 3.4 2.5 3.7 4.5 0.2 2-0.6 4-2.4 5.3l-13 9.6-10.2 7.6 14.7 15.2 15 15.3c2.1 2.2 2.1 5.7-0.1 7.8zm-2.1-5.7q-14.9-15.3-29.9-30.7-1.1-1.1-2.2-2.2 13-9.7 26.1-19.3c1.8-1.4 1.4-3.8-0.7-4.6q-20.6-8.2-41.3-16.5-32.7-13.1-65.3-26.1-7.5-3-15-6-0.5-0.2-0.9-0.2c-0.7 0-1.2 0.3-1.6 0.8-0.6 0.6-0.9 1.4-0.5 2.5q7.7 20.8 15.5 41.7 12.2 33 24.5 66 2.8 7.5 5.6 15.1c0.4 1 1.5 1.8 2.6 1.8 0.5 0 1.1-0.2 1.5-0.8q10.2-13 20.3-26 14 14.4 28 28.7 2.1 2.2 4.2 4.3c0.5 0.5 1.1 0.7 1.7 0.7 0.7 0 1.3-0.2 1.8-0.7q12.8-12.5 25.6-25c1-0.9 0.9-2.6 0-3.5z"/>
			<path id="Layer" fill-rule="evenodd" class="s0" d="m648.1 433.3q1.3 1.3 2.5 2.5-11.1 10.8-22.1 21.6-14.1-14.5-28.2-29-2.1-2.1-4.2-4.3c-0.5-0.4-1.2-0.7-1.9-0.7-0.6 0-1.2 0.2-1.6 0.7q-9.7 12.4-19.3 24.8-7-18.7-13.9-37.4-12.3-33-24.5-66-1.9-5-3.8-10.1 18.2 7.3 36.4 14.6 32.7 13.1 65.4 26.1 5.3 2.2 10.6 4.3-12.4 9.2-24.8 18.4c-1.3 0.9-1.7 2.6-0.5 3.9q15 15.3 29.9 30.6zm-1.8 2.5l-0.3-0.4-29.9-30.6c-1.2-1.2-1.7-2.7-1.6-4.3 0.1-1.6 1-3.1 2.4-4.2l12.6-9.3 7.9-5.8-0.2-0.1-5.4-2.2-65.4-26.1-30.1-12.1 1.4 3.8 24.5 65.9 7.2 19.5 4.8 12.9 6.3-8.1 9.7-12.4c0.9-1.2 2.4-1.9 4-1.9 1.6 0 3 0.6 4 1.6l3.6 3.7 0.6 0.6 19.9 20.4 6.3 6.4z"/>
			<path id="Layer" class="s21" d="m526.9 331.1l45.6 122.8 21.8-28 34.2 35 12.8-12.5 12.8-12.5-34.1-35 28.5-21.2z"/>
			<path id="Layer" class="s8" d="m664.4 441l0.2 7.4-13 4.7-7.5-5.7v-8.6l7.2-0.4 0.2-1.9 2.4-1.5z"/>
			<path id="Layer" class="s7" d="m268.9 364l7.3-9.8 15-2.9 8.1 8-14.3 14.9z"/>
			<path id="Layer" class="s7" d="m388.1 349.8l7.4-9.9 15-2.9 8.1 8.1-14.3 14.8z"/>
		</g>
	</g>
</svg>