<svg version="1.2" xmlns="http://www.w3.org/2000/svg" viewBox="0 0 420 398" width="400" height="379">
	<title>PurchaseHistory-svg</title>
	<defs>
		<clipPath clipPathUnits="userSpaceOnUse" id="cp1">
			<path d="m-40-73h500v500h-500z"/>
		</clipPath>
		<clipPath clipPathUnits="userSpaceOnUse" id="cp2">
			<path d="m365.16 68.06c-4.85 13.54 2.2 28.45 15.74 33.29 13.55 4.85 28.45-2.2 33.3-15.75 4.84-13.54-2.21-28.45-15.75-33.29-13.54-4.85-28.45 2.2-33.29 15.75z"/>
		</clipPath>
		<clipPath clipPathUnits="userSpaceOnUse" id="cp3">
			<path d="m365.16 68.06c-4.85 13.54 2.2 28.45 15.74 33.29 13.55 4.85 28.45-2.2 33.3-15.75 4.84-13.54-2.21-28.45-15.75-33.29-13.54-4.85-28.45 2.2-33.29 15.75z"/>
		</clipPath>
		<clipPath clipPathUnits="userSpaceOnUse" id="cp4">
			<path d="m8.95 264.19c7.92 12 24.08 15.3 36.08 7.37 12-7.93 15.31-24.08 7.38-36.08-7.93-12.01-24.09-15.31-36.09-7.38-12 7.93-15.3 24.08-7.37 36.09z"/>
		</clipPath>
		<clipPath clipPathUnits="userSpaceOnUse" id="cp5">
			<path d="m8.95 264.19c7.92 12 24.08 15.3 36.08 7.37 12-7.93 15.31-24.08 7.38-36.08-7.93-12.01-24.09-15.31-36.09-7.38-12 7.93-15.3 24.08-7.37 36.09z"/>
		</clipPath>
		<clipPath clipPathUnits="userSpaceOnUse" id="cp6">
			<path d="m124.72 40.79h-52.09v52.09l52.09-0.01z"/>
		</clipPath>
		<clipPath clipPathUnits="userSpaceOnUse" id="cp7">
			<path d="m124.72 40.79h-52.09v52.09l52.09-0.01z"/>
		</clipPath>
	</defs>
	<style>
		.s0 { fill: #c08e60 } 
		.s1 { fill: #bf560b } 
		.s2 { fill: #f2f2f2 } 
		.s3 { fill: #f29b89 } 
		.s4 { fill: #be4400 } 
		.s5 { fill: #552e00 } 
		.s6 { fill: #ffffff } 
		.s7 { fill: #b27b54 } 
		.s8 { fill: #f4d3c8 } 
		.s9 { fill: #ad7847 } 
		.s10 { fill: #ff974e } 
		.s11 { fill: #c18e79 } 
		.s12 { fill: #f9b7a2 } 
		.s13 { fill: #654b1e } 
		.s14 { fill: #f3a696 } 
		.s15 { fill: #764522 } 
	</style>
	<g id="Clip-Path" clip-path="url(#cp1)">
		<g id="Layer">
			<g id="Clip-Path" clip-path="url(#cp2)">
				<g id="Layer">
					<path id="Layer" class="s0" d="m406.8 50.8l-8.9-3.2c-15.8-5.7-33.1 2.5-38.8 18.3-5.6 15.8 2.6 33.1 18.4 38.8l8.9 3.2c15.8 5.6 33.1-2.6 38.8-18.4 5.6-15.7-2.6-33.1-18.4-38.7z"/>
				</g>
			</g>
			<g id="Clip-Path" clip-path="url(#cp3)">
				<g id="Layer">
					<path id="Layer" class="s1" d="m405.6 117.2c-1.1 4.4-10.3 10.3-11.5 14.6-0.8 2.7-3.6 4.1-6.2 3.2l-25.9-9.3c-5-1.8-7.5-7.3-5.7-12.2l1.2-3.3c1.6-4.1-1.2-8.9-5.5-8.6q-0.6 0-0.8-0.2c-19.6-23.1 29.4 34.6 29.7-2.7 0.4-37.2-39.2 7.7-23.4-10.3 4.4-4.9 12.3-10.9 24.4-9.7 2.1 0.2 4.4 0.7 6.4 1.5q3.9 1.3 7 3.3c9.6 6.1 13.8 16.5 10.7 31.8q-0.2 1-0.4 1.9z"/>
					<path id="Layer" class="s2" d="m377.9 128.5c-0.5 1.4-2 2.2-3.4 1.7-1.4-0.5-2.1-2-1.7-3.4 2.7-9.6 6.8-27.9 8.5-41.6 0.4-3.7 3.5-6.3 7-5q3.3 1.1 6.1 2.7c0.5 0.4 0.7 1 0.4 1.6-2.3 4.8-5.7 11.8-6.8 14-1.1 2.2-6.4 18.3-10.1 30z"/>
					<path id="Layer" class="s3" d="m388.3 80.2c3.1 1.1 3.7 5.6 0.5 6.3q-0.8 0.2-1.4 0c-1.1-0.4-1.9-1.3-2.6-2.3-1.5-2.5 0.8-5 3.5-4z"/>
					<path id="Layer" class="s2" d="m373.7 98.9q-0.1 0-0.1-0.1l-0.6-8.8c0-0.8 0.5-1.6 1.3-1.9l0.4-0.1c0.9-0.4 1.3-1.5 0.7-2.3l-0.4-0.6q0-0.1 0-0.1l2.1-6.4q0-0.1 0.1 0 0.1 0 0.1 0.1l-1.8 5.5c-0.2 0.5-0.1 1 0.2 1.5 0.5 0.8 0.2 2-0.8 2.4l-0.4 0.2c-0.8 0.3-1.3 1.1-1.2 1.9l0.5 8.6q0 0.1-0.1 0.1z"/>
					<path id="Layer" class="s2" d="m388.9 105.8q-0.1 0-0.2 0-0.1-0.1 0-0.2l5.9-6.2c0.6-0.7 0.7-1.6 0.3-2.3l-0.3-0.4c-0.5-0.9 0-2.1 1-2.4 0.5-0.1 0.9-0.5 1-1l2-6.6q0.1-0.1 0.2-0.1 0 0 0 0.1l-2 6.8c-0.2 0.5-0.5 0.8-1 1-1 0.3-1.4 1.3-0.9 2.2l0.9 1.6q0 0 0 0.1z"/>
					<path id="Layer" class="s4" d="m387.5 88.1c-1.1-0.4-2-1.1-2.3-1.3q-0.1 0 0-0.1 0-0.1 0.1 0c0.5 0.3 3 2 4.8 1.3 1.2-0.4 2.3-1.6 2.6-1.9q0.1 0 0.2 0 0 0.1 0 0.2c-0.3 0.3-1.5 1.4-2.8 1.9-0.8 0.3-1.8 0.2-2.6-0.1z"/>
					<path id="Layer" class="s2" d="m356 94.2q-0.1 0 0-0.1 0-0.1 0.1-0.1c1 0.3 9.5 2.8 11.4 4q0 0.1 0 0.2-0.1 0.1-0.1 0c-1.9-1.2-10.4-3.7-11.4-4z"/>
					<path id="Layer" class="s3" d="m359.4 101.9c-4.2-0.3-8.8 3.1-7.6 7.1 0.5 1.8 4.5 3.1 7.3 3.8 1.6 0.4 9.8 1.2 16.2 1.8 3.6 0.3 6.5-3.1 5.5-6.7-0.6-2-2.3-3.5-4.4-3.8l-14.8-2q0 0 0 0c-0.1 0-0.8-0.1-2.2-0.2z"/>
					<path id="Layer" class="s3" d="m373.8 106.3c-2.8-3.3-5.4-7.5-1-7.6q0.5 0 0.9 0.2c2.9 1.4 8 3.1 9.8 4.2 1.8 1.2 7.6 6.9 7.7 6.9 0.1 0 2.6 3.3 5 6.4 2.1 2.7 1.1 7.5-2.4 7.5-2.2 0.1-5.6-1.5-8.3-3.6-2.7-2.1-10.4-12.5-11.7-14z"/>
					<path id="Layer" class="s5" d="m380.8 115.2q-0.1 0-0.1 0c-0.4-0.5-2.5-3.1-3.1-3.8-0.6-0.9-4.3-5.5-5.3-6.2-1-0.8-4.7-2.1-4.9-2.2q0 0 0 0v-0.1q0.1-0.1 0.1 0c0.7 0.2 4 1.4 4.9 2.1 1.2 0.9 5.4 6.2 5.4 6.3 0.5 0.6 2.6 3.2 3 3.7q0.1 0.1 0 0.2z"/>
					<path id="Layer" class="s5" d="m398.2 63.5c-7.8-2.3-22.6 0.3-19.7 8 1.7 4.4 15.6 10 20.8 8.8 3.9-0.9 4.1-13.3 3.8-14.7-0.1-0.5-2.2-1.3-4.9-2.1z"/>
					<path id="Layer" class="s3" d="m392.2 70.4c-2.2-0.8-4.6 0.2-5.6 2.3l-0.8 1.8c-1.2 2.6 0 5.6 2.6 6.5 2.6 0.9 5.5-0.6 6.2-3.3l0.5-1.9c0.6-2.3-0.7-4.6-2.9-5.4z"/>
					<path id="Layer" class="s5" d="m395 76.2c0.2-0.8-0.7-1.5-1.5-1.3-0.9 0.2-2 0.2-2.9-0.3-0.8-0.4-1.8 0.3-1.1 0.9q0.4 0.4 0.8 0.6c1.2 0.6 2.9 0.8 3.8 0.8 0.4 0 0.8-0.3 0.9-0.7z"/>
					<path id="Layer" class="s3" d="m400.2 67.6c-1.7 4.7-5.2 8.6-9.3 7.1-4.3-1.5-5.8-6.8-4.1-11.5 1.7-4.7 6.6-6.2 9.6-5.1 3 1 5.4 4.8 3.8 9.5z"/>
					<path id="Layer" class="s5" d="m397.9 62c-0.2-0.6-0.9-0.9-1.4-0.5-0.6 0.3-1.3 0.8-1.6 1-0.7 0.4-1.8 0.4-3.7 0-1.6-0.3-3.3-1-3.8 0.1q-0.2 0.4-0.4 0.8c-0.5 1-1.6 0.9-1.6-0.2-0.1-1.1-0.4-1.8-0.3-2.1 0.4-0.9 0.6-1.3 2-2.6 3.1-2.7 6.6-3.1 8.6-2.4 2.5 0.7 5.4 2 7 4.1 0.6 0.7 0.9 1.7 0.8 2.6-0.2 1.2 0 2.7-0.3 5-0.2 1-2.4 0.4-3.1 1.6-0.2 0.3-0.8 0.1-0.8 0-0.1-0.1 0.7-2.5 0.2-3.2-0.8-1.4-1.4-3.1-1.6-4.2z"/>
					<path id="Layer" class="s3" d="m386.6 65.6c0-0.4 0-0.8-0.4-1.1-0.2-0.2-0.6-0.4-1.1-0.1-0.8 0.5-1.2 1.5-0.6 2.2 0.6 0.9 2 0.1 2.1-1z"/>
					<path id="Layer" class="s5" d="m385 65.5q-0.1 0.1-0.2 0 0 0 0-0.1 0.2-0.3 0.4-0.3c0.4-0.1 0.8 0.1 0.9 0.2q0.1 0.1 0.1 0.1-0.1 0.1-0.2 0.1c-0.2-0.1-0.5-0.3-0.7-0.2q-0.2 0-0.3 0.2z"/>
					<path id="Layer" class="s5" d="m385.7 66.3q-0.1 0-0.1-0.1l-0.2-0.9q0-0.1 0.1-0.1 0.1 0 0.1 0.1l0.2 0.9q0 0.1-0.1 0.1z"/>
					<path id="Layer" class="s5" d="m392.3 69.8q-1.3-0.5-1-1.5c0.1-0.2 0.3-0.3 0.5-0.3 0.4-0.1 0.8-0.3 0.9-0.7l0.3-0.7q0.1-0.1 0.2-0.1 0.1 0.1 0 0.2l-0.6 1.4q0 0.1-0.1 0.1c-0.3-0.1-0.9 0-1 0.2-0.1 0.3-0.2 0.8 0.8 1.2q0 0 0 0.1v0.1q0 0 0 0z"/>
					<path id="Layer" class="s5" d="m390.9 65.7c-0.1 0.3-0.4 0.5-0.6 0.4-0.2 0-0.2-0.3-0.1-0.6 0.1-0.3 0.3-0.5 0.5-0.5 0.2 0.1 0.3 0.4 0.2 0.7z"/>
					<path id="Layer" class="s5" d="m391.9 64.8c-0.6-0.4-1.2-0.7-1.9-0.7-0.2-0.1-0.3-0.2-0.3-0.3 0-0.1 0.1-0.2 0.3-0.2 0.8 0 1.6 0.2 2.2 0.7 0.2 0.1 0.2 0.3 0.1 0.4-0.1 0.2-0.3 0.2-0.4 0.1z"/>
					<path id="Layer" class="s3" d="m398.8 69.9c0.2-0.3 0.6-0.6 0.9-0.6 0.4 0.1 0.8 0.2 1 0.7 0.3 0.9 0 1.9-0.9 2.1-1.1 0.3-1.6-1.2-1-2.2z"/>
					<path id="Layer" class="s5" d="m400.2 71q-0.1 0-0.1-0.1 0-0.2-0.1-0.3c-0.2-0.3-0.5-0.3-0.7-0.4q-0.1 0-0.1-0.1 0.1-0.1 0.1-0.1c0.2 0.1 0.6 0.2 0.9 0.4q0.1 0.2 0.1 0.5 0 0.1-0.1 0.1z"/>
					<path id="Layer" class="s5" d="m399.2 71.1q-0.1 0-0.1 0-0.1-0.1 0-0.2l0.7-0.6q0.1 0 0.1 0 0.1 0.1 0 0.2z"/>
					<path id="Layer" class="s5" d="m395.6 68c0.1 0.1 0.4-0.1 0.5-0.4 0.1-0.3 0-0.6-0.1-0.7-0.2-0.1-0.5 0.1-0.6 0.4-0.1 0.3 0 0.6 0.2 0.7z"/>
					<path id="Layer" class="s5" d="m395.2 66c0.7 0 1.4 0.2 1.9 0.6 0.2 0.1 0.3 0.1 0.4 0 0.1-0.1 0.1-0.3-0.1-0.4-0.6-0.5-1.3-0.8-2.1-0.9-0.2 0-0.4 0.2-0.4 0.4 0 0.2 0.2 0.3 0.3 0.3z"/>
					<path id="Layer" class="s6" d="m390.6 71.3c-0.4-0.6 0-1.2 0.6-0.8 0.5 0.4 1.3 1.4 0.6 1.4q-0.3 0-0.6-0.1-0.4-0.3-0.6-0.5z"/>
				</g>
			</g>
			<g id="Clip-Path" clip-path="url(#cp4)">
				<g id="Layer">
					<path id="Layer" class="s0" d="m20.1 220.5l-7.9 5.2c-14 9.2-17.8 28-8.6 42 9.2 14 28 17.8 42 8.6l7.9-5.2c14-9.3 17.8-28.1 8.6-42-9.2-14-28-17.9-42-8.6z"/>
				</g>
			</g>
			<g id="Clip-Path" clip-path="url(#cp5)">
				<g id="Layer">
					<path id="Layer" class="s1" d="m72.5 261.3c2.8 3.5 2.1 14.4 4.8 18 1.7 2.2 1.1 5.3-1.2 6.8l-22.9 15.2c-4.4 2.9-10.4 1.7-13.2-2.8l-1.9-3c-2.4-3.7-7.8-4.3-10.2-0.6q-0.3 0.4-0.7 0.4c-30.2 1.9 45.4-2.8 15.7-25.4-29.6-22.5-17.3 36.1-22.2 12.6-1.4-6.4-1.4-16.4 6.8-25.4 1.4-1.5 3.2-3 5-4.2q3.5-2.3 6.9-3.6c10.6-4 21.5-1.1 31.8 10.6q0.7 0.7 1.3 1.4z"/>
					<path id="Layer" class="s2" d="m64.9 290.2c0.9 1.3 0.6 3-0.7 3.8-1.2 0.8-2.8 0.5-3.7-0.6-6-8-18.2-22.3-28.1-31.8-2.8-2.6-3-6.6 0.1-8.7q2.9-1.9 5.9-3.2c0.6-0.2 1.2 0 1.5 0.6 2.5 4.8 6 11.7 7.1 13.9 1.1 2.2 10.9 16.1 17.9 26z"/>
					<path id="Layer" class="s3" d="m32.5 252.9c2.8-1.8 6.8 0.4 5.4 3.4q-0.3 0.8-0.9 1.1c-0.9 0.7-2.1 0.8-3.3 0.7-2.9-0.3-3.6-3.6-1.2-5.2z"/>
					<path id="Layer" class="s2" d="m38.8 275.8q-0.1 0.1-0.2 0.1l-7.3-4.8c-0.7-0.5-1.1-1.3-0.8-2.2l0.1-0.4c0.2-0.9-0.4-1.9-1.4-2h-0.7q-0.1 0-0.1 0l-3.8-5.5q-0.1-0.1 0-0.2 0.1 0 0.1 0l3.4 4.8c0.3 0.5 0.7 0.7 1.2 0.7 1.1 0.1 1.8 1.1 1.5 2.1l-0.1 0.4c-0.2 0.8 0.1 1.7 0.8 2.2l7.2 4.7q0.1 0 0.1 0.1z"/>
					<path id="Layer" class="s2" d="m53.3 267.8q0 0.1 0 0.2-0.1 0-0.2-0.1l-1.5-8.5c-0.1-0.8-0.8-1.5-1.6-1.6h-0.5c-1-0.2-1.6-1.2-1.3-2.2 0.2-0.5 0.1-1-0.2-1.5l-4.1-5.5q0-0.1 0-0.2 0.1 0 0.2 0.1l4.2 5.6c0.3 0.4 0.3 1 0.2 1.5-0.4 0.9 0.2 1.8 1.2 2l1.8 0.2q0.1 0 0.1 0.1z"/>
					<path id="Layer" class="s4" d="m38.3 258.3c-0.9 0.7-2 1-2.3 1.1q-0.1 0-0.1-0.1-0.1 0 0-0.1c0.6-0.2 3.4-1.1 4-3 0.3-1.2 0.1-2.8 0-3.2q0-0.1 0.1-0.2 0.1 0 0.1 0.1c0.1 0.4 0.4 2.1 0 3.4-0.3 0.9-1 1.5-1.8 2z"/>
					<path id="Layer" class="s3" d="m32.6 289.1c-2.8 3.2-2.9 8.9 1.1 10.4 1.7 0.6 5.2-1.9 7.4-3.6 1.3-1 6.9-7.2 11.1-11.9 2.5-2.7 1.4-7.1-2-8.4-1.9-0.7-4.2-0.3-5.6 1.2l-10.5 10.7q0 0 0 0c-0.1 0.1-0.6 0.6-1.5 1.6z"/>
					<path id="Layer" class="s3" d="m44.8 280.2c-4.4 0.3-9.3-0.1-6.8-3.7q0.3-0.4 0.8-0.7c2.8-1.4 7.2-4.5 9.2-5.3 2-0.7 10.1-1.9 10.2-2 0 0 4.1-0.1 8-0.2 3.5 0 6.7 3.6 4.7 6.5-1.4 1.8-4.6 3.6-8 4.5-3.3 0.9-16.2 0.8-18.1 0.9z"/>
					<path id="Layer" class="s5" d="m56 279.9q0 0.1-0.1 0.1c-0.6 0.1-3.9 0.2-4.8 0.2-1.1 0-7 0.2-8.2 0.5-1.1 0.4-4.4 2.5-4.6 2.7q0 0-0.1 0v-0.1q0-0.1 0-0.1c0.6-0.4 3.5-2.3 4.7-2.7 1.4-0.3 8.1-0.5 8.2-0.5 0.9 0 4.2-0.1 4.8-0.2q0.1 0 0.1 0.1z"/>
					<path id="Layer" class="s5" d="m25.2 235c-6.6 4.9-13.4 18.3-5.5 20.6 4.5 1.3 17.4-6.5 19.5-11.4 1.6-3.7-8.2-11.2-9.4-11.8-0.6-0.3-2.4 0.9-4.6 2.6z"/>
					<path id="Layer" class="s3" d="m27.1 243.9c-2 1.3-2.6 3.8-1.5 5.9l0.9 1.8c1.3 2.5 4.4 3.3 6.8 1.7 2.3-1.5 2.8-4.7 1-6.8l-1.2-1.6c-1.5-1.8-4.1-2.3-6-1z"/>
					<path id="Layer" class="s5" d="m33.4 245.2c-0.5-0.6-1.7-0.3-2 0.4-0.4 0.8-1 1.7-1.9 2.2-0.9 0.4-0.9 1.6 0 1.4q0.5-0.1 1-0.3c1.1-0.6 2.3-1.8 2.9-2.6 0.2-0.3 0.2-0.7 0-1.1z"/>
					<path id="Layer" class="s3" d="m29.6 235.9c2.7 4.2 3.7 9.3 0.1 11.7-3.8 2.5-8.9 0.5-11.7-3.6-2.7-4.2-1-9 1.7-10.8 2.7-1.8 7.1-1.4 9.9 2.7z"/>
					<path id="Layer" class="s5" d="m23.7 234.4c-0.6-0.3-1.2 0.1-1.2 0.8-0.1 0.7-0.2 1.4-0.2 1.8 0 0.8-0.7 1.8-2.1 3-1.3 1.1-2.8 2.1-2.3 3.1q0.2 0.4 0.4 0.8c0.5 1-0.2 1.8-1.1 1.2-0.9-0.6-1.7-0.7-1.9-1.1-0.5-0.8-0.6-1.2-0.8-3.1-0.3-4.1 1.5-7.1 3.2-8.4 2.1-1.5 4.9-3 7.5-3.1 0.9 0 1.9 0.3 2.5 1 0.9 0.9 2.2 1.6 3.8 3.2 0.8 0.8-1 2.2-0.6 3.5 0.2 0.3-0.4 0.6-0.4 0.6-0.1 0-1.6-2.1-2.4-2.1-1.6-0.2-3.3-0.8-4.4-1.2z"/>
					<path id="Layer" class="s3" d="m19.8 245.5c-0.3-0.2-0.6-0.4-1-0.3-0.4 0.1-0.8 0.3-0.8 0.8-0.1 1 0.5 1.9 1.3 1.9 1.2 0 1.4-1.6 0.5-2.4z"/>
					<path id="Layer" class="s5" d="m18.8 246.8q0 0.1-0.1 0.1-0.1 0-0.1 0-0.1-0.3 0-0.6c0.2-0.3 0.6-0.5 0.7-0.5q0.1-0.1 0.1 0 0.1 0.1 0 0.2c-0.2 0-0.5 0.2-0.6 0.4q-0.1 0.2 0 0.4z"/>
					<path id="Layer" class="s5" d="m19.9 246.7q-0.1 0.1-0.2 0l-0.8-0.4q-0.1 0-0.1-0.1 0.1-0.1 0.2 0l0.8 0.4q0.1 0 0.1 0.1z"/>
					<path id="Layer" class="s5" d="m26.6 243.5q-1.2 0.8-1.8-0.1c-0.1-0.1 0-0.4 0.1-0.6 0.2-0.3 0.2-0.8 0-1.1l-0.4-0.7q0-0.1 0-0.2 0.1 0 0.2 0.1l0.8 1.3q0 0.1-0.1 0.2c-0.2 0.2-0.5 0.7-0.4 0.9 0.2 0.3 0.6 0.6 1.4 0.1q0.1 0 0.1 0l0.1 0.1q0 0 0 0z"/>
					<path id="Layer" class="s5" d="m22.5 242.2c0.2 0.3 0.2 0.6 0 0.7-0.1 0.1-0.4 0-0.6-0.3-0.2-0.3-0.2-0.6 0-0.7 0.1-0.1 0.4 0 0.6 0.3z"/>
					<path id="Layer" class="s5" d="m22.4 240.9c-0.7 0.1-1.3 0.5-1.7 1-0.2 0.1-0.3 0.2-0.4 0.1-0.1-0.1-0.1-0.3 0-0.4 0.5-0.6 1.1-1.1 1.9-1.4 0.2 0 0.3 0.1 0.4 0.3 0 0.2-0.1 0.3-0.2 0.4z"/>
					<path id="Layer" class="s3" d="m30.6 238.4c-0.1-0.4-0.1-0.8 0.1-1.1 0.3-0.3 0.6-0.6 1.1-0.4 0.9 0.3 1.5 1.2 1.2 2-0.5 1-2 0.6-2.4-0.5z"/>
					<path id="Layer" class="s5" d="m32.3 237.9q0 0.1-0.1 0-0.2-0.1-0.3-0.1c-0.3 0-0.6 0.2-0.7 0.3q-0.1 0.1-0.2 0.1 0-0.1 0-0.2c0.2-0.1 0.5-0.4 0.8-0.4q0.3 0 0.5 0.2 0.1 0.1 0 0.1z"/>
					<path id="Layer" class="s5" d="m31.8 238.8q0 0.1-0.1 0.1-0.1 0-0.1-0.1l-0.1-0.9q0-0.1 0.1-0.2 0.1 0.1 0.1 0.1z"/>
					<path id="Layer" class="s5" d="m27.2 239.8c0.1-0.1 0.1-0.4-0.1-0.7-0.2-0.2-0.4-0.4-0.6-0.3-0.2 0.2-0.2 0.5 0 0.7 0.2 0.3 0.5 0.4 0.7 0.3z"/>
					<path id="Layer" class="s5" d="m25.4 238.9c0.4-0.5 0.9-0.9 1.6-1.2 0.1 0 0.2-0.2 0.2-0.3 0-0.1-0.2-0.2-0.4-0.1-0.7 0.2-1.4 0.6-2 1.2-0.1 0.1-0.1 0.3 0.1 0.4 0.2 0.1 0.4 0.1 0.5 0z"/>
					<path id="Layer" class="s6" d="m26.8 245.7c-0.7 0-0.9-0.6-0.3-0.9 0.7-0.2 1.9-0.1 1.5 0.4q-0.2 0.3-0.5 0.4-0.4 0.1-0.7 0.1z"/>
				</g>
			</g>
			<path id="Layer" class="s7" d="m124.2 302.5l-6.5-0.9-13.5 89.4 6.4 1z"/>
			<path id="Layer" class="s7" d="m198.4 392l6.5-1-13.5-89.4-6.5 0.9z"/>
			<path id="Layer" class="s8" d="m413.7 392h-406.1c0 0-3.5-27.3 20.5-26.6 24 0.7 33.8-19.3 48.3-16.4 54.8 10.8 109.2 11.7 129.2 11.7 40.5 0 87.7-38 133.2-38 27.4 0 40.9 38 60.4 41.7 17.2 3.3 14.5 27.6 14.5 27.6z"/>
			<path id="Layer" class="s7" d="m56.3 322.8c-8.3 0-15-6.7-15-15v-286c0-8.2 6.7-14.9 15-14.9h203c8.2 0 15 6.7 15 14.9v286c0 8.3-6.8 15-15 15z"/>
			<path id="Layer" class="s2" d="m259.3 313.4h-203c-3.1 0-5.5-2.5-5.5-5.6v-285.9c0-3.1 2.4-5.6 5.5-5.6h203c3 0 5.5 2.5 5.5 5.6v285.9c0 3.1-2.5 5.6-5.5 5.6z"/>
			<path id="Layer" class="s0" d="m123.3 162.9c-7.4 7.5-11.9 17.6-12.3 28.7h-32.9c0.3-20.2 8.6-38.5 21.9-51.9z"/>
			<path id="Layer" class="s9" d="m152.5 117.2v32.9c-10.5 0.3-20.1 4.5-27.4 11l-23.3-23.2c13.3-12.6 31.1-20.3 50.7-20.7z"/>
			<path id="Layer" class="s10" d="m183.8 162.9c7.3 7.5 11.9 17.6 12.2 28.7h32.9c-0.3-20.2-8.6-38.5-21.8-51.9z"/>
			<path id="Layer" class="s4" d="m154.6 117.2v32.9c10.5 0.3 20 4.5 27.3 11l23.3-23.2c-13.2-12.6-31-20.3-50.6-20.7z"/>
			<path id="Layer" class="s10" d="m156.1 196c-2.5 1.3-5.6 0.3-6.9-2.2-1.3-2.6-0.3-5.7 2.2-7 2.6-1.3 8.3-1.5 15.6-2.1-5.1 6.1-8.3 10-10.9 11.3z"/>
			<path id="Layer" class="s0" d="m133.3 257.7c0 16.1-13.1 29.1-29.1 29.1-16.1 0-29.2-13-29.2-29.1 0-10.5 5.6-19.7 13.9-24.8l13.4 26.3 29.2-11.6c1.1 3.2 1.8 6.6 1.8 10.1z"/>
			<path id="Layer" class="s10" d="m114.9 220.1l-9.8 29.6 1.5-30.6q0.2 0 0.4 0c2.8 0 5.4 0.3 7.9 1z"/>
			<path id="Layer" class="s4" d="m137.1 242.6l-29.2 11.6 9.8-29.6c9 2.5 16.2 9.3 19.4 18z"/>
			<path id="Layer" class="s3" d="m103.5 221.2l-1.4 30.6-13.4-26.3c4.4-2.7 9.4-4.2 14.8-4.3z"/>
			<path id="Layer" class="s10" d="m234 287.2h-84.9v1.7h84.9z"/>
			<path id="Layer" class="s3" d="m170.4 264.6h-11.9v22.6h11.9z"/>
			<path id="Layer" class="s0" d="m188.4 250.1h-11.9v37.1h11.9z"/>
			<path id="Layer" class="s10" d="m206.5 239.4h-11.9v47.8h11.9z"/>
			<path id="Layer" class="s0" d="m224.6 223.6h-11.9v63.6h11.9z"/>
			<path id="Layer" class="s10" d="m200.7 40.8h-60v10.7h60z"/>
			<path id="Layer" class="s0" d="m234.2 66.2h-93.5v4.9h93.5z"/>
			<path id="Layer" class="s0" d="m196.6 87.9h-55.9v5h55.9z"/>
			<path id="Layer" class="s0" d="m236.9 87.9h-37.3v5h37.3z"/>
			<path id="Layer" class="s0" d="m176.2 77h-35.5v5h35.5z"/>
			<path id="Layer" class="s0" d="m242.9 77h-64.4v5h64.4z"/>
			<g id="Clip-Path" clip-path="url(#cp6)">
				<g id="Layer">
					<path id="Layer" class="s0" d="m136.4 36.5h-70.2v60.6h70.2z"/>
				</g>
			</g>
			<g id="Clip-Path" clip-path="url(#cp7)">
				<g id="Layer">
					<path id="Layer" class="s10" d="m120.5 103.4l1.2 18.8h-42.2l0.3-21.8c0 0-5.7 1.3-8.3 2.5-2.6 1.1-1.1-7.2-1.1-7.2 0 0 2-19.6 21.6-24.5 2-0.5 4.3-0.8 6.5-0.8q4.1 0 7.7 0.8c11.1 2.5 18.6 10.9 20.8 26.4 2.3 15.7-6.5 5.8-6.5 5.8z"/>
					<path id="Layer" class="s2" d="m105.1 122.2h-5.4c-0.4-10.5-3.5-36.7-7.7-51 0.3-0.2 4.7-0.8 6.5-0.8q3.5 0 6.7 0.6 0.5 0.1 1 0.2c-0.5 5.3-1.5 14-1.8 16.6-0.3 2.7 0.3 22.2 0.7 34.4z"/>
					<path id="Layer" class="s3" d="m105.2 71c-1.3 2.4-3.4 5.7-5.4 5.7-3 0-5.3-3.5-7.1-5.7 1.6-0.6 4-0.6 5.8-0.6q3.5 0 6.7 0.6z"/>
					<path id="Layer" class="s2" d="m91 93l-4.1-9.4 2.9-2.5-2.2-1.6v-0.1l-0.2-6.7 0.3-0.1 0.1 6.8 2.3 1.7-2.9 2.5 4 9.3z"/>
					<path id="Layer" class="s2" d="m107.6 94.5l-0.2-0.1 4-9.3-2.9-2.6 2.3-1.7-0.4-7.8h0.2l0.4 7.9-2.1 1.6 2.8 2.5v0.1z"/>
					<path id="Layer" class="s4" d="m100.4 78.1c-1.4 0-2.6-0.3-2.7-0.4l0.1-0.2c0 0 3.4 1.1 5-0.3 1.2-0.9 1.9-2.7 1.9-2.7h0.2c0 0.1-0.8 1.9-2 2.9-0.7 0.6-1.6 0.7-2.5 0.7z"/>
					<path id="Layer" class="s3" d="m86.3 99.3c0 0.8 1.6-6.7 4.8-6.3 3.2 0.3 8.6 0.2 10.6 0.7 2.1 0.4 9.5 3.9 9.6 3.9 0.1-0.1 12.6 8 12.6 8 0 0-3.8 3.6-5.4 4.2-2.2 0.8-5.9 0.5-9.1-0.6-3.3-1.1-14-8.3-15.7-9.2-2.9-1.7-7.4-0.7-7.4-0.7z"/>
					<path id="Layer" class="s5" d="m89.1 52.8c0 0-4.3 10.9-2.8 12.7 3.1 3.7 18.1 4.3 22.6 1.3 3.4-2.1-0.7-13.8-1.4-15-0.8-1.5-18.4 1-18.4 1z"/>
					<path id="Layer" class="s3" d="m94.8 59.9l-1.1 11.3h10.4l-1.1-11.3z"/>
					<path id="Layer" class="s5" d="m103.3 62.3c0 0-2.1 2.4-4.5 2.1-2.1-0.2-4.3-1.6-4.3-1.6 0 0 2.2 2.9 4.5 3.1 1.9 0.3 4.5-0.7 4.5-0.7z"/>
					<path id="Layer" class="s3" d="m105.4 54.6c0 5-2 9.8-6.3 9.8-4.6 0-7.7-4.5-7.7-9.4 0-5 4.1-8.1 7.3-8.1 3.2 0 6.7 2.7 6.7 7.7z"/>
					<path id="Layer" class="s5" d="m101.4 50.1c-0.4-0.5-1.1-0.5-1.5 0-0.4 0.5-0.9 1.1-1.1 1.5-0.5 0.6-1.6 1-3.5 1.3-1.6 0.2-3.5 0.1-3.6 1.3-0.1 1.2-0.3 3.4-0.3 3.4 0 0-0.8-0.6-1.3-2.1-0.5-1-1-1.6-1-2 0-0.9 0.1-1.3 1-3 1.9-3.6 5.1-5.1 7.3-5.3 2.1-0.1 3 0.3 3.9 1 2.2-0.7 5.2 0.4 5.6 2.8 0.2 1.2 1 2.5 1.4 4.7 0.2 1.1-2.1 1.3-2.4 2.6 0 0.4-0.7 0.3-0.7 0.3-0.1 0-0.2-2.6-0.8-3.1-1.3-1-2.4-2.4-3-3.4z"/>
					<path id="Layer" class="s3" d="m91.8 56.7c0 0-1-0.8-1.6 0-0.6 0.8-0.6 1.8 0.1 2.2 0.7 0.5 2.2 0.6 2.2 0.6z"/>
					<path id="Layer" class="s5" d="m90.4 57.8h-0.2q0.1-0.4 0.4-0.5c0.3-0.3 0.9-0.1 0.9-0.1v0.2c0 0-0.5-0.1-0.8 0q-0.2 0.2-0.3 0.4z"/>
					<path id="Layer" class="s5" d="m91.3 58.3l-0.6-1 0.2-0.1 0.6 1z"/>
					<path id="Layer" class="s5" d="m98.8 59.3q-1.4 0-1.5-1c0-0.4 0.8-0.7 1-0.8l0.1-1.6 0.2 0.1-0.1 1.7h-0.1c-0.3 0.1-0.9 0.3-0.9 0.6 0 0.3 0.2 0.8 1.3 0.8v0.2z"/>
					<path id="Layer" class="s5" d="m96.1 56c0 0.3-0.2 0.6-0.4 0.6-0.2 0-0.4-0.3-0.4-0.6 0-0.4 0.2-0.6 0.4-0.6 0.2 0 0.4 0.2 0.4 0.6z"/>
					<path id="Layer" class="s5" d="m96.7 54.8c-0.7-0.2-1.4-0.3-2-0.1-0.2 0-0.3 0-0.4-0.1 0-0.2 0.1-0.3 0.2-0.4 0.8-0.2 1.6-0.3 2.4-0.1 0.2 0.1 0.2 0.3 0.2 0.5-0.1 0.1-0.3 0.2-0.4 0.2z"/>
					<path id="Layer" class="s3" d="m105.1 56.7c0 0 1-0.8 1.6 0 0.6 0.8 0.7 1.8-0.1 2.2-0.7 0.5-2.2 0.6-2.2 0.6z"/>
					<path id="Layer" class="s5" d="m106.5 57.8q0-0.2-0.2-0.4c-0.3-0.1-0.8 0-0.8 0l-0.1-0.2c0 0 0.6-0.2 1 0.1q0.3 0.1 0.3 0.5z"/>
					<path id="Layer" class="s5" d="m105.7 58.3l-0.2-0.1 0.5-1 0.2 0.1z"/>
					<path id="Layer" class="s5" d="m101.2 56.6c0.2 0 0.4-0.3 0.4-0.6 0-0.4-0.2-0.6-0.4-0.6-0.2 0-0.3 0.2-0.3 0.6 0 0.3 0.1 0.6 0.3 0.6z"/>
					<path id="Layer" class="s5" d="m100.3 54.8c0.6-0.2 1.3-0.3 2-0.1 0.1 0 0.3 0 0.3-0.1 0.1-0.2 0-0.3-0.2-0.4-0.8-0.2-1.6-0.3-2.3-0.1-0.2 0.1-0.3 0.3-0.2 0.5 0 0.1 0.2 0.2 0.4 0.2z"/>
					<path id="Layer" class="s6" d="m97.1 60.1c0 0 1.5 0.7 2.8 0.3-0.1 0.9-0.9 1.3-1.5 1.1-1.4-0.2-1.3-1.4-1.3-1.4z"/>
				</g>
			</g>
			<path id="Layer" class="s2" d="m305.6 367.6l-2.8 19c-0.3 2-2 3.5-4.1 3.5h-43.8c0 0 0.9-6.1 2.6-6.1 15.5-0.3 26.6-15.2 26.6-15.2z"/>
			<path id="Layer" class="s2" d="m332.3 367.6l-0.3 18.7c0 2.1 1.6 3.8 3.7 3.8h44.1c0 0-0.9-6.1-2.7-6.2-15.7-0.2-26.8-15.3-26.8-15.3z"/>
			<path id="Layer" class="s11" d="m295.9 220.5l-22.2 155.3h33.1l18.3-140.6 2.7 0.2 1.2 140.4h31.3l-0.2-155.3z"/>
			<path id="Layer" class="s2" d="m354.5 365.8h-19.7v-0.3h19.3l-2.2-136.3h0.4z"/>
			<path id="Layer" class="s2" d="m305.6 365.8h-26.8v-0.2c0.1-0.3 4.7-35.7 9.4-70.6 9.6-70.8 10.2-71 10.5-71.1h0.2 0.1l-0.2 0.2 0.1 0.1c-1.2 1.8-13.4 93.1-19.7 141.3h26.4v0.3z"/>
			<path id="Layer" class="s2" d="m329 230l-5-0.7v-10.9h0.4v10.6l4.7 0.6z"/>
			<path id="Layer" class="s10" d="m245.3 151.2c0 0 0.9-12.7 20.9-15.6 3 13-20.9 15.6-20.9 15.6z"/>
			<path id="Layer" class="s12" d="m252.6 151.8c-0.3-0.6-7.4-9.6-8.5-10.7-1.1-1.1-6.9-10.2-7.3-11.6-0.5-1.7-0.8-3.3 0.9-3.7-0.6-1.2-0.6-2.3-0.6-2.3 0 0-0.1-2.1 2-1.5-0.4-1.7 0.5-3 2.5-2.1 0.2-1 1-1.4 1-1.4 0 0 1.3-0.3 2.3 1 1 1.3 8.5 10.8 8.9 10.8 1.5-0.2 0.9-2.9 1-4.2 0.1-1.3-0.7-5.2 0.9-5.4 1.6-0.1 2.3 1.7 2.4 3.1 0.5 8.8 7.1 18.4 7.1 18.4z"/>
			<path id="Layer" class="s10" d="m249.5 130.2c-1.3-1.4-7.7-9.9-8-10.2l0.3-0.2c0.1 0 6.7 8.8 8 10.2z"/>
			<path id="Layer" class="s10" d="m239.3 121.9l-0.3 0.2 8.3 11.2 0.3-0.3z"/>
			<path id="Layer" class="s10" d="m237.8 125.7l-0.3 0.2 5.5 7.8 0.4-0.2z"/>
			<path id="Layer" class="s4" d="m245.3 151.2c6.5 13 22.3 35.2 26.8 38.9 4.5 3.7 12.9 3.7 16.9 2.3 4.1-1.5 18.2-24.3 17.8-27.9-0.4-3.6-0.4-43.2-11.5-43.2-3.8 4.6-9.9 34.6-11.1 39.2-1.3 4.5-4 0-4 0l-14-24.9c0 0-3.9 12.9-20.9 15.6z"/>
			<path id="Layer" class="s4" d="m368.1 164.3l5.6 66-37.5 3.4-0.1-15.9-17.3-2.2-1.2 16.8-33.5-2.3 11.1-108.8 21.1-7.5 0.6-0.2 13.8-4.9 15.1 5.3 28.2 10z"/>
			<path id="Layer" class="s2" d="m312.2 164.4l-6.6-17.8 5.6-5.2-7.8-2v-0.2l2.1-20.4 0.4 0.1-2.1 20.2 8.1 2.1-5.9 5.5 6.5 17.5z"/>
			<path id="Layer" class="s2" d="m340.5 161.2l-0.4-0.1 7.3-16.6-7.1-5.4 8.3-2.7 5.9-16.7 0.4 0.1-6 16.9h-0.1l-7.7 2.5 6.8 5.2-0.1 0.1z"/>
			<path id="Layer" class="s2" d="m290.7 180.5l-0.3-0.1c0-0.2 3.3-23.8 3.9-31h0.3c-0.5 7.2-3.8 30.8-3.9 31.1z"/>
			<path id="Layer" class="s2" d="m337.8 135.5c-8.5 23.7-1.7 64.2-1.9 80.5 0 2.3 0.4 8.1 0.4 8.1l-17.9-2.3c0 0 1.3-24.2 0.4-47-0.6-17.4-3.4-34.1-3.6-38.4-0.2-5.3 0.7-16.7 1.1-22.6l0.6-0.2 13.8-4.9 15.1 5.3c-0.6 1.7-1.4 3.6-2.3 6.1-1.4 3.9-3.3 8.9-5.7 15.4z"/>
			<path id="Layer" class="s12" d="m345.8 114c-0.6 1.7-1.4 3.6-2.3 6.1-5.2 3.2-13.7 7.9-17.5 7.6-5.2-0.3-8-9.8-9.1-14.1l13.8-4.9z"/>
			<path id="Layer" class="s4" d="m327.4 131.4q-1.3 0-2.5-0.3c-4.2-1.3-6.1-5.6-6.1-5.6l0.3-0.2c0 0.1 1.8 4.2 5.9 5.4 2.8 0.9 6.1 0.2 9.7-2.2l0.3 0.4q-4.1 2.5-7.6 2.5z"/>
			<path id="Layer" class="s10" d="m348.4 203.8l-31.6 5.3c-0.6 0.1-1.2-0.4-1.3-1l-7.9-47.3c-0.1-0.6 0.4-1.2 1-1.3l31.5-5.2c0.6-0.1 1.2 0.3 1.3 0.9l7.9 47.3c0.1 0.6-0.3 1.2-0.9 1.3z"/>
			<path id="Layer" class="s12" d="m325.1 179.6c0 0-6.3-1.1-8.8-1.3-5.2-0.4-8.9 2.6-6.6 3.7 2.3 1.1 5.2 0.7 6.4 0.8 1.3 0 2.8-0.1 2.3 1.8-0.6 2-3.6 2-5.4 1.5-1.8-0.5-2.2-2.3-3.9-1.8-1.6 0.6-0.9 6.7-0.3 8.2 1.2 2.9 2.1 6.4 4.1 7.6 2 1.2 17.4-3.2 17.4-3.2z"/>
			<path id="Layer" class="s10" d="m312.8 190.9c-0.2-0.1-0.4-0.2-0.8-0.3-1.2-0.2-3-0.6-4.1-2.5l0.3-0.1c1 1.7 2.7 2 3.9 2.3q0.5 0.1 0.9 0.2z"/>
			<path id="Layer" class="s10" d="m312.6 194.6c-0.1 0-2.8-0.5-4.1-2.5l0.3-0.2c1.2 1.8 3.8 2.3 3.9 2.3z"/>
			<path id="Layer" class="s10" d="m312.4 197.3c-0.6 0-2-0.2-2.4-1.2l0.4-0.1c0.4 1 2.3 0.9 2.3 0.9v0.3q0 0.1-0.3 0.1z"/>
			<path id="Layer" class="s4" d="m322.3 176.6c6.6 9 6.5 24.1 6.5 24.1l46.8-10.2c0 0 11.2-1.7 10.6-10.1-0.5-8.4-7.2-47.9-12.2-56.4-5.4-2.7-22.1 9.8-22.1 9.8l7 30c0.6 2.5-1 5-3.5 5.5 0 0-18.4 4.7-33.1 7.3z"/>
			<path id="Layer" class="s2" d="m344.4 172l-0.1-0.4 11.1-2.5c0 0 4.6-0.9 4.2-3.9-0.5-4.2-2.4-14.7-2.9-17.8-0.1-0.2-0.2-0.4-0.5-0.5q-0.3-0.1-0.6 0.1-0.4 0.3-0.2 1.1l-0.3 0.1c-0.3-0.9 0-1.3 0.3-1.5 0.3-0.2 0.7-0.3 1-0.1 0.3 0.1 0.6 0.4 0.6 0.8 0.6 3.1 2.4 13.5 3 17.8 0.4 3.3-4.5 4.3-4.5 4.3z"/>
			<path id="Layer" class="s2" d="m365.1 192.8l-16.2 3.3 0.1 0.4 16.2-3.3z"/>
			<path id="Layer" class="s12" d="m316.8 72.3c0 0-2.8 16.1-2.6 21.8 0.1 5.8 1.4 9.8 4.5 10 6.1 0.4 20.1-5.8 20.1-5.8l1.8-24.2z"/>
			<path id="Layer" class="s12" d="m322.2 100.3l-1.2 16.9 19 1.5-1.2-20.4z"/>
			<path id="Layer" class="s13" d="m314 70.4c1.3-5.7 4.3-6.6 7.5-6.6 2 0.1 4.4 4 10.4 2.2 5.9-1.7 2.4 4.2 7.6 4 4.4-0.2 6.6 4.6 6.7 5.7 0.3 4-1.4 4.3-2.2 11.2-0.9 6.7 1.3 9.6-1.2 12.9-1.3 1.7-3.5 3.1-4.7 2.5-0.5-0.3-1.2-1-1-7.6 0.2-4.8 1.1-4.6 0.4-6.5-0.8-2.1-3-2-3.1-5.1-0.2-4.2-1-5.6-2.4-6.7-1.6-1.3-5-0.6-8.4 0-1.2 0.1-3.6 0.8-5.7 0.4-2.3-0.4-5-2-3.9-6.4z"/>
			<path id="Layer" class="s14" d="m336.2 91.7c0 0 3.4-0.6 4-1.8 0.7-1.1 0-3.7-1.4-3.7-1.5 0.1-3.6 0.4-3.6 0.4z"/>
			<path id="Layer" class="s10" d="m339.3 88.6h-0.4q0-0.3-0.2-0.5c-0.4-0.3-1.5-0.1-1.9 0.1l-0.2-0.4c0.2 0 1.7-0.5 2.4 0 0.1 0.1 0.3 0.4 0.3 0.8z"/>
			<path id="Layer" class="s10" d="m337.9 89.8l-0.4-0.2c0.2-0.2 0.5-1.2 0.7-1.8l0.4 0.2c-0.1 0.2-0.6 1.6-0.7 1.8z"/>
			<path id="Layer" class="s6" d="m322.3 93.3c-2.9 1.1-4.1 0-4.1 0 0 0 0.3 2.2 1.6 2.3 1.9 0.1 2.5-2.3 2.5-2.3z"/>
			<path id="Layer" class="s10" d="m321 90.7c-0.6 0-1.6-0.2-2-0.8-0.2-0.2 0-0.5 0.3-0.9 0.5-0.6 1.1-1.5 1.3-2.6l0.4 0.1c-0.2 1.2-0.9 2.1-1.4 2.7-0.1 0.2-0.2 0.4-0.3 0.5 0.6 0.7 1.8 0.7 2.2 0.6l0.1 0.4q-0.2 0-0.6 0z"/>
			<path id="Layer" class="s13" d="m318.4 85.8c-0.1 0.5-0.5 0.8-0.8 0.8-0.4-0.1-0.6-0.6-0.5-1.1 0.2-0.4 0.5-0.8 0.9-0.7 0.3 0.1 0.5 0.5 0.4 1z"/>
			<path id="Layer" class="s13" d="m326 86.4c-0.1 0.5-0.5 0.8-0.9 0.7-0.3 0-0.5-0.5-0.4-1 0.1-0.5 0.5-0.8 0.8-0.7 0.4 0.1 0.6 0.5 0.5 1z"/>
			<path id="Layer" class="s13" d="m320 83.5l-3.2 0.1c-0.3 0-0.5-0.3-0.5-0.6 0-0.3 0.2-0.5 0.5-0.5l3.2-0.1c0.3 0 0.5 0.2 0.5 0.5 0.1 0.3-0.2 0.6-0.5 0.6z"/>
			<path id="Layer" class="s13" d="m324.2 83.8l3.1 0.6c0.3 0 0.6-0.2 0.6-0.5 0.1-0.3-0.1-0.6-0.4-0.6l-3.1-0.6c-0.3 0-0.6 0.2-0.7 0.5 0 0.2 0.2 0.5 0.5 0.6z"/>
			<path id="Layer" class="s15" d="m321.7 108l10.6-6.6-10.8 2.9z"/>
		</g>
	</g>
</svg>