<svg xmlns="http://www.w3.org/2000/svg" fill="none" viewBox="19.65 55.63 269.79 217.5">
<g opacity="0.2">
<path d="M288.766 128.648C289.517 130.718 289.652 133.351 289.117 137.007C287.599 146.732 276.761 158.66 265.293 171.26C259.001 178.194 252.489 185.353 247.515 192.218C237.847 202.748 234.07 217.943 230.401 232.652C227.726 243.398 225.187 253.547 220.56 261.969L220.55 261.986C216.887 268.35 212.407 271.911 206.865 272.87C196.05 274.746 182.771 266.376 167.395 256.67L165.916 255.74C154.476 248.553 139.434 239.673 117.16 226.919L115.32 225.827C95.8966 214.312 71.7205 199.971 52.544 178.834C10.7829 137.205 15.0463 92.1686 31.1085 74.8474C50.4766 56.2312 76.6699 51.9654 131.265 58.5182C188.205 65.4289 241.427 96.1044 261.661 108.974C268.798 114.482 274.507 117.674 278.673 119.995C283.943 122.951 287.393 124.871 288.766 128.648ZM218.62 261.062C223.146 252.826 225.653 242.773 228.316 232.134C232.023 217.253 235.859 201.852 245.747 191.095C250.717 184.216 257.266 177.019 263.584 170.065C274.878 157.637 285.549 145.893 287.005 136.645C288.31 127.533 285.613 126.023 277.605 121.536C273.372 119.169 267.56 115.924 260.377 110.381C240.369 97.6731 187.544 67.2129 131.111 60.3597C77.3039 53.8951 51.5631 58.0206 32.7448 76.1172C17.1698 92.932 13.1351 136.889 54.1056 177.728C73.1027 198.648 97.1087 212.89 116.388 224.331L118.223 225.409C140.517 238.173 155.58 247.064 167.045 254.276L168.524 255.205C183.467 264.645 196.375 272.779 206.261 271.069C211.201 270.207 215.232 266.935 218.62 261.062Z" fill="#A7CEFC"/>
<path d="M275.991 134.361C277.03 137.221 277.101 140.464 276.791 145.013L276.79 145.103C275.192 154.048 266.632 162.668 257.581 171.78C251.388 178.003 245.006 184.445 240.016 191.625C231.479 202.063 226.234 214.035 221.158 225.596C217.758 233.368 214.539 240.712 210.456 247.387L210.366 247.51C197.55 262.049 187.27 255.728 168.6 244.272C166.571 243.026 164.433 241.713 162.161 240.354C158.152 237.582 153.736 234.658 149.051 231.551C128.223 217.755 99.6989 198.841 71.5066 169.62C39.8513 133.313 41.0481 99.8523 56.2636 82.7746C72.3103 65.4918 99.0889 65.2401 146.049 70.9553C193.981 77.9601 231.815 101.217 252.138 113.715L254.404 115.105C268.274 124.66 273.974 128.808 275.991 134.361ZM274.669 144.713C275.493 132.299 273.608 130.619 253.234 116.548L251.03 115.189C230.861 102.793 193.31 79.7155 145.922 72.7755C99.7486 67.1485 73.4474 67.3294 57.9927 83.9792C43.2647 100.506 42.2272 133.066 73.1396 168.528C101.122 197.54 129.527 216.359 150.257 230.116C154.942 233.223 159.359 236.147 163.342 238.894C165.552 240.222 167.689 241.534 169.734 242.777C188.425 254.244 196.974 259.496 208.606 246.357C212.61 239.789 215.787 232.513 219.166 224.821C224.268 213.149 229.567 201.092 238.208 190.527C243.24 183.278 249.685 176.778 255.925 170.5C264.767 161.597 273.128 153.168 274.669 144.713Z" fill="#A7CEFC"/>
<path d="M265.39 139.194C266.715 142.844 266.481 146.539 265.522 151.284C263.317 159.339 255.515 167.081 247.273 175.274C242.365 180.134 237.305 185.176 232.966 190.633C225.889 198.476 220.549 207.133 215.367 215.487C211.117 222.345 207.115 228.822 202.523 234.229L202.449 234.304C189.692 245.989 179.19 238.911 160.116 226.049L159.895 225.902L156.614 223.471C137.986 209.619 112.467 190.647 88.6742 162.3C62.2895 128.479 67.1784 102.376 79.3547 90.29C92.3371 77.3767 115.216 75.0466 158.321 82.2417C188.535 87.7331 218.631 100.75 247.769 120.917C258.397 128.85 263.494 133.976 265.39 139.194ZM200.794 233.024C205.287 227.714 209.263 221.302 213.455 214.516C218.663 206.096 224.066 197.381 231.201 189.467C235.556 183.961 240.673 178.892 245.618 173.994C253.718 165.966 261.358 158.378 263.439 150.767C265.651 139.961 263.803 135.196 246.496 122.306C217.656 102.36 187.895 89.4816 158.06 84.06C115.777 77.0053 93.4431 79.1755 80.9787 91.5761C68.3472 104.117 66.3405 130.538 90.352 161.334C113.96 189.45 139.345 208.332 157.897 222.11L161.312 224.632C180.519 237.584 189.313 243.514 200.794 233.024Z" fill="#A7CEFC"/>
<path d="M255.382 142.662C256.863 146.741 256.681 150.902 255.151 155.825L255.145 155.856C252.533 163.338 245.108 170.491 237.265 178.06C233.626 181.561 229.882 185.189 226.437 188.993C221.253 194.194 216.718 199.706 212.352 205.034C206.983 211.573 201.909 217.767 196.437 222.267C184.475 230.631 174.308 224.232 158.948 212.715C144.012 200.66 122.109 181.785 104.145 156.777C88.9707 132.479 86.7557 112.349 97.8724 100.041C109.843 86.7608 135.48 84.0262 168.217 92.535C206.072 100.696 233.689 120.397 241.241 126.242C249.017 132.518 253.518 137.529 255.382 142.662ZM253.101 155.212C255.944 146.009 254.694 139.521 239.882 127.575C232.447 121.824 205.191 102.375 167.81 94.3235C135.89 86.031 111.031 88.5565 99.5895 101.262C89.0015 112.995 91.2755 132.411 105.976 155.957C123.761 180.705 145.5 199.45 160.312 211.396C176.114 223.254 184.697 228.06 195.002 220.853C200.275 216.499 205.292 210.377 210.613 203.892C215.016 198.527 219.556 192.984 224.782 187.759C228.222 183.941 232.013 180.303 235.662 176.785C243.333 169.341 250.606 162.325 253.101 155.212Z" fill="#A7CEFC"/>
<path d="M246.033 145.379C247.604 149.708 247.384 154.04 245.555 158.877L245.486 159.011C233.257 178.632 198.884 206.031 192.126 211.325L191.96 211.42C181.429 216.659 172.346 211.765 159.275 200.916C147.451 190.596 130.727 173.888 118.105 152.833C107.162 133.307 106.471 117.098 116.154 107.17C126.914 96.1476 148.656 94.234 175.805 101.903C201.605 108.259 223.173 121.093 234.742 130.989C240.684 136.188 244.365 140.788 246.033 145.379ZM243.564 158.102C247.023 148.845 244.241 141.829 233.31 132.262C221.957 122.545 200.76 109.946 175.342 103.674C149.37 96.3386 127.883 98.1238 117.819 108.432C108.669 117.8 109.429 133.321 119.987 152.108C132.466 172.908 149.021 189.429 160.706 199.644C173.207 210.03 181.301 214.461 190.733 209.842C210.145 194.635 234.193 173.088 243.564 158.102Z" fill="#A7CEFC"/>
<path d="M237.392 147.959C239.074 152.592 238.802 156.965 236.559 160.709C227.758 175.648 204.479 194.18 189.073 201.447C185.419 202.875 181.32 202.799 176.874 201.258C163.168 196.504 145.926 177.486 130.753 150.371C123.259 134.853 123.735 121.999 132.092 114.142C141.561 105.245 159.563 103.926 181.46 110.522C209.304 119.238 229.821 132.367 236.38 145.633C236.781 146.415 237.115 147.196 237.392 147.959ZM130.172 143.833C130.867 145.748 131.696 147.708 132.675 149.712C147.563 176.32 164.338 194.973 177.518 199.524C181.428 200.88 184.957 200.957 188.023 199.757C203.112 192.631 226.021 174.417 234.664 159.735C236.975 155.857 236.904 151.183 234.453 146.234C228.148 133.482 208.134 120.769 180.915 112.25C160.148 105.998 142.499 107.183 133.704 115.445C126.973 121.779 125.775 131.723 130.172 143.833Z" fill="#A7CEFC"/>
<path d="M228.723 149.272C230.285 153.573 230.103 157.688 228.157 161.279C221.262 174.083 202.129 188.619 187.22 192.362L187.189 192.368C173.287 195.376 154.355 177.149 142.206 149.039C137.472 136.971 138.748 127.01 145.833 120.96C153.952 114.02 168.387 113.125 185.451 118.5C206.248 125.208 222.012 135.77 227.631 146.77C228.057 147.621 228.426 148.454 228.723 149.272ZM186.503 190.571C200.961 186.924 219.531 172.821 226.22 160.374C228.277 156.58 228.094 152.108 225.704 147.416C220.333 136.915 205.068 126.756 184.859 120.238C168.59 115.113 154.912 115.879 147.356 122.341C140.851 127.91 139.701 137.202 144.172 148.549C155.71 175.206 173.919 193.286 186.503 190.571Z" fill="#A7CEFC"/>
<path d="M220.386 150.31C221.751 154.069 221.678 157.698 220.124 160.938C214.719 172.308 199.244 182.846 186.318 183.975C173.845 184.875 159.037 169.376 152.604 148.751C149.926 139.669 151.669 132.193 157.486 127.68C164.153 122.51 175.268 121.883 187.965 125.984C202.849 130.848 214.517 138.944 219.181 147.637C219.674 148.533 220.064 149.422 220.386 150.31ZM155.722 151.573C162.3 169.689 175.19 182.903 185.964 182.123C198.03 181.071 213.078 170.788 218.165 160.112C219.836 156.593 219.531 152.521 217.28 148.307C212.87 140.083 201.684 132.393 187.368 127.707C175.429 123.85 165.076 124.361 158.957 129.102C153.714 133.165 152.185 140.029 154.642 148.411C154.993 149.472 155.345 150.533 155.722 151.573Z" fill="#A7CEFC"/>
<path d="M212.338 151.186C213.436 154.21 213.453 157.163 212.374 159.87C208.625 169.248 196.883 176.549 186.198 176.145C175.606 175.677 165.051 163.865 162.17 149.285C160.941 142.809 162.76 137.482 167.296 134.285C172.431 130.662 180.449 130.225 189.293 133.078C199.401 136.367 207.332 141.967 211.04 148.443C211.57 149.347 212.005 150.27 212.338 151.186ZM186.128 174.293C195.831 174.665 206.932 167.723 210.368 159.143C211.589 156.093 211.174 152.641 209.17 149.151C205.761 143.224 198.113 137.849 188.707 134.785C180.585 132.168 173.308 132.523 168.715 135.747C164.737 138.543 163.162 143.296 164.268 149.111C166.912 162.577 176.727 173.872 186.128 174.293Z" fill="#A7CEFC"/>
<path d="M204.509 151.967C205.27 154.061 205.398 156.215 204.736 158.267C202.58 165.114 194.435 169.819 186.597 168.769C178.785 167.699 171.796 159.48 171.022 150.428C170.661 146.248 172.244 142.807 175.448 140.742C178.982 138.473 184.162 138.157 189.643 139.868C197.173 142.238 202.686 146.945 204.509 151.967ZM202.702 157.65C204.563 151.746 198.465 144.549 189.082 141.6C184.282 140.103 179.791 140.334 176.805 142.263C174.142 143.975 172.834 146.88 173.14 150.445C173.844 158.615 179.951 166.019 186.755 166.944C193.642 167.866 200.793 163.699 202.702 157.65Z" fill="#A7CEFC"/>
<path d="M196.886 152.866C197.299 154.004 197.406 155.176 197.151 156.321C196.278 160.239 191.883 162.675 187.336 161.737C182.845 160.817 179.264 156.449 179.366 152.021C179.413 149.89 180.415 148.125 182.212 147.074C184.103 145.958 186.71 145.752 189.353 146.523C193.091 147.632 195.883 150.105 196.886 152.866ZM181.942 154.824C182.854 157.335 185.07 159.422 187.68 159.962C191.101 160.659 194.423 158.823 195.069 155.849C195.736 152.885 192.927 149.489 188.823 148.293C186.778 147.694 184.897 147.822 183.491 148.656C182.22 149.403 181.508 150.673 181.471 152.234C181.473 153.115 181.64 153.991 181.942 154.824Z" fill="#A7CEFC"/>
</g>
</svg>