<svg width="72" height="99" viewBox="0 0 72 99" fill="none" xmlns="http://www.w3.org/2000/svg">
<g style="mix-blend-mode:plus-lighter">
<ellipse cx="68.461" cy="2.61677" rx="2.5" ry="2.62469" transform="rotate(90.0943 68.461 2.61677)" fill="#4B3FD8"/>
<ellipse cx="24.6778" cy="2.54158" rx="2.5" ry="2.62469" transform="rotate(90.0943 24.6778 2.54158)" fill="#4B3FD8"/>
<ellipse cx="68.3985" cy="40.0074" rx="2.5" ry="2.62469" transform="rotate(90.0943 68.3985 40.0074)" fill="#4B3FD8"/>
<ellipse cx="24.6173" cy="39.9332" rx="2.5" ry="2.62469" transform="rotate(90.0943 24.6173 39.9332)" fill="#4B3FD8"/>
<ellipse cx="68.338" cy="77.3992" rx="2.5" ry="2.62469" transform="rotate(90.0943 68.338 77.3992)" fill="#4B3FD8"/>
<ellipse cx="24.5548" cy="77.3248" rx="2.5" ry="2.62469" transform="rotate(90.0943 24.5548 77.3248)" fill="#4B3FD8"/>
<ellipse cx="46.5685" cy="2.57966" rx="2.5" ry="2.62469" transform="rotate(90.0943 46.5685 2.57966)" fill="#4B3FD8"/>
<ellipse cx="2.78526" cy="2.50471" rx="2.5" ry="2.62469" transform="rotate(90.0943 2.78526 2.50471)" fill="#4B3FD8"/>
<ellipse cx="46.5079" cy="39.9703" rx="2.5" ry="2.62469" transform="rotate(90.0943 46.5079 39.9703)" fill="#4B3FD8"/>
<ellipse cx="2.72471" cy="39.8962" rx="2.5" ry="2.62469" transform="rotate(90.0943 2.72471 39.8962)" fill="#4B3FD8"/>
<ellipse cx="46.4474" cy="77.3619" rx="2.5" ry="2.62469" transform="rotate(90.0943 46.4474 77.3619)" fill="#4B3FD8"/>
<ellipse cx="2.66417" cy="77.2877" rx="2.5" ry="2.62469" transform="rotate(90.0943 2.66417 77.2877)" fill="#4B3FD8"/>
<ellipse cx="68.4259" cy="21.3131" rx="2.5" ry="2.62469" transform="rotate(90.0943 68.4259 21.3131)" fill="#4B3FD8"/>
<ellipse cx="24.6427" cy="21.2387" rx="2.5" ry="2.62469" transform="rotate(90.0943 24.6427 21.2387)" fill="#4B3FD8"/>
<ellipse cx="68.3634" cy="58.7047" rx="2.5" ry="2.62469" transform="rotate(90.0943 68.3634 58.7047)" fill="#4B3FD8"/>
<ellipse cx="24.5821" cy="58.6304" rx="2.5" ry="2.62469" transform="rotate(90.0943 24.5821 58.6304)" fill="#4B3FD8"/>
<ellipse cx="68.3028" cy="96.0963" rx="2.5" ry="2.62469" transform="rotate(90.0943 68.3028 96.0963)" fill="#4B3FD8"/>
<ellipse cx="24.5216" cy="96.0211" rx="2.5" ry="2.62469" transform="rotate(90.0943 24.5216 96.0211)" fill="#4B3FD8"/>
<ellipse cx="46.5333" cy="21.276" rx="2.5" ry="2.62469" transform="rotate(90.0943 46.5333 21.276)" fill="#4B3FD8"/>
<ellipse cx="2.75206" cy="21.2017" rx="2.5" ry="2.62469" transform="rotate(90.0943 2.75206 21.2017)" fill="#4B3FD8"/>
<ellipse cx="46.4728" cy="58.6676" rx="2.5" ry="2.62469" transform="rotate(90.0943 46.4728 58.6676)" fill="#4B3FD8"/>
<ellipse cx="2.68956" cy="58.5924" rx="2.5" ry="2.62469" transform="rotate(90.0943 2.68956 58.5924)" fill="#4B3FD8"/>
<ellipse cx="46.4122" cy="96.0582" rx="2.5" ry="2.62469" transform="rotate(90.0943 46.4122 96.0582)" fill="#4B3FD8"/>
<ellipse cx="2.62901" cy="95.984" rx="2.5" ry="2.62469" transform="rotate(90.0943 2.62901 95.984)" fill="#4B3FD8"/>
</g>
</svg>
