<svg version="1.2" xmlns="http://www.w3.org/2000/svg" viewBox="0 0 212 113" width="212" height="113">
	<title>DomainName-svg</title>
	<style>
		.s0 { fill: #ffffff } 
		.s1 { fill: #f4d3c8 } 
		.s2 { opacity: .6;fill: none;stroke: #455a64;stroke-width: 2 } 
		.s3 { fill: #455a64 } 
		.s4 { fill: #ff5733;stroke: #ffffff } 
	</style>
	<path id="Layer" class="s0" d="m-20-74h256v256h-256z"/>
	<path id="Layer" class="s1" d="m154.6 63.7c-6.3 5.2-14.4 9.4-23 12.4-11.3 3.9-23.6 5.9-34.1 5.9-10.5 0-20.5-1.2-29.3-3.7-22.3-6.1-37.6-19.6-37.2-39.5 0.7-31.4 49.3-39.2 68.8-24.8 21 15.4 29.7 0.4 50.7 8.6 16.2 6.3 20.6 27.2 4.1 41.1z"/>
	<path id="Layer" class="s0" d="m11 32h179c1.1 0 2 0.9 2 2v28c0 1.1-0.9 2-2 2h-179c-1.1 0-2-0.9-2-2v-28c0-1.1 0.9-2 2-2z"/>
	<path id="Layer" class="s2" d="m11 33h179c0.6 0 1 0.4 1 1v28c0 0.6-0.4 1-1 1h-179c-0.6 0-1-0.4-1-1v-28c0-0.6 0.4-1 1-1z"/>
	<path id="Layer" fill-rule="evenodd" class="s3" d="m20.9 48.8v3.2h-1.2v-7.3h1.2v2.8h0.1q0.2-0.5 0.6-0.8 0.4-0.2 1-0.2 0.6 0 1 0.2 0.4 0.3 0.6 0.7 0.3 0.5 0.3 1.1v3.5h-1.3v-3.3q0-0.5-0.3-0.8-0.3-0.3-0.8-0.3-0.3 0-0.6 0.1-0.3 0.2-0.4 0.4-0.2 0.3-0.2 0.7zm7.6-2.3v1h-1.1v2.9q0 0.2 0.1 0.4 0.1 0.1 0.2 0.1 0.2 0.1 0.3 0.1 0.1 0 0.2 0 0.1 0 0.2-0.1l0.2 1q-0.1 0.1-0.3 0.1-0.2 0.1-0.4 0.1-0.5 0-0.9-0.2-0.4-0.1-0.6-0.5-0.2-0.3-0.2-0.8v-3.1h-0.8v-1h0.8v-1.3h1.2v1.3zm3.8 0v1h-1v2.9q0 0.2 0 0.4 0.1 0.1 0.3 0.1 0.1 0.1 0.2 0.1 0.2 0 0.3 0 0.1 0 0.1-0.1l0.2 1q-0.1 0.1-0.3 0.1-0.1 0.1-0.4 0.1-0.5 0-0.9-0.2-0.4-0.1-0.6-0.5-0.2-0.3-0.2-0.8v-3.1h-0.8v-1h0.8v-1.3h1.3v1.3zm1 7.5v-7.5h1.3v0.9h0.1q0.1-0.2 0.3-0.4 0.1-0.2 0.4-0.4 0.4-0.1 0.8-0.1 0.7 0 1.2 0.3 0.5 0.3 0.8 0.9 0.3 0.7 0.3 1.6 0 0.9-0.3 1.5-0.3 0.6-0.8 1-0.5 0.3-1.2 0.3-0.4 0-0.7-0.2-0.3-0.1-0.5-0.3-0.2-0.3-0.3-0.5h-0.1v2.9zm1.3-4.7q0 0.5 0.1 0.9 0.2 0.4 0.5 0.6 0.3 0.2 0.7 0.2 0.4 0 0.7-0.2 0.3-0.2 0.4-0.6 0.2-0.4 0.2-0.9 0-0.5-0.2-0.9-0.1-0.4-0.4-0.6-0.3-0.3-0.7-0.3-0.4 0-0.7 0.2-0.3 0.3-0.5 0.7-0.1 0.3-0.1 0.9zm5.8 2.8q-0.4 0-0.6-0.2-0.2-0.3-0.2-0.6 0-0.3 0.2-0.5 0.2-0.3 0.6-0.3 0.3 0 0.5 0.3 0.2 0.2 0.2 0.5 0 0.2-0.1 0.4-0.1 0.2-0.3 0.3-0.1 0.1-0.3 0.1zm0-3.9q-0.4 0-0.6-0.2-0.2-0.3-0.2-0.6 0-0.3 0.2-0.5 0.2-0.3 0.6-0.3 0.3 0 0.5 0.3 0.2 0.2 0.2 0.5 0 0.2-0.1 0.4-0.1 0.2-0.3 0.3-0.1 0.1-0.3 0.1zm5-3.8l-2.3 8.7h-1.1l2.3-8.7zm3.8 0l-2.3 8.7h-1.2l2.4-8.7zm1.9 7.6l-1.5-5.5h1.3l1 3.9 1-3.9h1.3l1 3.9 1-3.9h1.3l-1.6 5.5h-1.3l-1-3.7h-0.1l-1 3.7zm8.3 0l-1.5-5.5h1.3l1 3.9 1-3.9h1.3l1 3.9 1-3.9h1.3l-1.6 5.5h-1.3l-1-3.7h-0.1l-1 3.7zm8.4 0l-1.6-5.5h1.3l1 3.9 1-3.9h1.3l1 3.9 1-3.9h1.3l-1.5 5.5h-1.4l-1-3.7h-0.1l-1 3.7zm7.3 0.1q-0.3 0-0.6-0.2-0.2-0.3-0.2-0.6 0-0.3 0.2-0.5 0.3-0.3 0.6-0.3 0.3 0 0.5 0.3 0.3 0.2 0.3 0.5 0 0.2-0.1 0.4-0.2 0.2-0.3 0.3-0.2 0.1-0.4 0.1zm2.1-0.1v-5.5h1.2v1h0.1q0.2-0.5 0.6-0.8 0.3-0.2 0.9-0.2 0.5 0 0.9 0.2 0.4 0.3 0.6 0.8 0.2-0.5 0.6-0.8 0.5-0.2 1.1-0.2 0.7 0 1.2 0.5 0.5 0.4 0.5 1.3v3.7h-1.3v-3.5q0-0.5-0.3-0.7-0.3-0.2-0.7-0.2-0.4 0-0.7 0.2-0.2 0.3-0.2 0.8v3.4h-1.3v-3.5q0-0.4-0.3-0.7-0.2-0.2-0.6-0.2-0.3 0-0.5 0.1-0.3 0.1-0.4 0.4-0.1 0.2-0.1 0.6v3.3zm9.6 2q-0.3 0-0.5 0-0.2 0-0.4-0.1l0.3-1q0.3 0.1 0.5 0.1 0.2 0 0.4-0.2 0.2-0.1 0.3-0.4l0.1-0.3-2-5.6h1.4l1.2 4.2h0.1l1.3-4.2h1.3l-2.2 6.2q-0.1 0.4-0.4 0.7-0.2 0.3-0.6 0.5-0.3 0.1-0.8 0.1zm4.9-2v-5.5h1.3v1q0.2-0.5 0.5-0.8 0.4-0.2 0.9-0.2 0.1 0 0.2 0 0.1 0 0.2 0v1.2q-0.1 0-0.2-0.1-0.2 0-0.4 0-0.3 0-0.6 0.2-0.3 0.1-0.4 0.4-0.2 0.2-0.2 0.6v3.2zm6.2 0.1q-0.9 0-1.5-0.3-0.5-0.4-0.9-1-0.3-0.6-0.3-1.5 0-0.8 0.3-1.5 0.4-0.6 0.9-1 0.6-0.3 1.4-0.3 0.5 0 0.9 0.1 0.5 0.2 0.8 0.5 0.4 0.4 0.6 0.9 0.2 0.5 0.2 1.2v0.4h-3.8q0 0.5 0.2 0.8 0.1 0.3 0.4 0.5 0.4 0.2 0.8 0.2 0.3 0 0.5-0.1 0.2-0.1 0.4-0.2 0.1-0.2 0.2-0.4l1.2 0.1q-0.1 0.5-0.4 0.9-0.3 0.3-0.8 0.5-0.5 0.2-1.1 0.2zm-1.4-2.5q0 0 0 0v-0.8q0 0 0 0h-0.7v0.8zm2.6-0.8q0-0.4-0.2-0.7-0.1-0.3-0.4-0.5-0.3-0.1-0.7-0.1-0.4 0-0.7 0.2-0.2 0.2-0.4 0.5-0.2 0.2-0.2 0.6zm6.7-0.8l-1.2 0.1q-0.1-0.2-0.2-0.3-0.1-0.2-0.3-0.3-0.2-0.1-0.5-0.1-0.4 0-0.7 0.2-0.3 0.2-0.3 0.5 0 0.2 0.2 0.3 0.2 0.2 0.6 0.3l0.9 0.2q0.8 0.2 1.2 0.5 0.4 0.4 0.4 1 0 0.5-0.3 0.9-0.3 0.4-0.9 0.6-0.5 0.2-1.2 0.2-1 0-1.6-0.4-0.6-0.4-0.7-1.2l1.3-0.1q0 0.4 0.3 0.5 0.3 0.2 0.7 0.2 0.5 0 0.8-0.2 0.2-0.1 0.3-0.4 0-0.3-0.2-0.4-0.2-0.2-0.6-0.2l-0.9-0.2q-0.8-0.2-1.2-0.6-0.4-0.4-0.3-1-0.1-0.5 0.2-0.8 0.3-0.4 0.8-0.6 0.5-0.2 1.2-0.2 0.9 0 1.5 0.4 0.5 0.4 0.7 1.1zm3.9-1.5v1h-1.1v2.9q0 0.2 0.1 0.4 0 0.1 0.2 0.1 0.1 0.1 0.3 0.1 0.1 0 0.2 0 0.1 0 0.1-0.1l0.3 1q-0.2 0.1-0.3 0.1-0.2 0.1-0.5 0.1-0.5 0-0.9-0.2-0.4-0.1-0.6-0.5-0.2-0.3-0.2-0.8v-3.1h-0.8v-1h0.8v-1.3h1.3v1.3zm2.6 5.6q-0.5 0-0.9-0.2-0.4-0.2-0.7-0.5-0.2-0.4-0.2-0.9 0-0.5 0.2-0.8 0.1-0.3 0.4-0.5 0.3-0.2 0.7-0.2 0.4-0.1 0.8-0.2 0.4 0 0.7-0.1 0.3 0 0.5-0.1 0.1-0.1 0.1-0.3 0-0.4-0.2-0.6-0.3-0.2-0.7-0.2-0.5 0-0.8 0.2-0.2 0.2-0.3 0.5l-1.2-0.2q0.1-0.5 0.4-0.9 0.4-0.3 0.8-0.5 0.5-0.1 1.1-0.1 0.4 0 0.8 0.1 0.4 0.1 0.7 0.3 0.3 0.2 0.5 0.5 0.2 0.4 0.2 0.9v3.7h-1.2v-0.7h-0.1q-0.1 0.2-0.3 0.4-0.2 0.2-0.5 0.3-0.4 0.1-0.8 0.1zm0.4-0.9q0.3 0 0.6-0.2 0.3-0.1 0.5-0.4 0.1-0.3 0.1-0.6v-0.6q0 0.1-0.2 0.1-0.1 0-0.3 0.1-0.2 0-0.4 0-0.1 0-0.3 0.1-0.2 0-0.5 0.1-0.2 0.1-0.3 0.2-0.2 0.2-0.2 0.4 0 0.4 0.3 0.6 0.3 0.2 0.7 0.2zm7.3-1.5v-3.2h1.3v5.5h-1.3v-1q-0.2 0.5-0.7 0.8-0.4 0.3-1 0.3-0.5 0-0.9-0.3-0.4-0.2-0.7-0.7-0.2-0.4-0.2-1.1v-3.5h1.3v3.3q0 0.5 0.3 0.8 0.2 0.3 0.7 0.3 0.3 0 0.6-0.1 0.2-0.1 0.4-0.4 0.2-0.3 0.2-0.7zm2.6 2.3v-5.5h1.2v1h0.1q0.1-0.5 0.5-0.8 0.4-0.2 0.8-0.2 0.1 0 0.3 0 0.1 0 0.2 0v1.2q-0.1 0-0.3-0.1-0.1 0-0.3 0-0.4 0-0.6 0.2-0.3 0.1-0.5 0.4-0.1 0.2-0.1 0.6v3.2zm5.4 0.1q-0.5 0-0.9-0.2-0.4-0.2-0.7-0.5-0.2-0.4-0.2-0.9 0-0.5 0.1-0.8 0.2-0.3 0.5-0.5 0.3-0.2 0.7-0.2 0.3-0.1 0.7-0.2 0.5 0 0.8-0.1 0.3 0 0.5-0.1 0.1-0.1 0.1-0.3 0-0.4-0.2-0.6-0.3-0.2-0.7-0.2-0.5 0-0.8 0.2-0.3 0.2-0.3 0.5l-1.2-0.2q0.1-0.5 0.4-0.9 0.3-0.3 0.8-0.5 0.5-0.1 1.1-0.1 0.4 0 0.7 0.1 0.4 0.1 0.8 0.3 0.3 0.2 0.5 0.5 0.2 0.4 0.2 0.9v3.7h-1.3v-0.7q-0.1 0.2-0.3 0.4-0.2 0.2-0.6 0.3-0.3 0.1-0.7 0.1zm0.3-0.9q0.4 0 0.7-0.2 0.3-0.1 0.4-0.4 0.2-0.3 0.2-0.6v-0.6q-0.1 0.1-0.2 0.1-0.2 0-0.3 0.1-0.2 0-0.4 0-0.2 0-0.3 0.1-0.3 0-0.5 0.1-0.2 0.1-0.4 0.2-0.1 0.2-0.1 0.4 0 0.4 0.3 0.6 0.2 0.2 0.6 0.2zm5.2-2.4v3.2h-1.3v-5.5h1.2v1h0.1q0.2-0.5 0.6-0.8 0.4-0.2 1-0.2 0.6 0 1 0.2 0.4 0.3 0.6 0.7 0.3 0.5 0.3 1.1v3.5h-1.3v-3.3q0-0.5-0.3-0.8-0.3-0.3-0.8-0.3-0.3 0-0.6 0.1-0.2 0.2-0.4 0.4-0.1 0.3-0.1 0.7zm7.5-2.3v1h-1.1v2.9q0 0.2 0.1 0.4 0.1 0.1 0.2 0.1 0.1 0.1 0.3 0.1 0.1 0 0.2 0 0.1 0 0.2-0.1l0.2 1q-0.1 0.1-0.3 0.1-0.2 0.1-0.5 0.1-0.5 0-0.8-0.2-0.4-0.1-0.7-0.5-0.2-0.3-0.2-0.8v-3.1h-0.7v-1h0.7v-1.3h1.3v1.3zm1.9 5.6q-0.3 0-0.6-0.2-0.2-0.3-0.2-0.6 0-0.3 0.2-0.5 0.3-0.3 0.6-0.3 0.3 0 0.5 0.3 0.3 0.2 0.3 0.5 0 0.2-0.2 0.4-0.1 0.2-0.2 0.3-0.2 0.1-0.4 0.1zm2.9 0q-0.3 0-0.6-0.2-0.2-0.3-0.2-0.6 0-0.3 0.2-0.5 0.3-0.3 0.6-0.3 0.3 0 0.5 0.3 0.3 0.2 0.3 0.5 0 0.2-0.2 0.4-0.1 0.2-0.2 0.3-0.2 0.1-0.4 0.1zm2.9 0q-0.3 0-0.6-0.2-0.2-0.3-0.2-0.6 0-0.3 0.2-0.5 0.3-0.3 0.6-0.3 0.3 0 0.5 0.3 0.3 0.2 0.3 0.5 0 0.2-0.2 0.4-0.1 0.2-0.2 0.3-0.2 0.1-0.4 0.1z"/>
	<path id="Layer" class="s4" d="m201.9 99q-0.3 0.4-0.8 0.6-0.4 0.2-0.9 0.2-0.5 0-1-0.2-0.4-0.2-0.8-0.6l-13.9-13.9-0.5-0.5-0.3 0.7-4.7 12.3-0.1 0.1c-0.2 0.6-0.7 1.1-1.2 1.5-0.6 0.4-1.2 0.5-1.9 0.5h-0.2c-0.7 0-1.3-0.2-1.9-0.6-0.5-0.5-1-1-1.2-1.7l-12.8-39.4c-0.2-0.6-0.3-1.3-0.1-1.9 0.1-0.6 0.5-1.1 0.9-1.6 0.5-0.4 1-0.8 1.6-0.9 0.6-0.2 1.3-0.1 1.9 0.1l39.4 12.8q0 0 0 0c0.6 0.3 1.2 0.7 1.6 1.2 0.5 0.6 0.7 1.2 0.7 1.9 0.1 0.7-0.1 1.4-0.5 2-0.3 0.6-0.9 1-1.5 1.3l-0.1 0.1-12.3 4.7-0.7 0.3 0.5 0.5 13.9 13.9c0.5 0.5 0.7 1.1 0.7 1.8 0 0.6-0.2 1.2-0.7 1.7z"/>
</svg>