<svg version="1.2" xmlns="http://www.w3.org/2000/svg" viewBox="0 0 657 469" width="657" height="469">
	<title>Website-svg</title>
	<defs>
		<clipPath clipPathUnits="userSpaceOnUse" id="cp1">
			<path d="m366.86 121.38l69.76-21.52 21.52 69.76-69.76 21.52z"/>
		</clipPath>
	</defs>
	<style>
		.s0 { fill: #f5f5f5 } 
		.s1 { fill: #ebebeb } 
		.s2 { fill: #e0e0e0 } 
		.s3 { fill: #263238 } 
		.s4 { fill: #455a64 } 
		.s5 { fill: #000000 } 
		.s6 { fill: #ff725e } 
		.s7 { fill: #ffffff } 
		.s8 { fill: #ffbf9d } 
		.s9 { fill: #ff9a6c } 
	</style>
	<path id="Layer" class="s0" d="m145.5 46.6c1.1 7.6-0.1 15.4-3.4 22.3-3.2 7-8.5 12.8-15.1 16.7-6.6 4-14.2 5.9-21.9 5.5-7.7-0.4-15.1-3.1-21.2-7.6-6.2-4.6-10.9-10.9-13.4-18.2-2.6-7.2-3-15.1-1.1-22.5 1.9-7.5 5.9-14.2 11.7-19.3 5.7-5.2 12.8-8.5 20.4-9.6 5-0.8 10.1-0.5 15.1 0.7 4.9 1.3 9.6 3.5 13.7 6.5 4 3.1 7.5 6.9 10.1 11.3 2.6 4.3 4.3 9.2 5.1 14.2z"/>
	<path id="Layer" class="s1" d="m136.3 48c0.9 5.8 0 11.7-2.5 17-2.5 5.3-6.6 9.7-11.6 12.7-5 3-10.8 4.4-16.7 4.1-5.8-0.3-11.4-2.3-16.1-5.8-4.7-3.5-8.3-8.3-10.2-13.8-2-5.5-2.3-11.5-0.8-17.2 1.4-5.7 4.5-10.8 8.8-14.7 4.4-3.9 9.8-6.5 15.6-7.3 3.8-0.6 7.8-0.4 11.5 0.6 3.8 0.9 7.3 2.6 10.4 5 3.2 2.3 5.8 5.2 7.8 8.5 2 3.4 3.3 7.1 3.8 10.9z"/>
	<path id="Layer" class="s2" d="m136.2 47c-0.2 0-0.5-1.2-1.3-3.4-1.1-3.1-2.7-5.9-4.7-8.5q-2-2.6-4.6-4.7-3-2.5-6.5-4c-2.5-1.2-5.2-2-8-2.4q-2.2-0.3-4.4-0.2c-3.1 0-6.1 0.6-9 1.6q-2.1 0.7-4.1 1.7-1.9 1.1-3.6 2.4-1.7 1.2-3.1 2.6-2.8 2.7-4.7 6-1.7 2.9-2.7 6.1c-1 3.1-1.5 6.3-1.5 9.5 0 2.4 0.1 3.7 0 3.7-0.1 0-0.6-1.2-0.8-3.6-0.4-3.4-0.1-6.8 0.8-10.1 1.3-4.9 3.9-9.4 7.5-13.1q1.5-1.5 3.3-2.9 1.8-1.4 3.8-2.5 2.1-1.1 4.4-1.9c3.1-1.1 6.4-1.7 9.7-1.7q2.4-0.1 4.8 0.3c2.9 0.4 5.8 1.3 8.5 2.6 2.5 1.2 4.7 2.7 6.8 4.5q2.7 2.3 4.7 5.2c2 2.8 3.4 5.9 4.3 9.2 0.5 2.3 0.5 3.6 0.4 3.6z"/>
	<path id="Layer" fill-rule="evenodd" class="s2" d="m112.9 69.2l0.8 5.1-4.5 0.7-0.8-5c-4.6 0.5-9.1-0.3-11.9-1.8l1.6-5.9c2.9 1.4 6.1 2 9.3 1.8l-1.2-7.6c-5.2-0.4-11.1-1.2-12.2-7.7-0.8-4.8 2.1-9.5 9.1-11.5l-0.8-5 4.6-0.7 0.8 5c3.2-0.4 6.6 0.1 9.6 1.3l-1.3 6c-2.4-0.9-4.9-1.4-7.4-1.3l1.3 7.7c5.2 0.4 11 1.2 12 7.6 0.8 4.6-2 9.3-9 11.3zm-7.8-19.4l-1-6.4c-2.3 0.9-3 2.4-2.8 3.9 0.3 1.5 1.7 2.2 3.8 2.5zm9.6 9.7c-0.3-1.6-1.7-2.2-3.8-2.6l1 6.3c2.2-0.9 3-2.2 2.8-3.7z"/>
	<path id="Layer" class="s0" d="m211 19.1c0.5 3.3 0 6.7-1.4 9.7-1.5 3-3.7 5.5-6.6 7.2-2.8 1.7-6.1 2.5-9.4 2.3-3.3-0.2-6.5-1.3-9.1-3.3-2.7-1.9-4.7-4.7-5.8-7.8-1.1-3.1-1.3-6.5-0.5-9.7 0.8-3.2 2.6-6.1 5-8.3 2.5-2.2 5.5-3.7 8.8-4.2 2.2-0.3 4.4-0.2 6.5 0.4 2.2 0.5 4.2 1.4 5.9 2.7 1.8 1.4 3.3 3 4.4 4.9 1.1 1.9 1.9 4 2.2 6.1z"/>
	<path id="Layer" class="s1" d="m207.1 19.7c0.4 2.5 0 5.1-1.1 7.4-1.1 2.3-2.8 4.2-5 5.5-2.1 1.3-4.6 1.9-7.2 1.8-2.5-0.2-4.9-1-6.9-2.5-2.1-1.5-3.6-3.6-4.5-6-0.8-2.4-0.9-4.9-0.3-7.4 0.6-2.4 1.9-4.7 3.8-6.3 1.9-1.7 4.2-2.8 6.7-3.2 3.4-0.5 6.8 0.4 9.5 2.4 2.7 2 4.5 5 5 8.3z"/>
	<path id="Layer" class="s2" d="m207 19.3q-0.4-0.7-0.6-1.4-0.7-2-2-3.7-0.8-1.1-2-2.1-1.2-1-2.7-1.7-0.8-0.3-1.7-0.6-0.9-0.2-1.8-0.4-2-0.2-3.9 0.1-0.9 0.2-1.9 0.5-0.9 0.3-1.7 0.8-0.9 0.4-1.6 1-0.7 0.5-1.4 1.1c-1.4 1.5-2.5 3.2-3.1 5.2q-0.7 2-0.7 4.1 0.1 0.8 0 1.6-0.3-0.7-0.4-1.6c-0.1-1.4 0-2.9 0.4-4.3q0.4-1.5 1.1-2.8 0.9-1.6 2.1-2.8 0.7-0.7 1.4-1.3 0.8-0.6 1.7-1.1 0.9-0.5 1.9-0.8 1-0.4 2-0.6 2.1-0.3 4.2 0 1 0.1 1.9 0.4 0.9 0.3 1.8 0.7 1.6 0.8 3 1.9 1.1 1 2 2.3c0.9 1.2 1.5 2.6 1.8 4q0.3 0.7 0.2 1.5z"/>
	<path id="Layer" fill-rule="evenodd" class="s2" d="m197 28.9l0.3 2.2-2 0.3-0.3-2.1c-1.8 0.2-3.5-0.1-5.1-0.8l0.7-2.6c1.2 0.6 2.6 0.9 4 0.8l-0.6-3.3c-2.2-0.2-4.8-0.5-5.2-3.3-0.4-2.1 0.9-4.1 3.9-5l-0.3-2.1 2-0.3 0.4 2.1c1.4-0.1 2.8 0.1 4.1 0.6l-0.6 2.5c-1-0.3-2-0.5-3.1-0.5l0.5 3.3c2.3 0.2 4.8 0.5 5.2 3.3 0.3 2-0.9 4-3.9 4.9zm-3.3-8.4l-0.5-2.7c-1 0.4-1.3 1-1.2 1.6 0.1 0.7 0.7 1 1.6 1.1zm4.2 4.2c-0.2-0.7-0.8-1-1.7-1.1l0.5 2.7c0.9-0.4 1.2-1 1.1-1.6z"/>
	<path id="Layer" class="s0" d="m57 216.7c-3 3.6-7 6.3-11.5 7.7-4.5 1.4-9.3 1.4-13.8 0.1-4.6-1.4-8.6-4.1-11.6-7.7-3-3.7-4.8-8.1-5.3-12.8-0.5-4.7 0.5-9.4 2.7-13.6 2.2-4.1 5.6-7.6 9.8-9.8 4.1-2.2 8.8-3.2 13.5-2.7 4.7 0.5 9.2 2.3 12.8 5.3 4.9 4 8 9.8 8.7 16 0.6 6.3-1.3 12.6-5.3 17.5z"/>
	<path id="Layer" class="s1" d="m52.6 213.1c-2.3 2.8-5.3 4.8-8.8 5.9-3.4 1.1-7.1 1.1-10.5 0-3.4-1-6.5-3-8.8-5.8-2.3-2.8-3.7-6.2-4.1-9.7-0.3-3.6 0.4-7.2 2.1-10.4 1.6-3.2 4.2-5.8 7.4-7.5 3.2-1.7 6.8-2.4 10.3-2.1 3.6 0.4 7 1.8 9.8 4.1 1.8 1.5 3.4 3.3 4.5 5.4 1.1 2.1 1.8 4.4 2.1 6.8 0.2 2.4 0 4.8-0.7 7-0.7 2.3-1.8 4.5-3.3 6.3z"/>
	<path id="Layer" class="s2" d="m53 212.7q0.4-1.1 1-2c0.9-1.8 1.6-3.7 1.9-5.7q0.3-2 0.2-4.1-0.1-2.3-0.8-4.6-0.5-1.2-1-2.3-0.6-1.2-1.3-2.2-0.8-1.2-1.7-2.2c-1.3-1.3-2.8-2.5-4.4-3.4q-1.2-0.6-2.5-1.1-1.3-0.4-2.6-0.7-1.2-0.2-2.5-0.3c-2.9-0.2-5.8 0.4-8.5 1.6-1.8 0.9-3.5 2-5 3.3-1 1-1.6 1.6-1.7 1.5-0.1 0 0.4-0.7 1.3-1.9 1.4-1.5 3.1-2.8 4.9-3.8q2-0.9 4.1-1.5 2.4-0.6 5-0.5 1.3 0.1 2.7 0.3 1.4 0.3 2.7 0.7 1.4 0.5 2.7 1.2 1.3 0.7 2.5 1.7 1.2 0.9 2.2 2 1 1 1.9 2.3 0.8 1.1 1.4 2.4 0.6 1.2 1 2.5c0.9 3 1 6.2 0.4 9.3-0.5 2-1.3 4-2.4 5.7-0.9 1.3-1.5 1.8-1.5 1.8z"/>
	<path id="Layer" fill-rule="evenodd" class="s2" d="m33.3 211.3l-2 2.4-2.2-1.7 1.9-2.4c-1.9-1.7-3.3-3.8-4.1-6.2l3.4-1.7c0.5 1.9 1.5 3.6 3 5l2.9-3.7c-2-2.6-4.1-5.6-1.5-8.7 1.8-2.4 5.1-3 9-0.6l2-2.5 2.1 1.8-1.9 2.4c1.5 1.4 2.7 3 3.4 4.9l-3.2 1.9c-0.6-1.5-1.4-2.8-2.5-3.9l-3 3.8c2 2.5 4 5.5 1.6 8.6-1.9 2.3-5.1 2.9-8.9 0.6zm5.5-11.6l2.5-3.1c-1.3-0.7-2.3-0.4-2.9 0.3-0.6 0.8-0.3 1.7 0.4 2.8zm-0.4 8.4c0.6-0.8 0.3-1.7-0.4-2.8l-2.4 3c1.3 0.7 2.2 0.5 2.8-0.2z"/>
	<path id="Layer" class="s0" d="m591.3 316.5c-2.9 3.7-6.9 6.4-11.5 7.7-4.5 1.4-9.3 1.4-13.8 0.1-4.5-1.4-8.5-4.1-11.5-7.7-3-3.7-4.9-8.1-5.3-12.8-0.5-4.7 0.4-9.4 2.7-13.6 2.2-4.1 5.6-7.6 9.7-9.8 4.2-2.2 8.9-3.1 13.6-2.7 4.7 0.5 9.2 2.3 12.8 5.3 2.4 2 4.4 4.4 5.9 7.2 1.5 2.7 2.4 5.8 2.7 8.9 0.3 3.1 0 6.2-0.9 9.2-0.9 3-2.4 5.8-4.4 8.2z"/>
	<path id="Layer" class="s1" d="m587 312.9c-2.3 2.8-5.3 4.9-8.8 5.9-3.4 1.1-7.1 1.1-10.5 0.1-3.5-1.1-6.5-3.1-8.8-5.9-2.3-2.8-3.7-6.1-4.1-9.7-0.3-3.6 0.4-7.2 2.1-10.4 1.7-3.2 4.3-5.8 7.4-7.5 3.2-1.7 6.8-2.4 10.4-2 3.6 0.3 6.9 1.7 9.7 4 3.8 3 6.1 7.4 6.6 12.2 0.5 4.8-1 9.6-4 13.3z"/>
	<path id="Layer" class="s2" d="m587.3 312.5q0.4-1.1 1-2c0.9-1.8 1.6-3.7 1.9-5.6q0.4-2.1 0.3-4.1-0.2-2.4-0.9-4.6-0.4-1.2-1-2.3-0.5-1.2-1.3-2.3-0.8-1.1-1.7-2.1-1-1-2.1-1.9-1.1-0.9-2.3-1.5-1.2-0.7-2.5-1.1-1.3-0.5-2.6-0.8-1.2-0.2-2.5-0.3-2.3-0.1-4.6 0.4-2 0.4-3.9 1.3c-1.8 0.8-3.5 1.9-5 3.3-1 1-1.6 1.5-1.7 1.5 0-0.1 0.4-0.8 1.3-1.9 1.4-1.6 3.1-2.9 4.9-3.8q2-1 4.1-1.5 2.4-0.6 5-0.5 1.3 0 2.7 0.2 1.4 0.3 2.7 0.8 1.4 0.5 2.7 1.2 1.3 0.7 2.6 1.6c1.5 1.2 2.9 2.7 4 4.3q0.8 1.2 1.4 2.5 0.6 1.2 1 2.5 0.8 2.4 0.8 4.9 0 2.2-0.4 4.4c-0.5 2-1.3 3.9-2.4 5.7-0.8 1.2-1.4 1.7-1.5 1.7z"/>
	<path id="Layer" fill-rule="evenodd" class="s2" d="m567.6 311.1l-2 2.5-2.2-1.8 1.9-2.4c-1.9-1.6-3.3-3.7-4.1-6.1l3.4-1.8c0.5 1.9 1.6 3.7 3 5l2.9-3.7c-2-2.5-4-5.5-1.5-8.7 1.9-2.3 5.1-3 9-0.6l2-2.5 2.2 1.8-1.9 2.4c1.5 1.4 2.7 3.1 3.4 4.9l-3.3 1.9c-0.5-1.4-1.4-2.7-2.4-3.8l-3 3.7c2 2.5 4 5.5 1.5 8.6-1.8 2.3-5.1 2.9-8.9 0.6zm5.6-11.5l2.5-3.2c-1.4-0.6-2.4-0.4-3 0.4-0.5 0.7-0.2 1.7 0.5 2.8zm-0.4 8.3c0.6-0.8 0.3-1.7-0.4-2.8l-2.4 3.1c1.2 0.6 2.2 0.4 2.8-0.3z"/>
	<path id="Layer" class="s3" d="m36.4 383.3c0-0.2 144.9-0.3 323.6-0.3 178.7 0 323.6 0.1 323.6 0.3 0 0.1-144.9 0.2-323.6 0.2-178.8 0-323.6-0.1-323.6-0.2z"/>
	<path id="Layer" class="s4" d="m74.7 247.9c-7.1 3.7-12.6 10-16.5 17-4 7-6.5 14.7-9 22.4l-2.2 39.3c8.3-14.1 15-30.7 16.8-47l-5.6-0.5c3.7-0.5 6.9-3.2 8.8-6.4 2-3.2 3-6.8 4-10.5l-6.7 1c5.3-3.6 9-9.1 10.4-15.3z"/>
	<g id="Layer" style="opacity: .1">
		<path id="Layer" class="s5" d="m74.7 247.9c-7.1 3.7-12.6 10-16.5 17-4 7-6.5 14.7-9 22.4l-2.2 39.3c8.3-14.1 15-30.7 16.8-47l-5.6-0.5c3.7-0.5 6.9-3.2 8.8-6.4 2-3.2 3-6.8 4-10.5l-6.7 1c5.3-3.6 9-9.1 10.4-15.3z"/>
	</g>
	<path id="Layer" class="s4" d="m45.7 335.8c0 0-18-21.5-17.8-42.1h7.3c0 0-7.9-5.2-7.3-8.1 0.7-2.9 0.9-14 0.9-14l6.6 1.7c0 0-5-2.5-5.6-6.4-0.6-4 1.5-22.3 1.5-22.3 0 0 8.1 8.5 10.6 17.3 2.5 8.7 9 18.9 7.1 45.5-1.9 26.6-3.3 28.4-3.3 28.4z"/>
	<path id="Layer" class="s4" d="m54.9 337.9c0 0 19.5-13 23.8-29.6l-5.8-1.6c0 0 7.5-2.5 7.6-4.9 0.1-2.5 2.4-11.4 2.4-11.4l-5.7-0.1c0 0 4.5-1 5.9-4 1.4-3 3.7-18.2 3.7-18.2 0 0-8.4 5.1-12.3 11.6-3.9 6.4-11.4 13.2-15.7 35-4.3 21.8-3.9 23.2-3.9 23.2z"/>
	<path id="Layer" class="s3" d="m36.2 263.4q0 0.1 0.1 0.2c0 0.2 0.1 0.4 0.1 0.7q0.2 0.9 0.6 2.6c0.5 2.2 1.2 5.4 2 9.4 1.6 8 3.4 19.1 4.8 31.5 1.4 12.3 2.2 23.6 2.5 31.7 0.2 4.1 0.3 7.4 0.3 9.6 0 1.1 0 2 0 2.7q0 0.4 0 0.6c0 0.2 0 0.3 0 0.3q0 0 0-0.3c0-0.1 0-0.4 0-0.6 0-0.7-0.1-1.6-0.1-2.7-0.1-2.2-0.2-5.5-0.5-9.6-0.4-8.1-1.2-19.3-2.6-31.7-1.5-12.3-3.4-23.4-4.8-31.4-0.7-4-1.3-7.3-1.8-9.5q-0.3-1.6-0.5-2.6c0-0.2-0.1-0.5-0.1-0.7q0-0.1 0-0.2z"/>
	<path id="Layer" class="s4" d="m43.3 349.1c0-0.1-16.5-18.8-21.7-30.1l3.9-1.6c-1.4 0.2-2.8 0-4.2-0.4-1.3-0.5-2.6-1.2-3.6-2.2-2.1-1.9-3.9-4.1-5.4-6.6l5.1-0.8c-4.7-1.4-8.6-4.5-11.1-8.7 6 1 11.4 4.3 15.9 8.5q5.4 5.1 9.7 11.1 2.1 2.9 3.7 6.2c2.8 5.7 7.7 17.7 7.7 24.5z"/>
	<path id="Layer" class="s3" d="m79 279q-0.1 0.4-0.3 0.7l-1 2.1c-0.9 1.8-2.1 4.4-3.7 7.7-3 6.5-7 15.5-10.9 25.7-3.9 10.2-7.1 19.6-9.2 26.4-1.1 3.4-1.9 6.2-2.5 8.1l-0.7 2.2q0 0.4-0.2 0.8 0-0.4 0.2-0.8 0.2-0.8 0.5-2.2c0.5-2 1.3-4.8 2.3-8.2 2-6.9 5.2-16.3 9.1-26.5 4-10.2 8-19.2 11.1-25.7 1.6-3.2 2.9-5.8 3.8-7.6q0.7-1.3 1.1-2 0.1-0.4 0.4-0.7z"/>
	<path id="Layer" class="s3" d="m44.6 357.1q-0.2-0.7-0.2-1.4c-0.2-0.8-0.4-2.1-0.7-3.6q-1.2-6-3.4-11.7-2.1-5.7-5.2-11c-0.7-1.3-1.4-2.4-1.9-3.1q-0.4-0.6-0.6-1.2 0.4 0.5 0.8 1c0.5 0.7 1.2 1.8 2.1 3.1q3.2 5.3 5.3 11 2.2 5.8 3.3 11.8c0.2 1.5 0.4 2.8 0.5 3.7q0.1 0.7 0 1.4z"/>
	<path id="Layer" class="s6" d="m66.4 352.7h-36.1v7.3h36.1z"/>
	<path id="Layer" class="s6" d="m33.8 360l3.9 24.8h21.8l3.6-24.8z"/>
	<path id="Layer" class="s3" d="m64.2 360c0 0.1-6.8 0.3-15.3 0.3-8.4 0-15.2-0.2-15.2-0.3 0-0.1 6.8-0.3 15.2-0.3 8.5 0 15.3 0.2 15.3 0.3z"/>
	<path id="Layer" class="s3" d="m539.2 326.3q-0.4-3.4-1.4-6.7c-0.7-2.2-1.8-4.3-3.2-6.1-0.7-1-1.6-1.9-2.7-2.5-1.1-0.5-2.3-0.9-3.5-0.9-1.3 0-2.5 0.3-3.6 0.9-1 0.6-2 1.4-2.7 2.5-1.4 1.8-2.5 3.8-3.2 6q-1 3.3-1.4 6.7 0-0.3 0-0.5c0-0.3 0-0.8 0.1-1.4q0.3-2.5 1-4.9c0.7-2.3 1.8-4.4 3.2-6.3 0.8-1 1.8-1.9 2.9-2.5 1.1-0.6 2.4-0.9 3.6-1 1.3 0.1 2.6 0.4 3.7 1 1.1 0.7 2.1 1.5 2.8 2.5 1.5 1.9 2.6 4.1 3.2 6.4q0.8 2.4 1 4.9 0.1 0.7 0.1 1.4 0.1 0.2 0.1 0.5z"/>
	<path id="Layer" class="s3" d="m542.9 326.3q-0.4-3.4-1.4-6.7c-0.7-2.2-1.7-4.3-3.2-6.1-0.6-1-1.6-1.9-2.6-2.5-1.1-0.5-2.3-0.9-3.6-0.9-1.2 0-2.4 0.3-3.5 0.9-1.1 0.6-2 1.4-2.7 2.5-1.4 1.8-2.5 3.8-3.2 6q-1 3.3-1.4 6.7-0.1-0.3 0-0.5c0-0.3 0-0.8 0.1-1.4q0.2-2.5 1-4.9c0.6-2.3 1.7-4.4 3.2-6.3 0.7-1 1.7-1.9 2.8-2.5 1.2-0.6 2.4-0.9 3.7-1 1.3 0.1 2.5 0.4 3.6 1 1.1 0.7 2.1 1.5 2.9 2.5 1.4 1.9 2.5 4.1 3.2 6.4q0.7 2.4 1 4.9 0 0.9 0.1 1.4 0 0.2 0 0.5z"/>
	<path id="Layer" class="s6" d="m505 323.4l42.2-0.4 0.9 60h-47.4z"/>
	<path id="Layer" class="s6" d="m547.2 323h5.3l4.5 60h-8.9z"/>
	<path id="Layer" class="s7" d="m540 343.4h-27.6v6.1h27.6z"/>
	<g id="Layer" style="opacity: .3">
		<path id="Layer" class="s5" d="m547.2 323h5.3l4.5 60h-8.9z"/>
	</g>
	<path id="Layer" class="s3" d="m500.7 383c-0.1 0 0.5-10.4 1.3-23.1 0.9-12.8 1.7-23.2 1.9-23.1 0.1 0-0.5 10.3-1.4 23.1-0.8 12.8-1.6 23.1-1.8 23.1z"/>
	<path id="Layer" class="s4" d="m525.7 44.9h-379.3c-1.5 0-3 0.3-4.5 0.9-1.4 0.6-2.7 1.5-3.8 2.6-1.1 1.1-2 2.4-2.6 3.8-0.6 1.5-0.9 3-0.9 4.6v267.8c0 3.2 1.3 6.2 3.5 8.4 2.2 2.2 5.2 3.5 8.3 3.5h145.6l-7.1 46.8h105.6l-5.9-46.8h141.1c3.1 0 6.1-1.3 8.4-3.5 2.2-2.2 3.4-5.2 3.4-8.4v-267.8c0-1.6-0.3-3.1-0.9-4.6-0.6-1.4-1.4-2.7-2.5-3.8-1.1-1.1-2.5-2-3.9-2.6-1.4-0.6-3-0.9-4.5-0.9z"/>
	<path id="Layer" class="s3" d="m341.1 308.3c5.2 7.4-2.9 15.4-10.3 10.3q-0.3-0.3-0.6-0.7c-5.1-7.3 2.9-15.4 10.3-10.2q0.4 0.2 0.6 0.6z"/>
	<path id="Layer" class="s3" d="m154.9 55.2h362.4c1.2 0 2.5 0.2 3.7 0.7 1.1 0.5 2.2 1.2 3.1 2.1 0.9 0.9 1.6 2 2.1 3.1 0.5 1.2 0.8 2.5 0.8 3.8v222.6h-381.8v-222.6c0-2.6 1-5.1 2.9-6.9 1.8-1.8 4.2-2.8 6.8-2.8z"/>
	<path id="Layer" class="s3" d="m423.7 336.5c0 0.1-31.8 0.2-71 0.2-39.2 0-71-0.1-71-0.2 0-0.2 31.8-0.3 71-0.3 39.2 0 71 0.2 71 0.3z"/>
	<path id="Layer" class="s7" d="m517.1 64.8h-361.5v213.1h361.5z"/>
	<path id="Layer" class="s2" d="m517.1 64.8h-361.5v17.7h361.5z"/>
	<path id="Layer" class="s7" d="m169.6 74c0 0.5-0.1 1-0.4 1.4-0.2 0.5-0.6 0.8-1.1 1-0.5 0.2-1 0.3-1.5 0.2-0.5-0.1-0.9-0.3-1.3-0.7-0.3-0.3-0.6-0.8-0.7-1.3-0.1-0.5-0.1-1 0.1-1.5 0.2-0.4 0.5-0.8 1-1.1 0.4-0.3 0.9-0.5 1.4-0.5q0.5 0 0.9 0.2 0.5 0.2 0.9 0.5 0.3 0.4 0.5 0.8 0.2 0.5 0.2 1z"/>
	<path id="Layer" class="s7" d="m177.2 74c0 0.5-0.1 1-0.4 1.4-0.3 0.5-0.7 0.8-1.1 1-0.5 0.2-1 0.3-1.5 0.2-0.5-0.1-1-0.3-1.3-0.7-0.4-0.3-0.6-0.8-0.7-1.3-0.1-0.5-0.1-1 0.1-1.5 0.2-0.4 0.5-0.8 0.9-1.1 0.5-0.3 0.9-0.5 1.5-0.5q0.4 0 0.9 0.2 0.5 0.2 0.8 0.5 0.4 0.4 0.6 0.8 0.2 0.5 0.2 1z"/>
	<path id="Layer" class="s7" d="m184.4 74c0 0.5-0.1 1-0.4 1.4-0.3 0.5-0.7 0.8-1.1 1-0.5 0.2-1 0.3-1.5 0.2-0.5-0.1-1-0.3-1.3-0.7-0.4-0.3-0.6-0.8-0.7-1.3-0.1-0.5-0.1-1 0.1-1.5 0.2-0.4 0.5-0.8 0.9-1.1 0.4-0.3 0.9-0.5 1.4-0.5q0.5 0 1 0.2 0.5 0.2 0.8 0.5 0.4 0.4 0.6 0.8 0.2 0.5 0.2 1z"/>
	<path id="Layer" class="s2" d="m517.1 108.8h-361.6v76.2h361.6z"/>
	<path id="Layer" class="s6" d="m205.7 92.8h-35.4v9h35.4z"/>
	<path id="Layer" class="s2" d="m453.3 90.8h-25.6v9h25.6z"/>
	<path id="Layer" class="s2" d="m411.5 90.5h-25.6v9h25.6z"/>
	<path id="Layer" class="s6" d="m322.8 174.4c0 0.7-0.1 1.3-0.5 1.8-0.3 0.6-0.8 1-1.4 1.3-0.6 0.2-1.2 0.3-1.9 0.2-0.6-0.1-1.2-0.4-1.6-0.9-0.5-0.4-0.8-1-0.9-1.6-0.2-0.6-0.1-1.3 0.1-1.9 0.3-0.6 0.7-1.1 1.2-1.4 0.5-0.4 1.2-0.6 1.8-0.6q0.6 0 1.2 0.2 0.6 0.3 1.1 0.7 0.4 0.4 0.7 1 0.2 0.6 0.2 1.2z"/>
	<path id="Layer" class="s7" d="m335.6 174.4c0 0.7-0.1 1.3-0.5 1.8-0.3 0.6-0.8 1-1.4 1.3-0.6 0.2-1.2 0.3-1.9 0.2-0.6-0.1-1.2-0.4-1.6-0.9-0.5-0.4-0.8-1-0.9-1.6-0.2-0.6-0.1-1.3 0.1-1.9 0.3-0.6 0.7-1.1 1.2-1.4 0.5-0.4 1.2-0.6 1.8-0.6q0.6 0 1.2 0.2 0.6 0.3 1.1 0.7 0.4 0.4 0.7 1 0.2 0.6 0.2 1.2z"/>
	<path id="Layer" class="s7" d="m347.8 174.4c0.1 0.7-0.1 1.3-0.4 1.8-0.4 0.6-0.9 1-1.5 1.3-0.6 0.2-1.2 0.3-1.8 0.2-0.7-0.1-1.3-0.4-1.7-0.9-0.5-0.4-0.8-1-0.9-1.6-0.2-0.6-0.1-1.3 0.1-1.9 0.3-0.6 0.7-1.1 1.2-1.4 0.6-0.4 1.2-0.6 1.8-0.6q0.7 0 1.2 0.2 0.6 0.3 1.1 0.7 0.4 0.4 0.7 1 0.2 0.6 0.2 1.2z"/>
	<path id="Layer" class="s7" d="m280.4 165.2h-94.6v9.5h94.6z"/>
	<path id="Layer" class="s2" d="m248.1 198.9h-54.6v47.7h54.6z"/>
	<path id="Layer" class="s2" d="m357.3 198h-46.1v46.1h46.1z"/>
	<path id="Layer" class="s2" d="m465.9 196.6h-49v48.9h49z"/>
	<path id="Layer" fill-rule="evenodd" class="s3" d="m228.4 220.4c-1.1 0-2.2-0.4-3-1.1-0.9-0.6-1.5-1.5-1.8-2.6l-1.8-6.7 10.6-2.9 1.8 6.7c0.3 1.3 0.2 2.7-0.5 3.8-0.6 1.2-1.7 2-3 2.3l-1 0.3q-0.6 0.2-1.3 0.2zm-6.6-10.4l1.8 6.7c0.4 1.3 1.2 2.3 2.3 3 1.2 0.6 2.5 0.8 3.7 0.5l1.1-0.3c1.2-0.4 2.3-1.2 3-2.3 0.6-1.1 0.8-2.5 0.4-3.7l-1.8-6.7z"/>
	<path id="Layer" class="s2" d="m245.4 256.5h-47.7v6.4h47.7z"/>
	<path id="Layer" class="s2" d="m357 256.5h-47.6v6.4h47.6z"/>
	<path id="Layer" class="s2" d="m466.3 256.7h-45.3v6h45.3z"/>
	<path id="Layer" class="s6" d="m502.7 85.3h-27.2c-2.1 0-3.8 1.7-3.8 3.9v27.2c0 2.1 1.7 3.8 3.8 3.8h27.2c2.1 0 3.9-1.7 3.9-3.8v-27.2c0-2.2-1.8-3.9-3.9-3.9z"/>
	<path id="Layer" fill-rule="evenodd" class="s7" d="m478 112h15v1c0 0.5-0.4 1-1 1h-13c-0.6 0-1-0.5-1-1zm15-6h-15c0-4 3.8-6 7.5-6 3.8 0 7.5 2 7.5 6zm-2.6-2c-1.1-1.5-3.5-2-4.9-2-1.4 0-3.8 0.5-4.9 2zm-12.4 4h15v2h-15zm22-12l-1.6 16.5c-0.1 0.8-0.8 1.5-1.6 1.5h-1.8v-2h1.4l1.4-14h-9.5l-0.3-2h5v-4h2v4z"/>
	<g id="Clip-Path" clip-path="url(#cp1)">
		<g id="Layer">
			<path id="Layer" fill-rule="evenodd" class="s7" d="m388.6 181.5l43.6-13.4 0.9 2.9c0.5 1.5-0.4 3.3-2 3.8l-37.8 11.6c-1.6 0.5-3.3-0.4-3.8-2zm38.2-30.9l-43.6 13.5c-3.6-11.6 5.5-20.8 16.4-24.2 10.9-3.3 23.6-0.9 27.2 10.7zm-9.4-3.4c-4.6-3.5-11.9-2.7-16-1.5-4.1 1.3-10.5 4.7-12.4 10.2zm-32.4 22.8l43.6-13.5 1.8 5.8-43.6 13.5zm53.2-54.6l10 49.5c0.5 2.5-0.9 5-3.4 5.7l-5 1.6-1.8-5.9 4.1-1.2-8.5-41.9-27.8 8.5-2.5-5.6 14.6-4.5-3.6-11.6 5.8-1.8 3.6 11.6z"/>
		</g>
	</g>
	<path id="Layer" class="s4" d="m412.9 431.7l16.6 8.9c0 0-5 21.2-1.9 23.5l21.4-32.1-2.4-1.5-8.9-4-16.9-8.4z"/>
	<path id="Layer" class="s2" d="m433.5 429.3c0.3-0.2 0.7-0.4 1.1-0.3 0.4 0 0.7 0.1 1 0.4 0.3 0.3 0.4 0.7 0.4 1.1 0 0.4-0.2 0.8-0.4 1-0.4 0.3-0.8 0.4-1.2 0.4-0.4 0-0.8-0.2-1.1-0.5-0.3-0.3-0.4-0.7-0.3-1.1 0.1-0.4 0.3-0.8 0.6-1.1"/>
	<path id="Layer" class="s3" d="m449 432l-2.4-1.5-19.9 31.2c0 0-0.3 1.9 0.9 2.4z"/>
	<path id="Layer" class="s3" d="m429 441c0.2 0.1 0.8-0.7 1.8-1.1 1.1-0.5 2-0.4 2-0.6 0-0.2-1-0.6-2.3 0-1.2 0.6-1.7 1.7-1.5 1.7z"/>
	<path id="Layer" class="s3" d="m428.1 445.4c0.1 0.2 0.9-0.3 1.9-0.4 1-0.1 1.9 0.2 2 0 0.1-0.2-0.7-0.9-2-0.7-1.3 0.1-2 1-1.9 1.1z"/>
	<path id="Layer" class="s3" d="m430.9 450.1c0.2-0.1-0.5-0.9-1.6-1-1.2-0.2-2 0.3-2 0.5 0.1 0.1 0.9 0 1.9 0.1 0.9 0.2 1.6 0.6 1.7 0.4z"/>
	<path id="Layer" class="s3" d="m424.4 439.7c0.2 0 0.5-0.9 1.2-1.8 0.6-0.8 1.4-1.3 1.3-1.5-0.1-0.2-1.1 0.1-1.9 1.2-0.7 1-0.7 2.1-0.6 2.1z"/>
	<path id="Layer" class="s4" d="m387.3 413.2l-20.8 12.6-19.2 5.3c-2 0.5-3 1.4-3 2.6 0 0.5 0.2 1 0.6 1.4 0.3 0.4 0.8 0.6 1.3 0.7l28.8 5.5q0.4 0 0.7-0.2c3-1.9 18.8-11.5 18.8-11.5z"/>
	<path id="Layer" class="s3" d="m375.6 423.9q0.3-0.4 0.8-0.5 1.2-0.5 2.4-0.6c0.6-0.1 1.3 0.1 1.8 0.4q0.3 0.2 0.4 0.5 0.1 0.3 0 0.6c-0.2 0.3-0.4 0.7-0.8 0.8-0.7 0.4-1.5 0.5-2.3 0.3-0.8-0.2-1.5-0.6-2-1.3-0.5-0.6-0.8-1.4-0.8-2.2 0-0.8 0.2-1.6 0.6-2.3q0.2-0.3 0.4-0.4 0.3-0.2 0.6-0.2 0.3-0.1 0.6 0.1 0.3 0.2 0.4 0.5 0.3 0.9 0.1 1.8-0.2 1.2-0.8 2.4-0.2 0.4-0.5 0.7 0.7-1.5 1-3.1 0.1-0.8-0.2-1.6 0-0.2-0.2-0.3-0.1-0.1-0.3-0.1-0.2 0.1-0.3 0.2-0.2 0.1-0.3 0.3c-0.3 0.6-0.5 1.3-0.5 2 0.1 0.7 0.3 1.4 0.7 1.9 0.4 0.6 1 1 1.7 1.1 0.6 0.2 1.3 0.1 2-0.1q0.4-0.2 0.5-0.6 0.1-0.2 0-0.4 0-0.1-0.2-0.2c-0.4-0.3-0.9-0.4-1.5-0.4q-1.7 0-3.3 0.7z"/>
	<path id="Layer" class="s3" d="m344.3 433.7l32.7 6.6-1.2 0.7c-0.5 0.3-1.2 0.4-1.8 0.3l-28.2-5.6q-0.5-0.1-0.9-0.5-0.4-0.3-0.5-0.8z"/>
	<path id="Layer" class="s3" d="m367.9 429.8c-0.1 0-0.3-0.9-0.7-2-0.5-1-1-1.8-0.9-1.9 0-0.1 0.9 0.5 1.4 1.7q0.2 0.5 0.3 1.1 0.1 0.6-0.1 1.1z"/>
	<path id="Layer" class="s3" d="m363 431c-0.1 0-0.2-0.9-0.6-1.9-0.4-1-0.9-1.7-0.8-1.8 0-0.1 0.9 0.5 1.3 1.6 0.4 1.1 0.3 2.1 0.1 2.1z"/>
	<path id="Layer" class="s3" d="m358.9 432.1c-0.2 0-0.3-0.9-0.6-1.9-0.3-1-0.8-1.8-0.7-1.9 0.1-0.1 0.8 0.6 1.2 1.7 0.4 1.2 0.2 2.1 0.1 2.1z"/>
	<path id="Layer" class="s3" d="m370.4 425.5c0 0 0.2-0.3 0.7-0.5 0.7-0.4 1.6-0.5 2.4-0.3h0.2v0.2q-0.1 0.4-0.5 0.7-0.3 0.3-0.8 0.3c-0.6 0.1-1.1 0.1-1.7 0.2-0.4 0-0.6 0-1 0q-0.3 0-0.6-0.1-0.3-0.1-0.5-0.3-0.4-0.5-0.5-1c-0.3-1.1-0.4-2.2-0.3-3.2q0.1-0.6 0.2-1.1 0.2-0.3 0.4-0.5 0.2-0.1 0.4-0.1 0.1 0 0.3 0.1 0.3 0 0.5 0.2 0.2 0.3 0.3 0.5 0.1 0.5 0.2 0.9 0.1 0.8 0.1 1.6-0.2 1.2-0.7 2.2-0.2 0.4-0.5 0.7 0.7-1.4 0.8-2.9 0-0.8-0.1-1.5c-0.2-0.5-0.3-1.2-0.7-1.3-0.5-0.1-0.6 0.6-0.7 1.2q-0.1 1 0.1 2 0.1 1 0.6 1.8c0.3 0.4 1 0.3 1.6 0.2 0.6 0 1.2 0 1.7-0.1 0.5-0.1 0.9-0.3 1-0.6l0.1 0.2c-0.7-0.2-1.5-0.2-2.2 0.1-0.6 0.3-0.8 0.4-0.8 0.4z"/>
	<path id="Layer" class="s7" d="m376.4 431.2q-0.1-0.4-0.4-0.6-0.2-0.1-0.4-0.1-0.2 0-0.4 0.1h-0.1q-0.3 0.1-0.6 0.4-0.2 0.3-0.2 0.7-0.1 0.3 0.1 0.7 0.1 0.3 0.4 0.5 0.3 0.2 0.7 0.2 0.4 0 0.7-0.3 0.3-0.3 0.4-0.8 0-0.4-0.2-0.8z"/>
	<path id="Layer" class="s3" d="m409.6 395.2c0 0-49.1-29.3-61-15.4-11.8 13.9 9 28.8 13.1 31.7 4.1 2.8 50.4 22.5 50.4 22.5l8.5-16.3z"/>
	<path id="Layer" class="s3" d="m371.5 419.2c0 0 60.6-32.6 67.3-35.8 5.7-2.8 21.8-11.4 27 5.7 5.2 17.2-26 38.3-26 38.3l-12.9-6.7-17.9 8.4-22.2 10.7z"/>
	<path id="Layer" class="s3" d="m420.8 438.5c-0.6-0.4-24.2-11.6-24.2-11.6l24.7-10.5 14 8.3z"/>
	<path id="Layer" class="s4" d="m442.8 413.2l-0.3 0.2-0.8 0.4-3.1 1.5-11.6 5.6-40.1 19-0.2 0.1-0.1-0.2-12.7-17-2.6-3.4-0.2-0.3 0.3-0.1c19.3-10.5 36.7-19.9 49.4-26.3 6.3-3.2 11.5-5.7 15-7.3 1.8-0.9 3.2-1.5 4.2-1.9l1-0.5 0.4-0.1-0.4 0.2-1 0.5-4.1 2c-3.6 1.7-8.7 4.3-15 7.5-12.7 6.5-30 15.9-49.3 26.4l0.1-0.4c0.8 1.1 1.7 2.3 2.6 3.5l12.7 17-0.4-0.1 40.2-18.9 11.7-5.5 3.2-1.4 0.8-0.4z"/>
	<path id="Layer" class="s4" d="m371.9 385.4q0.7 0.2 1.4 0.4c0.8 0.3 2 0.8 3.6 1.4 3 1.3 7 3.2 11.4 5.6 4.4 2.3 8.3 4.6 11 6.3 1.4 0.9 2.5 1.6 3.3 2.1q0.6 0.4 1.1 0.9-0.6-0.3-1.2-0.7l-3.4-2c-2.8-1.6-6.7-3.8-11-6.2-4.4-2.4-8.4-4.3-11.4-5.7-1.5-0.6-2.7-1.1-3.5-1.5q-0.7-0.2-1.3-0.6z"/>
	<path id="Layer" class="s4" d="m420.8 438.5q0.3-0.5 0.7-0.9l2.2-2.2c1.8-1.8 4.4-4.3 7.3-7 1.5-1.3 2.9-2.6 4.2-3.8v0.4c-2.2-1.4-4.1-2.5-5.4-3.3q-1.1-0.6-2-1.4 1.1 0.5 2.2 1.1c1.3 0.8 3.2 1.8 5.4 3.2l0.3 0.1-0.2 0.2-4.1 3.9c-2.9 2.8-5.6 5.2-7.5 6.9l-2.3 2.1q-0.4 0.4-0.9 0.7z"/>
	<path id="Layer" class="s6" d="m417.9 315.7c0.5 0 17.9 0.9 21.2 4.6 3.3 3.7 10.7 60.1 10.7 60.1-3.8 0.5-8.2 2.5-10.5 3.5l-29.4 14.7-15-9.5q-0.7-0.3-1-0.9-0.4-0.7-0.5-1.4-0.1-0.7 0.1-1.4 0.2-0.7 0.7-1.2l-13.2-62.4c2.5-1.9 5.3-3.4 8.3-4.3 5.2-1.5 28.6-1.8 28.6-1.8z"/>
	<path id="Layer" class="s6" d="m386.7 319.6c0 0-5.3 0.8-7.5 4-5.2 7.3-21.2 33.4-24 39.7-3 6.7-1.2 11.3 1.2 13.7 3.6 3.5 12.8 3.8 18.1-1.2 2.3-2.2 14.8-12.3 14.8-12.3z"/>
	<path id="Layer" class="s3" d="m380.1 329.2q0.1 0.3 0.2 0.6l0.6 1.5c0.4 1.3 1 3.3 1.8 5.7 1.4 4.9 3.1 11.6 4.9 19.1 1.8 7.5 3.3 14.3 4.5 19.3 0.5 2.5 1 4.4 1.4 5.8q0.2 1 0.4 1.6 0 0.3 0.2 0.5c0 0 0-0.2-0.1-0.5-0.1-0.4-0.3-1-0.4-1.6-0.3-1.4-0.8-3.4-1.3-5.9-1.1-4.9-2.6-11.7-4.4-19.2-1.7-7.5-3.5-14.3-5-19.2-0.7-2.4-1.4-4.3-1.9-5.6q-0.4-1-0.6-1.5-0.1-0.3-0.3-0.6z"/>
	<path id="Layer" class="s6" d="m432.6 317.5c0 0 4.2-0.1 9 4.5 2 1.9 25 35.8 27.1 45.2 1.2 5.4-5.3 16.2-11.6 15.2-8.3-1.1-38.8-15-38.8-15l7.9-14.8 17.4 3.9-12-13.6-0.3-25.2"/>
	<path id="Layer" class="s3" d="m361.7 360.5q0.2-0.1 0.4-0.2l0.9-0.6 3.2-2c2.8-1.8 6.5-4.2 10.7-7l2.8-1.8h-0.3c2.4 3.4 4.4 6.4 6 8.6q1.2 1.7 2.6 3.3l-2.4-3.5c-1.5-2.2-3.5-5.2-5.8-8.6l-0.2-0.2-0.1 0.1-2.8 1.8c-4.1 2.8-7.9 5.2-10.6 7l-3.2 2.2-0.8 0.6q-0.2 0.1-0.4 0.3z"/>
	<path id="Layer" class="s8" d="m412.1 346.4l13.6 7.1-6.3 11.8-8.4-6.2z"/>
	<path id="Layer" class="s2" d="m398.8 346.9l-9-6.9c-0.3-0.2-0.7-0.4-1.1-0.4l-12.3 0.4q-0.4 0-0.6 0.2-0.3 0.3-0.3 0.7-0.1 0.3 0.1 0.7 0.1 0.3 0.3 0.6l19.1 15 14.9-1.5z"/>
	<path id="Layer" class="s8" d="m412.1 346.4c0 0.1-4.9-3.9-6-4.3-1.2-0.3-6.5-0.5-6.5-0.5l-4.7 2.3 2.7 2c0.9 0 1.8-0.4 2.5-1l3.1 0.4z"/>
	<path id="Layer" class="s8" d="m406.5 344.5l-8.1 2.3-11.6 1c-0.1 0.6 0.1 1.2 0.5 1.7 0.4 0.5 1 0.9 1.6 1 1.4 0.2 3.8 0.5 3.8 0.5q0.2 0.9 0.8 1.6 0.6 0.8 1.4 1.1c0.4 0.9 0.9 1.6 1.6 2.2q0.2 0.1 0.4 0.1c1 0.4 3.1 3.5 4.5 4 1.5 0.5 9.6-0.9 9.6-0.9l1.1-12.6z"/>
	<path id="Layer" class="s9" d="m403.8 350.9c0 0-0.7 0.1-1.7 0.2q-2 0.3-4 0.3-2 0-4.1-0.2c-1-0.2-1.6-0.3-1.6-0.3q0.2 0.1 0.4 0.2 0.4 0.1 1.2 0.2c2.7 0.5 5.5 0.4 8.1 0q0.7-0.1 1.3-0.3 0.2 0 0.4-0.1z"/>
	<path id="Layer" class="s9" d="m402 354.1q-0.1 0.4 0 0.8 0.1 0.4 0.4 0.7 0.2 0.2 0.5 0.4 0.2 0.1 0.5 0 0.6 0 1.1-0.2 0.4-0.2 0.7-0.4c0.5-0.2 0.7-0.3 0.7-0.3q-0.4 0-0.7 0.2-0.9 0.4-1.8 0.5c-0.3 0-0.6-0.1-0.8-0.3q-0.3-0.3-0.4-0.7-0.1-0.4-0.2-0.7z"/>
	<path id="Layer" class="s9" d="m396.1 354.5q0.4 0.2 0.8 0.3 1.1 0.2 2.2 0.4 1.1 0.1 2.1 0.1 0.5 0.1 0.9 0c0-0.1-1.3-0.2-3-0.4-1.6-0.2-3-0.5-3-0.4z"/>
	<path id="Layer" class="s9" d="m401.9 358.2c0.4 0.3 0.8 0.5 1.3 0.6 0.5 0.2 1 0.1 1.5-0.1 0 0-0.7 0-1.4-0.1-0.8-0.1-1.3-0.5-1.4-0.4z"/>
	<path id="Layer" class="s9" d="m399.1 357.9c0 0 0.3 0.1 0.8 0.2q0.5 0.2 0.9 0.1-0.4-0.2-0.8-0.3-0.5-0.1-0.9 0z"/>
	<path id="Layer" class="s9" d="m398.4 346.8q1.9-0.4 3.8-1c1-0.4 2-0.7 2.6-0.9q0.5-0.2 1.1-0.5-0.6 0.1-1.2 0.3l-2.6 0.9-2.7 0.8q-0.5 0.2-1 0.4z"/>
	<path id="Layer" class="s8" d="m386.5 349c0 0 0.9-0.3 0-1.7-0.9-1.5-3.7 0.1-3.7 0.1l-3.5 1.8c0 0-0.9 1.7 0.1 2.3l0.6 0.9c0 0-1.4 1.2-0.9 2.5q0.2 0.5 0.7 0.8 0.5 0.3 1.1 0.3c0 0-0.3 2.4 0.4 3.3 0.3 0.5 0.8 0.9 1.4 1.1q0.3 1 1.1 1.7 0.7 0.7 1.7 1c2.3 0.8 3.5 0.9 4.1-0.1q0.7-1 1.2-2.1c0 0 5-2.3 5.2-3.6 0.2-1.3 0-1.4 0-1.4q0.2-0.5 0.2-1 0-0.4-0.2-0.9c-0.4-0.8-2.4-0.2-2.4-0.2l-6.4 1.1c0 0 5.2-2.1 5.8-2.8 0.7-0.8 0.1-1.7-2-1.6-2 0.1-8.1 0.9-8.1 0.9q0.2-0.5 0.7-0.8c0.4-0.1 1.7-0.8 1.7-0.8z"/>
	<path id="Layer" class="s9" d="m384.4 358.4c0 0 2.6-0.5 5.8-1.1 3.1-0.7 5.7-1.3 5.7-1.4 0 0-2.6 0.5-5.8 1.2-3.1 0.6-5.7 1.2-5.7 1.3z"/>
	<path id="Layer" class="s9" d="m387.2 362q1-0.1 1.9-0.4c0.5-0.1 1-0.2 1.3-0.4q0.1 0 0.3-0.1 0.1-0.1 0.1-0.1c0-0.1 0 0 0 0 0 0-0.8 0.2-1.8 0.5q-0.9 0.1-1.8 0.5z"/>
	<path id="Layer" class="s9" d="m382.2 355.5q1.4-0.1 2.8-0.3c1.5-0.2 2.8-0.2 2.8-0.3q-1.5-0.1-2.8 0.1-1.5 0.1-2.8 0.5z"/>
	<path id="Layer" class="s9" d="m380.9 352.2c0 0 0.5-0.3 1.2-0.5 0.7-0.2 1.3-0.3 1.3-0.3-0.4-0.1-0.9-0.1-1.3 0.1q-0.7 0.1-1.2 0.7z"/>
	<path id="Layer" class="s3" d="m376 341.1h0.2 0.7l2.4-0.2c2-0.1 4.9-0.2 8-0.1 0.8 0 1.5 0.1 2.2 0.4q0.4 0.3 0.8 0.6l0.8 0.7q1.6 1.3 2.8 2.2l2 1.5 0.5 0.4q0.2 0.2 0.2 0.1-0.1 0-0.2-0.1l-0.5-0.5-1.8-1.5-2.8-2.3-0.8-0.6q-0.4-0.4-0.9-0.7-0.5-0.3-1.1-0.3c-0.4 0-0.8-0.1-1.2-0.1q-4-0.1-8 0.1c-1 0.1-1.8 0.2-2.4 0.3l-0.7 0.1z"/>
	<path id="Layer" class="s7" d="m383.6 342.6q0.1-0.1 0.3-0.2 0.2 0 0.3 0h0.1q0.3 0.1 0.5 0.3 0.1 0.1 0.1 0.3 0 0.2-0.1 0.3-0.2 0.2-0.4 0.2-0.2 0-0.3-0.1-0.2 0-0.4-0.1-0.1-0.2-0.1-0.4-0.1-0.1 0-0.3z"/>
	<path id="Layer" class="s3" d="m441.8 377.6q-0.2-0.1-0.4-0.2l-1.3-0.6-4.9-2.1-16.9-7.4 0.1 0.3c1.6-3 3.4-6.4 5.2-9.8l2.7-5-0.2 0.1 17.1 3.6c3.1 1.1 6.1 2.6 8.7 4.4 1 0.7 1.7 1.3 2.2 1.6l0.5 0.5q0.2 0.1 0.2 0.1l-0.1-0.1-0.6-0.5c-0.4-0.4-1.1-1-2.1-1.7-2.6-1.9-5.6-3.5-8.7-4.6l-17.1-3.7h-0.1l-0.1 0.1-2.7 5-5.2 9.8v0.2h0.1l17 7.3 4.9 2 1.3 0.6z"/>
	<path id="Layer" class="s3" d="m433.3 345.3q0.6 0.9 1.3 1.8c0.9 1.1 2.1 2.6 3.5 4.2 1.4 1.6 2.6 3 3.6 4q0.6 0.6 1.2 1.1c0.2 0.1 0.3 0.2 0.5 0.2q0 0 0-0.1 0 0 0-0.1c0 0 0 0.1 0 0.1q-0.2 0-0.3-0.2-0.4-0.4-1.1-1.2c-0.9-1-2.2-2.4-3.6-4.1l-3.5-4.1q-0.7-0.9-1.6-1.6z"/>
	<path id="Layer" class="s3" d="m430.4 338.1c0.1 0-0.1-1.1 0-2.9q0.1-1.5 0.4-3.1c0.6-2.5 1.7-4.8 3.2-6.9q0.9-1.3 2-2.4c1.3-1.2 2.2-1.9 2.2-1.9q-0.4 0.2-0.7 0.4-0.4 0.2-0.7 0.5c-0.3 0.3-0.7 0.5-1 0.8q-1.2 1.1-2.1 2.4-1.2 1.6-2 3.4-0.8 1.8-1.2 3.7-0.4 1.5-0.4 3.1 0 0.6 0 1.2 0 0.5 0.1 1 0 0.4 0.2 0.7z"/>
	<path id="Layer" class="s3" d="m409.3 389.7c0 0-0.9 0-2.3-0.1q-2.8-0.2-5.4-1.2-2.7-0.9-5-2.5c-1.2-0.8-1.8-1.4-1.9-1.4 0 0.1 0.2 0.2 0.5 0.5q0.6 0.6 1.3 1.1c1.5 1.1 3.2 2 5 2.7 1.7 0.6 3.6 1 5.5 1.1q0.9 0 1.7 0c0.4-0.1 0.6-0.1 0.6-0.2z"/>
	<path id="Layer" class="s3" d="m399.7 373.5q0.2 0.4 0.5 0.7 0.4 0.6 1.3 1.6c1.1 1.3 2.7 3.1 4.6 5.1 1.9 1.9 3.7 3.5 5.1 4.7q1 0.8 1.6 1.3 0.3 0.2 0.6 0.4c0 0-0.2-0.2-0.5-0.5l-1.5-1.4c-1.3-1.2-3.1-2.9-5-4.8-2-1.9-3.6-3.7-4.8-5l-1.4-1.5c-0.3-0.4-0.5-0.6-0.5-0.6z"/>
	<path id="Layer" class="s3" d="m415.8 299.2q1.1-5.4 1.3-10.9c0.2-3.7-0.6-7.3-2.3-10.6-0.2-0.5-2.3-3.7-2.9-3.6-0.4 0.1 1.1 3.2 0.9 3.6-1.3 3.5-1.5 7.4-0.6 11.1 0.8 3.6 2 7.1 3.6 10.4z"/>
	<path id="Layer" class="s8" d="m398.2 322c-0.3-2.6-0.6-4.6-0.7-4.6 0 0-8.9 0.3-10.6-8.3-0.9-4.2-1.9-12.9-2.8-20.8-0.4-4.1 0.7-8.2 3.2-11.5 2.4-3.3 6-5.6 10.1-6.3l0.8-0.2c9.1-1.2 15.2 5.9 16.1 15l4.3 31.8-1.5 2.9c-0.9 1.6-2.2 3-3.8 4.1-1.5 1-3.3 1.6-5.1 1.8-1.9 0.2-3.8 0-5.5-0.7-1.7-0.7-3.3-1.8-4.5-3.2z"/>
	<path id="Layer" class="s9" d="m397.5 317.4c4-0.7 7.7-2.6 10.6-5.4 0 0-1.5 6.8-10.3 7.7z"/>
	<path id="Layer" class="s3" d="m388.6 296.8c0.1 0.3 0.2 0.6 0.5 0.7 0.3 0.2 0.6 0.3 0.9 0.2q0.3 0 0.5-0.1 0.2-0.1 0.3-0.3 0.2-0.2 0.3-0.4 0-0.3 0-0.5c-0.1-0.3-0.3-0.6-0.5-0.8-0.3-0.2-0.6-0.3-1-0.2q-0.2 0-0.4 0.1-0.2 0.2-0.4 0.3-0.1 0.2-0.2 0.5 0 0.2 0 0.4z"/>
	<path id="Layer" class="s3" d="m386.7 291.6c0.2 0.1 1-0.8 2.3-1 1.3-0.3 2.4 0.2 2.5 0 0.1-0.2-0.1-0.4-0.6-0.6-0.7-0.3-1.4-0.4-2.1-0.2-0.7 0.1-1.3 0.5-1.8 1-0.3 0.4-0.4 0.7-0.3 0.8z"/>
	<path id="Layer" class="s3" d="m400.2 295c0.1 0.3 0.2 0.6 0.5 0.8 0.3 0.2 0.6 0.3 0.9 0.2q0.3 0 0.5-0.1 0.2-0.2 0.3-0.4 0.2-0.1 0.2-0.4 0.1-0.2 0.1-0.5c-0.1-0.3-0.3-0.6-0.5-0.7-0.3-0.2-0.6-0.3-0.9-0.3q-0.3 0.1-0.5 0.2-0.2 0.1-0.4 0.3-0.1 0.2-0.2 0.4 0 0.3 0 0.5z"/>
	<path id="Layer" class="s3" d="m399.8 289.6c0.2 0.2 1-0.7 2.3-1 1.3-0.2 2.4 0.3 2.5 0 0.1-0.2-0.1-0.3-0.6-0.5-0.7-0.3-1.4-0.4-2.1-0.3-0.7 0.2-1.3 0.5-1.8 1-0.3 0.5-0.4 0.8-0.3 0.8z"/>
	<path id="Layer" class="s3" d="m397 300.8q-1.1-0.2-2.2 0c-0.4 0-0.7 0-0.8-0.2q-0.2-0.6 0-1.1 0.2-1.3 0.5-2.8 0.8-3.5 1-7.2-1.1 3.5-1.5 7.1c-0.2 1-0.4 1.9-0.5 2.8-0.1 0.5-0.1 1 0.1 1.4q0.1 0.2 0.3 0.3 0.1 0.1 0.3 0.1 0.3 0 0.6 0 1.1-0.1 2.2-0.4z"/>
	<path id="Layer" class="s3" d="m401 300.9c-0.2 0 0 1.5-1 2.8-1 1.2-2.6 1.4-2.6 1.6 0 0.2 0.4 0.2 1 0.1 0.9-0.2 1.6-0.6 2.2-1.3 0.5-0.6 0.8-1.4 0.7-2.3 0.1-0.6-0.2-0.9-0.3-0.9z"/>
	<path id="Layer" class="s3" d="m398.8 284.2c0.2 0.4 1.5-0.1 3.1-0.2 1.6-0.1 2.9 0.1 3.1-0.2 0-0.2-0.2-0.5-0.8-0.8q-1.2-0.4-2.4-0.3-1.2 0.1-2.3 0.7c-0.5 0.3-0.8 0.7-0.7 0.8z"/>
	<path id="Layer" class="s3" d="m386.4 287.1c0.3 0.2 1.1-0.3 2.2-0.5 1.1-0.2 2.1-0.2 2.2-0.5 0.1-0.2-0.1-0.5-0.6-0.7-0.6-0.2-1.2-0.3-1.9-0.1-0.6 0.1-1.2 0.5-1.7 1-0.3 0.3-0.4 0.6-0.2 0.8z"/>
	<path id="Layer" class="s8" d="m414.8 291.9c0.2-0.1 5.6-2.9 6.6 3 0.9 6-5.3 5.7-5.3 5.5 0-0.2-1.3-8.5-1.3-8.5z"/>
	<path id="Layer" class="s9" d="m417.6 297.9c0 0 0.1 0 0.3 0.1q0.4 0.1 0.7-0.1 0.6-0.5 0.8-1.2 0.2-0.6 0.1-1.3-0.1-0.8-0.6-1.5-0.1-0.2-0.3-0.4-0.3-0.2-0.6-0.2-0.2 0-0.3 0.1-0.2 0.1-0.2 0.3c-0.1 0.1 0 0.2 0 0.3 0 0-0.2-0.1-0.2-0.4q0.1-0.2 0.2-0.4 0.2-0.2 0.5-0.2 0.4 0 0.7 0.2 0.3 0.2 0.5 0.6 0.5 0.7 0.7 1.6c0.1 0.5 0 1-0.2 1.5-0.2 0.5-0.5 0.9-1 1.3q-0.2 0.1-0.5 0.1-0.2 0-0.5-0.2c-0.1-0.1-0.2-0.2-0.1-0.2z"/>
	<path id="Layer" class="s3" d="m386.5 277.9c-1-0.4 1.4-3.9 3.6-5.3 3.3-2.2 8.7-4 12.1-3.6 4.1 0.6 7.7 2 10.3 5.4 2.4 3.4 4 7.4 4.4 11.5 0.2 1.3 0.1 2.6-0.3 3.8-0.7 1.4-2.1 2.5-1.8 4.3 0.1 0.7 0 1.4-0.4 1.9-0.9 1.3-2.4 0.5-3.1-0.5-1.7-2.2-2.2-4.9-2.8-7.6-0.4-1.9-0.6-3.8-0.4-5.7 0.1-1 0.5-2 0.5-3.1q0.1-0.8-0.1-1.6-0.2-0.7-0.7-1.3-0.3-0.2-0.6-0.4c-0.9-0.6-2-1-3.1-1-1.1-0.1-2.2 0.2-3.2 0.7-3.2 1.7-8.7 4.3-10.3 3.4-1.2-0.5-2.2-1.3-3.1-2.3z"/>
	<path id="Layer" fill-rule="evenodd" class="s7" d="m189.6 134.7h1.9l2 4.9h0.1l2-4.9h1.9v7.3h-1.5v-4.7l-1.9 4.7h-1l-1.9-4.8h-0.1v4.8h-1.5zm10.1 9.3q-0.3 0-0.6 0-0.2-0.1-0.4-0.1l0.4-1.2q0.2 0.1 0.5 0.1 0.2 0 0.3-0.1 0.2-0.1 0.3-0.3l0.1-0.3-2-5.6h1.6l1.1 4h0.1l1.1-4h1.6l-2.1 6.1q-0.1 0.4-0.4 0.7-0.3 0.4-0.7 0.5-0.4 0.2-0.9 0.2zm7.3-2v-7.3h2.8q0.8 0 1.4 0.3 0.6 0.3 0.9 0.8 0.3 0.6 0.3 1.3 0 0.7-0.3 1.2-0.3 0.5-0.9 0.8 0 0-0.1 0l1.6 2.9h-1.7l-1.4-2.6h-1.1v2.6zm1.5-2.6v-1.2h-0.6v1.2zm1-1.2q0.5 0 0.8-0.2 0.3-0.1 0.4-0.3 0.2-0.3 0.2-0.6 0-0.4-0.2-0.6-0.1-0.3-0.4-0.4-0.3-0.1-0.8-0.1h-1v2.2zm6.4 3.9q-0.9 0-1.5-0.4-0.6-0.3-0.9-0.9-0.4-0.7-0.4-1.5 0-0.9 0.4-1.5 0.3-0.6 0.9-1 0.6-0.4 1.4-0.4 0.5 0 1 0.2 0.5 0.2 0.8 0.5 0.4 0.4 0.6 0.9 0.2 0.5 0.2 1.2v0.4h-3.8q0 0.4 0.2 0.7 0.1 0.3 0.4 0.5 0.3 0.2 0.7 0.2 0.2 0 0.4-0.1 0.2-0.1 0.4-0.2 0.1-0.2 0.2-0.4l1.4 0.1q-0.1 0.5-0.4 0.9-0.3 0.4-0.9 0.6-0.5 0.2-1.1 0.2zm-1.3-2.5v-0.9q0 0 0 0h-0.8v0.9zm2.2-0.9q0-0.3-0.1-0.6-0.1-0.2-0.4-0.4-0.2-0.1-0.6-0.1-0.3 0-0.6 0.1-0.2 0.2-0.4 0.5-0.1 0.2-0.1 0.5zm6.9-0.6l-1.4 0.1q0-0.2-0.1-0.4-0.2-0.1-0.3-0.2-0.2-0.1-0.5-0.1-0.3 0-0.6 0.2-0.2 0.1-0.2 0.4 0 0.2 0.1 0.3 0.2 0.1 0.6 0.2l0.9 0.2q0.8 0.2 1.2 0.5 0.4 0.4 0.4 1 0 0.5-0.3 0.9-0.3 0.4-0.8 0.7-0.6 0.2-1.3 0.2-1.1 0-1.7-0.5-0.7-0.4-0.8-1.2l1.5-0.1q0.1 0.3 0.3 0.5 0.3 0.2 0.7 0.2 0.4 0 0.6-0.2 0.3-0.1 0.3-0.4 0-0.2-0.2-0.3-0.2-0.1-0.5-0.2l-1-0.2q-0.8-0.2-1.1-0.6-0.4-0.3-0.4-1 0-0.5 0.3-0.9 0.2-0.3 0.8-0.5 0.5-0.3 1.2-0.3 1 0 1.6 0.5 0.6 0.4 0.7 1.2zm4-1.6v1.2h-1v2.6q0 0.2 0 0.3 0.1 0.1 0.2 0.2 0.1 0 0.3 0 0.1 0 0.2 0 0.1 0 0.1 0l0.3 1.1q-0.1 0-0.3 0.1-0.2 0-0.5 0-0.6 0.1-1-0.1-0.4-0.2-0.6-0.5-0.3-0.4-0.3-0.9v-2.8h-0.7v-1.2h0.7v-1.3h1.6v1.3zm2.5 5.6q-0.5 0-0.9-0.2-0.4-0.2-0.7-0.5-0.2-0.4-0.2-0.9 0-0.5 0.1-0.8 0.2-0.3 0.5-0.5 0.3-0.2 0.7-0.3 0.3-0.1 0.7-0.1 0.5-0.1 0.8-0.1 0.3-0.1 0.4-0.2 0.2 0 0.2-0.2 0-0.4-0.3-0.6-0.2-0.1-0.6-0.1-0.4 0-0.6 0.1-0.2 0.2-0.3 0.5l-1.4-0.1q0.1-0.5 0.4-0.9 0.3-0.4 0.8-0.6 0.5-0.2 1.2-0.2 0.4 0 0.8 0.2 0.4 0.1 0.8 0.3 0.3 0.2 0.5 0.6 0.2 0.3 0.2 0.8v3.7h-1.5v-0.8q-0.1 0.3-0.4 0.5-0.2 0.2-0.5 0.3-0.3 0.1-0.7 0.1zm0.4-1.1q0.4 0 0.6-0.1 0.3-0.1 0.4-0.4 0.2-0.2 0.2-0.5v-0.6q-0.1 0.1-0.2 0.1-0.2 0.1-0.3 0.1-0.2 0-0.3 0.1-0.2 0-0.3 0-0.3 0-0.5 0.1-0.2 0.1-0.3 0.2-0.1 0.2-0.1 0.4 0 0.3 0.3 0.5 0.2 0.1 0.5 0.1zm7.3-1.3v-3.2h1.5v5.5h-1.4v-1h-0.1q-0.1 0.5-0.6 0.8-0.4 0.2-1 0.2-0.6 0-1-0.2-0.4-0.3-0.6-0.7-0.3-0.5-0.3-1.1v-3.5h1.6v3.2q0 0.5 0.2 0.8 0.3 0.3 0.7 0.3 0.3 0 0.5-0.2 0.2-0.1 0.4-0.3 0.1-0.3 0.1-0.6zm2.8 2.3v-5.5h1.4v1h0.1q0.1-0.5 0.5-0.8 0.3-0.3 0.8-0.3 0.1 0 0.2 0.1 0.2 0 0.3 0v1.3q-0.1 0-0.3 0-0.2 0-0.4 0-0.3 0-0.6 0.1-0.2 0.1-0.4 0.4-0.1 0.3-0.1 0.6v3.1zm5.5 0.1q-0.6 0-1-0.2-0.4-0.2-0.6-0.5-0.2-0.4-0.2-0.9 0-0.5 0.1-0.8 0.2-0.3 0.5-0.5 0.3-0.2 0.6-0.3 0.4-0.1 0.8-0.1 0.5-0.1 0.8-0.1 0.3-0.1 0.4-0.2 0.1 0 0.1-0.2 0-0.4-0.2-0.6-0.2-0.1-0.6-0.1-0.4 0-0.6 0.1-0.3 0.2-0.4 0.5l-1.4-0.1q0.2-0.5 0.5-0.9 0.3-0.4 0.8-0.6 0.5-0.2 1.1-0.2 0.5 0 0.9 0.2 0.4 0.1 0.7 0.3 0.4 0.2 0.5 0.6 0.2 0.3 0.2 0.8v3.7h-1.4v-0.8q-0.2 0.3-0.4 0.5-0.2 0.2-0.5 0.3-0.3 0.1-0.7 0.1zm0.4-1.1q0.3 0 0.6-0.1 0.2-0.1 0.4-0.4 0.1-0.2 0.1-0.5v-0.6q0 0.1-0.2 0.1-0.1 0.1-0.2 0.1-0.2 0-0.3 0.1-0.2 0-0.3 0-0.3 0-0.5 0.1-0.2 0.1-0.3 0.2-0.1 0.2-0.1 0.4 0 0.3 0.2 0.5 0.2 0.1 0.6 0.1zm5.3-2.2v3.2h-1.5v-5.5h1.5v1q0.2-0.5 0.6-0.8 0.4-0.3 1.1-0.3 0.5 0 0.9 0.3 0.5 0.2 0.7 0.7 0.2 0.5 0.2 1.1v3.5h-1.5v-3.2q0-0.5-0.2-0.8-0.3-0.3-0.7-0.3-0.4 0-0.6 0.1-0.2 0.2-0.3 0.4-0.2 0.3-0.2 0.6zm7.6-2.3v1.2h-1v2.6q0 0.2 0.1 0.3 0 0.1 0.1 0.2 0.2 0 0.3 0 0.1 0 0.2 0 0.1 0 0.2 0l0.2 1.1q-0.1 0-0.3 0.1-0.2 0-0.5 0-0.5 0.1-0.9-0.1-0.5-0.2-0.7-0.5-0.2-0.4-0.2-0.9v-2.8h-0.8v-1.2h0.8v-1.3h1.5v1.3z"/>
</svg>