<svg width="711" height="629" viewBox="0 0 711 629" fill="none" xmlns="http://www.w3.org/2000/svg">
<g clip-path="url(#clip0_379_6586)">
<rect x="44" y="361" width="624" height="73" rx="10" fill="#FF5833"/>
<path d="M323.272 393.898C323.2 393.216 322.892 392.685 322.351 392.305C321.814 391.924 321.116 391.734 320.257 391.734C319.653 391.734 319.134 391.826 318.702 392.008C318.27 392.19 317.939 392.437 317.71 392.75C317.481 393.062 317.364 393.419 317.358 393.82C317.358 394.154 317.434 394.443 317.585 394.687C317.741 394.932 317.952 395.141 318.218 395.312C318.483 395.479 318.778 395.62 319.101 395.734C319.424 395.849 319.749 395.945 320.077 396.023L321.577 396.398C322.181 396.539 322.762 396.729 323.319 396.969C323.882 397.208 324.384 397.51 324.827 397.875C325.275 398.24 325.629 398.68 325.89 399.195C326.15 399.711 326.28 400.315 326.28 401.008C326.28 401.945 326.041 402.771 325.562 403.484C325.082 404.193 324.39 404.747 323.483 405.148C322.582 405.544 321.491 405.742 320.21 405.742C318.965 405.742 317.884 405.549 316.968 405.164C316.056 404.779 315.343 404.216 314.827 403.477C314.317 402.737 314.041 401.836 313.999 400.773H316.851C316.892 401.331 317.064 401.794 317.366 402.164C317.668 402.534 318.062 402.81 318.546 402.992C319.035 403.174 319.582 403.266 320.187 403.266C320.817 403.266 321.369 403.172 321.843 402.984C322.322 402.792 322.697 402.526 322.968 402.187C323.239 401.844 323.377 401.443 323.382 400.984C323.377 400.568 323.254 400.224 323.015 399.953C322.775 399.677 322.439 399.448 322.007 399.266C321.58 399.078 321.08 398.911 320.507 398.766L318.687 398.297C317.369 397.958 316.327 397.445 315.562 396.758C314.801 396.065 314.421 395.146 314.421 394C314.421 393.057 314.676 392.232 315.187 391.523C315.702 390.815 316.403 390.266 317.288 389.875C318.174 389.479 319.176 389.281 320.296 389.281C321.431 389.281 322.426 389.479 323.28 389.875C324.14 390.266 324.814 390.81 325.304 391.508C325.793 392.201 326.046 392.997 326.062 393.898H323.272ZM334.052 405.734C332.849 405.734 331.81 405.484 330.935 404.984C330.065 404.479 329.396 403.766 328.927 402.844C328.458 401.917 328.224 400.826 328.224 399.57C328.224 398.336 328.458 397.253 328.927 396.32C329.401 395.383 330.062 394.654 330.911 394.133C331.76 393.607 332.757 393.344 333.903 393.344C334.643 393.344 335.341 393.464 335.997 393.703C336.659 393.937 337.242 394.302 337.747 394.797C338.257 395.292 338.659 395.922 338.95 396.687C339.242 397.448 339.388 398.354 339.388 399.406V400.273H329.552V398.367H336.677C336.672 397.826 336.554 397.344 336.325 396.922C336.096 396.495 335.776 396.159 335.364 395.914C334.958 395.669 334.484 395.547 333.942 395.547C333.364 395.547 332.856 395.687 332.419 395.969C331.981 396.245 331.64 396.609 331.396 397.062C331.156 397.51 331.034 398.003 331.028 398.539V400.203C331.028 400.901 331.156 401.5 331.411 402C331.666 402.495 332.023 402.875 332.481 403.141C332.94 403.401 333.476 403.531 334.091 403.531C334.502 403.531 334.875 403.474 335.208 403.359C335.541 403.24 335.83 403.065 336.075 402.836C336.32 402.607 336.505 402.323 336.63 401.984L339.271 402.281C339.104 402.979 338.786 403.589 338.317 404.109C337.854 404.625 337.26 405.026 336.536 405.312C335.812 405.594 334.984 405.734 334.052 405.734ZM347.772 393.5V395.687H340.874V393.5H347.772ZM342.577 390.625H345.405V401.891C345.405 402.271 345.463 402.563 345.577 402.766C345.697 402.964 345.853 403.099 346.046 403.172C346.239 403.245 346.452 403.281 346.687 403.281C346.864 403.281 347.025 403.268 347.171 403.242C347.322 403.216 347.437 403.193 347.515 403.172L347.991 405.383C347.84 405.435 347.624 405.492 347.343 405.555C347.067 405.617 346.728 405.654 346.327 405.664C345.619 405.685 344.981 405.578 344.413 405.344C343.845 405.104 343.395 404.734 343.062 404.234C342.733 403.734 342.572 403.109 342.577 402.359V390.625ZM358.423 398.469V405.5H355.595V393.5H358.298V395.539H358.438C358.715 394.867 359.155 394.333 359.759 393.937C360.368 393.542 361.121 393.344 362.017 393.344C362.845 393.344 363.566 393.521 364.181 393.875C364.8 394.229 365.28 394.742 365.618 395.414C365.962 396.086 366.131 396.901 366.126 397.859V405.5H363.298V398.297C363.298 397.495 363.09 396.867 362.673 396.414C362.261 395.961 361.691 395.734 360.962 395.734C360.467 395.734 360.027 395.844 359.642 396.062C359.261 396.276 358.962 396.586 358.743 396.992C358.53 397.398 358.423 397.891 358.423 398.469ZM374.235 405.734C373.063 405.734 372.048 405.477 371.188 404.961C370.329 404.445 369.662 403.724 369.188 402.797C368.72 401.87 368.485 400.786 368.485 399.547C368.485 398.307 368.72 397.221 369.188 396.289C369.662 395.357 370.329 394.633 371.188 394.117C372.048 393.602 373.063 393.344 374.235 393.344C375.407 393.344 376.423 393.602 377.282 394.117C378.142 394.633 378.806 395.357 379.274 396.289C379.748 397.221 379.985 398.307 379.985 399.547C379.985 400.786 379.748 401.87 379.274 402.797C378.806 403.724 378.142 404.445 377.282 404.961C376.423 405.477 375.407 405.734 374.235 405.734ZM374.251 403.469C374.886 403.469 375.418 403.294 375.845 402.945C376.272 402.591 376.59 402.117 376.798 401.523C377.011 400.93 377.118 400.268 377.118 399.539C377.118 398.805 377.011 398.141 376.798 397.547C376.59 396.948 376.272 396.471 375.845 396.117C375.418 395.763 374.886 395.586 374.251 395.586C373.6 395.586 373.058 395.763 372.626 396.117C372.199 396.471 371.879 396.948 371.665 397.547C371.457 398.141 371.353 398.805 371.353 399.539C371.353 400.268 371.457 400.93 371.665 401.523C371.879 402.117 372.199 402.591 372.626 402.945C373.058 403.294 373.6 403.469 374.251 403.469ZM384.519 405.5L381.128 393.5H384.011L386.12 401.937H386.229L388.386 393.5H391.237L393.394 401.891H393.511L395.589 393.5H398.479L395.081 405.5H392.136L389.886 397.391H389.722L387.472 405.5H384.519Z" fill="black"/>
<rect x="13.5" y="10.5" width="685" height="324" rx="10.5" fill="white"/>
<rect x="13.5" y="10.5" width="685" height="324" rx="10.5" stroke="#B4B4B4"/>
<mask id="path-4-inside-1_379_6586" fill="white">
<path d="M44 35H668V104H44V35Z"/>
</mask>
<path d="M668 103H44V105H668V103Z" fill="black" fill-opacity="0.2" mask="url(#path-4-inside-1_379_6586)"/>
<rect x="44" y="35" width="50" height="49" rx="24.5" fill="#FFD7CE"/>
<path d="M59.877 58.4395H78.627C78.8756 58.4395 79.1141 58.5382 79.2899 58.714C79.4657 58.8899 79.5645 59.1283 79.5645 59.377C79.5645 59.6256 79.4657 59.8641 79.2899 60.0399C79.1141 60.2157 78.8756 60.3145 78.627 60.3145H59.877C59.6283 60.3145 59.3899 60.2157 59.214 60.0399C59.0382 59.8641 58.9395 59.6256 58.9395 59.377C58.9395 59.1283 59.0382 58.8899 59.214 58.714C59.3899 58.5382 59.6283 58.4395 59.877 58.4395Z" fill="#FF5833"/>
<path d="M60.2648 59.3762L68.0404 67.1499C68.2165 67.326 68.3154 67.5647 68.3154 67.8137C68.3154 68.0626 68.2165 68.3014 68.0404 68.4774C67.8644 68.6535 67.6256 68.7524 67.3767 68.7524C67.1277 68.7524 66.889 68.6535 66.7129 68.4774L58.2754 60.0399C58.1881 59.9528 58.1189 59.8494 58.0716 59.7355C58.0243 59.6216 58 59.4995 58 59.3762C58 59.2529 58.0243 59.1308 58.0716 59.0169C58.1189 58.903 58.1881 58.7995 58.2754 58.7124L66.7129 50.2749C66.889 50.0989 67.1277 50 67.3767 50C67.6256 50 67.8644 50.0989 68.0404 50.2749C68.2165 50.451 68.3154 50.6897 68.3154 50.9387C68.3154 51.1876 68.2165 51.4264 68.0404 51.6024L60.2648 59.3762Z" fill="#FF5833"/>
<path d="M124.169 56.2656H119.814C119.734 55.7022 119.572 55.2017 119.327 54.7642C119.081 54.3201 118.766 53.9422 118.382 53.6307C117.997 53.3191 117.553 53.0805 117.05 52.9148C116.552 52.7491 116.012 52.6662 115.429 52.6662C114.375 52.6662 113.457 52.928 112.675 53.4517C111.892 53.9687 111.286 54.7244 110.855 55.7188C110.424 56.7064 110.209 57.9062 110.209 59.3182C110.209 60.7699 110.424 61.9896 110.855 62.9773C111.292 63.965 111.902 64.7107 112.684 65.2145C113.467 65.7183 114.372 65.9702 115.399 65.9702C115.976 65.9702 116.509 65.8939 117 65.7415C117.497 65.589 117.938 65.367 118.322 65.0753C118.707 64.777 119.025 64.4157 119.277 63.9915C119.535 63.5672 119.714 63.0833 119.814 62.5398L124.169 62.5597C124.056 63.4943 123.774 64.3958 123.324 65.2642C122.88 66.1259 122.28 66.8982 121.524 67.581C120.775 68.2571 119.88 68.794 118.839 69.1918C117.805 69.5829 116.635 69.7784 115.329 69.7784C113.513 69.7784 111.889 69.3674 110.457 68.5455C109.032 67.7235 107.905 66.5336 107.077 64.9759C106.255 63.4181 105.844 61.5322 105.844 59.3182C105.844 57.0975 106.261 55.2083 107.096 53.6506C107.932 52.0928 109.065 50.9062 110.497 50.0909C111.929 49.2689 113.54 48.858 115.329 48.858C116.509 48.858 117.603 49.0237 118.611 49.3551C119.625 49.6866 120.523 50.1705 121.305 50.8068C122.087 51.4366 122.724 52.2088 123.214 53.1236C123.711 54.0384 124.03 55.0857 124.169 56.2656ZM131.412 60.6705V69.5H127.177V49.1364H131.293V56.9219H131.472C131.817 56.0204 132.374 55.3144 133.143 54.804C133.912 54.2869 134.876 54.0284 136.036 54.0284C137.097 54.0284 138.021 54.2604 138.81 54.7244C139.606 55.1818 140.222 55.8414 140.66 56.7031C141.104 57.5582 141.323 58.5824 141.316 59.7756V69.5H137.08V60.5312C137.087 59.59 136.848 58.8575 136.364 58.3338C135.887 57.8101 135.217 57.5483 134.356 57.5483C133.779 57.5483 133.269 57.6709 132.824 57.9162C132.387 58.1615 132.042 58.5194 131.79 58.9901C131.545 59.4541 131.419 60.0142 131.412 60.6705ZM151.55 69.7983C150.005 69.7983 148.67 69.4702 147.543 68.8139C146.423 68.151 145.557 67.2296 144.948 66.0497C144.338 64.8632 144.033 63.4877 144.033 61.9233C144.033 60.3456 144.338 58.9669 144.948 57.7869C145.557 56.6004 146.423 55.679 147.543 55.0227C148.67 54.3598 150.005 54.0284 151.55 54.0284C153.094 54.0284 154.427 54.3598 155.547 55.0227C156.674 55.679 157.542 56.6004 158.152 57.7869C158.762 58.9669 159.067 60.3456 159.067 61.9233C159.067 63.4877 158.762 64.8632 158.152 66.0497C157.542 67.2296 156.674 68.151 155.547 68.8139C154.427 69.4702 153.094 69.7983 151.55 69.7983ZM151.57 66.517C152.272 66.517 152.859 66.3182 153.33 65.9205C153.8 65.5161 154.155 64.9659 154.394 64.2699C154.639 63.5739 154.762 62.7817 154.762 61.8935C154.762 61.0052 154.639 60.2131 154.394 59.517C154.155 58.821 153.8 58.2708 153.33 57.8665C152.859 57.4621 152.272 57.2599 151.57 57.2599C150.86 57.2599 150.264 57.4621 149.78 57.8665C149.303 58.2708 148.941 58.821 148.696 59.517C148.458 60.2131 148.338 61.0052 148.338 61.8935C148.338 62.7817 148.458 63.5739 148.696 64.2699C148.941 64.9659 149.303 65.5161 149.78 65.9205C150.264 66.3182 150.86 66.517 151.57 66.517ZM168.722 69.7983C167.177 69.7983 165.842 69.4702 164.715 68.8139C163.594 68.151 162.729 67.2296 162.119 66.0497C161.51 64.8632 161.205 63.4877 161.205 61.9233C161.205 60.3456 161.51 58.9669 162.119 57.7869C162.729 56.6004 163.594 55.679 164.715 55.0227C165.842 54.3598 167.177 54.0284 168.722 54.0284C170.266 54.0284 171.599 54.3598 172.719 55.0227C173.846 55.679 174.714 56.6004 175.324 57.7869C175.934 58.9669 176.239 60.3456 176.239 61.9233C176.239 63.4877 175.934 64.8632 175.324 66.0497C174.714 67.2296 173.846 68.151 172.719 68.8139C171.599 69.4702 170.266 69.7983 168.722 69.7983ZM168.742 66.517C169.444 66.517 170.031 66.3182 170.502 65.9205C170.972 65.5161 171.327 64.9659 171.566 64.2699C171.811 63.5739 171.933 62.7817 171.933 61.8935C171.933 61.0052 171.811 60.2131 171.566 59.517C171.327 58.821 170.972 58.2708 170.502 57.8665C170.031 57.4621 169.444 57.2599 168.742 57.2599C168.032 57.2599 167.436 57.4621 166.952 57.8665C166.475 58.2708 166.113 58.821 165.868 59.517C165.629 60.2131 165.51 61.0052 165.51 61.8935C165.51 62.7817 165.629 63.5739 165.868 64.2699C166.113 64.9659 166.475 65.5161 166.952 65.9205C167.436 66.3182 168.032 66.517 168.742 66.517ZM191.7 58.5824L187.823 58.821C187.756 58.4896 187.614 58.1913 187.395 57.9261C187.176 57.6544 186.888 57.4389 186.53 57.2798C186.179 57.1141 185.758 57.0312 185.267 57.0312C184.611 57.0312 184.057 57.1705 183.607 57.4489C183.156 57.7206 182.931 58.0852 182.931 58.5426C182.931 58.9072 183.076 59.2154 183.368 59.4673C183.66 59.7192 184.16 59.9214 184.869 60.0739L187.634 60.6307C189.119 60.9356 190.226 61.4261 190.955 62.1023C191.684 62.7784 192.048 63.6667 192.048 64.767C192.048 65.768 191.753 66.6463 191.164 67.402C190.58 68.1577 189.778 68.7476 188.757 69.1719C187.743 69.5895 186.573 69.7983 185.247 69.7983C183.226 69.7983 181.615 69.3774 180.415 68.5355C179.222 67.687 178.522 66.5336 178.317 65.0753L182.483 64.8565C182.609 65.473 182.914 65.9437 183.398 66.2685C183.882 66.5866 184.502 66.7457 185.257 66.7457C186 66.7457 186.596 66.6032 187.047 66.3182C187.504 66.0265 187.736 65.652 187.743 65.1946C187.736 64.8101 187.574 64.4953 187.256 64.25C186.938 63.9981 186.447 63.8059 185.784 63.6733L183.139 63.1463C181.648 62.848 180.538 62.331 179.808 61.5952C179.086 60.8594 178.725 59.9214 178.725 58.7812C178.725 57.8002 178.99 56.955 179.52 56.2457C180.057 55.5365 180.809 54.9896 181.777 54.6051C182.752 54.2206 183.892 54.0284 185.198 54.0284C187.127 54.0284 188.645 54.4361 189.752 55.2514C190.865 56.0668 191.515 57.1771 191.7 58.5824ZM201.676 69.7983C200.105 69.7983 198.753 69.4801 197.619 68.8438C196.492 68.2008 195.624 67.2926 195.014 66.1193C194.404 64.9394 194.099 63.544 194.099 61.9332C194.099 60.3622 194.404 58.9834 195.014 57.7969C195.624 56.6103 196.482 55.6856 197.589 55.0227C198.703 54.3598 200.009 54.0284 201.507 54.0284C202.515 54.0284 203.452 54.1908 204.321 54.5156C205.196 54.8338 205.958 55.3144 206.608 55.9574C207.264 56.6004 207.774 57.4091 208.139 58.3835C208.504 59.3513 208.686 60.4848 208.686 61.7841V62.9474H195.79V60.3224H204.699C204.699 59.7126 204.566 59.1723 204.301 58.7017C204.036 58.2311 203.668 57.8632 203.197 57.598C202.733 57.3262 202.193 57.1903 201.577 57.1903C200.934 57.1903 200.363 57.3395 199.866 57.6378C199.376 57.9295 198.991 58.3239 198.713 58.821C198.434 59.3116 198.292 59.8584 198.285 60.4616V62.9574C198.285 63.7131 198.425 64.366 198.703 64.9162C198.988 65.4664 199.389 65.8906 199.906 66.1889C200.423 66.4872 201.036 66.6364 201.746 66.6364C202.216 66.6364 202.647 66.5701 203.038 66.4375C203.429 66.3049 203.764 66.1061 204.042 65.8409C204.321 65.5758 204.533 65.2509 204.679 64.8665L208.596 65.125C208.398 66.0663 207.99 66.8883 207.373 67.5909C206.764 68.2869 205.975 68.8305 205.007 69.2216C204.046 69.6061 202.935 69.7983 201.676 69.7983ZM222.286 69.7884C221.311 69.7884 220.443 69.6193 219.681 69.2812C218.918 68.9366 218.315 68.4295 217.871 67.7599C217.433 67.0838 217.215 66.242 217.215 65.2344C217.215 64.3859 217.37 63.6733 217.682 63.0966C217.994 62.5199 218.418 62.0559 218.955 61.7045C219.492 61.3532 220.102 61.0881 220.784 60.9091C221.474 60.7301 222.196 60.6042 222.952 60.5312C223.84 60.4384 224.556 60.3523 225.1 60.2727C225.643 60.1866 226.038 60.0606 226.283 59.8949C226.528 59.7292 226.651 59.4839 226.651 59.1591V59.0994C226.651 58.4697 226.452 57.9825 226.054 57.6378C225.663 57.2931 225.106 57.1207 224.384 57.1207C223.621 57.1207 223.015 57.2898 222.564 57.6278C222.113 57.9593 221.815 58.3769 221.669 58.8807L217.752 58.5625C217.95 57.6345 218.342 56.8324 218.925 56.1562C219.508 55.4735 220.261 54.9498 221.182 54.5852C222.11 54.214 223.184 54.0284 224.404 54.0284C225.252 54.0284 226.064 54.1278 226.84 54.3267C227.622 54.5256 228.315 54.8338 228.918 55.2514C229.528 55.669 230.008 56.206 230.36 56.8622C230.711 57.5118 230.887 58.2907 230.887 59.1989V69.5H226.869V67.3821H226.75C226.505 67.8594 226.177 68.2803 225.766 68.6449C225.355 69.0028 224.861 69.2846 224.284 69.4901C223.708 69.6889 223.041 69.7884 222.286 69.7884ZM223.499 66.8651C224.122 66.8651 224.672 66.7424 225.149 66.4972C225.627 66.2453 226.001 65.9072 226.273 65.483C226.545 65.0587 226.681 64.5781 226.681 64.0412V62.4205C226.548 62.5066 226.366 62.5862 226.134 62.6591C225.908 62.7254 225.653 62.7884 225.368 62.848C225.083 62.901 224.798 62.9508 224.513 62.9972C224.228 63.0369 223.969 63.0734 223.737 63.1065C223.24 63.1795 222.806 63.2955 222.435 63.4545C222.064 63.6136 221.775 63.8291 221.57 64.1009C221.364 64.366 221.262 64.6974 221.262 65.0952C221.262 65.6719 221.47 66.1127 221.888 66.4176C222.312 66.7159 222.849 66.8651 223.499 66.8651ZM239.957 52.6861V49.1364H256.682V52.6861H250.447V69.5H246.192V52.6861H239.957ZM259.356 69.5V54.2273H263.592V69.5H259.356ZM261.484 52.2585C260.854 52.2585 260.314 52.0497 259.863 51.6321C259.419 51.2079 259.197 50.7008 259.197 50.1108C259.197 49.5275 259.419 49.027 259.863 48.6094C260.314 48.1851 260.854 47.973 261.484 47.973C262.114 47.973 262.651 48.1851 263.095 48.6094C263.546 49.027 263.771 49.5275 263.771 50.1108C263.771 50.7008 263.546 51.2079 263.095 51.6321C262.651 52.0497 262.114 52.2585 261.484 52.2585ZM266.985 69.5V54.2273H271.022V56.9219H271.201C271.519 56.027 272.05 55.321 272.792 54.804C273.535 54.2869 274.423 54.0284 275.457 54.0284C276.504 54.0284 277.396 54.2902 278.132 54.8139C278.867 55.331 279.358 56.0336 279.603 56.9219H279.762C280.074 56.0469 280.637 55.3475 281.453 54.8239C282.275 54.2936 283.246 54.0284 284.366 54.0284C285.791 54.0284 286.948 54.4825 287.836 55.3906C288.731 56.2921 289.178 57.5715 289.178 59.2287V69.5H284.953V60.0639C284.953 59.2154 284.727 58.5791 284.276 58.1548C283.826 57.7306 283.262 57.5185 282.586 57.5185C281.817 57.5185 281.217 57.7637 280.786 58.2543C280.356 58.7382 280.14 59.3778 280.14 60.1733V69.5H276.034V59.9744C276.034 59.2254 275.818 58.6288 275.387 58.1847C274.963 57.7405 274.403 57.5185 273.707 57.5185C273.236 57.5185 272.812 57.6378 272.434 57.8764C272.063 58.1084 271.768 58.4366 271.549 58.8608C271.33 59.2784 271.221 59.7689 271.221 60.3324V69.5H266.985ZM299.485 69.7983C297.914 69.7983 296.561 69.4801 295.428 68.8438C294.301 68.2008 293.432 67.2926 292.823 66.1193C292.213 64.9394 291.908 63.544 291.908 61.9332C291.908 60.3622 292.213 58.9834 292.823 57.7969C293.432 56.6103 294.291 55.6856 295.398 55.0227C296.512 54.3598 297.817 54.0284 299.316 54.0284C300.323 54.0284 301.261 54.1908 302.129 54.5156C303.004 54.8338 303.767 55.3144 304.416 55.9574C305.073 56.6004 305.583 57.4091 305.948 58.3835C306.312 59.3513 306.494 60.4848 306.494 61.7841V62.9474H293.598V60.3224H302.507C302.507 59.7126 302.375 59.1723 302.11 58.7017C301.844 58.2311 301.477 57.8632 301.006 57.598C300.542 57.3262 300.002 57.1903 299.385 57.1903C298.742 57.1903 298.172 57.3395 297.675 57.6378C297.184 57.9295 296.8 58.3239 296.521 58.821C296.243 59.3116 296.101 59.8584 296.094 60.4616V62.9574C296.094 63.7131 296.233 64.366 296.512 64.9162C296.797 65.4664 297.198 65.8906 297.715 66.1889C298.232 66.4872 298.845 66.6364 299.554 66.6364C300.025 66.6364 300.456 66.5701 300.847 66.4375C301.238 66.3049 301.573 66.1061 301.851 65.8409C302.129 65.5758 302.342 65.2509 302.487 64.8665L306.405 65.125C306.206 66.0663 305.798 66.8883 305.182 67.5909C304.572 68.2869 303.783 68.8305 302.816 69.2216C301.854 69.6061 300.744 69.7983 299.485 69.7983Z" fill="black"/>
<rect x="564" y="36.5" width="104" height="46" rx="8" fill="#FFD7CE"/>
<path d="M594.342 56.8984H591.42C591.337 56.4193 591.183 55.9948 590.959 55.625C590.735 55.25 590.456 54.9323 590.123 54.6719C589.79 54.4115 589.41 54.2161 588.982 54.0859C588.561 53.9505 588.105 53.8828 587.615 53.8828C586.745 53.8828 585.975 54.1016 585.303 54.5391C584.631 54.9714 584.105 55.6068 583.725 56.4453C583.344 57.2786 583.154 58.2969 583.154 59.5C583.154 60.724 583.344 61.7552 583.725 62.5937C584.11 63.4271 584.636 64.0573 585.303 64.4844C585.975 64.9062 586.743 65.1172 587.607 65.1172C588.087 65.1172 588.535 65.0547 588.951 64.9297C589.373 64.7995 589.751 64.6094 590.084 64.3594C590.423 64.1094 590.706 63.8021 590.936 63.4375C591.17 63.0729 591.331 62.6562 591.42 62.1875L594.342 62.2031C594.232 62.9635 593.995 63.6771 593.631 64.3438C593.271 65.0104 592.8 65.599 592.217 66.1094C591.633 66.6146 590.951 67.0104 590.17 67.2969C589.389 67.5781 588.521 67.7187 587.568 67.7187C586.162 67.7187 584.907 67.3932 583.803 66.7422C582.699 66.0911 581.829 65.151 581.193 63.9219C580.558 62.6927 580.24 61.2187 580.24 59.5C580.24 57.776 580.561 56.3021 581.201 55.0781C581.842 53.849 582.714 52.9089 583.818 52.2578C584.923 51.6068 586.173 51.2812 587.568 51.2812C588.459 51.2812 589.287 51.4062 590.053 51.6562C590.818 51.9062 591.501 52.2734 592.1 52.7578C592.699 53.237 593.191 53.8255 593.576 54.5234C593.967 55.2161 594.222 56.0078 594.342 56.8984ZM600.324 67.7422C599.564 67.7422 598.879 67.6068 598.27 67.3359C597.665 67.0599 597.186 66.6536 596.832 66.1172C596.483 65.5807 596.309 64.9193 596.309 64.1328C596.309 63.4557 596.434 62.8958 596.684 62.4531C596.934 62.0104 597.275 61.6562 597.707 61.3906C598.139 61.125 598.626 60.9245 599.168 60.7891C599.715 60.6484 600.28 60.5469 600.863 60.4844C601.566 60.4115 602.137 60.3464 602.574 60.2891C603.012 60.2266 603.329 60.1328 603.527 60.0078C603.73 59.8776 603.832 59.6771 603.832 59.4062V59.3594C603.832 58.7708 603.658 58.3151 603.309 57.9922C602.96 57.6693 602.457 57.5078 601.801 57.5078C601.108 57.5078 600.559 57.6589 600.152 57.9609C599.751 58.263 599.48 58.6198 599.34 59.0312L596.699 58.6562C596.908 57.9271 597.251 57.3177 597.73 56.8281C598.21 56.3333 598.796 55.9635 599.488 55.7187C600.181 55.4688 600.947 55.3438 601.785 55.3438C602.363 55.3438 602.939 55.4115 603.512 55.5469C604.085 55.6823 604.608 55.9062 605.082 56.2187C605.556 56.526 605.936 56.9453 606.223 57.4766C606.514 58.0078 606.66 58.6719 606.66 59.4687V67.5H603.941V65.8516H603.848C603.676 66.1849 603.434 66.4974 603.121 66.7891C602.814 67.0755 602.426 67.3073 601.957 67.4844C601.493 67.6563 600.949 67.7422 600.324 67.7422ZM601.059 65.6641C601.626 65.6641 602.118 65.5521 602.535 65.3281C602.952 65.099 603.272 64.7969 603.496 64.4219C603.725 64.0469 603.84 63.638 603.84 63.1953V61.7812C603.751 61.8542 603.6 61.9219 603.387 61.9844C603.178 62.0469 602.944 62.1016 602.684 62.1484C602.423 62.1953 602.165 62.237 601.91 62.2734C601.655 62.3099 601.434 62.3411 601.246 62.3672C600.824 62.4245 600.447 62.5182 600.113 62.6484C599.78 62.7786 599.517 62.9609 599.324 63.1953C599.132 63.4245 599.035 63.7214 599.035 64.0859C599.035 64.6068 599.225 65 599.605 65.2656C599.986 65.5312 600.47 65.6641 601.059 65.6641ZM612.332 60.4687V67.5H609.504V55.5H612.207V57.5391H612.348C612.624 56.8672 613.064 56.3333 613.668 55.9375C614.277 55.5417 615.03 55.3438 615.926 55.3438C616.754 55.3438 617.475 55.5208 618.09 55.875C618.71 56.2292 619.189 56.7422 619.527 57.4141C619.871 58.0859 620.04 58.901 620.035 59.8594V67.5H617.207V60.2969C617.207 59.4948 616.999 58.8672 616.582 58.4141C616.171 57.9609 615.6 57.7344 614.871 57.7344C614.376 57.7344 613.936 57.8437 613.551 58.0625C613.171 58.276 612.871 58.5859 612.652 58.9922C612.439 59.3984 612.332 59.8906 612.332 60.4687ZM628.145 67.7344C626.947 67.7344 625.918 67.4714 625.059 66.9453C624.204 66.4193 623.546 65.6927 623.082 64.7656C622.624 63.8333 622.395 62.7604 622.395 61.5469C622.395 60.3281 622.629 59.2526 623.098 58.3203C623.566 57.3828 624.228 56.6536 625.082 56.1328C625.941 55.6068 626.957 55.3438 628.129 55.3438C629.103 55.3438 629.965 55.5234 630.715 55.8828C631.47 56.237 632.072 56.7396 632.52 57.3906C632.967 58.0365 633.223 58.7917 633.285 59.6562H630.582C630.473 59.0781 630.212 58.5964 629.801 58.2109C629.395 57.8203 628.85 57.625 628.168 57.625C627.59 57.625 627.082 57.7812 626.645 58.0937C626.207 58.401 625.866 58.8437 625.621 59.4219C625.382 60 625.262 60.6927 625.262 61.5C625.262 62.3177 625.382 63.0208 625.621 63.6094C625.861 64.1927 626.197 64.6432 626.629 64.9609C627.066 65.2734 627.579 65.4297 628.168 65.4297C628.585 65.4297 628.957 65.3516 629.285 65.1953C629.618 65.0339 629.897 64.8021 630.121 64.5C630.345 64.1979 630.499 63.8307 630.582 63.3984H633.285C633.217 64.2474 632.967 65 632.535 65.6562C632.103 66.3073 631.514 66.8177 630.77 67.1875C630.025 67.5521 629.15 67.7344 628.145 67.7344ZM640.92 67.7344C639.717 67.7344 638.678 67.4844 637.803 66.9844C636.933 66.4792 636.264 65.7656 635.795 64.8437C635.326 63.9167 635.092 62.8255 635.092 61.5703C635.092 60.3359 635.326 59.2526 635.795 58.3203C636.269 57.3828 636.93 56.6536 637.779 56.1328C638.628 55.6068 639.626 55.3438 640.771 55.3438C641.511 55.3438 642.209 55.4635 642.865 55.7031C643.527 55.9375 644.11 56.3021 644.615 56.7969C645.126 57.2917 645.527 57.9219 645.818 58.6875C646.11 59.4479 646.256 60.3542 646.256 61.4062V62.2734H636.42V60.3672H643.545C643.54 59.8255 643.423 59.3437 643.193 58.9219C642.964 58.4948 642.644 58.1589 642.232 57.9141C641.826 57.6693 641.352 57.5469 640.811 57.5469C640.232 57.5469 639.725 57.6875 639.287 57.9687C638.85 58.2448 638.508 58.6094 638.264 59.0625C638.024 59.5104 637.902 60.0026 637.896 60.5391V62.2031C637.896 62.901 638.024 63.5 638.279 64C638.535 64.4948 638.891 64.875 639.35 65.1406C639.808 65.401 640.344 65.5312 640.959 65.5312C641.37 65.5312 641.743 65.474 642.076 65.3594C642.41 65.2396 642.699 65.0651 642.943 64.8359C643.188 64.6068 643.373 64.3229 643.498 63.9844L646.139 64.2812C645.972 64.9792 645.654 65.5885 645.186 66.1094C644.722 66.625 644.128 67.026 643.404 67.3125C642.68 67.5937 641.852 67.7344 640.92 67.7344ZM651.477 51.5V67.5H648.648V51.5H651.477Z" fill="#FF5833"/>
<mask id="path-12-inside-2_379_6586" fill="white">
<path d="M44 162C44 158.229 44 156.343 45.1716 155.172C46.3431 154 48.2288 154 52 154H104V214H52C48.2288 214 46.3431 214 45.1716 212.828C44 211.657 44 209.771 44 206V162Z"/>
</mask>
<path d="M44 162C44 158.229 44 156.343 45.1716 155.172C46.3431 154 48.2288 154 52 154H104V214H52C48.2288 214 46.3431 214 45.1716 212.828C44 211.657 44 209.771 44 206V162Z" fill="#DEDEDE"/>
<path d="M104 154H105V153H104V154ZM104 214V215H105V214H104ZM45.1716 212.828L44.4645 213.536L45.1716 212.828ZM52 155H104V153H52V155ZM103 154V214H105V154H103ZM104 213H52V215H104V213ZM45 206V162H43V206H45ZM52 213C50.0861 213 48.7513 212.998 47.7442 212.862C46.7658 212.731 46.2477 212.49 45.8787 212.121L44.4645 213.536C45.267 214.338 46.2775 214.683 47.4777 214.845C48.649 215.002 50.1427 215 52 215V213ZM43 206C43 207.857 42.9979 209.351 43.1554 210.522C43.3167 211.722 43.6619 212.733 44.4645 213.536L45.8787 212.121C45.5097 211.752 45.2691 211.234 45.1375 210.256C45.0021 209.249 45 207.914 45 206H43ZM52 153C50.1427 153 48.649 152.998 47.4777 153.155C46.2775 153.317 45.267 153.662 44.4645 154.464L45.8787 155.879C46.2477 155.51 46.7658 155.269 47.7442 155.138C48.7513 155.002 50.0861 155 52 155V153ZM45 162C45 160.086 45.0021 158.751 45.1375 157.744C45.2691 156.766 45.5097 156.248 45.8787 155.879L44.4645 154.464C43.6619 155.267 43.3167 156.278 43.1554 157.478C42.9979 158.649 43 160.143 43 162H45Z" fill="black" fill-opacity="0.6" mask="url(#path-12-inside-2_379_6586)"/>
<path d="M83.375 174H79.625V172.125C79.625 171.959 79.5592 171.8 79.4419 171.683C79.3247 171.566 79.1658 171.5 79 171.5C78.8342 171.5 78.6753 171.566 78.5581 171.683C78.4408 171.8 78.375 171.959 78.375 172.125V174H69.625V172.125C69.625 171.959 69.5592 171.8 69.4419 171.683C69.3247 171.566 69.1658 171.5 69 171.5C68.8342 171.5 68.6753 171.566 68.5581 171.683C68.4408 171.8 68.375 171.959 68.375 172.125V174H64.625C63.7965 174.001 63.0022 174.331 62.4164 174.916C61.8306 175.502 61.501 176.297 61.5 177.125V193.375C61.501 194.203 61.8306 194.998 62.4164 195.584C63.0022 196.169 63.7965 196.499 64.625 196.5H83.375C84.2038 196.5 84.9987 196.171 85.5847 195.585C86.1708 194.999 86.5 194.204 86.5 193.375V177.125C86.5 176.296 86.1708 175.501 85.5847 174.915C84.9987 174.329 84.2038 174 83.375 174ZM85.25 193.375C85.25 193.872 85.0525 194.349 84.7008 194.701C84.3492 195.052 83.8723 195.25 83.375 195.25H64.625C64.1277 195.25 63.6508 195.052 63.2992 194.701C62.9475 194.349 62.75 193.872 62.75 193.375V182.75H85.25V193.375ZM85.25 181.5H62.75V177.125C62.75 176.09 63.5875 175.25 64.625 175.25H68.375V177.125C68.375 177.291 68.4408 177.45 68.5581 177.567C68.6753 177.684 68.8342 177.75 69 177.75C69.1658 177.75 69.3247 177.684 69.4419 177.567C69.5592 177.45 69.625 177.291 69.625 177.125V175.25H78.375V177.125C78.375 177.291 78.4408 177.45 78.5581 177.567C78.6753 177.684 78.8342 177.75 79 177.75C79.1658 177.75 79.3247 177.684 79.4419 177.567C79.5592 177.45 79.625 177.291 79.625 177.125V175.25H83.375C83.8723 175.25 84.3492 175.448 84.7008 175.799C85.0525 176.151 85.25 176.628 85.25 177.125V181.5Z" fill="#404040"/>
<mask id="path-15-inside-3_379_6586" fill="white">
<path d="M104 154H660C663.771 154 665.657 154 666.828 155.172C668 156.343 668 158.229 668 162V206C668 209.771 668 211.657 666.828 212.828C665.657 214 663.771 214 660 214H104V154Z"/>
</mask>
<path d="M104 153H664C666.761 153 669 155.239 669 158H667C667 156.343 665.657 155 664 155H104V153ZM669 210C669 212.761 666.761 215 664 215H104V213H664C665.657 213 667 211.657 667 210H669ZM104 214V154V214ZM664 153C666.761 153 669 155.239 669 158V210C669 212.761 666.761 215 664 215V213C665.657 213 667 211.657 667 210V158C667 156.343 665.657 155 664 155V153Z" fill="black" fill-opacity="0.6" mask="url(#path-15-inside-3_379_6586)"/>
<path d="M125.211 178.844V176.955H136.468V178.844H131.93V191.5H129.742V178.844H125.211ZM141.798 191.72C140.775 191.72 139.883 191.486 139.121 191.017C138.358 190.548 137.766 189.893 137.345 189.05C136.924 188.207 136.713 187.222 136.713 186.095C136.713 184.964 136.924 183.974 137.345 183.126C137.766 182.279 138.358 181.621 139.121 181.152C139.883 180.683 140.775 180.449 141.798 180.449C142.821 180.449 143.713 180.683 144.476 181.152C145.238 181.621 145.83 182.279 146.251 183.126C146.673 183.974 146.883 184.964 146.883 186.095C146.883 187.222 146.673 188.207 146.251 189.05C145.83 189.893 145.238 190.548 144.476 191.017C143.713 191.486 142.821 191.72 141.798 191.72ZM141.805 189.938C142.468 189.938 143.017 189.762 143.453 189.412C143.889 189.062 144.211 188.595 144.419 188.013C144.632 187.43 144.738 186.789 144.738 186.088C144.738 185.392 144.632 184.753 144.419 184.17C144.211 183.583 143.889 183.112 143.453 182.757C143.017 182.402 142.468 182.224 141.805 182.224C141.138 182.224 140.584 182.402 140.143 182.757C139.708 183.112 139.383 183.583 139.17 184.17C138.962 184.753 138.858 185.392 138.858 186.088C138.858 186.789 138.962 187.43 139.17 188.013C139.383 188.595 139.708 189.062 140.143 189.412C140.584 189.762 141.138 189.938 141.805 189.938ZM153.338 191.713C152.457 191.713 151.671 191.488 150.98 191.038C150.293 190.584 149.753 189.937 149.36 189.099C148.972 188.257 148.778 187.246 148.778 186.067C148.778 184.888 148.974 183.879 149.367 183.041C149.765 182.203 150.31 181.562 151.001 181.116C151.692 180.671 152.476 180.449 153.352 180.449C154.029 180.449 154.573 180.562 154.985 180.79C155.402 181.012 155.724 181.273 155.951 181.571C156.183 181.869 156.363 182.132 156.491 182.359H156.619V176.955H158.742V191.5H156.669V189.803H156.491C156.363 190.035 156.178 190.3 155.937 190.598C155.7 190.896 155.374 191.157 154.957 191.379C154.54 191.602 154 191.713 153.338 191.713ZM153.806 189.902C154.417 189.902 154.933 189.741 155.355 189.419C155.781 189.092 156.103 188.64 156.32 188.062C156.543 187.485 156.654 186.812 156.654 186.045C156.654 185.288 156.545 184.625 156.328 184.057C156.11 183.489 155.79 183.046 155.369 182.729C154.947 182.411 154.427 182.253 153.806 182.253C153.167 182.253 152.634 182.419 152.208 182.75C151.782 183.081 151.46 183.534 151.242 184.107C151.029 184.679 150.923 185.326 150.923 186.045C150.923 186.775 151.032 187.43 151.249 188.013C151.467 188.595 151.789 189.057 152.215 189.398C152.646 189.734 153.177 189.902 153.806 189.902ZM164.948 191.741C164.257 191.741 163.632 191.614 163.073 191.358C162.514 191.098 162.072 190.721 161.745 190.229C161.423 189.736 161.262 189.133 161.262 188.418C161.262 187.802 161.38 187.295 161.617 186.898C161.854 186.5 162.173 186.185 162.576 185.953C162.978 185.721 163.428 185.546 163.925 185.428C164.422 185.309 164.929 185.219 165.445 185.158C166.099 185.082 166.629 185.02 167.036 184.973C167.443 184.921 167.739 184.838 167.924 184.724C168.108 184.611 168.201 184.426 168.201 184.17V184.121C168.201 183.5 168.026 183.02 167.675 182.679C167.33 182.338 166.814 182.168 166.127 182.168C165.412 182.168 164.849 182.326 164.437 182.643C164.029 182.956 163.748 183.304 163.591 183.688L161.596 183.233C161.832 182.57 162.178 182.035 162.633 181.628C163.092 181.216 163.62 180.918 164.216 180.733C164.813 180.544 165.44 180.449 166.099 180.449C166.534 180.449 166.996 180.501 167.483 180.605C167.976 180.705 168.435 180.889 168.861 181.159C169.292 181.429 169.645 181.815 169.92 182.317C170.194 182.814 170.331 183.46 170.331 184.256V191.5H168.258V190.009H168.172C168.035 190.283 167.829 190.553 167.555 190.818C167.28 191.083 166.927 191.304 166.496 191.479C166.065 191.654 165.549 191.741 164.948 191.741ZM165.41 190.037C165.997 190.037 166.499 189.921 166.915 189.689C167.337 189.457 167.656 189.154 167.874 188.78C168.097 188.401 168.208 187.996 168.208 187.565V186.159C168.132 186.235 167.985 186.306 167.768 186.372C167.555 186.434 167.311 186.488 167.036 186.536C166.761 186.578 166.494 186.618 166.233 186.656C165.973 186.689 165.755 186.718 165.58 186.741C165.168 186.794 164.792 186.881 164.451 187.004C164.115 187.127 163.845 187.305 163.641 187.537C163.442 187.764 163.343 188.067 163.343 188.446C163.343 188.972 163.537 189.369 163.925 189.639C164.314 189.904 164.808 190.037 165.41 190.037ZM174.112 195.591C173.794 195.591 173.506 195.565 173.245 195.513C172.985 195.465 172.791 195.413 172.663 195.357L173.174 193.616C173.562 193.721 173.908 193.766 174.211 193.751C174.514 193.737 174.782 193.624 175.014 193.411C175.25 193.197 175.459 192.849 175.639 192.366L175.901 191.642L171.91 180.591H174.183L176.945 189.057H177.059L179.822 180.591H182.102L177.606 192.956C177.398 193.524 177.133 194.005 176.811 194.398C176.489 194.795 176.105 195.094 175.66 195.293C175.215 195.491 174.699 195.591 174.112 195.591Z" fill="black"/>
<path d="M629.666 180.667L637.999 189L646.333 180.667" stroke="black" stroke-width="2" stroke-linecap="round" stroke-linejoin="round"/>
<mask id="path-19-inside-4_379_6586" fill="white">
<path d="M44 252C44 248.229 44 246.343 45.1716 245.172C46.3431 244 48.2288 244 52 244H104V304H52C48.2288 304 46.3431 304 45.1716 302.828C44 301.657 44 299.771 44 296V252Z"/>
</mask>
<path d="M44 252C44 248.229 44 246.343 45.1716 245.172C46.3431 244 48.2288 244 52 244H104V304H52C48.2288 304 46.3431 304 45.1716 302.828C44 301.657 44 299.771 44 296V252Z" fill="#DEDEDE"/>
<path d="M104 244H105V243H104V244ZM104 304V305H105V304H104ZM45.1716 302.828L44.4645 303.536L45.1716 302.828ZM52 245H104V243H52V245ZM103 244V304H105V244H103ZM104 303H52V305H104V303ZM45 296V252H43V296H45ZM52 303C50.0861 303 48.7513 302.998 47.7442 302.862C46.7658 302.731 46.2477 302.49 45.8787 302.121L44.4645 303.536C45.267 304.338 46.2775 304.683 47.4777 304.845C48.649 305.002 50.1427 305 52 305V303ZM43 296C43 297.857 42.9979 299.351 43.1554 300.522C43.3167 301.722 43.6619 302.733 44.4645 303.536L45.8787 302.121C45.5097 301.752 45.2691 301.234 45.1375 300.256C45.0021 299.249 45 297.914 45 296H43ZM52 243C50.1427 243 48.649 242.998 47.4777 243.155C46.2775 243.317 45.267 243.662 44.4645 244.464L45.8787 245.879C46.2477 245.51 46.7658 245.269 47.7442 245.138C48.7513 245.002 50.0861 245 52 245V243ZM45 252C45 250.086 45.0021 248.751 45.1375 247.744C45.2691 246.766 45.5097 246.248 45.8787 245.879L44.4645 244.464C43.6619 245.267 43.3167 246.278 43.1554 247.478C42.9979 248.649 43 250.143 43 252H45Z" fill="black" fill-opacity="0.6" mask="url(#path-19-inside-4_379_6586)"/>
<path d="M61.5 274.022C61.5 271.758 62.0662 269.659 63.1874 267.739C64.3086 265.818 65.8295 264.298 67.75 263.176C69.6705 262.055 71.7575 261.5 74.0111 261.5C75.6985 261.5 77.3193 261.833 78.8623 262.488C80.4054 263.143 81.7265 264.042 82.8477 265.152C83.9689 266.262 84.857 267.595 85.512 269.149C86.167 270.703 86.5 272.313 86.5 274.022C86.5 275.71 86.167 277.33 85.512 278.873C84.857 280.417 83.9578 281.749 82.8477 282.859C81.7376 283.969 80.4054 284.857 78.8623 285.512C77.3193 286.167 75.7096 286.5 74.0111 286.5C72.3126 286.5 70.6807 286.167 69.1377 285.512C67.5946 284.857 66.2624 283.958 65.1412 282.848C64.02 281.738 63.143 280.405 62.4769 278.873C61.8108 277.341 61.5 275.721 61.5 274.022ZM64.2531 274.022C64.2531 276.653 65.2078 278.94 67.1283 280.883C69.0488 282.803 71.3357 283.758 74.0111 283.758C75.7651 283.758 77.397 283.325 78.8845 282.448C80.3721 281.571 81.571 280.394 82.448 278.896C83.325 277.397 83.7691 275.776 83.7691 274.022C83.7691 272.268 83.325 270.636 82.448 269.138C81.571 267.639 80.3832 266.451 78.8845 265.574C77.3859 264.697 75.7651 264.264 74.0111 264.264C72.2571 264.264 70.6252 264.697 69.1377 265.574C67.6501 266.451 66.4512 267.639 65.5631 269.138C64.675 270.636 64.2531 272.268 64.2531 274.022ZM73.0453 274.022V266.629C73.0453 266.373 73.1341 266.151 73.3117 265.974C73.4893 265.796 73.7114 265.707 73.9667 265.707C74.222 265.707 74.4441 265.796 74.6217 265.974C74.7993 266.151 74.8881 266.373 74.8881 266.629V273.456L78.8734 275.776C79.0955 275.909 79.2287 276.098 79.2953 276.342C79.3619 276.587 79.3286 276.82 79.1954 277.031C79.0178 277.341 78.7513 277.497 78.3961 277.497C78.2074 277.497 78.052 277.452 77.9298 277.364L73.6892 274.888C73.5004 274.833 73.345 274.722 73.2229 274.566C73.1008 274.411 73.0453 274.233 73.0453 274.022Z" fill="#404040"/>
<mask id="path-22-inside-5_379_6586" fill="white">
<path d="M104 244H660C663.771 244 665.657 244 666.828 245.172C668 246.343 668 248.229 668 252V296C668 299.771 668 301.657 666.828 302.828C665.657 304 663.771 304 660 304H104V244Z"/>
</mask>
<path d="M104 243H664C666.761 243 669 245.239 669 248H667C667 246.343 665.657 245 664 245H104V243ZM669 300C669 302.761 666.761 305 664 305H104V303H664C665.657 303 667 301.657 667 300H669ZM104 304V244V304ZM664 243C666.761 243 669 245.239 669 248V300C669 302.761 666.761 305 664 305V303C665.657 303 667 301.657 667 300V248C667 246.343 665.657 245 664 245V243Z" fill="black" fill-opacity="0.6" mask="url(#path-22-inside-5_379_6586)"/>
<path d="M130.964 266.955V281.5H128.763V269.156H128.678L125.197 271.429V269.327L128.827 266.955H130.964ZM134.899 281.5V279.909L139.821 274.81C140.347 274.256 140.78 273.77 141.121 273.354C141.466 272.932 141.724 272.532 141.895 272.153C142.065 271.775 142.151 271.372 142.151 270.946C142.151 270.463 142.037 270.046 141.81 269.696C141.582 269.341 141.272 269.069 140.879 268.879C140.486 268.685 140.044 268.588 139.551 268.588C139.03 268.588 138.576 268.695 138.188 268.908C137.799 269.121 137.501 269.421 137.293 269.81C137.084 270.198 136.98 270.652 136.98 271.173H134.885C134.885 270.288 135.089 269.514 135.496 268.851C135.903 268.188 136.462 267.674 137.172 267.31C137.882 266.94 138.689 266.756 139.594 266.756C140.508 266.756 141.313 266.938 142.009 267.303C142.709 267.662 143.256 268.155 143.649 268.78C144.042 269.4 144.239 270.101 144.239 270.882C144.239 271.422 144.137 271.95 143.933 272.466C143.734 272.982 143.386 273.557 142.889 274.192C142.392 274.821 141.701 275.586 140.815 276.486L137.925 279.511V279.618H144.473V281.5H134.899ZM148.592 279.696C148.204 279.696 147.87 279.559 147.591 279.284C147.312 279.005 147.172 278.669 147.172 278.276C147.172 277.887 147.312 277.556 147.591 277.281C147.87 277.002 148.204 276.862 148.592 276.862C148.981 276.862 149.314 277.002 149.594 277.281C149.873 277.556 150.013 277.887 150.013 278.276C150.013 278.536 149.946 278.775 149.814 278.993C149.686 279.206 149.516 279.376 149.303 279.504C149.089 279.632 148.853 279.696 148.592 279.696ZM148.592 272.409C148.204 272.409 147.87 272.272 147.591 271.997C147.312 271.718 147.172 271.382 147.172 270.989C147.172 270.6 147.312 270.269 147.591 269.994C147.87 269.715 148.204 269.575 148.592 269.575C148.981 269.575 149.314 269.715 149.594 269.994C149.873 270.269 150.013 270.6 150.013 270.989C150.013 271.249 149.946 271.488 149.814 271.706C149.686 271.919 149.516 272.089 149.303 272.217C149.089 272.345 148.853 272.409 148.592 272.409ZM152.523 278.659V276.884L158.809 266.955H160.208V269.568H159.32L154.825 276.685V276.798H163.44V278.659H152.523ZM159.42 281.5V278.119L159.434 277.31V266.955H161.515V281.5H159.42ZM170.716 281.699C169.826 281.699 169.026 281.528 168.315 281.188C167.61 280.842 167.046 280.368 166.625 279.767C166.204 279.166 165.979 278.479 165.95 277.707H168.081C168.133 278.332 168.41 278.846 168.912 279.249C169.414 279.651 170.015 279.852 170.716 279.852C171.275 279.852 171.769 279.724 172.2 279.469C172.636 279.208 172.977 278.851 173.223 278.396C173.474 277.942 173.599 277.423 173.599 276.841C173.599 276.249 173.472 275.721 173.216 275.257C172.96 274.793 172.607 274.429 172.158 274.163C171.713 273.898 171.201 273.763 170.624 273.759C170.183 273.759 169.741 273.834 169.295 273.986C168.85 274.137 168.491 274.336 168.216 274.582L166.206 274.284L167.023 266.955H175.02V268.837H168.848L168.386 272.906H168.472C168.756 272.632 169.132 272.402 169.601 272.217C170.074 272.033 170.581 271.94 171.121 271.94C172.006 271.94 172.795 272.151 173.486 272.572C174.182 272.994 174.729 273.569 175.126 274.298C175.529 275.023 175.728 275.856 175.723 276.798C175.728 277.741 175.515 278.581 175.084 279.32C174.658 280.058 174.066 280.641 173.308 281.067C172.555 281.488 171.691 281.699 170.716 281.699ZM183.809 281.5V266.955H188.994C190.125 266.955 191.063 267.161 191.806 267.572C192.549 267.984 193.106 268.548 193.475 269.263C193.844 269.973 194.029 270.773 194.029 271.663C194.029 272.558 193.842 273.363 193.468 274.078C193.099 274.788 192.54 275.352 191.792 275.768C191.049 276.18 190.113 276.386 188.987 276.386H185.421V274.526H188.788C189.503 274.526 190.083 274.402 190.528 274.156C190.973 273.905 191.299 273.564 191.508 273.134C191.716 272.703 191.82 272.213 191.82 271.663C191.82 271.114 191.716 270.626 191.508 270.2C191.299 269.774 190.97 269.44 190.521 269.199C190.076 268.957 189.488 268.837 188.759 268.837H186.004V281.5H183.809ZM196.602 266.955H199.265L203.896 278.261H204.066L208.697 266.955H211.36V281.5H209.272V270.974H209.137L204.848 281.479H203.115L198.825 270.967H198.69V281.5H196.602V266.955Z" fill="black"/>
<path d="M629.666 270.667L637.999 279L646.333 270.667" stroke="black" stroke-width="2" stroke-linecap="round" stroke-linejoin="round"/>
<g filter="url(#filter0_d_379_6586)">
<rect x="104" y="312" width="564" height="300" rx="10" fill="white" shape-rendering="crispEdges"/>
<path d="M131.298 334.955V349.5H129.097V337.156H129.012L125.531 339.429V337.327L129.161 334.955H131.298ZM135.233 349.5V347.909L140.155 342.81C140.681 342.256 141.114 341.77 141.455 341.354C141.8 340.932 142.058 340.532 142.229 340.153C142.399 339.775 142.485 339.372 142.485 338.946C142.485 338.463 142.371 338.046 142.144 337.696C141.916 337.341 141.606 337.069 141.213 336.879C140.82 336.685 140.378 336.588 139.885 336.588C139.364 336.588 138.91 336.695 138.521 336.908C138.133 337.121 137.835 337.421 137.627 337.81C137.418 338.198 137.314 338.652 137.314 339.173H135.219C135.219 338.288 135.423 337.514 135.83 336.851C136.237 336.188 136.796 335.674 137.506 335.31C138.216 334.94 139.023 334.756 139.928 334.756C140.842 334.756 141.646 334.938 142.343 335.303C143.043 335.662 143.59 336.155 143.983 336.78C144.376 337.4 144.573 338.101 144.573 338.882C144.573 339.422 144.471 339.95 144.267 340.466C144.068 340.982 143.72 341.557 143.223 342.192C142.726 342.821 142.035 343.586 141.149 344.486L138.259 347.511V347.618H144.807V349.5H135.233ZM148.926 347.696C148.538 347.696 148.204 347.559 147.925 347.284C147.646 347.005 147.506 346.669 147.506 346.276C147.506 345.887 147.646 345.556 147.925 345.281C148.204 345.002 148.538 344.862 148.926 344.862C149.315 344.862 149.648 345.002 149.928 345.281C150.207 345.556 150.347 345.887 150.347 346.276C150.347 346.536 150.28 346.775 150.148 346.993C150.02 347.206 149.85 347.376 149.637 347.504C149.423 347.632 149.187 347.696 148.926 347.696ZM148.926 340.409C148.538 340.409 148.204 340.272 147.925 339.997C147.646 339.718 147.506 339.382 147.506 338.989C147.506 338.6 147.646 338.269 147.925 337.994C148.204 337.715 148.538 337.575 148.926 337.575C149.315 337.575 149.648 337.715 149.928 337.994C150.207 338.269 150.347 338.6 150.347 338.989C150.347 339.249 150.28 339.488 150.148 339.706C150.02 339.919 149.85 340.089 149.637 340.217C149.423 340.345 149.187 340.409 148.926 340.409ZM158.227 349.741C157.105 349.737 156.146 349.441 155.35 348.854C154.555 348.267 153.946 347.412 153.525 346.29C153.104 345.168 152.893 343.816 152.893 342.234C152.893 340.658 153.104 339.311 153.525 338.193C153.951 337.076 154.562 336.223 155.357 335.636C156.158 335.049 157.114 334.756 158.227 334.756C159.339 334.756 160.294 335.052 161.089 335.643C161.884 336.231 162.493 337.083 162.914 338.2C163.34 339.313 163.553 340.658 163.553 342.234C163.553 343.821 163.343 345.175 162.921 346.297C162.5 347.414 161.892 348.269 161.096 348.861C160.301 349.448 159.344 349.741 158.227 349.741ZM158.227 347.845C159.212 347.845 159.981 347.365 160.535 346.403C161.094 345.442 161.373 344.053 161.373 342.234C161.373 341.027 161.245 340.007 160.99 339.173C160.739 338.335 160.376 337.701 159.903 337.27C159.434 336.834 158.875 336.616 158.227 336.616C157.247 336.616 156.477 337.099 155.919 338.065C155.36 339.031 155.078 340.421 155.073 342.234C155.073 343.446 155.199 344.472 155.45 345.31C155.705 346.143 156.068 346.775 156.536 347.206C157.005 347.632 157.569 347.845 158.227 347.845ZM171.137 349.741C170.015 349.737 169.056 349.441 168.26 348.854C167.465 348.267 166.857 347.412 166.435 346.29C166.014 345.168 165.803 343.816 165.803 342.234C165.803 340.658 166.014 339.311 166.435 338.193C166.861 337.076 167.472 336.223 168.268 335.636C169.068 335.049 170.024 334.756 171.137 334.756C172.25 334.756 173.204 335.052 173.999 335.643C174.795 336.231 175.403 337.083 175.824 338.2C176.251 339.313 176.464 340.658 176.464 342.234C176.464 343.821 176.253 345.175 175.831 346.297C175.41 347.414 174.802 348.269 174.006 348.861C173.211 349.448 172.254 349.741 171.137 349.741ZM171.137 347.845C172.122 347.845 172.891 347.365 173.445 346.403C174.004 345.442 174.283 344.053 174.283 342.234C174.283 341.027 174.155 340.007 173.9 339.173C173.649 338.335 173.287 337.701 172.813 337.27C172.344 336.834 171.786 336.616 171.137 336.616C170.157 336.616 169.387 337.099 168.829 338.065C168.27 339.031 167.988 340.421 167.983 342.234C167.983 343.446 168.109 344.472 168.36 345.31C168.616 346.143 168.978 346.775 169.447 347.206C169.915 347.632 170.479 347.845 171.137 347.845ZM184.475 349.5V334.955H189.66C190.791 334.955 191.729 335.161 192.472 335.572C193.215 335.984 193.772 336.548 194.141 337.263C194.51 337.973 194.695 338.773 194.695 339.663C194.695 340.558 194.508 341.363 194.134 342.078C193.765 342.788 193.206 343.352 192.458 343.768C191.715 344.18 190.779 344.386 189.653 344.386H186.087V342.526H189.454C190.169 342.526 190.749 342.402 191.194 342.156C191.639 341.905 191.965 341.564 192.174 341.134C192.382 340.703 192.486 340.213 192.486 339.663C192.486 339.114 192.382 338.626 192.174 338.2C191.965 337.774 191.636 337.44 191.187 337.199C190.742 336.957 190.154 336.837 189.425 336.837H186.67V349.5H184.475ZM197.268 334.955H199.931L204.562 346.261H204.732L209.363 334.955H212.026V349.5H209.938V338.974H209.803L205.514 349.479H203.781L199.491 338.967H199.356V349.5H197.268V334.955Z" fill="black"/>
<path d="M130.623 409.741C129.501 409.737 128.542 409.441 127.747 408.854C126.951 408.267 126.343 407.412 125.922 406.29C125.5 405.168 125.289 403.816 125.289 402.234C125.289 400.658 125.5 399.311 125.922 398.193C126.348 397.076 126.958 396.223 127.754 395.636C128.554 395.049 129.511 394.756 130.623 394.756C131.736 394.756 132.69 395.052 133.485 395.643C134.281 396.231 134.889 397.083 135.311 398.2C135.737 399.313 135.95 400.658 135.95 402.234C135.95 403.821 135.739 405.175 135.318 406.297C134.896 407.414 134.288 408.269 133.493 408.861C132.697 409.448 131.741 409.741 130.623 409.741ZM130.623 407.845C131.608 407.845 132.377 407.365 132.931 406.403C133.49 405.442 133.77 404.053 133.77 402.234C133.77 401.027 133.642 400.007 133.386 399.173C133.135 398.335 132.773 397.701 132.299 397.27C131.831 396.834 131.272 396.616 130.623 396.616C129.643 396.616 128.874 397.099 128.315 398.065C127.756 399.031 127.475 400.421 127.47 402.234C127.47 403.446 127.595 404.472 127.846 405.31C128.102 406.143 128.464 406.775 128.933 407.206C129.402 407.632 129.965 407.845 130.623 407.845ZM143.988 394.955V409.5H141.786V397.156H141.701L138.221 399.429V397.327L141.85 394.955H143.988ZM149.35 407.696C148.962 407.696 148.628 407.559 148.349 407.284C148.069 407.005 147.93 406.669 147.93 406.276C147.93 405.887 148.069 405.556 148.349 405.281C148.628 405.002 148.962 404.862 149.35 404.862C149.738 404.862 150.072 405.002 150.352 405.281C150.631 405.556 150.771 405.887 150.771 406.276C150.771 406.536 150.704 406.775 150.572 406.993C150.444 407.206 150.273 407.376 150.06 407.504C149.847 407.632 149.611 407.696 149.35 407.696ZM149.35 400.409C148.962 400.409 148.628 400.272 148.349 399.997C148.069 399.718 147.93 399.382 147.93 398.989C147.93 398.6 148.069 398.269 148.349 397.994C148.628 397.715 148.962 397.575 149.35 397.575C149.738 397.575 150.072 397.715 150.352 397.994C150.631 398.269 150.771 398.6 150.771 398.989C150.771 399.249 150.704 399.488 150.572 399.706C150.444 399.919 150.273 400.089 150.06 400.217C149.847 400.345 149.611 400.409 149.35 400.409ZM159.105 394.955V409.5H156.903V397.156H156.818L153.338 399.429V397.327L156.967 394.955H159.105ZM167.841 409.699C166.951 409.699 166.151 409.528 165.44 409.188C164.735 408.842 164.171 408.368 163.75 407.767C163.329 407.166 163.104 406.479 163.075 405.707H165.206C165.258 406.332 165.535 406.846 166.037 407.249C166.539 407.651 167.14 407.852 167.841 407.852C168.4 407.852 168.894 407.724 169.325 407.469C169.761 407.208 170.102 406.851 170.348 406.396C170.599 405.942 170.724 405.423 170.724 404.841C170.724 404.249 170.597 403.721 170.341 403.257C170.085 402.793 169.732 402.429 169.283 402.163C168.838 401.898 168.326 401.763 167.749 401.759C167.308 401.759 166.866 401.834 166.42 401.986C165.975 402.137 165.616 402.336 165.341 402.582L163.331 402.284L164.148 394.955H172.145V396.837H165.973L165.511 400.906H165.597C165.881 400.632 166.257 400.402 166.726 400.217C167.199 400.033 167.706 399.94 168.246 399.94C169.131 399.94 169.92 400.151 170.611 400.572C171.307 400.994 171.854 401.569 172.251 402.298C172.654 403.023 172.853 403.856 172.848 404.798C172.853 405.741 172.64 406.581 172.209 407.32C171.783 408.058 171.191 408.641 170.433 409.067C169.68 409.488 168.816 409.699 167.841 409.699ZM180.934 409.5V394.955H186.119C187.25 394.955 188.188 395.161 188.931 395.572C189.674 395.984 190.231 396.548 190.6 397.263C190.969 397.973 191.154 398.773 191.154 399.663C191.154 400.558 190.967 401.363 190.593 402.078C190.224 402.788 189.665 403.352 188.917 403.768C188.174 404.18 187.238 404.386 186.112 404.386H182.546V402.526H185.913C186.628 402.526 187.208 402.402 187.653 402.156C188.098 401.905 188.424 401.564 188.633 401.134C188.841 400.703 188.945 400.213 188.945 399.663C188.945 399.114 188.841 398.626 188.633 398.2C188.424 397.774 188.095 397.44 187.646 397.199C187.201 396.957 186.613 396.837 185.884 396.837H183.129V409.5H180.934ZM193.727 394.955H196.39L201.021 406.261H201.191L205.822 394.955H208.485V409.5H206.397V398.974H206.262L201.973 409.479H200.24L195.95 398.967H195.815V409.5H193.727V394.955ZM217.417 402.227C217.417 400.447 217.651 398.809 218.12 397.312C218.588 395.816 219.273 394.436 220.172 393.172H222.118C221.768 393.641 221.441 394.216 221.138 394.898C220.835 395.58 220.57 396.328 220.343 397.142C220.115 397.952 219.938 398.792 219.81 399.663C219.682 400.53 219.618 401.384 219.618 402.227C219.618 403.354 219.73 404.495 219.952 405.651C220.175 406.806 220.475 407.878 220.854 408.868C221.233 409.857 221.654 410.665 222.118 411.29H220.172C219.273 410.026 218.588 408.645 218.12 407.149C217.651 405.653 217.417 404.012 217.417 402.227ZM236.268 394.955V409.5H234.251L226.857 398.832H226.722V409.5H224.528V394.955H226.559L233.96 405.636H234.094V394.955H236.268ZM243.894 409.72C242.871 409.72 241.979 409.486 241.216 409.017C240.454 408.548 239.862 407.893 239.441 407.05C239.019 406.207 238.809 405.222 238.809 404.095C238.809 402.964 239.019 401.974 239.441 401.126C239.862 400.279 240.454 399.621 241.216 399.152C241.979 398.683 242.871 398.449 243.894 398.449C244.917 398.449 245.809 398.683 246.571 399.152C247.334 399.621 247.926 400.279 248.347 401.126C248.768 401.974 248.979 402.964 248.979 404.095C248.979 405.222 248.768 406.207 248.347 407.05C247.926 407.893 247.334 408.548 246.571 409.017C245.809 409.486 244.917 409.72 243.894 409.72ZM243.901 407.938C244.564 407.938 245.113 407.762 245.549 407.412C245.984 407.062 246.306 406.595 246.515 406.013C246.728 405.43 246.834 404.789 246.834 404.088C246.834 403.392 246.728 402.753 246.515 402.17C246.306 401.583 245.984 401.112 245.549 400.757C245.113 400.402 244.564 400.224 243.901 400.224C243.233 400.224 242.679 400.402 242.239 400.757C241.803 401.112 241.479 401.583 241.266 402.17C241.058 402.753 240.953 403.392 240.953 404.088C240.953 404.789 241.058 405.43 241.266 406.013C241.479 406.595 241.803 407.062 242.239 407.412C242.679 407.762 243.233 407.938 243.901 407.938ZM256.442 398.591V400.295H250.483V398.591H256.442ZM252.081 395.977H254.205V406.297C254.205 406.709 254.266 407.019 254.389 407.227C254.512 407.431 254.671 407.571 254.865 407.646C255.064 407.717 255.279 407.753 255.511 407.753C255.682 407.753 255.831 407.741 255.959 407.717C256.087 407.694 256.186 407.675 256.257 407.661L256.641 409.415C256.518 409.462 256.342 409.509 256.115 409.557C255.888 409.609 255.604 409.637 255.263 409.642C254.704 409.652 254.183 409.552 253.7 409.344C253.217 409.135 252.827 408.813 252.528 408.378C252.23 407.942 252.081 407.395 252.081 406.737V395.977ZM265.483 409.5H263.153L268.388 394.955H270.923L276.158 409.5H273.828L269.716 397.597H269.602L265.483 409.5ZM265.874 403.804H273.43V405.651H265.874V403.804ZM286.053 398.591L282.097 409.5H279.824L275.861 398.591H278.141L280.904 406.986H281.017L283.773 398.591H286.053ZM290.911 409.741C290.22 409.741 289.595 409.614 289.036 409.358C288.477 409.098 288.034 408.721 287.708 408.229C287.386 407.736 287.225 407.133 287.225 406.418C287.225 405.802 287.343 405.295 287.58 404.898C287.817 404.5 288.136 404.185 288.539 403.953C288.941 403.721 289.391 403.546 289.888 403.428C290.385 403.309 290.892 403.219 291.408 403.158C292.061 403.082 292.592 403.02 292.999 402.973C293.406 402.921 293.702 402.838 293.887 402.724C294.071 402.611 294.164 402.426 294.164 402.17V402.121C294.164 401.5 293.989 401.02 293.638 400.679C293.292 400.338 292.776 400.168 292.09 400.168C291.375 400.168 290.811 400.326 290.4 400.643C289.992 400.956 289.711 401.304 289.554 401.688L287.559 401.233C287.795 400.57 288.141 400.035 288.596 399.628C289.055 399.216 289.583 398.918 290.179 398.733C290.776 398.544 291.403 398.449 292.061 398.449C292.497 398.449 292.959 398.501 293.446 398.605C293.939 398.705 294.398 398.889 294.824 399.159C295.255 399.429 295.608 399.815 295.882 400.317C296.157 400.814 296.294 401.46 296.294 402.256V409.5H294.221V408.009H294.135C293.998 408.283 293.792 408.553 293.517 408.818C293.243 409.083 292.89 409.304 292.459 409.479C292.028 409.654 291.512 409.741 290.911 409.741ZM291.373 408.037C291.96 408.037 292.462 407.921 292.878 407.689C293.3 407.457 293.619 407.154 293.837 406.78C294.06 406.401 294.171 405.996 294.171 405.565V404.159C294.095 404.235 293.948 404.306 293.73 404.372C293.517 404.434 293.274 404.488 292.999 404.536C292.724 404.578 292.457 404.618 292.196 404.656C291.936 404.689 291.718 404.718 291.543 404.741C291.131 404.794 290.755 404.881 290.414 405.004C290.078 405.127 289.808 405.305 289.604 405.537C289.405 405.764 289.306 406.067 289.306 406.446C289.306 406.972 289.5 407.369 289.888 407.639C290.276 407.904 290.771 408.037 291.373 408.037ZM299.123 409.5V398.591H301.246V409.5H299.123ZM300.195 396.908C299.826 396.908 299.509 396.785 299.244 396.538C298.983 396.287 298.853 395.989 298.853 395.643C298.853 395.293 298.983 394.995 299.244 394.749C299.509 394.498 299.826 394.372 300.195 394.372C300.565 394.372 300.879 394.498 301.14 394.749C301.405 394.995 301.538 395.293 301.538 395.643C301.538 395.989 301.405 396.287 301.14 396.538C300.879 396.785 300.565 396.908 300.195 396.908ZM306.227 394.955V409.5H304.103V394.955H306.227ZM312.259 409.741C311.567 409.741 310.942 409.614 310.384 409.358C309.825 409.098 309.382 408.721 309.055 408.229C308.733 407.736 308.572 407.133 308.572 406.418C308.572 405.802 308.691 405.295 308.928 404.898C309.164 404.5 309.484 404.185 309.886 403.953C310.289 403.721 310.739 403.546 311.236 403.428C311.733 403.309 312.24 403.219 312.756 403.158C313.409 403.082 313.939 403.02 314.347 402.973C314.754 402.921 315.05 402.838 315.234 402.724C315.419 402.611 315.511 402.426 315.511 402.17V402.121C315.511 401.5 315.336 401.02 314.986 400.679C314.64 400.338 314.124 400.168 313.438 400.168C312.723 400.168 312.159 400.326 311.747 400.643C311.34 400.956 311.058 401.304 310.902 401.688L308.906 401.233C309.143 400.57 309.489 400.035 309.943 399.628C310.402 399.216 310.93 398.918 311.527 398.733C312.124 398.544 312.751 398.449 313.409 398.449C313.845 398.449 314.306 398.501 314.794 398.605C315.286 398.705 315.746 398.889 316.172 399.159C316.603 399.429 316.955 399.815 317.23 400.317C317.505 400.814 317.642 401.46 317.642 402.256V409.5H315.568V408.009H315.483C315.346 408.283 315.14 408.553 314.865 408.818C314.59 409.083 314.238 409.304 313.807 409.479C313.376 409.654 312.86 409.741 312.259 409.741ZM312.72 408.037C313.307 408.037 313.809 407.921 314.226 407.689C314.647 407.457 314.967 407.154 315.185 406.78C315.407 406.401 315.518 405.996 315.518 405.565V404.159C315.443 404.235 315.296 404.306 315.078 404.372C314.865 404.434 314.621 404.488 314.347 404.536C314.072 404.578 313.804 404.618 313.544 404.656C313.284 404.689 313.066 404.718 312.891 404.741C312.479 404.794 312.102 404.881 311.761 405.004C311.425 405.127 311.155 405.305 310.952 405.537C310.753 405.764 310.653 406.067 310.653 406.446C310.653 406.972 310.848 407.369 311.236 407.639C311.624 407.904 312.119 408.037 312.72 408.037ZM320.641 409.5V394.955H322.765V400.359H322.892C323.016 400.132 323.193 399.869 323.425 399.571C323.657 399.273 323.979 399.012 324.391 398.79C324.803 398.562 325.347 398.449 326.025 398.449C326.905 398.449 327.691 398.671 328.382 399.116C329.074 399.562 329.616 400.203 330.009 401.041C330.407 401.879 330.605 402.888 330.605 404.067C330.605 405.246 330.409 406.257 330.016 407.099C329.623 407.937 329.083 408.584 328.397 409.038C327.71 409.488 326.926 409.713 326.046 409.713C325.383 409.713 324.841 409.602 324.419 409.379C324.003 409.157 323.676 408.896 323.439 408.598C323.203 408.3 323.02 408.035 322.892 407.803H322.715V409.5H320.641ZM322.722 404.045C322.722 404.812 322.833 405.485 323.056 406.062C323.278 406.64 323.6 407.092 324.022 407.419C324.443 407.741 324.959 407.902 325.57 407.902C326.204 407.902 326.735 407.734 327.161 407.398C327.587 407.057 327.909 406.595 328.127 406.013C328.349 405.43 328.461 404.775 328.461 404.045C328.461 403.326 328.352 402.679 328.134 402.107C327.921 401.534 327.599 401.081 327.168 400.75C326.742 400.419 326.209 400.253 325.57 400.253C324.954 400.253 324.434 400.411 324.007 400.729C323.586 401.046 323.266 401.489 323.049 402.057C322.831 402.625 322.722 403.288 322.722 404.045ZM335.114 394.955V409.5H332.99V394.955H335.114ZM342.672 409.72C341.597 409.72 340.672 409.491 339.895 409.031C339.123 408.567 338.527 407.916 338.105 407.078C337.689 406.235 337.48 405.248 337.48 404.116C337.48 402.999 337.689 402.014 338.105 401.162C338.527 400.31 339.114 399.644 339.867 399.166C340.624 398.688 341.51 398.449 342.523 398.449C343.139 398.449 343.735 398.551 344.313 398.754C344.891 398.958 345.409 399.277 345.868 399.713C346.328 400.149 346.69 400.714 346.955 401.411C347.22 402.102 347.353 402.942 347.353 403.932V404.685H338.681V403.094H345.272C345.272 402.535 345.158 402.04 344.931 401.609C344.703 401.174 344.384 400.83 343.972 400.58C343.565 400.329 343.087 400.203 342.537 400.203C341.941 400.203 341.42 400.35 340.975 400.643C340.534 400.932 340.194 401.311 339.952 401.78C339.715 402.244 339.597 402.748 339.597 403.293V404.536C339.597 405.265 339.725 405.885 339.98 406.396C340.241 406.908 340.603 407.298 341.067 407.568C341.531 407.833 342.073 407.966 342.694 407.966C343.096 407.966 343.463 407.909 343.794 407.795C344.126 407.677 344.412 407.502 344.654 407.27C344.895 407.038 345.08 406.751 345.208 406.411L347.218 406.773C347.057 407.365 346.768 407.883 346.351 408.328C345.939 408.768 345.421 409.112 344.796 409.358C344.176 409.599 343.468 409.72 342.672 409.72ZM353.793 403.463C353.793 405.248 353.558 406.889 353.089 408.385C352.621 409.881 351.937 411.261 351.037 412.526H349.091C349.441 412.057 349.768 411.482 350.071 410.8C350.374 410.118 350.639 409.372 350.866 408.562C351.094 407.748 351.271 406.905 351.399 406.034C351.527 405.163 351.591 404.306 351.591 403.463C351.591 402.341 351.48 401.202 351.257 400.047C351.035 398.892 350.734 397.819 350.355 396.83C349.976 395.84 349.555 395.033 349.091 394.408H351.037C351.937 395.672 352.621 397.052 353.089 398.548C353.558 400.045 353.793 401.683 353.793 403.463Z" fill="black" fill-opacity="0.6"/>
<path d="M130.651 469.741C129.528 469.737 128.57 469.441 127.774 468.854C126.979 468.267 126.37 467.412 125.949 466.29C125.527 465.168 125.317 463.816 125.317 462.234C125.317 460.658 125.527 459.311 125.949 458.193C126.375 457.076 126.986 456.223 127.781 455.636C128.581 455.049 129.538 454.756 130.651 454.756C131.763 454.756 132.717 455.052 133.513 455.643C134.308 456.231 134.917 457.083 135.338 458.2C135.764 459.313 135.977 460.658 135.977 462.234C135.977 463.821 135.767 465.175 135.345 466.297C134.924 467.414 134.315 468.269 133.52 468.861C132.724 469.448 131.768 469.741 130.651 469.741ZM130.651 467.845C131.635 467.845 132.405 467.365 132.959 466.403C133.518 465.442 133.797 464.053 133.797 462.234C133.797 461.027 133.669 460.007 133.413 459.173C133.162 458.335 132.8 457.701 132.327 457.27C131.858 456.834 131.299 456.616 130.651 456.616C129.67 456.616 128.901 457.099 128.342 458.065C127.784 459.031 127.502 460.421 127.497 462.234C127.497 463.446 127.623 464.472 127.874 465.31C128.129 466.143 128.491 466.775 128.96 467.206C129.429 467.632 129.992 467.845 130.651 467.845ZM144.015 454.955V469.5H141.814V457.156H141.728L138.248 459.429V457.327L141.877 454.955H144.015ZM149.377 467.696C148.989 467.696 148.655 467.559 148.376 467.284C148.097 467.005 147.957 466.669 147.957 466.276C147.957 465.887 148.097 465.556 148.376 465.281C148.655 465.002 148.989 464.862 149.377 464.862C149.766 464.862 150.1 465.002 150.379 465.281C150.658 465.556 150.798 465.887 150.798 466.276C150.798 466.536 150.732 466.775 150.599 466.993C150.471 467.206 150.301 467.376 150.088 467.504C149.875 467.632 149.638 467.696 149.377 467.696ZM149.377 460.409C148.989 460.409 148.655 460.272 148.376 459.997C148.097 459.718 147.957 459.382 147.957 458.989C147.957 458.6 148.097 458.269 148.376 457.994C148.655 457.715 148.989 457.575 149.377 457.575C149.766 457.575 150.1 457.715 150.379 457.994C150.658 458.269 150.798 458.6 150.798 458.989C150.798 459.249 150.732 459.488 150.599 459.706C150.471 459.919 150.301 460.089 150.088 460.217C149.875 460.345 149.638 460.409 149.377 460.409ZM158.678 469.699C157.703 469.699 156.831 469.531 156.064 469.195C155.302 468.858 154.698 468.392 154.253 467.795C153.813 467.194 153.576 466.498 153.543 465.707H155.773C155.801 466.138 155.946 466.512 156.206 466.83C156.471 467.142 156.817 467.384 157.243 467.554C157.669 467.724 158.143 467.81 158.664 467.81C159.237 467.81 159.743 467.71 160.184 467.511C160.629 467.312 160.977 467.036 161.228 466.68C161.479 466.321 161.604 465.906 161.604 465.438C161.604 464.95 161.479 464.521 161.228 464.152C160.981 463.778 160.619 463.484 160.141 463.271C159.667 463.058 159.095 462.952 158.422 462.952H157.194V461.162H158.422C158.962 461.162 159.435 461.065 159.843 460.871C160.255 460.677 160.577 460.407 160.809 460.061C161.041 459.711 161.157 459.301 161.157 458.832C161.157 458.383 161.055 457.992 160.851 457.661C160.652 457.324 160.368 457.062 159.999 456.872C159.634 456.683 159.203 456.588 158.706 456.588C158.233 456.588 157.79 456.676 157.378 456.851C156.971 457.021 156.64 457.268 156.384 457.589C156.128 457.907 155.991 458.288 155.972 458.733H153.848C153.872 457.947 154.104 457.256 154.544 456.659C154.989 456.062 155.577 455.596 156.306 455.26C157.035 454.924 157.845 454.756 158.735 454.756C159.667 454.756 160.472 454.938 161.15 455.303C161.831 455.662 162.357 456.143 162.726 456.744C163.1 457.346 163.285 458.004 163.28 458.719C163.285 459.533 163.058 460.224 162.598 460.793C162.144 461.361 161.538 461.742 160.78 461.936V462.05C161.746 462.196 162.494 462.58 163.025 463.2C163.56 463.821 163.825 464.59 163.82 465.509C163.825 466.309 163.602 467.026 163.152 467.661C162.707 468.295 162.099 468.795 161.327 469.159C160.555 469.519 159.672 469.699 158.678 469.699ZM171.569 469.741C170.446 469.737 169.488 469.441 168.692 468.854C167.897 468.267 167.288 467.412 166.867 466.29C166.445 465.168 166.235 463.816 166.235 462.234C166.235 460.658 166.445 459.311 166.867 458.193C167.293 457.076 167.904 456.223 168.699 455.636C169.499 455.049 170.456 454.756 171.569 454.756C172.681 454.756 173.635 455.052 174.431 455.643C175.226 456.231 175.835 457.083 176.256 458.2C176.682 459.313 176.895 460.658 176.895 462.234C176.895 463.821 176.685 465.175 176.263 466.297C175.842 467.414 175.233 468.269 174.438 468.861C173.642 469.448 172.686 469.741 171.569 469.741ZM171.569 467.845C172.553 467.845 173.323 467.365 173.877 466.403C174.435 465.442 174.715 464.053 174.715 462.234C174.715 461.027 174.587 460.007 174.331 459.173C174.08 458.335 173.718 457.701 173.245 457.27C172.776 456.834 172.217 456.616 171.569 456.616C170.588 456.616 169.819 457.099 169.26 458.065C168.702 459.031 168.42 460.421 168.415 462.234C168.415 463.446 168.541 464.472 168.792 465.31C169.047 466.143 169.409 466.775 169.878 467.206C170.347 467.632 170.91 467.845 171.569 467.845ZM184.907 469.5V454.955H190.091C191.223 454.955 192.16 455.161 192.904 455.572C193.647 455.984 194.203 456.548 194.573 457.263C194.942 457.973 195.127 458.773 195.127 459.663C195.127 460.558 194.94 461.363 194.566 462.078C194.196 462.788 193.638 463.352 192.89 463.768C192.146 464.18 191.211 464.386 190.084 464.386H186.519V462.526H189.885C190.6 462.526 191.18 462.402 191.625 462.156C192.07 461.905 192.397 461.564 192.605 461.134C192.814 460.703 192.918 460.213 192.918 459.663C192.918 459.114 192.814 458.626 192.605 458.2C192.397 457.774 192.068 457.44 191.618 457.199C191.173 456.957 190.586 456.837 189.857 456.837H187.101V469.5H184.907ZM197.7 454.955H200.363L204.994 466.261H205.164L209.795 454.955H212.458V469.5H210.37V458.974H210.235L205.945 469.479H204.212L199.923 458.967H199.788V469.5H197.7V454.955ZM221.389 462.227C221.389 460.447 221.624 458.809 222.092 457.312C222.561 455.816 223.245 454.436 224.145 453.172H226.091C225.741 453.641 225.414 454.216 225.111 454.898C224.808 455.58 224.543 456.328 224.315 457.142C224.088 457.952 223.911 458.792 223.783 459.663C223.655 460.53 223.591 461.384 223.591 462.227C223.591 463.354 223.702 464.495 223.925 465.651C224.147 466.806 224.448 467.878 224.827 468.868C225.205 469.857 225.627 470.665 226.091 471.29H224.145C223.245 470.026 222.561 468.645 222.092 467.149C221.624 465.653 221.389 464.012 221.389 462.227ZM240.24 454.955V469.5H238.223L230.83 458.832H230.695V469.5H228.5V454.955H230.532L237.932 465.636H238.067V454.955H240.24ZM247.866 469.72C246.844 469.72 245.951 469.486 245.189 469.017C244.427 468.548 243.835 467.893 243.413 467.05C242.992 466.207 242.781 465.222 242.781 464.095C242.781 462.964 242.992 461.974 243.413 461.126C243.835 460.279 244.427 459.621 245.189 459.152C245.951 458.683 246.844 458.449 247.866 458.449C248.889 458.449 249.782 458.683 250.544 459.152C251.306 459.621 251.898 460.279 252.32 461.126C252.741 461.974 252.952 462.964 252.952 464.095C252.952 465.222 252.741 466.207 252.32 467.05C251.898 467.893 251.306 468.548 250.544 469.017C249.782 469.486 248.889 469.72 247.866 469.72ZM247.874 467.938C248.536 467.938 249.086 467.762 249.521 467.412C249.957 467.062 250.279 466.595 250.487 466.013C250.7 465.43 250.807 464.789 250.807 464.088C250.807 463.392 250.7 462.753 250.487 462.17C250.279 461.583 249.957 461.112 249.521 460.757C249.086 460.402 248.536 460.224 247.874 460.224C247.206 460.224 246.652 460.402 246.212 460.757C245.776 461.112 245.452 461.583 245.239 462.17C245.03 462.753 244.926 463.392 244.926 464.088C244.926 464.789 245.03 465.43 245.239 466.013C245.452 466.595 245.776 467.062 246.212 467.412C246.652 467.762 247.206 467.938 247.874 467.938ZM260.414 458.591V460.295H254.456V458.591H260.414ZM256.054 455.977H258.177V466.297C258.177 466.709 258.239 467.019 258.362 467.227C258.485 467.431 258.644 467.571 258.838 467.646C259.037 467.717 259.252 467.753 259.484 467.753C259.654 467.753 259.804 467.741 259.931 467.717C260.059 467.694 260.159 467.675 260.23 467.661L260.613 469.415C260.49 469.462 260.315 469.509 260.088 469.557C259.86 469.609 259.576 469.637 259.235 469.642C258.677 469.652 258.156 469.552 257.673 469.344C257.19 469.135 256.799 468.813 256.501 468.378C256.203 467.942 256.054 467.395 256.054 466.737V455.977ZM269.456 469.5H267.126L272.36 454.955H274.896L280.13 469.5H277.801L273.689 457.597H273.575L269.456 469.5ZM269.846 463.804H277.403V465.651H269.846V463.804ZM290.026 458.591L286.07 469.5H283.797L279.834 458.591H282.114L284.876 466.986H284.99L287.746 458.591H290.026ZM294.884 469.741C294.192 469.741 293.567 469.614 293.009 469.358C292.45 469.098 292.007 468.721 291.68 468.229C291.358 467.736 291.197 467.133 291.197 466.418C291.197 465.802 291.316 465.295 291.553 464.898C291.789 464.5 292.109 464.185 292.511 463.953C292.914 463.721 293.364 463.546 293.861 463.428C294.358 463.309 294.865 463.219 295.381 463.158C296.034 463.082 296.564 463.02 296.972 462.973C297.379 462.921 297.675 462.838 297.859 462.724C298.044 462.611 298.136 462.426 298.136 462.17V462.121C298.136 461.5 297.961 461.02 297.611 460.679C297.265 460.338 296.749 460.168 296.062 460.168C295.348 460.168 294.784 460.326 294.372 460.643C293.965 460.956 293.683 461.304 293.527 461.688L291.531 461.233C291.768 460.57 292.114 460.035 292.568 459.628C293.027 459.216 293.555 458.918 294.152 458.733C294.749 458.544 295.376 458.449 296.034 458.449C296.47 458.449 296.931 458.501 297.419 458.605C297.911 458.705 298.371 458.889 298.797 459.159C299.228 459.429 299.58 459.815 299.855 460.317C300.13 460.814 300.267 461.46 300.267 462.256V469.5H298.193V468.009H298.108C297.971 468.283 297.765 468.553 297.49 468.818C297.215 469.083 296.863 469.304 296.432 469.479C296.001 469.654 295.485 469.741 294.884 469.741ZM295.345 468.037C295.932 468.037 296.434 467.921 296.851 467.689C297.272 467.457 297.592 467.154 297.81 466.78C298.032 466.401 298.143 465.996 298.143 465.565V464.159C298.068 464.235 297.921 464.306 297.703 464.372C297.49 464.434 297.246 464.488 296.972 464.536C296.697 464.578 296.429 464.618 296.169 464.656C295.909 464.689 295.691 464.718 295.516 464.741C295.104 464.794 294.727 464.881 294.386 465.004C294.05 465.127 293.78 465.305 293.577 465.537C293.378 465.764 293.278 466.067 293.278 466.446C293.278 466.972 293.473 467.369 293.861 467.639C294.249 467.904 294.744 468.037 295.345 468.037ZM303.096 469.5V458.591H305.219V469.5H303.096ZM304.168 456.908C303.799 456.908 303.481 456.785 303.216 456.538C302.956 456.287 302.826 455.989 302.826 455.643C302.826 455.293 302.956 454.995 303.216 454.749C303.481 454.498 303.799 454.372 304.168 454.372C304.537 454.372 304.852 454.498 305.113 454.749C305.378 454.995 305.51 455.293 305.51 455.643C305.51 455.989 305.378 456.287 305.113 456.538C304.852 456.785 304.537 456.908 304.168 456.908ZM310.2 454.955V469.5H308.076V454.955H310.2ZM316.231 469.741C315.54 469.741 314.915 469.614 314.356 469.358C313.797 469.098 313.355 468.721 313.028 468.229C312.706 467.736 312.545 467.133 312.545 466.418C312.545 465.802 312.663 465.295 312.9 464.898C313.137 464.5 313.457 464.185 313.859 463.953C314.261 463.721 314.711 463.546 315.208 463.428C315.706 463.309 316.212 463.219 316.728 463.158C317.382 463.082 317.912 463.02 318.319 462.973C318.726 462.921 319.022 462.838 319.207 462.724C319.392 462.611 319.484 462.426 319.484 462.17V462.121C319.484 461.5 319.309 461.02 318.958 460.679C318.613 460.338 318.097 460.168 317.41 460.168C316.695 460.168 316.132 460.326 315.72 460.643C315.313 460.956 315.031 461.304 314.875 461.688L312.879 461.233C313.116 460.57 313.461 460.035 313.916 459.628C314.375 459.216 314.903 458.918 315.5 458.733C316.096 458.544 316.724 458.449 317.382 458.449C317.817 458.449 318.279 458.501 318.767 458.605C319.259 458.705 319.718 458.889 320.145 459.159C320.575 459.429 320.928 459.815 321.203 460.317C321.477 460.814 321.615 461.46 321.615 462.256V469.5H319.541V468.009H319.456C319.318 468.283 319.112 468.553 318.838 468.818C318.563 469.083 318.21 469.304 317.779 469.479C317.349 469.654 316.833 469.741 316.231 469.741ZM316.693 468.037C317.28 468.037 317.782 467.921 318.199 467.689C318.62 467.457 318.94 467.154 319.157 466.78C319.38 466.401 319.491 465.996 319.491 465.565V464.159C319.415 464.235 319.269 464.306 319.051 464.372C318.838 464.434 318.594 464.488 318.319 464.536C318.045 464.578 317.777 464.618 317.517 464.656C317.256 464.689 317.038 464.718 316.863 464.741C316.451 464.794 316.075 464.881 315.734 465.004C315.398 465.127 315.128 465.305 314.924 465.537C314.725 465.764 314.626 466.067 314.626 466.446C314.626 466.972 314.82 467.369 315.208 467.639C315.597 467.904 316.092 468.037 316.693 468.037ZM324.614 469.5V454.955H326.737V460.359H326.865C326.988 460.132 327.166 459.869 327.398 459.571C327.63 459.273 327.952 459.012 328.364 458.79C328.776 458.562 329.32 458.449 329.997 458.449C330.878 458.449 331.664 458.671 332.355 459.116C333.046 459.562 333.589 460.203 333.982 461.041C334.379 461.879 334.578 462.888 334.578 464.067C334.578 465.246 334.382 466.257 333.989 467.099C333.596 467.937 333.056 468.584 332.369 469.038C331.683 469.488 330.899 469.713 330.018 469.713C329.356 469.713 328.813 469.602 328.392 469.379C327.975 469.157 327.649 468.896 327.412 468.598C327.175 468.3 326.993 468.035 326.865 467.803H326.688V469.5H324.614ZM326.695 464.045C326.695 464.812 326.806 465.485 327.028 466.062C327.251 466.64 327.573 467.092 327.994 467.419C328.416 467.741 328.932 467.902 329.543 467.902C330.177 467.902 330.707 467.734 331.134 467.398C331.56 467.057 331.882 466.595 332.099 466.013C332.322 465.43 332.433 464.775 332.433 464.045C332.433 463.326 332.324 462.679 332.107 462.107C331.893 461.534 331.571 461.081 331.141 460.75C330.714 460.419 330.182 460.253 329.543 460.253C328.927 460.253 328.406 460.411 327.98 460.729C327.559 461.046 327.239 461.489 327.021 462.057C326.804 462.625 326.695 463.288 326.695 464.045ZM339.086 454.955V469.5H336.963V454.955H339.086ZM346.645 469.72C345.57 469.72 344.644 469.491 343.868 469.031C343.096 468.567 342.5 467.916 342.078 467.078C341.661 466.235 341.453 465.248 341.453 464.116C341.453 462.999 341.661 462.014 342.078 461.162C342.5 460.31 343.087 459.644 343.839 459.166C344.597 458.688 345.482 458.449 346.496 458.449C347.111 458.449 347.708 458.551 348.286 458.754C348.863 458.958 349.382 459.277 349.841 459.713C350.3 460.149 350.662 460.714 350.928 461.411C351.193 462.102 351.325 462.942 351.325 463.932V464.685H342.653V463.094H349.244C349.244 462.535 349.131 462.04 348.903 461.609C348.676 461.174 348.357 460.83 347.945 460.58C347.537 460.329 347.059 460.203 346.51 460.203C345.913 460.203 345.393 460.35 344.947 460.643C344.507 460.932 344.166 461.311 343.925 461.78C343.688 462.244 343.57 462.748 343.57 463.293V464.536C343.57 465.265 343.697 465.885 343.953 466.396C344.214 466.908 344.576 467.298 345.04 467.568C345.504 467.833 346.046 467.966 346.666 467.966C347.069 467.966 347.436 467.909 347.767 467.795C348.098 467.677 348.385 467.502 348.626 467.27C348.868 467.038 349.053 466.751 349.18 466.411L351.19 466.773C351.029 467.365 350.741 467.883 350.324 468.328C349.912 468.768 349.393 469.112 348.768 469.358C348.148 469.599 347.44 469.72 346.645 469.72ZM357.765 463.463C357.765 465.248 357.531 466.889 357.062 468.385C356.593 469.881 355.909 471.261 355.01 472.526H353.064C353.414 472.057 353.741 471.482 354.044 470.8C354.347 470.118 354.612 469.372 354.839 468.562C355.066 467.748 355.244 466.905 355.372 466.034C355.5 465.163 355.564 464.306 355.564 463.463C355.564 462.341 355.452 461.202 355.23 460.047C355.007 458.892 354.707 457.819 354.328 456.83C353.949 455.84 353.528 455.033 353.064 454.408H355.01C355.909 455.672 356.593 457.052 357.062 458.548C357.531 460.045 357.765 461.683 357.765 463.463Z" fill="black" fill-opacity="0.6"/>
<rect width="564" height="60" transform="translate(104 492)" fill="#FFD7CE"/>
<path d="M130.964 514.955V529.5H128.763V517.156H128.678L125.197 519.429V517.327L128.827 514.955H130.964ZM134.899 529.5V527.909L139.821 522.81C140.347 522.256 140.78 521.77 141.121 521.354C141.466 520.932 141.724 520.532 141.895 520.153C142.065 519.775 142.151 519.372 142.151 518.946C142.151 518.463 142.037 518.046 141.81 517.696C141.582 517.341 141.272 517.069 140.879 516.879C140.486 516.685 140.044 516.588 139.551 516.588C139.03 516.588 138.576 516.695 138.188 516.908C137.799 517.121 137.501 517.421 137.293 517.81C137.084 518.198 136.98 518.652 136.98 519.173H134.885C134.885 518.288 135.089 517.514 135.496 516.851C135.903 516.188 136.462 515.674 137.172 515.31C137.882 514.94 138.689 514.756 139.594 514.756C140.508 514.756 141.313 514.938 142.009 515.303C142.709 515.662 143.256 516.155 143.649 516.78C144.042 517.4 144.239 518.101 144.239 518.882C144.239 519.422 144.137 519.95 143.933 520.466C143.734 520.982 143.386 521.557 142.889 522.192C142.392 522.821 141.701 523.586 140.815 524.486L137.925 527.511V527.618H144.473V529.5H134.899ZM148.592 527.696C148.204 527.696 147.87 527.559 147.591 527.284C147.312 527.005 147.172 526.669 147.172 526.276C147.172 525.887 147.312 525.556 147.591 525.281C147.87 525.002 148.204 524.862 148.592 524.862C148.981 524.862 149.314 525.002 149.594 525.281C149.873 525.556 150.013 525.887 150.013 526.276C150.013 526.536 149.946 526.775 149.814 526.993C149.686 527.206 149.516 527.376 149.303 527.504C149.089 527.632 148.853 527.696 148.592 527.696ZM148.592 520.409C148.204 520.409 147.87 520.272 147.591 519.997C147.312 519.718 147.172 519.382 147.172 518.989C147.172 518.6 147.312 518.269 147.591 517.994C147.87 517.715 148.204 517.575 148.592 517.575C148.981 517.575 149.314 517.715 149.594 517.994C149.873 518.269 150.013 518.6 150.013 518.989C150.013 519.249 149.946 519.488 149.814 519.706C149.686 519.919 149.516 520.089 149.303 520.217C149.089 520.345 148.853 520.409 148.592 520.409ZM152.523 526.659V524.884L158.809 514.955H160.208V517.568H159.32L154.825 524.685V524.798H163.44V526.659H152.523ZM159.42 529.5V526.119L159.434 525.31V514.955H161.515V529.5H159.42ZM170.716 529.699C169.826 529.699 169.026 529.528 168.315 529.188C167.61 528.842 167.046 528.368 166.625 527.767C166.204 527.166 165.979 526.479 165.95 525.707H168.081C168.133 526.332 168.41 526.846 168.912 527.249C169.414 527.651 170.015 527.852 170.716 527.852C171.275 527.852 171.769 527.724 172.2 527.469C172.636 527.208 172.977 526.851 173.223 526.396C173.474 525.942 173.599 525.423 173.599 524.841C173.599 524.249 173.472 523.721 173.216 523.257C172.96 522.793 172.607 522.429 172.158 522.163C171.713 521.898 171.201 521.763 170.624 521.759C170.183 521.759 169.741 521.834 169.295 521.986C168.85 522.137 168.491 522.336 168.216 522.582L166.206 522.284L167.023 514.955H175.02V516.837H168.848L168.386 520.906H168.472C168.756 520.632 169.132 520.402 169.601 520.217C170.074 520.033 170.581 519.94 171.121 519.94C172.006 519.94 172.795 520.151 173.486 520.572C174.182 520.994 174.729 521.569 175.126 522.298C175.529 523.023 175.728 523.856 175.723 524.798C175.728 525.741 175.515 526.581 175.084 527.32C174.658 528.058 174.066 528.641 173.308 529.067C172.555 529.488 171.691 529.699 170.716 529.699ZM183.809 529.5V514.955H188.994C190.125 514.955 191.063 515.161 191.806 515.572C192.549 515.984 193.106 516.548 193.475 517.263C193.844 517.973 194.029 518.773 194.029 519.663C194.029 520.558 193.842 521.363 193.468 522.078C193.099 522.788 192.54 523.352 191.792 523.768C191.049 524.18 190.113 524.386 188.987 524.386H185.421V522.526H188.788C189.503 522.526 190.083 522.402 190.528 522.156C190.973 521.905 191.299 521.564 191.508 521.134C191.716 520.703 191.82 520.213 191.82 519.663C191.82 519.114 191.716 518.626 191.508 518.2C191.299 517.774 190.97 517.44 190.521 517.199C190.076 516.957 189.488 516.837 188.759 516.837H186.004V529.5H183.809ZM196.602 514.955H199.265L203.896 526.261H204.066L208.697 514.955H211.36V529.5H209.272V518.974H209.137L204.848 529.479H203.115L198.825 518.967H198.69V529.5H196.602V514.955Z" fill="black"/>
<path d="M130.844 589.741C129.722 589.737 128.763 589.441 127.968 588.854C127.172 588.267 126.564 587.412 126.142 586.29C125.721 585.168 125.51 583.816 125.51 582.234C125.51 580.658 125.721 579.311 126.142 578.193C126.568 577.076 127.179 576.223 127.975 575.636C128.775 575.049 129.731 574.756 130.844 574.756C131.957 574.756 132.911 575.052 133.706 575.643C134.502 576.231 135.11 577.083 135.531 578.2C135.958 579.313 136.171 580.658 136.171 582.234C136.171 583.821 135.96 585.175 135.539 586.297C135.117 587.414 134.509 588.269 133.713 588.861C132.918 589.448 131.961 589.741 130.844 589.741ZM130.844 587.845C131.829 587.845 132.598 587.365 133.152 586.403C133.711 585.442 133.99 584.053 133.99 582.234C133.99 581.027 133.862 580.007 133.607 579.173C133.356 578.335 132.994 577.701 132.52 577.27C132.051 576.834 131.493 576.616 130.844 576.616C129.864 576.616 129.094 577.099 128.536 578.065C127.977 579.031 127.695 580.421 127.691 582.234C127.691 583.446 127.816 584.472 128.067 585.31C128.323 586.143 128.685 586.775 129.154 587.206C129.622 587.632 130.186 587.845 130.844 587.845ZM138.69 589.5V587.909L143.612 582.81C144.138 582.256 144.571 581.77 144.912 581.354C145.257 580.932 145.515 580.532 145.686 580.153C145.856 579.775 145.942 579.372 145.942 578.946C145.942 578.463 145.828 578.046 145.601 577.696C145.373 577.341 145.063 577.069 144.67 576.879C144.277 576.685 143.835 576.588 143.342 576.588C142.821 576.588 142.367 576.695 141.979 576.908C141.59 577.121 141.292 577.421 141.084 577.81C140.875 578.198 140.771 578.652 140.771 579.173H138.676C138.676 578.288 138.88 577.514 139.287 576.851C139.694 576.188 140.253 575.674 140.963 575.31C141.673 574.94 142.48 574.756 143.385 574.756C144.299 574.756 145.104 574.938 145.8 575.303C146.5 575.662 147.047 576.155 147.44 576.78C147.833 577.4 148.03 578.101 148.03 578.882C148.03 579.422 147.928 579.95 147.724 580.466C147.525 580.982 147.177 581.557 146.68 582.192C146.183 582.821 145.492 583.586 144.606 584.486L141.716 587.511V587.618H148.264V589.5H138.69ZM152.383 587.696C151.995 587.696 151.661 587.559 151.382 587.284C151.103 587.005 150.963 586.669 150.963 586.276C150.963 585.887 151.103 585.556 151.382 585.281C151.661 585.002 151.995 584.862 152.383 584.862C152.772 584.862 153.105 585.002 153.385 585.281C153.664 585.556 153.804 585.887 153.804 586.276C153.804 586.536 153.738 586.775 153.605 586.993C153.477 587.206 153.307 587.376 153.094 587.504C152.881 587.632 152.644 587.696 152.383 587.696ZM152.383 580.409C151.995 580.409 151.661 580.272 151.382 579.997C151.103 579.718 150.963 579.382 150.963 578.989C150.963 578.6 151.103 578.269 151.382 577.994C151.661 577.715 151.995 577.575 152.383 577.575C152.772 577.575 153.105 577.715 153.385 577.994C153.664 578.269 153.804 578.6 153.804 578.989C153.804 579.249 153.738 579.488 153.605 579.706C153.477 579.919 153.307 580.089 153.094 580.217C152.881 580.345 152.644 580.409 152.383 580.409ZM162.138 574.955V589.5H159.937V577.156H159.851L156.371 579.429V577.327L160.001 574.955H162.138ZM171.137 589.741C170.015 589.737 169.056 589.441 168.26 588.854C167.465 588.267 166.857 587.412 166.435 586.29C166.014 585.168 165.803 583.816 165.803 582.234C165.803 580.658 166.014 579.311 166.435 578.193C166.861 577.076 167.472 576.223 168.268 575.636C169.068 575.049 170.024 574.756 171.137 574.756C172.25 574.756 173.204 575.052 173.999 575.643C174.795 576.231 175.403 577.083 175.824 578.2C176.251 579.313 176.464 580.658 176.464 582.234C176.464 583.821 176.253 585.175 175.831 586.297C175.41 587.414 174.802 588.269 174.006 588.861C173.211 589.448 172.254 589.741 171.137 589.741ZM171.137 587.845C172.122 587.845 172.891 587.365 173.445 586.403C174.004 585.442 174.283 584.053 174.283 582.234C174.283 581.027 174.155 580.007 173.9 579.173C173.649 578.335 173.287 577.701 172.813 577.27C172.344 576.834 171.786 576.616 171.137 576.616C170.157 576.616 169.387 577.099 168.829 578.065C168.27 579.031 167.988 580.421 167.983 582.234C167.983 583.446 168.109 584.472 168.36 585.31C168.616 586.143 168.978 586.775 169.447 587.206C169.915 587.632 170.479 587.845 171.137 587.845ZM184.475 589.5V574.955H189.66C190.791 574.955 191.729 575.161 192.472 575.572C193.215 575.984 193.772 576.548 194.141 577.263C194.51 577.973 194.695 578.773 194.695 579.663C194.695 580.558 194.508 581.363 194.134 582.078C193.765 582.788 193.206 583.352 192.458 583.768C191.715 584.18 190.779 584.386 189.653 584.386H186.087V582.526H189.454C190.169 582.526 190.749 582.402 191.194 582.156C191.639 581.905 191.965 581.564 192.174 581.134C192.382 580.703 192.486 580.213 192.486 579.663C192.486 579.114 192.382 578.626 192.174 578.2C191.965 577.774 191.636 577.44 191.187 577.199C190.742 576.957 190.154 576.837 189.425 576.837H186.67V589.5H184.475ZM197.268 574.955H199.931L204.562 586.261H204.732L209.363 574.955H212.026V589.5H209.938V578.974H209.803L205.514 589.479H203.781L199.491 578.967H199.356V589.5H197.268V574.955Z" fill="black"/>
</g>
</g>
<defs>
<filter id="filter0_d_379_6586" x="84" y="292" width="604" height="340" filterUnits="userSpaceOnUse" color-interpolation-filters="sRGB">
<feFlood flood-opacity="0" result="BackgroundImageFix"/>
<feColorMatrix in="SourceAlpha" type="matrix" values="0 0 0 0 0 0 0 0 0 0 0 0 0 0 0 0 0 0 127 0" result="hardAlpha"/>
<feOffset/>
<feGaussianBlur stdDeviation="10"/>
<feComposite in2="hardAlpha" operator="out"/>
<feColorMatrix type="matrix" values="0 0 0 0 0 0 0 0 0 0 0 0 0 0 0 0 0 0 0.2 0"/>
<feBlend mode="normal" in2="BackgroundImageFix" result="effect1_dropShadow_379_6586"/>
<feBlend mode="normal" in="SourceGraphic" in2="effect1_dropShadow_379_6586" result="shape"/>
</filter>
<clipPath id="clip0_379_6586">
<rect width="711" height="629" fill="white"/>
</clipPath>
</defs>
</svg>
