<svg version="1.2" xmlns="http://www.w3.org/2000/svg" viewBox="0 0 512 394" width="512" height="394">
	<title>POS-svg</title>
	<defs>
		<clipPath clipPathUnits="userSpaceOnUse" id="cp1">
			<path d="m222 251.98h40v40h-40z"/>
		</clipPath>
	</defs>
	<style>
		.s0 { fill: #f4d3c8 } 
		.s1 { fill: none;stroke: #5ac15e;stroke-linecap: round;stroke-width: 3;stroke-dasharray: 10 } 
		.s2 { fill: #2c3e50 } 
		.s3 { fill: #ddf1f3 } 
		.s4 { fill: #ffffff } 
		.s5 { fill: #d9d9d9 } 
		.s6 { fill: #5ac15e } 
	</style>
	<path id="Layer" class="s0" d="m472.2 299c-24 27.1-54.8 48.3-87.6 63.7-43.5 20.3-90.5 30.5-130.5 30.5-40.2 0-78.2-6.4-112-18.9-85.2-31.3-143.6-101-142.1-203.2 2.5-161.4 188.3-201.6 263-127.5 80.2 79.5 113.2 2.3 193.5 44.5 61.8 32.4 78.8 139.9 15.7 210.9z"/>
	<path id="Layer" fill-rule="evenodd" class="s1" d="m160 267.6c30.9 13.3 67.9 12.6 100.7 4.7 48.7-11.8 85.6-43 111.5-80.6 12.4-17.9 17.8-36 17.8-56.7"/>
	<path id="Layer" class="s2" d="m289 29c0.1-2.8 2.4-5 5.2-5h171.6c2.8 0 5.1 2.2 5.3 5l4.1 90.8c0.1 3-2.3 5.5-5.3 5.5h-180.4c-3 0-5.4-2.6-5.2-5.5z"/>
	<path id="Layer" class="s2" d="m315 124.9c0.5-2.3 2.6-3.9 4.9-3.9l118.6-0.7c1.8 0 3.6 0.9 4.4 2.6 2.2 4.3 3 8.2 2.6 12.2-0.7 9.5-10.8 14.6-20.3 14.6l-93.9-0.5c-6.9-0.1-14.4-2.6-16.6-9.1-1.3-4-1.2-8.7 0.3-15.2z"/>
	<path id="Layer" class="s3" d="m292.5 27.3h172.5l4.5 84.2h-180.3z"/>
	<path id="Layer" class="s4" d="m93.5 125h155c4.1 0 7.5 3.4 7.5 7.5v188.4c0 4.2-3.4 7.6-7.5 7.6h-155c-4.1 0-7.5-3.4-7.5-7.6v-188.4c0-4.1 3.4-7.5 7.5-7.5z"/>
	<path id="Layer" fill-rule="evenodd" class="s5" d="m180.5 175.7c0-3.8-1.6-6.1-3.8-8.3-1.5-1.5-4-2.8-6.7-3.6l-0.5-3.6h7.8v-6.4h3.1v6.4h7.8l-2.5 25.8c-0.2 1.3-1.3 2.3-2.6 2.3h-2.6zm-26.7 11v-1.5h23.5v1.5c0 0.9-0.7 1.6-1.6 1.6h-20.4c-0.8 0-1.5-0.7-1.5-1.6zm0-10.9c0-12.6 23.5-12.6 23.5 0zm0 3.1h23.5v3.1h-23.5z"/>
	<path id="Layer" class="s5" d="m113.7 233.3c-6.7 0-12.1-5.5-12.1-12.2 0-6.7 5.4-12.1 12.1-12.1 6.7 0 12.1 5.4 12.1 12.1 0 6.7-5.4 12.2-12.1 12.2z"/>
	<path id="Layer" class="s5" d="m134.5 213.4h29.4c1.9 0 3.5 1.5 3.5 3.4v0.9c0 1.9-1.6 3.4-3.5 3.4h-29.4c-1.9 0-3.5-1.5-3.5-3.4v-0.9c0-1.9 1.6-3.4 3.5-3.4z"/>
	<path id="Layer" class="s5" d="m134 222.9h46.8c1.6 0 3 1.3 3 3 0 1.7-1.4 3-3 3h-46.8c-1.6 0-3-1.3-3-3 0-1.7 1.4-3 3-3z"/>
	<path id="Layer" class="s5" d="m207.5 212.1h29.5c1.9 0 3.4 1.5 3.4 3.4v11.3c0 1.9-1.5 3.4-3.4 3.4h-29.5c-1.9 0-3.4-1.5-3.4-3.4v-11.3c0-1.9 1.5-3.4 3.4-3.4z"/>
	<path id="Layer" class="s5" d="m113.7 273.1c-6.7 0-12.1-5.4-12.1-12.1 0-6.7 5.4-12.2 12.1-12.2 6.7 0 12.1 5.5 12.1 12.2 0 6.7-5.4 12.1-12.1 12.1z"/>
	<path id="Layer" class="s5" d="m134.5 253.2h29.4c1.9 0 3.5 1.5 3.5 3.4v0.9c0 1.9-1.6 3.5-3.5 3.5h-29.4c-1.9 0-3.5-1.6-3.5-3.5v-0.9c0-1.9 1.6-3.4 3.5-3.4z"/>
	<path id="Layer" class="s5" d="m134 262.7h46.8c1.6 0 3 1.3 3 3 0 1.7-1.4 3-3 3h-46.8c-1.6 0-3-1.3-3-3 0-1.7 1.4-3 3-3z"/>
	<path id="Layer" class="s5" d="m207.5 251.9h29.5c1.9 0 3.4 1.5 3.4 3.4v11.3c0 1.9-1.5 3.4-3.4 3.4h-29.5c-1.9 0-3.4-1.5-3.4-3.4v-11.3c0-1.9 1.5-3.4 3.4-3.4z"/>
	<path id="Layer" class="s5" d="m113.7 312.9c-6.7 0-12.1-5.4-12.1-12.1 0-6.7 5.4-12.1 12.1-12.1 6.7 0 12.1 5.4 12.1 12.1 0 6.7-5.4 12.1-12.1 12.1z"/>
	<path id="Layer" class="s5" d="m134.5 293h29.4c1.9 0 3.5 1.5 3.5 3.4v0.9c0 1.9-1.6 3.5-3.5 3.5h-29.4c-1.9 0-3.5-1.6-3.5-3.5v-0.9c0-1.9 1.6-3.4 3.5-3.4z"/>
	<path id="Layer" class="s5" d="m134 302.5h46.8c1.6 0 3 1.4 3 3 0 1.7-1.4 3.1-3 3.1h-46.8c-1.6 0-3-1.4-3-3.1 0-1.6 1.4-3 3-3z"/>
	<path id="Layer" class="s5" d="m207.5 291.7h29.5c1.9 0 3.4 1.5 3.4 3.4v11.3c0 1.9-1.5 3.5-3.4 3.5h-29.5c-1.9 0-3.4-1.6-3.4-3.5v-11.3c0-1.9 1.5-3.4 3.4-3.4z"/>
	<g id="Clip-Path" clip-path="url(#cp1)">
		<g id="Layer">
			<path id="Layer" fill-rule="evenodd" class="s6" d="m222 272c0-5.3 2.1-10.4 5.9-14.2 3.7-3.7 8.8-5.8 14.1-5.8 5.3 0 10.4 2.1 14.1 5.8 3.8 3.8 5.9 8.9 5.9 14.2 0 5.3-2.1 10.4-5.9 14.1-3.7 3.8-8.8 5.9-14.1 5.9-5.3 0-10.4-2.1-14.1-5.9-3.8-3.7-5.9-8.8-5.9-14.1zm18.9 8.5l11.5-14.4-2.1-1.6-9.8 12.2-7-5.7-1.7 2z"/>
		</g>
	</g>
</svg>