<svg version="1.2" xmlns="http://www.w3.org/2000/svg" viewBox="0 0 512 395" width="512" height="395">
	<title>Printer-svg</title>
	<defs>
		<clipPath clipPathUnits="userSpaceOnUse" id="cp1">
			<path d="m344.12 17h127.76v103.8h-127.76z"/>
		</clipPath>
		<clipPath clipPathUnits="userSpaceOnUse" id="cp2">
			<path d="m152 309.98h40v40h-40z"/>
		</clipPath>
	</defs>
	<style>
		.s0 { fill: #f4d3c8 } 
		.s1 { fill: #5ac15e } 
		.s2 { fill: #2c3e50 } 
		.s3 { fill: #ebedf1 } 
		.s4 { fill: #bcc2cc } 
		.s5 { fill: #ffffff } 
		.s6 { fill: #d9d9d9 } 
		.s7 { fill: none;stroke: #2c3e50;stroke-width: 2.4 } 
	</style>
	<path id="Layer" class="s0" d="m472.2 300c-24 27.1-54.8 48.3-87.6 63.7-43.5 20.3-90.5 30.5-130.5 30.5-40.2 0-78.2-6.4-112-18.9-85.2-31.3-143.6-101-142.1-203.2 2.5-161.4 188.3-201.6 263-127.5 80.2 79.5 113.2 2.3 193.5 44.5 61.8 32.4 78.8 139.9 15.7 210.9z"/>
	<path id="Layer" fill-rule="evenodd" class="s1" d="m38.3 246.1c0.8-0.3 1.7 0 2 0.7q1.1 2.3 2.2 4.6c0.4 0.7 0.1 1.6-0.6 2-0.8 0.4-1.7 0.1-2-0.6q-1.2-2.3-2.3-4.7c-0.4-0.8 0-1.6 0.7-2zm67 71.1c-0.7-0.4-0.9-1.3-0.5-2.1 0.4-0.7 1.3-0.9 2-0.5q2.2 1.2 4.5 2.5 2.2 1.1 4.4 2.3c0.7 0.3 1 1.2 0.6 2-0.3 0.7-1.2 1-2 0.6q-2.2-1.1-4.5-2.3-2.2-1.2-4.5-2.5zm137.4 18.6c-0.8 0.2-1.6-0.3-1.8-1.1-0.1-0.8 0.4-1.6 1.2-1.8q2.4-0.5 4.9-1.1 2.4-0.6 4.8-1.2c0.8-0.3 1.6 0.2 1.8 1 0.3 0.8-0.2 1.6-1 1.9q-2.4 0.6-5 1.2-2.4 0.6-4.9 1.1zm58-19.3c0.1 0.8-0.6 1.5-1.4 1.6-0.8 0-1.5-0.6-1.6-1.4l-0.5-10q1.3-1.3 2.5-2.6l-2.3-2q-1.2 1.4-2.5 2.7l-9.8 0.5c-0.8 0-1.5-0.6-1.5-1.4-0.1-0.9 0.6-1.6 1.4-1.6l13.5-0.7c0.8 0 1.5 0.6 1.6 1.4zm-3.7-11.8l-2.2 0.1q-0.4 0.5-0.9 0.9l2.2 2.1q0.5-0.5 1-1.1zm-251.6-44.9c0.7-0.5 1.6-0.3 2.1 0.4q2.6 4.3 5.7 8.4c0.5 0.6 0.3 1.6-0.3 2.1-0.7 0.5-1.6 0.3-2.1-0.3q-3.1-4.2-5.9-8.6c-0.4-0.7-0.2-1.6 0.5-2zm12 16.5c0.6-0.5 1.6-0.4 2.1 0.2q3.3 3.8 6.9 7.4c0.6 0.6 0.6 1.6 0 2.2-0.6 0.5-1.5 0.5-2.1 0q-3.7-3.7-7-7.7c-0.6-0.6-0.5-1.5 0.1-2.1zm14.2 14.8c0.6-0.6 1.5-0.7 2.2-0.1q3.7 3.3 7.7 6.5c0.7 0.5 0.8 1.5 0.2 2.1-0.5 0.7-1.4 0.8-2.1 0.3q-4-3.3-7.9-6.7c-0.6-0.6-0.6-1.5-0.1-2.1zm15.9 12.9c0.5-0.7 1.4-0.8 2.1-0.3q4.2 2.9 8.4 5.7c0.7 0.4 0.9 1.3 0.5 2-0.5 0.7-1.4 0.9-2.1 0.5q-4.3-2.8-8.5-5.8c-0.7-0.5-0.9-1.4-0.4-2.1zm35.1 20.4c0.4-0.7 1.3-1.1 2-0.8q4.6 2 9.3 3.7c0.8 0.3 1.2 1.2 0.9 2-0.3 0.7-1.2 1.1-2 0.9q-4.7-1.8-9.4-3.8c-0.7-0.3-1.1-1.2-0.8-2zm18.9 7.1c0.2-0.8 1-1.3 1.8-1q4.8 1.4 9.6 2.6c0.9 0.2 1.3 1 1.2 1.8-0.2 0.8-1 1.3-1.9 1.1q-4.9-1.2-9.7-2.6c-0.8-0.3-1.3-1.1-1-1.9zm19.5 4.8c0.1-0.8 0.9-1.3 1.7-1.2q4.9 0.9 9.9 1.5c0.8 0.1 1.4 0.9 1.3 1.7-0.1 0.8-0.9 1.4-1.7 1.3q-5-0.6-10-1.5c-0.8-0.2-1.4-1-1.2-1.8zm19.9 2.7c0-0.9 0.8-1.5 1.6-1.4q5 0.3 9.9 0.4c0.9 0 1.5 0.7 1.5 1.5 0 0.8-0.7 1.5-1.5 1.5q-5.1-0.1-10.1-0.4c-0.9-0.1-1.5-0.8-1.4-1.6zm20.1 0.5c-0.1-0.9 0.6-1.6 1.4-1.6q5-0.1 10-0.5c0.8-0.1 1.5 0.5 1.6 1.3 0.1 0.9-0.5 1.6-1.4 1.7q-5 0.4-10.1 0.5c-0.8 0-1.5-0.6-1.5-1.4zm20-1.5c-0.1-0.8 0.5-1.6 1.3-1.7q5-0.6 9.9-1.4c0.8-0.2 1.6 0.4 1.7 1.2 0.2 0.8-0.4 1.6-1.2 1.7q-5 0.9-10 1.5c-0.8 0.1-1.6-0.5-1.7-1.3zm39.3-8.6c-0.3-0.7 0-1.6 0.8-1.9q4.7-1.8 9.1-4.1c0.7-0.3 1.6-0.1 2 0.7 0.4 0.7 0.1 1.6-0.7 2q-4.5 2.3-9.3 4.2c-0.8 0.3-1.6-0.1-1.9-0.9zm18-8.9c-0.5-0.7-0.3-1.6 0.4-2.1q4.1-2.7 7.9-5.9c0.7-0.5 1.6-0.4 2.2 0.2 0.5 0.6 0.4 1.6-0.2 2.1q-4 3.3-8.2 6.1c-0.7 0.5-1.7 0.3-2.1-0.4zm15.7-12.6c-0.6-0.6-0.6-1.5-0.1-2.1l2.2 2.1c-0.6 0.6-1.6 0.6-2.1 0zm-183.5 10.5l-0.8 1.4zm136.8 14.9l0.3 1.4z"/>
	<g id="Clip-Path" clip-path="url(#cp1)">
		<g id="Layer">
			<path id="Layer" class="s2" d="m350.5 47.3h115c3.5 0 6.4 2.9 6.4 6.4v60.7c0 3.5-2.9 6.4-6.4 6.4h-115c-3.5 0-6.4-2.9-6.4-6.4v-60.7c0-3.5 2.9-6.4 6.4-6.4z"/>
			<path id="Layer" class="s2" d="m364.9 17h1.6c1.7 0 3.2 1.4 3.2 3.2v25.5c0 1.8-1.5 3.2-3.2 3.2h-1.6c-1.8 0-3.2-1.4-3.2-3.2v-25.5c0-1.8 1.4-3.2 3.2-3.2z"/>
			<path id="Layer" class="s3" d="m369.7 60.1h78.2c4.4 0 8 3.6 8 8 0 4.4-3.6 8-8 8h-78.2c-4.4 0-8-3.6-8-8 0-4.4 3.6-8 8-8z"/>
			<path id="Layer" class="s4" d="m424 71.3c-1.8 0-3.2-1.4-3.2-3.2 0-1.8 1.4-3.2 3.2-3.2 1.7 0 3.2 1.4 3.2 3.2 0 1.8-1.5 3.2-3.2 3.2z"/>
			<path id="Layer" class="s4" d="m435.1 71.3c-1.7 0-3.1-1.4-3.1-3.2 0-1.8 1.4-3.2 3.1-3.2 1.8 0 3.2 1.4 3.2 3.2 0 1.8-1.4 3.2-3.2 3.2z"/>
			<path id="Layer" class="s1" d="m446.3 71.3c-1.7 0-3.2-1.4-3.2-3.2 0-1.8 1.5-3.2 3.2-3.2 1.8 0 3.2 1.4 3.2 3.2 0 1.8-1.4 3.2-3.2 3.2z"/>
			<path id="Layer" class="s2" d="m451.1 17h1.6c1.8 0 3.2 1.4 3.2 3.2v25.5c0 1.8-1.4 3.2-3.2 3.2h-1.6c-1.7 0-3.2-1.4-3.2-3.2v-25.5c0-1.8 1.5-3.2 3.2-3.2z"/>
			<path id="Layer" class="s4" d="m371.3 90.5h75c5.3 0 9.6 4.3 9.6 9.5v75.1c0 5.3-4.3 9.6-9.6 9.6h-75c-5.3 0-9.6-4.3-9.6-9.6v-75.1c0-5.2 4.3-9.5 9.6-9.5z"/>
		</g>
	</g>
	<path id="Layer" class="s5" d="m371.3 90.5h73.4v53.5h-73.4z"/>
	<path id="Layer" class="s6" d="m383 104c-3 0-5.5-2.5-5.5-5.5 0-3.1 2.5-5.5 5.5-5.5 3.1 0 5.6 2.4 5.6 5.5 0 3-2.5 5.5-5.6 5.5z"/>
	<path id="Layer" class="s6" d="m392.5 94.9h13.4c0.9 0 1.6 0.7 1.6 1.6v0.4c0 0.9-0.7 1.6-1.6 1.6h-13.4c-0.9 0-1.6-0.7-1.6-1.6v-0.4c0-0.9 0.7-1.6 1.6-1.6z"/>
	<path id="Layer" class="s6" d="m392.3 99.3h21.3c0.8 0 1.4 0.6 1.4 1.4 0 0.7-0.6 1.3-1.4 1.3h-21.3c-0.8 0-1.4-0.6-1.4-1.3 0-0.8 0.6-1.4 1.4-1.4z"/>
	<path id="Layer" class="s6" d="m422.9 94.3h13.4c0.9 0 1.6 0.7 1.6 1.6v5.1c0 0.9-0.7 1.6-1.6 1.6h-13.4c-0.9 0-1.6-0.7-1.6-1.6v-5.1c0-0.9 0.7-1.6 1.6-1.6z"/>
	<path id="Layer" class="s6" d="m383 122.2c-3 0-5.5-2.5-5.5-5.6 0-3 2.5-5.5 5.5-5.5 3.1 0 5.6 2.5 5.6 5.5 0 3.1-2.5 5.6-5.6 5.6z"/>
	<path id="Layer" class="s6" d="m392.5 113.1h13.4c0.9 0 1.6 0.7 1.6 1.6v0.4c0 0.8-0.7 1.5-1.6 1.5h-13.4c-0.9 0-1.6-0.7-1.6-1.5v-0.4c0-0.9 0.7-1.6 1.6-1.6z"/>
	<path id="Layer" class="s6" d="m392.3 117.4h21.3c0.8 0 1.4 0.7 1.4 1.4 0 0.8-0.6 1.4-1.4 1.4h-21.3c-0.8 0-1.4-0.6-1.4-1.4 0-0.7 0.6-1.4 1.4-1.4z"/>
	<path id="Layer" class="s6" d="m422.9 112.5h13.4c0.9 0 1.6 0.7 1.6 1.6v5.1c0 0.9-0.7 1.6-1.6 1.6h-13.4c-0.9 0-1.6-0.7-1.6-1.6v-5.1c0-0.9 0.7-1.6 1.6-1.6z"/>
	<path id="Layer" class="s6" d="m383 140.3c-3 0-5.5-2.4-5.5-5.5 0-3 2.5-5.5 5.5-5.5 3.1 0 5.6 2.5 5.6 5.5 0 3.1-2.5 5.5-5.6 5.5z"/>
	<path id="Layer" class="s6" d="m392.5 131.3h13.4c0.9 0 1.6 0.7 1.6 1.5v0.4c0 0.9-0.7 1.6-1.6 1.6h-13.4c-0.9 0-1.6-0.7-1.6-1.6v-0.4c0-0.8 0.7-1.5 1.6-1.5z"/>
	<path id="Layer" class="s6" d="m392.3 135.6h21.3c0.8 0 1.4 0.6 1.4 1.4 0 0.8-0.6 1.4-1.4 1.4h-21.3c-0.8 0-1.4-0.6-1.4-1.4 0-0.8 0.6-1.4 1.4-1.4z"/>
	<path id="Layer" class="s6" d="m422.9 130.7h13.4c0.9 0 1.6 0.7 1.6 1.6v5.1c0 0.9-0.7 1.6-1.6 1.6h-13.4c-0.9 0-1.6-0.7-1.6-1.6v-5.1c0-0.9 0.7-1.6 1.6-1.6z"/>
	<path id="Layer" class="s5" d="m23.5 183h155c4.1 0 7.5 3.4 7.5 7.5v188.4c0 4.2-3.4 7.6-7.5 7.6h-155c-4.1 0-7.5-3.4-7.5-7.6v-188.4c0-4.1 3.4-7.5 7.5-7.5z"/>
	<path id="Layer" fill-rule="evenodd" class="s6" d="m110.5 233.6c0-3.7-1.6-6-3.8-8.2-1.5-1.5-4-2.8-6.7-3.6l-0.5-3.6h7.8v-6.4h3.1v6.4h7.8l-2.5 25.8c-0.2 1.3-1.3 2.3-2.6 2.3h-2.6zm-26.7 11v-1.5h23.5v1.5c0 0.9-0.7 1.6-1.6 1.6h-20.4c-0.8 0-1.5-0.7-1.5-1.6zm0-10.9c0-12.6 23.5-12.6 23.5 0zm0 3.1h23.5v3.1h-23.5z"/>
	<path id="Layer" class="s6" d="m43.7 291.3c-6.7 0-12.1-5.5-12.1-12.2 0-6.7 5.4-12.1 12.1-12.1 6.7 0 12.1 5.4 12.1 12.1 0 6.7-5.4 12.2-12.1 12.2z"/>
	<path id="Layer" class="s6" d="m64.5 271.4h29.4c1.9 0 3.5 1.5 3.5 3.4v0.9c0 1.9-1.6 3.4-3.5 3.4h-29.4c-1.9 0-3.5-1.5-3.5-3.4v-0.9c0-1.9 1.6-3.4 3.5-3.4z"/>
	<path id="Layer" class="s6" d="m64 280.9h46.8c1.6 0 3 1.3 3 3 0 1.7-1.4 3-3 3h-46.8c-1.6 0-3-1.3-3-3 0-1.7 1.4-3 3-3z"/>
	<path id="Layer" class="s6" d="m137.5 270.1h29.5c1.9 0 3.4 1.5 3.4 3.4v11.3c0 1.9-1.5 3.4-3.4 3.4h-29.5c-1.9 0-3.4-1.5-3.4-3.4v-11.3c0-1.9 1.5-3.4 3.4-3.4z"/>
	<path id="Layer" class="s6" d="m43.7 331.1c-6.7 0-12.1-5.4-12.1-12.1 0-6.7 5.4-12.2 12.1-12.2 6.7 0 12.1 5.5 12.1 12.2 0 6.7-5.4 12.1-12.1 12.1z"/>
	<path id="Layer" class="s6" d="m64.5 311.2h29.4c1.9 0 3.5 1.5 3.5 3.4v0.9c0 1.9-1.6 3.5-3.5 3.5h-29.4c-1.9 0-3.5-1.6-3.5-3.5v-0.9c0-1.9 1.6-3.4 3.5-3.4z"/>
	<path id="Layer" class="s6" d="m64 320.7h46.8c1.6 0 3 1.3 3 3 0 1.7-1.4 3-3 3h-46.8c-1.6 0-3-1.3-3-3 0-1.7 1.4-3 3-3z"/>
	<path id="Layer" class="s6" d="m137.5 309.9h29.5c1.9 0 3.4 1.5 3.4 3.4v11.3c0 1.9-1.5 3.4-3.4 3.4h-29.5c-1.9 0-3.4-1.5-3.4-3.4v-11.3c0-1.9 1.5-3.4 3.4-3.4z"/>
	<path id="Layer" class="s6" d="m43.7 370.9c-6.7 0-12.1-5.4-12.1-12.1 0-6.7 5.4-12.1 12.1-12.1 6.7 0 12.1 5.4 12.1 12.1 0 6.7-5.4 12.1-12.1 12.1z"/>
	<path id="Layer" class="s6" d="m64.5 351h29.4c1.9 0 3.5 1.5 3.5 3.4v0.9c0 1.9-1.6 3.5-3.5 3.5h-29.4c-1.9 0-3.5-1.6-3.5-3.5v-0.9c0-1.9 1.6-3.4 3.5-3.4z"/>
	<path id="Layer" class="s6" d="m64 360.5h46.8c1.6 0 3 1.4 3 3 0 1.7-1.4 3.1-3 3.1h-46.8c-1.6 0-3-1.4-3-3.1 0-1.6 1.4-3 3-3z"/>
	<path id="Layer" class="s6" d="m137.5 349.7h29.5c1.9 0 3.4 1.5 3.4 3.4v11.3c0 1.9-1.5 3.5-3.4 3.5h-29.5c-1.9 0-3.4-1.6-3.4-3.5v-11.3c0-1.9 1.5-3.4 3.4-3.4z"/>
	<g id="Clip-Path" clip-path="url(#cp2)">
		<g id="Layer">
			<path id="Layer" fill-rule="evenodd" class="s1" d="m152 330c0-5.3 2.1-10.4 5.9-14.2 3.7-3.7 8.8-5.8 14.1-5.8 5.3 0 10.4 2.1 14.1 5.8 3.8 3.8 5.9 8.9 5.9 14.2 0 5.3-2.1 10.4-5.9 14.1-3.7 3.8-8.8 5.9-14.1 5.9-5.3 0-10.4-2.1-14.1-5.9-3.8-3.7-5.9-8.8-5.9-14.1zm18.9 8.5l11.5-14.4-2.1-1.6-9.8 12.2-7-5.7-1.7 2z"/>
		</g>
	</g>
	<path id="Layer" fill-rule="evenodd" class="s1" d="m369.1 268.1c-0.7-0.5-0.8-1.4-0.3-2.1q1.5-2.1 3-4.2c0.5-0.7 1.5-0.9 2.1-0.4 0.7 0.5 0.9 1.4 0.4 2.1q-1.6 2.1-3.1 4.2c-0.5 0.7-1.4 0.9-2.1 0.4zm48.9-87.9c-0.2 0.8-1 1.3-1.8 1.1-0.8-0.1-1.3-1-1.1-1.8q0.6-2.5 1.1-5 0.5-2.7 0.8-5.3c0.1-0.8 0.9-1.4 1.7-1.3 0.8 0.1 1.4 0.8 1.3 1.7q-0.3 2.7-0.9 5.5-0.5 2.6-1.1 5.1zm11.9-18.7c0.6 0.6 0.6 1.5 0 2.1-0.6 0.6-1.5 0.6-2.1 0l-7-7q0-1.8 0-3.6h-3q0 1.8 0 3.6l-7 7c-0.5 0.6-1.5 0.6-2.1 0-0.6-0.6-0.6-1.5 0-2.1l9.6-9.6c0.6-0.5 1.5-0.5 2.1 0zm-10.6-6.3l-1.5 1.5q-0.1 0.9-0.1 1.8l3 0.1q0-1 0.1-1.9zm-41.1 100.2c-0.7-0.5-0.8-1.4-0.4-2.1q3.1-4.3 6-8.6c0.5-0.7 1.4-0.9 2.1-0.4 0.7 0.5 0.8 1.4 0.4 2.1q-3 4.3-6 8.6c-0.5 0.7-1.4 0.9-2.1 0.4zm11.8-17.3c-0.7-0.5-0.9-1.4-0.5-2.1q2.8-4.4 5.5-8.8c0.4-0.8 1.3-1 2-0.6 0.8 0.5 1 1.4 0.6 2.1q-2.7 4.5-5.5 8.9c-0.5 0.7-1.4 0.9-2.1 0.5zm10.7-18c-0.7-0.4-1-1.3-0.6-2q2.4-4.6 4.6-9.3c0.4-0.7 1.3-1.1 2-0.7 0.8 0.3 1.1 1.2 0.7 2q-2.2 4.8-4.7 9.4c-0.4 0.7-1.3 1-2 0.6zm9-18.9c-0.8-0.3-1.2-1.1-0.9-1.9q1.9-4.8 3.5-9.8c0.2-0.7 1.1-1.2 1.9-0.9 0.8 0.2 1.2 1.1 0.9 1.8q-1.6 5.1-3.5 10c-0.3 0.8-1.2 1.1-1.9 0.8zm9.5-41.2c-0.9 0-1.5-0.7-1.5-1.5h3c0 0.9-0.7 1.5-1.5 1.5zm-1.6 14.8l-1.5-0.3z"/>
	<path id="Layer" class="s5" d="m308.1 229.2h58.3c1.1 0 2 0.9 2 1.9v95.5c0 1.1-0.9 1.9-2 1.9h-58.3c-1 0-1.9-0.8-1.9-1.9v-95.5c0-1 0.9-1.9 1.9-1.9z"/>
	<path id="Layer" class="s7" d="m308.1 229.2h58.3c1.1 0 2 0.9 2 1.9v95.5c0 1.1-0.9 1.9-2 1.9h-58.3c-1 0-1.9-0.8-1.9-1.9v-95.5c0-1 0.9-1.9 1.9-1.9z"/>
	<path id="Layer" fill-rule="evenodd" class="s6" d="m341.3 249.2c0-1.6-0.7-2.6-1.6-3.5-0.7-0.6-1.7-1.2-2.8-1.5l-0.2-1.5h3.2v-2.7h1.3v2.7h3.3l-1.1 10.8c-0.1 0.5-0.5 1-1.1 1h-1zm-11.2 4.6v-0.7h9.8v0.7c0 0.3-0.3 0.6-0.7 0.6h-8.5c-0.3 0-0.6-0.3-0.6-0.6zm0-4.6c0-5.2 9.8-5.2 9.8 0zm0 1.3h9.9v1.3h-9.9z"/>
	<path id="Layer" class="s6" d="m316.6 273.3c-2.8 0-5.1-2.3-5.1-5.1 0-2.8 2.3-5.1 5.1-5.1 2.8 0 5 2.3 5 5.1 0 2.8-2.2 5.1-5 5.1z"/>
	<path id="Layer" class="s6" d="m325.3 264.9h12.3c0.8 0 1.4 0.7 1.4 1.5v0.4c0 0.8-0.6 1.4-1.4 1.4h-12.3c-0.8 0-1.5-0.6-1.5-1.4v-0.4c0-0.8 0.7-1.5 1.5-1.5z"/>
	<path id="Layer" class="s6" d="m325.1 268.9h19.5c0.7 0 1.3 0.6 1.3 1.3 0 0.7-0.6 1.3-1.3 1.3h-19.5c-0.7 0-1.3-0.6-1.3-1.3 0-0.7 0.6-1.3 1.3-1.3z"/>
	<path id="Layer" class="s6" d="m349.3 264.4h12.3c0.8 0 1.5 0.7 1.5 1.5v4.7c0 0.8-0.7 1.4-1.5 1.4h-12.3c-0.8 0-1.4-0.6-1.4-1.4v-4.7c0-0.8 0.6-1.5 1.4-1.5z"/>
	<path id="Layer" class="s6" d="m316.6 289.9c-2.8 0-5.1-2.2-5.1-5 0-2.9 2.3-5.1 5.1-5.1 2.8 0 5 2.2 5 5.1 0 2.8-2.2 5-5 5z"/>
	<path id="Layer" class="s6" d="m325.3 281.6h12.3c0.8 0 1.4 0.6 1.4 1.4v0.4c0 0.8-0.6 1.5-1.4 1.5h-12.3c-0.8 0-1.5-0.7-1.5-1.5v-0.4c0-0.8 0.7-1.4 1.5-1.4z"/>
	<path id="Layer" class="s6" d="m325.1 285.6h19.5c0.7 0 1.3 0.5 1.3 1.2 0 0.7-0.6 1.3-1.3 1.3h-19.5c-0.7 0-1.3-0.6-1.3-1.3 0-0.7 0.6-1.2 1.3-1.2z"/>
	<path id="Layer" class="s6" d="m349.3 281.1l12.3-0.1c0.8 0 1.5 0.7 1.5 1.5v4.7c0 0.8-0.7 1.4-1.5 1.4h-12.3c-0.8 0-1.4-0.6-1.4-1.4v-4.7c0-0.8 0.6-1.5 1.4-1.5z"/>
	<path id="Layer" class="s6" d="m316.6 306.6c-2.8 0-5.1-2.3-5.1-5.1 0-2.8 2.3-5.1 5.1-5.1 2.8 0 5 2.3 5 5.1 0 2.8-2.2 5.1-5 5.1z"/>
	<path id="Layer" class="s6" d="m325.3 298.2h12.3c0.8 0 1.4 0.7 1.4 1.5v0.3c0 0.8-0.6 1.5-1.4 1.5h-12.3c-0.8 0-1.5-0.7-1.5-1.5v-0.3c0-0.8 0.7-1.5 1.5-1.5z"/>
	<path id="Layer" class="s6" d="m325.1 302.2h19.5c0.7 0 1.3 0.6 1.3 1.3 0 0.7-0.6 1.3-1.3 1.3h-19.5c-0.7 0-1.3-0.6-1.3-1.3 0-0.7 0.6-1.3 1.3-1.3z"/>
	<path id="Layer" class="s6" d="m349.3 297.7h12.3c0.8 0 1.5 0.6 1.5 1.4v4.7c0 0.8-0.7 1.5-1.5 1.5h-12.3c-0.8 0-1.4-0.7-1.4-1.5v-4.7c0-0.8 0.6-1.4 1.4-1.4z"/>
	<path id="Layer" class="s6" d="m316.6 323.2c-2.8 0-5.1-2.3-5.1-5.1 0-2.8 2.3-5 5.1-5 2.8 0 5 2.2 5 5 0 2.8-2.2 5.1-5 5.1z"/>
	<path id="Layer" class="s6" d="m325.3 314.9h12.3c0.8 0 1.4 0.6 1.4 1.4v0.4c0 0.8-0.6 1.4-1.4 1.4h-12.3c-0.8 0-1.5-0.6-1.5-1.4v-0.4c0-0.8 0.7-1.4 1.5-1.4z"/>
	<path id="Layer" class="s6" d="m325.1 318.9h19.5c0.7 0 1.3 0.5 1.3 1.2 0 0.7-0.6 1.3-1.3 1.3h-19.5c-0.7 0-1.3-0.6-1.3-1.3 0-0.7 0.6-1.2 1.3-1.2z"/>
	<path id="Layer" class="s6" d="m349.3 314.3h12.3c0.8 0 1.5 0.7 1.5 1.5v4.7c0 0.8-0.7 1.4-1.5 1.4h-12.3c-0.8 0-1.4-0.6-1.4-1.4v-4.7c0-0.8 0.6-1.5 1.4-1.5z"/>
	<path id="Layer" class="s2" d="m337 236c-1.1 0-2-0.9-2-2 0-1.1 0.9-2 2-2 1.1 0 2 0.9 2 2 0 1.1-0.9 2-2 2z"/>
</svg>