<svg xmlns="http://www.w3.org/2000/svg" fill="none" viewBox="0 0 666.67 666.67">
<mask id="mask0_315_4809" style="mask-type:luminance" maskUnits="userSpaceOnUse" x="0" y="0" width="667" height="667">
<path d="M0 0.00012207H666.667V666.667H0V0.00012207Z" fill="white"/>
</mask>
<g mask="url(#mask0_315_4809)">
<path d="M402.601 333.423H219.745C216.229 333.423 213.378 330.572 213.378 327.056V55.4442C213.378 51.9282 216.229 49.0775 219.745 49.0775H402.601C406.117 49.0775 408.967 51.9282 408.967 55.4442V327.056C408.967 330.572 406.117 333.423 402.601 333.423Z" fill="white"/>
<path d="M219.847 49.755C216.653 49.755 214.056 52.3537 214.056 55.547V326.954C214.056 330.148 216.653 332.746 219.847 332.746H402.498C405.692 332.746 408.289 330.148 408.289 326.954V55.547C408.289 52.3537 405.692 49.755 402.498 49.755H219.847ZM402.498 334.1H219.847C215.907 334.1 212.701 330.895 212.701 326.954V55.547C212.701 51.607 215.907 48.4003 219.847 48.4003H402.498C406.438 48.4003 409.644 51.607 409.644 55.547V326.954C409.644 330.895 406.438 334.1 402.498 334.1Z" fill="#E0E0E0"/>
<path d="M395.152 309.056H232.409V302.413H395.152V309.056Z" fill="#E0E0E0"/>
<path d="M395.152 318.973H232.409V312.331H395.152V318.973Z" fill="#E0E0E0"/>
<path d="M395.152 280.379H232.409V162.608H395.152V280.379Z" fill="#F5F5F5"/>
<path d="M394.325 183.031C394.325 183.226 357.96 183.385 313.112 183.385C268.248 183.385 231.891 183.226 231.891 183.031C231.891 182.837 268.248 182.679 313.112 182.679C357.96 182.679 394.325 182.837 394.325 183.031Z" fill="#263238"/>
<path d="M253.831 280.379C253.636 280.379 253.478 254.182 253.478 221.875C253.478 189.555 253.636 163.364 253.831 163.364C254.026 163.364 254.183 189.555 254.183 221.875C254.183 254.182 254.026 280.379 253.831 280.379Z" fill="#263238"/>
<path d="M327.032 281.738C326.837 281.738 326.679 255.236 326.679 222.554C326.679 189.859 326.837 163.364 327.032 163.364C327.227 163.364 327.385 189.859 327.385 222.554C327.385 255.236 327.227 281.738 327.032 281.738Z" fill="#263238"/>
<path d="M363.633 281.738C363.438 281.738 363.279 255.236 363.279 222.554C363.279 189.859 363.438 163.364 363.633 163.364C363.827 163.364 363.985 189.859 363.985 222.554C363.985 255.236 363.827 281.738 363.633 281.738Z" fill="#263238"/>
<path d="M247.581 177.255H238.096V170.291H247.581V177.255Z" fill="#E0E0E0"/>
<path d="M247.581 202.091H238.096V195.127H247.581V202.091Z" fill="#E0E0E0"/>
<path d="M247.581 217.832H238.096V210.868H247.581V217.832Z" fill="#E0E0E0"/>
<path d="M247.581 231.608H238.096V224.644H247.581V231.608Z" fill="#E0E0E0"/>
<path d="M355.281 177.255H335.164V170.291H355.281V177.255Z" fill="#E0E0E0"/>
<path d="M352.199 196.569H338.324V189.605H352.199V196.569Z" fill="#E0E0E0"/>
<path d="M352.199 217.685H338.324V210.721H352.199V217.685Z" fill="#E0E0E0"/>
<path d="M387.315 217.685H373.44V210.721H387.315V217.685Z" fill="#E0E0E0"/>
<path d="M352.199 231.725H338.324V224.761H352.199V231.725Z" fill="#E0E0E0"/>
<path d="M387.213 231.067H373.338V224.103H387.213V231.067Z" fill="#E0E0E0"/>
<path d="M387.213 197.025H373.338V190.061H387.213V197.025Z" fill="#E0E0E0"/>
<path d="M387.212 177.255H371.143V170.291H387.212V177.255Z" fill="#E0E0E0"/>
<path d="M315.626 177.255H263.008V170.291H315.626V177.255Z" fill="#E0E0E0"/>
<path d="M294.291 200.62H263.01V193.656H294.291V200.62Z" fill="#E0E0E0"/>
<path d="M315.626 217.179H263.008V210.215H315.626V217.179Z" fill="#E0E0E0"/>
<path d="M290.937 231.067H263.008V224.103H290.937V231.067Z" fill="#E0E0E0"/>
<path d="M395.152 296.412H363.632V280.379H395.152V296.412Z" fill="#E0E0E0"/>
<path d="M387.315 85.616H317.336V78.9733H387.315V85.616Z" fill="#E0E0E0"/>
<path d="M253.606 106.291H236.499V99.6479H253.606V106.291Z" fill="#E0E0E0"/>
<path d="M281.667 117.411H236.004V110.768H281.667V117.411Z" fill="#E0E0E0"/>
<path d="M372.18 106.291H389.286V99.6479H372.18V106.291Z" fill="#E0E0E0"/>
<path d="M344.119 117.411H389.782V110.768H344.119V117.411Z" fill="#E0E0E0"/>
<path d="M281.667 137.938H236.004V131.295H281.667V137.938Z" fill="#E0E0E0"/>
<path d="M352.576 149.475H236.003V142.832H352.576V149.475Z" fill="#E0E0E0"/>
<path d="M237.595 75.6199H240.697V86.5879H237.595V75.6199Z" fill="#E0E0E0"/>
<path d="M253.343 75.6206V86.5886H250.79L245.947 80.7446V86.5886H242.908V75.6206H245.462L250.304 81.4646V75.6206H253.343Z" fill="#E0E0E0"/>
<path d="M266.636 75.6206L261.936 86.5886H258.88L254.196 75.6206H257.55L260.526 82.766L263.566 75.6206H266.636Z" fill="#E0E0E0"/>
<path d="M275.636 81.1052C275.636 79.2092 274.336 77.9719 272.675 77.9719C271.013 77.9719 269.713 79.2092 269.713 81.1052C269.713 83.0012 271.013 84.2385 272.675 84.2385C274.336 84.2385 275.636 83.0012 275.636 81.1052ZM266.58 81.1052C266.58 77.8145 269.165 75.4025 272.675 75.4025C276.184 75.4025 278.769 77.8145 278.769 81.1052C278.769 84.3945 276.184 86.8079 272.675 86.8079C269.165 86.8079 266.58 84.3945 266.58 81.1052Z" fill="#E0E0E0"/>
<path d="M280.405 75.6199H283.508V86.5879H280.405V75.6199Z" fill="#E0E0E0"/>
<path d="M285.155 81.1052C285.155 77.7679 287.709 75.4025 291.187 75.4025C293.209 75.4025 294.838 76.1385 295.903 77.4705L293.93 79.2559C293.241 78.4252 292.394 77.9719 291.345 77.9719C289.543 77.9719 288.289 79.2239 288.289 81.1052C288.289 82.9852 289.543 84.2385 291.345 84.2385C292.394 84.2385 293.241 83.7839 293.93 82.9532L295.903 84.7399C294.838 86.0719 293.209 86.8079 291.187 86.8079C287.709 86.8079 285.155 84.4412 285.155 81.1052Z" fill="#E0E0E0"/>
<path d="M306.093 84.1915V86.5889H297.288V75.6209H305.889V78.0182H300.359V79.8675H305.232V82.1862H300.359V84.1915H306.093Z" fill="#E0E0E0"/>
<path d="M226.534 59.2694C226.534 60.9161 225.199 62.2507 223.553 62.2507C221.906 62.2507 220.571 60.9161 220.571 59.2694C220.571 57.6227 221.906 56.2881 223.553 56.2881C225.199 56.2881 226.534 57.6227 226.534 59.2694Z" fill="#E0E0E0"/>
<path d="M234.21 59.2694C234.21 60.9161 232.875 62.2507 231.228 62.2507C229.582 62.2507 228.247 60.9161 228.247 59.2694C228.247 57.6227 229.582 56.2881 231.228 56.2881C232.875 56.2881 234.21 57.6227 234.21 59.2694Z" fill="#E0E0E0"/>
<path d="M241.885 59.2694C241.885 60.9161 240.55 62.2507 238.903 62.2507C237.257 62.2507 235.922 60.9161 235.922 59.2694C235.922 57.6227 237.257 56.2881 238.903 56.2881C240.55 56.2881 241.885 57.6227 241.885 59.2694Z" fill="#E0E0E0"/>
<path d="M601.586 532.619H418.73C415.214 532.619 412.363 529.768 412.363 526.252V254.64C412.363 251.124 415.214 248.274 418.73 248.274H601.586C605.102 248.274 607.953 251.124 607.953 254.64V526.252C607.953 529.768 605.102 532.619 601.586 532.619Z" fill="white"/>
<path d="M418.831 248.951C415.638 248.951 413.039 251.548 413.039 254.742V526.15C413.039 529.344 415.638 531.942 418.831 531.942H601.485C604.677 531.942 607.274 529.344 607.274 526.15V254.742C607.274 251.548 604.677 248.951 601.485 248.951H418.831ZM601.485 533.296H418.831C414.89 533.296 411.685 530.091 411.685 526.15V254.742C411.685 250.802 414.89 247.596 418.831 247.596H601.485C605.423 247.596 608.629 250.802 608.629 254.742V526.15C608.629 530.091 605.423 533.296 601.485 533.296Z" fill="#E0E0E0"/>
<path d="M594.137 508.252H431.395V501.609H594.137V508.252Z" fill="#E0E0E0"/>
<path d="M594.137 518.169H431.395V511.527H594.137V518.169Z" fill="#E0E0E0"/>
<path d="M594.137 479.575H431.395V361.804H594.137V479.575Z" fill="#F5F5F5"/>
<path d="M593.311 382.227C593.311 382.422 556.945 382.581 512.097 382.581C467.233 382.581 430.876 382.422 430.876 382.227C430.876 382.033 467.233 381.875 512.097 381.875C556.945 381.875 593.311 382.033 593.311 382.227Z" fill="#E0E0E0"/>
<path d="M452.816 479.575C452.621 479.575 452.464 453.377 452.464 421.071C452.464 388.751 452.621 362.56 452.816 362.56C453.011 362.56 453.168 388.751 453.168 421.071C453.168 453.377 453.011 479.575 452.816 479.575Z" fill="#E0E0E0"/>
<path d="M526.017 480.934C525.823 480.934 525.664 454.432 525.664 421.75C525.664 389.055 525.823 362.56 526.017 362.56C526.212 362.56 526.369 389.055 526.369 421.75C526.369 454.432 526.212 480.934 526.017 480.934Z" fill="#E0E0E0"/>
<path d="M562.618 480.934C562.423 480.934 562.265 454.432 562.265 421.75C562.265 389.055 562.423 362.56 562.618 362.56C562.813 362.56 562.97 389.055 562.97 421.75C562.97 454.432 562.813 480.934 562.618 480.934Z" fill="#E0E0E0"/>
<path d="M446.566 376.451H437.081V369.487H446.566V376.451Z" fill="#E0E0E0"/>
<path d="M446.566 401.287H437.081V394.323H446.566V401.287Z" fill="#E0E0E0"/>
<path d="M446.566 417.028H437.081V410.064H446.566V417.028Z" fill="#E0E0E0"/>
<path d="M446.566 430.804H437.081V423.84H446.566V430.804Z" fill="#E0E0E0"/>
<path d="M554.267 376.451H534.149V369.487H554.267V376.451Z" fill="#E0E0E0"/>
<path d="M551.184 395.765H537.31V388.801H551.184V395.765Z" fill="#E0E0E0"/>
<path d="M551.184 416.881H537.31V409.917H551.184V416.881Z" fill="#E0E0E0"/>
<path d="M586.3 416.881H572.426V409.917H586.3V416.881Z" fill="#E0E0E0"/>
<path d="M551.184 430.921H537.31V423.957H551.184V430.921Z" fill="#E0E0E0"/>
<path d="M586.197 430.263H572.322V423.299H586.197V430.263Z" fill="#E0E0E0"/>
<path d="M586.197 396.221H572.322V389.257H586.197V396.221Z" fill="#E0E0E0"/>
<path d="M586.197 376.451H570.129V369.487H586.197V376.451Z" fill="#E0E0E0"/>
<path d="M514.614 376.451H461.995V369.487H514.614V376.451Z" fill="#E0E0E0"/>
<path d="M493.276 399.816H461.995V392.852H493.276V399.816Z" fill="#E0E0E0"/>
<path d="M514.614 416.375H461.995V409.411H514.614V416.375Z" fill="#E0E0E0"/>
<path d="M489.922 430.263H461.993V423.299H489.922V430.263Z" fill="#E0E0E0"/>
<path d="M594.137 495.608H562.617V479.575H594.137V495.608Z" fill="#E0E0E0"/>
<path d="M586.3 284.812H516.321V278.169H586.3V284.812Z" fill="#E0E0E0"/>
<path d="M452.591 305.487H435.484V298.844H452.591V305.487Z" fill="#E0E0E0"/>
<path d="M480.652 316.607H434.989V309.964H480.652V316.607Z" fill="#E0E0E0"/>
<path d="M571.165 305.487H588.272V298.844H571.165V305.487Z" fill="#E0E0E0"/>
<path d="M543.104 316.607H588.767V309.964H543.104V316.607Z" fill="#E0E0E0"/>
<path d="M480.652 337.133H434.989V330.491H480.652V337.133Z" fill="#E0E0E0"/>
<path d="M551.561 348.671H434.989V342.028H551.561V348.671Z" fill="#E0E0E0"/>
<path d="M436.579 274.817H439.682V285.785H436.579V274.817Z" fill="#E0E0E0"/>
<path d="M452.328 274.817V285.785H449.775L444.934 279.941V285.785H441.894V274.817H444.448L449.29 280.661V274.817H452.328Z" fill="#E0E0E0"/>
<path d="M465.622 274.817L460.922 285.785H457.866L453.182 274.817H456.535L459.511 281.962L462.551 274.817H465.622Z" fill="#E0E0E0"/>
<path d="M474.621 280.301C474.621 278.405 473.321 277.168 471.66 277.168C469.999 277.168 468.699 278.405 468.699 280.301C468.699 282.197 469.999 283.433 471.66 283.433C473.321 283.433 474.621 282.197 474.621 280.301ZM465.565 280.301C465.565 277.009 468.149 274.599 471.66 274.599C475.169 274.599 477.753 277.009 477.753 280.301C477.753 283.591 475.169 286.004 471.66 286.004C468.149 286.004 465.565 283.591 465.565 280.301Z" fill="#E0E0E0"/>
<path d="M479.391 274.817H482.493V285.785H479.391V274.817Z" fill="#E0E0E0"/>
<path d="M484.141 280.301C484.141 276.964 486.694 274.599 490.173 274.599C492.194 274.599 493.823 275.333 494.889 276.665L492.914 278.452C492.225 277.621 491.379 277.168 490.329 277.168C488.527 277.168 487.274 278.42 487.274 280.301C487.274 282.181 488.527 283.433 490.329 283.433C491.379 283.433 492.225 282.98 492.914 282.149L494.889 283.935C493.823 285.267 492.194 286.004 490.173 286.004C486.694 286.004 484.141 283.637 484.141 280.301Z" fill="#E0E0E0"/>
<path d="M505.079 283.388V285.785H496.272V274.817H504.875V277.214H499.344V279.064H504.216V281.382H499.344V283.388H505.079Z" fill="#E0E0E0"/>
<path d="M425.519 258.465C425.519 260.112 424.185 261.447 422.538 261.447C420.891 261.447 419.557 260.112 419.557 258.465C419.557 256.819 420.891 255.484 422.538 255.484C424.185 255.484 425.519 256.819 425.519 258.465Z" fill="#E0E0E0"/>
<path d="M433.195 258.465C433.195 260.112 431.86 261.447 430.214 261.447C428.567 261.447 427.232 260.112 427.232 258.465C427.232 256.819 428.567 255.484 430.214 255.484C431.86 255.484 433.195 256.819 433.195 258.465Z" fill="#E0E0E0"/>
<path d="M440.87 258.465C440.87 260.112 439.535 261.447 437.889 261.447C436.242 261.447 434.907 260.112 434.907 258.465C434.907 256.819 436.242 255.484 437.889 255.484C439.535 255.484 440.87 256.819 440.87 258.465Z" fill="#E0E0E0"/>
<path d="M486.521 46.8799C500.059 35.7439 520.289 35.7785 533.794 46.9505C534.99 47.9385 536.69 48.1212 537.861 46.9505C538.879 45.9319 539.063 43.8785 537.861 42.8839C530.086 36.4532 520.302 32.7092 510.17 32.6959C500.038 32.6812 490.246 36.4039 482.454 42.8132C481.254 43.8012 481.431 45.8572 482.454 46.8799C483.642 48.0665 485.318 47.8692 486.521 46.8799Z" fill="#E0E0E0"/>
<path d="M496.017 56.9624C504.116 50.3477 516.22 50.373 524.299 57.0064C525.497 57.9917 527.191 58.1797 528.365 57.0064C529.38 55.9904 529.571 53.9304 528.365 52.9397C523.224 48.7184 516.861 46.2184 510.165 46.209C503.469 46.1997 497.103 48.6877 491.951 52.8957C490.747 53.8784 490.931 55.9424 491.951 56.9624C493.141 58.153 494.811 57.9477 496.017 56.9624Z" fill="#E0E0E0"/>
<path d="M517.269 65.4333C517.269 69.3599 514.085 72.5439 510.158 72.5439C506.23 72.5439 503.046 69.3599 503.046 65.4333C503.046 61.5066 506.23 58.3226 510.158 58.3226C514.085 58.3226 517.269 61.5066 517.269 65.4333Z" fill="#E0E0E0"/>
</g>
<mask id="mask1_315_4809" style="mask-type:luminance" maskUnits="userSpaceOnUse" x="0" y="0" width="667" height="667">
<path d="M0 0.00012207H666.667V666.667H0V0.00012207Z" fill="white"/>
</mask>
<g mask="url(#mask1_315_4809)">
<path d="M366.102 71.6081L367.343 68.7415C377.806 44.5815 400.422 27.7735 426.441 25.8548C429.785 25.6081 433.149 25.6028 436.502 25.8521C460.645 27.6455 483.491 42.5721 495.075 64.1215C501.887 76.7948 505.394 91.9841 516.293 101.288C530.478 113.396 551.395 110.96 569.655 107.865C587.914 104.769 608.854 102.385 622.986 114.556C631.837 122.179 635.967 134.183 636.949 145.887C639.547 176.875 621.897 207.331 596.517 224.753C571.137 242.177 539.209 247.819 508.545 245.909C465.59 243.235 422.658 225.567 393.849 193.116C365.039 160.667 352.294 112.811 366.102 71.6081Z" fill="#F5F5F5"/>
<path d="M608.82 291.015C608.82 307.402 595.536 320.686 579.148 320.686C562.762 320.686 549.478 307.402 549.478 291.015C549.478 274.629 562.762 261.343 579.148 261.343C595.536 261.343 608.82 274.629 608.82 291.015Z" fill="#F5F5F5"/>
</g>
<mask id="mask2_315_4809" style="mask-type:luminance" maskUnits="userSpaceOnUse" x="0" y="0" width="667" height="667">
<path d="M0 0.00012207H666.667V666.667H0V0.00012207Z" fill="white"/>
</mask>
<g mask="url(#mask2_315_4809)">
<path d="M622.211 622.346C622.211 622.538 492.865 622.692 333.347 622.692C173.773 622.692 44.4561 622.538 44.4561 622.346C44.4561 622.154 173.773 621.999 333.347 621.999C492.865 621.999 622.211 622.154 622.211 622.346Z" fill="#263238"/>
</g>
<mask id="mask3_315_4809" style="mask-type:luminance" maskUnits="userSpaceOnUse" x="0" y="0" width="667" height="667">
<path d="M0 0.00012207H666.667V666.667H0V0.00012207Z" fill="white"/>
</mask>
<g mask="url(#mask3_315_4809)">
<path d="M291.888 380.623H109.032C105.516 380.623 102.665 377.772 102.665 374.256V102.644C102.665 99.1281 105.516 96.2775 109.032 96.2775H291.888C295.404 96.2775 298.254 99.1281 298.254 102.644V374.256C298.254 377.772 295.404 380.623 291.888 380.623Z" fill="white"/>
<path d="M109.134 96.9547C105.94 96.9547 103.343 99.5534 103.343 102.747V374.153C103.343 377.347 105.94 379.945 109.134 379.945H291.786C294.979 379.945 297.576 377.347 297.576 374.153V102.747C297.576 99.5534 294.979 96.9547 291.786 96.9547H109.134ZM291.786 381.3H109.134C105.194 381.3 101.988 378.095 101.988 374.153V102.747C101.988 98.8067 105.194 95.6 109.134 95.6H291.786C295.726 95.6 298.931 98.8067 298.931 102.747V374.153C298.931 378.095 295.726 381.3 291.786 381.3Z" fill="#263238"/>
<path d="M284.439 356.256H121.696V349.613H284.439V356.256Z" fill="#E0E0E0"/>
<path d="M284.439 366.173H121.696V359.531H284.439V366.173Z" fill="#E0E0E0"/>
<path d="M284.439 327.579H121.696V209.808H284.439V327.579Z" fill="#F5F5F5"/>
<path d="M283.612 230.231C283.612 230.426 247.247 230.584 202.399 230.584C157.535 230.584 121.178 230.426 121.178 230.231C121.178 230.036 157.535 229.879 202.399 229.879C247.247 229.879 283.612 230.036 283.612 230.231Z" fill="#263238"/>
<path d="M143.118 327.579C142.923 327.579 142.765 301.381 142.765 269.075C142.765 236.755 142.923 210.564 143.118 210.564C143.313 210.564 143.471 236.755 143.471 269.075C143.471 301.381 143.313 327.579 143.118 327.579Z" fill="#263238"/>
<path d="M216.319 328.938C216.124 328.938 215.967 302.436 215.967 269.754C215.967 237.059 216.124 210.564 216.319 210.564C216.513 210.564 216.671 237.059 216.671 269.754C216.671 302.436 216.513 328.938 216.319 328.938Z" fill="#263238"/>
<path d="M252.92 328.938C252.725 328.938 252.566 302.436 252.566 269.754C252.566 237.059 252.725 210.564 252.92 210.564C253.114 210.564 253.273 237.059 253.273 269.754C253.273 302.436 253.114 328.938 252.92 328.938Z" fill="#263238"/>
<path d="M136.87 224.455H127.385V217.491H136.87V224.455Z" fill="#E0E0E0"/>
<path d="M136.87 249.291H127.385V242.327H136.87V249.291Z" fill="#E0E0E0"/>
<path d="M136.87 265.031H127.385V258.067H136.87V265.031Z" fill="#E0E0E0"/>
<path d="M136.87 278.807H127.385V271.843H136.87V278.807Z" fill="#E0E0E0"/>
<path d="M244.569 224.455H224.451V217.491H244.569V224.455Z" fill="#E0E0E0"/>
<path d="M241.486 243.769H227.611V236.805H241.486V243.769Z" fill="#E0E0E0"/>
<path d="M241.486 264.885H227.611V257.921H241.486V264.885Z" fill="#E0E0E0"/>
<path d="M276.602 264.885H262.728V257.921H276.602V264.885Z" fill="#E0E0E0"/>
<path d="M241.486 278.925H227.611V271.961H241.486V278.925Z" fill="#E0E0E0"/>
<path d="M276.499 278.267H262.624V271.303H276.499V278.267Z" fill="#E0E0E0"/>
<path d="M276.499 244.225H262.624V237.261H276.499V244.225Z" fill="#E0E0E0"/>
<path d="M276.499 224.455H260.431V217.491H276.499V224.455Z" fill="#E0E0E0"/>
<path d="M204.916 224.455H152.297V217.491H204.916V224.455Z" fill="#E0E0E0"/>
<path d="M183.578 247.82H152.297V240.856H183.578V247.82Z" fill="#E0E0E0"/>
<path d="M204.916 264.379H152.297V257.415H204.916V264.379Z" fill="#E0E0E0"/>
<path d="M180.224 278.267H152.295V271.303H180.224V278.267Z" fill="#E0E0E0"/>
<path d="M284.439 343.612H252.919V327.579H284.439V343.612Z" fill="#FF725E"/>
<path d="M276.602 132.816H206.623V126.174H276.602V132.816Z" fill="#E0E0E0"/>
<path d="M142.893 153.49H125.786V146.847H142.893V153.49Z" fill="#E0E0E0"/>
<path d="M170.954 164.611H125.291V157.968H170.954V164.611Z" fill="#E0E0E0"/>
<path d="M261.467 153.49H278.573V146.847H261.467V153.49Z" fill="#E0E0E0"/>
<path d="M233.406 164.611H279.069V157.968H233.406V164.611Z" fill="#E0E0E0"/>
<path d="M170.954 185.136H125.291V178.493H170.954V185.136Z" fill="#FF725E"/>
<path d="M241.863 196.675H125.291V190.032H241.863V196.675Z" fill="#E0E0E0"/>
<path d="M126.882 122.821H129.984V133.789H126.882V122.821Z" fill="#263238"/>
<path d="M142.631 122.821V133.789H140.078L135.235 127.945V133.789H132.196V122.821H134.75L139.592 128.665V122.821H142.631Z" fill="#263238"/>
<path d="M155.923 122.821L151.223 133.789H148.167L143.483 122.821H146.837L149.813 129.966L152.853 122.821H155.923Z" fill="#263238"/>
<path d="M164.923 128.306C164.923 126.41 163.623 125.172 161.962 125.172C160.301 125.172 159.001 126.41 159.001 128.306C159.001 130.202 160.301 131.439 161.962 131.439C163.623 131.439 164.923 130.202 164.923 128.306ZM155.867 128.306C155.867 125.015 158.453 122.603 161.962 122.603C165.471 122.603 168.057 125.015 168.057 128.306C168.057 131.595 165.471 134.008 161.962 134.008C158.453 134.008 155.867 131.595 155.867 128.306Z" fill="#263238"/>
<path d="M169.693 122.821H172.796V133.789H169.693V122.821Z" fill="#263238"/>
<path d="M174.443 128.306C174.443 124.968 176.997 122.603 180.475 122.603C182.497 122.603 184.126 123.339 185.191 124.671L183.218 126.456C182.529 125.626 181.682 125.172 180.633 125.172C178.83 125.172 177.577 126.424 177.577 128.306C177.577 130.186 178.83 131.439 180.633 131.439C181.682 131.439 182.529 130.984 183.218 130.154L185.191 131.94C184.126 133.272 182.497 134.008 180.475 134.008C176.997 134.008 174.443 131.642 174.443 128.306Z" fill="#263238"/>
<path d="M195.382 131.392V133.789H186.576V122.821H195.178V125.219H189.647V127.068H194.52V129.387H189.647V131.392H195.382Z" fill="#263238"/>
<path d="M115.821 106.469C115.821 108.116 114.486 109.451 112.84 109.451C111.193 109.451 109.858 108.116 109.858 106.469C109.858 104.823 111.193 103.488 112.84 103.488C114.486 103.488 115.821 104.823 115.821 106.469Z" fill="#E0E0E0"/>
<path d="M123.497 106.469C123.497 108.116 122.162 109.451 120.516 109.451C118.869 109.451 117.534 108.116 117.534 106.469C117.534 104.823 118.869 103.488 120.516 103.488C122.162 103.488 123.497 104.823 123.497 106.469Z" fill="#E0E0E0"/>
<path d="M131.172 106.469C131.172 108.116 129.837 109.451 128.19 109.451C126.544 109.451 125.209 108.116 125.209 106.469C125.209 104.823 126.544 103.488 128.19 103.488C129.837 103.488 131.172 104.823 131.172 106.469Z" fill="#E0E0E0"/>
</g>
<mask id="mask4_315_4809" style="mask-type:luminance" maskUnits="userSpaceOnUse" x="0" y="0" width="667" height="667">
<path d="M0 0.00012207H666.667V666.667H0V0.00012207Z" fill="white"/>
</mask>
<g mask="url(#mask4_315_4809)">
<path d="M482.945 594.414L308.595 593.645C287.621 593.553 270.697 577.84 270.789 558.542L272.631 156.412C272.723 137.105 289.809 121.521 310.795 121.606C310.812 121.606 310.829 121.606 310.847 121.606L485.147 122.305C506.115 122.397 523.037 138.104 522.952 157.396L521.111 559.573C521.055 578.868 504.008 594.466 483.036 594.414C483.005 594.414 482.976 594.414 482.945 594.414Z" fill="#263238"/>
<path d="M483.679 133.533L449.928 133.389L351.188 132.956H339.307L309.701 132.836C295.013 132.769 283.049 143.839 282.979 157.559C282.979 157.563 282.979 157.567 282.979 157.572L281.176 556.176C281.112 569.897 292.967 581.068 307.653 581.128L481.671 581.873C496.357 581.92 508.304 570.836 508.355 557.115V557.103L510.156 158.497C510.228 144.776 498.379 133.6 483.692 133.533H483.679Z" fill="white"/>
<path d="M485.248 168.974C485.248 170.175 484.275 171.15 483.072 171.15C481.871 171.15 480.897 170.175 480.897 168.974C480.897 167.773 481.871 166.798 483.072 166.798H483.085C484.281 166.806 485.248 167.778 485.248 168.974Z" fill="#263238"/>
<path d="M485.223 176.851C485.216 178.053 484.236 179.021 483.035 179.014C481.833 179.007 480.865 178.027 480.872 176.826C480.879 175.629 481.851 174.663 483.047 174.663C484.251 174.67 485.223 175.647 485.223 176.851Z" fill="#263238"/>
<path d="M485.196 184.639C485.203 185.847 484.23 186.833 483.02 186.841C481.812 186.847 480.827 185.873 480.82 184.665C480.812 183.457 481.787 182.471 482.995 182.463H483.02C484.219 182.471 485.19 183.441 485.196 184.639Z" fill="#263238"/>
<path d="M441.328 178.169H343.647C341.712 178.169 340.143 176.599 340.143 174.663C340.143 172.727 341.712 171.158 343.647 171.158H441.328C443.264 171.158 444.833 172.727 444.833 174.663C444.833 176.599 443.264 178.169 441.328 178.169Z" fill="#E0E0E0"/>
<path d="M444.021 527.078H353.117C342.258 527.078 333.457 518.276 333.457 507.418V506.79C333.457 495.932 342.258 487.129 353.117 487.129H444.021C454.88 487.129 463.682 495.932 463.682 506.79V507.418C463.682 518.276 454.88 527.078 444.021 527.078Z" fill="#FF725E"/>
<path d="M390.218 505.302C390.218 504.246 389.551 503.628 388.219 503.628H386.432V506.959H388.219C389.551 506.959 390.218 506.342 390.218 505.302ZM393.467 505.302C393.467 507.886 391.516 509.494 388.414 509.494H386.432V512.466H383.215V501.094H388.414C391.516 501.094 393.467 502.702 393.467 505.302Z" fill="white"/>
<path d="M401.141 507.885L399.679 504.245L398.216 507.885H401.141ZM402.083 510.257H397.275L396.38 512.467H393.099L398.119 501.093H401.287L406.323 512.467H402.976L402.083 510.257Z" fill="white"/>
<path d="M412.617 508.388V512.467H409.4V508.34L405.062 501.093H408.458L411.156 505.609L413.852 501.093H416.97L412.617 508.388Z" fill="white"/>
<path d="M475.054 249.607H306.749C305.614 249.607 304.694 248.687 304.694 247.552V247.487C304.694 246.352 305.614 245.434 306.749 245.434H475.054C476.189 245.434 477.109 246.352 477.109 247.487V247.552C477.109 248.687 476.189 249.607 475.054 249.607Z" fill="#263238"/>
<mask id="mask5_315_4809" style="mask-type:luminance" maskUnits="userSpaceOnUse" x="306" y="247" width="217" height="207">
<path d="M306.657 247.52H522.053V453.692H306.657V247.52Z" fill="white"/>
</mask>
<g mask="url(#mask5_315_4809)">
<g opacity="0.300003">
<path d="M488.656 416.872C483.308 402.168 480.787 386.585 480.787 370.937V287.56C480.787 259.812 458.685 247.52 458.685 247.52H306.657C306.657 247.52 328.76 259.812 328.76 287.56V385.474C328.76 385.474 329.733 447.358 360.432 453.693L507.561 453.489L522.053 453.478V443.885C513.143 437.157 493.24 429.477 488.656 416.872Z" fill="black"/>
</g>
</g>
<path d="M494.986 409.549C489.637 394.845 487.116 379.262 487.116 363.614V280.237C487.116 252.489 460.88 247.521 460.88 247.521H308.854C308.854 247.521 335.09 252.489 335.09 280.237V378.151C335.09 378.151 336.064 440.035 366.762 446.369L525.878 445.697C510.53 442.529 500.839 425.643 494.986 409.549Z" fill="white"/>
<path d="M494.985 409.549C494.985 409.549 495.405 410.575 496.185 412.589C497.021 414.578 498.208 417.567 500.115 421.314C502.016 425.054 504.607 429.605 508.539 434.309C510.536 436.623 512.875 438.975 515.741 441.015C518.597 443.055 522.031 444.734 525.913 445.527L527.548 445.861L525.879 445.869C489.681 446.054 434.051 446.339 366.763 446.683L366.729 446.685L366.697 446.677C360.359 445.35 354.684 441.342 350.665 436.077C346.583 430.825 343.705 424.637 341.512 418.189C339.305 411.727 337.795 404.947 336.669 398.027C335.6 391.098 334.827 384.019 334.747 376.809C334.743 348.083 334.74 317.965 334.736 286.982C334.736 284.763 334.736 282.55 334.736 280.341L334.547 277.065L334.449 275.43C334.372 274.891 334.255 274.359 334.159 273.823C333.559 269.505 331.887 265.393 329.528 261.809C327.159 258.217 323.992 255.201 320.419 252.873C316.853 250.539 312.872 248.803 308.788 247.863L305.773 247.17L308.853 247.171C364.403 247.19 416.029 247.207 460.88 247.223H460.912L460.936 247.229C464.221 247.959 467.279 249.231 470.157 250.762C473.027 252.305 475.692 254.19 477.943 256.455C482.621 260.843 485.453 266.741 486.604 272.667C487.757 278.654 487.276 284.573 487.373 290.25C487.368 295.949 487.363 301.482 487.357 306.841C487.331 328.275 487.308 346.933 487.288 362.287C487.153 377.645 489.392 389.583 491.38 397.515C492.38 401.491 493.327 404.489 493.973 406.503C494.309 407.499 494.564 408.255 494.739 408.777C494.909 409.286 494.985 409.549 494.985 409.549C494.985 409.549 494.589 408.531 493.887 406.533C493.211 404.526 492.233 401.535 491.204 397.561C489.159 389.633 486.86 377.675 486.944 362.287C486.925 346.933 486.901 328.275 486.875 306.841C486.869 301.482 486.864 295.949 486.859 290.25C486.755 284.565 487.216 278.638 486.071 272.774C484.928 266.941 482.145 261.167 477.545 256.863C475.332 254.642 472.709 252.791 469.881 251.275C467.056 249.773 464.004 248.515 460.825 247.813L460.88 247.818C416.029 247.833 364.403 247.85 308.853 247.87L308.917 247.177C313.148 248.15 317.151 249.903 320.801 252.285C324.445 254.657 327.687 257.741 330.115 261.421C332.531 265.09 334.24 269.303 334.853 273.706C334.952 274.253 335.071 274.797 335.149 275.346L335.249 277.009L335.441 280.341V286.981C335.439 317.963 335.435 348.079 335.432 376.803C335.508 383.955 336.275 391.026 337.336 397.922C338.453 404.811 339.952 411.559 342.139 417.975C344.311 424.379 347.161 430.509 351.173 435.678C355.128 440.863 360.656 444.759 366.824 446.062L366.76 446.055C434.048 445.83 489.68 445.645 525.877 445.523L525.843 445.866C521.909 445.049 518.439 443.337 515.564 441.266C512.677 439.195 510.332 436.817 508.335 434.481C504.403 429.734 501.832 425.155 499.952 421.397C498.067 417.629 496.908 414.625 496.099 412.623C495.347 410.597 494.985 409.549 494.985 409.549Z" fill="#263238"/>
<path d="M531.139 445.682C541.81 437.895 548.745 425.203 549.533 412.016L377.627 411.33C378.497 419.304 377.587 427.468 374.985 435.058C373.494 439.404 371.298 443.75 367.523 446.37L531.139 445.682Z" fill="#E0E0E0"/>
<path d="M531.139 445.682C531.139 445.682 530.873 445.703 530.339 445.715C529.785 445.724 528.995 445.738 527.965 445.755C525.849 445.776 522.758 445.808 518.763 445.85C510.715 445.907 499.046 445.991 484.461 446.096C455.219 446.251 414.305 446.467 367.525 446.715L366.418 446.72L367.326 446.086C369.773 444.378 371.61 441.86 372.949 439.111C374.294 436.352 375.241 433.362 376.007 430.323C377.503 424.231 377.97 417.778 377.277 411.367L377.234 410.975L377.629 410.976C379.21 410.983 380.921 410.99 382.637 410.996C451.457 411.332 512.399 411.628 549.534 411.81L549.754 411.811L549.739 412.03C549.322 418.324 547.615 423.794 545.545 428.226C543.462 432.671 541.001 436.099 538.807 438.675C536.595 441.25 534.617 442.96 533.273 444.086C531.878 445.171 531.139 445.682 531.139 445.682C531.139 445.682 531.313 445.524 531.659 445.243C532.021 444.951 532.533 444.539 533.201 443.999C534.517 442.847 536.465 441.116 538.638 438.531C540.795 435.946 543.214 432.519 545.254 428.091C547.279 423.675 548.942 418.24 549.326 412.004L549.531 412.223C512.397 412.107 451.455 411.916 382.634 411.702C380.918 411.695 379.207 411.688 377.626 411.682L377.978 411.291C378.679 417.786 378.206 424.32 376.687 430.491C375.91 433.57 374.954 436.588 373.573 439.418C372.201 442.232 370.297 444.855 367.719 446.652L367.522 446.024C414.262 445.879 455.142 445.751 484.359 445.66C498.958 445.643 510.638 445.628 518.694 445.618C522.702 445.626 525.803 445.632 527.927 445.636C528.966 445.644 529.761 445.651 530.319 445.655C530.859 445.663 531.139 445.682 531.139 445.682Z" fill="#263238"/>
<path d="M467.308 279.683C467.308 279.877 441.892 280.036 410.547 280.036C379.191 280.036 353.78 279.877 353.78 279.683C353.78 279.488 379.191 279.331 410.547 279.331C441.892 279.331 467.308 279.488 467.308 279.683Z" fill="#263238"/>
<path d="M467.308 303.877C467.308 304.071 441.892 304.23 410.547 304.23C379.191 304.23 353.78 304.071 353.78 303.877C353.78 303.682 379.191 303.525 410.547 303.525C441.892 303.525 467.308 303.682 467.308 303.877Z" fill="#263238"/>
<path d="M474.065 370.486C474.065 370.68 447.135 370.839 413.925 370.839C380.703 370.839 353.779 370.68 353.779 370.486C353.779 370.291 380.703 370.134 413.925 370.134C447.135 370.134 474.065 370.291 474.065 370.486Z" fill="#263238"/>
<path d="M393.885 269.24C393.885 268.46 393.301 268.087 392.196 268.087H389.498V270.394H392.196C393.301 270.394 393.885 270.019 393.885 269.24ZM389.498 263.667V265.86H391.708C392.781 265.86 393.332 265.487 393.332 264.756C393.332 264.042 392.781 263.667 391.708 263.667H389.498ZM397.134 269.598C397.134 271.563 395.509 272.716 392.456 272.716H386.314V261.344H392.129C395.12 261.344 396.581 262.563 396.581 264.318C396.581 265.406 396.029 266.283 395.054 266.786C396.338 267.242 397.134 268.216 397.134 269.598Z" fill="#263238"/>
<path d="M398.814 261.344H402.03V272.718H398.814V261.344Z" fill="#263238"/>
<path d="M404.326 261.344H407.542V270.167H412.969V272.717H404.326V261.344Z" fill="#263238"/>
<path d="M414.241 261.344H417.457V270.167H422.884V272.717H414.241V261.344Z" fill="#263238"/>
<path d="M412.952 297.011H355.289V288.399H412.952V297.011Z" fill="#E0E0E0"/>
<path d="M470.209 297.011H435.994V288.399H470.209V297.011Z" fill="#E0E0E0"/>
<path d="M410.543 323.104H355.287V314.492H410.543V323.104Z" fill="#E0E0E0"/>
<path d="M378.383 341.548H355.287V332.936H378.383V341.548Z" fill="#E0E0E0"/>
<path d="M392.731 358.587H355.287V349.975H392.731V358.587Z" fill="#E0E0E0"/>
<path d="M476.486 405.759H359.661V397.147H476.486V405.759Z" fill="#E0E0E0"/>
<path d="M471.121 323.104H454.348V314.492H471.121V323.104Z" fill="#FF725E"/>
<path d="M471.121 339.592H454.348V330.98H471.121V339.592Z" fill="#FF725E"/>
<path d="M471.121 357.916H454.348V349.304H471.121V357.916Z" fill="#FF725E"/>
<path d="M470.839 386.797H447.593V378.185H470.839V386.797Z" fill="#FF725E"/>
</g>
<mask id="mask6_315_4809" style="mask-type:luminance" maskUnits="userSpaceOnUse" x="0" y="0" width="667" height="667">
<path d="M0 0.00012207H666.667V666.667H0V0.00012207Z" fill="white"/>
</mask>
<g mask="url(#mask6_315_4809)">
<mask id="mask7_315_4809" style="mask-type:luminance" maskUnits="userSpaceOnUse" x="403" y="122" width="120" height="86">
<path d="M403.978 122.101H522.94V207.296H403.978V122.101Z" fill="white"/>
</mask>
<g mask="url(#mask7_315_4809)">
<g opacity="0.300003">
<path d="M522.405 207.296L414.579 205.687C408.724 205.687 403.979 200.942 403.979 195.087V122.102H482.768C503.771 122.102 522.952 135.606 522.94 160.123L522.405 207.296Z" fill="black"/>
</g>
</g>
</g>
<mask id="mask8_315_4809" style="mask-type:luminance" maskUnits="userSpaceOnUse" x="0" y="0" width="667" height="667">
<path d="M0 0.00012207H666.667V666.667H0V0.00012207Z" fill="white"/>
</mask>
<g mask="url(#mask8_315_4809)">
<path d="M420.033 79.1408H593.538C596.579 79.1408 599.043 81.6062 599.043 84.6475V190.697C599.043 193.737 596.579 196.202 593.538 196.202H420.033C416.991 196.202 414.527 193.737 414.527 190.697V84.6475C414.527 81.6062 416.991 79.1408 420.033 79.1408Z" fill="#FF725E"/>
<path d="M442.902 105.673C442.902 104.943 442.338 104.597 441.301 104.597H438.958V106.735H441.301C442.338 106.735 442.902 106.415 442.902 105.673ZM438.958 101.089V103.138H440.955C441.929 103.138 442.467 102.791 442.467 102.113C442.467 101.434 441.929 101.089 440.955 101.089H438.958ZM444.913 105.878C444.913 107.375 443.722 108.246 441.442 108.246H436.973V99.5779H441.199C443.363 99.5779 444.477 100.487 444.477 101.831C444.493 102.637 444.045 103.379 443.325 103.739C444.29 103.991 444.95 104.881 444.913 105.878Z" fill="white"/>
<path d="M451.507 104.866L450.124 101.55L448.754 104.866H451.507ZM452.135 106.39H448.114L447.346 108.246H445.284L449.126 99.5776H451.11L454.951 108.246H452.851L452.135 106.39Z" fill="white"/>
<path d="M463.85 99.5775V108.247H462.198L457.884 102.983V108.247H455.898V99.5775H457.564L461.866 104.84V99.5775H463.85Z" fill="white"/>
<path d="M469.05 104.84L467.885 106.12V108.311H465.951V99.6415H467.949V103.688L471.79 99.6415H474.018L470.433 103.483L474.274 108.284H471.931L469.05 104.84Z" fill="white"/>
<path d="M443.286 141.897H441.698V143.984H440.879V141.897H436.396V141.308L440.61 136.033H441.519L437.459 141.155H440.904V139.324H441.698V141.155H443.286V141.897Z" fill="white"/>
<path d="M449.125 141.705C449.125 142.985 448.165 144.061 446.244 144.061C445.192 144.097 444.167 143.73 443.376 143.037L443.785 142.384C444.451 143.004 445.335 143.336 446.244 143.305C447.524 143.305 448.293 142.692 448.293 141.705C448.293 140.718 447.615 140.13 446.141 140.13H445.579V139.528L447.781 136.762H443.709V136.033H448.831V136.621L446.589 139.452C448.28 139.605 449.125 140.437 449.125 141.705Z" fill="white"/>
<path d="M455.553 141.654C455.553 142.998 454.619 144.062 452.672 144.062C451.625 144.095 450.604 143.729 449.817 143.037L450.227 142.383C450.881 143.003 451.759 143.335 452.66 143.306C454.017 143.306 454.733 142.653 454.733 141.679C454.733 140.706 454.093 140.027 452.071 140.027H450.38L450.789 136.033H455.144V136.762H451.507L451.225 139.323H452.249C454.644 139.298 455.553 140.246 455.553 141.654Z" fill="white"/>
<path d="M461.764 141.616C461.764 140.565 460.983 139.9 459.767 139.9C458.755 139.785 457.841 140.512 457.727 141.524C457.723 141.558 457.72 141.593 457.717 141.629C457.717 142.512 458.448 143.344 459.817 143.344C460.773 143.457 461.639 142.776 461.752 141.82C461.759 141.761 461.763 141.701 461.764 141.641V141.616ZM462.571 141.616C462.556 142.988 461.431 144.088 460.059 144.072C459.992 144.072 459.924 144.068 459.856 144.061C457.743 144.061 456.591 142.589 456.591 140.08C456.591 137.377 458.063 135.969 460.228 135.969C460.883 135.941 461.533 136.092 462.109 136.404L461.777 137.057C461.312 136.786 460.777 136.657 460.24 136.686C458.524 136.686 457.423 137.786 457.423 139.95V140.592C457.896 139.698 458.848 139.168 459.856 139.234C461.175 139.064 462.381 139.996 462.551 141.314C462.564 141.414 462.571 141.514 462.571 141.616Z" fill="white"/>
<path d="M479.741 143.984L477.847 141.487L475.939 143.984H475.029L477.399 140.924L475.144 138.018H476.053L477.847 140.348L479.639 138.018H480.535L478.281 140.886L480.663 143.946L479.741 143.984Z" fill="white"/>
<path d="M485.811 143.984L483.878 141.487L481.97 143.984H481.061L483.43 140.924L481.175 138.018H482.085L483.878 140.348L485.67 138.018H486.554L484.351 140.886L486.733 143.946L485.811 143.984Z" fill="white"/>
<path d="M491.881 143.984L489.986 141.487L488.078 143.984H487.169L489.525 140.924L487.272 138.018H488.181L489.986 140.348L491.778 138.018H492.662L490.409 140.886L492.802 143.946L491.881 143.984Z" fill="white"/>
<path d="M497.963 143.984L496.068 141.487L494.121 143.984H493.212L495.581 140.924L493.327 138.018H494.236L496.029 140.348L497.821 138.018H498.719L496.477 140.886L498.859 143.946L497.963 143.984Z" fill="white"/>
<path d="M518.886 143.984L516.991 141.487L515.083 143.984H514.174L516.53 140.886L514.288 137.979H515.198L516.991 140.31L518.783 137.979H519.731L517.414 140.886L519.807 143.946L518.886 143.984Z" fill="white"/>
<path d="M524.942 143.984L523.048 141.487L521.14 143.984H520.23L522.6 140.924L520.345 138.018H521.254L523.048 140.348L524.84 138.018H525.736L523.482 140.886L525.864 143.946L524.942 143.984Z" fill="white"/>
<path d="M531.012 143.984L529.117 141.487L527.209 143.984H526.3L528.694 140.886L526.441 137.979H527.349L529.142 140.31L530.934 137.979H531.818L529.552 140.886L531.933 143.946L531.012 143.984Z" fill="white"/>
<path d="M537.081 143.984L535.186 141.487L533.278 143.984H532.369L534.725 140.924L532.536 138.018H533.445L535.25 140.348L537.042 138.018H537.926L535.609 140.886L538.002 143.946L537.081 143.984Z" fill="white"/>
<path d="M555.892 136.033V143.985H555.072V136.762H553.19V136.033H555.892Z" fill="white"/>
<path d="M563.036 141.705C563.036 142.986 562.076 144.061 560.155 144.061C559.104 144.097 558.078 143.73 557.287 143.037L557.696 142.384C558.36 143.006 559.246 143.338 560.155 143.306C561.436 143.306 562.204 142.692 562.204 141.705C562.204 140.72 561.526 140.13 560.052 140.13H559.49V139.529L561.692 136.762H557.62V136.033H562.742V136.621L560.5 139.452C562.191 139.605 563.036 140.437 563.036 141.705Z" fill="white"/>
<path d="M570.95 141.897H569.349V143.984H568.542V141.897H564.049V141.308L568.261 136.033H569.17L565.111 141.155H568.555V139.324H569.349V141.155H570.95V141.897Z" fill="white"/>
<path d="M577.084 143.267V143.985H571.501V143.446L574.804 140.207C575.701 139.323 575.88 138.786 575.88 138.247C575.88 137.326 575.228 136.762 574.01 136.762C573.192 136.707 572.393 137.034 571.846 137.646L571.257 137.146C571.981 136.367 573.013 135.95 574.074 136.007C575.688 136.007 576.712 136.826 576.712 138.158C576.681 139.137 576.21 140.049 575.432 140.642L572.73 143.306L577.084 143.267Z" fill="white"/>
<path d="M432.313 160.49C432.303 159.415 433.167 158.536 434.243 158.527C434.286 158.527 434.33 158.528 434.374 158.531C434.965 158.51 435.533 158.754 435.923 159.196L435.361 159.722C435.13 159.435 434.781 159.27 434.413 159.274C433.741 159.271 433.195 159.815 433.193 160.487C433.191 161.158 433.734 161.704 434.406 161.706H434.413C434.781 161.71 435.13 161.544 435.361 161.258L435.923 161.77C435.538 162.23 434.959 162.48 434.362 162.448C433.289 162.506 432.371 161.68 432.315 160.608C432.313 160.568 432.313 160.528 432.313 160.49Z" fill="white"/>
<path d="M438.676 160.912L438.075 159.452L437.472 160.912H438.676ZM438.946 161.578H437.191L436.846 162.384H435.948L437.639 158.543H438.51L440.2 162.384H439.291L438.946 161.578Z" fill="white"/>
<path d="M442.198 159.312H441.481V160.592H442.198C442.736 160.592 443.005 160.349 443.005 159.926C443.005 159.504 442.736 159.312 442.198 159.312ZM443.03 162.385L442.288 161.334H441.481V162.385H440.61V158.544H442.249C443.261 158.544 443.901 159.069 443.901 159.913C443.912 160.437 443.602 160.913 443.12 161.117L443.965 162.334L443.03 162.385Z" fill="white"/>
<path d="M444.298 162.013L444.593 161.348C444.967 161.611 445.415 161.751 445.873 161.744C446.398 161.744 446.603 161.577 446.603 161.348C446.603 160.631 444.401 161.117 444.401 159.708C444.401 159.068 444.925 158.531 446.001 158.531C446.45 158.527 446.891 158.643 447.282 158.864L447.013 159.529C446.693 159.347 446.331 159.245 445.962 159.235C445.438 159.235 445.233 159.427 445.233 159.671C445.233 160.361 447.447 159.888 447.447 161.271C447.447 161.911 446.91 162.449 445.834 162.449C445.29 162.46 444.755 162.308 444.298 162.013Z" fill="white"/>
<path d="M453.146 158.595V162.436H452.262V160.887H450.534V162.436H449.663V158.595H450.534V160.093H452.262V158.595H453.146Z" fill="white"/>
<path d="M457.013 160.49C456.998 159.832 456.454 159.311 455.797 159.324C455.139 159.339 454.618 159.883 454.631 160.54C454.646 161.188 455.174 161.706 455.822 161.706C456.465 161.707 456.987 161.186 456.989 160.542C456.989 160.524 456.987 160.507 456.987 160.49H457.013ZM453.747 160.49C453.683 159.346 454.559 158.367 455.703 158.303C456.847 158.24 457.826 159.115 457.89 160.259C457.954 161.403 457.078 162.382 455.934 162.446C455.897 162.447 455.859 162.448 455.822 162.448C454.742 162.512 453.814 161.688 453.751 160.608C453.749 160.568 453.747 160.53 453.747 160.49Z" fill="white"/>
<path d="M458.562 158.595H459.446V161.668H461.341V162.385H458.562V158.595Z" fill="white"/>
<path d="M463.531 161.668C464.181 161.669 464.709 161.142 464.711 160.492C464.712 159.841 464.185 159.313 463.536 159.312H463.531H462.724V161.668H463.531ZM461.84 158.594H463.569C464.629 158.594 465.489 159.454 465.489 160.516C465.489 161.576 464.629 162.436 463.569 162.436H461.84V158.594Z" fill="white"/>
<path d="M469.267 161.681V162.385H466.335V158.543H469.19V159.247H467.231V160.093H468.986V160.785H467.231V161.655L469.267 161.681Z" fill="white"/>
<path d="M471.521 159.312H470.803V160.592H471.521C472.058 160.592 472.327 160.349 472.327 159.926C472.327 159.504 472.097 159.312 471.559 159.312H471.521ZM472.353 162.385L471.61 161.334H470.803V162.385H469.933V158.544H471.571C472.583 158.544 473.223 159.069 473.223 159.913C473.234 160.437 472.925 160.913 472.442 161.117L473.287 162.334L472.353 162.385Z" fill="white"/>
<path d="M433.477 171.822H485.683C486.807 171.822 487.719 172.734 487.719 173.858V174.651C487.719 175.777 486.807 176.687 485.683 176.687H433.477C432.353 176.687 431.441 175.777 431.441 174.651V173.858C431.441 172.734 432.353 171.822 433.477 171.822Z" fill="white"/>
<path d="M551.513 171.822H578.71C579.835 171.822 580.746 172.734 580.746 173.858V174.651C580.746 175.777 579.835 176.687 578.71 176.687H551.513C550.389 176.687 549.477 175.777 549.477 174.651V173.858C549.477 172.734 550.389 171.822 551.513 171.822Z" fill="white"/>
<mask id="mask9_315_4809" style="mask-type:luminance" maskUnits="userSpaceOnUse" x="414" y="79" width="186" height="45">
<path d="M414.526 79.1402H599.057V123.663H414.526V79.1402Z" fill="white"/>
</mask>
<g mask="url(#mask9_315_4809)">
<g opacity="0.199997">
<path d="M592.936 79.1407H420.646C417.272 79.1407 414.533 81.8727 414.526 85.2487V116.159C425.41 123.753 440.366 125.123 453.632 122.318C469.266 119.054 483.429 111.05 497.988 104.494C512.548 97.938 528.566 92.6887 544.302 95.39C559.169 97.9513 571.833 107.183 585.278 114.034C589.688 116.313 594.3 118.173 599.056 119.591V85.2487C599.049 81.8727 596.31 79.1407 592.936 79.1407Z" fill="white"/>
</g>
</g>
<path d="M558.529 95.3645H567.544C569.772 95.3645 571.577 97.1698 571.577 99.3978V108.412C571.577 110.64 569.772 112.446 567.544 112.446H558.529C556.301 112.446 554.496 110.64 554.496 108.412V99.3978C554.496 97.1698 556.301 95.3645 558.529 95.3645Z" fill="white"/>
</g>
<path d="M163.353 635.692H154.276L143.311 571.517H156.64L163.353 635.692Z" fill="#AE7461"/>
<path d="M78.4893 635.692H87.5666L98.5319 571.517H85.2026L78.4893 635.692Z" fill="#AE7461"/>
<path d="M315.901 635.692H306.824L295.858 571.517H309.188L315.901 635.692Z" fill="#AE7461"/>
<path d="M231.037 635.692H240.114L251.08 571.517H237.75L231.037 635.692Z" fill="#AE7461"/>
<path d="M316.228 572.912H70.0176V545.841H316.228V572.912Z" fill="#FF725E"/>
<mask id="mask10_315_4809" style="mask-type:luminance" maskUnits="userSpaceOnUse" x="0" y="0" width="667" height="667">
<path d="M0 0.00012207H666.667V666.667H0V0.00012207Z" fill="white"/>
</mask>
<g mask="url(#mask10_315_4809)">
<path d="M288.948 532.205H136.407C129.827 532.205 124.492 526.87 124.492 520.29V506.48C124.492 499.9 129.827 494.565 136.407 494.565H288.948C295.528 494.565 300.863 499.9 300.863 506.48V520.29C300.863 526.87 295.528 532.205 288.948 532.205Z" fill="#FF725E"/>
<path d="M322.044 546.547H247.522V473.091H308.985C316.197 473.091 322.044 478.938 322.044 486.15V546.547Z" fill="#FF725E"/>
<path d="M267.899 494.565H131.846V394.676H250.414C260.07 394.676 267.899 402.504 267.899 412.161V494.565Z" fill="#FF725E"/>
<path d="M295.539 546.969L143.311 547.11V530.194H295.539V546.969Z" fill="#FF725E"/>
<path d="M226.94 494.565H70.0176V401.524C70.0176 397.741 73.0842 394.676 76.8669 394.676H226.94V494.565Z" fill="#FF725E"/>
<mask id="mask11_315_4809" style="mask-type:luminance" maskUnits="userSpaceOnUse" x="70" y="394" width="39" height="101">
<path d="M70.0186 394.676H108.709V494.565H70.0186V394.676Z" fill="white"/>
</mask>
<g mask="url(#mask11_315_4809)">
<g opacity="0.300003">
<path d="M98.2749 494.565H80.4522C74.6896 494.565 70.0176 489.893 70.0176 484.132V401.465C70.0176 397.716 73.0589 394.676 76.8082 394.676H108.708V484.132C108.708 489.893 104.038 494.565 98.2749 494.565Z" fill="black"/>
</g>
</g>
<path d="M177.369 360.366L169.793 318.037C167.801 305.21 173.603 293.358 186.481 291.722L187.679 291.64C199.743 290.817 210.42 299.392 212.211 311.352C213.878 322.478 215.575 334.793 215.91 340.801C216.604 353.238 204.308 356.018 204.308 356.018C204.28 356.021 205.058 363.553 205.465 367.185L203.384 376.816L177.369 360.366Z" fill="#FFC09D"/>
<path d="M204.287 356.052C204.287 356.052 196.486 357.047 187.78 352.374C187.78 352.374 192.311 361.45 204.634 359.484L204.287 356.052Z" fill="#FF9B6C"/>
<path d="M209.132 322.92C209.23 323.855 208.518 324.708 207.543 324.827C206.571 324.945 205.703 324.287 205.606 323.352C205.508 322.417 206.219 321.563 207.192 321.444C208.167 321.324 209.035 321.985 209.132 322.92Z" fill="#263238"/>
<path d="M209.897 316.594C209.693 316.841 208.281 315.937 206.372 316.073C204.462 316.181 203.128 317.259 202.905 317.038C202.796 316.942 202.992 316.509 203.572 316.023C204.142 315.539 205.137 315.039 206.328 314.963C207.517 314.889 208.548 315.258 209.153 315.667C209.772 316.078 209.998 316.483 209.897 316.594Z" fill="#263238"/>
<path d="M192.487 324.207C192.584 325.142 191.872 325.995 190.897 326.114C189.925 326.234 189.056 325.574 188.96 324.639C188.863 323.705 189.575 322.85 190.547 322.731C191.521 322.611 192.389 323.273 192.487 324.207Z" fill="#263238"/>
<path d="M191.209 318.314C191.004 318.561 189.591 317.658 187.683 317.793C185.775 317.901 184.439 318.979 184.216 318.759C184.108 318.662 184.301 318.23 184.884 317.743C185.453 317.261 186.449 316.761 187.639 316.683C188.828 316.61 189.859 316.979 190.465 317.387C191.081 317.798 191.311 318.203 191.209 318.314Z" fill="#263238"/>
<path d="M199.06 332.52C199.044 332.412 200.218 332.125 202.124 331.748C202.608 331.665 203.063 331.537 203.122 331.199C203.214 330.839 202.974 330.327 202.698 329.775C202.159 328.627 201.595 327.423 201.003 326.16C198.639 321.011 196.894 316.763 197.102 316.669C197.31 316.576 199.395 320.675 201.758 325.824C202.328 327.095 202.874 328.307 203.394 329.465C203.616 330.007 203.976 330.613 203.778 331.361C203.671 331.735 203.331 332.024 203.024 332.129C202.718 332.247 202.444 332.271 202.203 332.301C200.275 332.537 199.075 332.628 199.06 332.52Z" fill="#263238"/>
<path d="M191.419 312.299C191.193 312.804 189.305 312.417 187.046 312.523C184.785 312.583 182.93 313.107 182.667 312.62C182.551 312.387 182.902 311.921 183.669 311.473C184.43 311.024 185.619 310.632 186.975 310.581C188.33 310.533 189.546 310.837 190.337 311.229C191.135 311.62 191.519 312.059 191.419 312.299Z" fill="#263238"/>
<path d="M209.602 310.974C209.242 311.44 207.651 311.119 205.782 311.254C203.909 311.332 202.357 311.832 201.955 311.41C201.778 311.203 201.99 310.748 202.647 310.28C203.294 309.815 204.405 309.386 205.691 309.312C206.978 309.239 208.122 309.539 208.809 309.928C209.506 310.319 209.759 310.748 209.602 310.974Z" fill="#263238"/>
<path d="M171.39 326.744C171.172 326.667 162.679 324.801 163.53 333.279C164.382 341.755 174.22 339.367 174.22 339.367C174.21 339.123 171.39 326.744 171.39 326.744Z" fill="#FFC09D"/>
<path d="M169.795 335.956C169.755 335.932 169.657 336.074 169.419 336.213C169.187 336.349 168.776 336.468 168.317 336.346C167.389 336.108 166.492 334.762 166.297 333.238C166.199 332.469 166.287 331.718 166.499 331.082C166.696 330.437 167.053 329.962 167.496 329.837C167.935 329.689 168.28 329.926 168.408 330.154C168.545 330.38 168.508 330.554 168.555 330.565C168.58 330.584 168.723 330.405 168.619 330.061C168.567 329.897 168.448 329.706 168.232 329.564C168.012 329.418 167.704 329.364 167.395 329.43C166.745 329.541 166.217 330.201 165.983 330.9C165.715 331.604 165.597 332.449 165.709 333.313C165.935 335.016 166.969 336.526 168.231 336.758C168.843 336.853 169.321 336.624 169.559 336.398C169.8 336.162 169.825 335.968 169.795 335.956Z" fill="#FF9B6C"/>
<path d="M228.033 297.908C227.849 297.421 227.445 297.046 226.975 296.828C225.947 296.349 224.836 296.536 223.752 296.625C221.057 296.846 218.321 296.42 215.803 295.44C216.597 294.933 217.328 294.341 217.927 293.613C219.163 292.112 219.744 289.941 218.936 288.172C218.785 287.84 218.549 287.498 218.192 287.426C217.624 287.31 217.196 287.9 216.853 288.366C215.729 289.901 214.623 290.622 212.721 290.617C211.54 290.614 210.38 290.462 209.404 289.981C209.363 289.946 209.327 289.908 209.285 289.873C208.8 289.461 208.327 289.069 207.861 288.69L207.859 288.686L207.86 288.689C204.359 285.838 201.4 283.917 198.464 283.057C194.161 281.798 187.172 281.804 182.967 283.361C178.761 284.918 175.231 288.801 175.065 293.281C172.444 291.473 168.811 291.848 165.98 293.324L165.903 293.298C162.735 294.792 161.211 298.444 160.571 301.886C160.536 302.074 160.508 302.265 160.477 302.454C159.54 304.324 158.179 305.98 156.483 307.204C156.184 307.42 155.843 307.682 155.84 308.052C155.836 308.417 156.172 308.686 156.489 308.869C157.331 309.356 158.285 309.636 159.255 309.713C159.032 310.537 158.756 311.345 158.393 312.126C158.084 312.79 157.717 313.585 158.105 314.206C158.405 314.688 159.068 314.832 159.617 314.696C160.167 314.558 160.631 314.201 161.077 313.853C160.797 314.766 160.517 315.678 160.237 316.592C161.445 316.681 162.667 316.465 163.785 316.002C164.791 319.065 165.885 324.812 166.9 326.854C169.155 326.672 169.677 326.374 170.851 326.638C172.365 326.981 172.061 329.636 173.9 328.709C174.836 328.237 175.965 324.404 176.195 323.381C177.707 316.594 177.731 309.481 176.275 302.682C177.492 301.098 179.017 299.753 180.739 298.741L180.605 298.889C183.953 297.344 187.759 295.773 191.207 297.077C193.883 298.089 195.644 300.589 197.759 302.513C201.768 306.162 206.071 307.897 211.483 307.598C212.337 311.293 213.083 317.401 213.609 320.876L215.905 313.59L215.909 313.618C216.111 313.185 216.268 312.753 216.42 312.321L216.475 312.189L216.472 312.173C216.712 311.478 216.937 310.785 217.259 310.089C217.272 310.098 217.283 310.106 217.296 310.116C219.352 311.598 221.891 308.772 220.197 306.884C219.861 306.509 219.472 306.184 219.037 305.928C219.983 306.654 221.311 306.917 222.411 306.456C223.511 305.996 224.277 304.762 224.063 303.589C223.916 302.789 223.268 302.124 222.508 301.877C224.048 301.844 225.579 301.357 226.836 300.466C227.661 299.881 228.437 298.977 228.033 297.908Z" fill="#263238"/>
<path d="M179.11 294.322C179.138 294.351 178.622 294.701 177.977 295.583C177.338 296.459 176.671 297.942 176.478 299.89C176.377 300.858 176.358 301.933 176.471 303.075C176.578 304.218 176.79 305.433 177.005 306.714C177.215 307.995 177.442 309.349 177.498 310.774C177.526 311.485 177.513 312.214 177.43 312.947C177.343 313.67 177.233 314.455 176.759 315.115C176.382 315.654 175.693 315.943 175.065 315.877C174.434 315.829 173.85 315.553 173.402 315.142C172.513 314.289 172.197 313.126 171.895 312.105L172.159 312.11C171.826 313.089 171.479 314.057 170.906 314.858C170.342 315.665 169.509 316.242 168.621 316.41C168.178 316.494 167.722 316.467 167.319 316.313C166.91 316.161 166.594 315.865 166.366 315.542C166.146 315.211 166.011 314.838 165.994 314.467C165.979 314.098 166.089 313.734 166.298 313.463L166.441 313.567C165.591 314.751 164.639 315.437 163.973 315.83C163.635 316.027 163.363 316.151 163.178 316.233C162.991 316.309 162.893 316.342 162.889 316.334C162.886 316.326 162.978 316.278 163.157 316.187C163.334 316.094 163.598 315.955 163.922 315.749C164.566 315.335 165.485 314.638 166.295 313.466L166.439 313.57C166.065 314.054 166.118 314.834 166.538 315.422C166.75 315.713 167.038 315.975 167.398 316.103C167.757 316.237 168.173 316.259 168.577 316.178C169.391 316.015 170.167 315.474 170.694 314.709C171.235 313.942 171.57 313.001 171.898 312.022L172.037 311.606L172.162 312.027C172.462 313.049 172.786 314.162 173.597 314.93C173.998 315.298 174.533 315.546 175.085 315.587C175.639 315.639 176.195 315.403 176.525 314.942C176.939 314.37 177.058 313.626 177.142 312.914C177.223 312.198 177.238 311.485 177.213 310.785C177.161 309.383 176.943 308.038 176.739 306.757C176.533 305.475 176.329 304.255 176.23 303.097C176.126 301.938 176.157 300.849 176.273 299.866C176.495 297.891 177.207 296.386 177.886 295.515C178.571 294.639 179.11 294.322 179.11 294.322Z" fill="#455A64"/>
<path d="M218.685 302.62C218.689 302.623 218.657 302.656 218.594 302.715C218.516 302.784 218.421 302.868 218.306 302.971C218.181 303.085 218.02 303.221 217.813 303.36C217.612 303.504 217.382 303.677 217.098 303.832C216 304.492 214.205 305.219 211.881 305.309C209.58 305.405 206.752 304.865 204.12 303.28C201.465 301.741 199.03 299.329 196.956 296.497C195.906 295.084 195.02 293.616 194.068 292.273C193.122 290.929 192.104 289.7 190.924 288.768C189.756 287.828 188.444 287.179 187.134 286.949C186.481 286.823 185.837 286.844 185.228 286.917C184.62 287.011 184.052 287.191 183.534 287.419C182.5 287.884 181.694 288.559 181.1 289.232C180.504 289.909 180.126 290.6 179.878 291.185C179.426 292.381 179.468 293.117 179.421 293.109C179.416 293.109 179.414 293.065 179.418 292.979C179.424 292.873 179.43 292.747 179.44 292.592C179.468 292.255 179.564 291.759 179.773 291.144C180.008 290.543 180.378 289.828 180.977 289.125C181.573 288.427 182.388 287.723 183.448 287.232C183.978 286.991 184.564 286.797 185.194 286.696C185.824 286.612 186.5 286.587 187.176 286.712C188.534 286.939 189.892 287.603 191.09 288.557C192.304 289.507 193.345 290.756 194.301 292.108C195.262 293.46 196.15 294.924 197.192 296.325C199.25 299.136 201.65 301.521 204.256 303.048C206.841 304.621 209.604 305.169 211.873 305.103C214.161 305.04 215.937 304.356 217.041 303.733C218.152 303.101 218.66 302.587 218.685 302.62Z" fill="#455A64"/>
<path d="M219.277 297.056C219.289 297.072 219.141 297.197 218.863 297.409C218.588 297.628 218.16 297.905 217.611 298.208C217.063 298.517 216.377 298.823 215.592 299.099C214.803 299.361 213.912 299.585 212.959 299.715C212.004 299.835 211.085 299.847 210.255 299.797C209.425 299.732 208.684 299.613 208.075 299.456C207.465 299.303 206.981 299.145 206.66 299.005C206.335 298.872 206.161 298.789 206.168 298.771C206.187 298.719 206.908 299.004 208.12 299.255C208.725 299.384 209.456 299.48 210.271 299.529C211.087 299.563 211.985 299.543 212.921 299.425C213.855 299.299 214.728 299.087 215.508 298.844C216.281 298.587 216.965 298.307 217.516 298.027C218.623 297.472 219.245 297.012 219.277 297.056Z" fill="#455A64"/>
<path d="M199.518 338.326C199.386 338.032 197.471 339.022 195.262 338.092C193.05 337.166 192.203 335.016 191.929 335.14C191.795 335.176 191.794 335.786 192.218 336.66C192.629 337.518 193.541 338.61 194.893 339.18C196.245 339.745 197.578 339.597 198.397 339.254C199.235 338.912 199.598 338.452 199.518 338.326Z" fill="#263238"/>
<path d="M317.9 520.603L334.299 542.499C334.299 542.499 362.064 533.185 365.488 536.935L324.175 570.258L297.223 537.189L317.9 520.603Z" fill="#263238"/>
<path d="M320.08 551.013C319.457 551.877 319.629 553.221 320.467 553.88C321.304 554.537 322.672 554.375 323.311 553.521C323.949 552.669 323.792 551.048 322.885 550.488C321.98 549.928 320.383 550.208 319.968 551.189" fill="#E0E0E0"/>
<path d="M324.175 570.258L321.588 566.818L362.167 536.155C362.167 536.155 364.651 535.472 365.488 536.935L324.175 570.258Z" fill="#455A64"/>
<path d="M334.799 541.749C334.955 541.956 334.02 542.861 333.551 544.311C333.043 545.748 333.236 547.035 332.987 547.104C332.769 547.215 332.096 545.767 332.696 544.021C333.28 542.272 334.693 541.529 334.799 541.749Z" fill="white"/>
<path d="M340.578 540.046C340.782 540.205 340.184 541.253 340.187 542.658C340.15 544.064 340.72 545.126 340.512 545.28C340.348 545.464 339.256 544.396 339.286 542.648C339.299 540.9 340.418 539.857 340.578 540.046Z" fill="white"/>
<path d="M347.222 543.248C347.073 543.438 345.98 542.657 345.608 541.134C345.222 539.614 345.822 538.41 346.044 538.51C346.292 538.584 346.157 539.67 346.482 540.917C346.778 542.169 347.406 543.065 347.222 543.248Z" fill="white"/>
<path d="M330.508 537.174C330.572 537.426 329.421 537.894 328.344 538.891C327.245 539.867 326.667 540.964 326.423 540.876C326.188 540.824 326.452 539.379 327.739 538.223C329.015 537.056 330.479 536.935 330.508 537.174Z" fill="white"/>
<path d="M281.06 595.253L280.021 622.591C280.021 622.591 307.458 632.828 307.758 637.897L254.681 637.787L254.552 595.125L281.06 595.253Z" fill="#263238"/>
<path d="M263.613 620.256C262.585 620.535 261.873 621.688 262.109 622.727C262.345 623.766 263.512 624.5 264.545 624.239C265.577 623.979 266.474 622.62 266.124 621.614C265.773 620.61 264.356 619.822 263.416 620.323" fill="#E0E0E0"/>
<path d="M254.681 637.787L254.837 633.486L305.667 635.202C305.667 635.202 308.029 636.235 307.758 637.898L254.681 637.787Z" fill="#455A64"/>
<path d="M280.881 622.322C280.872 622.581 279.576 622.695 278.299 623.526C277 624.323 276.34 625.445 276.103 625.342C275.864 625.291 276.253 623.742 277.817 622.765C279.372 621.771 280.937 622.085 280.881 622.322Z" fill="white"/>
<path d="M286.444 624.636C286.502 624.887 285.378 625.326 284.496 626.42C283.582 627.488 283.357 628.674 283.098 628.662C282.856 628.702 282.68 627.184 283.802 625.844C284.913 624.495 286.438 624.388 286.444 624.636Z" fill="white"/>
<path d="M289.591 631.306C289.355 631.361 288.997 630.065 289.665 628.647C290.324 627.225 291.547 626.667 291.656 626.883C291.803 627.097 291.015 627.857 290.483 629.029C289.924 630.189 289.848 631.281 289.591 631.306Z" fill="white"/>
<path d="M280.427 616.066C280.318 616.302 279.13 615.942 277.664 616.038C276.198 616.104 275.056 616.594 274.922 616.371C274.771 616.184 275.887 615.227 277.614 615.138C279.34 615.035 280.555 615.863 280.427 616.066Z" fill="white"/>
<path d="M173.192 475.378C173.885 475.161 198.036 464.568 217.893 456.397C231.099 450.962 247.528 448.05 247.528 448.05C247.528 448.05 267.693 436.313 275.34 446.982C282.987 457.652 337.308 532.009 336.927 533.156C336.544 534.304 310.573 557.36 310.573 557.36C310.573 557.36 254.612 486.104 253.465 486.486C252.319 486.868 226.443 507.132 226.443 507.132C226.443 507.132 218.673 515.161 212.937 515.925C207.203 516.69 173.649 514.028 173.649 514.028L160.941 479.585L173.192 475.378Z" fill="#263238"/>
<path d="M201.733 505.382C202.933 506.182 215.681 515.116 215.681 515.116L244.528 521.779L250.404 616.512L284.875 615.28C284.875 615.28 284.923 546.976 284.923 530.978C284.923 514.98 284.523 500.182 279.724 494.983C274.924 489.783 253.465 486.486 253.465 486.486L201.733 505.382Z" fill="#263238"/>
<path d="M284.874 527.305C284.85 527.305 284.836 526.918 284.826 526.182C284.818 525.38 284.805 524.31 284.79 522.968C284.746 520.178 284.676 516.138 284.338 511.165C284.145 508.682 283.9 505.962 283.429 503.08C283.293 502.364 283.153 501.636 283.012 500.897C282.816 500.173 282.656 499.424 282.424 498.692C281.952 497.226 281.312 495.784 280.126 494.726C277.652 492.674 274.392 491.354 271.038 490.18C267.653 489.034 264.06 488.094 260.354 487.26C258.414 486.829 256.485 486.437 254.666 486.12L254.949 486.046C244.033 494.58 234.333 502.162 227.293 507.665C223.824 510.336 221.013 512.5 219.008 514.045C218.066 514.75 217.316 515.314 216.748 515.741C216.228 516.122 215.949 516.313 215.934 516.294C215.92 516.276 216.17 516.049 216.662 515.633C217.212 515.181 217.936 514.584 218.842 513.836C220.816 512.249 223.58 510.025 226.99 507.281C233.993 501.732 243.642 494.084 254.502 485.478L254.628 485.378L254.786 485.405C256.628 485.725 258.56 486.117 260.513 486.549C264.238 487.388 267.85 488.34 271.269 489.505C274.66 490.71 277.953 492.033 280.576 494.228C281.88 495.401 282.565 496.998 283.034 498.5C283.269 499.258 283.425 500.022 283.62 500.764C283.757 501.516 283.892 502.254 284.025 502.982C284.474 505.901 284.69 508.636 284.853 511.132C285.125 516.128 285.117 520.174 285.073 522.969C285.048 524.366 285.01 525.45 284.973 526.185C284.936 526.921 284.9 527.306 284.874 527.305Z" fill="#455A64"/>
<path d="M173.716 362.149L175.822 351.456L199.094 364.542L204.457 357.549L204.997 359.713L228.137 399.134L242.877 446.78L179.68 472.617L172.778 433.718L173.716 362.149Z" fill="#FAFAFA"/>
<path d="M222.453 441.557C222.428 441.559 222.368 441.291 222.277 440.778C222.183 440.183 222.063 439.439 221.916 438.527C221.631 436.57 221.167 433.745 220.536 430.266C219.284 423.31 217.18 413.759 214.007 403.451C210.816 393.145 207.171 384.07 204.284 377.617C202.844 374.389 201.635 371.794 200.768 370.017C200.375 369.181 200.053 368.498 199.797 367.954C199.583 367.478 199.481 367.223 199.503 367.211C199.525 367.199 199.671 367.433 199.928 367.886C200.216 368.415 200.577 369.078 201.02 369.889C201.967 371.63 203.248 374.195 204.752 377.403C207.765 383.817 211.501 392.894 214.701 403.237C217.887 413.581 219.917 423.183 221.044 430.179C221.611 433.677 221.997 436.518 222.197 438.49C222.289 439.41 222.364 440.161 222.424 440.759C222.467 441.279 222.479 441.554 222.453 441.557Z" fill="#263238"/>
<path d="M208.112 366.847C208.145 366.875 207.861 367.273 207.311 367.978C206.66 368.781 205.86 369.771 204.904 370.955L204.755 371.139L204.571 370.975C202.949 369.538 200.979 367.794 198.764 365.831L199.301 365.679C198.649 367.961 197.936 370.457 197.185 373.082L197.067 373.498L196.676 373.306C196.141 373.041 195.571 372.759 194.993 372.475C189.413 369.714 184.379 367.179 180.752 365.311C179.047 364.417 177.615 363.666 176.472 363.066C175.469 362.522 174.925 362.199 174.948 362.154C174.969 362.109 175.556 362.346 176.599 362.813C177.767 363.357 179.235 364.039 180.98 364.851C184.665 366.601 189.736 369.062 195.316 371.823C195.892 372.107 196.463 372.39 196.999 372.655L196.489 372.879C197.263 370.261 197.997 367.771 198.669 365.495L198.82 364.983L199.207 365.343C201.372 367.361 203.297 369.155 204.883 370.633L204.551 370.653C205.572 369.525 206.427 368.581 207.12 367.814C207.731 367.161 208.079 366.819 208.112 366.847Z" fill="#263238"/>
<mask id="mask12_315_4809" style="mask-type:luminance" maskUnits="userSpaceOnUse" x="173" y="468" width="16" height="47">
<path d="M173.649 468.897H188.401V514.483H173.649V468.897Z" fill="white"/>
</mask>
<g mask="url(#mask12_315_4809)">
<g opacity="0.300003">
<path d="M173.649 514.028L179.679 514.482L188.401 468.897C188.401 468.897 178.895 474.684 178.651 475.414C178.408 476.144 173.649 514.028 173.649 514.028Z" fill="black"/>
</g>
</g>
<path d="M174.947 355.897L171.291 362.651L151.355 373.387L157.898 447.143C157.898 447.143 145.221 483.109 145.221 499.031C145.221 514.951 148.758 522.615 152.886 524.679C157.013 526.743 172.934 519.077 172.934 519.077C172.934 519.077 174.65 509.689 183.897 488.423C193.143 467.157 203.005 443.899 203.005 443.899C203.005 443.899 205.953 432.401 199.173 411.469C192.391 390.537 174.947 355.897 174.947 355.897Z" fill="#455A64"/>
<path d="M268.635 388.392C268.635 388.392 268.219 377.279 268.809 375.417C268.814 375.399 268.821 375.38 268.826 375.361C269.721 372.592 272.95 369.676 275.814 369.167C277.322 368.9 278.531 368.972 279.038 369.476C279.591 370.027 280.346 374.169 280.346 374.169L295.186 371.427C295.186 371.427 286.418 385.113 283.941 388.784C281.463 392.453 278.903 394.888 278.903 394.888L262.515 433.935L255.863 411.696L268.635 388.392Z" fill="#FFC09D"/>
<path d="M301.203 348.105C297.501 355.169 285.046 379.394 281.49 386.314C280.953 387.36 279.694 387.798 278.622 387.318C277.463 386.801 276.977 385.417 277.557 384.288L297.207 346.034C297.786 344.908 299.181 344.481 300.291 345.09C301.366 345.68 301.773 347.02 301.203 348.105Z" fill="#263238"/>
<path d="M296.189 358.273C296.547 358.332 297.992 357.953 298.197 359.625C298.404 361.296 298.139 367.041 297.315 367.413C296.492 367.787 295.211 368.367 295.211 368.367C295.211 368.367 295.971 371.993 295.113 373.264C294.255 374.535 292.652 375.375 292.652 375.375C292.652 375.375 292.579 378.383 291.68 379.561C290.78 380.741 288.683 382.684 288.683 382.684C288.683 382.684 288.103 387.488 285.857 388.376C283.612 389.263 283.107 389.969 283.107 389.969L282.4 387.075C282.4 387.075 276.312 382.884 275.083 382.119C273.852 381.352 273.289 379.621 274.488 378.859C275.685 378.095 283.579 382.129 283.579 382.129L286.435 379.181L284.741 375.931C284.741 375.931 281.264 372.149 281.34 371.343C281.415 370.536 282.905 369.2 284.293 369.343C285.681 369.487 289.165 372.54 289.165 372.54C289.419 373.197 290.328 373.249 290.655 372.624L290.863 372.225C290.863 372.225 289.656 368.46 289.012 365.657C288.843 364.915 289.085 363.627 289.805 363.304C291.251 362.656 292.461 362.596 293.243 363.973L296.189 358.273Z" fill="#FFC09D"/>
<path d="M272.506 374.236C272.51 374.316 273.169 374.355 274.297 374.356L274.082 374.198C274.239 374.906 274.405 375.874 275.037 376.855C275.349 377.336 275.843 377.806 276.463 378.058C277.07 378.315 277.861 378.396 278.557 378.019C279.159 377.686 279.491 377.088 279.666 376.555C279.842 376.008 279.907 375.49 279.963 374.999C280.069 374.01 280.035 373.112 279.946 372.371C279.761 370.883 279.375 370.031 279.301 370.056C279.197 370.083 279.41 370.97 279.469 372.41C279.494 373.128 279.477 373.986 279.343 374.922C279.206 375.832 279.031 376.971 278.229 377.427C277.779 377.674 277.199 377.643 276.711 377.446C276.213 377.251 275.827 376.914 275.537 376.508C274.955 375.694 274.717 374.778 274.49 374.094L274.433 373.919L274.275 373.935C273.154 374.051 272.502 374.156 272.506 374.236Z" fill="#FF9B6C"/>
<path d="M282.4 387.074C282.452 386.997 281.445 386.213 279.775 385.006C278.868 384.366 277.88 383.667 276.819 382.917C276.259 382.527 275.681 382.126 275.085 381.713C274.573 381.305 274.087 380.677 274.012 380.059C273.908 379.475 274.557 379.045 275.156 379.125C275.824 379.173 276.512 379.379 277.145 379.579C278.417 380.001 279.544 380.478 280.489 380.875C282.376 381.681 283.533 382.214 283.579 382.129C283.621 382.049 282.54 381.363 280.689 380.439C279.761 379.983 278.647 379.455 277.347 378.989C276.689 378.766 276.001 378.533 275.191 378.461C274.804 378.397 274.244 378.533 273.907 378.81C273.516 379.078 273.256 379.643 273.337 380.125C273.479 381.083 274.059 381.73 274.679 382.237C275.296 382.65 275.895 383.05 276.475 383.438C277.563 384.143 278.577 384.802 279.507 385.405C281.245 386.507 282.347 387.151 282.4 387.074Z" fill="#FF9B6C"/>
<path d="M291.806 376.708C291.982 376.676 291.858 375.448 291.059 374.195C290.267 372.935 289.213 372.296 289.109 372.442C288.985 372.592 289.766 373.404 290.486 374.556C291.218 375.7 291.617 376.755 291.806 376.708Z" fill="#FF9B6C"/>
<path d="M292.755 363.342C292.576 363.434 293.139 364.664 293.928 366.056C294.707 367.445 295.15 368.66 295.338 368.616C295.518 368.584 295.343 367.197 294.524 365.733C293.71 364.294 292.91 363.264 292.755 363.342Z" fill="#FF9B6C"/>
<path d="M262.892 397.804C262.303 398.688 253.503 413.928 253.503 413.928C253.503 413.928 233.392 367.978 226.443 367.246C219.253 366.49 224.825 387.142 224.825 387.142L242.103 439.877C242.103 439.877 254.247 443.637 261.028 439.214C267.809 434.792 283.085 404.333 283.085 404.333L262.892 397.804Z" fill="#455A64"/>
<path d="M204.983 359.382C204.983 359.382 221.663 391.942 226.442 409.19C229.578 420.507 234.023 451.113 234.023 451.113L247.762 448.071L236.025 407.047L226.442 367.246L211.605 364.309L204.983 359.382Z" fill="#455A64"/>
<path d="M199.871 437.44C199.852 437.452 199.709 437.214 199.453 436.749C199.167 436.213 198.804 435.534 198.357 434.697C197.388 432.817 196.056 430.236 194.429 427.082C191.127 420.544 186.635 411.649 181.671 401.821C179.211 396.862 176.793 392.201 174.781 387.805C172.775 383.412 171.344 379.17 170.735 375.436C170.103 371.709 170.197 368.586 170.505 366.504C170.652 365.458 170.833 364.662 170.973 364.132C171.123 363.604 171.211 363.33 171.231 363.338C171.292 363.358 170.963 364.466 170.743 366.544C170.512 368.612 170.487 371.678 171.163 375.33C171.815 378.989 173.263 383.141 175.281 387.486C177.305 391.83 179.745 396.497 182.203 401.452C187.105 411.322 191.543 420.254 194.805 426.822C196.363 430.024 197.636 432.645 198.564 434.554C198.971 435.418 199.3 436.121 199.56 436.674C199.781 437.164 199.889 437.426 199.871 437.44Z" fill="#263238"/>
<path d="M231.769 377.506C231.793 377.498 231.891 377.722 232.056 378.154C232.243 378.67 232.469 379.3 232.745 380.062C233.321 381.728 234.083 384.16 234.935 387.193C236.62 393.265 238.449 401.785 240.031 411.256C240.809 415.988 241.551 420.492 242.228 424.609C242.568 426.653 242.893 428.6 243.199 430.43C243.519 432.229 243.977 433.884 244.441 435.378C245.381 438.369 246.269 440.758 246.8 442.438C247.069 443.277 247.264 443.933 247.381 444.382C247.497 444.832 247.547 445.072 247.521 445.078C247.499 445.085 247.403 444.861 247.241 444.426C247.051 443.916 246.816 443.289 246.532 442.532C245.92 440.884 244.961 438.528 243.952 435.536C243.452 434.04 242.959 432.374 242.604 430.536C242.279 428.708 241.931 426.762 241.567 424.72C240.872 420.606 240.111 416.106 239.312 411.377C237.733 401.916 235.989 393.412 234.436 387.325C233.652 384.284 232.967 381.836 232.476 380.148C232.252 379.369 232.068 378.726 231.917 378.201C231.797 377.753 231.745 377.514 231.769 377.506Z" fill="#263238"/>
<path d="M211.604 364.308C211.616 364.287 211.847 364.403 212.276 364.647C212.7 364.898 213.306 365.304 214.05 365.874C215.528 367.02 217.54 368.846 219.787 371.323C220.907 372.563 222.098 373.958 223.274 375.54C224.451 377.136 225.548 378.919 226.68 380.819C228.916 384.623 231.143 388.986 232.807 393.818C234.522 398.618 235.791 403.348 236.348 407.751C236.934 412.154 236.77 416.178 236.378 419.495C235.98 422.819 235.372 425.462 234.892 427.264C234.654 428.166 234.444 428.86 234.291 429.327C234.138 429.794 234.046 430.035 234.02 430.028C233.996 430.022 234.042 429.767 234.15 429.288C234.275 428.73 234.428 428.039 234.618 427.198C235.011 425.382 235.538 422.739 235.867 419.439C236.19 416.143 236.298 412.175 235.683 407.84C235.098 403.502 233.826 398.83 232.122 394.062C230.472 389.275 228.292 384.959 226.102 381.158C224.996 379.266 223.915 377.47 222.787 375.896C221.648 374.32 220.49 372.916 219.402 371.664C217.222 369.163 215.28 367.296 213.871 366.094C212.458 364.891 211.572 364.363 211.604 364.308Z" fill="#263238"/>
<path d="M171.963 484.403C171.994 484.397 172.089 484.662 172.227 485.173C172.363 485.685 172.534 486.443 172.689 487.423C172.994 489.379 173.223 492.242 172.817 495.659L172.779 495.974L172.459 495.919C168.691 495.279 164.139 494.699 159.226 494.443C154.162 494.171 149.445 494.29 145.542 494.555L144.878 494.601L145.275 494.075C147.198 491.535 148.822 489.39 150.063 487.75C151.231 486.242 151.919 485.402 151.97 485.439C152.021 485.477 151.429 486.386 150.345 487.955C149.157 489.634 147.602 491.831 145.763 494.433L145.495 493.953C149.414 493.609 154.165 493.443 159.263 493.717C164.211 493.975 168.793 494.602 172.569 495.318L172.211 495.579C172.674 492.239 172.538 489.415 172.338 487.469C172.133 485.518 171.89 484.419 171.963 484.403Z" fill="#263238"/>
<path d="M151.355 373.386C151.355 373.386 139.003 381.621 137.361 391.035C135.149 403.719 139.524 448.147 140.679 458.243C141.832 468.339 148.467 477.281 155.389 477.858C162.312 478.434 217.116 458.531 217.116 458.531L211.636 438.341L171.831 446.417L167.792 399.689L151.355 373.386Z" fill="#455A64"/>
<path d="M168.306 405.642L171.83 446.417L211.635 438.341L217.115 458.532C217.115 458.532 175.225 475.092 169.346 475.828C163.466 476.562 147.538 479.552 144.107 468.897" fill="#455A64"/>
<path d="M232.299 410.895L250.588 412.869C251.28 412.943 251.78 413.565 251.706 414.257L248.443 444.506C248.368 445.198 247.746 445.698 247.054 445.623L228.766 443.65C228.072 443.575 227.572 442.954 227.647 442.262L230.91 412.014C230.984 411.321 231.607 410.821 232.299 410.895Z" fill="#FF725E"/>
<path d="M232.299 410.895C232.317 410.944 231.869 410.812 231.359 411.274C231.096 411.508 230.984 411.887 230.972 412.415C230.925 412.939 230.872 413.528 230.813 414.183C230.547 416.915 230.172 420.743 229.712 425.442C229.219 430.215 228.635 435.863 227.988 442.128C227.857 442.814 228.299 443.356 229.047 443.347C229.851 443.432 230.664 443.518 231.485 443.606C233.128 443.779 234.807 443.958 236.515 444.139C239.931 444.506 243.467 444.884 247.089 445.272C247.419 445.31 247.755 445.154 247.939 444.882C248.031 444.739 248.083 444.606 248.099 444.41L248.171 443.738C248.268 442.843 248.364 441.955 248.46 441.072C248.652 439.308 248.841 437.571 249.028 435.862C249.403 432.448 249.765 429.154 250.111 426.014C250.46 422.879 250.793 419.898 251.105 417.103C251.183 416.406 251.26 415.72 251.336 415.047C251.367 414.727 251.428 414.338 251.433 414.086C251.428 413.827 251.312 413.575 251.125 413.399C250.927 413.218 250.72 413.139 250.403 413.116C250.085 413.08 249.772 413.044 249.461 413.01C248.841 412.939 248.233 412.868 247.64 412.802C242.952 412.248 239.133 411.798 236.407 411.476C235.135 411.311 234.12 411.18 233.357 411.08C232.66 410.983 232.296 410.919 232.299 410.895C232.301 410.871 232.671 410.887 233.372 410.939C234.139 411.006 235.159 411.094 236.437 411.203C239.168 411.471 242.995 411.846 247.693 412.306C248.288 412.366 248.896 412.427 249.517 412.49C249.828 412.522 250.143 412.554 250.46 412.586C250.779 412.595 251.223 412.727 251.497 413.002C251.788 413.27 251.973 413.659 251.988 414.066C251.98 414.476 251.927 414.752 251.899 415.107C251.829 415.782 251.759 416.467 251.687 417.166C251.395 419.962 251.084 422.946 250.757 426.083C250.424 429.226 250.076 432.52 249.715 435.936C249.532 437.644 249.347 439.383 249.157 441.147C249.063 442.03 248.968 442.919 248.872 443.814L248.799 444.486C248.781 444.74 248.683 445.047 248.521 445.28C248.197 445.763 247.593 446.042 247.013 445.974C243.392 445.58 239.856 445.196 236.44 444.826C234.733 444.639 233.056 444.455 231.412 444.275C230.592 444.184 229.779 444.095 228.976 444.006C228.599 444.004 227.981 443.824 227.689 443.424C227.353 443.06 227.255 442.456 227.341 442.059C228.045 435.799 228.68 430.156 229.216 425.388C229.769 420.699 230.22 416.88 230.541 414.154C230.623 413.502 230.697 412.915 230.764 412.392C230.787 411.896 230.955 411.388 231.263 411.168C231.871 410.695 232.327 410.903 232.299 410.895Z" fill="#263238"/>
<path d="M245.348 429.275L243.176 429.04L243.593 425.18L245.764 425.415L245.348 429.275Z" fill="white"/>
<path d="M245.956 423.638L243.784 423.404L244.202 419.544L246.372 419.778L245.956 423.638Z" fill="white"/>
<path d="M244.74 434.911L242.569 434.677L242.985 430.817L245.156 431.051L244.74 434.911Z" fill="white"/>
<path d="M244.108 440.465L241.936 440.23L242.353 436.37L244.524 436.605L244.108 440.465Z" fill="white"/>
<path d="M144.108 468.897C144.119 468.893 144.183 469.015 144.296 469.253C144.421 469.525 144.583 469.875 144.784 470.313C145.237 471.221 146.099 472.515 147.643 473.7C149.177 474.897 151.457 475.82 154.215 476.229C156.975 476.649 160.189 476.633 163.715 476.277C165.481 476.108 167.321 475.831 169.259 475.572C171.127 475.245 173.068 474.573 175.063 473.939C179.053 472.616 183.296 471.073 187.768 469.421C196.708 466.103 206.561 462.3 216.983 458.196L216.767 458.627C215.799 455.059 214.776 451.299 213.739 447.481C212.909 444.421 212.089 441.397 211.285 438.436L211.707 438.696C197.077 441.643 183.519 444.373 171.891 446.715L171.555 446.783L171.527 446.443C170.521 434.177 169.685 423.993 169.097 416.824C168.828 413.297 168.615 410.515 168.467 408.564C168.407 407.645 168.359 406.924 168.324 406.389C168.296 405.899 168.291 405.644 168.307 405.643C168.321 405.641 168.36 405.892 168.417 406.381C168.475 406.913 168.551 407.632 168.649 408.548C168.837 410.495 169.105 413.273 169.445 416.795C170.096 423.957 171.02 434.135 172.133 446.391L171.769 446.12C183.391 443.744 196.941 440.975 211.563 437.985L211.896 437.919L211.984 438.247C212.789 441.208 213.611 444.231 214.441 447.291C215.477 451.108 216.496 454.869 217.464 458.437L217.548 458.749L217.248 458.868C206.816 462.963 196.952 466.74 187.989 470.024C183.505 471.657 179.252 473.18 175.239 474.481C173.22 475.108 171.305 475.765 169.324 476.096C167.397 476.339 165.54 476.604 163.761 476.759C160.207 477.084 156.953 477.068 154.155 476.603C151.357 476.152 149.032 475.169 147.483 473.908C145.924 472.66 145.083 471.312 144.663 470.373C144.485 469.919 144.343 469.557 144.232 469.276C144.139 469.028 144.097 468.901 144.108 468.897Z" fill="#263238"/>
<path d="M144.005 381.623C144 381.551 145.364 381.367 147.558 381.635C149.745 381.894 152.745 382.735 155.661 384.462C158.57 386.202 160.741 388.438 162.012 390.236C163.293 392.038 163.782 393.323 163.716 393.352C163.604 393.414 162.957 392.224 161.602 390.548C160.257 388.871 158.106 386.772 155.289 385.087C152.465 383.415 149.594 382.526 147.478 382.143C145.36 381.752 144.005 381.751 144.005 381.623Z" fill="#263238"/>
<path d="M212.501 440.146C212.501 440.146 225.277 427.738 227.553 425.206C229.83 422.673 243.505 422.029 245.548 422.946C247.592 423.865 247.308 426.683 246.069 427.099C244.832 427.515 237.421 427.026 235.14 427.906C232.858 428.786 240.972 428.522 244.282 430.991C247.593 433.459 245.75 435.069 244.488 435.169C244.488 435.169 246.265 436.743 244.861 438.253C243.456 439.763 241.874 439.063 241.874 439.063C241.874 439.063 244.112 440.029 243.242 441.877C242.373 443.726 239.261 442.957 239.261 442.957C239.261 442.957 234.349 441.123 233.549 441.442C232.748 441.759 230.245 445.775 227.502 448.055C224.038 450.934 219.71 450.186 218.644 450.077L215.87 452.557C214.969 449.587 212.501 440.146 212.501 440.146Z" fill="#FFC09D"/>
<path d="M238.521 415.566L238.198 418.554L234.943 418.203L235.266 415.215L238.521 415.566Z" fill="white"/>
<path d="M168.219 547.11H70.0176V473.091H161.454C164.94 473.091 167.767 474.537 167.767 476.318L168.219 547.11Z" fill="#FF725E"/>
<mask id="mask13_315_4809" style="mask-type:luminance" maskUnits="userSpaceOnUse" x="70" y="473" width="58" height="100">
<path d="M70.0186 473.092H127.047V572.912H70.0186V473.092Z" fill="white"/>
</mask>
<g mask="url(#mask13_315_4809)">
<g opacity="0.300003">
<path d="M127.047 572.912H70.0186V473.092L126.735 473.239L127.047 572.912Z" fill="black"/>
</g>
</g>
<path d="M157.797 473.201C157.797 473.396 139.118 473.554 116.082 473.554C93.037 473.554 74.3623 473.396 74.3623 473.201C74.3623 473.006 93.037 472.849 116.082 472.849C139.118 472.849 157.797 473.006 157.797 473.201Z" fill="#263238"/>
<path d="M167.717 573.237C167.522 573.237 167.363 554.942 167.363 532.379C167.363 509.81 167.522 491.519 167.717 491.519C167.911 491.519 168.069 509.81 168.069 532.379C168.069 554.942 167.911 573.237 167.717 573.237Z" fill="#263238"/>
<path d="M248.314 546.744C248.314 546.939 230.354 547.097 208.204 547.097C186.046 547.097 168.089 546.939 168.089 546.744C168.089 546.549 186.046 546.392 208.204 546.392C230.354 546.392 248.314 546.549 248.314 546.744Z" fill="#263238"/>
</g>
</svg>