<svg version="1.2" xmlns="http://www.w3.org/2000/svg" viewBox="0 0 500 422" width="500" height="422">
	<title>NoCategories-svg</title>
	<style>
		.s0 { fill: #f4ddd6 } 
		.s1 { fill: #ffffff } 
		.s2 { fill: #e5e5ea } 
		.s3 { fill: #c0bebc } 
		.s4 { fill: #ff5833 } 
		.s5 { fill: #f2f2f7 } 
		.s6 { fill: #d28772 } 
	</style>
	<path id="Layer" class="s0" d="m249.8 411.8c115 0 208.2-89.6 208.2-200 0-110.5-93.2-200-208.2-200-115 0-208.2 89.5-208.2 200 0 110.4 93.2 200 208.2 200z"/>
	<path id="Layer" class="s1" d="m275.3 56.8h-184.7c-7.3 0-13.1 5.6-13.1 12.6v67.6c0 7 5.8 12.6 13.1 12.6h184.7c7.3 0 13.1-5.6 13.1-12.6v-67.6c0-7-5.8-12.6-13.1-12.6z"/>
	<path id="Layer" class="s2" d="m264.9 75.4h-89c-4.1 0-7.4 3.2-7.4 7.1 0 3.9 3.3 7.1 7.4 7.1h89c4.1 0 7.4-3.2 7.4-7.1 0-3.9-3.3-7.1-7.4-7.1z"/>
	<path id="Layer" class="s2" d="m264.9 96.1h-89c-4.1 0-7.4 3.2-7.4 7.1 0 3.9 3.3 7.1 7.4 7.1h89c4.1 0 7.4-3.2 7.4-7.1 0-3.9-3.3-7.1-7.4-7.1z"/>
	<path id="Layer" class="s2" d="m228 116.8h-52.1c-4.1 0-7.4 3.1-7.4 7.1 0 3.9 3.3 7.1 7.4 7.1h52.1c4 0 7.4-3.2 7.4-7.1 0-4-3.4-7.1-7.4-7.1z"/>
	<path id="Layer" class="s3" d="m125.4 131.6c16.4 0 29.6-12.7 29.6-28.4 0-15.7-13.2-28.4-29.6-28.4-16.3 0-29.5 12.7-29.5 28.4 0 15.7 13.2 28.4 29.5 28.4z"/>
	<path id="Layer" class="s1" d="m197.9 161.9h-184.8c-7.2 0-13.1 5.7-13.1 12.6v67.7c0 6.9 5.9 12.5 13.1 12.5h184.8c7.2 0 13.1-5.6 13.1-12.5v-67.7c0-6.9-5.9-12.6-13.1-12.6z"/>
	<path id="Layer" class="s2" d="m187.5 180.5h-89.1c-4.1 0-7.4 3.2-7.4 7.1 0 4 3.3 7.2 7.4 7.2h89.1c4.1 0 7.4-3.2 7.4-7.2 0-3.9-3.3-7.1-7.4-7.1z"/>
	<path id="Layer" class="s2" d="m187.5 201.2h-89.1c-4.1 0-7.4 3.2-7.4 7.1 0 4 3.3 7.1 7.4 7.1h89.1c4.1 0 7.4-3.1 7.4-7.1 0-3.9-3.3-7.1-7.4-7.1z"/>
	<path id="Layer" class="s2" d="m150.5 221.9h-52.1c-4.1 0-7.4 3.2-7.4 7.1 0 3.9 3.3 7.1 7.4 7.1h52.1c4.1 0 7.4-3.2 7.4-7.1 0-3.9-3.3-7.1-7.4-7.1z"/>
	<path id="Layer" class="s3" d="m48 236.7c16.3 0 29.6-12.7 29.6-28.4 0-15.7-13.3-28.4-29.6-28.4-16.4 0-29.6 12.7-29.6 28.4 0 15.7 13.2 28.4 29.6 28.4z"/>
	<path id="Layer" class="s1" d="m275.3 267h-184.7c-7.3 0-13.1 5.7-13.1 12.6v67.7c0 6.9 5.8 12.6 13.1 12.6h184.7c7.3 0 13.1-5.7 13.1-12.6v-67.7c0-6.9-5.8-12.6-13.1-12.6z"/>
	<path id="Layer" class="s2" d="m264.9 285.7h-89c-4.1 0-7.4 3.1-7.4 7.1 0 3.9 3.3 7.1 7.4 7.1h89c4.1 0 7.4-3.2 7.4-7.1 0-4-3.3-7.1-7.4-7.1z"/>
	<path id="Layer" class="s2" d="m264.9 306.3h-89c-4.1 0-7.4 3.2-7.4 7.1 0 4 3.3 7.2 7.4 7.2h89c4.1 0 7.4-3.2 7.4-7.2 0-3.9-3.3-7.1-7.4-7.1z"/>
	<path id="Layer" class="s2" d="m228 327h-52.1c-4.1 0-7.4 3.2-7.4 7.1 0 4 3.3 7.1 7.4 7.1h52.1c4 0 7.4-3.1 7.4-7.1 0-3.9-3.4-7.1-7.4-7.1z"/>
	<path id="Layer" class="s3" d="m125.4 341.9c16.4 0 29.6-12.8 29.6-28.5 0-15.6-13.2-28.4-29.6-28.4-16.3 0-29.5 12.8-29.5 28.4 0 15.7 13.2 28.5 29.5 28.5z"/>
	<path id="Layer" class="s4" d="m398.2 129.9c-14.3-13.7-32.4-23-52.2-26.8-19.7-3.8-40.2-1.8-58.8 5.6-18.6 7.4-34.5 19.9-45.7 36-11.2 16.1-17.1 35-17.1 54.3 0 19.4 5.9 38.3 17.1 54.4 11.2 16 27.1 28.6 45.7 36 18.6 7.4 39.1 9.3 58.8 5.5 19.8-3.7 37.9-13 52.2-26.7 9.4-9.1 16.9-19.9 22-31.8 5.1-11.8 7.8-24.5 7.8-37.4 0-12.8-2.7-25.5-7.8-37.4-5.1-11.9-12.6-22.6-22-31.7z"/>
	<path id="Layer" class="s4" d="m483.7 318.7l-71.6-68.8c-9-8.7-23.6-8.7-32.6 0-9 8.7-9 22.7 0 31.4l71.5 68.7c9.1 8.7 23.7 8.7 32.7 0 9-8.6 9-22.7 0-31.3z"/>
	<path id="Layer" class="s5" d="m374.4 152.7c-9.5-9.2-21.7-15.4-34.9-18-13.2-2.5-27-1.2-39.4 3.8-12.5 4.9-23.2 13.3-30.7 24.1-7.5 10.8-11.5 23.5-11.5 36.4 0 13 4 25.7 11.5 36.4 7.5 10.8 18.2 19.2 30.7 24.2 12.4 5 26.2 6.3 39.4 3.7 13.2-2.5 25.4-8.8 34.9-17.9 12.8-12.3 20-29 20-46.4 0-17.4-7.2-34-20-46.3z"/>
	<path id="Layer" class="s6" d="m336.4 204.5l12.3-11.9c1.5-1.4 2.3-3.2 2.3-5.2 0-2-0.8-3.8-2.3-5.2-1.4-1.4-3.4-2.2-5.4-2.2-2 0-4 0.8-5.4 2.2l-12.4 11.8-12.3-11.8c-1.5-1.4-3.5-2.2-5.5-2.2-2 0-4 0.8-5.4 2.2-1.5 1.4-2.3 3.2-2.3 5.2 0 2 0.8 3.8 2.3 5.2l12.3 11.9-12.3 11.9c-1.5 1.4-2.3 3.2-2.3 5.2 0 2 0.8 3.8 2.3 5.2 1.4 1.4 3.4 2.2 5.4 2.2 2 0 4-0.8 5.5-2.2l12.3-11.8 12.4 11.8c1.4 1.4 3.4 2.2 5.4 2.2 2 0 4-0.8 5.4-2.2 1.5-1.4 2.3-3.2 2.3-5.2 0-2-0.8-3.8-2.3-5.2z"/>
</svg>