<svg version="1.2" xmlns="http://www.w3.org/2000/svg" viewBox="0 0 264 267" width="264" height="267">
	<title>Frame-svg</title>
	<defs>
		<clipPath clipPathUnits="userSpaceOnUse" id="cp1">
			<path d="m-13-19h286v286h-286z"/>
		</clipPath>
		<clipPath clipPathUnits="userSpaceOnUse" id="cp2">
			<path d="m273-19h-286v286h286z"/>
		</clipPath>
		<clipPath clipPathUnits="userSpaceOnUse" id="cp3">
			<path d="m67.07 92.42c0.26 0.07 0.42 0.78 0.45 1.03 0.34 2.31 0.09 5.16-0.19 7.54-0.47 3.96-1.13 7.06-3.44 9.1-2.46 2.17-6.37 2.81-8.31 5.13-0.91 1.09-1.32 3.04-2.21 4.15-1.65 2.08-5.67 3.19-9.81 3.45-2.31 0.15-4.93-0.11-6.45-0.97-2.32-1.32-3.69-4.63-6.18-6.1-1.43-0.85-3.2-1.33-4.77-2.12-1.49-0.74-3.04-1.61-4.15-2.74-1.78-1.8-2.86-4.58-3.01-7.6-0.16-3.29 0.4-6.99 0.53-10.69 0.04-0.4 0.3-0.26 0.36-0.26 0.62 0.8 1.21 1.56 1.86 2.3 6.35 7.35 22.07 11.5 34.72 7.15 4.11-1.4 7.75-3.57 9.64-6.89 0.43-0.79 0.71-1.64 0.96-2.48z"/>
		</clipPath>
		<clipPath clipPathUnits="userSpaceOnUse" id="cp4">
			<path d="m273-19h-286v286h286z"/>
		</clipPath>
	</defs>
	<style>
		.s0 { fill: #ffffff } 
		.s1 { fill: #14512f } 
		.s2 { fill: #cc5a44 } 
		.s3 { fill: #eac868 } 
		.s4 { fill: #3a9b61 } 
		.s5 { fill: #4fc67f } 
		.s6 { fill: #e8e8e8 } 
		.s7 { fill: #152f8c } 
		.s8 { fill: #c19c27 } 
		.s9 { fill: #01237e } 
		.s10 { fill: #de8972 } 
		.s11 { fill: #aa3127 } 
		.s12 { fill: #aa7f5c } 
		.s13 { fill: #fffc94 } 
		.s14 { fill: #f7ef63 } 
		.s15 { fill: #020b40 } 
		.s16 { fill: #eabba7 } 
		.s17 { fill: #d3746a } 
		.s18 { fill: #ff5733 } 
		.s19 { fill: #b33d24 } 
	</style>
	<g id="Clip-Path" clip-path="url(#cp1)">
		<g id="Layer" style="opacity: .7">
			<g id="Clip-Path" clip-path="url(#cp2)">
				<g id="Layer">
					<path id="Layer" fill-rule="evenodd" class="s0" d="m5.1 81.5v42.3c0 3.6 3.1 6.5 6.8 6.5h65.3c3.8 0 6.8-2.9 6.8-6.5v-42.3z"/>
					<path id="Layer" fill-rule="evenodd" class="s1" d="m84 76.1c0-3.6-3-6.5-6.8-6.5h-65.3c-3.7 0-6.8 2.9-6.8 6.5v5.4h78.9z"/>
					<path id="Layer" class="s2" d="m14.6 75.4c0 1.4-1.2 2.5-2.6 2.5-1.4 0-2.6-1.1-2.6-2.5 0-1.5 1.2-2.6 2.6-2.6 1.4 0 2.6 1.1 2.6 2.6z"/>
					<path id="Layer" class="s2" d="m18.3 77.9h3l-1.5-2.5-1.5-2.6-1.5 2.6-1.4 2.5z"/>
					<path id="Layer" fill-rule="evenodd" class="s2" d="m43.5 72.9c2.3-0.1 4.5 0.8 5.8 2.1 1 1 2.1 3 1.7 5.4-0.4 3.1-3.7 5.3-6.8 5.3-4.5 0-8.6-4.4-6.5-9.1 0.8-1.6 2.6-3.4 5.8-3.7z"/>
					<path id="Layer" fill-rule="evenodd" class="s3" d="m44.8 78.3c-0.5-0.1-0.4-0.9-0.5-1.5-0.2-1.4-0.4-3.3 1.5-2.8 0.5 0.1 1.7 0.6 1.8 1.1 0.2 0.6-0.4 1.4-0.7 1.7-0.6 0.7-1.3 1.7-2.1 1.5z"/>
					<path id="Layer" fill-rule="evenodd" class="s3" d="m42.5 74.4c0.7 0.2 0.7 1.3 0.9 2 0.3 0.7 1.2 1.6 0.7 2.1-0.5 0.5-1.4-0.5-2.2-0.9-0.7-0.3-1.8-0.7-1.8-1.5-0.1-0.9 1.1-2.1 2.4-1.7z"/>
					<path id="Layer" fill-rule="evenodd" class="s3" d="m48.6 77.5c1.1-0.1 1.2 0.3 1.4 1.5 0.1 0.9 0.2 1.8-0.6 2-0.9 0.3-2.7-0.9-3.4-1.3-0.2-0.2-0.7-0.6-0.7-0.8 0.1-0.6 1.4-0.6 1.7-0.8 0.7-0.2 0.9-0.5 1.6-0.6z"/>
					<path id="Layer" fill-rule="evenodd" class="s3" d="m42.9 79.1c0 0.6-0.9 0.7-1.5 1-0.8 0.4-1.6 0.9-3 0.6-0.9-1.4-0.3-3.5 1.6-3.2 0.5 0.1 1 0.6 1.5 0.8 0.5 0.3 1.5 0.3 1.4 0.8z"/>
					<path id="Layer" fill-rule="evenodd" class="s3" d="m44.6 79.4c0.9 0.2 1.4 0.8 2.2 1.6 0.6 0.6 1.5 1.5 1.4 2.3-0.1 0.9-2.3 1.7-3.2 1-0.9-0.7-0.3-3.4-0.7-4.7 0-0.1 0.1-0.2 0.3-0.2z"/>
					<path id="Layer" fill-rule="evenodd" class="s3" d="m43 79.7c1.7-0.9 1 4.6 0 4.9-1.1 0.3-3-1.1-3-2.1 0-0.9 2.3-2.4 3-2.8z"/>
					<path id="Layer" fill-rule="evenodd" class="s4" d="m53.2 74.6c1.2 0.6-0.8 3.9 0.6 4.3 0.9 0.2 1-1.4 2.1-0.9 0.7 0.3-0.2 2 0.6 2.4 1.4 0 2.4-4.3 4.1-2.2 1 1.2-0.4 2-0.4 3.4 0 1.3 0.8 2.5 0.8 3.8-0.1 1.5-1.2 3-2.8 2.7-1.4-0.3-2.4-2.6-3.9-2.5-0.8 0.1-0.8 0.8-1.5 1.7-0.8 0.9-2.3 2-4.1 1.9-2.4-0.1-3.6-2.3-3.4-5.1 0.1-0.6 0.5-1.5 0.5-1.7 0-0.7-0.4-1.6-0.6-2.3-0.3-0.8-1.2-3.2 0.5-3.3 0.9-0.1 1.3 0.7 1.8 1.4 0.3 0.5 0.8 1.5 1.6 1.4 0.8-0.1 0.8-1.5 1.2-2.5 0.5-1.3 1.4-3.4 2.9-2.5z"/>
					<path id="Layer" fill-rule="evenodd" class="s4" d="m19.9 85.5c0.3-0.4 1.1-0.3 1.6-0.6-0.4-1.4-0.2-2.6 0.9-2.9 1.6-0.3 2.7 1.3 4.3 1.5 1.1 0.1 2.3-0.1 2.9-0.9 0.9-1.2-0.3-4.4 1.3-4.8 0.8-0.2 1.2 0.3 2 0.1 0.8-0.1 1.1-1.6 1.9-2.2 2.3-1.7 5.2 1 5.5 3.2 0.2 1.1-0.2 2.1 0.2 2.9 0.5 1.3 2.4 1.1 2.6 2.6 0.2 1-0.4 1.6-0.8 2.3-0.3 0.5-0.9 1.6-0.5 2.3 0.6 0.9 2.1-0.1 3.2 0.3 0.3 0.2 0.9 0.7 0.9 1.2 0 0.8-0.9 1.4-1.3 1.8-0.4 0.4-1 1-1.1 1.8-0.1 0.9 0.5 1.8 0.5 2.6 0.1 1-0.2 2.2-0.7 2.9-0.6 0.9-1.8 1.8-2.9 2-0.8 0.2-1.7-0.1-2.5-0.2-1.5 0-3.2 0.5-4.8-0.1-0.7-0.3-1.4-1-2.3-1.4-1.5-0.6-3.4-0.6-4.5-1.2-0.8-0.5-1.9-1.6-2.3-2.2-0.4-0.8-0.2-1.9-0.5-2.7-0.2-0.6-2-0.1-2.5-0.2-1.2-0.1-3.6-0.6-3.3-2.9 0.2-1.6 2.6-1.6 2.7-2.7 0.1-0.9-1.1-1.4-0.5-2.5z"/>
					<path id="Layer" fill-rule="evenodd" class="s1" d="m45 89.5c-1.5-0.5-2.8 0.4-4 0-2-0.7-2.2-4.7 0.4-4.9 2.2-0.1 3.4 2.8 3.6 4.9z"/>
					<path id="Layer" fill-rule="evenodd" class="s1" d="m49.9 92.3c1.7 0.2 2.7-1 3.7-1.9 1.1-0.9 2.2-1.9 4.1-1.3 0.4 0.4-0.2 1.5 0.3 2 0.7 0.3 1-0.2 1.6 0 0.6 0.2 0.9 1.3 1.9 1.5 1.2 0.2 2.4-0.8 3.3-1.4 1.3-0.9 2.7-1.8 5-1.4 0.9 0.1 1.6 0.3 1.5 1.4-0.1 1.5-3.3-0.6-4.2 1.2-1.2 2.4-0.2 11.7-4.4 11.2-1-0.2-1.9-1-3-1.1-0.7-0.1-1.5 0.3-2.3 0-3.4 1.3-8.2 2-13 1.8-1.3-0.1-2.4-0.5-3.8-0.2-0.7-0.7-1.2-2.4-0.4-3.3 0.5-0.6 1.7-0.5 2.3-1 0.3-0.2 0.8-0.9 0.9-1.5 0.2-1.3-0.7-2.7-0.6-4 0-1.4 0.9-2.9 2.5-3 0.7-2.1 2.4-4.3 4.8-4.4 2.6-0.2 1.2 1.8 0.5 2.9-0.5 0.8-1 1.4-0.7 2.5z"/>
					<path id="Layer" fill-rule="evenodd" class="s2" d="m50.9 85.3c0-0.1 0-0.3 0.1-0.4 0.9-0.6 2.2-1 3.5-1.4 2.1-0.7 4.3-1.7 6.7-2.9 1.1-0.6 2.6-1.8 3.4-1.3 0.8 0.5 0.7 2.5 0.4 3.7-1.1 5-6.9 6.8-11 5.1-1.1-0.5-2.5-1.7-3.1-2.8z"/>
					<path id="Layer" fill-rule="evenodd" class="s3" d="m56.5 83.5c0.6 0.3-0.3 1.1-0.5 1.8-0.3 0.6-0.3 1.4-0.8 1.8-0.6 0.4-3-1.1-2.5-2 0.2-0.4 1.4-0.6 2-0.9 0.6-0.2 1.2-1 1.8-0.7z"/>
					<path id="Layer" fill-rule="evenodd" class="s3" d="m57.6 83.3c0.8-0.2 1 1.2 1.4 1.9 0.3 0.6 0.8 1.6 0.5 2.1-0.4 0.6-2.3 0.8-2.9 0.2-0.5-0.5-0.1-0.9 0.2-1.8 0.3-0.9-0.1-2.2 0.8-2.4z"/>
					<path id="Layer" fill-rule="evenodd" class="s3" d="m62.8 83.8c0.4 1-1.2 2.8-2.1 2.6-1.2-1.1-2.5-3.1-2-3.6 0.5-0.6 1.4 0.1 2.1 0.3 0.6 0.2 1.4 0.3 2 0.7z"/>
					<path id="Layer" fill-rule="evenodd" class="s3" d="m59.7 82.2c-0.1-0.4 1.3-1 2-1.3 1.2-0.6 2.5-1.2 2.2 0.7 0 0.5-0.2 1.2-0.6 1.5-0.5 0.4-3.3 0.1-3.6-0.9z"/>
					<path id="Layer" fill-rule="evenodd" class="s5" d="m28.2 82.1c-0.2-1.5-1.1-3.9-0.9-6.1 0.1-0.9 0.4-1.9 1.2-2.1 1.6-0.3 2.7 2.4 3.2 3.9 1.1 2.8 1.5 5.3 1.3 8.7-0.1 1.3-0.4 3.5-1.4 3.7-0.6 0.1-1.6-0.6-2.2-1-3.3-2.2-5.9-4.5-7.8-8.1-0.7-1.2-2.4-3.3-1-4.5 1.4-1.4 3.2 0.7 4.3 1.8 1.3 1.2 2.4 2.4 3.3 3.6q0 0.1 0 0.1z"/>
					<path id="Layer" fill-rule="evenodd" class="s5" d="m62.5 84.3c0.7-0.1 0.8-0.7 1.8-0.5 0.9 0.8-0.5 3 0.8 3.5 1.8-0.3 3.2-3.7 4.8-1.9 1.9 2.1-2.3 3.3-3.9 4.9-0.9 0.8-1.7 2.5-3 2.8-1.2 0.2-2.9-0.7-4.1-1.2-2-0.8-5.1-1.4-7.4-0.5-1.2 0.5-2.3 1.5-3.4 1.4-1.5-0.1-2.9-2.1-3.7-3.4-1-1.6-1.8-3.4-2-5.2-0.2-1.6 0.3-3.1 1.7-3.1 1.1-0.1 1.4 1.6 1.9 2.7 0.2 0.6 1 2.2 1.8 2.1 0.6-0.1 0.8-1.5 1.1-2 0.7-1.5 2.7-3.1 5-2.3 1.1 0.4 2 2.6 2.9 3.4 0.2 0.1 1 0.7 1.5 0.6 0.9-0.2 0.6-1.5 0.9-2.3 0.3-0.7 0.8-1.5 1.9-1.3 0.9 0.3 0.7 1.7 1.4 2.3z"/>
					<path id="Layer" fill-rule="evenodd" class="s2" d="m38.9 93c0-0.1 0-0.3-0.1-0.4-0.9-0.7-2.2-1-3.4-1.4-2.2-0.8-4.4-1.7-6.8-3-1.1-0.6-2.6-1.7-3.4-1.2-0.8 0.5-0.7 2.5-0.4 3.6 1.1 5 6.9 6.8 11 5.1 1.1-0.5 2.5-1.6 3.1-2.7z"/>
					<path id="Layer" fill-rule="evenodd" class="s3" d="m33.3 91.1c-0.6 0.3 0.2 1.6 0.4 2.3 0.3 0.5 0.4 1 0.9 1.3 0.6 0.4 3-1 2.5-1.9-0.2-0.5-1.2-0.9-1.8-1.1-0.6-0.2-1.4-0.9-2-0.6z"/>
					<path id="Layer" fill-rule="evenodd" class="s3" d="m32.2 91c-0.8-0.2-1 1.1-1.4 1.8-0.3 0.6-0.8 1.6-0.5 2.1 0.4 0.6 2.3 0.9 2.9 0.2 0.5-0.4 0.1-0.9-0.2-1.8-0.3-0.9 0.1-2.1-0.8-2.3z"/>
					<path id="Layer" fill-rule="evenodd" class="s3" d="m27 91.5c-0.4 1 1.2 2.7 2.2 2.5 1.1-1 2.4-3 1.9-3.6-0.5-0.5-1.4 0.1-2 0.3-0.7 0.2-1.5 0.3-2.1 0.8z"/>
					<path id="Layer" fill-rule="evenodd" class="s3" d="m30.1 89.9c0.2-0.4-1.3-1-2-1.4-1.2-0.6-2.5-1.1-2.2 0.8 0 0.4 0.3 1 0.6 1.4 0.4 0.7 3.3-0.3 3.6-0.8z"/>
					<path id="Layer" fill-rule="evenodd" class="s2" d="m45.9 89.2c1.3-1.8 3.5-2.9 5.3-3 1.4-0.1 3.7 0.3 5.3 2.2 2 2.3 1.6 6.3-0.5 8.6-3 3.5-9 3.7-11.1-1-0.8-1.7-1-4.2 1-6.8z"/>
					<path id="Layer" fill-rule="evenodd" class="s3" d="m50.8 91.8c-0.4 0.2-1-0.4-1.4-0.7-1.3-0.8-2.8-1.8-1.2-3 0.4-0.3 1.5-0.8 2-0.6 0.6 0.3 0.8 1.2 0.8 1.7 0.2 0.8 0.5 2.1-0.2 2.6z"/>
					<path id="Layer" fill-rule="evenodd" class="s3" d="m46.3 90.9c0.6-0.4 1.4 0.3 2.1 0.6 0.7 0.3 2 0.2 2.1 0.9 0 0.6-1.3 0.8-2.2 1.1-0.7 0.3-1.7 0.8-2.3 0.3-0.7-0.5-0.8-2.2 0.3-2.9z"/>
					<path id="Layer" fill-rule="evenodd" class="s3" d="m52.7 88.4c0.6-1 1-0.8 2-0.1 0.7 0.5 1.5 1 1.2 1.7-0.5 0.9-2.5 1.5-3.3 1.7-0.2 0-0.9 0.2-1.1 0-0.4-0.4 0.5-1.4 0.6-1.7 0.3-0.7 0.2-1.1 0.6-1.6z"/>
					<path id="Layer" fill-rule="evenodd" class="s3" d="m50.2 93.7c0.4 0.4-0.1 1.1-0.3 1.8-0.2 0.9-0.4 1.8-1.5 2.6-1.7-0.2-2.8-2.1-1.3-3.3 0.3-0.3 1-0.3 1.5-0.6 0.6-0.2 1.2-0.9 1.6-0.5z"/>
					<path id="Layer" fill-rule="evenodd" class="s3" d="m51.5 92.6c0.7-0.6 1.5-0.6 2.6-0.6 0.8-0.1 2.2-0.2 2.7 0.4 0.6 0.7-0.2 2.9-1.3 3.1-1.1 0.2-2.8-2-4.1-2.6 0-0.1-0.1-0.1 0.1-0.3z"/>
					<path id="Layer" fill-rule="evenodd" class="s3" d="m50.7 94c0.4-1.9 4.1 2.2 3.7 3.2-0.5 1-2.9 1.6-3.6 0.9-0.7-0.6-0.3-3.3-0.1-4.1z"/>
					<path id="Layer" fill-rule="evenodd" class="s5" d="m30.6 94.2c1.6 0.9-2 2.8-0.6 4.4 1.2-0.3 1.9-1.6 2.9-2.4 0.4-0.4 1-0.8 1.6-1.1 0.5-0.2 1.7-0.7 2 0.1 0.7 2.1-3.3 2.2-3.2 4.4 1.1 0.7 2.3-0.5 3-1 0.9-0.7 1.9-1.6 2.9-1.7 1.1-0.2 2 0.2 2.2 0.9 0.2 1.2-1.4 2.1-1.5 3.2-0.1 1 0.6 2.3 0.2 3.3-0.4 1-1.9 1.2-3.5 1.1-2.4-0.2-4.7-1.3-7.4-2.2-2.5-0.9-4.8-2.1-6.1-3.6-0.5-0.5-1.1-1.4-1.3-2-0.2-0.6-0.1-1.5-0.2-1.9-0.2-0.7-1.6-2.8 0.1-3.1 1.9-0.2 2.4 2 3.1 3.1 0.4 0.7 1.2 1.8 2.3 1.6 1.4-0.2 1.3-4.3 3.5-3.1z"/>
					<path id="Layer" fill-rule="evenodd" class="s5" d="m52.3 92.3c0.5 0.6 0.4 1.6 0.7 2.5 0.3 0.7 0.6 1.8 1.4 1.8 0.6 0 0.9-0.8 1.5-1.2 0.5-0.5 1.1-0.9 1.9-0.5 1 0.4 0.2 2.6 1.4 2.8 1.7 0.2 2.1-4 4.3-3.5 0.7 0.5 0.5 1.5 0.4 2.3-0.1 0.8-0.2 1.8-0.4 2.4-0.4 0.8-2 1.6-3 2.2-2.9 1.9-7 3.7-11.4 3.7-2 0-3.8-0.4-5.4-0.7 0.4-0.5 0.8-0.8 0.9-1.4 0.4-2.1-2.2-5.1-0.5-6.6 1.4-1.2 3 1.4 4.8 0.2 1.2-0.9 0.7-5.1 3.4-4z"/>
					<path id="Layer" fill-rule="evenodd" class="s0" d="m67.1 92.4c0.3 0.1 0.4 0.8 0.4 1 0.4 2.4 0.1 5.2-0.2 7.6-0.4 4-1.1 7.1-3.4 9.1-2.5 2.2-6.4 2.8-8.3 5.1-0.9 1.1-1.3 3.1-2.2 4.2-1.7 2-5.7 3.2-9.8 3.4-2.3 0.2-5-0.1-6.5-1-2.3-1.3-3.7-4.6-6.2-6-1.4-0.9-3.2-1.4-4.7-2.2-1.5-0.7-3.1-1.6-4.2-2.7-1.8-1.8-2.8-4.6-3-7.6-0.2-3.3 0.4-7 0.5-10.7 0.1-0.4 0.3-0.3 0.4-0.3 0.6 0.8 1.2 1.6 1.8 2.3 6.4 7.4 22.1 11.5 34.8 7.2 4.1-1.4 7.7-3.6 9.6-6.9 0.4-0.8 0.7-1.6 1-2.5z"/>
					<path id="Layer" class="s6" d="m67.5 93.5c0-0.3-0.2-1.1-0.4-1.1-0.3 0.9-0.6 1.7-1 2.5q-0.9 1.6-2.4 2.9-0.1 1.1-0.2 2c-0.4 4-1.1 7.1-3.4 9.1-2.5 2.2-6.4 2.8-8.3 5.2-0.9 1.1-1.3 3-2.2 4.1-1.7 2.1-5.7 3.2-9.8 3.5-1 0-2.1 0-3-0.1q0.1 0.1 0.3 0.2c1.5 0.9 4.2 1.2 6.5 1 4.1-0.2 8.1-1.4 9.8-3.4 0.9-1.2 1.3-3.1 2.2-4.2 1.9-2.3 5.8-2.9 8.3-5.1 2.3-2.1 3-5.2 3.4-9.1 0.3-2.4 0.6-5.2 0.2-7.5z"/>
					<g id="Clip-Path" clip-path="url(#cp3)">
						<g id="Layer">
							<path id="Layer" fill-rule="evenodd" class="s2" d="m68 101.9c1.2 0.6 1.4 2.1 2 3.3-0.7 0.8-1.7 1.1-2.6 1.6-6 3.3-13.8 5.6-22.9 5.9-10.7 0.4-19.9-2.4-26.4-6.5 0.1-0.7-0.3-1.4-0.2-1.9 1 0.3 1.8 0.8 2.8 1.2 5.9 2.8 14.3 4.5 23.3 4.1 9.7-0.5 18.4-3.3 24-7.7z"/>
						</g>
					</g>
					<path id="Layer" fill-rule="evenodd" class="s0" d="m58 138.1c-0.5-0.7-2.4-4.3-2.4-4.3 0 0 4.6 1.4 5.4 1.7 6.3-3.2 13.1 0.6 14.3 6.7 0.9 5.3-2.5 10.4-7.9 11.4-5.3 0.9-10.6-2.6-11.3-8.4-0.4-3 0.6-5 1.9-7.1z"/>
					<path id="Layer" class="s7" d="m65.9 150q0.6 0 1.1-0.1c2.8-0.5 4.9-2.8 5.3-5.6 0-0.2-0.2-0.5-0.5-0.5-0.3-0.1-0.5 0.1-0.6 0.4-0.3 2.4-2 4.2-4.3 4.6-1.5 0.3-3-0.1-4.2-0.9-1.2-0.9-2-2.2-2.2-3.7 0-0.3-0.3-0.5-0.6-0.5-0.3 0.1-0.5 0.3-0.4 0.6 0.2 1.8 1.1 3.4 2.5 4.4 1.2 0.8 2.5 1.3 3.9 1.3z"/>
					<path id="Layer" fill-rule="evenodd" class="s7" d="m67.7 141.4c0 0.5 0.4 1 1 1 0.5 0 0.9-0.5 0.9-1 0-0.5-0.4-1-0.9-1-0.6 0-1 0.5-1 1z"/>
					<path id="Layer" fill-rule="evenodd" class="s7" d="m62.1 141.4c0 0.5 0.5 1 1 1 0.5 0 1-0.5 1-1 0-0.5-0.5-1-1-1-0.5 0-1 0.5-1 1z"/>
					<path id="Layer" fill-rule="evenodd" class="s7" d="m58.6 15.4v42.3c0 3.6 3 6.4 6.7 6.4h65.4c3.7 0 6.7-2.8 6.7-6.4v-42.3z"/>
					<path id="Layer" fill-rule="evenodd" class="s0" d="m137.4 10c0-3.6-3-6.5-6.7-6.5h-65.4c-3.7 0-6.7 2.9-6.7 6.5v5.4h78.8z"/>
					<path id="Layer" class="s2" d="m125.3 9.3c0 1.4-1.2 2.5-2.6 2.5-1.4 0-2.6-1.1-2.6-2.5 0-1.5 1.2-2.6 2.6-2.6 1.4 0 2.6 1.1 2.6 2.6z"/>
					<path id="Layer" class="s2" d="m129 11.8h3l-1.5-2.5-1.5-2.6-1.5 2.6-1.5 2.5z"/>
					<path id="Layer" fill-rule="evenodd" class="s3" d="m102 11.8c-2.8-0.3-4.7 1.2-7 1.9-1.7 0.5-3.7 0.5-5.8 0.7-4.2 0.3-7.6 0.8-10.4 2.5-1.4 0.9-2.6 1.8-3.8 2.7-1.2 0.9-2.7 1.7-4.2 2.3-3.4 1.5-5.7 2.2-7.6 5.2-1 1.6-1.4 4.1-1.7 6-0.4 2.3-0.6 4.6-0.2 6.6 0.7 3.7 2.9 7.3 4.3 10.2 1.6 3.5 3.8 5.9 6.9 7.6 3.1 1.7 7 2.6 10.2 4.4 4.4 2.4 8.3 6.8 15.6 5.8 1.9-0.3 3.8-0.9 5.6-1.6 1.7-0.7 3.1-1.7 4.8-2.5 1.6-0.8 3.4-1.3 5.4-1.8 3.7-1.1 7.1-2.3 9.1-5.3 1-1.6 1.6-3.5 2.7-4.8 1.7-1.9 3.9-2.8 5.4-4.5 3-3.2 4.6-9.3 3-15.3-1.3-4.8-5-8.4-9.1-10.6-2.1-1.1-4.6-1.8-7.2-2.6-2.6-0.8-4.9-1.7-7-2.9-2.1-1.1-4-2.5-6.4-3.4-0.7-0.4-1.3-0.5-2.6-0.6z"/>
					<path id="Layer" fill-rule="evenodd" class="s8" d="m101.8 12.4c-0.8-0.1-1.6-0.1-1.7 0.6-0.1 1 2.3 1.5 3.3 1.6 0.8 0.1 1.5-0.1 1.6-0.6 0.2-1.1-2.1-1.6-3.2-1.6z"/>
					<path id="Layer" fill-rule="evenodd" class="s8" d="m108.6 17.2c1.7-0.7-1.9-3.1-2.1-1.6-0.2 1 1.4 1.3 2.1 1.6z"/>
					<path id="Layer" fill-rule="evenodd" class="s8" d="m84.8 18.9c-0.3-0.1-1.3 0.3-1.1 1.1 0 0.1 0.2 0.4 0.4 0.5 0.6 0.1 1.9-1.2 0.7-1.6z"/>
					<path id="Layer" fill-rule="evenodd" class="s8" d="m82.5 21.6c-0.9-0.2-2.2 0.7-3.2 1.1-0.8 0.4-2.6 1-2.5 1.8 0.2 0.9 1.7 0.6 2.6 0.3 0.8-0.1 1.7-0.4 2.4-0.8 0.7-0.4 2.2-1.9 0.7-2.4z"/>
					<path id="Layer" fill-rule="evenodd" class="s8" d="m124.6 22.6c-0.3 1.1 1 1.6 1.7 2 0.8 0.5 1.6 1.4 2.6 1.2 0.5-0.8-0.3-1.4-1-2-0.9-0.7-1.9-1.7-3.3-1.2z"/>
					<path id="Layer" fill-rule="evenodd" class="s8" d="m68.9 24.4c0.6 0.3 3-0.4 2.2-1.4-1-0.1-2.5 0.2-2.2 1.4z"/>
					<path id="Layer" fill-rule="evenodd" class="s8" d="m131.1 28.8c0.9-0.6-1.4-3.2-1.8-1.8-0.2 0.5 1 2.2 1.8 1.8z"/>
					<path id="Layer" fill-rule="evenodd" class="s8" d="m63 31.5c-1 0.1-1.1 2.3-0.3 2.4 1.1 0.2 1.2-2 0.3-2.4z"/>
					<path id="Layer" fill-rule="evenodd" class="s8" d="m62.5 36c-0.6 0.7-0.3 2.1 0 3.1 0.2 0.9 0.6 2.3 1.6 2.2 1.5-0.2-0.3-4.9-0.7-5.2-0.2-0.2-0.6-0.2-0.9-0.1z"/>
					<path id="Layer" fill-rule="evenodd" class="s8" d="m133.7 40.9c-0.2-0.3-0.6-0.5-1-0.3-0.4 0.7-1.5 3.4-0.4 3.5 0.9 0.1 1.4-2 1.4-3.2z"/>
					<path id="Layer" fill-rule="evenodd" class="s8" d="m114.4 52c-0.6-0.2-2.5 1.6-2.5 2.2 0 0.3 0.3 0.8 0.6 0.8 0.6 0.1 1-0.7 1.4-1.1 0.3-0.3 1.9-1.6 0.5-1.9z"/>
					<path id="Layer" fill-rule="evenodd" class="s8" d="m70.1 52.5c-0.4-0.1-0.7-0.1-0.8 0.4-0.2 0.9 1.8 2.2 2 1 0-0.4-1-1.4-1.2-1.4z"/>
					<path id="Layer" fill-rule="evenodd" class="s8" d="m122.4 54.6c-0.7-0.4-1.6 0.4-2.2 0.8q-0.7 0.5-1.6 1c-0.8 0.6-2.8 1.7-2.7 2.5 0.3 1.1 2.6 0 3.2-0.3 0.9-0.4 2.1-1.2 2.7-1.6 0.3-0.4 1.7-1.9 0.6-2.4z"/>
					<path id="Layer" fill-rule="evenodd" class="s8" d="m74.8 55.5c-0.8-0.1-1.2 0-1.3 0.3-0.6 1.2 2.7 2.2 3 1.1 0.2-0.8-1-1.3-1.7-1.4z"/>
					<path id="Layer" fill-rule="evenodd" class="s8" d="m80.1 55.6c-0.3 0-1-0.2-1.1 0.5-0.2 0.9 1.7 1.7 2.7 2.1 0.6 0.3 3 1.5 3.2 0.4 0.2-0.8-1.4-1.6-2-1.9-0.8-0.4-1.7-1-2.8-1.1z"/>
					<path id="Layer" fill-rule="evenodd" class="s8" d="m114.3 59.4c-0.7-0.3-2.3 0.4-2.2 1.2 0.3 1.3 3.7-0.5 2.2-1.2z"/>
					<path id="Layer" fill-rule="evenodd" class="s8" d="m93.3 62.2c-0.8 1 3 2.2 2.8 0.7-0.1-0.6-2.2-1.2-2.8-0.7z"/>
					<path id="Layer" fill-rule="evenodd" class="s8" d="m99.1 64.7c-0.8 0-4.5 0-4.4 1.2 0 0.9 1.5 1 2.6 1 1.3 0 3.5-0.3 3.4-1.4-0.1-0.7-0.9-0.7-1.6-0.8z"/>
					<path id="Layer" fill-rule="evenodd" class="s8" d="m91.6 65.8c0.5 0.4 1.3 0.2 1.4-0.3 0.1-0.9-1.9-1-1.4 0.3z"/>
					<path id="Layer" fill-rule="evenodd" class="s2" d="m96.6 15.5c-2.4-0.3-5 0.7-6.6 1.7-1.5 0.9-3 2.4-4.1 3.9-1.4 1.7-2.7 3.5-4.8 4.4-1.8 0.8-3.9 0.8-6 1.1-2 0.3-3.9 0.9-5.3 1.7-1.9 1.1-3.7 2.9-3.6 6.1 0.1 2.4 1.3 4.1 1.9 6.7 0.5 2.4 0.2 5.5 1.1 7.4 1.8 4.1 8 4.6 12.3 6.2 2 0.8 3.9 1.7 5.7 2.7 3.2 1.9 7.3 4.7 12 4.5 2.4-0.1 4.5-0.9 6.3-2.1 3.3-2.3 5-6.5 8.3-8.4 1.4-0.9 3.2-1.5 5.1-1.9 1.9-0.4 4.1-0.3 6.1-0.9 2.9-0.9 5-3.6 6-6.4 0.8-2.1 0.8-4.6 0.2-7-1.1-4.8-3.5-7.7-6.6-9.8-2.9-2.2-7.7-3.3-12.4-4-2.4-0.4-4.4-1.1-6.2-2-3.3-1.5-4.9-3.5-9.4-3.9z"/>
					<path id="Layer" fill-rule="evenodd" class="s0" d="m110.1 25.8c-1.7-0.3-4.5 0.5-4.1 3.2 0.2 1.2 1.2 1.9 2.3 2.4 1.5 0.7 3.4 0.5 4.8 1.3 1.7 1 2.4 2.8 3.6 4 0.8 0.8 2 1.7 3.3 1.7 1-0.1 2-1.1 2.1-1.8 0.3-1.2-0.3-2.1-0.8-2.8-0.5-0.7-1.4-1.4-1.4-2.2 0-1.1 1.2-1.6 1.2-2.8 0-1-0.9-1.8-1.7-2.1-1.6-0.6-3.7 0.2-5.6 0.1-1.5-0.1-2.3-0.8-3.7-1z"/>
					<path id="Layer" fill-rule="evenodd" class="s0" d="m88.5 26.9c-1.9-0.2-4.5 0-5.9 0.7-1.3 0.7-2.9 2.4-2.2 4.5 0.4 1.3 1.9 2 3.6 1.9 2.1-0.2 3.7-1.7 5.5-1.9 1.5-0.1 4.6 0.9 5-0.7 0.4-1.5-1.3-2.8-2-3.2-1.3-0.8-2.4-1.2-4-1.3z"/>
					<path id="Layer" fill-rule="evenodd" class="s0" d="m92.1 39.2c-0.1-0.5-0.7-0.7-1.2-1-1.1-0.6-2.8-1.6-2.7-3.2 0.2-1.7 2.1-1.7 3.1-1.3 1.2 0.5 2.3 1.7 3.4 2.1 0.8 0.3 1.6 0.5 2.7 0.6 3 0.3 5.2-1.5 7.8-1.5 2.2 0 4.4 0.8 4.8 2.2 0.2 1.3-0.5 2.4-1.3 2.9-1 0.6-2.4 0.3-3.2 1.2 0.4 1 1.6 3 0.5 4-0.9 0.8-2.9 0.2-3.9-0.2-1.2-0.5-2.2-1.3-3.5-1.5-1.2-0.1-2.3 0.4-3.4 0.5-1.7 0.1-2.8 0.1-3.6-1-0.2-1.9 1-2.4 0.5-3.8z"/>
					<path id="Layer" fill-rule="evenodd" class="s0" d="m84.4 39.9c-1.4-0.3-3.5 0.5-3.8 2-0.2 1.1 0.4 2.1 0.8 2.8 0.4 0.8 1.1 1.6 1.1 2.4 0 1.6-2.2 2.8-1.8 4.6 0.2 1 1.6 1.7 2.5 1.8 1 0.1 1.8-0.3 2.8-0.2 1.6 0.2 2.8 1.8 4.9 1.4 1.4-0.2 2.5-1.5 2.2-3.4-0.2-1.1-1.1-1.9-2.2-2.7-1.1-0.7-2.2-1.3-2.7-2.1-0.9-1.4-0.6-3.6-1.5-5.1-0.4-0.7-1.2-1.3-2.3-1.5z"/>
					<path id="Layer" fill-rule="evenodd" class="s1" d="m96 25c-0.5 0.4-1.7 0.1-2.1 0.5-0.3 2.5 2.6 2.9 3.7 4.3-0.2 0.7-0.8 0.5-0.9 1.1-0.2 0.8 0.8 1.6 1.6 2.1 0.9 0.5 1.8 1 2.5 1.1 0.4-0.4 0.2-0.7 0.2-1.1 0.1-0.8 0.3-1.6 0.6-2.3 0.4-1.1 1.2-2 0.6-3.3-0.6-0.2-1.1 0.2-1.5 0.4-1-1.3 0.7-5.7-1.1-5.9-0.7-0.1-0.9 0.7-1.3 1.3-1.1-0.8-1.6-3.3-2.9-4-1-0.5-1.7 0.2-1.6 1.4 0.2 1.8 1.6 3.1 2.2 4.4z"/>
					<path id="Layer" fill-rule="evenodd" class="s1" d="m74.5 30.4c-1.3 2.2 0.5 4.3 0.7 6.4-0.9-0.2-1.2-1-2.3-0.9-0.5 0.5-0.3 1.2-0.2 1.6 0.4 1.3 1.9 2.4 2.5 3.5-1.2-0.6-2.3-0.4-1.9 1.2 0.2 1.1 1.6 2.9 2.3 3.5 0.4 0.4 1.1 0.8 1.6 0.6 0.2-1.3 0.4-2.2 0.9-3.2 0.5-0.9 1.4-1.6 1.7-2.5 0.1-0.4 0.2-1-0.2-1.4-0.6-0.2-1.1 0.3-1.6 0.4-0.1-2.1 1.2-3.7 1.4-5.5 0-0.5 0-1.2-0.3-1.7-1.3-0.3-1.7 0.9-2.1 1.7-0.7-1.3-0.4-4.1-2.5-3.7z"/>
					<path id="Layer" fill-rule="evenodd" class="s1" d="m124.7 39c-0.3-0.6-0.1-1.4-0.7-1.5-1.4-0.2-1.6 3-2.6 3.5-0.3-0.3-0.2-1-0.6-1.3-1.2-0.1-1.6 1.1-2.2 1.7-0.5 0.7-1.3 1.4-2.1 1.7-0.7 0.3-1.2 0.1-1.2 0.6-0.1 0.8 1 0.7 2.2 0.8 1.1 0.2 2.5 0.9 3.2 1 1.9 0.3 2-1.5 0.6-2 1.2-0.7 4.5-0.5 5.8-1.3 0.5-0.2 1-0.9 0.7-1.5-0.4-0.3-0.9-0.4-1.6-0.3 0.9-0.8 2.9-1.9 2.4-3.7-0.2-0.8-1-1.1-1.8-0.7-0.9 0.4-1.6 2.3-2.1 3z"/>
					<path id="Layer" fill-rule="evenodd" class="s1" d="m96 46.3c-0.1 0.8 0.5 0.9 0.5 1.6-0.8 0.1-3.1-0.8-3.3 0.4-0.3 1.8 3.8 1.7 4.3 2.9-0.3 0.7-1.4 0.6-1.2 1.9 1.7 1.6 4.2-1.4 6.2-0.1 0 0.6-1.1 1.1-0.7 2.2 1.2 0.8 2-0.4 2.7-0.9 0.4-0.4 0.8-0.6 1.2-0.8 0.4-0.2 0.9-0.5 1.2-0.9-0.3-0.5-0.8-0.4-1.2-0.6-0.4-0.3-0.9-0.7-1.2-1-0.8-1.1-1.1-2.7-2.7-2.7-0.3 0.4 0 1.3-0.3 1.7-1.1-0.3-1.7-1.6-2.6-2.5-0.7-0.7-1.7-1.7-2.9-1.2z"/>
					<path id="Layer" fill-rule="evenodd" class="s3" d="m88.4 22.9c0.8 0.4 0.7-0.2 1.4-0.2 1.1 0.1 1.1 1.8 2 0.8 0.1-1.1-1-2-2.2-1.9-0.6 0-1.6 0.4-1.2 1.3z"/>
					<path id="Layer" fill-rule="evenodd" class="s3" d="m103.6 23.7c0-0.6 0.1-1.2-0.3-1.4-1.7 0.1-0.8 2.1-0.4 2.6 1.3 1.4 3.8 1.1 3.8-0.9 0.1-0.6-0.6-2.1-1.4-2.1-0.2 0-0.6 0.1-0.7 0.5 0 0.5 1 0.7 1 1.5-0.1 1.1-1.7 0.8-2-0.2z"/>
					<path id="Layer" fill-rule="evenodd" class="s3" d="m122.4 31.1q0 0.5 0.1 0.8c1.3 0 2.1 0.6 2.4 1.6 0.2 0.7-0.1 1.3 0.6 1.4 1.5 0.1 0.1-2.9-0.3-3.2-0.7-0.7-1.7-1.1-2.8-0.6z"/>
					<path id="Layer" fill-rule="evenodd" class="s3" d="m80.8 36.2c1.3-0.4 2.4 0.1 2.9 0.9-0.1 0.2-0.2 0.6 0 0.8 0.5 0.4 1.2-0.1 1.2-0.5 0-1.3-2.1-2.9-3.6-2.6-0.6 0.2-1.2 0.9-0.5 1.4z"/>
					<path id="Layer" fill-rule="evenodd" class="s3" d="m110.5 41.5c0.8 0 0.7 1 1.4 1.2 1.2-0.3 0.1-1.9-0.6-2.2-0.6-0.3-1.4-0.2-1.8 0.1-0.3 0.3-1.1 2.1 0 2.1 0.8 0 0.4-0.9 1-1.2z"/>
					<path id="Layer" fill-rule="evenodd" class="s3" d="m111 45.9q0 0.2 0 0.5c0.4 0.4 1.2 0.2 1.7 0.5-0.3 0.7-1.3 1-2.2 0.8-0.2-0.1-0.1-0.6-0.5-0.6-1.3-0.2-0.9 1.3-0.3 1.7 1.2 0.7 3.9-0.1 4.1-1.6 0.2-1.2-1.4-2.2-2.8-1.3z"/>
					<path id="Layer" fill-rule="evenodd" class="s3" d="m72.4 49.3q0.3 0 0.6 0c0.5-0.2 0.1-1.2 0.6-1.3 0.9 0 1.1 0.6 1.5 1.1 1.8 0 0.2-2.2-1.2-2.3-1.2 0-2.4 1.3-1.5 2.5z"/>
					<path id="Layer" fill-rule="evenodd" class="s3" d="m95.3 58.4c0-0.1 0.1-0.1 0.2-0.1 0.3-0.3 0-1.4 0.5-1.5 1.3-0.1 0.7 1.4 1.7 1.4 1.1 0 0.2-1.7-0.2-2-0.9-0.9-2.7-0.8-3 0.7-0.1 0.4-0.3 1.5 0.8 1.5z"/>
					<path id="Layer" class="s0" d="m19.1 38.3h29.6c2.2 0 3.9 1.8 3.9 3.9v5.8c0 2.1-1.7 3.8-3.9 3.8h-0.3l3.7 5.1-8.6-5.1h-24.4c-2.2 0-3.9-1.7-3.9-3.8v-5.8c0-2.1 1.7-3.9 3.9-3.9z"/>
					<path id="Layer" class="s2" d="m26.5 45.1c0 2.3-1.9 4.2-4.2 4.2-2.3 0-4.2-1.9-4.2-4.2 0-2.3 1.9-4.2 4.2-4.2 2.3 0 4.2 1.9 4.2 4.2z"/>
					<path id="Layer" class="s9" d="m49.1 43.2h-20.9c-0.3 0-0.5-0.2-0.5-0.5 0-0.3 0.2-0.6 0.5-0.6h20.9c0.3 0 0.5 0.3 0.5 0.6 0 0.3-0.2 0.5-0.5 0.5z"/>
					<path id="Layer" class="s9" d="m49.1 45.7h-20.9c-0.3 0-0.5-0.3-0.5-0.6 0-0.3 0.2-0.5 0.5-0.5h20.9c0.3 0 0.5 0.2 0.5 0.5 0 0.3-0.2 0.6-0.5 0.6z"/>
					<path id="Layer" class="s9" d="m49.1 48.1h-20.9c-0.3 0-0.5-0.2-0.5-0.5 0-0.3 0.2-0.6 0.5-0.6h20.9c0.3 0 0.5 0.3 0.5 0.6 0 0.3-0.2 0.5-0.5 0.5z"/>
					<path id="Layer" fill-rule="evenodd" class="s1" d="m145.2 35.6v42.3c0 3.5 3 6.4 6.7 6.4h65.4c3.7 0 6.7-2.9 6.7-6.4v-42.3z"/>
					<path id="Layer" fill-rule="evenodd" class="s0" d="m224 30.1c0-3.5-3-6.4-6.7-6.4h-65.4c-3.7 0-6.7 2.9-6.7 6.4v5.5h78.8v-5.5z"/>
					<path id="Layer" class="s7" d="m154.6 29.4c0 1.4-1.1 2.6-2.5 2.6-1.5 0-2.6-1.2-2.6-2.6 0-1.4 1.1-2.6 2.6-2.6 1.4 0 2.5 1.2 2.5 2.6z"/>
					<path id="Layer" class="s7" d="m158.4 32h2.9l-1.5-2.6-1.4-2.5-1.5 2.5-1.5 2.6z"/>
					<path id="Layer" class="s10" d="m202.2 34.6l-1.4 37.8q1.7-0.1 3-0.3l3-37.5z"/>
					<path id="Layer" class="s2" d="m185.4 34.6l2.9 36.2c0 1 4.2 1.7 9.4 1.7q1.6 0 3.1-0.1l1.4-37.8z"/>
					<path id="Layer" class="s2" d="m206.8 34.6l-3 37.5c2-0.3 3.3-0.8 3.3-1.3l2.9-36.2z"/>
					<path id="Layer" fill-rule="evenodd" class="s0" d="m209.9 32.6c0-0.1 0.1 1.2 0.1 1.2l1.2 1.6c-4.1 4.1-13.7 4.7-20.9 3.2-2.4-0.5-4.8-1-6.1-2.5l1-1.6c0.2-0.4 0.1-0.8 0.1-1.6 4.9-3.7 19.4-2.7 24.6-0.3z"/>
					<path id="Layer" class="s6" d="m204.3 34.2c-4.9 0.9-14.1 0.2-18-1q-0.5-0.1-1-0.3c0 0.7 0.1 1.1 0 1.4 5.1 1.3 15.2 2.1 19-0.1z"/>
					<path id="Layer" fill-rule="evenodd" class="s6" d="m207.8 32.6c0 0.4-4.6 0.7-10.1 0.7-5.6 0-10.1-0.3-10.1-0.7 0-0.4 4.5-0.8 10.1-0.8 5.5 0 10.1 0.4 10.1 0.8z"/>
					<path id="Layer" class="s0" d="m209.1 14.9c0.3 0 0.6 0 0.6-0.2 0.1-0.1-0.2-0.3-0.5-0.3-0.3-0.1-0.6 0-0.6 0.1 0 0.2 0.2 0.3 0.5 0.4z"/>
					<path id="Layer" class="s11" d="m206.2 27.7l-0.5 2.4c0.4 0 0.9-0.2 1.3-0.7l0.5-2.7c-0.4 0.6-0.9 0.9-1.3 1z"/>
					<path id="Layer" class="s11" d="m206.9 23.7l-0.4 2c0.4-0.1 1-0.4 1.4-0.9l0.4-2.1c-0.4 0.6-1 0.9-1.4 1z"/>
					<path id="Layer" class="s11" d="m207.3 21.7c0.4-0.1 0.9-0.4 1.3-0.9l0.4-2.3c-0.4 0.5-0.9 0.8-1.3 0.9z"/>
					<path id="Layer" class="s11" d="m205.3 32.2l-0.1 0.8c0.1 0.4 0.8 0.3 1.1 0.2l0.4-1.8c-0.4 0.5-1 0.7-1.4 0.8z"/>
					<path id="Layer" class="s11" d="m209.4 16.6l0.3-1.9c0 0.2-0.3 0.2-0.6 0.2-0.3-0.1-0.5-0.2-0.5-0.4l-0.5 2.9c0.4-0.1 0.9-0.3 1.3-0.8z"/>
					<path id="Layer" class="s0" d="m208.1 17.4l-0.4 2c0.4-0.1 0.9-0.4 1.3-0.9l0.4-1.9c-0.4 0.5-0.9 0.7-1.3 0.8z"/>
					<path id="Layer" class="s0" d="m207.3 21.7l-0.4 2c0.4-0.1 1-0.4 1.4-1l0.3-1.9c-0.4 0.5-0.9 0.8-1.3 0.9z"/>
					<path id="Layer" class="s0" d="m206.5 25.7l-0.3 2c0.4-0.1 0.9-0.4 1.3-1l0.4-1.9c-0.4 0.5-1 0.8-1.4 0.9z"/>
					<path id="Layer" class="s0" d="m205.7 30.1l-0.4 2.1c0.4-0.1 1-0.3 1.4-0.8l0.3-2c-0.4 0.5-0.9 0.7-1.3 0.7z"/>
					<path id="Layer" fill-rule="evenodd" class="s12" d="m155.9 64.7c0 0 0-0.1 0.2-0.1 1.9 0.2 2.6 0.7 4.2 1.1 6.5 1.7 15.5 2.7 23.7 1.4 1.3-0.1 3-0.4 4.4-0.8 1.1-0.4 4.3-2.4 4.7 0 0.3 1.4-1.5 2.4-3 3.1-7 3.1-18.9 3.3-27.3 1.3-1.5-0.4-2.9-0.9-4.5-1.7-1.3-0.6-3.3-1.4-3.3-2.8-0.1-0.9 0.3-1.3 0.9-1.5z"/>
					<path id="Layer" fill-rule="evenodd" class="s5" d="m184.7 64.8c0.9 0.9 2.3 0.5 3.3 0.3 3-0.6 6-3 9-3.3 1.4-0.2 4 0.1 4 1.6 0 1-1.5 1.9-3.1 2.1-1.3 0.1-2.7-0.3-3.7 0.2-1 0.5-0.9 1.8-1.8 2.5-1.1 0.8-3.1 0.9-4.4 0.6-2-0.5-3.7-3-5.6-0.8-0.4 0.5-0.5 1.2-1.2 1.4-1.7 0.4-3.5-1.3-4.8-1-1.6 0.2-1.2 3.4-3.2 3.4-0.9 0-1.4-0.9-1.7-1.6-0.3-0.7-0.3-1.8-1.1-2-2-0.3-2.7 4-5.2 3.3-1.6-0.5-0.4-3.7-0.4-4.4-1.3-0.3-2.8 1-3.8 0.4-0.6-0.4-0.4-1.2-0.9-1.9-1.7-0.5-3.7-0.1-5.6 0.2-1.3 0.2-4.7 1.1-5.1-0.2-0.5-1.9 3.2-2.7 4.7-2.7 0.7 0 1.5 0.2 2.3 0.1 0.1-0.4-0.9-1.5-0.2-2.2 2.6-1.4 3.8 2.8 5.6 2.8 1.7 0 1.3-1.6 2.6-1.9 1.4-0.3 2.5 0.7 3.1 1.2 0.9 0.8 1.4 1.7 2.5 1.8 1.7 0.2 3.3-1.6 5.2-1.3 0.8 0.1 1.1 0.8 1.7 0.8 1.2 0.2 3.4-1 4.3-1.5 1.6-0.9 2.4-1.5 3.8-1.8 3-0.5 2.3 1.3 1.2 2.3-0.7 0.7-1.4 1-1.5 1.6z"/>
					<path id="Layer" fill-rule="evenodd" class="s3" d="m192.6 68.3c0 1.6-0.3 2.7-0.7 3.8-6.2 5.6-23.5 5.4-32.4 1.8-1.3-0.5-3.1-1.2-3.5-2-0.8-1.3-0.4-3.7 0.1-4.9 0 0 0.1 0 0.1 0 2.2 1.5 4.6 2.8 7.6 3.6 8.3 2.1 19.8 1.2 26.9-1.6 0.6-0.2 1.2-0.7 1.9-0.7z"/>
					<path id="Layer" fill-rule="evenodd" class="s12" d="m157 59.4c0-0.1 0.1-0.2 0.2-0.2 2 0.2 2.6 0.7 4.2 1.2 6.6 1.7 15.5 2.6 23.8 1.4 1.2-0.2 2.9-0.4 4.3-0.9 1.1-0.4 4.3-2.4 4.8 0 0.2 1.5-1.5 2.5-3 3.1-7 3.1-19 3.3-27.3 1.3-1.6-0.3-3-0.8-4.6-1.6-1.3-0.6-3.3-1.4-3.3-2.9-0.1-0.8 0.3-1.2 0.9-1.4z"/>
					<path id="Layer" fill-rule="evenodd" class="s11" d="m173.4 63l-0.7-0.2c-1-1.5-3.5-2.8-4.8-3.5-2.9-1.3-6.2-2.3-9.4-2.1-0.3 0.1-0.6 0.1-1 0.2l-0.6-0.2-0.4 1.3q0 0 0 0.1c-0.4 1.6 1.6 2.8 2.6 3.5 1.3 0.9 2.9 1.6 4.1 2.1 1.4 0.6 2.9 1 5 1.3 2 0.2 4.3 0.1 4.7-1.2z"/>
					<path id="Layer" fill-rule="evenodd" class="s2" d="m158.9 56c3.1-0.2 6.5 0.8 9.4 2.1 1.7 0.8 5.4 2.8 5.1 4.8-0.2 1.5-2.7 1.6-4.8 1.3-2.1-0.2-3.6-0.6-5-1.2-1.3-0.5-2.8-1.3-4.1-2.1-1-0.7-3-1.9-2.7-3.5 0.3-1.1 1.3-1.3 2.1-1.4z"/>
					<path id="Layer" fill-rule="evenodd" class="s3" d="m165.1 57.5c0 0.7-0.1 1.4-0.6 1.5-0.3 0.1-1.8-0.8-2-1.7-0.2-1.1 2.5-0.3 2.6 0.2z"/>
					<path id="Layer" fill-rule="evenodd" class="s3" d="m163 58.8c0.3 0.6-2.8 0.4-3.9 0.2-0.9-0.1-1-1.6-0.5-1.8 1.1-0.2 4.1 0.8 4.4 1.6z"/>
					<path id="Layer" fill-rule="evenodd" class="s3" d="m167.8 58.6c0.1 0.8-2.2 1.1-2.5 0.8-0.4-0.5 0.4-1.5 1.1-1.6 0.5-0.1 1.4 0.3 1.4 0.8z"/>
					<path id="Layer" fill-rule="evenodd" class="s3" d="m164.2 59.9c0.3 0.5-0.5 1.3-1.7 1.7-0.6 0.2-2-0.8-2.2-1.2-0.1-0.6 0.7-0.6 1.3-0.7 1-0.2 2.1-0.4 2.6 0.2z"/>
					<path id="Layer" fill-rule="evenodd" class="s3" d="m172.1 61.8c0 1.2-4.8-1.7-4.8-2.1 0.1-0.4 1.7-0.1 3.4 0.4 0.7 0.2 1.2 0.9 1.4 1.7z"/>
					<path id="Layer" fill-rule="evenodd" class="s3" d="m167.1 62.7c0.2 1.1-3.5 0.4-3.1-0.8 0.2-0.8 1-2 1.6-2 0.7 0 1.1 1.4 1.5 2.8z"/>
					<path id="Layer" fill-rule="evenodd" class="s3" d="m170.7 63.5c-2.4 0.8-3.4-1.3-4-2.9 0.8-0.6 1.9 0.4 2.7 1 0.7 0.5 1.5 1.1 1.3 1.9z"/>
					<path id="Layer" fill-rule="evenodd" class="s11" d="m184.9 61.8l-0.8-0.2c-1.1-1.4-3.7-2.4-5.1-2.8-3-1-6.5-1.6-9.6-0.9-0.3 0-0.6 0.1-1 0.3l-0.6-0.2-0.3 1.3h0.1q-0.1 0.1-0.1 0.1c-0.1 1.7 2 2.7 3.1 3.2 1.4 0.7 3 1.3 4.4 1.6 1.4 0.4 2.9 0.6 5.1 0.6 1.9 0 4.2-0.4 4.5-1.7z"/>
					<path id="Layer" fill-rule="evenodd" class="s2" d="m169.7 56.6c3-0.6 6.5-0.1 9.5 0.9 1.8 0.6 5.7 2.1 5.7 4.1-0.1 1.5-2.5 1.9-4.6 2-2.1 0-3.6-0.3-5.1-0.6-1.3-0.4-3-0.9-4.3-1.6-1.2-0.6-3.2-1.5-3.1-3.2 0-1.1 1.1-1.4 1.9-1.6z"/>
					<path id="Layer" fill-rule="evenodd" class="s3" d="m175.9 57.3c0.2 0.7 0.1 1.4-0.3 1.6-0.4 0.1-1.9-0.6-2.2-1.5-0.4-1 2.4-0.6 2.5-0.1z"/>
					<path id="Layer" fill-rule="evenodd" class="s3" d="m174 58.8c0.4 0.7-2.7 0.8-3.8 0.8-0.9-0.1-1.2-1.6-0.7-1.7 1-0.4 4.1 0.2 4.5 0.9z"/>
					<path id="Layer" fill-rule="evenodd" class="s3" d="m178.8 58c0.2 0.8-2.1 1.4-2.4 1.1-0.5-0.4 0.2-1.5 0.9-1.7 0.5-0.1 1.4 0.1 1.5 0.6z"/>
					<path id="Layer" fill-rule="evenodd" class="s3" d="m175.4 59.8c0.4 0.4-0.4 1.3-1.5 1.9-0.6 0.3-2.1-0.5-2.3-1-0.2-0.5 0.6-0.6 1.2-0.8 0.9-0.3 2-0.6 2.6-0.1z"/>
					<path id="Layer" fill-rule="evenodd" class="s3" d="m183.4 60.7c0.2 1.2-4.9-1.1-5-1.5 0.1-0.3 1.7-0.3 3.4 0 0.8 0.1 1.4 0.8 1.6 1.5z"/>
					<path id="Layer" fill-rule="evenodd" class="s3" d="m178.6 62.2c0.4 1.1-3.4 0.8-3.2-0.3 0.2-0.9 0.7-2.2 1.3-2.2 0.7-0.1 1.4 1.2 1.9 2.5z"/>
					<path id="Layer" fill-rule="evenodd" class="s3" d="m182.3 62.5c-2.3 1.2-3.6-0.8-4.3-2.3 0.6-0.7 1.9 0.1 2.7 0.6 0.8 0.5 1.7 0.9 1.6 1.7z"/>
					<path id="Layer" fill-rule="evenodd" class="s11" d="m193.8 60.4l-0.8-0.2c-1.1-1.3-3.7-2.3-5.1-2.8-3-1-6.5-1.6-9.5-0.9-0.4 0-0.7 0.1-1 0.3l-0.7-0.2-0.2 1.4q0 0 0 0c-0.2 1.7 1.9 2.7 3 3.2 1.4 0.7 3 1.3 4.4 1.6 1.4 0.4 3 0.6 5.1 0.6 1.9 0 4.3-0.4 4.5-1.7z"/>
					<path id="Layer" fill-rule="evenodd" class="s2" d="m178.6 55.2c3-0.6 6.5-0.1 9.5 1 1.8 0.6 5.7 2 5.7 4.1 0 1.5-2.5 1.9-4.6 1.9-2.1 0-3.6-0.3-5.1-0.6-1.3-0.3-3-0.9-4.3-1.6-1.1-0.6-3.2-1.5-3.1-3.2 0.1-1.1 1.1-1.4 1.9-1.6z"/>
					<path id="Layer" fill-rule="evenodd" class="s3" d="m184.9 55.9c0.1 0.7 0.1 1.4-0.4 1.6-0.3 0.1-1.9-0.6-2.2-1.5-0.3-1 2.4-0.6 2.6-0.1z"/>
					<path id="Layer" fill-rule="evenodd" class="s3" d="m183 57.4c0.3 0.7-2.8 0.8-3.9 0.8-0.9 0-1.2-1.5-0.7-1.7 1-0.4 4.1 0.2 4.6 0.9z"/>
					<path id="Layer" fill-rule="evenodd" class="s3" d="m187.7 56.7c0.2 0.7-2.1 1.3-2.4 1-0.4-0.3 0.3-1.5 0.9-1.7 0.5-0.1 1.4 0.2 1.5 0.7z"/>
					<path id="Layer" fill-rule="evenodd" class="s3" d="m184.3 58.4c0.4 0.4-0.4 1.3-1.5 1.9-0.5 0.3-2-0.5-2.3-0.9-0.2-0.6 0.6-0.7 1.2-0.9 0.9-0.2 2-0.6 2.6-0.1z"/>
					<path id="Layer" fill-rule="evenodd" class="s3" d="m192.3 59.3c0.2 1.2-4.9-1.1-5-1.5 0.1-0.3 1.7-0.2 3.5 0 0.7 0.2 1.3 0.8 1.5 1.5z"/>
					<path id="Layer" fill-rule="evenodd" class="s3" d="m187.5 60.8c0.4 1.1-3.4 0.9-3.2-0.3 0.2-0.8 0.7-2.1 1.3-2.2 0.7-0.1 1.4 1.2 1.9 2.5z"/>
					<path id="Layer" fill-rule="evenodd" class="s3" d="m191.2 61.1c-2.3 1.2-3.5-0.7-4.3-2.3 0.7-0.7 1.9 0.1 2.8 0.6 0.7 0.5 1.6 1 1.5 1.7z"/>
					<path id="Layer" fill-rule="evenodd" class="s13" d="m156.1 53.4c9.9 3.6 26.9 4 37.1 0.4 0.1 1.7 0.7 5.2-0.8 5.5-1.2 0.3-1.2-0.9-2.1-1.3-1.7 0.7-0.3 3.8-0.7 5.9-0.1 0.5-0.5 1.7-1.3 1.7-1.4 0.1-1.4-1.8-1.2-3.2 0.1-1.5 0.5-3.1-0.3-3.9-1.8 0.6-1.6 3.6-4.6 2.6-0.4-0.2-0.9-0.8-1.2-1.2-0.6-0.8-0.6-1.3-1.1-1.4-0.9-0.1-1.9 0.8-2.6 1.2-1.9 1.3-3.7 2-6 0.6-1.2-0.7-1.7-1.8-2.5-1.9-0.8 0-1.9 0.6-2.3 1.1-1 1.4-0.3 4.5-1.8 4.8-1.3 0.2-2-1-2.3-2.1-0.3-1.3 0-3-0.9-3.5-1-0.2-1.8 0.2-2.7 0-2.3-0.3-3.2-2.5-2.7-5.3z"/>
					<path id="Layer" fill-rule="evenodd" class="s3" d="m194.4 53.1c0.1 1.2-2.4 1.6-3.9 2-4.5 1.2-10.1 1.5-15.8 1.6-5.3 0.1-11.2-0.2-16.1-1.4-1.4-0.3-3.5-1-3.7-2-0.2-0.5 0.2-1.5 0.4-2.2 0.6-2 1.6-4.4 2.7-5.7 3.3-4.4 9.7-5.7 16.6-6 4-0.2 8.5 0.2 11.6 1.5 4.9 2.2 7.7 6.1 8.2 12.2z"/>
					<path id="Layer" fill-rule="evenodd" class="s12" d="m177.2 39.9c-0.1 0.8-0.4 1.4-1.1 1.6-0.5-0.6 0.1-2.4 1.1-1.6z"/>
					<path id="Layer" fill-rule="evenodd" class="s12" d="m174.1 40.8c-0.2 0.8-1.2 1.4-2 1.1 0-0.9 1.3-2.1 2-1.1z"/>
					<path id="Layer" fill-rule="evenodd" class="s12" d="m178.8 45.1c0.7-0.3 1.7 0.2 2 1.1-0.9 0.4-2.6 0-2-1.1z"/>
					<path id="Layer" fill-rule="evenodd" class="s12" d="m184.1 40.5c-0.1 0.9-0.8 1.2-1.6 1.4-0.1-1 0.5-1.9 1.6-1.4z"/>
					<path id="Layer" fill-rule="evenodd" class="s12" d="m180.3 41.8c-0.4 0.6-1.4 1.1-2.1 0.9 0.1-0.7 1.6-1.9 2.1-0.9z"/>
					<path id="Layer" fill-rule="evenodd" class="s12" d="m163.9 43.2c-0.3 0.5-1.3 1.1-2.1 0.9 0.2-0.7 1.6-1.9 2.1-0.9z"/>
					<path id="Layer" fill-rule="evenodd" class="s12" d="m169.7 42.2c-0.1 1-2.1 0.9-2.2-0.1 0.2-0.8 2.1-0.4 2.2 0.1z"/>
					<path id="Layer" fill-rule="evenodd" class="s12" d="m185.5 43.9c0.1 0.4-0.3 0.4-0.3 0.7-0.9 0-1.3-0.3-1.7-0.7q0-0.2 0-0.3c0.6-0.3 1.7-0.1 2 0.3z"/>
					<path id="Layer" fill-rule="evenodd" class="s12" d="m167.8 44.5c0.1 0.4-0.2 0.4-0.3 0.6-0.8 0.1-1.2-0.3-1.7-0.6q0-0.2 0-0.4c0.6-0.2 1.8-0.1 2 0.4z"/>
					<path id="Layer" fill-rule="evenodd" class="s12" d="m175.1 44.5c-0.4 0.6-0.6 1.7-1.3 1.7-1.4 0.1 0-2.3 1.3-1.7z"/>
					<path id="Layer" class="s0" d="m173.2 94l-5.9 4.1v0.7c0 2-1.7 3.7-3.8 3.7h-11.6c-2 0-3.7-1.7-3.7-3.7v-5.7c0-2.1 1.7-3.7 3.7-3.7h11.6c2.1 0 3.8 1.6 3.8 3.7v0.9z"/>
					<path id="Layer" fill-rule="evenodd" class="s11" d="m153.7 95.3q-0.1-0.2-0.1-0.4 0-0.1 0-0.1 0-0.1-0.1-0.3c0-1.3 1-2.4 2.2-2.4 1 0 1.8 0.7 2.1 1.8 0.3-1.1 1.1-1.8 2.1-1.8 1.2 0 2.2 1.1 2.2 2.4q0 0.2-0.1 0.3h0.1q0 0-0.1 0.1 0 0.2-0.1 0.4 0 0.1 0 0.1 0 0.1 0 0.2c-0.9 2.6-3.9 4.7-4.1 4.8-0.2-0.1-3.2-2.2-4.1-4.8q0-0.1 0-0.2 0 0 0-0.1z"/>
					<path id="Layer" fill-rule="evenodd" class="s7" d="m178.2 102.4v42.3c0 3.5 3 6.4 6.7 6.4h65.3c3.8 0 6.8-2.9 6.8-6.4v-42.3z"/>
					<path id="Layer" fill-rule="evenodd" class="s0" d="m257 96.9c0-3.5-3-6.4-6.8-6.4h-65.3c-3.7 0-6.7 2.9-6.7 6.4v5.5h78.8v-5.5z"/>
					<path id="Layer" class="s2" d="m244.9 96.2c0 1.5-1.2 2.6-2.6 2.6-1.5 0-2.6-1.1-2.6-2.6 0-1.4 1.1-2.5 2.6-2.5 1.4 0 2.6 1.1 2.6 2.5z"/>
					<path id="Layer" class="s2" d="m248.6 98.8h2.9l-1.4-2.6-1.5-2.5-1.5 2.5-1.5 2.6z"/>
					<path id="Layer" fill-rule="evenodd" class="s0" d="m248.9 122.7h-33c-1.7 0-3-1.3-3-3v-10.6c0-1.6 1.3-3 3-3h33c1.7 0 3 1.4 3 3v10.6c0 1.7-1.3 3-3 3zm-33-14.7c-0.6 0-1.1 0.5-1.1 1.1v10.6c0 0.6 0.5 1.1 1.1 1.1h33c0.6 0 1.1-0.5 1.1-1.1v-10.6c0-0.6-0.5-1.1-1.1-1.1z"/>
					<path id="Layer" class="s0" d="m242.7 112.9h-18.9c-0.5 0-1-0.4-1-0.9 0-0.5 0.5-0.9 1-0.9h18.9c0.5 0 1 0.4 1 0.9 0 0.5-0.5 0.9-1 0.9z"/>
					<path id="Layer" class="s0" d="m233.3 117.6h-9.5c-0.5 0-0.9-0.4-0.9-0.9 0-0.5 0.4-0.9 0.9-0.9h9.5c0.5 0 0.9 0.4 0.9 0.9 0 0.5-0.4 0.9-0.9 0.9z"/>
					<path id="Layer" fill-rule="evenodd" class="s2" d="m198 114.4c-0.1 0-0.1 0-0.1 0-5.1-0.4-9.1 1.5-11.7 3.8-2.6 2.3-4.9 5.4-5.4 10.2-0.5 4.8 1.4 8.9 3.9 11.6 2.5 2.7 6 4.7 10.6 5.1 4.6 0.3 8.9-1.5 11.8-3.8 2.9-2.5 5-5.8 5.4-10.3 0.5-5.3-1.4-9-3.9-11.6-2.4-2.6-5.8-4.6-10.6-5z"/>
					<path id="Layer" fill-rule="evenodd" class="s5" d="m185.6 108.9c-0.1 1.5 0.5 2.6 1.2 3.5 0.9 1.1 2.4 1.9 3.8 2.5 1.5 0.6 3.4 1.3 5.1 0.5 0.3-3.9-3.6-6.9-7.2-7.3-1.1-0.1-2.5-0.1-2.9 0.8z"/>
					<path id="Layer" fill-rule="evenodd" class="s1" d="m186.9 109c-0.1 1.1 1.1 1.5 1.8 1.9 2.1 1.5 4.5 3.3 6.7 4.7 0.2 1.9 0.4 3.9 2.6 3.8 0.7-0.4 0.7-1.8 0.6-2.9-0.1-1.3-0.3-5.5-1.3-5.7-1.6-0.5-1.7 1.8-1.9 3.1-0.3 0.1-0.6-0.3-0.9-0.5q-1.3-1-2.9-2c-1.2-0.9-2.7-1.8-4.1-2.3-0.2 0-0.3-0.1-0.6-0.1z"/>
					<path id="Layer" fill-rule="evenodd" class="s0" d="m202.4 118.3c-0.1 0.6 0.3 1.1 0.6 1.5 0.2 0.3 0.4 1 1.1 0.8 0.7-0.9-0.5-3.2-1.7-2.3z"/>
					<path id="Layer" fill-rule="evenodd" class="s0" d="m188.6 119.9c0.1 0.1 0.2 0.1 0.3 0.3 0.6-0.4 1.7-0.5 1.8-1.1 0.2-1.3-2.4-0.6-2.1 0.8z"/>
					<path id="Layer" fill-rule="evenodd" class="s0" d="m187.7 122.2c0.2 0 0.2 0.2 0.3 0.3 0.7 0 1.1-0.3 1-1.1-0.5-0.4-1.1 0.2-1.3 0.8z"/>
					<path id="Layer" fill-rule="evenodd" class="s0" d="m200.8 122c0 0.9 0.1 1.6 0.9 1.7 0-0.1 0.1-0.1 0.2-0.1 0.3-0.8-0.2-2.3-1.1-1.6z"/>
					<path id="Layer" fill-rule="evenodd" class="s0" d="m186.4 122c-0.8 0.2-1.1 0.9-1.4 1.6q0.2 0.2 0.4 0.4c0.7-0.3 1.4-1.1 1.2-2q-0.1 0-0.2 0z"/>
					<path id="Layer" fill-rule="evenodd" class="s0" d="m203.9 122.9c-0.1 1 0 2.7 0.9 2.7 1.4 0.1 0.7-4.1-0.9-2.7z"/>
					<path id="Layer" fill-rule="evenodd" class="s0" d="m208.3 127.9c0.3-0.3 0.3-1.5-0.3-1.5-0.7 0.1-0.5 1.6 0.3 1.5z"/>
					<path id="Layer" fill-rule="evenodd" class="s0" d="m201 128.1c-0.2 0.8-0.2 2.1 0.4 2.4 1.6 0.1 1-3.7-0.4-2.4z"/>
					<path id="Layer" fill-rule="evenodd" class="s0" d="m205.3 132.4c1.4 0.5 1.3-1.3 1.4-2.5-1.2-1.7-2.3 1.4-1.4 2.5z"/>
					<path id="Layer" fill-rule="evenodd" class="s0" d="m183.1 131.2q0 0.9 0.3 1.4 0.3 0 0.5 0c0.5-0.6 0-2-0.8-1.4z"/>
					<path id="Layer" fill-rule="evenodd" class="s0" d="m209.3 131.9c-0.7 0.5-1 1.9-0.7 2.8q0.1-0.1 0.1 0c1.2 0 1.3-1.9 0.9-2.8q-0.2 0-0.3 0z"/>
					<path id="Layer" fill-rule="evenodd" class="s0" d="m202.7 134.1c-0.3 0.5-0.7 1.4-0.3 2 1.2 0.5 2.1-2.6 0.3-2z"/>
					<path id="Layer" fill-rule="evenodd" class="s0" d="m183.8 134.7c0.3 1.1 0.1 2.7 1.6 2.6 0.5-1-0.2-2.7-1.4-2.8q0 0.2-0.2 0.2z"/>
					<path id="Layer" fill-rule="evenodd" class="s0" d="m186.3 135c0.1 0.8 0.2 1.6 1.1 1.6 0.4-0.6-0.2-2-1.1-1.6z"/>
					<path id="Layer" fill-rule="evenodd" class="s0" d="m205.3 138.7c0.8-0.1 1-0.7 1.1-1.6-0.8-0.9-1.8 1-1.1 1.6z"/>
					<path id="Layer" fill-rule="evenodd" class="s0" d="m187.9 139c-0.2 0.6 0.2 1.2 0.8 1.2 0.5-0.5 0-1.4-0.8-1.2z"/>
					<path id="Layer" fill-rule="evenodd" class="s0" d="m201.2 141.7q0.2 0.1 0.3 0.3c1-0.2 1.8-0.6 1.8-1.8-0.9-0.7-1.9 0.5-2.1 1.5z"/>
					<path id="Layer" fill-rule="evenodd" class="s0" d="m196.5 142.5c0.1 0 0.1 0.1 0.1 0.2 0.9 0.2 1.9-0.3 1.9-1 0-1.2-2-0.2-2 0.8z"/>
					<path id="Layer" fill-rule="evenodd" class="s3" d="m182.1 129.9c0.1-0.7 0.6-0.9 0.5-1.7-0.2-1.2-2-2.5-3.6-3.1-1.5-0.5-3.1-0.7-5.3-0.5-3.3 0.2-6.4 1.6-9.1 3.4-2.8 1.8-4.9 3.8-6.1 6.4-0.5 1.2-1 3.4-0.4 4.4 0.3 0.3 0.7 0.5 1.1 0.6 0.5 0.1 1 0 1.6 0.1 0.5 0.1 1.1 1 1.7 1.8 2.4 3.6 4.6 6.6 7.6 9.7 1.2 1.2 2.5 2.4 3.9 3 2.5 1 5.5-0.5 7.3-1.5 2.6-1.3 4.8-2.7 7.4-4.5 1.2-0.8 2.9-2 3.1-3.2 0.3-1.9-0.9-3.4-1.7-4.5-2.7-3.6-5.4-6.7-8-10.4z"/>
					<path id="Layer" class="s12" d="m157.9 136.7c-0.1 0.8-0.1 1.6 0.2 2.1 0.3 0.4 0.7 0.5 1.1 0.6 0.5 0.1 1 0 1.5 0.1 0.6 0.2 1.2 1 1.8 1.8 2.4 3.6 4.6 6.6 7.6 9.7 1.2 1.2 2.5 2.4 3.9 3 2.5 1 5.5-0.5 7.3-1.5 2.6-1.3 4.8-2.6 7.4-4.5 1.2-0.8 2.9-2 3.1-3.2q0-0.3 0-0.6 0 0 0 0c0.1 0.3 0.1 2.1 0 2.4-0.2 1.3-1.9 2.5-3.1 3.3-2.6 1.8-4.8 3.2-7.4 4.5-1.8 1-4.8 2.5-7.3 1.5-1.4-0.6-2.7-1.8-3.9-3-3-3.1-5.2-6.2-7.6-9.7-0.6-0.8-1.2-1.7-1.7-1.8-0.6-0.1-1.1 0-1.6-0.1-0.4-0.1-0.8-0.3-1.1-0.6-0.5-0.8-0.4-2.5-0.2-4z"/>
					<path id="Layer" fill-rule="evenodd" class="s0" d="m171.1 128.8c-1.9 1.5-4.5 0.2-7.3 0.6-2.2 0.3-4.7 2.5-3.7 5.4 0.3 0.9 1 1.5 1.6 2.2 0.7 0.6 1.6 1.3 1.8 2.1 0.3 1.6-0.8 3.6 0.1 5.2 0.6 0.9 1.8 1.3 2.8 1.4 1.2 0 2.2-0.7 3.4-0.5 1.2 0.2 1.8 1.6 2.4 2.6 1.2 2.1 2.8 4.2 4.8 5 4.2 1.7 9.1-1.5 9.3-5.5 0-0.9-0.3-2-0.1-3.3 0.4-2.5 3.5-3.3 2.6-6.7-0.5-1.8-2.2-2.9-3.5-3.8-0.6-0.4-1.5-0.9-2.3-1.5-0.7-0.5-1.6-1.1-1.9-1.7-0.3-0.7-0.2-1.7-0.4-2.4-0.7-1.9-2.4-3.9-4.9-4.1-3-0.3-5.4 1.6-4.7 5z"/>
					<path id="Layer" fill-rule="evenodd" class="s14" d="m170.7 138c0 2.1 2 3.9 4.5 3.9 2.5 0 4.6-1.8 4.6-3.9 0-2.2-2.1-3.9-4.6-3.9-2.5 0-4.5 1.7-4.5 3.9z"/>
					<path id="Layer" fill-rule="evenodd" class="s5" d="m174.4 131q0 0.2-0.1 0.2c0.2 1 1.9 0.5 2-0.2-0.3-0.8-1.2 0.2-1.9 0z"/>
					<path id="Layer" fill-rule="evenodd" class="s5" d="m169.3 132.4q0.1 0.1 0 0.2c0 0.4 0.4 0.7 0.5 1.4 0.1 0.8-0.3 2.3 1 1.6-0.6-0.8 0.2-3.5-1.5-3.2z"/>
					<path id="Layer" fill-rule="evenodd" class="s5" d="m176.4 135.1c0.7 0 0.5-1 1-1.3-0.5-1.2-1.7 0.8-1 1.3z"/>
					<path id="Layer" fill-rule="evenodd" class="s5" d="m180.7 133.7c0.3 1 0.7 1.7 2 1.7 0-0.2 0.1-0.2 0.1-0.4 0-0.4-0.4-0.3-0.7-0.5-0.5-0.2-0.6-1.4-1.4-0.8z"/>
					<path id="Layer" fill-rule="evenodd" class="s5" d="m173.1 136.3c0 0.5 0.3 0.6 0.6 0.8 0.1 0.5 0.4 0.7 0.6 1.1 0.3-0.1 0.8 0 0.9-0.1 0.1-0.5-0.1-0.7-0.5-0.7-0.3-0.6-0.8-1.6-1.6-1.1z"/>
					<path id="Layer" fill-rule="evenodd" class="s5" d="m167.1 138.2q0.1-0.1 0.2 0c0.5-0.1 0.8-0.5 1.1-0.9-0.3-0.8-1.7 0.2-1.3 0.9z"/>
					<path id="Layer" fill-rule="evenodd" class="s5" d="m183.2 139.2c-0.3 0.4 0 0.7-0.1 1.2-0.1 0.4-0.5 1 0 1.2 0.8 0 1.2-2.4 0.1-2.4z"/>
					<path id="Layer" fill-rule="evenodd" class="s5" d="m166.4 142.4c-0.3-0.7 0-1.3-0.4-1.7-1.1 0-0.5 2.5 0.4 1.7z"/>
					<path id="Layer" fill-rule="evenodd" class="s5" d="m169.8 141.8c-0.2 1.2 1.5 2.7 2.4 1.8-0.6-0.7-1.6-0.8-1.8-1.9-0.2 0-0.5 0-0.6 0.1z"/>
					<path id="Layer" fill-rule="evenodd" class="s5" d="m175.2 142.3c-0.1 0.6-0.6 1.5-0.2 1.9 0.8 0.2 1.2-1.9 0.2-1.9z"/>
					<path id="Layer" fill-rule="evenodd" class="s5" d="m178.8 143.7c0.3 0.9 0.2 2.1 1.2 2.2 0.3-0.6-0.3-1.7-0.6-2.4-0.3-0.1-0.4 0.1-0.6 0.2z"/>
					<path id="Layer" fill-rule="evenodd" class="s5" d="m182.9 145.3c-0.2 0.3-0.1 1.1 0.1 1.4 0.3 0 0.5 0 0.6-0.1-0.1-0.6 0.2-1.5-0.7-1.3z"/>
					<path id="Layer" fill-rule="evenodd" class="s5" d="m175.6 147.8c0.8 0.1 0.9-0.7 1-1.4-0.7-1-0.9 0.7-1.2 1.2q0.1 0.1 0.2 0.2z"/>
					<path id="Layer" class="s9" d="m209.8 101.1q-0.1 0-0.1 0c-0.3-0.1-0.5-0.4-0.5-0.7q0.2-0.6 0.4-1.2c0.1-0.3 0.5-0.5 0.8-0.4 0.3 0.2 0.4 0.5 0.3 0.8q-0.2 0.5-0.3 1c-0.1 0.3-0.3 0.5-0.6 0.5zm1.1-2.7q-0.2 0-0.3 0c-0.3-0.2-0.4-0.6-0.2-0.9q0.3-0.5 0.6-1c0.2-0.2 0.6-0.3 0.9-0.1 0.2 0.2 0.3 0.6 0.1 0.8q-0.3 0.5-0.6 0.9c-0.1 0.2-0.3 0.3-0.5 0.3zm1.8-2.2q-0.3 0-0.5-0.2c-0.2-0.2-0.2-0.6 0.1-0.8q0.4-0.4 1-0.8c0.2-0.1 0.6-0.1 0.8 0.2 0.2 0.3 0.1 0.6-0.2 0.8q-0.4 0.3-0.8 0.7-0.2 0.1-0.4 0.1zm2.4-1.5c-0.2 0-0.4-0.1-0.5-0.4-0.2-0.3 0-0.6 0.3-0.7q0.5-0.3 1.1-0.5c0.3-0.1 0.6 0.1 0.7 0.4 0.1 0.3 0 0.7-0.3 0.8q-0.6 0.1-1.1 0.4-0.1 0-0.2 0zm2.7-0.8c-0.2 0-0.5-0.2-0.5-0.5-0.1-0.3 0.1-0.6 0.4-0.7q0.6-0.1 1.2-0.2c0.3-0.1 0.6 0.2 0.7 0.5 0 0.3-0.2 0.6-0.5 0.7q-0.6 0-1.1 0.2-0.1 0-0.2 0zm2.9-0.4c-0.3 0-0.6-0.3-0.6-0.6 0-0.3 0.2-0.6 0.5-0.6q0.6-0.1 1.2-0.1c0.3 0 0.6 0.2 0.6 0.6 0 0.3-0.2 0.6-0.5 0.6q-0.6 0-1.2 0.1 0 0 0 0zm2.9-0.2c-0.4 0-0.6-0.3-0.6-0.6 0-0.3 0.2-0.6 0.5-0.6h1.2c0.3-0.1 0.6 0.2 0.6 0.5 0 0.4-0.2 0.6-0.6 0.6l-1.1 0.1q0 0 0 0zm2.8-0.1c-0.3 0-0.6-0.3-0.6-0.6 0-0.3 0.3-0.6 0.6-0.6l0.5-0.1q0.3 0 0.6 0c0.4 0 0.6 0.2 0.7 0.5 0 0.4-0.3 0.7-0.6 0.7q-0.3 0-0.6 0l-0.5 0.1q-0.1 0-0.1 0zm2.9-0.3c-0.3 0-0.6-0.2-0.6-0.5-0.1-0.3 0.2-0.6 0.5-0.7q0.6-0.1 1.1-0.2c0.3 0 0.6 0.2 0.7 0.5 0.1 0.3-0.2 0.6-0.5 0.7q-0.5 0.1-1.1 0.2-0.1 0-0.1 0zm2.8-0.6c-0.3 0-0.5-0.2-0.6-0.4-0.1-0.3 0.1-0.7 0.4-0.8q0.5-0.2 1-0.4c0.3-0.1 0.6 0 0.8 0.3 0.1 0.3 0 0.7-0.3 0.8q-0.5 0.2-1.1 0.4-0.1 0.1-0.2 0.1zm2.5-1.3c-0.2 0-0.3-0.1-0.5-0.3-0.2-0.2-0.1-0.6 0.1-0.8q0.5-0.3 0.8-0.7c0.3-0.3 0.6-0.3 0.9 0 0.2 0.2 0.2 0.6 0 0.8q-0.4 0.5-0.9 0.8-0.2 0.2-0.4 0.2zm1.9-2.2q-0.2 0-0.3-0.1c-0.3-0.1-0.4-0.5-0.3-0.8q0.3-0.4 0.4-0.9c0.1-0.4 0.5-0.5 0.8-0.4 0.3 0.1 0.4 0.4 0.3 0.7q-0.2 0.6-0.4 1.2c-0.1 0.2-0.3 0.3-0.5 0.3zm0.8-2.8q-0.1 0-0.1 0c-0.3 0-0.6-0.3-0.5-0.6q0-0.5 0-0.9v-0.2c0-0.3 0.3-0.6 0.6-0.6q0 0 0 0c0.3 0 0.6 0.3 0.6 0.6v0.2q0 0.5-0.1 1c0 0.3-0.3 0.5-0.5 0.5zm-0.2-2.8c-0.3 0-0.5-0.2-0.6-0.4q-0.1-0.5-0.4-1c-0.1-0.3 0-0.7 0.3-0.8 0.3-0.1 0.7 0 0.8 0.3q0.3 0.5 0.4 1.2c0.1 0.3-0.1 0.6-0.4 0.7q-0.1 0-0.1 0zm-1.4-2.5q-0.2 0-0.4-0.2-0.4-0.4-0.8-0.7c-0.2-0.2-0.3-0.6-0.1-0.9 0.2-0.2 0.6-0.3 0.9-0.1q0.5 0.4 0.9 0.9c0.2 0.3 0.2 0.6-0.1 0.8q-0.2 0.2-0.4 0.2z"/>
					<path id="Layer" fill-rule="evenodd" class="s2" d="m240.5 62.6c-0.1 5.2-5.1 14.6-6.3 14.6-0.7 0-6.1-9.1-5.9-14.8 0-3.4 2.8-6.1 6.2-6 3.4 0 6.1 2.8 6 6.2zm-6.1-2.4c-1.6-0.1-2.9 1.2-3 2.8 0 1.6 1.3 2.9 2.9 2.9 1.6 0 2.9-1.2 2.9-2.8 0-1.6-1.2-2.9-2.8-2.9z"/>
				</g>
			</g>
			<g id="Clip-Path" clip-path="url(#cp4)">
				<g id="Layer">
					<path id="Layer" fill-rule="evenodd" class="s9" d="m53.4 224c-1.3 1.4-2.2 3.2-2.9 5-5.4 12.3-8.6 29.2-8.6 46.3 0 5.3 0 10.3 0.9 14.9 2.5 13.2 5.3 25.9 7.2 39.8 5.1 36.7 4.9 81.5-0.7 117.7 9.9 0.4 21.1 0.4 31.5 0.7 4-17.1 8.3-35.1 11.7-53.3 1.2-6.3 2.3-12.5 2.3-19.5 0-28.2-7.1-74.5-10.7-100.3 0.8 0.2 2.4 1.8 3.1 2.8 6 8.1 15.8 37.7 20.2 47.6 5 11.3 9.6 23.5 13.4 35.9 7.6 25.4 12.6 54.1 11 87 9.8 0.3 22.2 0.1 31.7-0.6 0.6-2.2 0.6-4.5 0.7-6.8 0.6-16.3 1.4-33.7 0.4-50.4-0.5-9.5-1.4-18.4-2.7-27.1-1.3-8.7-3.3-16.8-5.2-24.7-3.8-15.9-8.6-31.5-13.3-46.3-4.9-15-10.4-29.3-17-42.5 1.3-3.9 2.6-7.8 3.6-12-25.7-4.5-51.1-9.4-76.6-14.2z"/>
					<path id="Layer" fill-rule="evenodd" class="s15" d="m130 238.3c0 0-4.1 10.7-4.1 11.9 0.1 1.2 12.3 30.4 16.8 43 5.1 14.4 9.2 30.7 13.1 46.3 3.9 15.8 7 33.2 7.7 51.7 0.6 18.5-1.2 56.9-1.2 56.9l2.8-0.2c0 0 4.8-38.5 4-57.3-0.8-18.7-3.3-36.9-7.5-53.1-6.1-24.1-13.9-46.2-23.7-67.2-2.2-4.8-4.6-10.4-7.2-15.6-0.9-1.8-2.3-3.8-2.5-4.9-0.3-2 1.8-11.5 1.8-11.5z"/>
					<path id="Layer" fill-rule="evenodd" class="s15" d="m53.4 224c2.2 4.1 24 11.1 33.7 12.4 13.9 2 29 2.7 42.9 1.9 0 0-70.3-13-76.6-14.3z"/>
					<path id="Layer" fill-rule="evenodd" class="s16" d="m107 150.5c5.3 4.9 18.4 5.3 26.2 2.1 0.6-6.2 1.6-12 2.2-18.1 7.2 0.8 13.3-1.9 11.3-9.9-0.4-1.6-1.7-4.1-2-5.8-0.2-1 0.8-3.3 0.5-3.9-0.7-1.4-3.1-1.2-4.1-1.9-2.3-1.5-3.9-4.4-6.3-6.3-2.4-1.8-5.7-3.3-8.8-3.6-10.9-1.1-18.5 5.9-18.8 15.4-0.2 5.3 1.2 9.4 3.8 13.5-1.3 6-2.7 12.5-4 18.5z"/>
					<path id="Layer" fill-rule="evenodd" class="s17" d="m124.8 131.8c0.2 2.3 5.5 5.2 10.3 5.4l0.3-2.7c-3.7-0.4-7.7-1-10.6-2.7z"/>
					<path id="Layer" fill-rule="evenodd" class="s9" d="m137.2 108.1c0.5 0.2 0.2 1.6-0.5 3.2-0.8 1.5-1.7 2.6-2.1 2.4-0.4-0.1-0.1-1.6 0.6-3.1 0.7-1.6 1.6-2.7 2-2.5z"/>
					<path id="Layer" fill-rule="evenodd" class="s9" d="m139.3 112.1c0.6 0.5 0.8 1.3 0.5 1.7-0.3 0.4-1.1 0.4-1.7 0-0.6-0.5-0.8-1.3-0.5-1.7 0.3-0.4 1.1-0.4 1.7 0z"/>
					<path id="Layer" class="s17" d="m141.8 123.5q-0.8-0.2-1.8-0.7c-0.3-0.2-0.4-0.5-0.2-0.8 0.1-0.3 0.5-0.4 0.7-0.2 3 1.6 4.5 0 4.6-0.1 0.2-0.2 0.5-0.3 0.8-0.1 0.2 0.3 0.3 0.6 0.1 0.9-0.1 0-1.5 1.6-4.2 1z"/>
					<path id="Layer" class="s9" d="m61.3 108.3c1.5-0.3 3-0.1 3.9 0.2-0.8-1-2.3-1.8-3.4-2l0.6-2.2c0.8 0 1.6 0 2.1 0.2-0.7-0.4-1.3-0.7-1.9-0.8l5.3-18.3c4.1 0.5 6.8 2.2 9.2 4.4 2.1 1.8 3.7 4.2 6.1 6.1 4 3 10.5 2.8 15.6 4.3 5.8 1.7 8.6 4.9 10.9 9.2 1.4-13.4-14.6-11.7-20.4-17.4-1-1-2-2.2-2.5-3.4l1.5-0.9c0.3 0.7 0.6 1.2 1.5 2.3 3.6 4.3 12.5 4.1 17.4 8.4 2.4 2.1 3.9 4.9 4.1 9.2 2.5-3.2 7.5-6.3 12.8-6.3 1.4 0 3.6 0.2 5 0.9 4.7 2.4 4.9 12.2 1.1 15.6-4-0.3-6.8 0.9-6.5 3.8 0.2 2.4 2.4 3.7 4.3 4.1-0.6 6-5.1 9.7-10.4 9.7-6.7 0.1-10.7-6.2-11.1-12.2-0.2-2.6 0.6-5.1 0.7-7.7-5.2-0.1-8 3.3-11.3 5.7-3.3 2.3-7.3 5.3-12.2 5.2-7.4-0.1-9.1-7-14.5-9.1-3.1-1.1-7.2 0.9-10.5-0.3z"/>
					<path id="Layer" class="s15" d="m74.9 106.7c3.1 2.2 6.4 5.8 10.4 6.8 6.4 1.6 9.5-3.1 16.2-2.5-5.1 0.8-8.4 5.2-14.2 5.2-4.9 0-9.4-3.8-13.1-6.3-1.7-1.2-3.2-2.6-5.9-3.9-1.3-0.6-4.2-1.7-5.7-2.3l0.8-2.6c3.9 1.2 8.4 3.5 11.5 5.6z"/>
					<path id="Layer" class="s15" d="m59.5 114.3c2.4-0.2 4.7-0.4 6.8-0.1 8.4 0.9 12.6 9 20.8 8.8 8.1-0.3 10.9-7.2 18.7-7.4-7.2 2.2-11.8 9-19.4 10.5-9.3 1.9-11.4-6.7-16.9-8.5-3.2-1.1-7.1 0.7-10.8-0.5z"/>
					<path id="Layer" fill-rule="evenodd" class="s15" d="m118.5 102.4c-10.5 3.6-18.1 20.4-7.6 30.4-4.7-14.1 3.6-26.5 7.6-30.4z"/>
					<path id="Layer" fill-rule="evenodd" class="s16" d="m239.6 128.9c0.6-1.4 5.2-2.3 4.5-5-0.7-3.2-9.5 0.5-11 1.1-4.4 1.8-8.3 4.4-10.3 6.6-1.4-2.5-1.7-8.3-4.2-7.9-1.7 0.2-0.8 3.4-0.9 5.2-1.3 23.3-12.4 38.4-21.7 54.2-4.2-2.9-8.1-6-12.4-8.8-9.5 8.7-15.6 20.8-21.7 33 8.5 4.1 18.1 7.4 28.7 9.9 4.2 1 8.5 2.7 12.9 2.1 6-0.9 9.6-5 12.6-9.5 8.8-13.3 14.6-30.7 18.8-47.5 2.7-1.3 5.4-4.5 5.8-8.4 0.4-3-0.8-6.2-0.2-9.7 2.3 0 2.1 3 4.3 2.5 3.3-0.7-0.7-6.8-1.8-7.9 2.2-0.7 6.7-0.9 6.3-3.2-0.3-2.1-6.1-1.7-8.8-1.5 1.1-1 8-1.8 7.9-4.1-0.1-2.6-6.1-1.6-8.8-1.1z"/>
					<path id="Layer" fill-rule="evenodd" class="s17" d="m244 123.5c-1 3.5-10.6 4.9-13.6 9.7 1.6-1.6 5-2.5 8-3.8 2.6-1.1 6.9-3.5 5.6-5.9z"/>
					<path id="Layer" fill-rule="evenodd" class="s17" d="m219.1 123.7c2.8 3.6 0.8 8.7 0.4 16 1.5-6.4 3.4-8.1 3.4-8.1-0.8-5.3-2.7-7.9-3.8-7.9z"/>
					<path id="Layer" fill-rule="evenodd" class="s17" d="m248.4 129.7c-4.7 2.9-12.1 2.4-15.6 6.8 4.8-2.4 16.7-3.5 15.6-6.8z"/>
					<path id="Layer" fill-rule="evenodd" class="s17" d="m166.4 206.2c4.6-12 11-22.7 17.2-31.9 0 0-14 15.2-21.7 33 8.8 5 33.5 11.7 36.6 12 5.2 0.5 9.8-1 12.9-3.4 1.6-1.4 2.8-3.5 4.3-5.5 1.4-1.9 2.8-3.7 3.8-5.6 5.9-11.3 10.7-23.8 14.2-38 0.2-0.5 0.7-4.1 3-5.6 2.6-1.7 4.3-4.8 4.4-9.2 0-2.6-0.8-5-0.6-7.8 1.9 0.3 2.6 4 5.2 2.1 0 0-1.3 0-1.7-0.3-1.4-1-2.4-5-4.8-4.5-2.5 0.6-0.7 7.5-0.9 11.1-0.2 3.1-0.9 4.8-1.6 6.3-0.6 1.3-1.8 2.3-2.5 3.6-0.7 1.3-9.5 21.6-14.7 29.9-5.5 8.8-12.9 19.9-23.5 21-1.6 0.1-2.5 0.1-4.3 0-9.1-0.6-16.6-4.1-25.3-7.2z"/>
					<path id="Layer" fill-rule="evenodd" class="s17" d="m249.3 135.6c-3 1.8-13.6-0.2-15.8 3.7 2-0.8 7.4-3 9.5-0.5 2.3-0.7 6.8-0.7 6.3-3.2z"/>
					<path id="Layer" fill-rule="evenodd" class="s16" d="m28.8 104.2c-2.8-1.6-9.9-8.3-12.2-6.1-1.1 1.1 3.2 5.4 4.7 8.2-2.2-2-6.6-5.2-8.3-3.9-2.1 1.5 3.8 6.1 5.4 9.3-1.8-0.5-6.2-1.6-6.8 0.4-0.5 1.6 6.1 4.1 8.4 5.8 3.2 18.5 5.4 38.3 9 58.2 1.2 6.5 1.9 13.9 5.4 17.6 4.8 5.1 17.7 6.5 26.2 4.6 3.1-3.8 4.9-8.3 6.4-11.8 3-7.3-4.6-14.9-5.5-23.9-2.2 1.3-3.3 2-5 3-2.8-13.5-7.3-27-11.2-39.9-0.6-1.8-0.7-2.8-0.8-4.2-0.2-3.3 3-16.3 1.5-17-1.8-0.8-4.4 3.8-5.1 5.5-4.4-4.1-7-10.4-12.4-13.9-1.6-1.1-3.6-2.7-5.8-2.3-1 2.4 5 8.9 6.1 10.4z"/>
					<path id="Layer" fill-rule="evenodd" class="s17" d="m16.7 97.8c-0.7 0.7-0.3 1.4 0.2 2.1 2.7-2.2 9.1 2.7 11.9 4.3-3-3-9.9-8.4-12.1-6.4z"/>
					<path id="Layer" fill-rule="evenodd" class="s17" d="m13 102.4c-0.6 0.4-0.7 1-0.2 1.9 3-1.6 5.9 0.8 8.5 2-1.6-2-6.4-5.4-8.3-3.9z"/>
					<path id="Layer" fill-rule="evenodd" class="s17" d="m12.1 113.3c0.9-1.6 3.5-1.7 6.3-1.6-3.9-1.8-8.7-0.5-6.3 1.6z"/>
					<path id="Layer" fill-rule="evenodd" class="s17" d="m61.4 162.7c-0.7 1.8 3.3 19.1 4.8 27.1 0 0-0.2-2.7 0.8-3.5-2.6-7.1-4.2-15.3-5.6-23.6z"/>
					<path id="Layer" fill-rule="evenodd" class="s17" d="m45.6 104.4c-1.9-0.6-4.7 4.4-5 5.2-1.8-3.7-4.1-7-7.1-9.7-2.9-2.6-8.4-7.1-10.6-6.3-0.8 0.6-0.4 1.6 0.1 2.5 2.7-2.6 15.2 9.6 17.5 19 0.9-3.3 3.2-8.4 5.1-10.7z"/>
					<path id="Layer" fill-rule="evenodd" class="s17" d="m63.5 192.7c-3.3 2.4-12.9 1.8-17.1-0.1-14-6.5-21.9-44.8-21.9-44.8 1.1 5.5 1.8 13.5 3.1 20.8 1.3 7 1.9 20.4 7.3 25.6 2.9 2.8 9.6 5.3 16.3 4.9 2.2-0.1 7.5-0.1 9.1-0.8 0 0 2.3-3.7 3.2-5.6z"/>
					<path id="Layer" fill-rule="evenodd" class="s18" d="m61.4 162.7c1.3 8.1 2.9 16.8 5.6 23.6 0 0-13.9 24.5-19.6 36.6 0 0 58.2 11.2 91.2 16.9 0-8.4 0.3-15.1 0.7-22.6 1.3-0.6 3.4-1.5 5-2.7 2.5-1.9 4.2-4.8 4.7-9l11.7 4.3c6.3-13.2 13.4-25.5 22.9-35.5-9.3-7.1-20.8-14.1-33.5-18.8-4.2-1.5-9.2-3.3-13.5-3.6-4.3-0.2-7 0.7-10.4 1-4.2 0.3-8.6 0.6-13.1-0.6-5-1.4-9-4.1-16.3-3.5-6.7 0.4-13.7 2.9-19.7 5.4-6 2.4-11.3 5.3-15.7 8.5z"/>
					<path id="Layer" fill-rule="evenodd" class="s19" d="m133.2 152.4v-0.5c-9.5 1.4-19.6 0.7-26.1-1.7l-0.1 0.6c5.8 4.3 18.5 4.7 26.2 1.6z"/>
					<path id="Layer" fill-rule="evenodd" class="s19" d="m130 238.3l8.6 1.5c0.3-9.5 0.5-15 0.7-22.6 5.1-2.2 9.3-4.7 9.7-11.7l-6.6-2.6c-0.4 6.7-5 6.3-6.3 8.9-1 2-0.9 4.6-1.3 7-1.2 6.8-3.2 13.3-4.8 19.5z"/>
				</g>
			</g>
		</g>
	</g>
</svg>