<svg version="1.2" xmlns="http://www.w3.org/2000/svg" viewBox="0 0 205 179" width="205" height="179">
	<title>6982750_3333446 1-svg</title>
	<style>
		.s0 { fill: #e69c7a } 
		.s1 { fill: #301b20 } 
		.s2 { fill: #174f4b } 
		.s3 { fill: #ffffff } 
		.s4 { fill: #10193d } 
		.s5 { fill: #8cd0d1 } 
		.s6 { fill: #33a948 } 
		.s7 { fill: #a86b4e } 
		.s8 { fill: #8c503e } 
		.s9 { fill: #c27653 } 
		.s10 { fill: #ff9696 } 
		.s11 { fill: #ff5733 } 
		.s12 { fill: #a7b9de } 
		.s13 { fill: #cc7324 } 
		.s14 { fill: #fc9f4e } 
		.s15 { fill: #ffb87a } 
		.s16 { fill: #a81c1c } 
		.s17 { fill: #cf8240 } 
		.s18 { fill: #462217 } 
		.s19 { fill: #d6392d } 
		.s20 { fill: #ad344c } 
		.s21 { fill: #f77c94 } 
		.s22 { fill: #ffaa2e } 
		.s23 { fill: #349e47 } 
		.s24 { fill: #ffe3ba } 
		.s25 { fill: #213b1c } 
		.s26 { fill: #355c2f } 
		.s27 { fill: #bd2424 } 
		.s28 { fill: #ffcc8a } 
		.s29 { fill: #7a2c3d } 
		.s30 { fill: #c97b8d } 
		.s31 { fill: #482a4a } 
		.s32 { fill: #3e9132 } 
		.s33 { fill: #ffaf6b } 
		.s34 { fill: #ffefbf } 
		.s35 { fill: #fff9e8 } 
		.s36 { fill: #468f3a } 
		.s37 { fill: #de4545 } 
		.s38 { fill: #ffbc59 } 
		.s39 { fill: #85402c } 
		.s40 { fill: #ffddab } 
		.s41 { fill: #ffdcb8 } 
		.s42 { fill: #de9a54 } 
	</style>
	<g id="Layer" style="opacity: .7">
		<path id="Layer" class="s0" d="m69.2 112.7l26.4 1.6-1.4-65.9-7.5 4.2-11.4 6.4q-0.9 0.5-1.7 1.3c-2.3 1.9-3.6 4.7-3.7 7.7z"/>
		<path id="Layer" class="s1" d="m73.6 60.3c1.1 0.5 2.1 1.5 2.6 3 1.2 4.1 1.7 10.5 1.7 10.5l9.1-16.6 1.3-3.7-1.6-0.9-11.4 6.4q-0.9 0.6-1.7 1.3z"/>
		<path id="Layer" class="s0" d="m107.2 114.9v0.4l-0.1 0.4v0.5l-0.8 9.9-0.4 5-1.2 14.3-0.6 6.9-0.3 4.5-0.4 4.8-0.4 3.8v0.8l-1.2 13.8h-20.3l-17.8-3.6-0.6-0.1-3.9-0.8 2.4-14.9v-0.2l0.1-0.5 0.7-4.4 4.7-29.4 2.1-13.4 0.6-3.7h0.3l7.9 1.3 15.5 2.4 2 0.3 6.8 1.1z"/>
		<path id="Layer" class="s2" d="m82.1 112.7h43.6c2.6 0 4.7-2.1 4.7-4.6v-92.2c0-2.6-2.1-4.7-4.7-4.7h-43.6c-2.6 0-4.7 2.1-4.7 4.7v92.2c0 2.5 2.1 4.6 4.7 4.6z"/>
		<path id="Layer" class="s3" d="m84.3 109.5h38.8c2.3 0 4.2-1.9 4.2-4.3v-86.5c0-2.4-1.9-4.3-4.2-4.3h-38.8c-2.3 0-4.2 1.9-4.2 4.3v86.5c0 2.4 1.9 4.3 4.2 4.3z"/>
		<path id="Layer" class="s2" d="m77.4 42.8c0.3 0 0.6-0.2 0.6-0.6v-6.9c0-0.3-0.3-0.6-0.6-0.6-0.3 0-0.6 0.3-0.6 0.6v6.9c0 0.4 0.3 0.6 0.6 0.6z"/>
		<path id="Layer" class="s2" d="m77.4 51.5c0.3 0 0.6-0.3 0.6-0.6v-6.9c0-0.3-0.3-0.6-0.6-0.6-0.3 0-0.6 0.3-0.6 0.6v6.9c0 0.3 0.3 0.6 0.6 0.6z"/>
		<path id="Layer" class="s2" d="m130.4 35.7c0.3 0 0.6-0.3 0.6-0.6v-6.3c0-0.3-0.3-0.6-0.6-0.6-0.4 0-0.7 0.3-0.7 0.6v6.3c0 0.3 0.3 0.6 0.7 0.6z"/>
		<path id="Layer" class="s4" d="m108.6 13.4h3.1c0.3 0 0.6-0.3 0.6-0.6 0-0.3-0.3-0.6-0.6-0.6h-3.1c-0.4 0-0.6 0.3-0.6 0.6 0 0.3 0.2 0.6 0.6 0.6z"/>
		<path id="Layer" class="s4" d="m105.7 13.4c0.3 0 0.6-0.3 0.6-0.6 0-0.3-0.3-0.6-0.6-0.6-0.3 0-0.6 0.3-0.6 0.6 0 0.3 0.3 0.6 0.6 0.6z"/>
		<path id="Layer" class="s4" d="m99.6 13.4c0.3 0 0.5-0.3 0.5-0.6 0-0.3-0.2-0.6-0.5-0.6-0.3 0-0.6 0.3-0.6 0.6 0 0.3 0.3 0.6 0.6 0.6z"/>
		<path id="Layer" class="s4" d="m101.6 12.8c0 0.5 0.4 1 0.9 1 0.5 0 1-0.5 1-1 0-0.5-0.5-0.9-1-0.9-0.5 0-0.9 0.4-0.9 0.9z"/>
		<path id="Layer" class="s5" d="m120 68.8h-32.2c-0.9 0-1.6-0.8-1.6-1.7 0-0.9 0.7-1.7 1.6-1.7h32.2c0.9 0 1.6 0.8 1.6 1.7 0 0.9-0.7 1.7-1.6 1.7z"/>
		<path id="Layer" class="s5" d="m120 74.4h-32.2c-0.9 0-1.6-0.7-1.6-1.6 0-1 0.7-1.7 1.6-1.7h32.2c0.9 0 1.6 0.7 1.6 1.7 0 0.9-0.7 1.6-1.6 1.6z"/>
		<path id="Layer" class="s6" d="m103 91.3c3.5 0 6.2-2.8 6.2-6.2 0-3.4-2.7-6.2-6.2-6.2-3.4 0-6.2 2.8-6.2 6.2 0 3.4 2.8 6.2 6.2 6.2z"/>
		<path id="Layer" class="s3" d="m103 88.9q-0.1 0-0.3-0.1c-0.4-0.2-0.6-0.7-0.4-1.1l3-5.7c0.2-0.4 0.7-0.5 1.1-0.3 0.4 0.2 0.5 0.6 0.3 1l-3 5.8c-0.1 0.2-0.4 0.4-0.7 0.4z"/>
		<path id="Layer" class="s3" d="m103 88.9q-0.3 0-0.5-0.2l-3.3-3c-0.4-0.3-0.4-0.8-0.1-1.1 0.3-0.4 0.8-0.4 1.1-0.1l3.4 3c0.3 0.3 0.3 0.8 0 1.1q-0.2 0.3-0.6 0.3z"/>
		<path id="Layer" class="s5" d="m105.2 102.2h-16c-1.3 0-2.3-1-2.3-2.2v-0.2c0-1.3 1-2.3 2.3-2.3h16c1.2 0 2.2 1 2.2 2.3v0.2c0 1.2-1 2.2-2.2 2.2z"/>
		<path id="Layer" class="s5" d="m119.3 102.2h-7.2c-1.3 0-2.3-1.1-2.3-2.3 0-1.3 1-2.4 2.3-2.4h7.2c1.3 0 2.3 1.1 2.3 2.4 0 1.2-1 2.3-2.3 2.3z"/>
		<path id="Layer" class="s0" d="m69.7 80.3c0-0.5 7.7-9.8 7.7-9.8 0.6 6.5 2.9 11.9 5.9 14.7 3.4 3.3 9 4.7 14.3 1.1l27.7-24.4c1.8-1.5 4.3-1.7 6.4-0.6 2 1 2.7 3.5 1.7 5.5l-13.6 22.9c-1.8 3.1-3.2 6.3-4.3 9.7-3.3 10.4-6.9 17-12.3 19.7l-2.7 1.3c0 0-29.7-1.9-30.1-1.9-0.4 0-0.8-37.7-0.7-38.2z"/>
		<path id="Layer" class="s7" d="m123.2 67.1l5.8 4.5 3-4.5c1-1.4 0.7-3.3-0.7-4.4-1.3-1-3.3-0.9-4.4 0.4z"/>
		<path id="Layer" class="s1" d="m84.7 162.3c0 0 5.9 1.6 8 6.5 0 0 4.3-4.9 12.9-3l-3.8-7.1-15.6-3.2z"/>
		<path id="Layer" class="s8" d="m116.7 136.4q0 0 0 0.1l-0.3 1.3q0 0.1 0 0.3l-7 31.2v0.1c1.5 3 2.9 6.5 4.2 10.6h-63.6c2.6-6.5 5.2-12 7.8-16.2q1-1.7 2.1-3.1 0 0 0-0.1l2.1-17 1.9-16.2q0 0 0 0c0.2-0.7 1.3-1.1 3.2-1.3 4.6-0.6 13.6 0 23.9 1.8 5.6 0.9 10.7 2.1 14.9 3.2 2.4 0.7 4.6 1.4 6.3 2.1q0.3 0.1 0.6 0.3c2.6 1.1 4.1 2.1 3.9 2.9q0 0 0 0z"/>
		<path id="Layer" class="s1" d="m89.2 174.2q-0.1 0-0.1 0c-0.2-0.1-0.3-0.2-0.2-0.4 2.8-7.8 10.7-8.5 10.8-8.5 0.1 0 0.3 0.1 0.3 0.3 0 0.2-0.1 0.3-0.3 0.3-0.1 0-7.6 0.7-10.2 8.1-0.1 0.1-0.2 0.2-0.3 0.2z"/>
		<path id="Layer" class="s1" d="m61.9 179.9q0 0-0.1-0.1c-0.2 0-0.2-0.2-0.2-0.4 0.1-0.1 5.6-14.1 15.8-16.9 8.1-2.2 11.9 1.1 13.6 2.5 0.2 0.2 0.5 0.5 0.6 0.5 0.1 0 0.3 0.1 0.3 0.2 0.1 0.2 0 0.4-0.1 0.4-0.4 0.1-0.7-0.1-1.2-0.6-1.6-1.4-5.3-4.5-13.1-2.4-9.8 2.7-15.2 16.4-15.3 16.6 0 0.1-0.2 0.2-0.3 0.2z"/>
		<path id="Layer" class="s1" d="m84.7 162.2l1.6 0.4c10 1.7 8.2 3.2 13.4 3.2 0 0 4.5-0.5 9.7 3.6l7-31.3c-1 4-4.4 14.3-12.5 18.6-12.5 6.7-19 5.5-19.2 5.5z"/>
		<path id="Layer" class="s1" d="m58 163.9q-0.1 0-0.2 0c-0.1-0.1-0.2-0.3-0.1-0.4 0-0.2 1.6-3.7 5-3.7 3.3 0.1 5 2.6 5 2.9 0 0.2-0.1 0.3-0.3 0.3-0.1 0-0.2-0.1-0.3-0.2-0.1-0.1-1.5-2.3-4.4-2.4-3 0-4.4 3.3-4.5 3.3q-0.1 0.2-0.2 0.2z"/>
		<path id="Layer" class="s1" d="m63.9 160.3c-1.1-2-2.4-6.6-1.9-16.7l-2.1 17q1.6-0.2 4-0.3z"/>
		<path id="Layer" class="s1" d="m105.6 166.1q0 0-0.1 0c-0.1 0-0.2-0.2-0.2-0.4 4-13.4 6.9-32.2 6.9-32.4 0-0.2 0.2-0.3 0.4-0.3 0.1 0.1 0.2 0.2 0.2 0.4 0 0.2-2.9 19.1-6.9 32.5 0 0.2-0.1 0.2-0.3 0.2z"/>
		<path id="Layer" class="s1" d="m66.8 162.2q-0.1 0-0.1 0c-0.2-0.1-0.3-0.2-0.3-0.4 0.9-6.2 3.2-12.1 4.6-15.5 0.6-1.3 1-2.5 1-2.7 0-0.2 0.1-0.4 0.3-0.4 0.2 0 0.3 0.2 0.3 0.4 0 0.3-0.3 1.1-1 2.9-1.4 3.5-3.7 9.2-4.5 15.4-0.1 0.2-0.2 0.3-0.3 0.3z"/>
		<path id="Layer" class="s1" d="m102.5 148.3c-0.6 1.9-0.2 3.7 0.8 4 1.1 0.3 2.4-0.9 3-2.8 0.6-2 0.2-3.8-0.8-4.1-1.1-0.3-2.4 1-3 2.9z"/>
		<path id="Layer" class="s9" d="m85.6 97.6q-0.1 0-0.1 0c-0.2-0.1-0.2-0.3-0.1-0.5 4.3-6.1 14.7-13.5 14.8-13.6 0.2-0.1 0.4-0.1 0.5 0.1 0.1 0.1 0 0.3-0.1 0.4-0.1 0.1-10.4 7.5-14.7 13.5q-0.1 0.1-0.3 0.1z"/>
		<path id="Layer" class="s1" d="m102.6 118.3c1.4 1 3.3 3.2 3.7 7.8l0.8-10.4c-1.2 1.1-2.7 2-4.5 2.6z"/>
		<path id="Layer" class="s9" d="m84.2 92.3q-0.1 0-0.2 0c-0.1-0.1-0.2-0.3-0.1-0.5 1.4-2 4.1-3.9 4.3-4 0.1-0.1 0.3-0.1 0.4 0.1 0.1 0.1 0 0.3-0.1 0.4 0 0-2.8 1.9-4 3.9q-0.1 0.1-0.3 0.1z"/>
		<path id="Layer" class="s9" d="m119.5 82.5q-0.1 0-0.1 0c-0.5-0.1-3.5-2-6.4-4.7-0.1-0.1-0.1-0.3 0-0.4 0.1-0.1 0.3-0.1 0.5 0 2.8 2.6 5.7 4.4 6 4.5 0.2 0 0.3 0.2 0.2 0.4 0 0.1-0.1 0.2-0.2 0.2z"/>
		<path id="Layer" class="s9" d="m116.4 85.1q-0.1 0-0.2-0.1c-0.1 0-3.7-1.7-4.9-3.5-0.1-0.1-0.1-0.3 0-0.4 0.2-0.1 0.4-0.1 0.5 0.1 1.2 1.6 4.7 3.3 4.7 3.3 0.1 0 0.2 0.2 0.1 0.4q-0.1 0.2-0.2 0.2z"/>
		<path id="Layer" class="s9" d="m100.1 119.3c-0.2 0-0.3-0.1-0.3-0.3-0.1-0.2 0-0.3 0.2-0.4q1.3-0.2 2.5-0.6 2.4-0.8 4.4-2.5c4-3.2 5.3-7.7 5.3-7.7 0.1-0.2 0.2-0.3 0.4-0.2 0.2 0 0.3 0.2 0.2 0.3 0 0.2-1.4 4.7-5.5 8.1q-2.1 1.7-4.6 2.6-1.3 0.4-2.6 0.7 0 0 0 0z"/>
		<path id="Layer" class="s10" d="m171.3 33.1l-0.6 0.5-14.5-16.7 0.6-0.5z"/>
		<path id="Layer" class="s11" d="m177.7 42.9l-7.9 3.3-10.2-19.9 10.7-4.6z"/>
		<path id="Layer" class="s1" d="m160.2 27.3c0 0 10.9-3.7 11-3.9 0-0.1-0.3-1.2-0.3-1.2z"/>
		<path id="Layer" class="s12" d="m171.6 22.5l-12.1 5.1-0.5-1.9 11.5-4.9z"/>
		<path id="Layer" class="s13" d="m25.4 142.9l-1 0.8c-0.2 0.2-0.6 0-0.5-0.4l6.4-17.4q0.1-0.2 0.2-0.3l0.9-0.8c0.3-0.2 0.7 0 0.5 0.4l-6.3 17.4q-0.1 0.2-0.2 0.3z"/>
		<path id="Layer" class="s14" d="m27.1 143l-0.9 0.8c-0.3 0.3-0.6 0-0.5-0.3l6.4-17.5q0-0.1 0.2-0.2l0.9-0.9c0.2-0.2 0.6 0.1 0.5 0.4l-6.4 17.4q0 0.2-0.2 0.3z"/>
		<path id="Layer" class="s13" d="m25.7 143.9l-1 0.7c-0.3 0.2-0.6-0.2-0.5-0.5l8.7-16.3q0.1-0.2 0.2-0.2l1.1-0.7c0.2-0.2 0.6 0.1 0.4 0.4l-8.7 16.4q-0.1 0.1-0.2 0.2z"/>
		<path id="Layer" class="s13" d="m27 143.4l-1 0.6c-0.3 0.2-0.6-0.1-0.4-0.4l9.1-16.1q0.1-0.1 0.2-0.2l1.1-0.7c0.3-0.1 0.6 0.2 0.4 0.5l-9.1 16.1q-0.1 0.1-0.3 0.2z"/>
		<path id="Layer" class="s13" d="m25.2 144l-0.8 1.1c-0.3 0.3-0.7 0.1-0.7-0.3l4.2-20.2q0.1-0.2 0.2-0.3l0.9-1.1c0.2-0.3 0.7-0.1 0.6 0.3l-4.2 20.2q0 0.2-0.2 0.3z"/>
		<path id="Layer" class="s14" d="m23.1 146.6l-1.1 0.6c-0.3 0.1-0.6-0.2-0.4-0.5l10.1-15.5q0.1-0.1 0.2-0.2l1.1-0.6c0.3-0.1 0.6 0.2 0.4 0.5l-10.1 15.5q0 0.1-0.2 0.2z"/>
		<path id="Layer" class="s14" d="m24.7 147.3l-1 0.8c-0.2 0.3-0.6 0-0.5-0.3l7-17.3q0-0.1 0.1-0.2l1-0.8c0.3-0.2 0.6 0 0.5 0.4l-6.9 17.2q-0.1 0.1-0.2 0.2z"/>
		<path id="Layer" class="s14" d="m23.6 147l-0.9 0.8c-0.2 0.3-0.6 0-0.5-0.3l5.7-17.7q0-0.1 0.2-0.3l0.9-0.8c0.2-0.3 0.6 0 0.5 0.3l-5.7 17.7q-0.1 0.2-0.2 0.3z"/>
		<path id="Layer" class="s14" d="m21 149.3l-0.8 1c-0.2 0.2-0.6 0-0.6-0.3l4.7-18q0.1-0.2 0.2-0.3l0.8-0.9c0.3-0.3 0.6-0.1 0.6 0.3l-4.7 18q-0.1 0.1-0.2 0.2z"/>
		<path id="Layer" class="s14" d="m22.7 142.5l-0.7 1c-0.2 0.2-0.6 0.1-0.6-0.3l2.6-18.4q0-0.2 0.1-0.3l0.7-1c0.2-0.3 0.6-0.1 0.6 0.2l-2.5 18.4q-0.1 0.2-0.2 0.4z"/>
		<path id="Layer" class="s14" d="m25.2 143.3l-0.7 1c-0.2 0.3-0.7 0.1-0.6-0.3l2.7-18.4q0-0.1 0.1-0.3l0.8-1c0.2-0.3 0.6-0.1 0.5 0.3l-2.7 18.4q0 0.1-0.1 0.3z"/>
		<path id="Layer" class="s14" d="m22.8 147.2l-0.9 1.1c-0.2 0.3-0.6 0.1-0.6-0.3l3.3-20.3q0-0.2 0.2-0.4l0.8-1.1c0.2-0.3 0.7-0.1 0.6 0.3l-3.3 20.4q0 0.2-0.1 0.3z"/>
		<path id="Layer" class="s15" d="m22.6 148.4l-0.8 0.8c-0.2 0.3-0.5 0.1-0.5-0.2l4-16.4q0-0.2 0.1-0.3l0.7-0.9c0.3-0.2 0.6 0 0.5 0.3l-3.9 16.4q0 0.2-0.1 0.3z"/>
		<path id="Layer" class="s14" d="m22.4 150.1l-1.2 0.5c-0.3 0.2-0.6-0.2-0.4-0.5l10.6-15.3q0.1-0.2 0.2-0.2l1.2-0.6c0.3-0.1 0.6 0.3 0.4 0.6l-10.6 15.3q-0.1 0.1-0.2 0.2z"/>
		<path id="Layer" class="s15" d="m19.7 149.6l-1.1 0.6c-0.3 0.2-0.7-0.2-0.5-0.5l9.5-16.1q0-0.1 0.2-0.2l1.1-0.6c0.3-0.2 0.7 0.2 0.5 0.5l-9.5 16.1q-0.1 0.1-0.2 0.2z"/>
		<path id="Layer" class="s16" d="m33.5 136.7l-10.5-1.5-4 15.1 7.1 1.1z"/>
		<path id="Layer" class="s17" d="m114.1 60.6h-22.1c-1.4 0-2.6-1.1-2.6-2.5v-2.2h27.2v2.2c0 1.4-1.1 2.5-2.5 2.5z"/>
		<path id="Layer" class="s18" d="m116.4 56h-26.8c-1 0-1.7-0.8-1.7-1.7v-1c0-1 0.7-1.8 1.7-1.8h26.8c1 0 1.8 0.8 1.8 1.8v1c0 0.9-0.8 1.7-1.8 1.7z"/>
		<path id="Layer" class="s19" d="m116.8 51.5h-27.3c-0.3 0-0.6-0.2-0.6-0.5v-1.4c0-0.3 0.3-0.6 0.6-0.6h27.3c0.3 0 0.5 0.3 0.5 0.6v1.4c0 0.3-0.2 0.5-0.5 0.5z"/>
		<path id="Layer" fill-rule="evenodd" class="s20" d="m100.2 52.5c-4.6 0-9.9-1.5-9.9-3.6 0-1.4 2.2-1.6 3.4-1.7 1.7-0.1 3.9-0.1 6.4-0.1q0 0 0 0h1.7c4.8-0.1 7.2 0 8.1 0.8q0.4 0.4 0.4 0.9c0 2.1-5.6 3.7-10.1 3.7zm-7.9-3.4c0.9 0.7 3.9 1.8 7.9 1.8 4 0 7.1-1.2 8.1-1.9-1.2-0.3-4.1-0.3-6.5-0.3h-1.6q0 0-0.1 0c-3 0-6.6 0-7.8 0.4z"/>
		<path id="Layer" fill-rule="evenodd" class="s21" d="m105.9 52.3c-4.6 0-9.9-1.6-9.9-3.6 0-0.2 0.1-0.6 0.5-0.9 0.3-0.4 1.3-1.3 9.4-1q1.6 0.1 2.9 0.1c4.8 0.2 7.2 0.3 7.2 1.9 0 2.2-5.9 3.5-10.1 3.5zm-8-3.5c1 0.7 4 1.8 8 1.8 4 0 7-1 8.1-1.6-1-0.3-3.2-0.3-5.2-0.4q-1.4 0-3-0.1c-5.2-0.2-7.2 0.1-7.9 0.3z"/>
		<path id="Layer" class="s1" d="m107.2 50.1c0.1 0 2.6 0.2 3.1 2.7 0.5 2.5 2.4 3.1 2.7 1.9 0.3-1.2-1.2-4.6-1.2-4.6l-2.4-0.6-1.5 0.3z"/>
		<path id="Layer" class="s22" d="m89.6 49c0.3 0-1.9 2.2 17.4 1.3 5.2-0.3 4.5 5.3 5.6 5 1.2-0.3 0.6-6.7 3.2-6.3z"/>
		<path id="Layer" class="s1" d="m119.2 49.3q0 0.1-0.1 0.1c-0.2 0.1-0.4 0.4-1.7 0.3v0.7q-1-0.1-2.2-0.5c-1.7-0.6-3.9-0.7-5.7-0.7-1.7 0.1-3 0.3-3.2 0.3-1.4 0-3.4 0-5.1 0.2-1.8 0.1-3.2 0.2-3.2 0.2q-0.1 0-0.3 0c-2.2-0.5-5.5 0-5.9 0q0 0 0 0v-1.2l2.8-0.6c0 0 16.1-0.8 18.1-0.4 2.1 0.4 3.6 0.3 3.6 0.3z"/>
		<path id="Layer" class="s23" d="m102.9 46.4c-1.3 0-2.6-0.2-3.9-0.1-1.4 0-2.6 0.4-3.8 0.5-1.5 0.1-2.8 0-3.9 0.2-2.3 0.2-3.9 1.4-4.2 2-0.2 0.3-1.3 2.2 3.7 1.1 1-0.2 2.9-1 4.4-1 2.1 0 3 1.4 4.7 1.1 1.3-0.2 1.6-1.2 2.9-1.2 1.4 0 2.8 0.5 4 0.5 1.4-0.1 2.7-0.4 3.9-0.5 1.4-0.1 3 0 4.1 0.2 3.6 0.8 4 0.3 4.3 0.1 0.7-0.3 0.7-1.7-4.6-2.4-1.1-0.2-2.4-0.1-3.8-0.2-1.2-0.1-2.5 0-3.9 0-1.3-0.1-2.5-0.3-3.9-0.3z"/>
		<path id="Layer" class="s17" d="m115.3 47.1h-24.5c-0.8 0-1.4-0.6-1.4-1.3v-2.1c0-0.7 0.6-1.3 1.4-1.3h24.5c0.7 0 1.3 0.6 1.3 1.3v2.1c0 0.7-0.6 1.3-1.3 1.3z"/>
		<path id="Layer" class="s18" d="m116.4 42.4h-26.8c-1 0-1.7-0.8-1.7-1.7v-1c0-1 0.7-1.8 1.7-1.8h26.8c1 0 1.8 0.8 1.8 1.8v1c0 0.9-0.8 1.7-1.8 1.7z"/>
		<path id="Layer" class="s19" d="m117.4 36v1.4c0 0.3-0.3 0.5-0.6 0.5h-27.3c-0.3 0-0.6-0.2-0.6-0.5v-1.4c0-0.3 0.3-0.6 0.6-0.6h27.3c0.3 0 0.6 0.3 0.6 0.6z"/>
		<path id="Layer" class="s1" d="m90.1 36.2c-0.1 0.5 1 8.8 2.1 8.8 1.2 0 1.2-2.6 1.1-2.8-0.1-0.2-0.8-6.6-0.8-6.6l-1.3-0.3z"/>
		<path id="Layer" fill-rule="evenodd" class="s20" d="m100.2 38.9c-4.6 0-9.9-1.5-9.9-3.6 0-1.4 2.2-1.6 3.4-1.7 1.7-0.1 3.9-0.1 6.4-0.1q0 0 0 0h1.7c4.8-0.1 7.2 0 8.1 0.8q0.4 0.4 0.4 0.9c0 2.1-5.6 3.7-10.1 3.7zm-7.9-3.4c0.9 0.7 3.9 1.8 7.9 1.8 4 0 7.1-1.2 8.1-1.9-1.2-0.3-4.1-0.3-6.5-0.3h-1.6q0 0-0.1 0c-3 0-6.6 0-7.8 0.4z"/>
		<path id="Layer" fill-rule="evenodd" class="s21" d="m105.9 38.7c-4.6 0-9.9-1.6-9.9-3.6 0-0.2 0.1-0.6 0.5-0.9 0.3-0.4 1.3-1.3 9.4-1q1.6 0.1 2.9 0.1c4.8 0.2 7.2 0.3 7.2 1.9 0 2.2-5.9 3.5-10.1 3.5zm-8-3.5c1 0.7 4 1.8 8 1.8 4 0 7-1 8.1-1.6-1-0.3-3.2-0.3-5.2-0.4q-1.4 0-3-0.1c-5.2-0.2-7.2 0.1-7.9 0.3z"/>
		<path id="Layer" class="s22" d="m115.8 35.4c-0.4 0 2.2 2.5-17.3 2.1-5.2-0.1-4.6 7.8-5.8 7.5-1.1-0.3-0.6-10-3.1-9.6z"/>
		<path id="Layer" class="s1" d="m119.2 35.7q0 0-0.1 0c-0.2 0.1-0.4 0.4-1.7 0.3v0.7q-1-0.1-2.2-0.5c-1.7-0.6-3.9-0.7-5.7-0.6-1.7 0-3 0.2-3.2 0.2-1.4 0-3.4 0.1-5.1 0.2-1.8 0.1-3.2 0.2-3.2 0.2q-0.1 0-0.3 0c-2.2-0.4-5.5 0-5.9 0q0 0 0 0v-1.2l2.8-0.6c0 0 16.1-0.8 18.1-0.4 2.1 0.4 3.6 0.3 3.6 0.3z"/>
		<path id="Layer" class="s23" d="m119.2 35.7q0 0-0.1 0c-0.2 0.1-0.4 0.4-1.7 0.3-0.6 0-1.5-0.1-2.6-0.4-1.1-0.2-2.7-0.3-4.1-0.2q-0.6 0.1-1.2 0.2c-0.9 0.1-1.8 0.2-2.7 0.3q-0.3 0-0.5-0.1c-1.1 0-2.3-0.4-3.5-0.4-0.7 0-1.1 0.3-1.6 0.6-0.3 0.2-0.7 0.5-1.3 0.6-0.9 0.2-1.5-0.1-2.2-0.4-0.7-0.3-1.5-0.7-2.5-0.7-1.1 0-2.4 0.4-3.4 0.7q-0.6 0.2-1 0.3-1.1 0.3-1.9 0.3c-2.8 0.3-2-1.1-1.8-1.4 0.3-0.6 1.9-1.8 4.2-2 1.1-0.2 2.4-0.1 3.9-0.2 1.2-0.1 2.4-0.5 3.8-0.5 1.3-0.1 2.6 0.1 3.9 0.1q0.3 0 0.6 0c1.1 0.1 2.2 0.2 3.3 0.3 1.4 0 2.7-0.1 3.9 0 1.4 0.1 2.7 0 3.8 0.2 1.2 0.1 2.2 0.3 2.9 0.6 2.1 0.6 2.2 1.4 1.8 1.8z"/>
		<path id="Layer" class="s1" d="m117.4 33.9c-1.7 0-3.7 0.1-5.8 0.1-5.7 0-10.3-0.3-10.3-0.7 0-0.2 0.8-0.4 2.2-0.5 1.1 0.1 2.2 0.2 3.3 0.3 1.4 0 2.7-0.1 3.9 0 1.4 0.1 2.7 0 3.8 0.2 1.2 0.1 2.2 0.3 2.9 0.6z"/>
		<path id="Layer" class="s17" d="m115.3 33.8h-24.5c-0.8 0-1.4-0.5-1.4-1.3v-2c0-0.8 0.6-1.4 1.4-1.4h24.5c0.7 0 1.3 0.6 1.3 1.4v2c0 0.8-0.6 1.3-1.3 1.3z"/>
		<path id="Layer" class="s18" d="m89.8 29.2h26.8c1 0 1.8-0.8 1.8-1.8v-1c0-0.9-0.8-1.7-1.8-1.7h-26.8c-0.9 0-1.7 0.8-1.7 1.7v1c0 1 0.8 1.8 1.7 1.8z"/>
		<path id="Layer" class="s19" d="m117.3 22.7v1.4c0 0.3-0.2 0.6-0.5 0.6h-27.3c-0.3 0-0.6-0.3-0.6-0.6v-1.4c0-0.3 0.3-0.6 0.6-0.6h27.3c0.2 0 0.4 0.2 0.5 0.5q0 0 0 0.1z"/>
		<path id="Layer" fill-rule="evenodd" class="s21" d="m100.4 25.5c-4.2 0-10.1-1.4-10.1-3.5 0-1.7 2.4-1.8 7.1-1.9q1.4-0.1 2.9-0.1c8.1-0.4 9.1 0.6 9.5 0.9 0.3 0.4 0.4 0.7 0.4 1 0 2-5.3 3.6-9.8 3.6zm-8.1-3.4c1.1 0.7 4.1 1.7 8.1 1.7 4 0 7-1.1 7.9-1.8-0.7-0.2-2.6-0.6-7.9-0.4q-1.5 0.1-2.9 0.2c-2 0-4.2 0.1-5.2 0.3z"/>
		<path id="Layer" class="s1" d="m108.2 24.2c0.1 0.1 2.6 0.3 3.1 3.9 0.5 3.7 2.4 4.5 2.7 2.8 0.3-1.7-1.2-6.7-1.2-6.7l-2.4-0.8-1.5 0.4z"/>
		<path id="Layer" class="s22" d="m90.5 22.1c0.4 0-2.3 2.5 17.3 2.1 5.2-0.1 4.6 7.8 5.7 7.5 1.2-0.3 0.6-9.9 3.2-9.6z"/>
		<path id="Layer" class="s1" d="m89.5 22.1h5.1q-0.7 0.1-0.9 0.1c-1.1 0-2.1 0.3-3.8 1.2q-0.5 0.3-1 0.4v-1.1c0-0.3 0.3-0.6 0.6-0.6z"/>
		<path id="Layer" class="s1" d="m117.3 22.7v1.3c-1.5-0.1-3.7-0.5-5.2-1.3-0.5-0.3-1.8-0.5-3.4-0.6h7.9q0.3 0.2 0.7 0.5 0 0 0 0.1z"/>
		<path id="Layer" class="s23" d="m115.5 23.3c-1.1-0.3-2.9-1.1-4.4-1.1-2.1 0.1-3 1.4-4.7 1.2-1.3-0.3-1.6-1.3-3-1.3-1.3 0-2.7 0.5-3.9 0.5-1.4 0-2.7-0.3-3.9-0.4-1.5-0.1-3.1 0-4.1 0.2-3.7 0.7-4 0.2-4.4 0.1-0.6-0.4-0.6-1.8 4.6-2.5 1.1-0.1 2.4-0.1 3.9-0.2 1.2 0 2.5 0 3.9 0 1.2 0 2.5-0.3 3.8-0.3 1.4 0 2.7-0.1 3.9-0.1 1 0 2 0.3 2.9 0.4q0.5 0.1 1 0.1c1.5 0.1 2.8 0.1 3.9 0.2 1.1 0.1 2.1 0.5 2.8 0.9 0.7 0.4 1.2 0.8 1.4 1.1 0.2 0.4 1.3 2.3-3.7 1.2z"/>
		<path id="Layer" class="s1" d="m117.8 21c-2.7 1-13.4 0.3-13.5 0.3l5.8-1.5q0.5 0.1 1 0.1c1.5 0.1 2.8 0.1 3.9 0.2 1.1 0.1 2.1 0.5 2.8 0.9z"/>
		<path id="Layer" class="s17" d="m116.6 20.1c0 0.7-6.1 1.2-13.6 1.2-7.5 0-13.6-0.5-13.6-1.2 0-3.6 1.4-6.9 3.7-9.3 2.3-2.3 5.4-3.8 8.8-3.8h2.2c6.9 0 12.5 5.9 12.5 13.1z"/>
		<path id="Layer" class="s24" d="m94.8 16.8c-0.1-0.6 0.1-1.1 0.3-1.1 0.2-0.1 0.5 0.4 0.5 1 0.1 0.6 0 1.1-0.3 1.1-0.2 0.1-0.4-0.4-0.5-1z"/>
		<path id="Layer" class="s24" d="m102.4 9.2c-0.4-0.1-0.6-0.4-0.6-0.5 0.1-0.2 0.4-0.2 0.8-0.1 0.3 0.2 0.6 0.4 0.5 0.5 0 0.2-0.3 0.2-0.7 0.1z"/>
		<path id="Layer" class="s24" d="m103.5 13c-0.3-0.2-0.5-0.4-0.4-0.5 0-0.2 0.3-0.1 0.6 0.1 0.3 0.1 0.5 0.4 0.4 0.5 0 0.1-0.3 0.1-0.6-0.1z"/>
		<path id="Layer" class="s24" d="m93.6 13c-0.3-0.2-0.5-0.4-0.4-0.5 0.1-0.2 0.4-0.1 0.6 0.1 0.3 0.1 0.5 0.4 0.5 0.5-0.1 0.1-0.4 0.1-0.7-0.1z"/>
		<path id="Layer" class="s24" d="m91.6 19c-0.3-0.2-0.4-0.4-0.4-0.5 0.1-0.1 0.4-0.1 0.7 0.1 0.3 0.2 0.4 0.4 0.4 0.5-0.1 0.1-0.4 0.1-0.7-0.1z"/>
		<path id="Layer" class="s24" d="m112.1 13.4c0.2-0.2 0.5-0.4 0.6-0.3 0.1 0.1 0 0.4-0.3 0.7-0.2 0.2-0.4 0.4-0.5 0.3-0.1-0.1 0-0.4 0.2-0.7z"/>
		<path id="Layer" class="s24" d="m97.5 16.3c0.2-0.3 0.5-0.4 0.6-0.3 0.1 0.1 0 0.3-0.2 0.6-0.3 0.3-0.5 0.4-0.6 0.3-0.1-0.1 0-0.4 0.2-0.6z"/>
		<path id="Layer" class="s24" d="m108.6 18.6c0.2-0.2 0.4-0.4 0.5-0.3 0.1 0.1 0 0.4-0.2 0.7-0.2 0.2-0.5 0.4-0.6 0.3-0.1-0.1 0-0.4 0.3-0.7z"/>
		<path id="Layer" class="s24" d="m98.8 18.9c0.3 0 0.6 0 0.6 0.2 0 0.1-0.2 0.3-0.5 0.3-0.4 0.1-0.7 0-0.7-0.1 0-0.1 0.2-0.3 0.6-0.4z"/>
		<path id="Layer" class="s24" d="m112.9 17.9c-0.3-0.2-0.4-0.5-0.3-0.6 0-0.1 0.3 0 0.6 0.2 0.2 0.2 0.4 0.5 0.3 0.6-0.1 0.1-0.4 0-0.6-0.2z"/>
		<path id="Layer" class="s24" d="m105.8 9.1c-0.2-0.3-0.4-0.5-0.3-0.6 0.1-0.1 0.4-0.1 0.7 0.2 0.2 0.2 0.4 0.5 0.3 0.6-0.1 0.1-0.4 0-0.7-0.2z"/>
		<path id="Layer" class="s24" d="m108 13.2c-0.5-0.3-0.8-0.8-0.7-1 0.1-0.2 0.6-0.1 1.1 0.2 0.5 0.3 0.8 0.7 0.7 0.9-0.1 0.2-0.6 0.2-1.1-0.1z"/>
		<path id="Layer" class="s24" d="m97.7 11c0.4-0.4 0.9-0.6 1.1-0.4 0.1 0.1-0.1 0.6-0.5 1.1-0.4 0.4-0.9 0.6-1 0.4-0.2-0.1 0-0.6 0.4-1.1z"/>
		<path id="Layer" class="s24" d="m104.4 17.1c-0.5 0.4-1 0.5-1.1 0.4-0.2-0.2 0.1-0.7 0.5-1.1 0.5-0.4 0.9-0.5 1.1-0.3 0.1 0.1-0.1 0.6-0.5 1z"/>
		<path id="Layer" class="s25" d="m18.6 83.3q0.4 0.1 0.7 0.1 0.4 0 0.8-0.1 0.4-0.1 0.7-0.3 0.4-0.2 0.7-0.4l0.3 0.2q-0.3 0.4-0.6 0.7-0.4 0.3-0.8 0.6-0.4 0.2-0.9 0.3-0.5 0.1-1 0.1z"/>
		<path id="Layer" class="s26" d="m20 83.9c0.5 1.2-3.3 3.1-7.4 1-4.1-2.1-5.2-6-4.6-6.1 0.6-0.2 2.7 2 5.7 2.9 2.9 1 5.9 1 6.3 2.2z"/>
		<path id="Layer" class="s17" d="m40.8 69.3c0 5-3.1 9-7.2 11.2-9 5.9-20.6 3.2-26-5.8-1.8-3.1-1.8-6.3-1.4-9.9 1.4-5.8 6.3-9.4 11.7-10.7q1.9-0.4 3.6-0.5 0.1 0.5 0.1 1.6 0 0.1 0 0.4c0.2 4.7 0.7 14.7 1 14.5 0.3-0.1 9.6-4.4 14.8-6.9q0.2-0.1 0.5-0.2 0.9-0.4 1.6-0.7c1.1 2.1 1.7 4.4 1.3 7z"/>
		<path id="Layer" class="s1" d="m39 69.2c0 4.5-2.8 8.1-6.4 10.1-8.1 5.2-18.5 2.8-23.4-5.2-1.6-2.8-1.6-5.7-1.2-8.9 1.2-5.2 5.7-8.4 10.5-9.6q1.6-0.3 3.1-0.4 0 0.1 0 0.4c0.2 4.7 0.7 14.7 1 14.5 0.3-0.1 9.6-4.4 14.8-6.9q0.2-0.1 0.5-0.2c1 1.9 1.4 4 1.1 6.2z"/>
		<path id="Layer" class="s27" d="m38.5 69.2c0 4.3-2.7 7.8-6.2 9.8-7.8 5-17.9 2.7-22.6-5.1-1.6-2.7-1.6-5.5-1.2-8.6 1.2-5 5.5-8.2 10.1-9.3q1.6-0.3 3-0.4c0.2 4.7 0.7 14.7 1 14.5 0.3-0.1 9.6-4.4 14.8-6.9 1 1.8 1.4 3.8 1.1 6z"/>
		<path id="Layer" class="s17" d="m22 54.4c0 0.4 0 0.8-0.8 0.8-0.7-0.1-1.3-0.4-1.3-0.8 0-0.4 0.6-0.7 1.3-0.8 0.8-0.1 0.8 0.4 0.8 0.8z"/>
		<path id="Layer" class="s17" d="m38.3 62.3c0.3-0.3 0.7-0.7 1.2 0 0.4 0.6 0.5 1.2 0.2 1.5-0.4 0.4-0.9 0.1-1.5-0.3-0.6-0.6-0.3-0.9 0.1-1.2z"/>
		<path id="Layer" class="s28" d="m10.8 60.4c-0.8 0.9-1.5 1.9-1.9 3-0.3 1.1-0.1 2.5 0.6 3.4 0.8 1 2.3 1.4 2.7 2.6 0.2 0.5 0.2 1.1 0.2 1.7-0.1 2.3 0.1 4.8 1.5 6.7 1.4 1.9 4.1 2.8 6.5 2.1q0.5-0.2 1-0.2c0.8 0 0.8 0.7 2.7 1.2 1.6 0.4 4.7-0.2 6.9-1.2 2.2-0.9 4.1-2.5 5.2-4.6 0.8-1.5 1.1-3.1 1.3-4.8 0.1-1.1 0.2-2.3-0.1-3.5-0.3-1.1-0.9-2.2-1.9-2.8 0 0-3.9 1-9.8 4.1-1 0.5-1.9 1.1-3 1.1-0.2 0.1-1.7-0.3-1.6-2.2 0.4-4.1 1.7-5.8 0-8.5-1.3-2-4.9-1.7-6.6-1-1.4 0.7-2.7 1.7-3.7 2.9z"/>
		<path id="Layer" class="s29" d="m12.3 69.6c2 0 3.6-1.3 3.6-2.9 0-1.6-1.6-2.9-3.6-2.9-1.9 0-3.5 1.3-3.5 2.9 0 1.6 1.6 2.9 3.5 2.9z"/>
		<path id="Layer" class="s30" d="m10 66.7c0.3 0 0.5-0.2 0.5-0.4 0-0.2-0.2-0.4-0.5-0.4-0.3 0-0.5 0.2-0.5 0.4 0 0.2 0.2 0.4 0.5 0.4z"/>
		<path id="Layer" class="s30" d="m12.1 67.4c0.2 0.3 0 0.7-0.4 0.9-0.4 0.2-0.8 0.1-1-0.1-0.1-0.3 0.1-0.7 0.5-1 0.3-0.2 0.8-0.1 0.9 0.2z"/>
		<path id="Layer" class="s30" d="m14.1 66.7c-0.1 0.3-0.5 0.4-0.9 0.2-0.4-0.2-0.7-0.6-0.5-0.9 0.1-0.3 0.5-0.4 0.9-0.2 0.4 0.2 0.7 0.6 0.5 0.9z"/>
		<path id="Layer" class="s30" d="m11.6 65.6c0.1-0.1 0.1-0.4-0.1-0.5-0.1-0.2-0.4-0.2-0.5-0.1-0.1 0.1-0.1 0.4 0.1 0.5 0.1 0.2 0.4 0.2 0.5 0.1z"/>
		<path id="Layer" class="s30" d="m14.5 65.4c-0.1 0.1-0.4 0.1-0.5-0.1-0.2-0.2-0.2-0.4-0.1-0.5 0.1-0.2 0.3-0.1 0.5 0 0.2 0.2 0.2 0.4 0.1 0.6z"/>
		<path id="Layer" class="s30" d="m13.8 67.8c0.1 0.1 0.1 0.3-0.1 0.5-0.2 0.1-0.4 0.1-0.5 0-0.2-0.1-0.1-0.4 0.1-0.5 0.2-0.2 0.4-0.2 0.5 0z"/>
		<path id="Layer" class="s29" d="m19.2 57.2c1.7 0.5 2.5 2.3 1.7 4-0.7 1.7-2.7 2.6-4.3 2.1-1.7-0.4-2.5-2.2-1.7-3.9 0.7-1.7 2.7-2.7 4.3-2.2z"/>
		<path id="Layer" class="s30" d="m16.8 61.7c0.2 0.1 0.3 0.4 0.2 0.6-0.1 0.2-0.4 0.4-0.6 0.3-0.2 0-0.3-0.3-0.2-0.5 0.1-0.3 0.4-0.4 0.6-0.4z"/>
		<path id="Layer" class="s30" d="m18.6 60.6c0.4 0 0.7 0.3 0.8 0.7 0.1 0.4-0.2 0.8-0.6 0.8-0.3 0.1-0.7-0.2-0.7-0.6-0.1-0.4 0.1-0.8 0.5-0.9z"/>
		<path id="Layer" class="s30" d="m18.6 58.7c0.2 0.2 0.2 0.6-0.1 0.9-0.4 0.3-0.9 0.4-1.2 0.2-0.2-0.2-0.2-0.7 0.2-1 0.3-0.3 0.8-0.3 1.1-0.1z"/>
		<path id="Layer" class="s30" d="m16.5 60.5c0.1 0.2-0.1 0.4-0.3 0.5-0.2 0.1-0.5 0-0.6-0.1-0.1-0.2 0.1-0.4 0.3-0.4 0.2-0.1 0.5-0.1 0.6 0z"/>
		<path id="Layer" class="s30" d="m17.3 58c0.1 0.1 0 0.3-0.3 0.4-0.2 0.1-0.5 0.1-0.5-0.1-0.1-0.1 0-0.3 0.2-0.4 0.3-0.1 0.5-0.1 0.6 0.1z"/>
		<path id="Layer" class="s30" d="m19.6 59.3c0.2 0 0.4 0.1 0.5 0.3 0.1 0.2 0 0.4-0.2 0.4-0.2 0.1-0.4 0-0.5-0.2-0.1-0.2 0-0.4 0.2-0.5z"/>
		<path id="Layer" class="s29" d="m19.8 74.3c0.5 1.8-0.8 3.4-2.7 3.7-2 0.2-4-1-4.4-2.8-0.5-1.9 0.7-3.5 2.7-3.8 2-0.2 3.9 1 4.4 2.9z"/>
		<path id="Layer" class="s30" d="m14.3 74.5c0 0.2-0.1 0.5-0.4 0.5-0.3 0-0.6-0.1-0.7-0.4 0-0.2 0.2-0.4 0.5-0.5 0.2 0 0.5 0.2 0.6 0.4z"/>
		<path id="Layer" class="s30" d="m16.3 75.6c0.2 0.3 0.1 0.8-0.2 1-0.4 0.3-0.8 0.3-1.1 0-0.2-0.3-0.1-0.8 0.2-1.1 0.4-0.3 0.8-0.3 1.1 0.1z"/>
		<path id="Layer" class="s30" d="m18.1 74.5c-0.1 0.3-0.5 0.5-1 0.4-0.4-0.2-0.8-0.6-0.7-1 0-0.3 0.4-0.5 0.9-0.4 0.5 0.2 0.8 0.6 0.8 1z"/>
		<path id="Layer" class="s30" d="m15.2 73.6c-0.1 0.1-0.3 0.1-0.6-0.1-0.2-0.1-0.3-0.4-0.2-0.6 0.1-0.1 0.3-0.1 0.6 0.1 0.2 0.1 0.3 0.4 0.2 0.6z"/>
		<path id="Layer" class="s30" d="m18 72.9c0 0.2-0.3 0.2-0.5 0-0.2-0.2-0.3-0.4-0.2-0.6 0-0.2 0.3-0.1 0.5 0 0.2 0.2 0.3 0.5 0.2 0.6z"/>
		<path id="Layer" class="s30" d="m18 75.8c0.2 0.1 0.2 0.4 0.1 0.6-0.2 0.2-0.4 0.2-0.6 0.1-0.1-0.2-0.1-0.5 0-0.6 0.2-0.2 0.4-0.3 0.5-0.1z"/>
		<path id="Layer" class="s29" d="m23.3 74.2c0.2-1.9 1.9-3 3.9-2.5 1.9 0.5 3.3 2.4 3.1 4.3-0.3 1.8-2 2.9-4 2.4-1.9-0.5-3.3-2.4-3-4.2z"/>
		<path id="Layer" class="s30" d="m28.5 76c0-0.3 0.3-0.4 0.6-0.3 0.2 0 0.4 0.3 0.4 0.5 0 0.3-0.3 0.4-0.5 0.3-0.3 0-0.5-0.3-0.5-0.5z"/>
		<path id="Layer" class="s30" d="m27 74.3c-0.1-0.4 0.2-0.8 0.6-1 0.4-0.1 0.8 0.1 1 0.5 0.1 0.3-0.2 0.8-0.6 0.9-0.4 0.1-0.9 0-1-0.4z"/>
		<path id="Layer" class="s30" d="m25 74.6c0.1-0.3 0.6-0.3 1 0 0.3 0.3 0.5 0.8 0.3 1.2-0.1 0.3-0.6 0.3-1 0-0.3-0.3-0.5-0.8-0.3-1.2z"/>
		<path id="Layer" class="s30" d="m27.3 76.5c0.1-0.1 0.4 0 0.5 0.2 0.2 0.3 0.2 0.6 0 0.7-0.1 0.1-0.4 0-0.5-0.2-0.1-0.3-0.1-0.6 0-0.7z"/>
		<path id="Layer" class="s30" d="m24.4 76.1c0.2-0.1 0.4 0 0.5 0.2 0.2 0.2 0.2 0.5 0 0.6-0.1 0.2-0.3 0.1-0.5-0.2-0.1-0.2-0.1-0.5 0-0.6z"/>
		<path id="Layer" class="s30" d="m25.4 73.4c0-0.1 0-0.4 0.2-0.5 0.2-0.2 0.5-0.1 0.6 0.1 0.1 0.2 0 0.4-0.2 0.5-0.2 0.2-0.5 0.1-0.6-0.1z"/>
		<path id="Layer" class="s29" d="m31.6 71.9c-1.5-0.9-1.7-2.9-0.5-4.3 1.2-1.5 3.3-1.9 4.8-1 1.5 1 1.8 2.9 0.6 4.4-1.2 1.4-3.4 1.9-4.9 0.9z"/>
		<path id="Layer" class="s30" d="m35.3 68.2c-0.2-0.2-0.3-0.4-0.1-0.7 0.2-0.2 0.5-0.2 0.7-0.1 0.2 0.1 0.2 0.4 0 0.6-0.1 0.2-0.4 0.3-0.6 0.2z"/>
		<path id="Layer" class="s30" d="m33.2 68.7c-0.4 0-0.6-0.4-0.6-0.8 0.1-0.5 0.4-0.7 0.8-0.7 0.3 0.1 0.6 0.5 0.6 0.9-0.1 0.4-0.4 0.7-0.8 0.6z"/>
		<path id="Layer" class="s30" d="m32.7 70.6c-0.2-0.2 0-0.6 0.4-0.8 0.4-0.2 0.9-0.2 1.1 0.1 0.2 0.3 0 0.7-0.4 0.9-0.4 0.2-0.9 0.1-1.1-0.2z"/>
		<path id="Layer" class="s30" d="m35.2 69.4c0-0.2 0.2-0.3 0.4-0.3 0.3-0.1 0.5 0 0.6 0.2 0 0.2-0.2 0.3-0.4 0.4-0.3 0-0.5-0.1-0.6-0.3z"/>
		<path id="Layer" class="s30" d="m33.7 71.7c0-0.2 0.2-0.3 0.4-0.4 0.3 0 0.5 0.1 0.6 0.3 0 0.2-0.2 0.3-0.4 0.3-0.3 0.1-0.5 0-0.6-0.2z"/>
		<path id="Layer" class="s30" d="m31.9 69.8c-0.2 0-0.4-0.2-0.4-0.4-0.1-0.3 0.1-0.5 0.2-0.5 0.2 0 0.4 0.2 0.5 0.4 0 0.3-0.1 0.5-0.3 0.5z"/>
		<path id="Layer" fill-rule="evenodd" class="s31" d="m19.2 69.1c-0.4 0-0.7-0.3-0.7-0.7 0-0.4 0.3-0.7 0.7-0.7 0.4 0 0.7 0.3 0.7 0.7 0 0.4-0.3 0.7-0.7 0.7zm0-1.2c-0.3 0-0.5 0.2-0.5 0.5 0 0.3 0.2 0.5 0.5 0.5 0.3 0 0.5-0.2 0.5-0.5 0-0.3-0.2-0.5-0.5-0.5z"/>
		<path id="Layer" fill-rule="evenodd" class="s31" d="m11.7 71.8c-0.6 0-1-0.4-1-1 0-0.5 0.4-1 1-1 0.5 0 0.9 0.5 0.9 1 0 0.6-0.4 1-0.9 1zm0-1.7c-0.4 0-0.7 0.3-0.7 0.7 0 0.4 0.3 0.7 0.7 0.7 0.3 0 0.6-0.3 0.6-0.7 0-0.4-0.3-0.7-0.6-0.7z"/>
		<path id="Layer" fill-rule="evenodd" class="s31" d="m21.8 79.5c-0.5 0-1-0.4-1-1 0-0.5 0.5-1 1-1 0.6 0 1 0.5 1 1 0 0.6-0.4 1-1 1zm0-1.7c-0.4 0-0.7 0.4-0.7 0.7 0 0.4 0.3 0.7 0.7 0.7 0.4 0 0.7-0.3 0.7-0.7 0-0.3-0.3-0.7-0.7-0.7z"/>
		<path id="Layer" fill-rule="evenodd" class="s31" d="m12.9 63c-0.5 0-1-0.5-1-1 0-0.6 0.5-1 1-1 0.6 0 1 0.4 1 1 0 0.5-0.4 1-1 1zm0-1.7c-0.4 0-0.7 0.3-0.7 0.7 0 0.3 0.3 0.6 0.7 0.6 0.4 0 0.7-0.3 0.7-0.6 0-0.4-0.3-0.7-0.7-0.7z"/>
		<path id="Layer" fill-rule="evenodd" class="s31" d="m27.8 71c-0.6 0-1-0.5-1-1 0-0.6 0.4-1 1-1 0.5 0 1 0.4 1 1 0 0.5-0.5 1-1 1zm0-1.7c-0.4 0-0.7 0.3-0.7 0.7 0 0.3 0.3 0.7 0.7 0.7 0.4 0 0.7-0.4 0.7-0.7 0-0.4-0.3-0.7-0.7-0.7z"/>
		<path id="Layer" fill-rule="evenodd" class="s31" d="m33.4 76.2c-0.5 0-0.9-0.5-0.9-1 0-0.6 0.4-1 0.9-1 0.6 0 1 0.4 1 1 0 0.5-0.4 1-1 1zm0-1.7c-0.3 0-0.6 0.3-0.6 0.7 0 0.4 0.3 0.7 0.6 0.7 0.4 0 0.7-0.3 0.7-0.7 0-0.4-0.3-0.7-0.7-0.7z"/>
		<path id="Layer" fill-rule="evenodd" class="s31" d="m35.1 66.9c-0.5 0-1-0.4-1-1 0-0.5 0.5-1 1-1 0.5 0 1 0.5 1 1 0 0.6-0.5 1-1 1zm0-1.7c-0.4 0-0.7 0.4-0.7 0.7 0 0.4 0.3 0.7 0.7 0.7 0.4 0 0.7-0.3 0.7-0.7 0-0.4-0.3-0.7-0.7-0.7z"/>
		<path id="Layer" class="s32" d="m16.6 68.7c0 0-1.5 0.9-2.6 0.7-1-0.3-1.9-1.6-1.9-1.6 0 0 1.2-0.4 2.3-0.2 1.1 0.2 2.2 1.1 2.2 1.1z"/>
		<path id="Layer" class="s32" d="m20.3 64.5c0 0-1.5-0.7-1.9-1.7-0.4-1.1 0.3-2.5 0.3-2.5 0 0 1 0.8 1.4 1.8 0.4 1.1 0.2 2.4 0.2 2.4z"/>
		<path id="Layer" class="s32" d="m31.5 71.3c0 0-0.5 1.7-1.4 2.3-1 0.5-2.5 0.1-2.5 0.1 0 0 0.6-1.1 1.5-1.7 1-0.6 2.4-0.7 2.4-0.7z"/>
		<path id="Layer" class="s32" d="m20.2 71.7c0 0 0.2 2-0.5 3.2-0.8 1.2-2.5 1.8-2.5 1.8 0 0 0.2-1.5 0.9-2.7 0.8-1.2 2.1-2.3 2.1-2.3z"/>
		<path id="Layer" class="s33" d="m48.5 46.6c0 0-4.6 7.2-14 14-5.8 4.1-9.3 10.3-9.7 11l-0.1-0.1-0.5-0.6c0.1 0 0.1-0.3 0.1-0.6-0.7-3.1-2-10.7 0.8-18.4 3.3-8.9 5.1-18.2 5.1-18.2 0 0 3.1-0.5 7 1.4 3.9 1.9 11.3 11.5 11.3 11.5z"/>
		<path id="Layer" class="s17" d="m48 45.8c0 0-4.6 7.2-14.1 14-6.1 4.4-9.7 11.1-9.7 11.1 0 0-0.2-0.6-0.5-1.8-0.8-3.4-1.8-10.6 0.9-17.9 3.3-9 5-18.3 5-18.3 0 0 3.2-0.5 7.1 1.4q0 0 0 0c3.9 2 11.3 11.5 11.3 11.5z"/>
		<path id="Layer" class="s27" d="m46.8 45.1c0 0-4.6 7.2-14 14-4.6 3.2-7.8 7.9-9.1 10-0.8-3.4-1.8-10.6 0.9-17.9 3.3-9 5-18.3 5-18.3 0 0 3.2-0.5 7.1 1.4q0 0 0 0c4.1 3 10.1 10.8 10.1 10.8z"/>
		<path id="Layer" class="s34" d="m22.9 67.5c0.7 4.3 2.4 6.5 2.6 2.9 0.1-0.9 0.5-5.6 2.8-8.7 2.3-3 6.9-4.8 11.6-10.4 4.8-5.6 2.5-10.1-0.2-10.1-2.6 0-5.3-1-6.1-3-0.9-2-4.5-5.3-5.5-1.3-0.6 2.3-0.2 7.8-2 11.7-3.4 7.4-3.9 14.5-3.2 18.9z"/>
		<path id="Layer" class="s17" d="m28.7 31.3c1.1-0.4 2.6-0.3 3.7-0.2q2 0.2 3.9 1c3.8 1.5 7 4.4 9.8 7.3 1 1.1 2.1 2.2 2.9 3.4 0.6 0.9 1.1 1.8 1.3 2.8 0.5 2.3-1.9 3.9-3.8 2-0.5-0.4-0.8-1-1.1-1.6q-0.4-0.9-1-1.7-1-1.3-2.2-2.4c-1.1-1.1-2.3-2.2-3.6-3q-0.6-0.3-1.2-0.7c-1.6-0.7-3.3-1.3-5-1.9q-1.2-0.5-2.5-1c-0.5-0.2-0.9-0.3-1.4-0.6-1.4-0.7-1.8-2.6-0.1-3.3q0.2-0.1 0.3-0.1z"/>
		<path id="Layer" class="s33" d="m50.3 46.3c-0.1 1.5-1.2 2.6-2.4 2.5-1.3 0-2.3-1.3-2.2-2.8 0.1-1.5 1.2-2.7 2.5-2.6 1.3 0.1 2.2 1.4 2.1 2.9z"/>
		<path id="Layer" class="s35" d="m25 51.2c0 0.2-2.2 7.5-1.3 8.1 0.9 0.7 0.8-3.2 1.5-2.6 0.5 0.4-0.7 5.2 0.1 5.4 0.7 0.3 1.7-3.4 1.9-1.7 0.1 0.9-0.9 3.9-0.8 5.4 0.1 2.1 2.2-4 4.1-6.3 1.8-2.1 5.6-5.4 7.1-7.2 1.5-1.7 0.4-3.2-2.4-2.8-2.5 0.3-5.2-0.6-5.5-5.8-0.3-5.1-1.7-5.6-2.4-3.2-0.8 2.3-2.3 10.7-2.3 10.7z"/>
		<path id="Layer" class="s29" d="m40 51c1.2 2 0.2 4.9-2.3 6.5-2.5 1.5-5.5 1.1-6.8-0.9-1.2-2-0.2-4.9 2.3-6.5 2.5-1.5 5.5-1.1 6.8 0.9z"/>
		<path id="Layer" class="s30" d="m32.8 54.8c0.2 0.2 0 0.6-0.3 0.9-0.4 0.2-0.8 0.1-1-0.1-0.2-0.3 0-0.7 0.3-0.9 0.4-0.2 0.8-0.2 1 0.1z"/>
		<path id="Layer" class="s30" d="m35.8 54.9c0.4 0.2 0.5 0.9 0.1 1.5-0.3 0.5-0.9 0.8-1.4 0.5-0.4-0.2-0.5-0.9-0.1-1.5 0.3-0.5 1-0.8 1.4-0.5z"/>
		<path id="Layer" class="s30" d="m37.8 52.3c0 0.5-0.4 1-1.1 1.1-0.7 0.1-1.3-0.2-1.3-0.7-0.1-0.5 0.4-1 1-1.1 0.7-0.1 1.3 0.2 1.4 0.7z"/>
		<path id="Layer" class="s30" d="m33.7 53c-0.1 0.2-0.4 0.4-0.8 0.3-0.3-0.1-0.5-0.4-0.5-0.6 0.1-0.3 0.4-0.4 0.8-0.3 0.3 0 0.5 0.3 0.5 0.6z"/>
		<path id="Layer" class="s30" d="m37.2 50.4c-0.1 0.2-0.4 0.4-0.8 0.3-0.3-0.1-0.5-0.4-0.5-0.6 0.1-0.3 0.4-0.4 0.8-0.3 0.3 0 0.5 0.3 0.5 0.6z"/>
		<path id="Layer" class="s30" d="m38.2 54c0.2 0.1 0.4 0.4 0.2 0.7-0.1 0.4-0.4 0.6-0.6 0.5-0.3-0.1-0.4-0.4-0.3-0.8 0.2-0.3 0.4-0.5 0.7-0.4z"/>
		<path id="Layer" class="s29" d="m30.3 49.2c-2 0.5-4.1-1.1-4.7-3.6-0.6-2.4 0.6-4.8 2.5-5.3 2-0.4 4.1 1.2 4.7 3.6 0.6 2.5-0.6 4.8-2.5 5.3z"/>
		<path id="Layer" class="s30" d="m29.1 42.4c-0.2 0-0.5-0.2-0.6-0.6-0.1-0.3 0.1-0.7 0.3-0.7 0.3-0.1 0.6 0.2 0.7 0.5 0 0.4-0.1 0.7-0.4 0.8z"/>
		<path id="Layer" class="s30" d="m28.2 44.8c-0.3 0.2-0.8 0.1-1.2-0.3-0.4-0.5-0.4-1-0.1-1.3 0.3-0.3 0.9-0.2 1.2 0.3 0.4 0.4 0.5 1 0.1 1.3z"/>
		<path id="Layer" class="s30" d="m29.8 47c-0.5 0-0.7-0.6-0.6-1.1 0.1-0.6 0.5-1 0.9-0.9 0.4 0.1 0.7 0.6 0.6 1.2-0.1 0.5-0.5 0.9-0.9 0.8z"/>
		<path id="Layer" class="s30" d="m30.3 43.6c-0.1-0.2-0.2-0.5 0-0.7 0.1-0.3 0.4-0.4 0.6-0.3 0.2 0.1 0.2 0.4 0.1 0.7-0.2 0.3-0.5 0.4-0.7 0.3z"/>
		<path id="Layer" class="s30" d="m31.5 47.1c-0.2-0.1-0.2-0.4-0.1-0.7 0.2-0.2 0.5-0.4 0.7-0.2 0.2 0.1 0.2 0.4 0 0.6-0.1 0.3-0.4 0.4-0.6 0.3z"/>
		<path id="Layer" class="s30" d="m28.3 46.9c-0.1 0.2-0.4 0.2-0.7 0-0.2-0.1-0.3-0.4-0.2-0.6 0.1-0.2 0.5-0.2 0.7 0 0.2 0.2 0.3 0.5 0.2 0.6z"/>
		<path id="Layer" class="s32" d="m25.4 57.6c0 0 1.1 2.1 0.6 3.5-0.4 1.4-2.3 2.4-2.3 2.4 0 0-0.4-1.7 0-3.1 0.4-1.4 1.7-2.8 1.7-2.8z"/>
		<path id="Layer" class="s32" d="m44 45.1c0 0-1.5 1.7-3 1.9-1.5 0.1-3.1-1.3-3.1-1.3 0 0 1.4-1 2.9-1.2 1.5-0.1 3.2 0.6 3.2 0.6z"/>
		<path id="Layer" fill-rule="evenodd" class="s31" d="m26.1 54.6c-0.8 0-1.4-0.7-1.4-1.6-0.1-1 0.5-1.7 1.2-1.8 0.8 0 1.4 0.7 1.5 1.6 0 0.9-0.5 1.7-1.3 1.8q0 0 0 0zm-0.1-2.9q0 0-0.1 0c-0.4 0-0.8 0.6-0.8 1.2 0.1 0.7 0.5 1.2 1 1.2 0.5 0 0.9-0.6 0.8-1.3 0-0.6-0.4-1.1-0.9-1.1z"/>
		<path id="Layer" fill-rule="evenodd" class="s31" d="m35.3 44.1c-1.1 0-2-0.9-2-2 0-1 0.9-1.9 2-1.9 1 0 1.9 0.9 1.9 1.9 0 1.1-0.9 2-1.9 2zm0-3.3c-0.8 0-1.4 0.6-1.4 1.3 0 0.8 0.6 1.4 1.4 1.4 0.7 0 1.3-0.6 1.3-1.4 0-0.7-0.6-1.3-1.3-1.3z"/>
		<path id="Layer" fill-rule="evenodd" class="s31" d="m40.8 50.1c-0.9 0-1.7-0.7-1.7-1.7 0-0.9 0.8-1.7 1.7-1.7 0.9 0 1.7 0.8 1.7 1.7 0 1-0.8 1.7-1.7 1.7zm0-2.8c-0.7 0-1.2 0.5-1.2 1.1 0 0.7 0.5 1.2 1.2 1.2 0.6 0 1.2-0.5 1.2-1.2 0-0.6-0.6-1.1-1.2-1.1z"/>
		<path id="Layer" fill-rule="evenodd" class="s31" d="m27 62.7q-0.2 0-0.5-0.1c-0.2-0.2-0.4-0.5-0.4-0.9 0-0.4 0.2-0.8 0.4-1.1 0.5-0.8 1.3-1.1 1.9-0.8 0.5 0.4 0.5 1.3 0 2.1-0.2 0.3-0.5 0.6-0.9 0.7q-0.2 0.1-0.5 0.1zm0.9-2.6c-0.4 0-0.8 0.3-1.1 0.7q-0.2 0.5-0.3 0.9c0 0.2 0.1 0.4 0.3 0.5 0.2 0.2 0.4 0.1 0.6 0q0.4-0.1 0.7-0.6c0.3-0.5 0.3-1.2 0-1.4q-0.1-0.1-0.2-0.1z"/>
		<path id="Layer" class="s25" d="m21.9 82.1c0.3-0.1 0.6-0.1 0.9-0.3q0.4-0.2 0.8-0.5 0.4-0.3 0.7-0.7 0.3-0.4 0.6-0.9l0.5 0.2q-0.2 0.6-0.4 1.1-0.3 0.6-0.7 1-0.3 0.5-0.9 0.9c-0.3 0.3-0.7 0.5-1.1 0.7z"/>
		<path id="Layer" class="s36" d="m23.7 82.1c1.2 1.2-2.3 5.3-8.2 4.9-5.8-0.5-9.1-4.5-8.4-5 0.6-0.5 4.2 1.1 8.2 0.6 3.9-0.3 7.3-1.8 8.4-0.5z"/>
		<path id="Layer" class="s1" d="m201.3 66.3c0-0.4-0.3-0.8-0.8-0.8q0 0 0 0h-8.1-26.8l26.7 1.2 8.2 0.4c0.4 0 0.8-0.3 0.8-0.8z"/>
		<path id="Layer" class="s37" d="m201.3 66.3c0-0.4-0.3-0.8-0.8-0.8q0 0 0 0h-8.1q-0.1 0.6-0.1 1.2l8.2 0.4c0.4 0 0.8-0.3 0.8-0.8z"/>
		<path id="Layer" class="s38" d="m162.8 61q0.8 0.2 1.5 0.6 0.7 0.3 1.3 0.7c0.9 0.6 1.7 1.3 2.4 2.2 0.3 0.4 0.6 1 0.7 1.6 0.2 0.6 0.2 1.2 0.1 1.9-0.1 0.6-0.3 1.2-0.7 1.7-0.3 0.5-0.7 1-1 1.4-0.8 0.8-1.6 1.4-2.5 2.1q-1.2 0.9-2.4 1.8c-1.6 1.1-3.1 2.3-4.2 3.6-0.5 0.7-0.9 1.3-1.1 1.9-0.2 0.7-0.2 1.2 0 1.9 0.2 0.6 0.6 1.2 1.1 1.8q0.6 0.8 1.6 1.3 1 0.5 2.3 0.9c0.9 0.3 1.8 0.5 2.8 0.9q0.8 0.2 1.7 0.6c0.6 0.3 1.3 0.6 2 1.2 0.7 0.5 1.4 1.3 1.8 2.3 0.4 1 0.5 1.9 0.5 2.8l-6.6-0.3c0.1-0.1 0.1-0.2 0.1-0.1 0.1 0 0.1 0 0.1-0.1-0.1-0.1-0.3-0.3-0.6-0.5q-0.4-0.2-1-0.5c-1.7-0.8-3.9-1.6-5.9-3-1-0.8-1.9-1.7-2.6-2.8q-0.5-0.9-0.9-1.7-0.4-0.9-0.6-1.9c-0.2-1.4 0-2.9 0.5-4.1 0.5-1.3 1.3-2.3 2.1-3.1 1.7-1.6 3.5-2.7 5.2-3.7 1.7-1.1 3.5-2 4.9-3.1q0.6-0.4 0.9-0.8 0.4-0.5 0.6-1c0.3-0.7 0.2-1.5-0.2-2.3-0.3-0.8-0.9-1.6-1.6-2.3q-1-1-2.3-1.9z"/>
		<path id="Layer" class="s39" d="m170 92.3c-1.5 2.8-3.1 4.9-3.7 4.6-0.5-0.3 0.3-2.8 1.8-5.7 1.5-2.8 3.1-4.9 3.7-4.6 0.5 0.3-0.3 2.8-1.8 5.7z"/>
		<path id="Layer" class="s36" d="m159.5 102.1l-0.2-0.9c2.2-0.5 3.5-3.3 2.9-6.3-0.5-3.2-3-5.5-5.4-5.1q-0.1 0-0.3 0l-0.2-0.8q0.2-0.1 0.4-0.1c2.9-0.4 5.7 2.2 6.4 5.9 0.6 3.4-0.9 6.6-3.6 7.3z"/>
		<path id="Layer" class="s22" d="m172.4 99.7c-0.1 1.1-0.5 2.2-1 3.3-1.8 3.4-5 5.2-7.3 4q-0.5-0.2-0.8-0.6c-2.9 1.1-6.7-1.3-8.7-5.5q0 0 0 0c-0.6-1.5-1-3-1.1-4.4-0.2-2.7 0.8-5.1 2.7-6 0.9-0.4 1.9-0.4 2.9-0.2 0.7 0.1 1.4-0.1 1.8-0.7 2.2-2.9 5.6-4.3 8.1-2.9 2.3 1.1 3.2 4.1 2.5 7.3-0.1 0.7 0 1.4 0.3 2.1q0.2 0.3 0.4 0.7c0.3 0.9 0.3 1.9 0.2 2.9z"/>
		<path id="Layer" class="s40" d="m157.3 104.7q-0.1 0-0.1 0c-0.8-0.7-4.4-7.2-0.9-11.8 1.2-1.7 3.2-2.2 5.2-1.2 3.1 1.6 5.3 6.2 3.6 12 0 0.1-0.1 0.1-0.2 0.1 0 0-0.1-0.1-0.1-0.2 1.6-5.7-0.5-10.1-3.4-11.6-1.9-0.9-3.7-0.5-4.9 1.1-3.3 4.4 0.2 10.7 0.9 11.3 0 0.1 0 0.2 0 0.3q-0.1 0-0.1 0z"/>
		<path id="Layer" class="s40" d="m169.6 105.7q0 0-0.1 0c0-0.1-0.1-0.1-0.1-0.2 0-0.1 0.1-0.3 0.2-0.8 0.5-2 1.9-7.5 0.1-10.5q-0.8-1.4-2.6-1.8c-3.5-0.8-5.6 2-6.3 3.2-1.7 2.7-1.8 6.1-0.4 7.7 0 0.1 0 0.2 0 0.3-0.1 0-0.2 0-0.3-0.1-1.5-1.7-1.3-5.3 0.4-8.1 1.6-2.7 4.1-3.9 6.7-3.3q1.9 0.4 2.8 2c1.9 3 0.4 8.6-0.1 10.7-0.1 0.4-0.2 0.6-0.2 0.7 0 0.1-0.1 0.2-0.1 0.2z"/>
		<path id="Layer" class="s40" d="m163.6 102.4c-1.3 0-2.3-0.4-2.3-0.4-0.1-0.1-0.1-0.2-0.1-0.3 0 0 0.1-0.1 0.2 0 0 0 2.2 0.9 4.1-0.1q1.9-0.9 2.6-3.4c0.9-2.9 0.8-5-0.3-6.7-1.1-1.7-3.3-2.8-6.7-3.4-2.8-0.4-5-1.8-5.8-3.9-0.8-1.7-0.5-3.6 0.6-5.2 0.6-0.8 2.2-1.9 4-3.2 3.5-2.6 8.4-6.1 8.1-9.5-0.2-1.8-1.9-3.4-5-4.8-0.1 0-0.1-0.1-0.1-0.2 0.1-0.1 0.2-0.1 0.2-0.1 3.3 1.5 5 3.2 5.2 5.1 0.4 3.5-4.4 7-8.3 9.8-1.7 1.2-3.3 2.3-3.8 3.1-1.1 1.5-1.3 3.3-0.6 4.9 0.8 1.9 2.8 3.3 5.6 3.7 3.5 0.6 5.7 1.7 6.9 3.6 1.1 1.7 1.2 3.9 0.3 6.8q-0.8 2.8-2.7 3.7c-0.7 0.4-1.5 0.5-2.1 0.5z"/>
		<path id="Layer" class="s40" d="m162.1 102.4c-1.2 0-2.2-0.4-2.3-0.5 0 0-0.1-0.1 0-0.2 0-0.1 0.1-0.1 0.2-0.1 0 0 2.2 0.9 4.1 0q1.8-0.9 2.6-3.5c0.7-2.3 0.7-4-0.1-5.2-1-1.7-3.6-2.6-7.4-3.4-2.4-0.6-4.4-2.3-5.3-4.7-0.9-2.3-0.7-4.8 0.5-6.3 1.4-2 4-3.4 6.4-4.8 2.5-1.4 5.1-2.8 6.5-4.7 0.1-0.1 0.2-0.1 0.3-0.1 0 0.1 0 0.2 0 0.3-1.5 1.9-4.1 3.4-6.6 4.8-2.4 1.4-5 2.8-6.4 4.7-1 1.4-1.2 3.8-0.4 6 0.9 2.3 2.7 3.9 5.1 4.4 3.9 0.9 6.5 1.8 7.6 3.7 0.8 1.3 0.8 3 0.1 5.4q-0.8 2.8-2.7 3.7c-0.8 0.3-1.5 0.5-2.2 0.5z"/>
		<path id="Layer" class="s40" d="m169.8 101.9q0 0-0.1 0c-0.1-0.1-0.1-0.2 0-0.3 1-1.3 0.7-2.1 0.2-3.1-0.3-0.9-0.8-1.9-0.5-3.4 0.5-2.7 0.5-6.2-2.6-7.4-1.8-0.7-2.9 0.7-4.3 2.6-0.8 1-1.7 2.2-2.8 3.2q-1.6 1.4-1.6 3.6c0.1 1.7 0.9 3.1 1.1 3.3q0.1 0 0 0.1c0 0.1-0.1 0.2-0.2 0.2-0.2-0.1-0.7-1.2-1-2.1-0.3-1.3-0.5-3.6 1.5-5.3 1.1-1 2-2.2 2.7-3.2 1.4-1.9 2.6-3.5 4.7-2.7 2.6 1 3.6 3.8 2.8 7.8-0.2 1.4 0.2 2.3 0.5 3.1 0.5 1.1 0.9 2-0.3 3.5q0 0.1-0.1 0.1z"/>
		<path id="Layer" class="s39" d="m162.9 96.8c1.8 2.7 2.8 5.2 2.3 5.5-0.5 0.4-2.4-1.6-4.1-4.3-1.8-2.7-2.8-5.1-2.3-5.5 0.5-0.3 2.4 1.6 4.1 4.3z"/>
		<path id="Layer" class="s27" d="m160.8 102.2l-4.7-4.7q0-0.1 0.1-0.2c1-0.9 2.9-0.5 4.1 0.8 1.2 1.4 1.4 3.1 0.5 4.1z"/>
		<path id="Layer" class="s36" d="m166.6 101.1c-1.4-1.3-1.1-3.7 0.5-5.4 1.8-1.8 4.4-2.2 6-1q0.1 0.1 0.2 0.2l-0.6 0.7q-0.1-0.1-0.2-0.2c-1.2-1-3.3-0.6-4.7 0.9-1.4 1.4-1.6 3.2-0.6 4.2z"/>
		<path id="Layer" class="s1" d="m172.4 99.7l-3.7 1.1-8.2 0.4-5.9-0.3q0 0 0 0c-0.6-1.5-1-3-1.1-4.4 0 0.2 2.3 3 9.7 3 6.6 0 8.6-2.2 9-2.7 0.3 0.9 0.3 1.9 0.2 2.9z"/>
		<path id="Layer" class="s41" d="m172.7 98.4l-0.5 4.5-0.4 3.7-1.5 12.9h-14.5l-1.7-14.8-0.7-6.3z"/>
		<path id="Layer" class="s1" d="m172.2 102.9l-0.4 3.7c-4.1-0.4-17.3-1.9-17.7-1.9l9.5-1.3z"/>
		<path id="Layer" class="s42" d="m174.1 104.7h-22.1l1.4-6.3h19.3z"/>
		<path id="Layer" class="s37" d="m166.6 115.2c1.9-1.9 1.9-5 0-7-2-1.9-5.1-1.9-7 0-2 2-2 5.1 0 7 1.9 2 5 2 7 0z"/>
		<path id="Layer" class="s1" d="m186.9 93.6c-0.4 0.3-0.9 0.2-1.1-0.1q0 0 0 0l-4.9-6.6-15.9-21.5 16.9 20.8 5.1 6.3c0.3 0.3 0.2 0.8-0.1 1.1z"/>
		<path id="Layer" class="s37" d="m186.9 93.6c-0.4 0.3-0.8 0.2-1.1-0.1q0 0 0 0l-4.9-6.6q0.5-0.4 1-0.7l5.1 6.3c0.3 0.3 0.2 0.8-0.1 1.1z"/>
	</g>
</svg>