<svg xmlns="http://www.w3.org/2000/svg" fill="none" viewBox="60.55 92.36 387.59 322.88">
<path d="M354.466 143.525C334.547 123.607 310.548 110.256 285.158 103.474C243.97 92.4705 199.124 98.7537 162.111 122.323M92.037 230.468C88.3202 255.966 90.9767 282.214 100.007 306.64M212.893 404.21C251.884 412.469 293.448 405.547 328.127 383.442M376.857 333.984C388.765 314.668 396.032 293.302 398.657 271.484" stroke="#FEBFAB" stroke-width="11.7188" stroke-linecap="round"/>
<circle cx="245.988" cy="227.539" r="24.4141" stroke="#DFDFDF" stroke-width="13.6719"/>
<path d="M202.043 300.781V300.781C202.043 284.601 215.16 271.484 231.34 271.484H260.637C276.817 271.484 289.934 284.601 289.934 300.781V300.781" stroke="#DFDFDF" stroke-width="13.6719" stroke-linecap="round"/>
<circle cx="139.104" cy="333.791" r="25.1977" stroke="#C0BEBC" stroke-width="11.7214"/>
<path d="M93.75 409.385V409.385C93.75 392.685 107.288 379.147 123.987 379.147H154.224C170.924 379.147 184.462 392.685 184.462 409.385V409.385" stroke="#C0BEBC" stroke-width="11.7214" stroke-linecap="round"/>
<circle cx="111.76" cy="130.666" r="25.1977" stroke="#C0BEBC" stroke-width="11.7214"/>
<path d="M66.4062 206.26V206.26C66.4062 189.56 79.9439 176.022 96.6435 176.022H126.881C143.58 176.022 157.118 189.56 157.118 206.26V206.26" stroke="#C0BEBC" stroke-width="11.7214" stroke-linecap="round"/>
<circle cx="396.916" cy="189.26" r="25.1977" stroke="#C0BEBC" stroke-width="11.7214"/>
<path d="M351.562 264.853V264.853C351.562 248.154 365.1 234.616 381.8 234.616H412.037C428.737 234.616 442.274 248.154 442.274 264.853V264.853" stroke="#C0BEBC" stroke-width="11.7214" stroke-linecap="round"/>
<path fill-rule="evenodd" clip-rule="evenodd" d="M329.435 169.56C283.383 123.509 208.719 123.509 162.668 169.56C116.616 215.612 116.616 290.276 162.668 336.328C205.348 379.008 272.606 382.132 318.885 345.7L383.836 410.651C389.427 416.243 398.492 416.243 404.083 410.651C409.675 405.06 409.675 395.995 404.083 390.404L339.093 325.413C375.223 279.147 372.004 212.129 329.435 169.56ZM182.003 188.895C217.376 153.522 274.727 153.522 310.1 188.895C345.473 224.268 345.473 281.62 310.1 316.993C274.727 352.366 217.376 352.366 182.003 316.993C146.629 281.62 146.629 224.268 182.003 188.895Z" fill="#FF5833"/>
</svg>