<svg version="1.2" xmlns="http://www.w3.org/2000/svg" viewBox="0 0 372 353" width="372" height="353">
	<title>NoIntegrations-svg</title>
	<style>
		.s0 { fill: #e0e0e0 } 
		.s1 { fill: #ffffff } 
		.s2 { fill: #ebebeb } 
		.s3 { fill: #263238 } 
		.s4 { fill: #455a64 } 
		.s5 { fill: #ff725e } 
		.s6 { fill: #000000 } 
		.s7 { fill: #f5f5f5 } 
		.s8 { fill: #ff5833 } 
		.s9 { fill: #ff5833;stroke: #ffffff;stroke-width: 4 } 
	</style>
	<path id="Layer" class="s0" d="m59.8 24.1h-26.1c-5.6 0-10.1 4.6-10.1 10.2v26.1c0 5.6 4.5 10.1 10.1 10.1h26.1c5.6 0 10.2-4.5 10.2-10.1v-26.1c0-5.6-4.6-10.2-10.2-10.2z"/>
	<path id="Layer" fill-rule="evenodd" class="s1" d="m36 58.6l1.7-6.3c-1.4-2.5-1.8-5.4-1.2-8.1 0.5-2.8 2.1-5.2 4.3-7 2.3-1.7 5.1-2.5 7.9-2.3 2.8 0.2 5.5 1.4 7.5 3.3 2 2 3.2 4.7 3.4 7.5 0.2 2.8-0.6 5.6-2.3 7.9-1.6 2.2-4.1 3.8-6.8 4.4-2.8 0.6-5.7 0.2-8.2-1.1zm6.7-4.1l0.4 0.3c2 1.1 4.3 1.6 6.6 1.1 2.3-0.4 4.3-1.6 5.7-3.5 1.4-1.8 2.1-4.1 2-6.4-0.2-2.3-1.2-4.5-2.8-6.1-1.6-1.6-3.8-2.6-6.1-2.7-2.3-0.2-4.6 0.6-6.4 2-1.8 1.4-3.1 3.5-3.5 5.8-0.4 2.2 0 4.6 1.3 6.5l0.2 0.4-1 3.6z"/>
	<path id="Layer" fill-rule="evenodd" class="s1" d="m52 48.3q-0.4-0.2-0.8-0.3-0.4-0.1-0.9 0c-0.4 0.1-0.7 0.8-1 1.2q-0.1 0.1-0.2 0.1-0.2 0.1-0.3 0c-1.6-0.6-2.9-1.8-3.8-3.2q-0.1-0.2-0.1-0.4 0-0.2 0.2-0.3c0.4-0.2 0.6-0.6 0.7-1.1 0.1-0.5 0-0.9-0.3-1.3-0.2-0.6-0.5-1.1-1-1.5q-0.4-0.1-0.8-0.1-0.3 0.1-0.6 0.4-0.5 0.4-0.8 1-0.3 0.6-0.2 1.3 0 0.4 0.1 0.7 0.2 0.9 0.7 1.7c0.9 1.6 2.3 3 3.9 4.1q0.9 0.5 2 0.9c0.7 0.3 1.5 0.5 2.3 0.4q0.7-0.1 1.3-0.6 0.5-0.4 0.8-1 0.2-0.4 0.1-0.8c-0.1-0.6-0.8-0.9-1.3-1.2z"/>
	<path id="Layer" fill-rule="evenodd" class="s2" d="m333.9 313.9q1.8-1.1 3.8-1.6l0.8-3.8 6.3-0.1 1 3.7q2 0.5 3.8 1.5l3.2-2.1 4.6 4.4-2 3.3q1.1 1.8 1.7 3.8l3.7 0.8 0.1 6.4-3.7 0.9q-0.5 2-1.5 3.9l2.1 3.2-4.4 4.5-3.3-2q-1.8 1.1-3.8 1.7l-0.8 3.8-6.4 0.1-0.9-3.8q-2-0.5-3.8-1.5l-3.3 2.1-4.5-4.4 2-3.3q-1.1-1.8-1.7-3.8l-3.7-0.8-0.2-6.3 3.8-0.9q0.5-2.1 1.5-3.9l-2.1-3.2 4.4-4.6zm3.4 8.5c-0.9 1-1.6 2.2-1.8 3.5-0.2 1.3-0.1 2.7 0.4 3.9 0.6 1.3 1.5 2.3 2.6 3.1 1.1 0.7 2.5 1.1 3.8 1 1.4 0 2.7-0.4 3.8-1.2 1.1-0.8 2-1.8 2.4-3.1 0.5-1.2 0.7-2.6 0.4-3.9-0.3-1.3-1-2.6-2-3.5-1.3-1.2-3-1.9-4.8-1.9-1.8 0-3.6 0.8-4.8 2.1z"/>
	<path id="Layer" fill-rule="evenodd" class="s2" d="m24.7 174.9c2.3-1.4 4.7-2.4 7.2-3.1l1.5-7.1 12-0.2 1.7 7c2.6 0.6 5 1.6 7.3 2.9l6.1-4 8.6 8.3-3.7 6.2c1.3 2.2 2.4 4.7 3.1 7.2l7.1 1.5 0.2 12-7 1.7c-0.6 2.5-1.6 5-2.9 7.3l4 6.1-8.4 8.7-6.2-3.8c-2.2 1.4-4.6 2.4-7.2 3.1l-1.4 7.1-12 0.2-1.8-7c-2.5-0.6-5-1.6-7.3-2.8l-6 4-8.7-8.5 3.8-6.2c-1.4-2.2-2.4-4.6-3.1-7.1l-7.1-1.5-0.2-12 7-1.8c0.6-2.5 1.6-4.9 2.8-7.2l-4-6.1 8.4-8.6 6.2 3.7zm6.4 16c-1.8 1.9-3 4.2-3.4 6.7-0.5 2.5-0.2 5.1 0.8 7.4 1 2.3 2.7 4.3 4.9 5.7 2.1 1.4 4.6 2.1 7.2 2 2.5 0 5-0.8 7.1-2.3 2.1-1.4 3.7-3.4 4.6-5.8 1-2.4 1.2-5 0.6-7.5-0.5-2.5-1.8-4.7-3.6-6.5-2.5-2.4-5.8-3.7-9.2-3.6-3.4 0-6.6 1.5-9 3.9z"/>
	<path id="Layer" class="s2" d="m31.1 190.9q1.1-1.3 2.4-2.1c2.5-1.6 5.5-2.3 8.4-2 2.2 0.2 4.3 1 6.1 2.3 1.8 1.2 3.3 2.9 4.3 4.9q0.8 1.7 1.1 3.6 0.4 2 0.1 4c-0.3 2.8-1.6 5.4-3.6 7.5-1.9 2-4.5 3.3-7.3 3.8q-2 0.4-4 0.1-1.9-0.3-3.6-1c-2.2-1-4-2.5-5.4-4.5-1.2-1.6-1.9-3.6-2.2-5.6-0.4-3 0.2-6 1.7-8.5q0.8-1.4 2-2.5c0.1 0-0.7 0.8-1.7 2.6-1.4 2.5-1.9 5.4-1.5 8.2 0.4 2.1 1.2 4.1 2.5 5.7 1.3 1.7 3 3 4.9 3.9 2.2 1 4.8 1.3 7.2 0.9 2.6-0.5 5-1.8 6.9-3.7 1.8-1.9 3-4.3 3.4-7q0.3-1.9-0.1-3.7-0.3-1.8-1-3.4c-0.8-1.6-1.9-3-3.3-4.2-1.3-1.1-2.9-2-4.6-2.5-1.7-0.5-3.4-0.6-5.2-0.4-1.7 0.3-3.4 0.8-4.9 1.8-1.8 1-2.5 1.9-2.6 1.8z"/>
	<path id="Layer" class="s2" d="m24.7 174.9l-0.4-0.2-1.2-0.7-4.6-2.8h0.1l-8.3 8.7v-0.2l4 6 0.1 0.2v0.1c-1.3 2.2-2.3 4.7-2.9 7.2v0.1h-0.1l-7 1.8 0.2-0.3q0.1 5.7 0.2 12l-0.2-0.2 7.1 1.4h0.2v0.2c0.7 2.5 1.7 4.9 3 7.2l0.1 0.1-0.1 0.2-3.7 6.2v-0.4c2.7 2.6 5.6 5.4 8.6 8.3h-0.4l6.1-4 0.1-0.1 0.2 0.1c2.3 1.3 4.7 2.2 7.2 2.8h0.2v0.2c0.6 2.3 1.2 4.7 1.8 7.1l-0.4-0.3 12-0.2-0.3 0.3c0.4-2.3 1-4.7 1.4-7.1v-0.2l0.3-0.1c2.4-0.7 4.8-1.7 7-3.1l0.2-0.1 0.2 0.1 6.2 3.8h-0.4l8.3-8.6v0.4l-4-6-0.1-0.2 0.1-0.2c1.3-2.3 2.2-4.7 2.8-7.2v-0.2l0.2-0.1 7-1.7-0.2 0.4q-0.1-6.2-0.2-12l0.2 0.3-7.1-1.5h-0.2v-0.2c-0.7-2.5-1.7-4.9-3-7.1l-0.1-0.2 0.1-0.1q1.9-3.2 3.7-6.2v0.3l-8.6-8.3h0.4l-6.1 4-0.1 0.1-0.2-0.1c-2.2-1.3-4.7-2.2-7.2-2.9h-0.1v-0.1l-1.7-7 0.2 0.2-12 0.1 0.1-0.1c-0.6 2.8-1.1 5.1-1.5 7.1v0.1q-2.9 0.8-5.5 2.1l-1.3 0.6q-0.2 0.2-0.5 0.3 0.2-0.2 0.4-0.3 0.5-0.3 1.3-0.7 2.7-1.5 5.6-2.3v0.1c0.3-2 0.8-4.3 1.4-7.2v-0.1h0.1l12-0.2h0.2v0.1c0.5 2.2 1.1 4.5 1.7 7l-0.1-0.2c2.5 0.7 5 1.6 7.3 2.9h-0.3l6.1-4 0.2-0.1 0.2 0.2 8.6 8.3 0.2 0.1-0.2 0.2-3.7 6.3v-0.3c1.4 2.2 2.5 4.7 3.2 7.2l-0.3-0.2 7.2 1.5h0.2v0.3q0.1 5.8 0.2 12v0.2l-0.2 0.1-7 1.7 0.2-0.2c-0.6 2.5-1.6 5-2.9 7.3v-0.3l4 6 0.2 0.3-0.2 0.2-8.3 8.6-0.2 0.2-0.3-0.1-6.2-3.8h0.4c-2.3 1.4-4.7 2.5-7.3 3.2l0.3-0.3c-0.5 2.4-1 4.9-1.5 7.1l-0.1 0.3h-0.3l-12 0.2h-0.2l-0.1-0.3c-0.6-2.4-1.2-4.8-1.7-7l0.2 0.2c-2.6-0.6-5-1.6-7.4-2.9h0.4l-6 4-0.3 0.2-0.2-0.2-8.6-8.3-0.2-0.2 0.1-0.2 3.7-6.2v0.3c-1.3-2.3-2.4-4.7-3.1-7.3l0.2 0.3-7.1-1.5h-0.2v-0.3q-0.1-6.3-0.2-12v-0.2h0.2l7.1-1.8-0.2 0.2c0.6-2.5 1.6-5 2.9-7.3v0.2c-1.4-2.2-2.8-4.2-4-6.1l-0.1-0.2h0.1l8.4-8.6 0.1-0.1h0.1l4.5 2.9 1.2 0.7q0.2 0.2 0.4 0.3z"/>
	<path id="Layer" fill-rule="evenodd" class="s2" d="m53.6 130.5q0 0 0 0zm3.8-1.6l0.7-3.8 6.4-0.1 0.9 3.7q2.1 0.5 3.9 1.5l3.2-2.1 4.6 4.5-2 3.2q1 1.8 1.6 3.8l3.8 0.8 0.1 6.4-3.7 0.9q-0.5 2-1.6 3.9l2.1 3.2-4.4 4.6-3.2-2q-1.8 1-3.9 1.6l-0.7 3.8-6.4 0.1-0.9-3.7q-2-0.6-3.9-1.6l-3.2 2.1-4.6-4.3 2-3.3q-1-1.8-1.6-3.8l-3.8-0.8-0.1-6.4 3.7-0.9q0.5-2 1.6-3.8l-2.1-3.3 4.4-4.6 3.3 2q1.8-1.1 3.8-1.6zm-0.5 10.1c-0.9 1-1.5 2.2-1.8 3.5-0.2 1.3 0 2.7 0.5 3.9 0.5 1.3 1.4 2.3 2.6 3.1 1.1 0.7 2.4 1.1 3.8 1 1.3 0 2.6-0.4 3.7-1.2 1.2-0.7 2-1.8 2.5-3.1 0.5-1.2 0.6-2.6 0.3-3.9-0.3-1.3-0.9-2.5-1.9-3.5q-1-0.9-2.2-1.4-1.3-0.5-2.7-0.5-1.3 0-2.6 0.6-1.2 0.5-2.2 1.5z"/>
	<path id="Layer" class="s2" d="m337.3 322.4q0.5-0.7 1.2-1.1c1.2-0.8 2.5-1.1 3.8-1.1 1.3 0 2.6 0.3 3.7 1.1 1.1 0.7 1.9 1.6 2.5 2.7q0.4 0.9 0.6 1.9 0.2 1.1 0 2.1c-0.2 1.5-0.9 2.9-1.9 4-1 1.1-2.4 1.8-3.9 2q-1 0.2-2.1 0-1-0.1-1.9-0.5c-1.1-0.5-2.1-1.3-2.8-2.4-0.8-1-1.2-2.3-1.3-3.7 0-1.3 0.3-2.6 1-3.7q0.4-0.8 1-1.3c0 0-0.4 0.4-0.9 1.4-0.7 1.3-1 2.8-0.8 4.3 0.2 1.1 0.7 2.2 1.3 3 0.7 0.9 1.6 1.6 2.6 2.1q0.9 0.4 1.9 0.5 1 0.1 2 0c1.4-0.3 2.6-0.9 3.6-2 1-1 1.6-2.3 1.8-3.7q0.2-1 0-2-0.1-0.9-0.5-1.8c-0.6-1.1-1.4-2-2.3-2.6-0.9-0.6-1.9-1-2.9-1.1-1.5-0.2-3.1 0.1-4.4 0.9-0.9 0.6-1.3 1-1.3 1z"/>
	<path id="Layer" class="s2" d="m333.9 313.9l-0.2-0.1-0.7-0.4-2.4-1.4-4.4 4.6v-0.1l2.2 3.2v0.1q-1 1.8-1.5 3.8v0.1h-0.1l-3.7 0.9 0.1-0.1c0 2 0.1 4.1 0.1 6.4l-0.1-0.2 3.7 0.8h0.1v0.1q0.6 2 1.7 3.7v0.1 0.1c-0.6 1-1.3 2.2-2 3.3v-0.2l4.6 4.4h-0.3l3.2-2.1 0.1-0.1 0.1 0.1q1.8 1 3.8 1.5h0.2v0.1l0.9 3.7-0.2-0.1 6.4-0.1-0.2 0.1 0.8-3.7v-0.2h0.1q2-0.5 3.7-1.6h0.1 0.1l3.3 2h-0.2q2.2-2.3 4.4-4.6v0.3l-2.1-3.2-0.1-0.1 0.1-0.1q1-1.8 1.5-3.8v-0.2h0.1l3.7-0.9-0.1 0.2c0-2.2-0.1-4.3-0.1-6.3l0.1 0.1-3.7-0.8h-0.1v-0.1q-0.6-1.9-1.7-3.7v-0.1-0.1l2-3.3v0.2l-4.5-4.4h0.2l-3.3 2.1h-0.1q-1.8-1-3.8-1.5h-0.1q-0.5-2.1-0.9-3.8l0.1 0.1-6.4 0.1 0.1-0.1c-0.3 1.5-0.6 2.7-0.8 3.8q-1.5 0.4-2.9 1.1l-0.7 0.3q-0.1 0.1-0.2 0.2 0.1-0.1 0.2-0.2 0.2-0.1 0.7-0.4 1.4-0.7 2.9-1.1 0.3-1.6 0.7-3.8v-0.1h0.1l6.4-0.1h0.1v0.1c0.3 1.1 0.6 2.4 0.9 3.7l-0.1-0.1q2.1 0.5 3.9 1.5h-0.1l3.2-2.1h0.1l4.6 4.4 0.1 0.1v0.1l-2 3.3v-0.2q1.1 1.9 1.6 3.9l-0.1-0.1 3.8 0.7h0.1v0.2q0.1 3.1 0.1 6.3v0.2h-0.1l-3.8 0.9 0.2-0.1q-0.5 2-1.5 3.9v-0.2q1 1.6 2.1 3.2v0.1l-0.1 0.1-4.4 4.6-0.1 0.1h-0.1l-3.3-2h0.2q-1.8 1-3.9 1.6l0.2-0.1c-0.3 1.3-0.6 2.6-0.8 3.7v0.2h-0.1l-6.4 0.1h-0.2v-0.1c-0.3-1.3-0.6-2.6-0.9-3.8l0.1 0.2q-2-0.6-3.9-1.6h0.2l-3.2 2.1-0.1 0.1-0.1-0.1-4.6-4.4-0.1-0.1 0.1-0.1 2-3.3v0.2q-1.1-1.9-1.7-3.9l0.1 0.1-3.7-0.8h-0.2v-0.1q0-3.3-0.1-6.4v-0.1h0.1l3.8-0.9-0.1 0.1q0.5-2 1.5-3.9v0.2l-2.1-3.3 0.1-0.1 4.4-4.5 2.4 1.5 0.6 0.4q0.2 0 0.3 0.1z"/>
	<path id="Layer" class="s0" d="m153.6 243.4h-28.1c-5.3 0-9.6 4.4-9.6 9.7v28.1c0 5.3 4.3 9.7 9.6 9.7h28.1c5.4 0 9.7-4.4 9.7-9.7v-28.1c0-5.3-4.3-9.7-9.7-9.7z"/>
	<path id="Layer" fill-rule="evenodd" class="s1" d="m129.1 278.7q-0.2 0-0.4-0.1-0.2-0.1-0.4-0.2-0.3-0.3-0.3-0.8c0-0.2 0.1-0.5 0.3-0.7l5.7-5.6c-1.5-1.9-2.2-4.2-2.1-6.6 0.1-2.4 1.1-4.6 2.8-6.3 1.3-1.3 2.9-2.2 4.8-2.6 1.8-0.4 3.7-0.2 5.4 0.4 1.7 0.7 3.3 1.9 4.3 3.4 1.1 1.5 1.8 3.3 1.9 5.1 0.1 1.9-0.4 3.7-1.3 5.3-0.9 1.6-2.3 3-3.9 3.8-1.7 0.9-3.5 1.2-5.4 1-1.8-0.2-3.6-0.9-5.1-2l-5.6 5.6q-0.1 0.1-0.3 0.2-0.2 0.1-0.4 0.1zm12.4-21c-1.8 0-3.5 0.6-4.8 1.7-1.4 1.1-2.3 2.6-2.6 4.4-0.4 1.7-0.1 3.4 0.7 5 0.8 1.5 2.1 2.7 3.8 3.4 1.6 0.7 3.4 0.8 5 0.3 1.7-0.5 3.2-1.6 4.1-3.1 1-1.4 1.4-3.2 1.3-4.9-0.2-1.7-1-3.4-2.2-4.6q-1.1-1.1-2.5-1.6-1.3-0.6-2.8-0.6z"/>
	<path id="Layer" class="s0" d="m349 35.1h-24.2c-5.8 0-10.4 4.6-10.4 10.3v24.3c0 5.7 4.6 10.3 10.4 10.3h24.2c5.7 0 10.4-4.6 10.4-10.3v-24.3c0-5.7-4.7-10.3-10.4-10.3z"/>
	<path id="Layer" class="s1" d="m338.7 65.3q0 0.6-0.3 1.1-0.3 0.5-0.8 0.7-0.6 0.2-1.1 0.1-0.6-0.1-1-0.5-0.4-0.4-0.5-1-0.1-0.6 0.1-1.1 0.2-0.5 0.7-0.8 0.5-0.4 1-0.4c0.5 0 1 0.2 1.4 0.6 0.3 0.4 0.5 0.8 0.5 1.3z"/>
	<path id="Layer" class="s1" d="m333 62.9q0.7-0.8 1.7-1.2 1-0.5 2.1-0.5 1.1 0 2.1 0.4 1 0.4 1.7 1.2 0.3 0.3 0.8 0.3c0.2 0 0.5-0.1 0.7-0.3 0.2-0.2 0.3-0.5 0.3-0.7 0-0.3-0.1-0.6-0.3-0.8q-1-1.1-2.4-1.6-1.4-0.6-2.9-0.6-1.5 0-2.9 0.6-1.4 0.6-2.4 1.7c-0.9 1 0.6 2.5 1.5 1.5z"/>
	<path id="Layer" class="s1" d="m326.6 54.1c2.8-2.6 6.4-4 10.2-4.1 3.8 0 7.5 1.4 10.4 4 1 0.9 2.5-0.6 1.5-1.5-3.3-3-7.5-4.6-11.9-4.6-4.3 0.1-8.5 1.8-11.7 4.7-1 0.9 0.5 2.4 1.5 1.5z"/>
	<path id="Layer" class="s1" d="m329.1 59c1-1.1 2.2-1.9 3.5-2.5 1.3-0.6 2.7-0.9 4.2-1 1.4 0 2.8 0.3 4.2 0.9 1.3 0.5 2.5 1.3 3.5 2.4q0.3 0.3 0.7 0.2 0.4 0 0.7-0.3 0.3-0.3 0.3-0.7 0.1-0.4-0.2-0.7c-1.2-1.3-2.6-2.3-4.2-2.9-1.6-0.7-3.3-1-5-1-1.7 0-3.4 0.4-5 1.1-1.6 0.7-3 1.7-4.2 3-0.9 1 0.6 2.5 1.5 1.5z"/>
	<path id="Layer" class="s1" d="m131 7.8h-18.8c-5.7 0-10.4 4.7-10.4 10.4v18.7c0 5.8 4.7 10.4 10.4 10.4h18.8c5.7 0 10.3-4.6 10.3-10.4v-18.7c0-5.7-4.6-10.4-10.3-10.4z"/>
	<path id="Layer" class="s3" d="m131 47.3c0 0 0.5 0 1.4-0.1 1.4-0.2 2.6-0.7 3.8-1.4 1.8-1.1 3.3-2.7 4.2-4.7 0.5-1.2 0.8-2.5 0.8-3.9q0-2.1 0-4.5 0-4.8 0-10.4 0-1.4 0-2.8 0-1.5-0.2-2.9-0.2-1.5-0.9-2.8-0.6-1.4-1.7-2.5c-1.4-1.5-3.3-2.6-5.4-3q-1.6-0.3-3.2-0.2h-17.6c-2.3 0-4.5 0.8-6.3 2.2-1.9 1.5-3.1 3.5-3.6 5.8q-0.3 1.7-0.2 3.3v3.3q0 3.3 0 6.5 0 3.1 0 6.1-0.1 1.5 0.1 2.9 0.1 1.4 0.7 2.7c0.6 1.6 1.7 3 3 4 1.3 1.1 2.9 1.8 4.6 2.1q2.2 0.3 4.5 0.2h3.9 6.5 4.1 1.1q0.1 0 0.3 0h-0.3-1.1-4.1-6.5-3.9q-2.3 0.1-4.6-0.1c-1.7-0.3-3.4-1-4.8-2.1-1.4-1.1-2.5-2.6-3.2-4.2q-0.6-1.3-0.7-2.8-0.2-1.5-0.1-3c0-2 0-4 0-6.1 0-2.2 0-4.3 0-6.5v-3q-0.1-1.7 0.2-3.4c0.5-2.4 1.8-4.5 3.7-6.1 1.9-1.5 4.3-2.4 6.7-2.4h17.5q1.7 0 3.4 0.3c2.1 0.4 4.1 1.5 5.6 3.2q1.1 1.1 1.8 2.6 0.7 1.4 0.9 2.9 0.2 1.5 0.2 3c0 1 0 1.9 0 2.9q0 5.6 0 10.3 0 2.4 0 4.6c-0.1 1.4-0.4 2.7-1 4-0.9 2-2.4 3.6-4.3 4.7-1.2 0.7-2.5 1.1-3.9 1.3q-0.7 0.1-1.4 0z"/>
	<path id="Layer" class="s4" d="m123.3 27.4c0.9-0.4 1.6-1 2.1-1.8 0.5-0.8 0.8-1.8 0.8-2.7q0-1-0.3-1.8-0.3-0.9-1-1.6-0.6-0.7-1.5-1-0.8-0.4-1.8-0.4-0.9 0-1.8 0.4-0.8 0.3-1.5 1-0.6 0.7-0.9 1.6-0.4 0.8-0.3 1.8c0 0.9 0.2 1.9 0.8 2.7 0.5 0.8 1.2 1.4 2.1 1.8-7 1.1-6.7 8.7-6.7 8.7l16.6 0.1c0 0 0.3-7.8-6.6-8.8z"/>
	<path id="Layer" fill-rule="evenodd" class="s3" d="m129.9 36.2q0 0 0-0.1zm-16.6-0.1q0-1.2 0.3-2.4-0.3 1.2-0.3 2.3l16.6 0.1q0-2-0.7-3.9-0.1-0.1-0.1-0.2 0.1 0.1 0.1 0.2c0.5 1.3 0.7 2.6 0.7 4zm0.7-4c0.4-1.1 1.1-2.2 2-3q0.5-0.4 1-0.7-0.5 0.3-1 0.7c-0.9 0.9-1.6 1.9-2 3q-0.3 0.7-0.5 1.6 0.2-0.8 0.5-1.6zm5.9-4.8c-0.8-0.3-1.6-1-2.1-1.8-0.5-0.8-0.7-1.7-0.7-2.7 0-1.2 0.5-2.5 1.3-3.4q0.7-0.7 1.5-1 0.8-0.4 1.7-0.4 0 0 0 0-0.9 0-1.7 0.4-0.8 0.4-1.4 1c-0.9 0.9-1.4 2.2-1.4 3.4 0 1 0.3 1.9 0.8 2.7 0.5 0.8 1.2 1.5 2.1 1.9-1.1 0.1-2.1 0.5-3 1 0.9-0.5 1.9-0.9 2.9-1.1zm5-7.8q0.2 0.2 0.4 0.4-0.2-0.2-0.4-0.4c-0.8-0.9-2-1.4-3.3-1.5q0 0 0 0c1.3 0.1 2.5 0.6 3.3 1.5zm1.3 3.4c0 1-0.3 1.9-0.8 2.7-0.4 0.8-1.1 1.4-2 1.8q0 0-0.1-0.1c0.8-0.3 1.6-1 2.1-1.8 0.5-0.7 0.8-1.7 0.8-2.6 0-1.1-0.3-2.1-0.9-3 0.6 0.9 0.9 1.9 0.9 3zm-2.8 4.5c1.4 0.2 2.8 0.8 3.8 1.8 0.8 0.8 1.5 1.7 1.9 2.7-0.4-1-1.1-2-1.9-2.8-1-0.9-2.4-1.5-3.8-1.7q0 0 0 0z"/>
	<path id="Layer" class="s1" d="m135 176.1h-24.2c-5.8 0-10.4 4.7-10.4 10.4v24.3c0 5.7 4.6 10.3 10.4 10.3h24.2c5.7 0 10.4-4.6 10.4-10.3v-24.3c0-5.7-4.7-10.4-10.4-10.4z"/>
	<path id="Layer" class="s3" d="m135 221.1c0 0 0.6 0 1.6-0.2 2-0.3 3.9-1.2 5.4-2.6 1.4-1.4 2.5-3.2 2.9-5.2q0.5-2.2 0.3-4.6 0-2.4 0-5.2 0-5.5 0-12v-3.3q0.1-1.7-0.2-3.3c-0.4-2.4-1.7-4.5-3.5-6-1.9-1.5-4.2-2.4-6.6-2.3h-24.1c-1.3 0-2.6 0.2-3.8 0.7-1.3 0.5-2.4 1.3-3.3 2.2-1 1-1.7 2.1-2.2 3.3-0.5 1.3-0.8 2.6-0.8 3.9q0 7.9 0 15.2 0 3.7 0 7.1-0.1 1.7 0.1 3.4 0.2 1.6 1 3c0.9 1.9 2.3 3.4 4.1 4.4 1.7 0.9 3.5 1.4 5.4 1.3l17.4 0.1h4.7 1.3 0.4q-0.2 0.1-0.4 0h-1.3-4.7l-17.4 0.1c-1.9 0.1-3.9-0.4-5.6-1.3-1.9-1-3.4-2.6-4.3-4.5q-0.8-1.5-1-3.2-0.2-1.7-0.1-3.4 0-3.5 0-7.1 0-7.3 0-15.2c0-1.4 0.2-2.8 0.8-4.1 0.5-1.3 1.3-2.5 2.3-3.5 1-1 2.1-1.8 3.4-2.3 1.3-0.5 2.7-0.8 4.1-0.8h24.1c2.6 0 5 0.9 7 2.5 1.8 1.6 3.1 3.8 3.5 6.2q0.3 1.7 0.2 3.4v3.3q0 6.5 0 12 0 2.8 0 5.2 0.1 2.4-0.3 4.7c-0.6 2.5-2.1 4.7-4.2 6.1-1.3 0.9-2.8 1.5-4.4 1.7q-0.6 0.1-1.2 0.1z"/>
	<path id="Layer" class="s5" d="m124.8 198.4c1-0.4 1.9-1.2 2.4-2.1 0.6-0.9 0.9-1.9 0.9-3q0.1-1.1-0.3-2.1-0.3-1-1.1-1.8-0.7-0.8-1.7-1.2-1-0.4-2.1-0.4-1 0-2 0.4-1 0.4-1.7 1.2-0.8 0.8-1.1 1.8-0.4 1-0.3 2.1c-0.1 1.1 0.2 2.2 0.8 3.1 0.6 0.9 1.5 1.6 2.5 2-8 1.2-7.7 9.9-7.7 9.9l18.9 0.1c0 0 0.4-8.8-7.5-10z"/>
	<path id="Layer" class="s3" d="m277.1 231.2c0.1 0 0.2 5 0.2 11.3 0 6.2-0.1 11.2-0.2 11.2-0.2 0-0.3-5-0.3-11.2 0-6.3 0.1-11.3 0.3-11.3z"/>
	<path id="Layer" class="s0" d="m273.6 278h-25.4v25.4h25.4z"/>
	<path id="Layer" class="s0" d="m306.1 279.6h-26.1v2.1h26.1z"/>
	<path id="Layer" class="s0" d="m306.1 284.6h-26.1v2.1h26.1z"/>
	<path id="Layer" class="s0" d="m306.1 289.6h-26.1v2.2h26.1z"/>
	<path id="Layer" class="s0" d="m306.1 294.6h-26.1v2.2h26.1z"/>
	<path id="Layer" class="s0" d="m306.1 299.6h-26.1v2.2h26.1z"/>
	<path id="Layer" class="s0" d="m248.5 254.2h55.3c1.8 0 3.6 0.7 5 2 1.3 1.4 2 3.2 2 5v9.9h-69.2v-10c0-1.8 0.7-3.6 2-4.9 1.3-1.3 3.1-2 4.9-2z"/>
	<path id="Layer" class="s3" d="m304.4 315.1q1.2 0 2.4-0.5c1-0.4 1.8-1 2.4-1.8 0.9-1.1 1.4-2.4 1.5-3.8 0-6.3 0-15.4 0-26.7 0-5.6 0-11.8 0-18.4q0-1.3 0-2.5 0-1.3-0.3-2.5c-0.4-1.2-1.1-2.3-2.1-3.1-1-0.8-2.2-1.3-3.5-1.4-0.9 0-1.8 0-2.7 0h-5.5-48.5c-1.1 0-2.1 0.3-3 0.8-0.9 0.5-1.7 1.2-2.3 2-0.5 0.9-0.9 1.9-1 2.9 0 1 0 2.1 0 3.1v12.4c0 8.1 0 15.9 0 23.4v8.2q0 1.3 0.2 2.6 0.2 1.3 0.9 2.3 0.8 1.1 1.8 1.8 1.1 0.7 2.3 0.9 1.2 0.2 2.5 0.1h18.4l26.7 0.1h7.3 1.9 0.6q0 0.1-0.6 0h-1.9l-7.3 0.1-26.7 0.1h-18.4q-1.3 0-2.6-0.1c-1.3-0.3-2.5-0.9-3.5-1.9-0.9-0.9-1.6-2.1-1.9-3.4q-0.2-1.4-0.1-2.8v-2.7q0-2.7 0-5.5c0-7.4 0-15.3 0-23.4v-12.2c0-1 0-2.1 0-3.2 0.1-1.1 0.4-2.1 1-3.1 0.6-0.9 1.5-1.7 2.4-2.2 1-0.5 2.1-0.8 3.3-0.8h48.5 5.5c0.9 0 1.8 0 2.7 0q1.4 0.1 2.6 0.8 1.2 0.6 2.1 1.6 0.9 1.1 1.3 2.4 0.3 1.2 0.3 2.6v2.5c0 6.6 0 12.8 0 18.4 0 11.3 0 20.4-0.1 26.7-0.1 1.4-0.7 2.8-1.6 3.9-0.7 0.8-1.5 1.4-2.5 1.8q-0.9 0.3-1.8 0.4z"/>
	<path id="Layer" class="s3" d="m280 254.2c0 0.6-0.2 1.1-0.5 1.6-0.3 0.5-0.8 0.9-1.3 1.1-0.5 0.2-1.1 0.3-1.7 0.2-0.6-0.2-1.1-0.4-1.5-0.8-0.4-0.5-0.7-1-0.8-1.5-0.1-0.6 0-1.2 0.2-1.7 0.2-0.6 0.6-1 1.1-1.3 0.4-0.4 1-0.5 1.6-0.5 0.8 0 1.5 0.3 2 0.8 0.6 0.6 0.9 1.3 0.9 2.1z"/>
	<path id="Layer" class="s3" d="m163.4 155.6q-0.4 0-0.7 0h-2l-7.3 0.1-24.1 0.1h-3.5q-0.9 0-1.7-0.1-0.9-0.1-1.7-0.5c-1-0.5-1.9-1.1-2.6-2-0.7-0.8-1.2-1.8-1.5-2.9q-0.5-1.4-0.5-3c0-1 0-1.9 0-2.8 0-1.8 0-3.5 0.1-5 0-3 0.1-5.5 0.1-7.3q0-1.2 0.1-2 0-0.3 0-0.7 0.1 0.4 0 0.7 0 0.8 0 2c0 1.8 0 4.3 0 7.3q0 2.3 0 5.1c0 1.8-0.2 3.7 0.5 5.6 0.3 1 0.8 1.9 1.4 2.7 0.7 0.8 1.5 1.5 2.5 1.9q0.7 0.3 1.5 0.4 0.8 0.1 1.7 0.1h3.4l24.1 0.1h7.3l2 0.1q0.4 0 0.9 0.1z"/>
	<path id="Layer" class="s1" d="m127.5 63.8h-40.1c-5.8 0-10.4 4.6-10.4 10.4v40.2c0 5.7 4.6 10.3 10.4 10.3h40.1c5.8 0 10.4-4.6 10.4-10.3v-40.2c0-5.8-4.6-10.4-10.4-10.4z"/>
	<path id="Layer" class="s3" d="m127.5 124.7q1.2-0.1 2.3-0.3c2.1-0.5 4-1.6 5.5-3.3 1-1.2 1.8-2.6 2.1-4.1q0.6-2.8 0.4-5.6c0-4.1 0-8.7 0-13.8 0-5.1 0-10.7 0-16.8v-4.5q0.1-2.4-0.4-4.7c-0.4-1.5-1.2-3-2.2-4.2-1.1-1.2-2.5-2.1-4-2.7q-1.1-0.5-2.4-0.6-1.3-0.1-2.5-0.1h-38.9c-1.9 0-3.8 0.6-5.4 1.6q-1.2 0.7-2.1 1.8-1 1-1.6 2.3-0.6 1.2-0.9 2.6-0.2 1.4-0.2 2.8v5.5c0 7.4 0 14.5 0 21.2q0 5.1 0 9.9-0.1 2.4 0.2 4.7c0.4 1.5 1 2.8 1.9 4 0.8 1.2 1.9 2.1 3.2 2.8 1.2 0.7 2.6 1.1 4 1.2 2.7 0.1 5.4 0 8 0.1l24.2 0.1h6.6l-6.6 0.1-24.2 0.1c-2.6 0-5.2 0-8 0-1.5-0.1-2.9-0.6-4.2-1.3-1.3-0.7-2.4-1.7-3.3-2.9-1-1.3-1.6-2.7-1.9-4.2q-0.4-2.4-0.3-4.8 0-4.8 0-9.9c0-6.7 0-13.8 0-21.2v-5.5q0-1.5 0.2-2.9 0.3-1.4 0.9-2.7 0.7-1.4 1.7-2.4 1-1.2 2.2-1.9c1.7-1.1 3.7-1.7 5.7-1.7h38.8q1.3 0 2.6 0.1 1.3 0.2 2.5 0.6c1.6 0.7 3 1.6 4.2 2.9 1.1 1.2 1.9 2.8 2.3 4.4q0.5 2.4 0.4 4.8v4.5c0 6 0 11.6 0 16.8q0 7.7 0 13.7 0.1 2.9-0.4 5.7c-0.4 1.6-1.2 3-2.3 4.2-1.4 1.7-3.4 2.8-5.6 3.3q-0.8 0.2-1.7 0.2c-0.6 0.1-0.8 0.1-0.8 0.1z"/>
	<path id="Layer" class="s5" d="m94.4 106.4h-7.7v5.9h7.7z"/>
	<path id="Layer" class="s5" d="m104.1 92.8h-7.7v19.5h7.7z"/>
	<path id="Layer" class="s5" d="m114.8 101.2h-7.7v11.1h7.7z"/>
	<path id="Layer" class="s5" d="m125 87.2h-7.7v25.1h7.7z"/>
	<path id="Layer" fill-rule="evenodd" class="s5" d="m90 100.3c-0.8 0-1.5-0.2-2.1-0.6-0.7-0.4-1.1-1-1.4-1.7-0.3-0.7-0.4-1.5-0.3-2.2 0.2-0.8 0.6-1.5 1.1-2 0.5-0.5 1.2-0.9 2-1.1 0.7-0.1 1.5 0 2.2 0.3 0.7 0.3 1.3 0.7 1.7 1.4 0.4 0.6 0.6 1.3 0.6 2.1 0 1-0.4 2-1.1 2.7-0.7 0.7-1.7 1.1-2.7 1.1zm0-6.6c-0.6 0-1.1 0.1-1.6 0.5-0.4 0.3-0.8 0.7-1 1.2-0.2 0.5-0.3 1.1-0.2 1.7 0.1 0.5 0.4 1 0.8 1.4 0.4 0.4 0.9 0.7 1.5 0.8 0.5 0.1 1.1 0 1.6-0.2 0.5-0.2 0.9-0.6 1.3-1 0.3-0.5 0.4-1 0.4-1.6 0-0.7-0.3-1.5-0.8-2-0.5-0.5-1.3-0.8-2-0.8z"/>
	<path id="Layer" fill-rule="evenodd" class="s5" d="m101 85.8c-0.8 0-1.5-0.3-2.1-0.7-0.7-0.4-1.1-1-1.4-1.7-0.3-0.7-0.4-1.5-0.3-2.2 0.2-0.8 0.6-1.4 1.1-2 0.5-0.5 1.2-0.9 2-1 0.7-0.2 1.5-0.1 2.2 0.2 0.7 0.3 1.3 0.8 1.7 1.4 0.4 0.6 0.6 1.4 0.6 2.1 0 1.1-0.4 2-1.1 2.7-0.7 0.8-1.7 1.2-2.7 1.2zm0-6.7c-0.6 0-1.1 0.2-1.6 0.5-0.4 0.3-0.8 0.7-1 1.3-0.2 0.5-0.3 1-0.2 1.6 0.1 0.5 0.4 1 0.8 1.4 0.4 0.4 0.9 0.7 1.4 0.8 0.6 0.1 1.2 0.1 1.7-0.1 0.5-0.3 0.9-0.6 1.3-1.1 0.3-0.5 0.4-1 0.4-1.6q0-0.5-0.2-1-0.2-0.6-0.6-1-0.4-0.4-0.9-0.6-0.5-0.2-1.1-0.2z"/>
	<path id="Layer" fill-rule="evenodd" class="s5" d="m111 95c-0.8 0-1.5-0.2-2.1-0.6-0.7-0.5-1.1-1.1-1.4-1.8-0.3-0.7-0.4-1.4-0.3-2.2 0.2-0.7 0.6-1.4 1.1-1.9 0.5-0.6 1.2-0.9 2-1.1 0.7-0.1 1.5-0.1 2.2 0.2 0.7 0.3 1.3 0.8 1.7 1.4 0.4 0.7 0.6 1.4 0.6 2.2 0 1-0.4 2-1.1 2.7-0.7 0.7-1.7 1.1-2.7 1.1zm0-6.7c-0.6 0-1.1 0.2-1.6 0.5-0.4 0.3-0.8 0.8-1 1.3-0.2 0.5-0.3 1.1-0.2 1.6 0.1 0.6 0.4 1.1 0.8 1.5 0.4 0.4 0.9 0.6 1.5 0.8 0.5 0.1 1.1 0 1.6-0.2 0.5-0.2 0.9-0.6 1.3-1.1 0.3-0.4 0.4-1 0.4-1.5 0-0.8-0.3-1.5-0.8-2-0.5-0.6-1.3-0.9-2-0.9z"/>
	<path id="Layer" fill-rule="evenodd" class="s5" d="m121.6 81.6c-0.8 0-1.5-0.2-2.1-0.6-0.7-0.4-1.2-1-1.4-1.7-0.3-0.7-0.4-1.5-0.3-2.3 0.2-0.7 0.5-1.4 1.1-1.9 0.5-0.6 1.2-0.9 1.9-1.1 0.8-0.1 1.6 0 2.3 0.3 0.7 0.2 1.3 0.7 1.7 1.4 0.4 0.6 0.6 1.3 0.6 2.1 0 1-0.4 2-1.1 2.7-0.7 0.7-1.7 1.1-2.7 1.1zm0-6.6c-0.6 0-1.1 0.1-1.6 0.4-0.4 0.3-0.8 0.8-1 1.3-0.2 0.5-0.3 1.1-0.2 1.6 0.1 0.6 0.4 1.1 0.8 1.5 0.4 0.4 0.9 0.7 1.4 0.8 0.6 0.1 1.2 0 1.7-0.2 0.5-0.2 0.9-0.6 1.2-1 0.4-0.5 0.5-1.1 0.5-1.6 0-0.8-0.3-1.5-0.8-2-0.6-0.5-1.3-0.8-2-0.8z"/>
	<path id="Layer" class="s5" d="m118.9 79.9l-6.2 8.8 0.9 0.6 6.1-8.8z"/>
	<path id="Layer" class="s5" d="m103.9 84.3l-0.7 0.7 4.7 4.9 0.7-0.7z"/>
	<path id="Layer" class="s5" d="m98.4 84.5l-7 8.9 0.8 0.6 7-8.9z"/>
	<path id="Layer" class="s3" d="m122.2 125.4c0 0.6-0.1 1.2-0.4 1.7-0.4 0.5-0.8 0.8-1.4 1.1-0.5 0.2-1.1 0.2-1.6 0.1-0.6-0.1-1.1-0.4-1.5-0.8-0.5-0.4-0.7-0.9-0.8-1.5-0.2-0.5-0.1-1.1 0.1-1.7 0.2-0.5 0.6-1 1.1-1.3 0.5-0.3 1.1-0.5 1.6-0.5 0.8 0 1.5 0.3 2.1 0.9 0.5 0.5 0.8 1.3 0.8 2z"/>
	<path id="Layer" class="s3" d="m192.4 111.1c-0.2 0-0.3-8.4-0.3-18.8 0-10.3 0.1-18.7 0.3-18.7 0.1 0 0.2 8.4 0.2 18.7 0 10.4-0.1 18.8-0.2 18.8z"/>
	<path id="Layer" class="s1" d="m210.7 12.4h-40.2c-5.7 0-10.3 4.6-10.3 10.4v40.2c0 5.7 4.6 10.3 10.3 10.3h40.2c5.8 0 10.4-4.6 10.4-10.3v-40.2c0-5.8-4.6-10.4-10.4-10.4z"/>
	<path id="Layer" class="s3" d="m210.7 73.3q1.2-0.1 2.3-0.3c2.1-0.5 4.1-1.7 5.5-3.3 1-1.2 1.8-2.6 2.2-4.2q0.5-2.7 0.3-5.5c0-4.1 0-8.7 0-13.8 0-5.1 0-10.7 0-16.7v-4.6q0.1-2.4-0.3-4.7c-0.4-1.5-1.2-3-2.3-4.2-1.1-1.2-2.4-2.1-3.9-2.7q-1.2-0.4-2.4-0.6-1.3-0.1-2.6-0.1h-39c-1.9 0-3.7 0.6-5.3 1.6q-1.2 0.7-2.2 1.8-0.9 1-1.6 2.3-0.6 1.2-0.8 2.6-0.3 1.4-0.2 2.8v5.5c0 7.4 0 14.5 0 21.2q0 5.1 0 9.9-0.1 2.4 0.2 4.7c0.3 1.5 0.9 2.8 1.8 4 0.9 1.2 2 2.1 3.2 2.8 1.2 0.7 2.6 1.1 4 1.2 2.8 0.1 5.5 0 8 0.1l24.2 0.1h6.6-6.6l-24.2 0.1c-2.5 0-5.2 0.1-8 0-2.2-0.2-4.4-1.1-6.1-2.6-1.7-1.5-2.8-3.6-3.3-5.8q-0.3-2.4-0.2-4.8 0-4.8 0-9.8c0-6.8 0-13.9 0-21.2v-5.4q-0.1-1.5 0.2-2.9 0.2-1.4 0.9-2.7 0.6-1.4 1.6-2.4 1-1.1 2.3-1.9c1.7-1.1 3.6-1.7 5.6-1.7h38.9q1.3 0 2.6 0.1 1.3 0.2 2.5 0.7c1.6 0.6 3 1.5 4.1 2.8 1.1 1.3 1.9 2.8 2.3 4.4q0.5 2.4 0.3 4.8v4.6c0 6 0 11.6 0 16.7q0 7.7 0 13.8 0.2 2.8-0.3 5.6c-0.4 1.6-1.2 3-2.3 4.2-1.5 1.7-3.4 2.9-5.6 3.3q-0.8 0.2-1.7 0.2z"/>
	<path id="Layer" class="s3" d="m195.2 73.3c0 0.6-0.1 1.2-0.5 1.7-0.3 0.4-0.7 0.8-1.3 1-0.5 0.2-1.1 0.3-1.7 0.2-0.5-0.1-1-0.4-1.4-0.8-0.5-0.4-0.7-0.9-0.8-1.5-0.2-0.6-0.1-1.1 0.1-1.7 0.2-0.5 0.6-1 1.1-1.3 0.5-0.3 1-0.5 1.6-0.5 0.8 0 1.5 0.3 2.1 0.9 0.5 0.5 0.8 1.3 0.8 2z"/>
	<path id="Layer" fill-rule="evenodd" class="s3" d="m188.3 50.6c-1.6 0.1-3.2-0.3-4.6-0.9-1.5-0.7-2.8-1.7-3.9-2.9-1-1.2-1.8-2.7-2.2-4.2-0.5-1.6-0.6-3.2-0.3-4.8 0.2-1.6 0.8-3.1 1.7-4.4 0.9-1.4 2.1-2.5 3.5-3.4 1.3-0.8 2.9-1.3 4.5-1.5 1.6-0.2 3.2 0 4.8 0.5 1.3 0.4 2.6 1.2 3.7 2.1 1.2 1 2.1 2.1 2.7 3.4 0.7 1.3 1.1 2.7 1.2 4.2 0.1 1.4 0 2.9-0.5 4.3-0.7 2.2-2.1 4.2-4 5.5-1.9 1.4-4.2 2.2-6.6 2.1zm0-20.2c-1.7 0-3.3 0.5-4.7 1.4-1.5 0.8-2.6 2.1-3.4 3.6-0.8 1.5-1.1 3.2-1 4.9 0.2 1.6 0.8 3.2 1.8 4.6 1 1.3 2.3 2.4 3.9 3 1.5 0.7 3.2 0.9 4.9 0.6 1.6-0.2 3.2-1 4.5-2.1 1.2-1 2.2-2.5 2.7-4.1 0.7-2.3 0.5-4.8-0.6-6.9-1.1-2.2-3-3.8-5.3-4.5q-1.3-0.5-2.8-0.5z"/>
	<path id="Layer" class="s3" d="m203 57.3q-0.2 0-0.4-0.1-0.2-0.1-0.3-0.2l-8.3-9q-0.2-0.3-0.2-0.7 0-0.4 0.3-0.7 0.3-0.2 0.7-0.2 0.4 0 0.7 0.2l8.2 9q0.3 0.4 0.3 0.8 0 0.4-0.3 0.7-0.3 0.2-0.7 0.2z"/>
	<path id="Layer" class="s1" d="m286 33.3h-40.2c-5.8 0-10.4 4.7-10.4 10.4v40.2c0 5.7 4.6 10.4 10.4 10.4h40.2c5.7 0 10.3-4.7 10.3-10.4v-40.2c0-5.7-4.6-10.4-10.3-10.4z"/>
	<path id="Layer" class="s3" d="m286 94.3q1.1-0.1 2.3-0.3c2.1-0.5 4-1.7 5.5-3.4 1-1.2 1.7-2.6 2.1-4.1q0.5-2.8 0.3-5.6 0-6.1 0-13.8c0-5.1 0-10.7 0-16.7v-4.6q0.2-2.4-0.3-4.6c-0.4-1.6-1.2-3.1-2.3-4.3-1-1.2-2.4-2.1-3.9-2.7q-1.2-0.4-2.4-0.6-1.3-0.1-2.6 0h-38.9c-1.9 0-3.8 0.5-5.4 1.5q-1.2 0.8-2.1 1.8-1 1-1.6 2.3-0.6 1.3-0.9 2.6-0.2 1.4-0.1 2.8v5.6c0 7.3 0 14.4 0 21.1q0 5.1 0 9.9-0.2 2.4 0.2 4.7c0.3 1.5 0.9 2.9 1.8 4.1 0.8 1.1 1.9 2 3.2 2.7 1.2 0.7 2.6 1.1 4 1.3 2.8 0.1 5.5 0 8 0l24.2 0.1 6.6 0.1h-6.6l-24.2 0.1c-2.6 0-5.2 0-8 0-1.5-0.1-2.9-0.6-4.2-1.3-1.3-0.7-2.4-1.7-3.3-2.9-1-1.2-1.6-2.7-2-4.2q-0.3-2.4-0.2-4.8 0-4.8 0-9.9c0-6.7 0-13.8 0-21.2v-5.4q0-1.4 0.2-2.9 0.3-1.4 0.9-2.7 0.7-1.3 1.7-2.4 1-1.1 2.2-1.9c1.7-1.1 3.7-1.6 5.7-1.6h38.8q1.3-0.1 2.6 0 1.3 0.2 2.5 0.7c1.6 0.6 3 1.6 4.1 2.8 1.1 1.3 1.9 2.8 2.3 4.4q0.5 2.4 0.4 4.8 0 2.3 0 4.6c0 6 0 11.6 0 16.7q0 7.6 0 13.8 0.1 2.8-0.4 5.6c-0.5 1.9-1.5 3.6-2.9 4.9-1.4 1.3-3.1 2.2-5 2.6q-0.8 0.2-1.7 0.2c-0.4 0.1-0.6 0.1-0.6 0.1z"/>
	<path id="Layer" class="s3" d="m269.5 94.7c0.1 0.6-0.1 1.1-0.4 1.6-0.4 0.5-0.8 0.9-1.3 1.1-0.6 0.2-1.2 0.3-1.7 0.2-0.6-0.1-1.1-0.4-1.5-0.8-0.4-0.4-0.7-1-0.8-1.5-0.1-0.6-0.1-1.2 0.1-1.7 0.3-0.5 0.6-1 1.1-1.3 0.5-0.3 1.1-0.5 1.6-0.5 0.8 0 1.5 0.3 2.1 0.8 0.5 0.6 0.8 1.3 0.8 2.1z"/>
	<path id="Layer" class="s5" d="m288.9 66.2c1.6 5.4-2 10.6-7.4 10.6h-28.9c-1.1 0-2.2-0.3-3.2-0.7-1-0.5-1.9-1.2-2.6-2.1-0.6-0.9-1.1-1.9-1.3-3-0.2-1.1-0.2-2.2 0.1-3.3q0.1-0.3 0.2-0.7c0.7-1.5 1.9-2.8 3.4-3.7 1.5-0.8 3.2-1.1 4.9-0.8 0.4-2.9 1.7-5.6 3.8-7.7 2.1-2.1 4.9-3.4 7.8-3.7 2.9-0.4 5.9 0.3 8.4 1.9 2.5 1.6 4.4 3.9 5.4 6.7 0 0 7.5-0.4 9.4 6.5z"/>
	<path id="Layer" class="s1" d="m264.5 81.9v-11.1h-4.4q-0.1 0-0.3-0.1-0.1-0.1-0.2-0.2-0.1-0.2-0.1-0.3 0-0.2 0.1-0.4l7.2-10.1q0.1-0.1 0.2-0.1 0.1-0.1 0.3-0.1 0.1 0 0.3 0.1 0.1 0 0.2 0.1l7.1 10q0.1 0.2 0.1 0.4 0.1 0.1 0 0.3-0.1 0.2-0.3 0.2-0.1 0.1-0.3 0.1h-4.2v11.2z"/>
	<path id="Layer" class="s1" d="m352.3 106.9h-40.2c-5.8 0-10.4 4.7-10.4 10.4v40.2c0 5.7 4.6 10.4 10.4 10.4h40.2c5.7 0 10.3-4.7 10.3-10.4v-40.2c0-5.7-4.6-10.4-10.3-10.4z"/>
	<path id="Layer" class="s3" d="m352.3 167.8q1.1 0 2.2-0.3c2.1-0.5 4.1-1.6 5.5-3.3 1-1.2 1.8-2.6 2.2-4.1q0.5-2.8 0.3-5.6c0-4.1 0-8.7 0-13.8 0-5.1 0-10.7 0-16.7v-4.6q0.1-2.4-0.4-4.7c-0.4-1.5-1.1-3-2.2-4.2-1.1-1.2-2.5-2.1-4-2.7q-1.1-0.4-2.4-0.6-1.2-0.1-2.5-0.1h-38.9c-1.9 0.1-3.8 0.6-5.4 1.6q-1.2 0.7-2.1 1.8-1 1-1.6 2.3-0.6 1.2-0.9 2.6-0.2 1.4-0.2 2.8v5.5c0 7.4 0 14.5 0 21.2q0 5.1 0 9.9-0.1 2.4 0.2 4.7c0.3 1.5 1 2.8 1.9 4 0.8 1.2 1.9 2.1 3.1 2.8 1.3 0.7 2.7 1.2 4.1 1.3 2.7 0.1 5.4 0 8 0l24.2 0.1 6.6 0.1h1.7q0.6 0 0.6 0h-0.6-1.7-6.6l-24.2 0.1c-2.6 0-5.2 0-8 0-2.3-0.2-4.4-1.2-6.1-2.7-1.7-1.5-2.9-3.5-3.4-5.8q-0.3-2.3-0.2-4.7 0-4.8 0-9.9c0-6.7 0-13.8 0-21.2v-5.6q0-1.4 0.2-2.8 0.3-1.4 0.9-2.8 0.7-1.3 1.7-2.4 1-1.1 2.2-1.9c1.7-1 3.7-1.6 5.7-1.6h38.8q1.3 0 2.6 0.1 1.3 0.2 2.5 0.6c1.6 0.6 3 1.6 4.2 2.9 1.1 1.2 1.9 2.7 2.3 4.4q0.5 2.3 0.3 4.7v4.8c0 6 0 11.6 0 16.7q0 7.7 0 13.8 0.2 2.9-0.3 5.7c-0.4 1.5-1.2 3-2.3 4.2-1.4 1.6-3.4 2.8-5.6 3.3q-0.8 0.2-1.7 0.2c-0.6 0-0.8-0.1-0.8-0.1z"/>
	<path id="Layer" fill-rule="evenodd" class="s5" d="m332.9 155.9c-3.6 0-7.2-1.1-10.3-3.1-3-2.1-5.4-5-6.8-8.4-1.4-3.3-1.8-7.1-1.1-10.7 0.8-3.6 2.5-6.9 5.1-9.5 2.6-2.6 5.9-4.3 9.5-5 3.6-0.8 7.3-0.4 10.7 1 3.4 1.4 6.3 3.8 8.3 6.9 2.1 3 3.2 6.6 3.2 10.3 0 4.9-2 9.6-5.5 13.1-3.4 3.4-8.1 5.4-13.1 5.4zm0-36.1c-3.4 0-6.8 1-9.7 3-2.9 1.9-5.1 4.6-6.5 7.8-1.3 3.2-1.7 6.8-1 10.2 0.7 3.4 2.4 6.5 4.8 9 2.5 2.4 5.6 4.1 9 4.8 3.4 0.6 6.9 0.3 10.1-1 3.2-1.4 6-3.6 7.9-6.5 1.9-2.9 3-6.3 3-9.7 0-4.7-1.9-9.1-5.2-12.4-3.3-3.3-7.7-5.2-12.4-5.2z"/>
	<path id="Layer" class="s5" d="m332.4 155.8c-1.9-1.1-3.5-2.6-4.8-4.4-3.1-4.1-4.6-9.2-4.3-14.4 0-5.1 1.8-10.1 5.1-14.1 1.3-1.6 2.9-3 4.7-4l0.5 0.9c-0.1 0-8.8 4.5-9.3 17.2-0.5 12.8 8.5 17.9 8.6 18z"/>
	<path id="Layer" class="s5" d="m333.2 155.8l-0.5-0.8c0.1-0.1 8.7-5.6 8.3-18.4-0.5-12.7-8.9-16.8-8.9-16.8l0.4-0.9c0.4 0.1 9 4.3 9.5 17.7 0.4 13.4-8.7 19.2-8.8 19.2z"/>
	<path id="Layer" class="s5" d="m333.2 131.5c-7.5 0-12.4-2.6-15.1-4.7l0.6-0.8c2.6 2.1 7.3 4.5 14.5 4.5 7 0 11.4-2.4 13.9-4.5l0.6 0.8c-2.6 2.1-7.2 4.7-14.5 4.7z"/>
	<path id="Layer" class="s5" d="m347.1 148.2c-2.6-2-7.2-4.4-14.4-4.4-7 0-11.5 2.4-14 4.3l-0.6-0.8c2.6-2 7.3-4.5 14.6-4.5 7.5 0 12.3 2.5 15 4.6z"/>
	<path id="Layer" class="s5" d="m351 136.9h-35.6v1h35.6z"/>
	<path id="Layer" class="s3" d="m304.4 138.6c0 0.6-0.2 1.2-0.5 1.6-0.3 0.5-0.8 0.9-1.3 1.1-0.6 0.2-1.1 0.3-1.7 0.2-0.6-0.1-1.1-0.4-1.5-0.8-0.4-0.4-0.7-0.9-0.8-1.5-0.1-0.6-0.1-1.2 0.2-1.7 0.2-0.5 0.6-1 1-1.3 0.5-0.3 1.1-0.5 1.7-0.5q0.5 0 1.1 0.2 0.5 0.2 0.9 0.7 0.4 0.4 0.7 0.9 0.2 0.5 0.2 1.1z"/>
	<path id="Layer" class="s3" d="m303.1 138.6c0 0.2-6.9 0.3-15.5 0.3-8.5 0-15.4-0.1-15.4-0.3 0-0.1 6.9-0.2 15.4-0.2 8.6 0 15.5 0.1 15.5 0.2z"/>
	<path id="Layer" class="s1" d="m340.3 186.2h-24.2c-5.7 0-10.4 4.7-10.4 10.4v24.2c0 5.8 4.7 10.4 10.4 10.4h24.2c5.8 0 10.4-4.6 10.4-10.4v-24.2c0-5.7-4.6-10.4-10.4-10.4z"/>
	<path id="Layer" class="s3" d="m340.3 231.2c0 0 0.6 0 1.6-0.2 1.6-0.2 3.1-0.9 4.3-1.8 2-1.4 3.5-3.6 4-6q0.5-2.3 0.3-4.6 0-2.5 0-5.2 0-5.5 0-12v-3.3q0.1-1.7-0.2-3.3c-0.4-2.3-1.6-4.4-3.4-5.9-1.8-1.6-4.2-2.5-6.7-2.4h-24.1c-1.3 0-2.6 0.2-3.9 0.7-1.2 0.6-2.3 1.3-3.2 2.3-1 0.9-1.7 2-2.2 3.3-0.5 1.2-0.8 2.5-0.8 3.8q0 8 0 15.3 0 3.6 0 7-0.1 1.7 0.1 3.4 0.2 1.6 1 3.1c0.9 1.8 2.3 3.3 4.1 4.3 1.7 0.9 3.5 1.4 5.4 1.3l17.4 0.1 4.7 0.1h1.3 0.4q-0.2 0-0.4 0h-1.3-4.7l-17.4 0.1c-1.9 0-3.9-0.4-5.6-1.4-1.9-1-3.4-2.6-4.3-4.5q-0.8-1.5-1-3.2-0.2-1.7-0.2-3.4 0-3.5 0-7.1 0-7.3 0-15.2c0.1-2.8 1.2-5.4 3.2-7.4 2-2 4.6-3.1 7.4-3.1h24.1c2.6 0 5.1 0.9 7 2.6 1.9 1.5 3.1 3.7 3.5 6.1q0.3 1.7 0.2 3.4 0 1.7 0 3.3 0 6.5 0 12 0 2.8 0 5.3 0.2 2.3-0.3 4.6c-0.6 2.5-2.1 4.7-4.2 6.1-1.3 0.9-2.8 1.5-4.4 1.7q-0.6 0.1-1.2 0.1-0.2 0-0.5 0z"/>
	<path id="Layer" class="s4" d="m317.2 216.5c2.2 1.5 4.8 2.2 7.5 2.3 2.6 0.1 5.2-0.6 7.5-1.9 2.3-1.4 4.2-3.3 5.5-5.6 1.3-2.4 1.9-5 1.8-7.6q1.5-1.1 2.5-2.7-1.4 0.6-2.9 0.8c1-0.6 1.8-1.6 2.2-2.8q-1.5 0.9-3.2 1.2c-0.8-0.8-1.8-1.3-2.9-1.5-1.1-0.2-2.3 0-3.2 0.5-1 0.6-1.8 1.4-2.3 2.4-0.4 1-0.6 2.2-0.3 3.3-2-0.1-4-0.7-5.8-1.6-1.8-0.9-3.4-2.2-4.7-3.7-0.6 1.1-0.8 2.4-0.6 3.7 0.3 1.2 1.1 2.3 2.2 3-0.8 0-1.6-0.2-2.3-0.6 0 1.2 0.4 2.4 1.1 3.3 0.8 0.9 1.8 1.5 3 1.8q-1.2 0.3-2.3 0c0.3 1.1 0.9 1.9 1.8 2.6 0.8 0.6 1.9 1 2.9 1-2.1 1.7-4.8 2.4-7.5 2.1z"/>
	<path id="Layer" class="s0" d="m290.3 228.8l-13.1-46h-114.1l-14.9 45.8q-0.3 1-0.1 2 0.1 1 0.7 1.8 0.6 0.9 1.5 1.3 0.9 0.5 1.9 0.5h52.2l2.1-2.1h24.6l2.1 2.1h53q1 0 1.9-0.4 0.9-0.5 1.5-1.3 0.6-0.8 0.8-1.8 0.1-1-0.1-1.9z"/>
	<g id="Layer" style="opacity: .3">
		<path id="Layer" class="s6" d="m290.3 228.8l-13.1-46h-114.1l-14.9 45.8q-0.3 1-0.1 2 0.1 1 0.7 1.8 0.6 0.9 1.5 1.3 0.9 0.5 1.9 0.5h52.2l2.1-2.1h24.6l2.1 2.1h53q1 0 1.9-0.4 0.9-0.5 1.5-1.3 0.6-0.8 0.8-1.8 0.1-1-0.1-1.9z"/>
	</g>
	<path id="Layer" class="s0" d="m163.1 181.6v-67.4q0-0.9 0.3-1.8 0.4-0.9 1.1-1.6 0.6-0.7 1.5-1 0.9-0.4 1.9-0.4h104.8q1 0 1.9 0.4 0.9 0.3 1.5 1 0.7 0.7 1.1 1.6 0.3 0.9 0.3 1.8v67.4z"/>
	<path id="Layer" class="s1" d="m270.6 116.1h-100.6v59.9h100.6z"/>
	<path id="Layer" class="s3" d="m270.6 176q0 0 0-1.1 0-1.1 0-3.1c0-2.8 0-6.9-0.1-12 0-10.4 0-25.4-0.1-43.7l0.2 0.2h-100.6l0.3-0.2c0 21.2 0 41.5 0 59.9l-0.3-0.2 72.4 0.1h20.8 5.5 1.4 0.5-0.4-1.4-5.5l-20.7 0.1-72.6 0.1h-0.2v-0.1c0-18.4 0-38.7 0-59.9v-0.3h0.2 100.6 0.2v0.3c0 18.3-0.1 33.3-0.1 43.8 0 5.2 0 9.2 0 12q0 2 0 3.1c0 0.7-0.1 1-0.1 1z"/>
	<path id="Layer" class="s3" d="m222.2 112.9q0 0.6-0.3 1-0.4 0.5-0.9 0.7-0.5 0.3-1.1 0.2-0.5-0.1-0.9-0.5-0.4-0.4-0.5-1-0.1-0.6 0.1-1.1 0.2-0.5 0.7-0.8 0.4-0.3 1-0.3 0.4 0 0.7 0.1 0.3 0.1 0.6 0.4 0.3 0.3 0.4 0.6 0.1 0.3 0.2 0.7z"/>
	<path id="Layer" class="s0" d="m290.3 227.1l-13.1-46h-114.1l-14.9 45.8q-0.3 1-0.1 2 0.1 1 0.7 1.8 0.6 0.9 1.5 1.3 0.9 0.5 1.9 0.5h52.2l2.1-2.1h24.6l2.1 2.1h53q1 0 1.9-0.4 0.9-0.5 1.5-1.3 0.6-0.8 0.8-1.8 0.1-1-0.1-1.9z"/>
	<path id="Layer" class="s2" d="m269.1 184.1l-99.4-0.4c-0.5 0-1 0.1-1.4 0.4-0.4 0.2-0.7 0.6-0.9 1l-8 22.6c-0.4 1.3 0.7 2.5 2.3 2.5h115.1c1.5 0 2.6-1.2 2.2-2.5l-7.6-22.2c-0.2-0.5-0.6-0.8-1-1.1q-0.6-0.4-1.3-0.3z"/>
	<g id="Layer" style="opacity: .1">
		<path id="Layer" class="s6" d="m238.2 227.4h-39.2q-0.6 0-1.1-0.3-0.5-0.3-0.9-0.8-0.3-0.5-0.4-1-0.1-0.6 0-1.2l2.2-9.3c0.2-0.6 0.5-1.1 0.9-1.4 0.4-0.4 1-0.6 1.5-0.6h35.1c0.6 0 1.1 0.2 1.6 0.6 0.4 0.4 0.7 0.9 0.8 1.5l2 9.3q0.1 0.5 0 1.1-0.1 0.6-0.5 1.1-0.3 0.5-0.8 0.7-0.6 0.3-1.2 0.3z"/>
	</g>
	<path id="Layer" class="s3" d="m238.1 191.2l-1-4.7q-0.1-0.3-0.2-0.4-0.2-0.2-0.5-0.2h-6.1q-0.2 0-0.3 0.1-0.1 0.1-0.2 0.2-0.1 0.1-0.2 0.2 0 0.2 0 0.3l0.7 4.8q0 0.2 0.2 0.4 0.2 0.2 0.5 0.2h6.4q0.2 0 0.3-0.1 0.2-0.1 0.3-0.2 0.1-0.1 0.1-0.3 0-0.1 0-0.3z"/>
	<path id="Layer" class="s3" d="m219.7 191.3l-0.5-4.7q0-0.3-0.2-0.5-0.2-0.2-0.5-0.2h-6.2q-0.2 0-0.3 0.1-0.1 0-0.2 0.1-0.1 0.1-0.2 0.3-0.1 0.1 0 0.3l0.1 4.7q0 0.3 0.2 0.5 0.2 0.2 0.5 0.2h6.6q0.1 0 0.3-0.1 0.1 0 0.2-0.2 0.1-0.1 0.1-0.2 0.1-0.1 0.1-0.3z"/>
	<path id="Layer" class="s3" d="m229.4 191.3l-0.7-4.8q-0.1-0.2-0.3-0.4-0.2-0.2-0.4-0.2h-7.2q-0.2 0-0.3 0.1-0.1 0-0.2 0.2-0.1 0.1-0.2 0.2 0 0.2 0 0.3l0.4 4.7q0 0.3 0.2 0.5 0.2 0.2 0.5 0.2h7.5q0.1 0 0.3-0.1 0.1 0 0.2-0.2 0.1-0.1 0.1-0.2 0.1-0.2 0.1-0.3z"/>
	<path id="Layer" class="s3" d="m183.7 191.4l1-4.3q0-0.2 0-0.4-0.1-0.2-0.2-0.4-0.1-0.2-0.3-0.3-0.2-0.1-0.4-0.1h-6q-0.3 0-0.5 0.2-0.3 0.2-0.4 0.5l-1.2 4.3q-0.1 0.3 0 0.5 0 0.2 0.2 0.4 0.1 0.1 0.3 0.2 0.2 0.1 0.4 0.1h6.2q0.3 0 0.6-0.2 0.2-0.2 0.3-0.5z"/>
	<path id="Layer" class="s3" d="m270.1 191.1l-1.8-4.7q-0.1-0.2-0.3-0.3-0.2-0.2-0.4-0.2h-11.6q-0.2 0-0.3 0.1-0.2 0.1-0.3 0.2-0.1 0.2-0.1 0.3 0 0.2 0 0.4l1.8 4.7q0.1 0.2 0.2 0.3 0.2 0.1 0.5 0.1h11.6q0.2 0 0.4-0.1 0.1 0 0.2-0.2 0.1-0.1 0.1-0.3 0-0.2 0-0.3z"/>
	<path id="Layer" class="s3" d="m210 185.9h-6.8q-0.2 0-0.4 0.2-0.3 0.2-0.3 0.5l-0.2 4.8q0 0.1 0 0.3 0.1 0.1 0.2 0.2 0.1 0.1 0.2 0.2 0.2 0 0.3 0h7.2q0.1 0 0.3 0 0.1-0.1 0.2-0.2 0.1-0.1 0.1-0.2 0.1-0.2 0.1-0.3l-0.2-4.8q0-0.3-0.2-0.5-0.2-0.2-0.5-0.2z"/>
	<path id="Layer" class="s3" d="m175 185.9h-4.7q-0.3 0-0.6 0.2-0.2 0.2-0.3 0.5l-1.6 4.3q0 0.2 0 0.4 0.1 0.3 0.2 0.4 0.1 0.2 0.3 0.3 0.2 0.2 0.4 0.2h5q0.3 0 0.6-0.2 0.2-0.2 0.3-0.5l1.3-4.3q0-0.3 0-0.5-0.1-0.2-0.2-0.4-0.1-0.1-0.3-0.2-0.2-0.1-0.4-0.2z"/>
	<path id="Layer" class="s3" d="m192.4 191.5l0.7-4.8q0-0.1 0-0.3-0.1-0.1-0.2-0.2-0.1-0.1-0.2-0.2-0.2-0.1-0.3-0.1h-6q-0.3 0-0.5 0.2-0.2 0.1-0.2 0.4l-1.1 4.8q0 0.1 0 0.3 0.1 0.2 0.2 0.3 0.1 0.1 0.2 0.2 0.1 0 0.3 0h6.5q0.2 0 0.4-0.1 0.2-0.2 0.2-0.5z"/>
	<path id="Layer" class="s3" d="m194 186.5l-0.6 4.8q0 0.2 0 0.3 0 0.2 0.1 0.3 0.1 0.1 0.3 0.2 0.1 0 0.3 0h6.7q0.3 0 0.5-0.2 0.2-0.2 0.2-0.4l0.2-4.8q0-0.2 0-0.3-0.1-0.1-0.2-0.2-0.1-0.2-0.2-0.2-0.2-0.1-0.3-0.1h-6.3q-0.3 0-0.5 0.2-0.2 0.2-0.2 0.4z"/>
	<path id="Layer" class="s3" d="m247.3 191.2l-1.4-4.8q-0.1-0.2-0.3-0.3-0.1-0.2-0.4-0.2h-6.5q-0.2 0-0.3 0.1-0.1 0.1-0.2 0.2-0.2 0.1-0.2 0.3 0 0.1 0 0.3l1 4.7q0.1 0.3 0.3 0.4 0.2 0.2 0.4 0.2h6.9q0.2 0 0.3-0.1 0.2-0.1 0.3-0.2 0.1-0.1 0.1-0.3 0.1-0.2 0-0.3z"/>
	<path id="Layer" class="s3" d="m256 191.1l-1.8-4.7q0-0.2-0.2-0.3-0.2-0.2-0.4-0.2h-6q-0.2 0-0.3 0.1-0.2 0.1-0.3 0.2-0.1 0.1-0.1 0.3 0 0.2 0 0.3l1.4 4.8q0.1 0.2 0.3 0.3 0.2 0.1 0.4 0.2h6.3q0.2-0.1 0.4-0.1 0.1-0.1 0.2-0.3 0.1-0.1 0.1-0.3 0.1-0.1 0-0.3z"/>
	<path id="Layer" class="s3" d="m210.3 193.2h-7.4q-0.3 0-0.5 0.2-0.2 0.2-0.2 0.5l-0.3 4.9q0 0.1 0.1 0.3 0 0.1 0.1 0.2 0.1 0.1 0.3 0.2 0.1 0 0.2 0h7.8q0.2 0 0.3 0 0.1-0.1 0.2-0.2 0.2-0.1 0.2-0.2 0.1-0.2 0-0.3l-0.1-4.9q0-0.3-0.2-0.5-0.3-0.2-0.5-0.2z"/>
	<path id="Layer" class="s3" d="m258.8 198.5l-1.9-4.9q0-0.2-0.2-0.3-0.2-0.1-0.4-0.1h-6.6q-0.1 0-0.3 0.1-0.1 0-0.2 0.2-0.1 0.1-0.2 0.3 0 0.1 0.1 0.3l1.4 4.9q0.1 0.2 0.3 0.4 0.1 0.1 0.4 0.1h6.9q0.2 0 0.3-0.1 0.2-0.1 0.3-0.2 0.1-0.2 0.1-0.4 0-0.1-0.1-0.3z"/>
	<path id="Layer" class="s3" d="m249.5 198.6l-1.4-4.9q-0.1-0.2-0.3-0.4-0.2-0.1-0.4-0.1h-7.1q-0.2 0-0.3 0.1-0.2 0-0.3 0.1-0.1 0.2-0.1 0.3-0.1 0.2 0 0.3l1 4.9q0.1 0.3 0.3 0.4 0.2 0.2 0.4 0.2h7.5q0.2 0 0.3-0.1 0.2-0.1 0.3-0.2 0.1-0.1 0.1-0.3 0.1-0.2 0-0.3z"/>
	<path id="Layer" class="s3" d="m193.1 199.5h7.3q0.3 0 0.5-0.2 0.2-0.2 0.2-0.4l0.2-5q0-0.1 0-0.3-0.1-0.1-0.2-0.2-0.1-0.1-0.2-0.2-0.1 0-0.3 0h-6.9q-0.3 0-0.5 0.2-0.2 0.1-0.2 0.4l-0.6 4.9q0 0.2 0 0.3 0 0.2 0.1 0.3 0.1 0.1 0.3 0.2 0.1 0 0.3 0z"/>
	<path id="Layer" class="s3" d="m212.7 199.5h6.9q0.2 0 0.3-0.1 0.2 0 0.3-0.1 0.1-0.1 0.1-0.3 0-0.1 0-0.3l-0.4-4.9q0-0.2-0.2-0.4-0.2-0.2-0.5-0.2h-6.7q-0.1 0-0.3 0-0.1 0.1-0.2 0.2-0.1 0.1-0.1 0.3-0.1 0.1-0.1 0.2l0.2 4.9q0 0.3 0.2 0.5 0.2 0.2 0.5 0.2z"/>
	<path id="Layer" class="s3" d="m220.7 194l0.5 4.9q0 0.3 0.2 0.5 0.2 0.1 0.5 0.1h7.8q0.2 0 0.3 0 0.1-0.1 0.2-0.2 0.1-0.1 0.2-0.3 0-0.1 0-0.3l-0.7-4.9q0-0.2-0.2-0.4-0.2-0.2-0.5-0.2h-7.5q-0.2 0-0.3 0.1-0.2 0.1-0.3 0.2-0.1 0.1-0.1 0.2-0.1 0.2-0.1 0.3z"/>
	<path id="Layer" class="s3" d="m239.7 198.6l-1.1-4.9q0-0.2-0.2-0.4-0.2-0.1-0.4-0.1h-6.7q-0.2 0-0.3 0.1-0.1 0-0.2 0.1-0.1 0.1-0.2 0.3 0 0.1 0 0.3l0.7 4.9q0 0.2 0.2 0.4 0.2 0.2 0.5 0.2h7q0.2 0 0.3-0.1 0.2 0 0.3-0.2 0.1-0.1 0.1-0.3 0-0.1 0-0.3z"/>
	<path id="Layer" class="s3" d="m182.4 193.2h-14.7q-0.2 0-0.4 0.1-0.2 0.1-0.3 0.3l-1.9 5q-0.1 0.2 0 0.4 0 0.1 0.1 0.3 0.1 0.1 0.2 0.2 0.2 0.1 0.4 0.1h15.5q0.3 0 0.5-0.2 0.2-0.2 0.2-0.4l1.1-5q0-0.2 0-0.3 0-0.1-0.1-0.3-0.1-0.1-0.3-0.2-0.1 0-0.3 0z"/>
	<path id="Layer" class="s3" d="m183.6 199.6h7.2q0.3-0.1 0.5-0.2 0.2-0.2 0.2-0.5l0.6-5q0.1-0.1 0-0.3 0-0.1-0.1-0.2-0.1-0.1-0.3-0.2-0.1-0.1-0.3-0.1h-6.7q-0.2 0-0.4 0.2-0.2 0.1-0.2 0.4l-1.2 5q0 0.1 0 0.3 0.1 0.2 0.2 0.3 0.1 0.1 0.2 0.2 0.2 0 0.3 0.1z"/>
	<path id="Layer" class="s3" d="m267.6 199.4h4.5q0.2 0 0.4 0 0.2-0.1 0.3-0.3 0.1-0.1 0.1-0.3 0-0.2-0.1-0.4l-1.9-4.8q-0.1-0.2-0.3-0.3-0.2-0.1-0.4-0.1h-4.2q-0.2 0-0.3 0-0.2 0.1-0.3 0.3-0.1 0.1-0.1 0.3 0 0.1 0 0.3l1.6 4.8q0.1 0.2 0.2 0.4 0.2 0.1 0.4 0.1z"/>
	<path id="Layer" class="s3" d="m265.8 198.5l-1.5-4.8q-0.1-0.2-0.3-0.4-0.2-0.1-0.4-0.1h-4.9q-0.2 0-0.3 0.1-0.2 0.1-0.3 0.2-0.1 0.1-0.1 0.3 0 0.2 0 0.3l1.8 4.9q0.1 0.2 0.3 0.3 0.2 0.1 0.4 0.1h4.7q0.1 0.1 0.3 0 0.1-0.1 0.2-0.2 0.1-0.2 0.2-0.4 0-0.1-0.1-0.3z"/>
	<path id="Layer" class="s3" d="m192.4 207.8h7.2q0.5 0 0.8-0.2 0.3-0.3 0.3-0.8l0.2-5.1q0.1-0.2 0-0.4-0.1-0.2-0.2-0.4-0.2-0.1-0.4-0.2-0.2-0.1-0.4-0.1h-6.8q-0.4 0-0.7 0.2-0.3 0.3-0.4 0.7l-0.7 5.1q0 0.3 0.1 0.5 0 0.2 0.2 0.4 0.1 0.2 0.3 0.3 0.3 0.1 0.5 0z"/>
	<path id="Layer" class="s3" d="m273.1 200.6h-11.1q-0.3 0-0.5 0.1-0.2 0.1-0.4 0.3-0.1 0.3-0.2 0.5 0 0.3 0.1 0.5l2 5.3q0.1 0.3 0.4 0.5 0.3 0.2 0.6 0.2h11.2q0.3 0 0.5-0.2 0.3-0.1 0.4-0.3 0.2-0.2 0.2-0.5 0-0.2-0.1-0.5l-2-5.3q-0.2-0.3-0.5-0.5-0.3-0.1-0.6-0.1z"/>
	<path id="Layer" class="s3" d="m182.3 201.4l-1.1 5.1q-0.1 0.3 0 0.5 0 0.2 0.2 0.4 0.1 0.2 0.3 0.3 0.2 0.1 0.5 0.1h7.1q0.4 0 0.7-0.2 0.3-0.3 0.4-0.7l0.7-5.1q0-0.3-0.1-0.5 0-0.2-0.2-0.4-0.1-0.1-0.3-0.2-0.3-0.1-0.5-0.1h-6.7q-0.3 0-0.6 0.2-0.3 0.3-0.4 0.6z"/>
	<path id="Layer" class="s3" d="m172.6 201.4l-1.5 5.3q-0.1 0.2 0 0.4 0 0.2 0.1 0.4 0.2 0.1 0.4 0.2 0.2 0.1 0.4 0.1h7.3q0.3 0 0.6-0.2 0.2-0.2 0.3-0.5l1.2-5.4q0-0.2 0-0.4-0.1-0.2-0.2-0.4-0.1-0.1-0.3-0.2-0.2-0.1-0.4-0.1l-7 0.1q-0.3 0-0.6 0.2-0.2 0.2-0.3 0.5z"/>
	<path id="Layer" class="s3" d="m241.3 201.9l1.1 5.2q0.1 0.4 0.4 0.6 0.2 0.2 0.6 0.2h7.4q0.3 0 0.5-0.1 0.2-0.1 0.4-0.3 0.1-0.2 0.1-0.5 0.1-0.2 0-0.4l-1.5-5.3q-0.1-0.3-0.4-0.5-0.3-0.2-0.6-0.2h-7q-0.3 0-0.5 0.1-0.2 0.1-0.3 0.3-0.2 0.2-0.2 0.4-0.1 0.2 0 0.5z"/>
	<path id="Layer" class="s3" d="m201.8 201.6l-0.2 5.2q-0.1 0.2 0 0.4 0.1 0.2 0.2 0.3 0.2 0.2 0.4 0.3 0.2 0.1 0.4 0.1h37.8q0.2 0 0.4-0.1 0.2-0.1 0.4-0.3 0.1-0.2 0.2-0.4 0-0.2 0-0.5l-1.1-5.2q-0.1-0.3-0.4-0.6-0.3-0.2-0.6-0.2h-36.4q-0.5 0-0.8 0.3-0.3 0.3-0.3 0.7z"/>
	<path id="Layer" class="s3" d="m164.3 201.1l-2 5.6q0 0.2 0 0.4 0 0.2 0.1 0.3 0.2 0.2 0.3 0.3 0.2 0.1 0.4 0.1h6.2q0.3 0 0.5-0.2 0.2-0.1 0.3-0.4l1.6-5.5q0-0.2 0-0.4-0.1-0.2-0.2-0.4-0.1-0.1-0.3-0.2-0.2-0.1-0.3-0.1h-5.7q-0.3 0-0.5 0.1-0.3 0.2-0.4 0.4z"/>
	<path id="Layer" class="s3" d="m251.4 202l1.5 5.2q0.1 0.4 0.4 0.6 0.3 0.2 0.6 0.2h6.8q0.3 0 0.5-0.1 0.2-0.1 0.4-0.4 0.1-0.2 0.2-0.4 0-0.3-0.1-0.5l-2-5.3q-0.1-0.3-0.4-0.5-0.3-0.2-0.6-0.2h-6.4q-0.2 0-0.4 0.2-0.2 0.1-0.4 0.3-0.1 0.2-0.1 0.4-0.1 0.3 0 0.5z"/>
	<path id="Layer" class="s3" d="m277.6 181.3c0 0.1-25.6 0.3-57.1 0.3-31.6 0-57.1-0.2-57.1-0.3 0-0.2 25.5-0.3 57.1-0.3 31.5 0 57.1 0.1 57.1 0.3z"/>
	<path id="Layer" fill-rule="evenodd" class="s7" d="m198.2 133.3q1.5-1.3 3.4-2.2l0.2-3.8 6.2-1 1.4 3.5q2.1 0.2 4 0.9l2.8-2.5 5.1 3.7-1.5 3.4q1.4 1.6 2.2 3.5l3.8 0.2 1 6.1-3.5 1.5q-0.2 2-0.9 4l2.5 2.8-3.6 5.1-3.5-1.5q-1.6 1.3-3.5 2.1l-0.2 3.8-6.1 1-1.5-3.5q-2-0.2-4-0.9l-2.7 2.5-5.1-3.6 1.4-3.5q-1.3-1.6-2.1-3.4l-3.8-0.3-1-6.1 3.5-1.4q0.2-2.1 0.9-4l-2.5-2.9 3.6-5 3.5 1.4zm4.5 7.7c-0.8 1.1-1.2 2.4-1.2 3.7-0.1 1.4 0.3 2.7 1 3.8 0.7 1.1 1.7 2 2.9 2.5 1.2 0.6 2.6 0.7 3.9 0.5 1.3-0.2 2.5-0.8 3.4-1.7 1-0.9 1.7-2.1 2-3.4 0.3-1.2 0.2-2.6-0.3-3.8-0.4-1.3-1.3-2.3-2.3-3.1q-1.1-0.8-2.4-1.1-1.3-0.3-2.6-0.1-1.4 0.3-2.5 1-1.1 0.7-1.9 1.8z"/>
	<path id="Layer" fill-rule="evenodd" class="s7" d="m232.1 148.9q1-0.9 2.3-1.4l0.1-2.6 4.2-0.7 1 2.4q1.4 0.1 2.7 0.6l1.9-1.7 3.4 2.5-1 2.3q0.9 1.1 1.5 2.3l2.5 0.2 0.7 4.2-2.3 1q-0.2 1.3-0.7 2.6l1.7 1.9-2.4 3.5-2.4-1q-1 0.9-2.3 1.5l-0.1 2.5-4.2 0.7-1-2.4q-1.4-0.1-2.7-0.6l-1.9 1.7-3.4-2.4 1-2.4q-0.9-1-1.5-2.3l-2.5-0.2-0.7-4.1 2.3-1q0.1-1.4 0.6-2.7l-1.7-1.9 2.5-3.4 2.3 1zm3.1 5.2c-0.5 0.7-0.8 1.6-0.8 2.5-0.1 0.9 0.2 1.8 0.6 2.5 0.5 0.8 1.2 1.4 2 1.8 0.8 0.3 1.8 0.4 2.6 0.3 0.9-0.2 1.7-0.6 2.4-1.2 0.6-0.6 1.1-1.4 1.3-2.3 0.2-0.8 0.1-1.7-0.2-2.6-0.3-0.8-0.9-1.6-1.6-2.1-1-0.7-2.2-0.9-3.4-0.7-1.1 0.2-2.2 0.8-2.9 1.8z"/>
	<path id="Layer" fill-rule="evenodd" class="s7" d="m230.1 124.6q1-0.8 2.1-1.3l0.1-2.3 3.7-0.6 0.8 2.1q1.3 0.1 2.4 0.6l1.7-1.5 3 2.1-0.9 2.1q0.8 1 1.3 2.1l2.3 0.1 0.6 3.7-2.1 0.8q-0.1 1.3-0.5 2.4l1.5 1.7-2.2 3.1-2.1-0.9q-0.9 0.8-2.1 1.3l-0.1 2.2-3.7 0.6-0.8-2.1q-1.3-0.1-2.4-0.5l-1.7 1.5-3-2.2 0.9-2q-0.8-1-1.3-2.1l-2.3-0.2-0.6-3.6 2.1-0.9q0.1-1.2 0.6-2.4l-1.5-1.6 2.1-3 2.1 0.8zm2.7 4.7c-0.4 0.6-0.7 1.4-0.7 2.1-0.1 0.8 0.2 1.6 0.6 2.3 0.4 0.7 1 1.2 1.7 1.5 0.7 0.3 1.5 0.4 2.3 0.3 0.8-0.1 1.5-0.5 2.1-1 0.6-0.6 1-1.3 1.2-2 0.1-0.8 0.1-1.6-0.2-2.3-0.3-0.8-0.8-1.4-1.4-1.9q-0.6-0.4-1.4-0.6-0.8-0.2-1.6-0.1-0.8 0.2-1.5 0.6-0.6 0.4-1.1 1.1z"/>
	<path id="Layer" class="s3" d="m186.2 147.1l0.7-1.7c0.8 0.5 1.6 0.8 2.6 0.8 0.9 0 1.2-0.2 1.2-0.6 0-1.3-4.4-0.3-4.4-3.2 0-1.4 1.1-2.5 3.4-2.5 1-0.1 2 0.2 2.9 0.6l-0.7 1.7c-0.7-0.4-1.4-0.6-2.2-0.6-0.9 0-1.2 0.3-1.2 0.7 0 1.1 4.4 0.3 4.4 3.1 0 1.4-1.2 2.5-3.5 2.5-1.1 0-2.2-0.3-3.2-0.8z"/>
	<path id="Layer" fill-rule="evenodd" class="s3" d="m193.5 143.9c-0.1-0.9 0.1-1.7 0.5-2.5 0.5-0.7 1.1-1.3 1.9-1.7 0.8-0.4 1.7-0.5 2.5-0.4 0.9 0.1 1.7 0.5 2.3 1.1 0.7 0.6 1.1 1.4 1.3 2.2 0.2 0.9 0.1 1.7-0.2 2.6-0.3 0.8-0.9 1.5-1.6 1.9-0.7 0.5-1.6 0.8-2.4 0.8q-0.9 0.1-1.6-0.2-0.8-0.3-1.4-0.9-0.7-0.5-1-1.3-0.3-0.8-0.3-1.6zm6.4 0q-0.1-0.6-0.4-1.1-0.4-0.5-1-0.8-0.6-0.2-1.2 0-0.6 0.1-1 0.6-0.5 0.4-0.6 1-0.1 0.7 0.2 1.2 0.2 0.6 0.7 1 0.6 0.3 1.2 0.3 0.4 0 0.8-0.2 0.4-0.1 0.7-0.4 0.3-0.4 0.5-0.8 0.1-0.4 0.1-0.8z"/>
	<path id="Layer" class="s3" d="m205.4 141.7v1.7h3.4v1.7h-3.4v2.7h-2.2v-7.8h6.1v1.7z"/>
	<path id="Layer" class="s3" d="m212.1 141.8l-2.4-0.1v-1.7h6.9v1.7h-2.4v6h-2.1z"/>
	<path id="Layer" class="s3" d="m229.4 140l-2.5 7.7h-2.4l-1.5-4.6-1.5 4.7h-2.4l-2.5-7.8h2.3l1.6 4.9 1.6-4.9h2l1.5 5 1.7-5z"/>
	<path id="Layer" fill-rule="evenodd" class="s3" d="m235.1 146.3l-3.3-0.1-0.6 1.6h-2.2l3.4-7.8h2.2l3.4 7.8h-2.3zm-0.6-1.7l-1-2.4-1 2.4z"/>
	<path id="Layer" fill-rule="evenodd" class="s3" d="m242 145.7h-1.2v2.1h-2.2v-7.8h3.5c2.2 0 3.5 1.1 3.5 2.9 0 0.5-0.1 1-0.4 1.4-0.3 0.5-0.7 0.8-1.1 1l1.6 2.4h-2.3zm0-4h-1.2v2.3h1.2c0.9 0 1.4-0.4 1.4-1.1 0-0.7-0.5-1.1-1.4-1.1z"/>
	<path id="Layer" class="s3" d="m253 146.1v1.7h-6.2v-7.8h6.1v1.7h-3.9v1.3h3.4v1.6h-3.4v1.5z"/>
	<path id="Layer" class="s3" d="m184.6 149.7h1v7.4h-1z"/>
	<path id="Layer" class="s3" d="m194.2 149.7v7.4h-0.9l-4.4-5.5v5.5h-1.1v-7.4h0.9l4.4 5.5v-5.5z"/>
	<path id="Layer" class="s3" d="m197.8 150.6h-2.5v-0.9h6.1v0.9h-2.5v6.5h-1z"/>
	<path id="Layer" class="s3" d="m207.9 156.2v0.9h-5.3v-7.4h5.2v0.9h-4.2v2.3h3.7v0.9h-3.7v2.4z"/>
	<path id="Layer" class="s3" d="m214.7 153.3h1v2.9c-0.8 0.6-1.7 1-2.8 0.9q-0.9 0-1.7-0.5-0.8-0.4-1.3-1.2-0.5-0.8-0.6-1.8 0-0.9 0.4-1.8 0.3-0.8 1.1-1.4 0.7-0.6 1.6-0.7 1-0.2 1.9 0.1 0.9 0.3 1.5 0.9l-0.6 0.7q-0.5-0.4-1-0.7-0.6-0.2-1.2-0.2c-0.7 0-1.5 0.3-2 0.9-0.5 0.5-0.8 1.2-0.8 2 0 0.7 0.3 1.4 0.8 2 0.5 0.5 1.3 0.8 2 0.8 0.6 0 1.2-0.1 1.7-0.5z"/>
	<path id="Layer" fill-rule="evenodd" class="s3" d="m222.7 157.1l-1.6-2.3h-2.3v2.3h-1v-7.4h2.9c1.9 0 3 1 3 2.5 0.1 0.5-0.1 1.1-0.4 1.5-0.3 0.4-0.7 0.7-1.2 0.9l1.8 2.5zm0-4.9c0-1-0.7-1.6-2.1-1.6h-1.8v3.3h1.8c1.4 0 2-0.6 2-1.7z"/>
	<path id="Layer" fill-rule="evenodd" class="s3" d="m230.2 155.2h-4l-0.8 1.9h-1.1l3.4-7.4h1l3.3 7.4h-1zm-0.4-0.9l-1.6-3.6-1.6 3.6z"/>
	<path id="Layer" class="s3" d="m234.3 150.6h-2.6v-0.9h6.1v0.9h-2.5v6.5h-1z"/>
	<path id="Layer" class="s3" d="m239 149.7h1v7.4h-1z"/>
	<path id="Layer" fill-rule="evenodd" class="s3" d="m241.7 153.4c-0.1-0.8 0.1-1.6 0.5-2.3 0.5-0.6 1.1-1.1 1.8-1.5 0.7-0.3 1.5-0.4 2.3-0.3 0.7 0.2 1.4 0.5 2 1.1 0.6 0.5 1 1.2 1.1 2 0.2 0.8 0.1 1.6-0.2 2.3-0.3 0.7-0.8 1.3-1.4 1.8-0.7 0.4-1.4 0.6-2.2 0.6q-0.8 0.1-1.5-0.2-0.7-0.3-1.3-0.8-0.5-0.5-0.8-1.2-0.3-0.8-0.3-1.5zm6.8 0c0-0.6-0.2-1.2-0.5-1.6-0.3-0.5-0.8-0.9-1.3-1.1-0.5-0.2-1.1-0.3-1.7-0.2-0.5 0.1-1 0.4-1.4 0.8-0.5 0.4-0.7 0.9-0.8 1.5-0.2 0.5-0.1 1.1 0.1 1.6 0.2 0.6 0.6 1 1.1 1.3 0.5 0.3 1 0.5 1.6 0.5q0.6 0 1.1-0.2 0.5-0.2 0.9-0.6 0.4-0.4 0.7-0.9 0.2-0.6 0.2-1.1z"/>
	<path id="Layer" class="s3" d="m257.5 149.7v7.4h-0.9l-4.4-5.5v5.5h-1.1v-7.4h0.9l4.4 5.5v-5.5z"/>
	<path id="Layer" class="s8" d="m282.3 220.5l-35 35c-2 2-2 5.2 0 7.2 2 2.1 5.3 2.1 7.3 0l35-34.9c2-2.1 2-5.3 0-7.3-2.1-2-5.3-2-7.3 0z"/>
	<path id="Layer" class="s8" d="m247.3 227.8l35 34.9c2 2.1 5.2 2.1 7.3 0 2-2 2-5.2 0-7.2l-35-35c-2-2-5.3-2-7.3 0-2 2-2 5.2 0 7.3z"/>
	<path id="Layer" fill-rule="evenodd" class="s9" d="m340 326c-3.6 0-6.7-1.3-9.2-3.9l-28.3-28.2q-15.3 10.1-34 10.1-12.7 0-24.3-4.9-11.5-4.9-20-13.3-8.4-8.5-13.3-20-4.9-11.6-4.9-24.3 0-12.7 4.9-24.3 4.9-11.5 13.3-20 8.5-8.4 20-13.3 11.6-4.9 24.3-4.9 12.7 0 24.3 4.9 11.5 4.9 20 13.3 8.4 8.5 13.3 20 4.9 11.6 4.9 24.3 0 18.7-10.1 34l28.3 28.4c2.5 2.5 3.8 5.5 3.8 9.1 0 3.5-1.3 6.6-3.9 9.1-2.5 2.6-5.6 3.9-9.1 3.9zm-71.5-121c-10.1 0-18.6 3.6-25.8 10.7-7.1 7.2-10.7 15.7-10.7 25.8 0 10.1 3.6 18.6 10.7 25.8 7.2 7.1 15.7 10.7 25.8 10.7 10.1 0 18.6-3.6 25.8-10.7 7.1-7.2 10.7-15.7 10.7-25.8 0-10.1-3.6-18.6-10.7-25.8-7.2-7.1-15.7-10.7-25.8-10.7z"/>
</svg>