<svg version="1.2" xmlns="http://www.w3.org/2000/svg" viewBox="0 0 490 356" width="490" height="356">
	<title>NoItems-svg</title>
	<style>
		.s0 { fill: none;stroke: #c0bebc;stroke-linecap: round;stroke-width: 11.7 } 
		.s1 { fill: #c0bebc } 
		.s2 { fill: none;stroke: #dfdfdf;stroke-linecap: round;stroke-width: 11.7 } 
		.s3 { fill: #dfdfdf;stroke: #dfdfdf;stroke-width: 3.9 } 
		.s4 { fill: none;stroke: #febfab;stroke-linecap: round;stroke-width: 11.7 } 
		.s5 { fill: #ff5833 } 
	</style>
	<path id="Layer" class="s0" d="m35.2 38.1h92.7c8.7 0 15.7 7 15.7 15.6v54.3c0 8.6-7 15.6-15.7 15.6h-92.7c-8.7 0-15.7-7-15.7-15.6v-54.3c0-8.6 7-15.6 15.7-15.6z"/>
	<path id="Layer" fill-rule="evenodd" class="s0" d="m39.1 85h66.4m-66.4 19.5h35.2"/>
	<path id="Layer" class="s1" d="m44.4 50.9h7.9c4.4 0 7.9 3.5 7.9 7.8v7.9c0 4.3-3.5 7.8-7.9 7.8h-7.9c-4.3 0-7.8-3.5-7.8-7.8v-7.9c0-4.3 3.5-7.8 7.8-7.8z"/>
	<path id="Layer" class="s0" d="m66.4 252.9h92.8c8.6 0 15.6 7 15.6 15.7v54.2c0 8.7-7 15.7-15.6 15.7h-92.8c-8.6 0-15.6-7-15.6-15.7v-54.2c0-8.7 7-15.7 15.6-15.7z"/>
	<path id="Layer" fill-rule="evenodd" class="s0" d="m70.3 299.8h66.4m-66.4 19.5h35.2"/>
	<path id="Layer" class="s1" d="m75.7 265.8h7.9c4.3 0 7.8 3.5 7.8 7.8v7.9c0 4.3-3.5 7.8-7.8 7.8h-7.9c-4.3 0-7.8-3.5-7.8-7.8v-7.9c0-4.3 3.5-7.8 7.8-7.8z"/>
	<path id="Layer" class="s0" d="m367.2 81.1h92.8c8.6 0 15.6 7 15.6 15.6v54.3c0 8.6-7 15.6-15.6 15.6h-92.8c-8.6 0-15.6-7-15.6-15.6v-54.3c0-8.6 7-15.6 15.6-15.6z"/>
	<path id="Layer" fill-rule="evenodd" class="s0" d="m371.1 127.9h66.4m-66.4 19.6h35.2"/>
	<path id="Layer" class="s1" d="m376.5 93.9h7.9c4.3 0 7.8 3.5 7.8 7.8v7.9c0 4.3-3.5 7.8-7.8 7.8h-7.9c-4.3 0-7.8-3.5-7.8-7.8v-7.9c0-4.3 3.5-7.8 7.8-7.8z"/>
	<path id="Layer" class="s2" d="m199.2 127.9h92.8c8.6 0 15.6 7 15.6 15.7v54.2c0 8.7-7 15.7-15.6 15.7h-92.8c-8.6 0-15.6-7-15.6-15.7v-54.2c0-8.7 7-15.7 15.6-15.7z"/>
	<path id="Layer" fill-rule="evenodd" class="s2" d="m202.8 175h66.3m-66.3 14.9h35.2"/>
	<path id="Layer" class="s3" d="m208.5 142.7h7.9c3.2 0 5.9 2.6 5.9 5.9v7.9c0 3.2-2.7 5.8-5.9 5.8h-7.9c-3.2 0-5.8-2.6-5.8-5.8v-7.9c0-3.3 2.6-5.9 5.8-5.9z"/>
	<path id="Layer" fill-rule="evenodd" class="s4" d="m162.1 39.3c37-23.5 81.9-29.8 123.1-18.8 25.3 6.8 49.3 20.1 69.3 40m-254.5 163.1c-9-24.4-11.7-50.6-8-76.1zm228.2 76.8c-34.7 22.1-76.3 29-115.3 20.7zm70.6-111.9c-2.7 21.8-9.9 43.2-21.8 62.5z"/>
	<path id="Layer" fill-rule="evenodd" class="s5" d="m339.1 242.4l65 65c5.6 5.6 5.6 14.7 0 20.3-5.6 5.5-14.7 5.5-20.3 0l-64.9-65c-46.3 36.4-113.6 33.3-156.2-9.4-46.1-46-46.1-120.7 0-166.7 46-46.1 120.7-46.1 166.7 0 42.6 42.5 45.8 109.5 9.7 155.8zm-157.1-8.4c35.4 35.4 92.7 35.4 128.1 0 35.4-35.4 35.4-92.7 0-128.1-35.4-35.4-92.7-35.4-128.1 0-35.4 35.4-35.4 92.7 0 128.1z"/>
</svg>