<svg width="715" height="482" viewBox="0 0 715 482" fill="none" xmlns="http://www.w3.org/2000/svg">
<path d="M533.084 427.068C591.721 431.204 665.024 407.953 697.36 356.972C710.75 335.862 719.642 308.767 710.321 285.414C703.262 267.728 673.397 247.734 666.951 229.796C660.415 211.607 661.342 191.119 664.697 171.997C674.34 117.042 620.723 31.2551 507.5 22.1011C421.646 15.1601 382.812 81.8921 309.745 91.0001C236.011 100.191 149.551 45.0431 96.8091 91.0001C31.3081 148.075 62.0461 205.206 70.0181 231.936C80.2591 266.275 30.202 305.468 40.525 356.021C63.607 469.061 231.366 392.832 280.535 388.059C330.471 383.212 380.028 397.425 428.965 408.835C477.901 420.245 529.732 428.829 577.566 413.167L533.084 427.068Z" fill="#FFF7F3"/>
<path d="M353.174 481.098C547.888 481.098 705.735 473.576 705.735 464.298C705.735 455.02 547.888 447.498 353.174 447.498C158.46 447.498 0.613281 455.02 0.613281 464.298C0.613281 473.576 158.46 481.098 353.174 481.098Z" fill="#F2EEE9"/>
<path d="M46.2928 176.512L45.2278 176.632C42.8508 155.683 49.2648 135.329 65.4148 112.575L66.2888 113.195C50.3008 135.721 43.9468 155.841 46.2928 176.512Z" fill="#82562E"/>
<path d="M39.5443 190.539L38.5213 190.86C26.2633 151.81 47.2913 120.185 69.4783 94.3992L70.2913 95.0982C48.2963 120.661 27.4433 151.99 39.5443 190.539Z" fill="#82562E"/>
<path d="M556.832 24.236C532.236 11.662 511.412 8.27703 491.295 13.576L491.022 12.54C511.408 7.16704 532.475 10.58 557.32 23.281L556.832 24.236Z" fill="#82562E"/>
<path d="M575.317 25.5881C546.853 7.50807 512.845 -8.61293 476.442 8.92007L475.977 7.95407C512.852 -9.80393 547.177 6.44507 575.893 24.6841L575.317 25.5881Z" fill="#82562E"/>
<path d="M262.78 132.701L261.221 132.658C261.243 131.865 261.281 131.075 261.336 130.289L262.891 130.398C262.839 131.162 262.801 131.931 262.78 132.701Z" fill="#9F673F"/>
<path d="M369.088 119.656C368.667 118.141 368.173 116.627 367.621 115.155L369.081 114.607C369.649 116.121 370.157 117.679 370.59 119.238L369.088 119.656ZM263.431 125.692L261.891 125.447C262.145 123.851 262.475 122.245 262.869 120.674L264.381 121.054C263.997 122.58 263.678 124.141 263.431 125.692ZM365.764 110.8C365.085 109.383 364.333 107.979 363.532 106.627L364.873 105.832C365.698 107.224 366.471 108.668 367.17 110.126L365.764 110.8ZM265.736 116.515L264.263 116.004C264.793 114.477 265.398 112.954 266.061 111.476L267.484 112.114C266.839 113.551 266.251 115.031 265.736 116.515ZM360.942 102.666C360.027 101.392 359.041 100.14 358.014 98.9461L359.196 97.9291C360.253 99.1571 361.267 100.445 362.209 101.757L360.942 102.666ZM269.609 107.881L268.248 107.121C269.036 105.708 269.897 104.312 270.805 102.975L272.095 103.85C271.212 105.151 270.375 106.508 269.609 107.881ZM354.771 95.4941C353.645 94.3951 352.457 93.3341 351.24 92.3381L352.228 91.1321C353.479 92.1561 354.701 93.2481 355.859 94.3781L354.771 95.4941ZM274.92 100.05L273.71 99.0661C274.731 97.8121 275.819 96.5871 276.945 95.4251L278.065 96.5101C276.97 97.6401 275.912 98.8311 274.92 100.05ZM347.45 89.5011C346.15 88.6131 344.797 87.7731 343.427 87.0031L344.191 85.6441C345.6 86.4361 346.992 87.3001 348.33 88.2131L347.45 89.5011ZM281.505 93.2581L280.484 92.0791C281.709 91.0181 282.993 90.0011 284.302 89.0551L285.216 90.3181C283.945 91.2381 282.696 92.2271 281.505 93.2581ZM339.2 84.8651C337.766 84.2171 336.288 83.6241 334.805 83.1041L335.321 81.6331C336.847 82.1681 338.368 82.7781 339.843 83.4451L339.2 84.8651ZM289.169 87.7151L288.37 86.3761C289.759 85.5461 291.202 84.7691 292.657 84.0661L293.336 85.4701C291.921 86.1531 290.519 86.9091 289.169 87.7151ZM330.272 81.7351C328.747 81.3471 327.187 81.0221 325.636 80.7701L325.886 79.2311C327.482 79.4911 329.087 79.8251 330.656 80.2241L330.272 81.7351ZM297.684 83.5981L297.132 82.1401C298.645 81.5671 300.201 81.0541 301.759 80.6161L302.182 82.1171C300.667 82.5431 299.154 83.0421 297.684 83.5981ZM320.935 80.2151C319.366 80.1011 317.774 80.0541 316.203 80.0771L316.18 78.5181C317.796 78.4951 319.434 78.5421 321.048 78.6601L320.935 80.2151ZM306.79 81.0341L306.5 79.5021C308.09 79.2011 309.716 78.9651 311.319 78.8011L311.477 80.3521C309.918 80.5111 308.337 80.7411 306.79 81.0341Z" fill="#9F673F"/>
<path d="M372.085 126.385L370.541 126.605C370.432 125.84 370.308 125.082 370.168 124.329L371.701 124.045C371.845 124.819 371.973 125.599 372.085 126.385Z" fill="#9F673F"/>
<path d="M267.549 133.201L261.888 135.904L256.012 133.706L262.379 147.128L267.549 133.201Z" fill="#9F673F"/>
<path d="M214.395 210.345C214.161 206.794 215.611 202.622 216.558 203.035C217.505 203.448 216.622 206.768 217.283 207.766C218.153 209.078 218.901 210.307 218.257 213.402L214.395 210.345Z" fill="#FCB47E"/>
<path d="M182.395 458.148L179.563 435.272H196.335L197.072 458.148H182.395Z" fill="#FCB47E"/>
<path d="M196.753 448.261C190.417 449.918 181.004 446.903 181.004 446.903L180.338 441.472L196.578 442.838L196.753 448.261Z" fill="#FCA377"/>
<path d="M102.407 458.148L103.955 435.272H120.727L117.083 458.148H102.407Z" fill="#FCB47E"/>
<path d="M119.943 440.159L118.796 447.377C111.053 447.833 105.552 444.968 103.397 443.593L103.87 436.568L119.943 440.159Z" fill="#FCA377"/>
<path d="M218.072 443.806C218.072 443.806 206.871 303.138 176.625 234.753L148.507 236.163C148.507 236.163 150.907 335.205 172.002 443.806C172.002 443.806 198.391 450.068 218.072 443.806Z" fill="#FF5733"/>
<path d="M138.396 443.806C138.396 443.806 110.725 448.279 94.9404 437.544C94.9404 437.544 103.345 285.023 129.085 235.014H159.349C159.349 235.014 158.36 317.227 138.396 443.806Z" fill="#FF5733"/>
<path d="M129.758 162.608C130.503 159.945 131.904 156.547 131.904 156.547C131.414 159.096 131.405 161.916 131.457 163.441C138.026 166.454 151.752 170.378 173.063 165.166C172.791 162.976 172.669 160.9 172.669 160.9C173.046 162.293 173.589 163.694 174.114 164.903C174.876 164.71 175.638 164.509 176.418 164.29C175.779 161.583 175.507 156.88 175.507 156.88C176.252 159.709 177.723 162.591 178.345 163.738C179.641 163.344 180.964 162.923 182.313 162.468C182.313 162.468 178.065 155.986 175.279 139.116C172.984 125.25 165.872 118.699 155.063 118.988C132.832 119.584 126.902 160.839 126.902 160.839C126.902 160.839 127.849 161.592 129.758 162.608Z" fill="#634C37"/>
<path d="M206.608 211.535C206.608 211.535 197.7 171.431 162.277 169.357C107.755 166.165 90.998 201.629 90.998 201.629L206.608 211.535Z" fill="white"/>
<path d="M150.165 129.157C156.184 125.718 166.751 125.57 169.168 133.714C171.398 141.229 171.042 163.895 160.982 163.465C150.466 163.016 147.148 155.022 146.21 150.137C145.873 148.382 144.146 132.596 150.165 129.157Z" fill="#FCB47E"/>
<path d="M146.463 149.737C146.463 149.737 141.764 151.183 140.887 146.959C140.096 143.148 144.62 141.663 146.077 143.332L146.463 149.737Z" fill="#FCB47E"/>
<path d="M211.543 259.841C218.283 246.644 223.548 215.816 223.548 215.816C224.33 214.603 227.602 209.355 227.808 205.358C227.895 203.581 226.997 202.525 225.794 203.107C225.362 201.663 224.505 201.4 223.348 202.245C222.702 200.982 221.912 201.032 221.125 201.648C219.402 198.763 215.97 207.904 215.988 209.048C215.999 209.815 216.232 212.628 216.348 213.457C216.502 214.553 196.136 249.263 196.136 249.263L211.543 259.841Z" fill="#FCB47E"/>
<path d="M100.44 440.013L99.5361 439.953C99.6361 438.428 109.882 286.865 135.9 237.619L136.701 238.042C110.772 287.118 100.54 438.489 100.44 440.013Z" fill="white"/>
<path d="M122.503 210.589L112.961 265.157C137.861 272.637 165.961 265.917 188.94 250.67L179.423 196.855L161.714 169.888C161.714 169.888 153.079 179.741 143.562 169.664L118.775 180.06L122.503 210.589Z" fill="white"/>
<path d="M213.155 222.42L208.127 209.952C208.127 209.952 195.544 184.373 185.19 177.758L178.562 222.516L213.155 222.42Z" fill="white"/>
<path d="M154.348 321.193L153.464 321.11C154.896 305.826 156.087 290.878 157.005 276.684L157.891 276.741C156.973 290.944 155.781 305.9 154.348 321.193Z" fill="#473E39"/>
<path d="M178.716 444.122C178.528 443.222 159.865 353.678 154.556 308.559L155.456 308.453C160.759 353.533 179.415 443.038 179.602 443.937L178.716 444.122Z" fill="white"/>
<path d="M179.861 196.795L178.998 196.947L188.496 250.766L189.359 250.614L179.861 196.795Z" fill="#9F673F"/>
<path d="M142.626 142.489C142.626 142.489 144.308 141.517 145.981 143.295C145.981 143.295 146.426 139.74 147.626 137.497L148.381 141.464C149.598 141.657 153.476 142.292 157.727 142.375C158.924 142.398 162.293 142.375 162.293 142.375L163.061 135.744L164.497 142.243C165.487 142.164 166.256 142.059 167.044 141.954L167.606 138.056L168.692 141.726C169.752 141.551 170.488 141.384 170.847 141.306C171.066 138.521 171.154 131.005 166.187 126.652C160.485 121.659 148.424 124.401 145.629 130.383C142.836 136.366 142.626 142.489 142.626 142.489Z" fill="#634C37"/>
<path d="M153.887 174.248C158.881 174.248 161.847 169.887 161.847 169.887L160.597 155.444L146.861 147.281L143.396 169.663C143.396 169.663 147.694 174.248 153.887 174.248Z" fill="#FCB47E"/>
<path d="M160.515 164.275L160.553 163.4C154.302 163.133 150.3 158.354 148.044 154.391L147.283 154.825C149.648 158.979 153.863 163.991 160.515 164.275Z" fill="#634C37"/>
<path d="M178.56 468.912L220.95 469.068C222.426 469.073 223.611 467.828 223.505 466.356C223.504 466.338 223.502 466.32 223.501 466.302C223.473 465.978 223.435 465.645 223.387 465.311C223.244 464.183 222.944 463.054 222.417 462.346C220.417 459.671 216.518 458.441 209.576 455.66C205.219 453.908 201.521 451.59 199.897 450.506C199.369 450.151 198.682 450.237 198.219 450.676C189.805 458.843 184.663 457.078 183.136 453.69C181.969 451.107 180.3 451.64 179.836 452.393C178.415 454.751 177.615 461.671 177.288 465.141C177.247 465.513 177.217 465.857 177.196 466.131C177.145 466.778 177.114 467.17 177.114 467.17C176.954 468.073 177.648 468.909 178.56 468.912Z" fill="#634C37"/>
<path d="M207.16 460.1C210.175 458.651 209.739 455.54 209.735 455.508L209.008 455.617C209.023 455.723 209.358 458.227 206.842 459.436L207.16 460.1Z" fill="white"/>
<path d="M210.877 461.362C213.652 459.809 213.367 457.109 213.353 456.995L212.623 457.079C212.634 457.174 212.853 459.414 210.518 460.721L210.877 461.362Z" fill="white"/>
<path d="M186.957 459.427C189.793 459.437 192.365 458.154 192.407 458.132L192.073 457.477C192.008 457.511 185.564 460.719 182.274 456.59L181.699 457.048C183.145 458.863 185.107 459.42 186.957 459.427Z" fill="white"/>
<path d="M182.375 465.623L182.372 466.358L207.074 466.45L207.077 465.715L182.375 465.623Z" fill="white"/>
<path d="M210.245 465.721L210.242 466.456L216.084 466.478L216.087 465.743L210.245 465.721Z" fill="white"/>
<path d="M99.1749 468.912L141.565 469.068C143.041 469.073 144.226 467.828 144.119 466.356C144.118 466.338 144.116 466.32 144.115 466.302C144.087 465.978 144.049 465.645 144.001 465.311C143.858 464.183 143.558 463.054 143.031 462.346C141.031 459.671 137.132 458.441 130.19 455.66C125.833 453.908 122.135 451.59 120.511 450.506C119.983 450.151 119.296 450.237 118.833 450.676C110.419 458.843 105.277 457.078 103.75 453.69C102.583 451.107 100.914 451.64 100.45 452.393C99.0288 454.751 98.2288 461.671 97.9028 465.141C97.8618 465.513 97.8319 465.857 97.8109 466.131C97.7599 466.778 97.7289 467.17 97.7289 467.17C97.5699 468.073 98.2629 468.909 99.1749 468.912Z" fill="#634C37"/>
<path d="M127.775 460.1C130.79 458.651 130.354 455.54 130.35 455.508L129.623 455.617C129.638 455.723 129.973 458.227 127.457 459.436L127.775 460.1Z" fill="white"/>
<path d="M131.492 461.362C134.267 459.809 133.982 457.109 133.968 456.995L133.238 457.079C133.249 457.174 133.468 459.414 131.133 460.721L131.492 461.362Z" fill="white"/>
<path d="M107.571 459.427C110.407 459.437 112.979 458.154 113.021 458.132L112.687 457.477C112.622 457.511 106.178 460.719 102.888 456.59L102.313 457.048C103.76 458.863 105.722 459.42 107.571 459.427Z" fill="white"/>
<path d="M102.989 465.624L102.986 466.359L127.688 466.451L127.691 465.716L102.989 465.624Z" fill="white"/>
<path d="M130.86 465.722L130.857 466.457L136.699 466.479L136.702 465.744L130.86 465.722Z" fill="white"/>
<path d="M124.362 326.398L265.956 304.041C268.871 303.581 270.879 300.819 270.419 297.905L256.031 206.778C255.571 203.863 252.809 201.855 249.895 202.315L108.3 224.671C105.385 225.131 103.377 227.893 103.837 230.807L118.225 321.934C118.686 324.85 121.447 326.858 124.362 326.398Z" fill="#F08C6D"/>
<path d="M152.347 289.407L126.857 293.432C126.068 293.557 125.32 293.013 125.195 292.223L124.421 287.324C124.296 286.535 124.84 285.787 125.63 285.662L151.12 281.637C151.909 281.512 152.657 282.056 152.782 282.846L153.555 287.745C153.68 288.535 153.136 289.283 152.347 289.407Z" fill="white"/>
<path d="M186.041 284.087L160.551 288.112C159.762 288.237 159.014 287.693 158.889 286.903L158.116 282.004C157.991 281.214 158.535 280.467 159.325 280.342L184.815 276.317C185.604 276.192 186.352 276.736 186.477 277.526L187.25 282.425C187.374 283.215 186.83 283.963 186.041 284.087Z" fill="white"/>
<path d="M219.732 278.768L194.242 282.793C193.453 282.918 192.705 282.374 192.58 281.584L191.807 276.685C191.682 275.896 192.226 275.148 193.016 275.023L218.506 270.998C219.295 270.873 220.043 271.417 220.168 272.207L220.942 277.106C221.066 277.895 220.522 278.643 219.732 278.768Z" fill="white"/>
<path d="M253.425 273.448L227.935 277.473C227.146 277.598 226.398 277.054 226.273 276.264L225.499 271.365C225.374 270.576 225.918 269.828 226.708 269.703L252.198 265.678C252.987 265.553 253.735 266.097 253.86 266.887L254.634 271.786C254.758 272.575 254.214 273.323 253.425 273.448Z" fill="white"/>
<path d="M255.513 288.696L221.978 293.991C221.017 294.143 220.107 293.481 219.956 292.52L219.281 288.244C219.129 287.283 219.792 286.373 220.753 286.221L254.287 280.926C255.248 280.774 256.158 281.436 256.31 282.397L256.985 286.673C257.136 287.634 256.474 288.544 255.513 288.696Z" fill="white"/>
<path d="M125.588 252.71L123.977 242.506C123.625 240.276 125.153 238.175 127.383 237.823L147.205 234.693C149.435 234.341 151.536 235.869 151.888 238.099L153.499 248.303C153.851 250.533 152.323 252.634 150.093 252.986L130.271 256.116C128.041 256.468 125.94 254.94 125.588 252.71ZM127.554 238.909C125.922 239.167 124.805 240.704 125.062 242.335L126.673 252.539C126.931 254.171 128.468 255.288 130.099 255.031L149.922 251.901C151.554 251.643 152.671 250.107 152.414 248.475L150.803 238.271C150.545 236.639 149.008 235.522 147.377 235.779L127.554 238.909Z" fill="white"/>
<path d="M257.607 213.402L256.619 213.558L260.067 235.389L261.055 235.233L257.607 213.402Z" fill="#82562E"/>
<path d="M185.758 317.21L185.602 316.222L265.879 303.547C267.157 303.346 268.283 302.653 269.05 301.6C269.817 300.545 270.128 299.26 269.926 297.983L262.95 253.799L263.937 253.643L270.913 297.827C271.157 299.369 270.782 300.918 269.858 302.188C268.934 303.459 267.576 304.292 266.035 304.536L185.758 317.21Z" fill="#82562E"/>
<path d="M171.78 318.387L142.046 323.086L142.202 324.075L171.936 319.375L171.78 318.387Z" fill="#82562E"/>
<path d="M226.708 203.023C227.329 203.212 227.643 203.906 227.367 204.495C226.872 205.552 226.055 206.658 225.482 206.695C224.47 206.76 224.981 205.03 225.372 203.738C225.544 203.17 226.141 202.85 226.708 203.023Z" fill="#FCB47E"/>
<path d="M224.975 202.999C225.392 203.282 225.564 203.812 225.386 204.283C224.941 205.458 223.985 207.154 223.022 207.003C222.41 206.907 222.816 205.068 223.216 203.573C223.41 202.849 224.354 202.578 224.975 202.999Z" fill="#FCB47E"/>
<path d="M222.455 202.376C223.034 202.497 223.41 203.058 223.294 203.638C223.045 204.883 222.411 206.522 221.121 206.984C220.015 207.381 220.646 204.755 221.041 203.141C221.179 202.575 221.739 202.226 222.309 202.345L222.455 202.376Z" fill="#FCB47E"/>
<path d="M220.393 200.991C221.444 201.175 221.59 202.223 221.319 202.915C220.824 204.179 219.96 205.612 219.165 205.807C218.314 206.017 218.786 203.902 219.063 202.284C219.188 201.555 219.747 200.878 220.393 200.991Z" fill="#FCB47E"/>
<path d="M112.533 258.112C112.533 258.112 95.9652 233.847 121.609 216.553L136.298 175.242L136.299 174.966C119.097 174.879 100.609 185.403 90.5982 200.153C73.8572 224.818 75.5402 254.311 103.569 269.518L112.533 258.112Z" fill="white"/>
<path d="M120.936 221.726L120.047 221.552L122.549 208.842L123.438 209.016L120.936 221.726Z" fill="#9F673F"/>
<path d="M109.695 269.915C97.6162 263.362 89.7352 253.746 86.9022 242.106C83.6712 228.829 87.1022 213.838 96.5652 199.898L97.3142 200.407C87.9982 214.134 84.6122 228.867 87.7822 241.892C90.5522 253.276 98.2792 262.691 110.126 269.119L109.695 269.915Z" fill="#9F673F"/>
<path d="M110.964 260.11C111.804 260.783 114.427 263.036 115.488 263.218C116.472 263.386 121.905 263.613 121.753 264.761C121.593 265.964 117.887 265.029 117.923 265.999C117.945 266.597 125.18 268.549 124.452 269.816C123.974 270.647 119.754 268.869 119.668 269.391C119.589 269.876 125.246 270.983 124.6 272.25C123.923 273.578 118.479 270.231 118.202 270.861C118.065 271.173 124.675 273.548 124.12 274.569C123.378 275.934 118.302 272.572 117.91 273.166C117.717 273.458 119.723 274.325 120.851 274.992C121.476 275.362 121.279 275.926 120.786 275.904C115.678 275.676 109.27 269.463 108.452 269.171C107.235 268.736 106.054 268.284 104.907 267.814L110.964 260.11Z" fill="#FCB47E"/>
<path d="M111.132 227.879L110.349 227.423C112.779 223.248 116.483 219.464 121.357 216.177L121.863 216.928C117.103 220.138 113.493 223.822 111.132 227.879Z" fill="#9F673F"/>
<path d="M651.121 177.261C651.131 177.609 651.14 177.949 651.15 178.297C652.397 220.824 648.033 253.973 640.648 279.803L618.734 293.429L636.758 290.64L637.273 290.562C627.496 318.95 613.977 337.291 601.205 349.086C593.262 356.443 585.603 361.259 579.318 364.378C578.904 364.587 578.497 364.787 578.09 364.978C577.078 365.465 576.097 365.899 575.165 366.297L563.11 366.928C562.945 366.367 562.788 365.813 562.639 365.251C562.536 364.899 562.441 364.547 562.354 364.194C562.219 363.733 562.101 363.263 561.983 362.801C547.737 307.905 565.691 264.118 589.143 232.905C589.206 232.8 589.286 232.702 589.374 232.595C597.535 221.764 606.362 212.447 614.711 204.72L620.04 218.29L620.806 199.28C635.35 186.72 647.446 179.393 650.418 177.663C650.881 177.392 651.121 177.261 651.121 177.261Z" fill="#E5AC9A"/>
<path d="M651.549 177.46L651.151 178.297L626.396 230.13L625.949 231.047L619.203 245.18L618.974 245.652L597.453 290.706L597.422 290.767L562.355 364.194L561.826 365.293L560.99 367.038L559.938 367.093L560.766 365.349L561.985 362.801L596.591 290.343L597.237 288.999L650.419 177.663L650.711 177.053L651.549 177.46Z" fill="white"/>
<path d="M649.515 224.365L618.82 245.478L619.279 246.145L649.974 225.033L649.515 224.365Z" fill="white"/>
<path d="M649.702 214.06L625.643 230.609L626.102 231.276L650.161 214.728L649.702 214.06Z" fill="white"/>
<path d="M589.921 232.507L589.118 232.611L596.67 290.85L597.474 290.746L589.921 232.507Z" fill="white"/>
<path d="M558.266 376.343C558.266 376.343 586.839 389.843 627.488 365.606L614.307 359.351L635.823 360.215C651.688 349.116 669.102 332.199 687.18 306.742L682.15 304.359L688.673 304.617C691.72 300.265 694.787 295.666 697.867 290.807C697.867 290.807 685.93 289.748 668.865 291.722L660.105 303.583L662.588 292.567C627.693 297.862 576.894 316.144 558.266 376.343Z" fill="#F3C8BA"/>
<path d="M697.676 290.438L555.896 373.3L556.357 374.09L698.138 291.228L697.676 290.438Z" fill="white"/>
<path d="M660.958 312.303L660.871 313.148L681.167 315.239L681.254 314.395L660.958 312.303Z" fill="white"/>
<path d="M651.295 317.773L651.146 318.61L674.816 322.827L674.965 321.99L651.295 317.773Z" fill="white"/>
<path d="M591.666 324.233L590.953 323.432C602.853 312.857 617.34 304.609 634.012 298.918L634.359 299.934C617.823 305.577 603.459 313.752 591.666 324.233Z" fill="#82562E"/>
<path d="M307.753 256.542C307.802 256.887 307.849 257.223 307.898 257.568C313.772 299.706 323.612 331.66 335.207 355.894L359.09 365.668L340.853 365.929L340.332 365.938C354.714 392.294 371.106 408.12 385.669 417.616C394.729 423.543 403.085 427.012 409.802 429.037C410.246 429.174 410.68 429.303 411.113 429.424C412.192 429.735 413.232 429.999 414.217 430.235L426.208 428.843C426.277 428.262 426.339 427.69 426.392 427.111C426.435 426.747 426.47 426.383 426.497 426.021C426.553 425.544 426.591 425.061 426.63 424.586C431.506 368.082 406.491 327.908 378.154 301.051C378.075 300.958 377.98 300.875 377.875 300.784C368.02 291.469 357.76 283.757 348.238 277.533L345.25 291.802L341.319 273.187C324.882 263.233 311.732 258.029 308.513 256.82C308.011 256.632 307.753 256.542 307.753 256.542Z" fill="#E5AC9A"/>
<path d="M307.365 256.81L307.898 257.569L340.963 304.539L341.555 305.368L350.568 318.176L350.874 318.603L379.617 359.429L379.658 359.484L426.496 426.022L427.202 427.018L428.317 428.599L429.364 428.477L428.257 426.895L426.629 424.587L380.405 358.927L379.546 357.71L308.512 256.822L308.123 256.268L307.365 256.81Z" fill="white"/>
<path d="M317.186 302.686L316.845 303.42L350.635 319.108L350.976 318.374L317.186 302.686Z" fill="white"/>
<path d="M315.278 292.612L314.937 293.347L341.423 305.644L341.764 304.909L315.278 292.612Z" fill="white"/>
<path d="M378.13 300.749L377.32 300.781L379.605 359.461L380.414 359.429L378.13 300.749Z" fill="white"/>
<path d="M432.558 437.317C432.558 437.317 406.642 455.4 362.515 438.293L374.466 429.924L353.397 434.37C335.9 426.077 315.906 412.307 293.829 390.227L298.391 387.037L292.003 388.381C288.272 384.6 284.48 380.577 280.632 376.301C280.632 376.301 292.224 373.263 309.379 372.359L319.997 382.591L315.709 372.145C350.997 371.535 404.136 381.076 432.558 437.317Z" fill="#F3C8BA"/>
<path d="M280.785 375.877L280.462 376.732L434.082 434.748L434.405 433.893L280.785 375.877Z" fill="white"/>
<path d="M320.576 391.304L300.915 396.758L301.142 397.576L320.803 392.122L320.576 391.304Z" fill="white"/>
<path d="M331.053 395.152L308.419 403.264L308.706 404.064L331.34 395.952L331.053 395.152Z" fill="white"/>
<path d="M390.923 391.518L391.492 390.609C377.993 382.17 362.332 376.458 344.943 373.632L344.771 374.691C362.018 377.493 377.546 383.154 390.923 391.518Z" fill="#82562E"/>
<path d="M438.255 463.518H409.342C399.929 463.518 392.194 456.193 391.805 446.917L375.496 162.395C375.085 152.559 383.053 144.368 393.033 144.368H426.374L438.255 463.518Z" fill="#D07644"/>
<path d="M581.053 162.395L572.513 446.917C572.124 456.194 564.389 463.518 554.976 463.518H427.141C417.728 463.518 406.641 456.193 406.252 446.917L397.723 162.395C397.312 152.559 405.28 144.368 415.26 144.368H563.515C573.496 144.368 581.464 152.559 581.053 162.395Z" fill="#FFE4DC"/>
<path d="M433.016 164.038H426.168C425.219 164.038 424.37 164.418 423.755 165.043C423.13 165.669 422.75 166.518 422.75 167.467C422.75 169.355 424.281 170.885 426.168 170.885H433.016H544.814H551.662C552.611 170.885 553.46 170.505 554.075 169.88C554.701 169.266 555.08 168.417 555.08 167.467C555.08 165.579 553.549 164.037 551.662 164.037H544.814L433.016 164.038Z" fill="#9F673F"/>
<path d="M550.254 276.016H428.522C426.198 276.016 424.289 274.179 424.2 271.856L421.179 192.66C421.085 190.209 423.047 188.17 425.501 188.17H553.275C555.728 188.17 557.69 190.208 557.597 192.66L554.576 271.856C554.487 274.179 552.578 276.016 550.254 276.016Z" fill="white"/>
<path d="M458.864 329.494H440.04C436.732 329.494 434.05 326.812 434.05 323.504V314.948C434.05 311.64 436.732 308.958 440.04 308.958H458.864C462.172 308.958 464.854 311.64 464.854 314.948V323.504C464.854 326.812 462.172 329.494 458.864 329.494Z" fill="#E29164"/>
<path d="M458.864 363.007H440.04C436.732 363.007 434.05 360.325 434.05 357.017V348.461C434.05 345.153 436.732 342.472 440.04 342.472H458.864C462.172 342.472 464.854 345.154 464.854 348.461V357.017C464.854 360.325 462.172 363.007 458.864 363.007Z" fill="#E29164"/>
<path d="M458.864 396.52H440.04C436.732 396.52 434.05 393.838 434.05 390.53V381.974C434.05 378.666 436.732 375.984 440.04 375.984H458.864C462.172 375.984 464.854 378.666 464.854 381.974V390.53C464.854 393.838 462.172 396.52 458.864 396.52Z" fill="#E29164"/>
<path d="M458.864 430.032H440.04C436.732 430.032 434.05 427.35 434.05 424.042V415.486C434.05 412.178 436.732 409.496 440.04 409.496H458.864C462.172 409.496 464.854 412.178 464.854 415.486V424.042C464.854 427.351 462.172 430.032 458.864 430.032Z" fill="#9F673F"/>
<path d="M497.962 329.494H479.138C475.83 329.494 473.148 326.812 473.148 323.504V314.948C473.148 311.64 475.83 308.958 479.138 308.958H497.962C501.27 308.958 503.952 311.64 503.952 314.948V323.504C503.951 326.812 501.27 329.494 497.962 329.494Z" fill="#E29164"/>
<path d="M497.962 363.007H479.138C475.83 363.007 473.148 360.325 473.148 357.017V348.461C473.148 345.153 475.83 342.472 479.138 342.472H497.962C501.27 342.472 503.952 345.154 503.952 348.461V357.017C503.951 360.325 501.27 363.007 497.962 363.007Z" fill="#E29164"/>
<path d="M497.962 396.52H479.138C475.83 396.52 473.148 393.838 473.148 390.53V381.974C473.148 378.666 475.83 375.984 479.138 375.984H497.962C501.27 375.984 503.952 378.666 503.952 381.974V390.53C503.951 393.838 501.27 396.52 497.962 396.52Z" fill="#E29164"/>
<path d="M497.962 430.032H479.138C475.83 430.032 473.148 427.35 473.148 424.042V415.486C473.148 412.178 475.83 409.496 479.138 409.496H497.962C501.27 409.496 503.952 412.178 503.952 415.486V424.042C503.951 427.351 501.27 430.032 497.962 430.032Z" fill="#E29164"/>
<path d="M537.061 329.494H518.237C514.929 329.494 512.247 326.812 512.247 323.504V314.948C512.247 311.64 514.929 308.958 518.237 308.958H537.061C540.369 308.958 543.051 311.64 543.051 314.948V323.504C543.05 326.812 540.369 329.494 537.061 329.494Z" fill="#E29164"/>
<path d="M537.061 363.007H518.237C514.929 363.007 512.247 360.325 512.247 357.017V348.461C512.247 345.153 514.929 342.472 518.237 342.472H537.061C540.369 342.472 543.051 345.154 543.051 348.461V357.017C543.05 360.325 540.369 363.007 537.061 363.007Z" fill="#E29164"/>
<path d="M537.061 396.52H518.237C514.929 396.52 512.247 393.838 512.247 390.53V381.974C512.247 378.666 514.929 375.984 518.237 375.984H537.061C540.369 375.984 543.051 378.666 543.051 381.974V390.53C543.05 393.838 540.369 396.52 537.061 396.52Z" fill="#E29164"/>
<path d="M537.061 430.032H518.237C514.929 430.032 512.247 427.35 512.247 424.042V415.486C512.247 412.178 514.929 409.496 518.237 409.496H537.061C540.369 409.496 543.051 412.178 543.051 415.486V424.042C543.05 427.351 540.369 430.032 537.061 430.032Z" fill="#9F673F"/>
<path d="M464.45 329.494H445.626C442.318 329.494 439.636 326.812 439.636 323.504V314.948C439.636 311.64 442.318 308.958 445.626 308.958H464.45C467.758 308.958 470.44 311.64 470.44 314.948V323.504C470.439 326.812 467.758 329.494 464.45 329.494Z" fill="#F08C6D"/>
<path d="M464.45 363.007H445.626C442.318 363.007 439.636 360.325 439.636 357.017V348.461C439.636 345.153 442.318 342.472 445.626 342.472H464.45C467.758 342.472 470.44 345.154 470.44 348.461V357.017C470.439 360.325 467.758 363.007 464.45 363.007Z" fill="#F08C6D"/>
<path d="M464.45 396.52H445.626C442.318 396.52 439.636 393.838 439.636 390.53V381.974C439.636 378.666 442.318 375.984 445.626 375.984H464.45C467.758 375.984 470.44 378.666 470.44 381.974V390.53C470.439 393.838 467.758 396.52 464.45 396.52Z" fill="#F08C6D"/>
<path d="M464.45 430.032H445.626C442.318 430.032 439.636 427.35 439.636 424.042V415.486C439.636 412.178 442.318 409.496 445.626 409.496H464.45C467.758 409.496 470.44 412.178 470.44 415.486V424.042C470.439 427.351 467.758 430.032 464.45 430.032Z" fill="#9F673F"/>
<path d="M503.547 329.494H484.723C481.415 329.494 478.733 326.812 478.733 323.504V314.948C478.733 311.64 481.415 308.958 484.723 308.958H503.547C506.855 308.958 509.537 311.64 509.537 314.948V323.504C509.536 326.812 506.855 329.494 503.547 329.494Z" fill="#F08C6D"/>
<path d="M503.547 363.007H484.723C481.415 363.007 478.733 360.325 478.733 357.017V348.461C478.733 345.153 481.415 342.472 484.723 342.472H503.547C506.855 342.472 509.537 345.154 509.537 348.461V357.017C509.536 360.325 506.855 363.007 503.547 363.007Z" fill="#F08C6D"/>
<path d="M503.547 396.52H484.723C481.415 396.52 478.733 393.838 478.733 390.53V381.974C478.733 378.666 481.415 375.984 484.723 375.984H503.547C506.855 375.984 509.537 378.666 509.537 381.974V390.53C509.536 393.838 506.855 396.52 503.547 396.52Z" fill="#F08C6D"/>
<path d="M503.547 430.032H484.723C481.415 430.032 478.733 427.35 478.733 424.042V415.486C478.733 412.178 481.415 409.496 484.723 409.496H503.547C506.855 409.496 509.537 412.178 509.537 415.486V424.042C509.536 427.351 506.855 430.032 503.547 430.032Z" fill="#F08C6D"/>
<path d="M542.646 329.494H523.822C520.514 329.494 517.832 326.812 517.832 323.504V314.948C517.832 311.64 520.514 308.958 523.822 308.958H542.646C545.954 308.958 548.636 311.64 548.636 314.948V323.504C548.636 326.812 545.954 329.494 542.646 329.494Z" fill="#F08C6D"/>
<path d="M542.646 363.007H523.822C520.514 363.007 517.832 360.325 517.832 357.017V348.461C517.832 345.153 520.514 342.472 523.822 342.472H542.646C545.954 342.472 548.636 345.154 548.636 348.461V357.017C548.636 360.325 545.954 363.007 542.646 363.007Z" fill="#F08C6D"/>
<path d="M542.646 396.52H523.822C520.514 396.52 517.832 393.838 517.832 390.53V381.974C517.832 378.666 520.514 375.984 523.822 375.984H542.646C545.954 375.984 548.636 378.666 548.636 381.974V390.53C548.636 393.838 545.954 396.52 542.646 396.52Z" fill="#F08C6D"/>
<path d="M542.646 430.032H523.822C520.514 430.032 517.832 427.35 517.832 424.042V415.486C517.832 412.178 520.514 409.496 523.822 409.496H542.646C545.954 409.496 548.636 412.178 548.636 415.486V424.042C548.636 427.351 545.954 430.032 542.646 430.032Z" fill="#9F673F"/>
<path d="M464.45 330.052H445.625C442.014 330.052 439.077 327.115 439.077 323.504V314.947C439.077 311.336 442.014 308.399 445.625 308.399H464.45C468.061 308.399 470.998 311.336 470.998 314.947V323.504C470.997 327.116 468.061 330.052 464.45 330.052ZM445.625 309.517C442.63 309.517 440.194 311.953 440.194 314.947V323.504C440.194 326.499 442.63 328.935 445.625 328.935H464.45C467.445 328.935 469.88 326.499 469.88 323.504V314.947C469.88 311.952 467.444 309.517 464.45 309.517H445.625Z" fill="white"/>
<path d="M464.45 363.565H445.625C442.014 363.565 439.077 360.628 439.077 357.017V348.46C439.077 344.849 442.014 341.912 445.625 341.912H464.45C468.061 341.912 470.998 344.849 470.998 348.46V357.017C470.997 360.629 468.061 363.565 464.45 363.565ZM445.625 343.03C442.63 343.03 440.194 345.466 440.194 348.461V357.018C440.194 360.012 442.63 362.448 445.625 362.448H464.45C467.445 362.448 469.88 360.012 469.88 357.018V348.461C469.88 345.466 467.444 343.03 464.45 343.03H445.625Z" fill="white"/>
<path d="M464.45 397.078H445.625C442.014 397.078 439.077 394.141 439.077 390.53V381.973C439.077 378.362 442.014 375.425 445.625 375.425H464.45C468.061 375.425 470.998 378.362 470.998 381.973V390.53C470.997 394.141 468.061 397.078 464.45 397.078ZM445.625 376.543C442.63 376.543 440.194 378.979 440.194 381.974V390.531C440.194 393.526 442.63 395.961 445.625 395.961H464.45C467.445 395.961 469.88 393.525 469.88 390.531V381.974C469.88 378.979 467.444 376.543 464.45 376.543H445.625Z" fill="white"/>
<path d="M464.45 430.591H445.625C442.014 430.591 439.077 427.654 439.077 424.043V415.486C439.077 411.875 442.014 408.938 445.625 408.938H464.45C468.061 408.938 470.998 411.875 470.998 415.486V424.043C470.997 427.654 468.061 430.591 464.45 430.591ZM445.625 410.055C442.63 410.055 440.194 412.491 440.194 415.486V424.043C440.194 427.038 442.63 429.474 445.625 429.474H464.45C467.445 429.474 469.88 427.038 469.88 424.043V415.486C469.88 412.491 467.444 410.055 464.45 410.055H445.625Z" fill="white"/>
<path d="M503.548 330.052H484.723C481.112 330.052 478.175 327.115 478.175 323.504V314.947C478.175 311.336 481.112 308.399 484.723 308.399H503.548C507.159 308.399 510.096 311.336 510.096 314.947V323.504C510.096 327.116 507.159 330.052 503.548 330.052ZM484.723 309.517C481.728 309.517 479.292 311.953 479.292 314.947V323.504C479.292 326.499 481.728 328.935 484.723 328.935H503.548C506.543 328.935 508.978 326.499 508.978 323.504V314.947C508.978 311.952 506.542 309.517 503.548 309.517H484.723Z" fill="white"/>
<path d="M503.548 363.565H484.723C481.112 363.565 478.175 360.628 478.175 357.017V348.46C478.175 344.849 481.112 341.912 484.723 341.912H503.548C507.159 341.912 510.096 344.849 510.096 348.46V357.017C510.096 360.629 507.159 363.565 503.548 363.565ZM484.723 343.03C481.728 343.03 479.292 345.466 479.292 348.461V357.018C479.292 360.012 481.728 362.448 484.723 362.448H503.548C506.543 362.448 508.978 360.012 508.978 357.018V348.461C508.978 345.466 506.542 343.03 503.548 343.03H484.723Z" fill="white"/>
<path d="M503.548 397.078H484.723C481.112 397.078 478.175 394.141 478.175 390.53V381.973C478.175 378.362 481.112 375.425 484.723 375.425H503.548C507.159 375.425 510.096 378.362 510.096 381.973V390.53C510.096 394.141 507.159 397.078 503.548 397.078ZM484.723 376.543C481.728 376.543 479.292 378.979 479.292 381.974V390.531C479.292 393.526 481.728 395.961 484.723 395.961H503.548C506.543 395.961 508.978 393.525 508.978 390.531V381.974C508.978 378.979 506.542 376.543 503.548 376.543H484.723Z" fill="white"/>
<path d="M503.548 430.591H484.723C481.112 430.591 478.175 427.654 478.175 424.043V415.486C478.175 411.875 481.112 408.938 484.723 408.938H503.548C507.159 408.938 510.096 411.875 510.096 415.486V424.043C510.096 427.654 507.159 430.591 503.548 430.591ZM484.723 410.055C481.728 410.055 479.292 412.491 479.292 415.486V424.043C479.292 427.038 481.728 429.474 484.723 429.474H503.548C506.543 429.474 508.978 427.038 508.978 424.043V415.486C508.978 412.491 506.542 410.055 503.548 410.055H484.723Z" fill="white"/>
<path d="M542.646 330.052H523.821C520.21 330.052 517.273 327.115 517.273 323.504V314.947C517.273 311.336 520.21 308.399 523.821 308.399H542.646C546.257 308.399 549.194 311.336 549.194 314.947V323.504C549.194 327.116 546.257 330.052 542.646 330.052ZM523.821 309.517C520.827 309.517 518.391 311.953 518.391 314.947V323.504C518.391 326.499 520.827 328.935 523.821 328.935H542.646C545.641 328.935 548.076 326.499 548.076 323.504V314.947C548.076 311.952 545.64 309.517 542.646 309.517H523.821Z" fill="white"/>
<path d="M542.646 363.565H523.821C520.21 363.565 517.273 360.628 517.273 357.017V348.46C517.273 344.849 520.21 341.912 523.821 341.912H542.646C546.257 341.912 549.194 344.849 549.194 348.46V357.017C549.194 360.629 546.257 363.565 542.646 363.565ZM523.821 343.03C520.827 343.03 518.391 345.466 518.391 348.461V357.018C518.391 360.012 520.827 362.448 523.821 362.448H542.646C545.641 362.448 548.076 360.012 548.076 357.018V348.461C548.076 345.466 545.64 343.03 542.646 343.03H523.821Z" fill="white"/>
<path d="M542.646 397.078H523.821C520.21 397.078 517.273 394.141 517.273 390.53V381.973C517.273 378.362 520.21 375.425 523.821 375.425H542.646C546.257 375.425 549.194 378.362 549.194 381.973V390.53C549.194 394.141 546.257 397.078 542.646 397.078ZM523.821 376.543C520.827 376.543 518.391 378.979 518.391 381.974V390.531C518.391 393.526 520.827 395.961 523.821 395.961H542.646C545.641 395.961 548.076 393.525 548.076 390.531V381.974C548.076 378.979 545.64 376.543 542.646 376.543H523.821Z" fill="white"/>
<path d="M542.646 430.591H523.821C520.21 430.591 517.273 427.654 517.273 424.043V415.486C517.273 411.875 520.21 408.938 523.821 408.938H542.646C546.257 408.938 549.194 411.875 549.194 415.486V424.043C549.194 427.654 546.257 430.591 542.646 430.591ZM523.821 410.055C520.827 410.055 518.391 412.491 518.391 415.486V424.043C518.391 427.038 520.827 429.474 523.821 429.474H542.646C545.641 429.474 548.076 427.038 548.076 424.043V415.486C548.076 412.491 545.64 410.055 542.646 410.055H523.821Z" fill="white"/>
<path d="M539.447 464.268H427.141C417.471 464.268 405.912 456.703 405.503 446.949L396.974 162.418C396.768 157.511 398.542 152.836 401.967 149.265C405.459 145.624 410.18 143.619 415.26 143.619H563.515C568.596 143.619 573.317 145.624 576.808 149.265C580.234 152.836 582.007 157.511 581.801 162.427L581.336 177.951L579.836 177.906L580.302 162.373C580.491 157.86 578.866 153.577 575.726 150.303C572.52 146.96 568.183 145.119 563.515 145.119H415.26C410.592 145.119 406.255 146.96 403.049 150.303C399.909 153.576 398.284 157.86 398.472 162.364L407.001 446.895C407.375 455.831 418.134 462.768 427.14 462.768H539.447V464.268Z" fill="#9F673F"/>
<path d="M578.522 221.551L573.573 386.995L575.074 387.04L580.022 221.596L578.522 221.551Z" fill="#9F673F"/>
<path d="M544.767 109.308V170.882H433.159V109.308C432.891 105.063 430.947 101.265 428.009 98.528C425.06 95.791 421.094 94.115 416.793 94.115H528.402C532.714 94.115 536.669 95.791 539.618 98.528C542.567 101.265 544.499 105.063 544.767 109.308Z" fill="white"/>
<path d="M433.159 109.308H400.417C400.685 105.063 402.629 101.265 405.578 98.528C408.527 95.791 412.493 94.115 416.794 94.115C421.095 94.115 425.061 95.791 428.01 98.528C430.947 101.265 432.891 105.063 433.159 109.308Z" fill="#82562E"/>
<path d="M545.268 171.382H432.659V109.308C432.409 105.369 430.636 101.659 427.668 98.893C424.696 96.135 420.833 94.615 416.793 94.615V93.615H528.402C532.695 93.615 536.798 95.229 539.957 98.16C543.113 101.089 544.998 105.036 545.267 109.275L545.268 109.307V171.382ZM433.659 170.382H544.268V109.324C544.012 105.347 542.241 101.644 539.278 98.894C536.304 96.135 532.442 94.615 528.403 94.615H422.536C424.669 95.383 426.646 96.581 428.349 98.16C431.506 101.101 433.391 105.049 433.658 109.275L433.659 170.382Z" fill="#82562E"/>
<path d="M551.662 171.386H426.169C424.008 171.386 422.25 169.628 422.25 167.468C422.25 166.42 422.659 165.433 423.402 164.69C424.13 163.948 425.114 163.538 426.169 163.538H433.017V164.538H426.169C425.385 164.538 424.654 164.842 424.113 165.393C423.556 165.951 423.251 166.686 423.251 167.467C423.251 169.076 424.56 170.385 426.17 170.385H551.664C552.448 170.385 553.179 170.081 553.721 169.529C554.279 168.981 554.583 168.25 554.583 167.466C554.583 165.851 553.273 164.536 551.664 164.536H544.816V163.536H551.664C553.825 163.536 555.583 165.299 555.583 167.466C555.583 168.52 555.173 169.504 554.428 170.236C553.7 170.976 552.717 171.386 551.662 171.386Z" fill="#82562E"/>
<path d="M556.416 467.849C556.416 470.615 576.732 472.866 601.787 472.866C626.842 472.866 647.158 470.615 647.158 467.849C647.158 467.795 647.147 467.753 647.136 467.699V454.137H556.447V467.667C556.426 467.731 556.416 467.784 556.416 467.849Z" fill="#F49B51"/>
<path d="M601.789 459.278C626.846 459.278 647.158 457.031 647.158 454.261C647.158 451.49 626.846 449.244 601.789 449.244C576.732 449.244 556.42 451.49 556.42 454.261C556.42 457.031 576.732 459.278 601.789 459.278Z" fill="#FCC659"/>
<path d="M545.695 451.486C545.695 454.252 566.011 456.503 591.066 456.503C616.121 456.503 636.437 454.252 636.437 451.486C636.437 451.432 636.426 451.39 636.415 451.336V437.774H545.726V451.304C545.705 451.368 545.695 451.422 545.695 451.486Z" fill="#F49B51"/>
<path d="M591.068 442.915C616.125 442.915 636.437 440.669 636.437 437.898C636.437 435.127 616.125 432.881 591.068 432.881C566.012 432.881 545.699 435.127 545.699 437.898C545.699 440.669 566.012 442.915 591.068 442.915Z" fill="#FCC659"/>
<path d="M556.416 435.123C556.416 437.889 576.732 440.14 601.787 440.14C626.842 440.14 647.158 437.889 647.158 435.123C647.158 435.069 647.147 435.026 647.136 434.973V421.411H556.447V434.941C556.426 435.005 556.416 435.059 556.416 435.123Z" fill="#F49B51"/>
<path d="M601.789 426.552C626.846 426.552 647.158 424.305 647.158 421.535C647.158 418.764 626.846 416.518 601.789 416.518C576.732 416.518 556.42 418.764 556.42 421.535C556.42 424.305 576.732 426.552 601.789 426.552Z" fill="#FCC659"/>
<path d="M601.782 473.399C620.236 473.399 647.69 471.92 647.69 467.845H646.618C646.618 469.409 631.219 472.327 601.782 472.327C600.712 472.327 599.65 472.323 598.599 472.314L598.591 473.386C599.644 473.395 600.71 473.399 601.782 473.399Z" fill="#82562E"/>
<path d="M583.795 472.989L583.845 471.919C579.251 471.698 575.039 471.398 571.324 471.024L571.217 472.09C574.95 472.465 579.181 472.768 583.795 472.989Z" fill="#82562E"/>
<path d="M619.69 455.83C636.74 454.278 636.74 452.129 636.74 451.422H635.668C635.668 451.944 632.78 453.562 619.594 454.762L619.69 455.83Z" fill="#82562E"/>
<path d="M590.832 456.975C595.933 456.975 600.942 456.882 605.721 456.699L605.679 455.627C597.144 455.956 587.708 455.994 578.914 455.728L578.883 456.8C582.777 456.916 586.797 456.975 590.832 456.975Z" fill="#82562E"/>
<path d="M567.62 456.27L567.691 455.2C562.853 454.882 558.633 454.47 555.149 453.977L554.998 455.039C558.509 455.535 562.756 455.949 567.62 456.27Z" fill="#82562E"/>
<path d="M632.295 425.808C647.416 424.266 647.416 422.318 647.416 421.586H646.344C646.344 421.603 645.959 423.338 632.186 424.743L632.295 425.808Z" fill="#82562E"/>
<path d="M601.508 427.139C606.724 427.139 611.826 427.043 616.669 426.852L616.627 425.78C611.797 425.97 606.71 426.067 601.508 426.067C592.197 426.067 583.255 425.757 575.648 425.171L575.566 426.239C583.2 426.828 592.17 427.139 601.508 427.139Z" fill="#82562E"/>
<path d="M540.334 418.76C540.334 421.526 560.65 423.777 585.705 423.777C610.76 423.777 631.076 421.526 631.076 418.76C631.076 418.706 631.065 418.664 631.055 418.61V405.048H540.366V418.578C540.345 418.642 540.334 418.696 540.334 418.76Z" fill="#F49B51"/>
<path d="M585.707 410.189C610.763 410.189 631.076 407.943 631.076 405.172C631.076 402.401 610.763 400.155 585.707 400.155C560.65 400.155 540.338 402.401 540.338 405.172C540.338 407.943 560.65 410.189 585.707 410.189Z" fill="#FCC659"/>
<path d="M548.753 405.172C548.753 407.036 565.298 408.546 585.707 408.546C606.116 408.546 622.661 407.035 622.661 405.172C622.661 403.308 606.116 401.798 585.707 401.798C565.298 401.798 548.753 403.309 548.753 405.172Z" fill="#F49B51"/>
<path d="M532.844 121.181H508.589V124.181H532.844V121.181Z" fill="#FFECE1"/>
<path d="M497.355 121.181H448.589V124.181H497.355V121.181Z" fill="#FFECE1"/>
<path d="M532.844 134.181H476.674V137.181H532.844V134.181Z" fill="#FFECE1"/>
<path d="M469.78 134.181H448.589V137.181H469.78V134.181Z" fill="#FFECE1"/>
<path d="M522.375 148.181H499.396V151.181H522.375V148.181Z" fill="#FFECE1"/>
<path d="M489.695 148.181H448.589V151.181H489.695V148.181Z" fill="#FFECE1"/>
<path d="M487.988 275.267H457.574V276.767H487.988V275.267Z" fill="#9F673F"/>
<path d="M550.254 276.767H499.787V275.267H550.254C552.184 275.267 553.753 273.756 553.827 271.828L556.472 202.508L557.97 202.566L555.326 271.885C555.221 274.622 552.993 276.767 550.254 276.767Z" fill="#9F673F"/>
<path d="M268.974 170.945C252.319 167.624 236.126 178.437 232.804 195.099C229.483 211.754 240.295 227.953 256.958 231.269C273.613 234.59 289.813 223.778 293.128 207.115C296.449 190.46 285.636 174.267 268.974 170.945ZM287.245 205.945C285.953 212.428 282.212 218.021 276.709 221.692C271.213 225.365 264.617 226.679 258.128 225.386C244.746 222.717 236.023 209.659 238.693 196.27C239.985 189.787 243.72 184.193 249.223 180.522C254.527 176.98 260.86 175.633 267.126 176.706C267.354 176.745 267.576 176.789 267.803 176.835C280.972 179.455 289.616 192.133 287.366 205.28C287.327 205.502 287.289 205.724 287.245 205.945Z" fill="#FCC659"/>
<path d="M287.366 205.28C287.328 205.502 287.29 205.724 287.246 205.945C285.954 212.428 282.213 218.021 276.71 221.693C271.214 225.366 264.618 226.68 258.128 225.387C244.745 222.718 236.022 209.659 238.693 196.27C239.985 189.787 243.72 184.193 249.223 180.521C254.527 176.979 260.861 175.632 267.127 176.705C267.356 176.744 267.577 176.789 267.804 176.834C280.972 179.453 289.616 192.133 287.366 205.28Z" fill="#F49B51"/>
<path d="M258.227 219.505L259.013 214.914C256.384 214.418 253.797 213.132 252.401 211.724L254.013 208.865C255.463 210.236 257.678 211.504 260.224 211.94C263.452 212.492 265.952 211.002 266.396 208.411C266.824 205.911 265.316 204.062 262.185 202.123C257.859 199.511 255.354 196.93 256.03 192.975C256.676 189.203 259.848 186.797 264.146 186.832L264.932 182.241L267.75 182.723L266.995 187.132C269.707 187.689 271.446 188.736 272.632 189.734L270.982 192.539C270.121 191.83 268.428 190.512 265.519 190.014C262.019 189.415 260.343 191.28 260.031 193.099C259.626 195.463 261.106 196.932 264.781 199.246C269.136 201.956 271.095 204.725 270.403 208.77C269.788 212.361 266.713 215.297 261.899 215.269L261.09 219.996L258.227 219.505Z" fill="#FCC659"/>
<path d="M287.407 199.006C287.39 198.799 287.367 198.592 287.344 198.385C286.554 191.364 282.78 185.051 276.987 181.024L277.37 180.472C283.322 184.61 287.199 191.096 288.006 198.268C288.034 198.523 288.058 198.736 288.076 198.95L287.407 199.006Z" fill="#82562E"/>
<path d="M276.987 181.024C272.329 177.785 266.653 176.268 261.005 176.749L260.948 176.081C266.753 175.585 272.584 177.146 277.371 180.473L276.987 181.024Z" fill="#82562E"/>
<path d="M282.252 217.249L281.74 216.817C283.834 214.335 285.389 211.529 286.359 208.478L286.998 208.682C286 211.817 284.403 214.7 282.252 217.249Z" fill="#82562E"/>
<path d="M286.553 181.94C284.562 179.487 282.216 177.369 279.58 175.647L279.974 175.044C282.672 176.807 285.073 178.975 287.111 181.486L286.553 181.94Z" fill="#82562E"/>
<path d="M275.719 229.493L275.424 228.837C284.374 224.807 290.86 216.662 292.775 207.049C293.965 201.075 293.353 194.961 291.004 189.369L291.667 189.09C294.071 194.815 294.698 201.074 293.48 207.19C291.519 217.03 284.88 225.368 275.719 229.493Z" fill="#82562E"/>
<path d="M488.08 260.166C503.834 259.538 516.097 246.258 515.47 230.503C514.842 214.749 501.562 202.486 485.807 203.113C470.053 203.741 457.79 217.021 458.418 232.776C459.045 248.53 472.325 260.793 488.08 260.166Z" fill="#F08C6D"/>
<path d="M485.89 246.177L472.795 232.707L474.229 231.313L485.331 242.733L499.614 213.131L501.415 214L485.89 246.177Z" fill="white"/>
<path d="M243.021 184.327C245.828 185.753 247.759 187.941 249.079 190.682C250.399 187.941 252.338 185.741 255.145 184.315C252.338 182.889 250.399 180.701 249.079 177.96C247.759 180.7 245.828 182.901 243.021 184.327Z" fill="#FFE6A6"/>
<path d="M267.636 223.454C269.267 224.283 270.389 225.554 271.157 227.147C271.924 225.554 273.051 224.276 274.682 223.447C273.051 222.618 271.924 221.347 271.157 219.754C270.39 221.347 269.268 222.626 267.636 223.454Z" fill="#FFE6A6"/>
</svg>
