<svg width="884" height="478" viewBox="0 0 884 478" fill="none" xmlns="http://www.w3.org/2000/svg">
<g clip-path="url(#clip0_362_8426)">
<path d="M127.541 414.184H751.541V376.567C751.541 368.711 742.074 360.978 725.567 355.351L725.397 355.293C714.252 351.36 643.005 323.378 604.468 324.224C584.111 324.67 566.682 328.12 552.668 334.48C509.043 354.283 451.738 361.599 421.462 355.852C394.779 350.786 321.53 342.408 294.465 342.786C256.561 343.308 256.45 349.64 217.541 370.078C202.68 377.877 197.122 378.856 127.541 385.078V414.184Z" fill="#F2F2F2"/>
<path d="M26.9425 358.893C25.5837 338.712 34.1512 318.325 51.9037 310.834C48.315 331.627 52.7366 354.732 64.1376 374.763C68.5782 382.564 74.2809 390.894 73.0672 399.046C72.3122 404.118 68.8616 408.145 64.6451 410.767C60.4283 413.389 55.4598 414.789 50.5517 416.163L49.7043 417.053C38.0397 398.987 28.3013 379.074 26.9425 358.893Z" fill="#F2F2F2"/>
<path d="M52.1655 311.204C43.3616 324.759 39.4502 340.913 41.0786 356.994C41.3479 360.667 42.1706 364.278 43.5187 367.705C44.9931 371.139 47.2543 374.178 50.1197 376.576C52.772 378.886 55.7146 380.979 57.8385 383.815C58.8867 385.198 59.6452 386.778 60.0685 388.462C60.4919 390.145 60.5714 391.896 60.3023 393.611C59.6832 397.673 57.5801 401.066 55.3958 404.296C52.9705 407.883 50.388 411.561 49.948 416.175C49.8947 416.734 49.0011 416.497 49.0543 415.938C49.8198 407.911 56.5896 403.03 58.865 395.72C59.4837 393.954 59.6947 392.07 59.4822 390.211C59.2697 388.352 58.6391 386.564 57.6378 384.983C55.6589 381.985 52.6259 379.824 49.9231 377.505C47.0931 375.193 44.7913 372.302 43.1728 369.026C41.6604 365.657 40.702 362.065 40.3347 358.39C39.4168 350.465 39.7929 342.444 41.4482 334.641C43.2188 326.052 46.6143 317.88 51.4522 310.566C51.749 310.12 52.4603 310.761 52.1655 311.204Z" fill="white"/>
<path d="M40.2849 351.591C37.3646 351.019 34.6952 349.551 32.648 347.391C30.6008 345.232 29.2777 342.488 28.8627 339.541C28.7985 338.967 29.6909 338.966 29.7552 339.541C30.137 342.285 31.3693 344.84 33.2788 346.847C35.1883 348.855 37.679 350.213 40.4006 350.731C40.4577 350.738 40.5129 350.756 40.563 350.784C40.613 350.813 40.657 350.851 40.6922 350.896C40.7274 350.942 40.7533 350.994 40.7682 351.049C40.7832 351.105 40.7869 351.163 40.7793 351.22C40.7716 351.277 40.7527 351.332 40.7236 351.381C40.6945 351.431 40.6558 351.474 40.6098 351.509C40.5638 351.543 40.5114 351.568 40.4556 351.582C40.3999 351.597 40.3418 351.599 40.2849 351.591Z" fill="white"/>
<path d="M48.642 375.559C50.8211 373.936 52.6316 371.869 53.9543 369.495C55.277 367.121 56.082 364.494 56.3163 361.786C56.3717 361.228 57.2654 361.465 57.21 362.023C56.9606 364.84 56.117 367.571 54.735 370.038C53.353 372.505 51.4639 374.651 49.1922 376.335C48.7575 376.653 48.2097 375.876 48.642 375.559Z" fill="white"/>
<path d="M44.2593 326.713C45.2778 327.15 46.3912 327.321 47.494 327.207C48.5967 327.094 49.6522 326.7 50.5603 326.065C50.9898 325.741 51.5372 326.518 51.1104 326.84C50.1043 327.538 48.9386 327.971 47.7209 328.099C46.5032 328.227 45.2729 328.046 44.1437 327.573C44.0265 327.539 43.9243 327.466 43.8536 327.366C43.783 327.267 43.7481 327.146 43.7547 327.024C43.7629 326.968 43.7833 326.915 43.8143 326.868C43.8454 326.821 43.8864 326.781 43.9345 326.751C43.9826 326.721 44.0366 326.703 44.0927 326.696C44.1488 326.689 44.2056 326.695 44.2593 326.713Z" fill="white"/>
<path d="M116.674 343.715C116.413 343.926 116.151 344.136 115.891 344.355C112.401 347.202 109.185 350.369 106.285 353.814C106.056 354.076 105.828 354.346 105.608 354.615C98.6691 363.107 93.5898 372.961 90.6989 383.54C89.5132 387.854 88.6811 392.258 88.2106 396.707C87.5499 402.911 87.3447 409.761 84.6789 414.944C84.4086 415.486 84.1004 416.009 83.7566 416.509L51.0238 418.17C50.9422 418.136 50.8617 418.11 50.7798 418.076L49.4844 418.203C49.4923 417.967 49.5057 417.724 49.5137 417.488C49.5177 417.351 49.529 417.214 49.533 417.077C49.538 416.986 49.5433 416.894 49.5425 416.811C49.544 416.78 49.5459 416.75 49.5489 416.727C49.548 416.644 49.5563 416.567 49.5568 416.491C49.628 415.129 49.7064 413.766 49.8002 412.403C49.7987 412.395 49.7987 412.395 49.8046 412.387C50.3671 402.136 52.2284 391.998 55.3436 382.215C55.4399 381.929 55.5344 381.636 55.6456 381.35C57.0986 377.11 58.9373 373.012 61.1387 369.108C62.3416 366.995 63.6657 364.954 65.1043 362.994C68.8294 357.946 73.4368 353.613 78.704 350.204C84.0804 346.623 90.1316 344.178 96.4865 343.019C102.841 341.86 109.366 342.011 115.661 343.463C116 343.544 116.333 343.626 116.674 343.715Z" fill="#F2F2F2"/>
<path d="M116.681 344.137C101.337 347.994 87.8839 357.221 78.7591 370.145C76.7559 372.897 75.2576 375.982 74.3337 379.258C73.5287 382.664 73.6602 386.224 74.7141 389.561C75.6375 392.806 76.9503 396.071 77.0845 399.372C77.1582 400.988 76.8485 402.597 76.1807 404.07C75.513 405.543 74.5061 406.837 73.2425 407.846C70.1998 410.373 66.2581 411.529 62.3446 412.52C57.9994 413.62 53.4586 414.691 50.2357 417.719C49.8452 418.086 49.2018 417.379 49.5917 417.013C55.199 411.745 64.1767 412.335 70.6773 408.486C73.7106 406.691 76.0814 403.895 76.1893 400.085C76.2836 396.755 74.9325 393.387 73.9698 390.106C72.8971 386.847 72.6386 383.375 73.2168 379.993C73.9564 376.665 75.3233 373.509 77.2443 370.694C81.4108 364.372 86.6869 358.857 92.8175 354.414C99.9135 349.229 107.931 345.441 116.443 343.252C116.979 343.113 117.213 343.998 116.681 344.137Z" fill="white"/>
<path d="M81.3775 365.812C76.8289 361.511 75.6907 354.886 78.692 350.339C78.9876 349.891 79.7765 350.427 79.4805 350.875C76.6689 355.136 77.7559 361.247 82.0078 365.268C82.4553 365.691 81.8224 366.233 81.3775 365.812Z" fill="white"/>
<path d="M74.0339 387.947C76.7946 388.156 79.5689 387.802 82.1885 386.906C84.8082 386.01 87.2184 384.591 89.2729 382.736C89.6649 382.37 90.3084 383.077 89.9169 383.442C87.7741 385.369 85.2622 386.84 82.5335 387.767C79.8049 388.693 76.9164 389.056 74.0435 388.832C73.4643 388.797 73.4579 387.913 74.0339 387.947Z" fill="white"/>
<path d="M100.17 350.448C100.858 351.408 101.749 352.203 102.78 352.779C103.811 353.354 104.956 353.695 106.133 353.777C106.712 353.805 106.717 354.689 106.143 354.662C104.842 354.566 103.578 354.187 102.438 353.554C101.297 352.92 100.309 352.046 99.5398 350.992C99.4579 350.909 99.4114 350.798 99.4102 350.681C99.4089 350.565 99.4529 350.452 99.533 350.367C99.6295 350.297 99.7493 350.266 99.8677 350.281C99.9862 350.296 100.094 350.356 100.17 350.448Z" fill="white"/>
<path d="M846.46 358.893C847.819 338.712 839.252 318.325 821.499 310.834C825.088 331.627 820.666 354.732 809.265 374.763C804.825 382.564 799.122 390.894 800.336 399.046C801.091 404.118 804.541 408.145 808.758 410.767C812.975 413.389 817.943 414.789 822.851 416.163L823.699 417.053C835.363 398.987 845.102 379.074 846.46 358.893Z" fill="#F2F2F2"/>
<path d="M821.238 311.204C830.042 324.759 833.953 340.913 832.325 356.994C832.056 360.667 831.233 364.278 829.885 367.705C828.411 371.139 826.149 374.178 823.284 376.576C820.632 378.886 817.689 380.979 815.565 383.815C814.517 385.198 813.758 386.778 813.335 388.462C812.912 390.145 812.832 391.896 813.101 393.611C813.72 397.673 815.824 401.066 818.008 404.296C820.433 407.883 823.016 411.561 823.456 416.175C823.509 416.734 824.403 416.497 824.349 415.938C823.584 407.911 816.814 403.03 814.539 395.72C813.92 393.954 813.709 392.07 813.921 390.211C814.134 388.352 814.765 386.564 815.766 384.983C817.745 381.985 820.778 379.824 823.481 377.505C826.311 375.193 828.612 372.302 830.231 369.026C831.743 365.657 832.702 362.065 833.069 358.39C833.987 350.465 833.611 342.444 831.955 334.641C830.185 326.052 826.789 317.88 821.951 310.566C821.655 310.12 820.943 310.761 821.238 311.204Z" fill="white"/>
<path d="M833.119 351.591C836.04 351.019 838.709 349.551 840.756 347.391C842.803 345.232 844.127 342.488 844.542 339.541C844.606 338.967 843.713 338.966 843.649 339.541C843.267 342.285 842.035 344.84 840.125 346.847C838.216 348.855 835.725 350.213 833.004 350.731C832.947 350.738 832.891 350.756 832.841 350.784C832.791 350.813 832.747 350.851 832.712 350.896C832.677 350.942 832.651 350.994 832.636 351.049C832.621 351.105 832.617 351.163 832.625 351.22C832.633 351.277 832.652 351.332 832.681 351.381C832.71 351.431 832.748 351.474 832.794 351.509C832.84 351.543 832.893 351.568 832.949 351.582C833.004 351.597 833.062 351.599 833.119 351.591Z" fill="white"/>
<path d="M824.762 375.559C822.583 373.936 820.772 371.869 819.45 369.495C818.127 367.121 817.322 364.494 817.088 361.786C817.032 361.228 816.139 361.465 816.194 362.023C816.443 364.84 817.287 367.571 818.669 370.038C820.051 372.505 821.94 374.651 824.212 376.335C824.646 376.653 825.194 375.876 824.762 375.559Z" fill="white"/>
<path d="M829.144 326.713C828.126 327.15 827.012 327.321 825.91 327.207C824.807 327.094 823.751 326.7 822.843 326.065C822.414 325.741 821.866 326.518 822.293 326.84C823.299 327.538 824.465 327.971 825.683 328.099C826.9 328.227 828.131 328.046 829.26 327.573C829.377 327.539 829.479 327.466 829.55 327.366C829.621 327.267 829.656 327.146 829.649 327.024C829.641 326.968 829.62 326.915 829.589 326.868C829.558 326.821 829.517 326.781 829.469 326.751C829.421 326.721 829.367 326.703 829.311 326.696C829.255 326.689 829.198 326.695 829.144 326.713Z" fill="white"/>
<path d="M756.73 343.715C756.992 343.926 757.253 344.136 757.513 344.355C761.003 347.202 764.219 350.368 767.12 353.814C767.349 354.076 767.576 354.346 767.796 354.615C774.735 363.107 779.815 372.961 782.706 383.54C783.891 387.854 784.723 392.258 785.194 396.707C785.855 402.911 786.06 409.761 788.726 414.944C788.996 415.487 789.304 416.009 789.648 416.509L822.381 418.17C822.462 418.136 822.543 418.11 822.625 418.076L823.92 418.203C823.912 417.967 823.899 417.724 823.891 417.488C823.887 417.351 823.875 417.214 823.871 417.077C823.866 416.986 823.861 416.894 823.862 416.811C823.86 416.78 823.858 416.75 823.856 416.727C823.856 416.644 823.848 416.567 823.848 416.491C823.776 415.129 823.698 413.766 823.604 412.403C823.606 412.395 823.606 412.395 823.6 412.387C823.037 402.136 821.176 391.998 818.061 382.215C817.964 381.929 817.87 381.636 817.759 381.35C816.306 377.11 814.467 373.012 812.266 369.108C811.063 366.995 809.739 364.954 808.3 362.994C804.575 357.946 799.968 353.613 794.7 350.204C789.324 346.623 783.273 344.178 776.918 343.019C770.563 341.86 764.038 342.011 757.744 343.463C757.404 343.544 757.071 343.626 756.73 343.715Z" fill="#F2F2F2"/>
<path d="M756.723 344.137C772.066 347.994 785.519 357.221 794.644 370.145C796.647 372.897 798.146 375.982 799.07 379.258C799.875 382.664 799.743 386.224 798.689 389.561C797.766 392.806 796.453 396.071 796.319 399.372C796.245 400.988 796.555 402.597 797.223 404.07C797.89 405.543 798.897 406.837 800.161 407.846C803.204 410.373 807.145 411.529 811.059 412.52C815.404 413.62 819.945 414.691 823.168 417.719C823.558 418.086 824.201 417.379 823.812 417.013C818.204 411.745 809.227 412.335 802.726 408.486C799.693 406.691 797.322 403.895 797.214 400.085C797.12 396.755 798.471 393.387 799.433 390.106C800.506 386.847 800.765 383.375 800.187 379.993C799.447 376.665 798.08 373.509 796.159 370.694C791.992 364.372 786.716 358.857 780.586 354.414C773.49 349.229 765.472 345.441 756.96 343.252C756.424 343.113 756.19 343.998 756.723 344.137Z" fill="white"/>
<path d="M792.026 365.812C796.574 361.511 797.712 354.886 794.711 350.339C794.415 349.891 793.627 350.427 793.923 350.875C796.734 355.136 795.647 361.247 791.395 365.268C790.948 365.691 791.581 366.233 792.026 365.812Z" fill="white"/>
<path d="M799.37 387.947C796.609 388.156 793.835 387.802 791.215 386.906C788.596 386.01 786.186 384.591 784.131 382.736C783.739 382.37 783.096 383.077 783.487 383.442C785.63 385.369 788.142 386.84 790.87 387.767C793.599 388.693 796.488 389.056 799.36 388.832C799.94 388.797 799.946 387.913 799.37 387.947Z" fill="white"/>
<path d="M773.232 350.448C772.544 351.408 771.653 352.203 770.622 352.779C769.592 353.354 768.447 353.695 767.269 353.777C766.691 353.805 766.685 354.689 767.26 354.662C768.56 354.566 769.825 354.187 770.965 353.554C772.105 352.92 773.094 352.046 773.863 350.992C773.945 350.909 773.991 350.798 773.992 350.681C773.994 350.565 773.95 350.452 773.869 350.367C773.773 350.297 773.653 350.266 773.535 350.281C773.416 350.296 773.308 350.356 773.232 350.448Z" fill="white"/>
<path d="M55.9629 258.983H49.9629V260.983H55.9629V258.983Z" fill="#E6E6E6"/>
<path d="M811.097 260.983H798.918V258.983H811.097V260.983ZM786.738 260.983H774.559V258.983H786.738V260.983ZM762.379 260.983H750.2V258.983H762.379V260.983ZM738.02 260.983H725.84V258.983H738.02V260.983ZM713.661 260.983H701.481V258.983H713.661V260.983ZM689.302 260.983H677.122V258.983H689.302V260.983ZM664.942 260.983H652.763V258.983H664.942V260.983ZM640.583 260.983H628.404V258.983H640.583L640.583 260.983ZM616.224 260.983H604.045V258.983H616.224V260.983ZM591.865 260.983H579.686V258.983H591.865V260.983ZM567.506 260.983H555.326V258.983H567.506V260.983ZM543.147 260.983H530.967V258.983H543.147V260.983ZM518.788 260.983H506.608V258.983H518.788V260.983ZM494.428 260.983H482.249V258.983H494.428V260.983ZM470.069 260.983H457.89V258.983H470.069V260.983ZM445.71 260.983H433.53V258.983H445.71V260.983ZM421.351 260.983H409.171V258.983H421.351V260.983ZM396.992 260.983H384.812V258.983H396.992V260.983ZM372.632 260.983H360.453V258.983H372.632V260.983ZM348.273 260.983H336.094V258.983H348.273V260.983ZM323.914 260.983H311.734V258.983H323.914V260.983ZM299.555 260.983H287.375V258.983H299.555V260.983ZM275.196 260.983H263.016V258.983H275.196V260.983ZM250.836 260.983H238.657V258.983H250.836L250.836 260.983ZM226.477 260.983H214.298V258.983H226.477V260.983ZM202.118 260.983H189.938V258.983H202.118V260.983ZM177.759 260.983H165.579V258.983H177.759V260.983ZM153.4 260.983H141.22V258.983H153.4V260.983ZM129.041 260.983H116.861V258.983H129.041V260.983ZM104.681 260.983H92.5019V258.983H104.681V260.983ZM80.3223 260.983H68.1426V258.983H80.3223V260.983Z" fill="#E6E6E6"/>
<path d="M829.277 258.983H823.277V260.983H829.277V258.983Z" fill="#E6E6E6"/>
<path d="M55.9629 244.983H49.9629V246.983H55.9629V244.983Z" fill="#E6E6E6"/>
<path d="M811.097 246.983H798.918V244.983H811.097V246.983ZM786.738 246.983H774.559V244.983H786.738V246.983ZM762.379 246.983H750.2V244.983H762.379V246.983ZM738.02 246.983H725.84V244.983H738.02V246.983ZM713.661 246.983H701.481V244.983H713.661V246.983ZM689.302 246.983H677.122V244.983H689.302V246.983ZM664.942 246.983H652.763V244.983H664.942V246.983ZM640.583 246.983H628.404V244.983H640.583L640.583 246.983ZM616.224 246.983H604.045V244.983H616.224V246.983ZM591.865 246.983H579.686V244.983H591.865V246.983ZM567.506 246.983H555.326V244.983H567.506V246.983ZM543.147 246.983H530.967V244.983H543.147V246.983ZM518.788 246.983H506.608V244.983H518.788V246.983ZM494.428 246.983H482.249V244.983H494.428V246.983ZM470.069 246.983H457.89V244.983H470.069V246.983ZM445.71 246.983H433.53V244.983H445.71V246.983ZM421.351 246.983H409.171V244.983H421.351V246.983ZM396.992 246.983H384.812V244.983H396.992V246.983ZM372.632 246.983H360.453V244.983H372.632V246.983ZM348.273 246.983H336.094V244.983H348.273V246.983ZM323.914 246.983H311.734V244.983H323.914V246.983ZM299.555 246.983H287.375V244.983H299.555V246.983ZM275.196 246.983H263.016V244.983H275.196V246.983ZM250.836 246.983H238.657V244.983H250.836L250.836 246.983ZM226.477 246.983H214.298V244.983H226.477V246.983ZM202.118 246.983H189.938V244.983H202.118V246.983ZM177.759 246.983H165.579V244.983H177.759V246.983ZM153.4 246.983H141.22V244.983H153.4V246.983ZM129.041 246.983H116.861V244.983H129.041V246.983ZM104.681 246.983H92.5019V244.983H104.681V246.983ZM80.3223 246.983H68.1426V244.983H80.3223V246.983Z" fill="#E6E6E6"/>
<path d="M829.277 244.983H823.277V246.983H829.277V244.983Z" fill="#E6E6E6"/>
<path d="M55.9629 215.983H49.9629V217.983H55.9629V215.983Z" fill="#E6E6E6"/>
<path d="M811.097 217.983H798.918V215.983H811.097V217.983ZM786.738 217.983H774.559V215.983H786.738V217.983ZM762.379 217.983H750.2V215.983H762.379V217.983ZM738.02 217.983H725.84V215.983H738.02V217.983ZM713.661 217.983H701.481V215.983H713.661V217.983ZM689.302 217.983H677.122V215.983H689.302V217.983ZM664.942 217.983H652.763V215.983H664.942V217.983ZM640.583 217.983H628.404V215.983H640.583L640.583 217.983ZM616.224 217.983H604.045V215.983H616.224V217.983ZM591.865 217.983H579.686V215.983H591.865V217.983ZM567.506 217.983H555.326V215.983H567.506V217.983ZM543.147 217.983H530.967V215.983H543.147V217.983ZM518.788 217.983H506.608V215.983H518.788V217.983ZM494.428 217.983H482.249V215.983H494.428V217.983ZM470.069 217.983H457.89V215.983H470.069V217.983ZM445.71 217.983H433.53V215.983H445.71V217.983ZM421.351 217.983H409.171V215.983H421.351V217.983ZM396.992 217.983H384.812V215.983H396.992V217.983ZM372.632 217.983H360.453V215.983H372.632V217.983ZM348.273 217.983H336.094V215.983H348.273V217.983ZM323.914 217.983H311.734V215.983H323.914V217.983ZM299.555 217.983H287.375V215.983H299.555V217.983ZM275.196 217.983H263.016V215.983H275.196V217.983ZM250.836 217.983H238.657V215.983H250.836L250.836 217.983ZM226.477 217.983H214.298V215.983H226.477V217.983ZM202.118 217.983H189.938V215.983H202.118V217.983ZM177.759 217.983H165.579V215.983H177.759V217.983ZM153.4 217.983H141.22V215.983H153.4V217.983ZM129.041 217.983H116.861V215.983H129.041V217.983ZM104.681 217.983H92.5019V215.983H104.681V217.983ZM80.3223 217.983H68.1426V215.983H80.3223V217.983Z" fill="#E6E6E6"/>
<path d="M829.277 215.983H823.277V217.983H829.277V215.983Z" fill="#E6E6E6"/>
<path d="M55.9629 195.983H49.9629V197.983H55.9629V195.983Z" fill="#E6E6E6"/>
<path d="M811.097 197.983H798.918V195.983H811.097V197.983ZM786.738 197.983H774.559V195.983H786.738V197.983ZM762.379 197.983H750.2V195.983H762.379V197.983ZM738.02 197.983H725.84V195.983H738.02V197.983ZM713.661 197.983H701.481V195.983H713.661V197.983ZM689.302 197.983H677.122V195.983H689.302V197.983ZM664.942 197.983H652.763V195.983H664.942V197.983ZM640.583 197.983H628.404V195.983H640.583L640.583 197.983ZM616.224 197.983H604.045V195.983H616.224V197.983ZM591.865 197.983H579.686V195.983H591.865V197.983ZM567.506 197.983H555.326V195.983H567.506V197.983ZM543.147 197.983H530.967V195.983H543.147V197.983ZM518.788 197.983H506.608V195.983H518.788V197.983ZM494.428 197.983H482.249V195.983H494.428V197.983ZM470.069 197.983H457.89V195.983H470.069V197.983ZM445.71 197.983H433.53V195.983H445.71V197.983ZM421.351 197.983H409.171V195.983H421.351V197.983ZM396.992 197.983H384.812V195.983H396.992V197.983ZM372.632 197.983H360.453V195.983H372.632V197.983ZM348.273 197.983H336.094V195.983H348.273V197.983ZM323.914 197.983H311.734V195.983H323.914V197.983ZM299.555 197.983H287.375V195.983H299.555V197.983ZM275.196 197.983H263.016V195.983H275.196V197.983ZM250.836 197.983H238.657V195.983H250.836L250.836 197.983ZM226.477 197.983H214.298V195.983H226.477V197.983ZM202.118 197.983H189.938V195.983H202.118V197.983ZM177.759 197.983H165.579V195.983H177.759V197.983ZM153.4 197.983H141.22V195.983H153.4V197.983ZM129.041 197.983H116.861V195.983H129.041V197.983ZM104.681 197.983H92.5019V195.983H104.681V197.983ZM80.3223 197.983H68.1426V195.983H80.3223V197.983Z" fill="#E6E6E6"/>
<path d="M829.277 195.983H823.277V197.983H829.277V195.983Z" fill="#E6E6E6"/>
<path d="M55.9629 152.983H49.9629V154.983H55.9629V152.983Z" fill="#E6E6E6"/>
<path d="M811.097 154.983H798.918V152.983H811.097V154.983ZM786.738 154.983H774.559V152.983H786.738V154.983ZM762.379 154.983H750.2V152.983H762.379V154.983ZM738.02 154.983H725.84V152.983H738.02V154.983ZM713.661 154.983H701.481V152.983H713.661V154.983ZM689.302 154.983H677.122V152.983H689.302V154.983ZM664.942 154.983H652.763V152.983H664.942V154.983ZM640.583 154.983H628.404V152.983H640.583L640.583 154.983ZM616.224 154.983H604.045V152.983H616.224V154.983ZM591.865 154.983H579.686V152.983H591.865V154.983ZM567.506 154.983H555.326V152.983H567.506V154.983ZM543.147 154.983H530.967V152.983H543.147V154.983ZM518.788 154.983H506.608V152.983H518.788V154.983ZM494.428 154.983H482.249V152.983H494.428V154.983ZM470.069 154.983H457.89V152.983H470.069V154.983ZM445.71 154.983H433.53V152.983H445.71V154.983ZM421.351 154.983H409.171V152.983H421.351V154.983ZM396.992 154.983H384.812V152.983H396.992V154.983ZM372.632 154.983H360.453V152.983H372.632V154.983ZM348.273 154.983H336.094V152.983H348.273V154.983ZM323.914 154.983H311.734V152.983H323.914V154.983ZM299.555 154.983H287.375V152.983H299.555V154.983ZM275.196 154.983H263.016V152.983H275.196V154.983ZM250.836 154.983H238.657V152.983H250.836L250.836 154.983ZM226.477 154.983H214.298V152.983H226.477V154.983ZM202.118 154.983H189.938V152.983H202.118V154.983ZM177.759 154.983H165.579V152.983H177.759V154.983ZM153.4 154.983H141.22V152.983H153.4V154.983ZM129.041 154.983H116.861V152.983H129.041V154.983ZM104.681 154.983H92.5019V152.983H104.681V154.983ZM80.3223 154.983H68.1426V152.983H80.3223V154.983Z" fill="#E6E6E6"/>
<path d="M829.277 152.983H823.277V154.983H829.277V152.983Z" fill="#E6E6E6"/>
<path d="M340.488 95.1966C340.488 105.963 337.296 116.487 331.314 125.439C325.333 134.39 316.831 141.367 306.885 145.488C296.938 149.608 285.993 150.686 275.434 148.585C264.875 146.485 255.175 141.3 247.563 133.688C239.95 126.075 234.765 116.376 232.665 105.816C230.565 95.2571 231.643 84.3121 235.763 74.3655C239.883 64.4189 246.86 55.9174 255.811 49.9361C264.763 43.9548 275.287 40.7623 286.054 40.7623C293.211 40.7304 300.304 42.1166 306.922 44.8409C313.541 47.5652 319.554 51.5736 324.616 56.6347C329.677 61.6957 333.685 67.7092 336.409 74.3279C339.134 80.9465 340.52 88.0393 340.488 95.1966Z" fill="#F2F2F2"/>
<path d="M308.316 82.1722L308.046 82.6577C310.444 76.7495 308.264 69.4691 303.987 65.0141C299.711 60.5591 293.765 58.5223 287.911 57.7143C283.566 56.9479 279.097 57.2951 274.922 58.7237C268.938 61.0289 264.366 66.3653 260.549 71.9167C258.803 74.4558 257.086 77.3505 257.26 80.5241C257.422 83.4693 259.17 85.9685 260.602 88.4672C262.033 90.9659 263.229 94.066 262.201 96.7931C261.589 98.4183 260.295 99.5888 259.245 100.918C258.195 102.248 257.331 104.045 257.838 105.713C258.064 106.351 258.45 106.92 258.961 107.364C259.472 107.807 260.089 108.111 260.753 108.245C262.037 108.46 263.351 108.429 264.624 108.154L297.993 103.112C300.261 102.769 302.412 101.884 304.263 100.53C306.114 99.1765 307.61 97.3953 308.624 95.3385C309.638 93.2816 310.14 91.0101 310.086 88.7175C310.032 86.425 309.425 84.1794 308.316 82.1722Z" fill="#263238"/>
<path d="M283.496 102.879C292.507 102.879 299.811 95.5749 299.811 86.5646C299.811 77.5543 292.507 70.25 283.496 70.25C274.486 70.25 267.182 77.5543 267.182 86.5646C267.182 95.5749 274.486 102.879 283.496 102.879Z" fill="#FFB9B9"/>
<path d="M326.927 131.137C317.496 141.868 304.224 148.459 289.976 149.489C275.727 150.519 261.645 145.904 250.77 136.641L255.439 123.613C256.494 121.299 258.159 119.316 260.255 117.876C262.352 116.437 264.8 115.595 267.339 115.441L270.309 115.259L277.392 109.15C277.392 109.15 296.475 108.469 296.192 108.143L307.752 115.096L307.742 115.048L312.287 115.326C314.825 115.479 317.274 116.321 319.371 117.76C321.467 119.2 323.132 121.183 324.187 123.498L326.927 131.137Z" fill="#FF5833"/>
<path d="M298.97 71.4231C298.549 69.1952 296.276 68.1762 294.33 67.6824C288.683 66.2416 282.808 65.9191 277.037 66.7328C272.831 67.3328 268.524 68.6556 265.472 71.9393C263.01 74.7042 261.616 78.2562 261.538 81.9571C261.414 84.1699 261.908 86.3737 262.966 88.3213C263.439 89.228 264.14 89.9961 265 90.5502C265.86 91.1042 266.849 91.4253 267.87 91.4817L268.065 92.1624C272.289 91.482 276.315 89.8973 279.869 87.5168C283.423 85.1362 286.421 82.016 288.657 78.3696C287.758 81.5811 285.968 84.4725 283.495 86.7096C289.025 84.4968 293.832 80.7921 297.38 76.0081C298.349 74.722 299.29 73.118 298.97 71.4231Z" fill="#263238"/>
<path d="M749.931 166.885C779.994 166.885 804.365 142.514 804.365 112.451C804.365 82.3877 779.994 58.0166 749.931 58.0166C719.867 58.0166 695.496 82.3877 695.496 112.451C695.496 142.514 719.867 166.885 749.931 166.885Z" fill="#F2F2F2"/>
<path d="M734.982 92.0247C739.227 92.0247 742.667 88.5839 742.667 84.3395C742.667 80.0951 739.227 76.6543 734.982 76.6543C730.738 76.6543 727.297 80.0951 727.297 84.3395C727.297 88.5839 730.738 92.0247 734.982 92.0247Z" fill="#263238"/>
<path d="M747.278 121.229C758.03 121.229 766.747 112.512 766.747 101.759C766.747 91.0067 758.03 82.29 747.278 82.29C736.525 82.29 727.809 91.0067 727.809 101.759C727.809 112.512 736.525 121.229 747.278 121.229Z" fill="#263238"/>
<path d="M748.889 121.224C757.627 121.224 764.71 114.141 764.71 105.403C764.71 96.6653 757.627 89.582 748.889 89.582C740.152 89.582 733.068 96.6653 733.068 105.403C733.068 114.141 740.152 121.224 748.889 121.224Z" fill="#9E616A"/>
<path d="M759.634 89.2757C756.861 87.5856 753.686 86.6713 750.439 86.6285C747.193 86.5857 743.994 87.416 741.178 89.0324C738.363 90.6488 736.033 92.9921 734.432 95.8172C732.832 98.6423 732.02 101.845 732.081 105.092C740.143 107.116 748.612 108.665 757.209 105.576L759.24 100.607L760.436 105.58C763.055 106.65 765.68 107.555 768.304 105.569C768.412 102.332 767.667 99.1235 766.146 96.2642C764.624 93.405 762.379 90.9951 759.634 89.2757Z" fill="#263238"/>
<path d="M727.826 63.4777C725.128 62.326 722.161 61.9524 719.262 62.3991C716.362 62.8458 713.645 64.0949 711.419 66.0053C709.241 67.9701 707.584 70.443 706.594 73.2038C705.604 75.9645 705.312 78.9273 705.744 81.8282C706.616 87.7283 710.203 92.809 713.509 97.7728C716.815 102.737 720.045 108.176 720.042 114.14C720.039 118.435 718.333 122.555 715.298 125.594C712.262 128.634 708.145 130.346 703.85 130.354C708.891 132.525 714.153 134.738 719.636 134.48C725.119 134.223 730.866 130.698 731.761 125.283C732.405 121.38 730.491 117.575 728.894 113.957C726.293 108.061 724.413 101.873 723.295 95.5261C722.762 92.4971 722.414 89.3127 723.402 86.4C724.188 84.2416 725.648 82.393 727.564 81.1268C729.481 79.8606 731.754 79.2439 734.048 79.3676L735.86 77.7377C736.17 74.8205 735.563 71.8792 734.123 69.3232C732.683 66.7673 730.482 64.7239 727.826 63.4777Z" fill="#263238"/>
<path d="M790.888 148.871C781.457 159.602 768.185 166.194 753.937 167.223C739.688 168.253 725.606 163.638 714.73 154.375L719.399 141.347C720.455 139.033 722.12 137.05 724.216 135.611C726.313 134.171 728.761 133.329 731.3 133.176L734.27 132.993L741.353 126.885C741.353 126.885 760.436 126.203 760.153 125.877L771.713 132.83L771.703 132.782L776.247 133.06C778.786 133.213 781.235 134.055 783.332 135.495C785.428 136.934 787.093 138.918 788.148 141.232L790.888 148.871Z" fill="#FF5833"/>
<path d="M649.488 54.5309C649.469 65.297 646.258 75.8157 640.26 84.7568C634.263 93.6978 625.749 100.66 615.796 104.762C605.842 108.864 594.895 109.923 584.339 107.804C573.784 105.685 564.094 100.483 556.494 92.857C548.895 85.2308 543.728 75.5223 541.646 64.9594C539.565 54.3964 540.662 43.4534 544.8 33.5141C548.937 23.5749 555.93 15.0858 564.892 9.12031C573.854 3.15486 584.384 -0.0190032 595.15 8.56009e-05C602.304 -0.00579717 609.388 1.40209 615.996 4.14282C622.604 6.88355 628.605 10.9031 633.654 15.9705C638.704 21.0378 642.702 27.0531 645.419 33.6706C648.136 40.2881 649.519 47.3773 649.488 54.5309Z" fill="#F2F2F2"/>
<path d="M569.825 36.7269C572.076 29.5536 577.194 22.9744 584.273 20.5494C591.352 18.1244 601.718 21.8185 607.04 27.1224C616.774 36.8244 619.15 70.1542 612.462 80.6868C611.132 80.6164 606.541 80.5643 605.195 80.5139L603.29 74.1656V80.4513C601.145 80.385 598.983 80.3392 596.804 80.314C589.5 80.2234 582.515 77.3044 577.318 72.1705C572.121 67.0366 569.117 60.0878 568.937 52.7849C568.763 45.7986 568.938 39.5538 569.825 36.7269Z" fill="#263238"/>
<path d="M594.246 60.5015C602.814 60.5015 609.759 53.5559 609.759 44.988C609.759 36.4202 602.814 29.4746 594.246 29.4746C585.678 29.4746 578.732 36.4202 578.732 44.988C578.732 53.5559 585.678 60.5015 594.246 60.5015Z" fill="#9E616A"/>
<path d="M580.857 31.363L598.72 22.4189C602.371 24.0645 605.517 26.6571 607.829 29.9279C610.141 33.1986 611.536 37.0284 611.869 41.0199L612.314 46.353L604.835 44.4489L604.015 37.6297L602.745 43.917L599.293 43.0387L599.326 32.4519L595.872 43.0312L583.543 40.1987L580.857 31.363Z" fill="#263238"/>
<path d="M635.448 90.4565C626.018 101.187 612.746 107.779 598.497 108.808C584.249 109.838 570.167 105.223 559.291 95.9604L563.96 82.9323C565.015 80.6184 566.68 78.6353 568.777 77.1957C570.873 75.7561 573.322 74.9142 575.86 74.7605L578.831 74.5782L585.913 68.4696C585.913 68.4696 604.997 67.7882 604.714 67.4619L616.273 74.415L616.264 74.367L620.808 74.6453C623.347 74.7984 625.796 75.64 627.892 77.0797C629.989 78.5193 631.654 80.5028 632.708 82.8172L635.448 90.4565Z" fill="#FF5833"/>
<path d="M445.409 196.885C475.472 196.885 499.843 172.514 499.843 142.451C499.843 112.388 475.472 88.0166 445.409 88.0166C415.346 88.0166 390.975 112.388 390.975 142.451C390.975 172.514 415.346 196.885 445.409 196.885Z" fill="#F2F2F2"/>
<path d="M443.905 149.194C453.502 149.194 461.281 141.414 461.281 131.817C461.281 122.221 453.502 114.441 443.905 114.441C434.309 114.441 426.529 122.221 426.529 131.817C426.529 141.414 434.309 149.194 443.905 149.194Z" fill="#FFB6B6"/>
<path d="M486.247 178.871C476.817 189.602 463.544 196.194 449.296 197.223C435.047 198.253 420.965 193.638 410.09 184.375L414.759 171.347C415.814 169.033 417.479 167.05 419.575 165.611C421.672 164.171 424.121 163.329 426.659 163.176L429.629 162.993L436.712 156.885C436.712 156.885 455.796 156.203 455.513 155.877L467.072 162.83L467.063 162.782L471.607 163.06C474.146 163.213 476.595 164.055 478.691 165.495C480.788 166.934 482.453 168.918 483.507 171.232L486.247 178.871Z" fill="#FF5833"/>
<path d="M462.232 121.042C460.764 115.786 457.428 111.248 452.85 108.277C449.202 105.944 444.65 104.753 440.517 105.987C436.384 107.221 432.963 111.276 433.233 115.659C432.468 115.457 431.661 115.475 430.905 115.708C430.148 115.942 429.472 116.382 428.954 116.98C427.917 118.204 427.196 119.664 426.854 121.232C425.528 126.145 425.615 131.333 427.107 136.198L427.025 136.896C429.042 136.563 430.571 134.833 431.522 132.99C432.473 131.146 433.02 129.102 434.051 127.303C435.082 125.505 436.793 123.901 438.835 123.845L438.655 126.966C440.412 126.061 442.169 125.156 443.926 124.251C443.508 125.251 443.09 126.25 442.672 127.25C444.206 126.609 445.741 125.967 447.275 125.326C447.103 126.287 446.932 127.249 446.76 128.21C447.162 127.375 447.73 126.631 448.428 126.023C449.126 125.414 449.941 124.953 450.822 124.668C451.703 124.383 452.633 124.28 453.556 124.365C454.478 124.449 455.374 124.721 456.188 125.161C458.023 126.396 459.345 128.256 459.908 130.395C460.466 132.528 460.765 134.721 460.799 136.926C463.17 131.976 463.679 126.337 462.232 121.042Z" fill="#263238"/>
<path d="M130.27 221.632C160.334 221.632 184.705 197.26 184.705 167.197C184.705 137.134 160.334 112.763 130.27 112.763C100.207 112.763 75.8359 137.134 75.8359 167.197C75.8359 197.26 100.207 221.632 130.27 221.632Z" fill="#F2F2F2"/>
<path d="M129.071 172.844C138.191 172.844 145.585 165.45 145.585 156.329C145.585 147.209 138.191 139.815 129.071 139.815C119.95 139.815 112.557 147.209 112.557 156.329C112.557 165.45 119.95 172.844 129.071 172.844Z" fill="#9E616A"/>
<path d="M170.407 203.137C160.977 213.868 147.705 220.459 133.456 221.489C119.208 222.519 105.126 217.904 94.25 208.641L98.919 195.613C99.9741 193.299 101.639 191.316 103.736 189.876C105.832 188.437 108.281 187.595 110.819 187.441L113.79 187.259L120.872 181.15C120.872 181.15 139.956 180.469 139.673 180.143L151.232 187.096L151.223 187.048L155.767 187.326C158.306 187.479 160.755 188.321 162.851 189.76C164.948 191.2 166.613 193.183 167.667 195.498L170.407 203.137Z" fill="#FF5833"/>
<path d="M114.067 163.964C114.034 163.873 114.005 163.782 113.973 163.691C113.909 163.747 113.848 163.805 113.779 163.858L114.067 163.964Z" fill="#263238"/>
<path d="M148.854 150.454C148.769 148.779 148.33 147.14 147.566 145.646C146.802 144.153 145.73 142.838 144.42 141.789C143.378 141.138 142.46 140.307 141.707 139.336C141.344 138.594 141.036 137.826 140.786 137.038C139.518 134.021 135.905 132.417 132.664 132.874C131.053 133.18 129.519 133.808 128.156 134.72C126.793 135.633 125.627 136.81 124.729 138.183C123.799 137.737 122.759 137.567 121.735 137.694C120.711 137.82 119.744 138.237 118.949 138.896C118.155 139.555 117.565 140.427 117.251 141.41C116.937 142.393 116.911 143.446 117.177 144.444C115.498 143.092 112.784 144.173 111.736 146.056C110.688 147.94 110.855 150.244 111.166 152.377C111.73 156.231 112.67 160.021 113.973 163.692C115.607 162.253 115.506 159.632 115.307 157.417C115.099 155.115 115.223 152.306 117.236 151.17C119.18 150.073 121.54 151.277 123.684 151.9C125.379 152.38 127.158 152.487 128.899 152.213C130.639 151.94 132.299 151.292 133.765 150.315C134.82 149.475 135.927 148.704 137.08 148.005C137.662 147.662 138.323 147.475 138.999 147.463C139.675 147.451 140.343 147.614 140.937 147.937C141.877 148.747 142.509 149.857 142.725 151.079C143.55 153.878 144.376 156.678 145.201 159.477C146.413 158.316 147.365 156.912 147.995 155.357C148.624 153.802 148.917 152.131 148.854 150.454Z" fill="#263238"/>
<path d="M130.452 263.525H125.256V415.828H130.452V263.525Z" fill="#263238"/>
<path d="M286.014 192.395H280.818V415.828H286.014V192.395Z" fill="#263238"/>
<path d="M441.897 239.16H436.701V415.828H441.897V239.16Z" fill="#263238"/>
<path d="M597.782 153.424H592.586V415.828H597.782V153.424Z" fill="#263238"/>
<path d="M753.665 213.18H748.469V415.828H753.665V213.18Z" fill="#263238"/>
<path d="M283.738 211.872C292.517 211.872 299.633 204.755 299.633 195.976C299.633 187.197 292.517 180.08 283.738 180.08C274.959 180.08 267.842 187.197 267.842 195.976C267.842 204.755 274.959 211.872 283.738 211.872Z" fill="#FF5833"/>
<path d="M595.503 170.303C604.282 170.303 611.399 163.186 611.399 154.407C611.399 145.628 604.282 138.512 595.503 138.512C586.724 138.512 579.607 145.628 579.607 154.407C579.607 163.186 586.724 170.303 595.503 170.303Z" fill="#FF5833"/>
<path d="M439.62 256.039C448.399 256.039 455.516 248.922 455.516 240.143C455.516 231.364 448.399 224.247 439.62 224.247C430.841 224.247 423.725 231.364 423.725 240.143C423.725 248.922 430.841 256.039 439.62 256.039Z" fill="#FF5833"/>
<path d="M127.853 279.421C136.632 279.421 143.749 272.305 143.749 263.526C143.749 254.747 136.632 247.63 127.853 247.63C119.074 247.63 111.957 254.747 111.957 263.526C111.957 272.305 119.074 279.421 127.853 279.421Z" fill="#FF5833"/>
<path d="M751.388 227.46C760.167 227.46 767.284 220.344 767.284 211.565C767.284 202.786 760.167 195.669 751.388 195.669C742.609 195.669 735.492 202.786 735.492 211.565C735.492 220.344 742.609 227.46 751.388 227.46Z" fill="#FF5833"/>
<path d="M862.892 414.258H18.9978L13.6992 416.907C13.6992 417.61 13.9784 418.284 14.4752 418.78C14.972 419.277 15.6459 419.556 16.3485 419.556H862.892C863.595 419.556 864.268 419.277 864.765 418.78C865.262 418.284 865.541 417.61 865.541 416.907C865.541 416.204 865.262 415.531 864.765 415.034C864.268 414.537 863.595 414.258 862.892 414.258Z" fill="#263238"/>
<path d="M15.8958 431.548C24.6748 431.548 31.7915 424.432 31.7915 415.653C31.7915 406.874 24.6748 399.757 15.8958 399.757C7.11678 399.757 0 406.874 0 415.653C0 424.432 7.11678 431.548 15.8958 431.548Z" fill="#263238"/>
<path d="M127.896 477.548C136.675 477.548 143.792 470.432 143.792 461.653C143.792 452.874 136.675 445.757 127.896 445.757C119.117 445.757 112 452.874 112 461.653C112 470.432 119.117 477.548 127.896 477.548Z" fill="#E6E6E6"/>
<path d="M283.896 477.548C292.675 477.548 299.792 470.432 299.792 461.653C299.792 452.874 292.675 445.757 283.896 445.757C275.117 445.757 268 452.874 268 461.653C268 470.432 275.117 477.548 283.896 477.548Z" fill="#E6E6E6"/>
<path d="M439.896 477.548C448.675 477.548 455.792 470.432 455.792 461.653C455.792 452.874 448.675 445.757 439.896 445.757C431.117 445.757 424 452.874 424 461.653C424 470.432 431.117 477.548 439.896 477.548Z" fill="#E6E6E6"/>
<path d="M594.896 477.548C603.675 477.548 610.792 470.432 610.792 461.653C610.792 452.874 603.675 445.757 594.896 445.757C586.117 445.757 579 452.874 579 461.653C579 470.432 586.117 477.548 594.896 477.548Z" fill="#E6E6E6"/>
<path d="M750.896 477.548C759.675 477.548 766.792 470.432 766.792 461.653C766.792 452.874 759.675 445.757 750.896 445.757C742.117 445.757 735 452.874 735 461.653C735 470.432 742.117 477.548 750.896 477.548Z" fill="#E6E6E6"/>
<path d="M867.896 431.548C876.675 431.548 883.792 424.432 883.792 415.653C883.792 406.874 876.675 399.757 867.896 399.757C859.117 399.757 852 406.874 852 415.653C852 424.432 859.117 431.548 867.896 431.548Z" fill="#263238"/>
<path d="M581.761 361.06L605.006 337.816L700.79 419.569C712.521 429.582 713.227 447.469 702.321 458.375C691.415 469.281 673.528 468.575 663.515 456.844L581.761 361.06Z" fill="#1A3166"/>
<path d="M598.27 380.395L663.52 456.843C673.533 468.574 691.42 469.28 702.326 458.374C713.232 447.468 712.526 429.581 700.795 419.569L615.455 346.729C612.021 359.11 606.111 370.508 598.27 380.395Z" fill="#FF5833"/>
<path fill-rule="evenodd" clip-rule="evenodd" d="M507.107 240.856C496.168 247.976 487.504 258.276 482.245 270.483C476.986 282.693 475.382 296.237 477.647 309.395C479.913 322.552 485.939 334.695 494.928 344.3C503.915 353.903 515.456 360.536 528.076 363.401C540.694 366.265 553.861 365.241 565.921 360.451L565.922 360.451C573.934 357.27 581.27 352.501 587.505 346.404C593.741 340.306 598.753 332.999 602.245 324.894C605.737 316.788 607.635 308.05 607.826 299.18C608.018 290.31 606.497 281.493 603.357 273.235L603.357 273.234C598.629 260.797 590.414 250.111 579.788 242.501C569.166 234.893 556.602 230.694 543.686 230.402C530.771 230.111 518.042 233.739 507.107 240.856ZM462.032 261.776C468.985 245.636 480.48 231.926 495.101 222.41C509.725 212.892 526.806 208.007 544.183 208.399C561.56 208.791 578.41 214.443 592.603 224.608C606.793 234.771 617.682 248.98 623.929 265.414C628.079 276.327 630.082 287.961 629.83 299.654C629.578 311.348 627.075 322.882 622.458 333.601C617.841 344.319 611.196 354.019 602.893 362.139C594.589 370.259 584.788 376.641 574.045 380.906C557.862 387.333 540.165 388.713 523.204 384.863C506.245 381.014 490.818 372.118 478.859 359.339C466.902 346.563 458.945 330.478 455.958 313.13C452.971 295.782 455.081 277.914 462.032 261.776Z" fill="#FF5833"/>
<path d="M692.2 420.332L623.19 363.823C621.051 362.071 618.559 364.535 620.291 366.689L676.017 435.998C678.167 438.673 681.272 440.41 684.506 440.748L686.419 440.949C693.027 441.64 697.998 436.417 697.024 429.809L696.798 428.272C696.351 425.242 694.687 422.369 692.2 420.332Z" fill="#FFBBAC" fill-opacity="0.52"/>
<rect width="89.5256" height="15.4354" rx="7.71772" transform="matrix(-0.707107 0.707107 0.707107 0.707107 567.957 260.363)" fill="#FF5833"/>
<rect width="89.5256" height="15.4354" rx="7.71772" transform="matrix(0.707107 0.707107 0.707107 -0.707107 504.656 271.277)" fill="#FF5833"/>
</g>
<defs>
<clipPath id="clip0_362_8426">
<rect width="883.792" height="477.548" fill="white"/>
</clipPath>
</defs>
</svg>
