<svg xmlns="http://www.w3.org/2000/svg" fill="none" viewBox="0 0 394 367.19">
<g opacity="0.7" clip-path="url(#clip0_251_5552)">
<path d="M27.3698 250.415C20.6867 237.196 25.9829 221.063 39.2001 214.379C52.4174 207.695 68.5494 212.992 75.2325 226.21C81.9156 239.429 76.6194 255.562 63.4022 262.246C50.1849 268.93 34.0529 263.632 27.3698 250.415Z" fill="#DBDBDB"/>
<path d="M65.3905 238.473C63.2954 247.35 55.0078 254.258 55.0078 254.258C55.0078 254.258 44.5216 251.72 38.7304 244.677C33.8989 238.804 34.3119 231.144 39.1344 228.369C46.0467 224.39 50.9683 236.896 50.9683 236.896C50.9683 236.896 49.8632 223.501 57.8289 224.018C63.3802 224.378 67.1324 231.069 65.3905 238.473Z" fill="white"/>
<path d="M352.736 326.542C350.291 327.786 347.616 328.666 344.754 329.106C337.355 330.254 330.201 328.269 324.639 324.117C319.198 320.07 315.27 313.955 314.142 306.721C311.88 292.077 321.894 278.369 336.537 276.107C351.169 273.831 364.874 283.858 367.149 298.503C368.971 310.286 362.826 321.454 352.736 326.542Z" fill="#DBDBDB"/>
<path d="M349.031 300.25C348.646 304.74 344.693 308.068 340.203 307.683C335.713 307.297 332.386 303.344 332.772 298.853C333.158 294.363 337.11 291.035 341.601 291.421C346.091 291.806 349.417 295.76 349.031 300.25Z" fill="white"/>
<path d="M353.024 323.188L352.736 326.542C350.29 327.785 347.615 328.665 344.754 329.105C337.355 330.253 330.201 328.268 324.639 324.116L324.926 320.774C325.591 313.033 332.419 307.263 340.182 307.93C347.945 308.597 353.689 315.447 353.024 323.188Z" fill="white"/>
<path d="M336.9 108.536H333.727C331.719 108.536 330.133 106.949 330.133 104.94C330.133 102.999 331.72 101.346 333.727 101.346H338.149L340.225 89.3276H336.208C334.284 89.3276 332.629 87.6738 332.629 85.7328C332.629 83.7918 334.283 82.1381 336.208 82.1381H341.473L342.841 73.9183C343.128 72.112 344.647 70.9479 346.435 70.9479C348.714 70.9479 350.317 73.0236 350.03 75.1671L348.798 82.1381H359.633L361.017 73.9183C361.304 72.112 362.823 70.9479 364.679 70.9479C366.89 70.9479 368.544 73.0236 368.207 75.1671L367.025 82.1381H370.214C372.138 82.1381 373.793 83.7249 373.793 85.7328C373.793 87.6738 372.139 89.3276 370.214 89.3276H365.792L363.717 101.346H367.649C369.658 101.346 371.244 102.932 371.244 104.94C371.244 106.881 369.657 108.536 367.649 108.536H362.468L361.017 117.026C360.747 118.764 359.228 119.996 357.422 119.996C355.143 119.996 353.489 117.937 353.827 115.793L355.144 108.536H344.292L342.841 117.026C342.571 118.562 341.254 119.996 339.196 119.996C336.968 119.996 335.314 118.14 335.668 115.793L336.9 108.536ZM356.325 101.346L358.4 89.3276H347.616L345.541 101.346H356.325Z" fill="#EBEBEB"/>
<path d="M283.706 43.1398C279.846 27.3336 289.53 11.39 305.334 7.53031C321.139 3.67062 337.081 13.3542 340.94 29.1604C344.801 44.9667 335.117 60.9094 319.312 64.7699C303.507 68.6296 287.566 58.9461 283.706 43.1398Z" fill="#DBDBDB"/>
<path fill-rule="evenodd" clip-rule="evenodd" d="M308.307 47.8701C307.528 47.3813 306.851 46.6695 305.806 46.7694C305.406 46.8095 305.494 46.4777 305.492 46.2601C305.487 42.3335 305.488 38.4114 305.484 34.4884C305.484 34.2029 305.502 33.9683 305.813 33.8113C308.809 32.2994 310.109 29.3263 311.944 26.785C313.908 24.0725 314.581 21.1333 314.119 17.8811C313.994 16.998 314.405 16.602 315.201 16.4218C316.159 16.2032 317.112 16.4682 317.44 17.1265C318.248 18.7588 318.942 20.4554 319.152 22.2688C319.325 23.7576 318.792 25.2062 318.605 26.6789C318.469 27.7564 318.217 28.8215 318.013 29.9124C318.275 30.1033 318.581 30.0043 318.863 30.0087C322.177 30.0141 325.492 30.0123 328.808 30.0123C330.205 30.0123 330.889 30.4137 331.083 31.3405C331.322 32.4956 330.711 33.6704 329.639 34.2145C329.391 34.3394 328.943 34.227 328.913 34.615C328.884 35.0102 329.345 34.97 329.574 35.1297C330.774 35.953 330.552 37.6505 329.163 38.6326C328.829 38.8672 328.181 38.7584 328.165 39.249C328.157 39.6397 328.763 39.6352 329.037 39.9099C330.006 40.867 329.524 42.6546 328.077 43.3762C327.892 43.4681 327.662 43.4851 327.495 43.601C327.33 43.7116 327.169 43.8356 327.488 44.0622C328.923 45.088 328.893 46.5161 327.447 47.557C327.305 47.6596 327.161 47.764 327.015 47.8675C326.49 48.2528 325.869 48.2474 325.27 48.2492C320.072 48.2599 314.874 48.2564 309.675 48.2528C309.188 48.251 308.696 48.2359 308.307 47.8701Z" fill="white"/>
<path fill-rule="evenodd" clip-rule="evenodd" d="M293.527 40.9491C293.527 38.4569 293.539 35.9611 293.518 33.4697C293.515 32.9622 293.567 32.7133 294.188 32.7204C297.231 32.7579 300.268 32.757 303.309 32.7231C303.906 32.7169 303.998 32.922 303.995 33.4519C303.978 38.4694 303.973 43.486 303.998 48.5044C304.002 49.1421 303.828 49.3232 303.188 49.3125C300.238 49.2795 297.289 49.2724 294.341 49.3188C293.607 49.3304 293.505 49.0726 293.513 48.4303C293.55 45.9372 293.527 43.444 293.527 40.9491Z" fill="white"/>
<path d="M72.5855 361.322C72.5855 364.562 59.3843 367.19 43.0989 367.19C26.8135 367.19 13.6123 364.563 13.6123 361.322C13.6123 358.081 26.8135 355.453 43.0989 355.453C59.3843 355.453 72.5855 358.08 72.5855 361.322Z" fill="#EBEBEB"/>
<path d="M9.20996 339.428L56.1566 339.212L103.104 339.133L196.999 338.983L290.895 339.132L337.841 339.21L384.789 339.428L337.841 339.647L290.895 339.725L196.999 339.874L103.104 339.725L56.1566 339.645L9.20996 339.428Z" fill="#263238"/>
<path d="M318.163 58.9435H75.8369V361.322H318.163V58.9435Z" fill="#455A64"/>
<path d="M304.397 92.5603H89.6045V307.374H304.397V92.5603Z" fill="white"/>
<path d="M99.9714 81.6895C99.3595 82.0695 98.6799 82.3603 97.9414 82.5387C96.0318 83.0052 94.1169 82.6467 92.5685 81.686C91.0549 80.7503 89.8901 79.2392 89.4325 77.3731C88.5121 73.5946 90.823 69.7849 94.6012 68.8635C98.3766 67.9402 102.186 70.2541 103.109 74.0326C103.852 77.0734 102.495 80.133 99.9714 81.6895Z" fill="white"/>
<path d="M98.4118 74.8979C98.4118 76.0806 97.453 77.0395 96.2694 77.0395C95.0867 77.0395 94.1279 76.0806 94.1279 74.8979C94.1279 73.7151 95.0867 72.7562 96.2694 72.7562C97.453 72.7553 98.4118 73.7142 98.4118 74.8979Z" fill="#37474F"/>
<path d="M99.9712 80.8065V81.6904C99.3594 82.0704 98.6797 82.3612 97.9412 82.5396C96.0317 83.0061 94.1167 82.6476 92.5684 81.6869V80.8065C92.5684 78.7674 94.2246 77.1047 96.2698 77.1047C98.3149 77.1047 99.9712 78.7674 99.9712 80.8065Z" fill="#37474F"/>
<path d="M300.034 74.9077C300.396 74.9077 300.697 75.2092 300.697 75.5713C300.697 75.9343 300.396 76.226 300.034 76.226C299.672 76.226 299.38 75.9343 299.38 75.5713C299.38 75.2083 299.672 74.9077 300.034 74.9077Z" fill="#C7C7C7"/>
<path d="M302.07 74.9077C302.432 74.9077 302.733 75.2092 302.733 75.5713C302.733 75.9343 302.432 76.226 302.07 76.226C301.708 76.226 301.415 75.9343 301.415 75.5713C301.415 75.2083 301.707 74.9077 302.07 74.9077Z" fill="#C7C7C7"/>
<path d="M304.107 74.9077C304.469 74.9077 304.77 75.2092 304.77 75.5713C304.77 75.9343 304.469 76.226 304.107 76.226C303.745 76.226 303.453 75.9343 303.453 75.5713C303.453 75.2083 303.745 74.9077 304.107 74.9077Z" fill="#C7C7C7"/>
<path d="M179.263 73.9818H111.487V77.4222H179.263V73.9818Z" fill="#37474F"/>
<path d="M304.397 307.374H132.452V359.11L304.397 307.374Z" fill="#37474F"/>
<path d="M103.764 323.469C102.853 325.144 101.333 326.713 100.016 327.866C98.7084 329.018 97.6042 329.774 97.5177 329.832H96.8595C96.6757 329.706 92.4338 326.829 90.6134 323.459C89.3353 321.115 89.1605 318.501 90.1773 316.796C90.8257 315.711 91.8719 315.111 93.1215 315.111C95.1845 315.111 96.4911 316.564 97.1886 317.978C97.8861 316.564 99.1838 315.111 101.246 315.111C102.504 315.111 103.551 315.711 104.2 316.796C105.217 318.51 105.042 321.125 103.764 323.469Z" fill="#FF5733"/>
<path d="M147.637 330.674L146.595 330.474L144.46 322.521L139.535 317.144L139.97 316.154H157.345L157.817 317.099L147.637 330.674ZM141.312 317.336L145.428 321.83L145.563 322.075L147.42 328.995L156.163 317.335H141.312V317.336Z" fill="#C7C7C7"/>
<path d="M157.656 315.949L144.225 321.911L144.704 322.991L158.135 317.028L157.656 315.949Z" fill="#C7C7C7"/>
<path d="M121.398 329.925C117.316 329.925 113.994 326.603 113.994 322.521C113.994 318.432 117.316 315.104 121.398 315.104C125.487 315.104 128.813 318.432 128.813 322.521C128.813 323.231 128.71 323.939 128.505 324.629L129.623 329.194L128.915 329.909L125.009 328.995C123.91 329.603 122.666 329.925 121.398 329.925ZM121.398 316.286C117.967 316.286 115.175 319.084 115.175 322.521C115.175 325.952 117.967 328.744 121.398 328.744C122.533 328.744 123.646 328.438 124.613 327.859L125.051 327.791L128.247 328.54L127.318 324.751L127.33 324.429C127.531 323.806 127.632 323.163 127.632 322.521C127.633 319.083 124.836 316.286 121.398 316.286Z" fill="#C7C7C7"/>
<path d="M294.295 329.816L293.357 329.339V316.746L293.948 316.155H304.18L304.77 316.746V329.339L303.833 329.816L299.065 325.486L294.295 329.816ZM294.537 317.336V328.179L298.716 324.281H299.41L303.588 328.179V317.336H294.537Z" fill="#C7C7C7"/>
<path d="M222.229 199.662C222.195 200.038 221.894 200.391 221.499 200.393C220.598 200.342 219.519 200.265 218.306 200.184C216.443 192.425 214.157 186.155 214.656 188.551C215.379 192.019 215.607 196.903 215.17 199.962C213.764 199.858 210.509 199.586 208.879 199.45C208.13 186.122 206.242 176.064 206.046 179.066C205.26 191.173 204.042 194.937 202.666 198.948C187.488 197.667 167.609 195.77 153.268 194.091C152.56 186.686 152.137 178.715 151.816 179.225C149.329 183.033 148.023 188.854 147.383 193.387C142.821 192.82 139.185 192.283 136.985 191.845C136.985 191.845 136.715 185.661 136.823 183.653C137.073 178.536 138.318 173.42 140.414 168.719C142.592 163.879 145.798 159.773 148.882 155.537C148.906 155.502 148.93 155.466 148.957 155.445C148.955 155.43 148.969 155.428 148.981 155.41C151.095 152.477 152.751 149.62 154.023 146.532C154.035 146.514 154.047 146.496 154.057 146.463C154.943 144.268 155.641 141.973 156.183 139.415C158.016 130.625 164.026 123.602 172.677 122.35C190.387 109.578 205.353 117.887 208.622 129.895C208.936 131.064 209.214 132.395 209.464 133.839L209.47 133.885C210.41 139.226 210.979 146.075 211.637 151.396C211.624 151.414 211.641 151.426 211.641 151.426C211.629 151.444 211.632 151.459 211.649 151.486L211.652 151.501C211.986 154.038 212.325 156.203 212.742 157.691C215.503 167.475 223.91 173.929 222.229 199.662Z" fill="#263238"/>
<path d="M168.721 124.323C162.87 126.459 158.964 130.189 157.264 136.559C156.273 140.272 155.536 143.924 153.617 147.3C151.636 150.783 148.869 153.491 146.037 156.187C141.536 160.469 138.211 164.885 136.773 171.166C135.313 177.546 134.621 185.207 136.007 191.517C136.015 191.554 136.068 191.544 136.062 191.506C135.099 185.166 136.165 176.702 138.096 170.443C140.217 163.57 144.779 159.667 149.554 154.856C153.347 151.034 156.026 146.611 157.427 141.291C158.256 138.142 158.647 134.803 160.333 131.954C162.344 128.553 165.714 126.663 169.023 125.029C169.473 124.806 169.165 124.16 168.721 124.323Z" fill="#263238"/>
<path d="M220.613 168.823C217.412 163.285 213.953 158.468 212.511 151.926C211.199 145.966 210.81 139.798 209.458 133.84C209.436 133.744 209.295 133.764 209.313 133.865C211.22 144.381 210.506 154.648 215.908 163.988C218.843 169.063 221.821 173.8 223.428 179.636C225.118 185.769 225.377 191.958 224.697 198.369C224.673 198.593 224.961 198.618 225.009 198.407C227.341 188.19 225.639 177.519 220.613 168.823Z" fill="#263238"/>
<path d="M199.034 203.974C227.518 233.834 262.937 296.234 255.932 308.647C248.13 322.473 207.054 279.969 208.342 277.934C209.438 276.204 195.246 238.631 184.935 211.153C174.634 183.699 191.991 196.59 199.034 203.974Z" fill="#C95F50"/>
<path d="M233.937 239.773L193.035 247.138C193.035 247.138 182.825 218.154 180.8 202.06C179.666 193.042 184.965 192.671 191.632 197.464C214.969 214.24 233.937 239.773 233.937 239.773Z" fill="#FF5733"/>
<path d="M189.896 207.157C189.731 207.461 189.457 207.745 189.218 207.954C188.981 208.163 188.781 208.299 188.765 208.31H188.646C188.613 208.287 187.844 207.766 187.515 207.156C187.283 206.731 187.252 206.257 187.436 205.949C187.553 205.752 187.742 205.644 187.969 205.644C188.343 205.644 188.579 205.907 188.706 206.163C188.832 205.907 189.067 205.644 189.441 205.644C189.669 205.644 189.858 205.752 189.976 205.949C190.16 206.259 190.127 206.733 189.896 207.157ZM202.54 206.135C202.447 206.431 202.504 206.81 202.688 207.153C203.021 207.763 203.789 208.291 203.817 208.309H203.937C203.956 208.3 204.159 208.161 204.39 207.957C204.427 207.93 204.455 207.902 204.492 207.856C203.854 207.282 203.198 206.7 202.54 206.135ZM182.385 196.181C182.274 195.987 182.08 195.876 181.858 195.876C181.728 195.876 181.617 195.904 181.515 195.959V195.968C181.136 196.56 180.868 197.337 180.738 198.299C180.914 198.447 181.043 198.53 181.062 198.54H181.182C181.191 198.531 181.395 198.392 181.627 198.188C181.867 197.975 182.145 197.698 182.312 197.393C182.542 196.967 182.569 196.495 182.385 196.181ZM189.975 225.409C189.857 225.213 189.668 225.104 189.44 225.104C189.066 225.104 188.831 225.367 188.705 225.623C188.579 225.367 188.342 225.104 187.968 225.104C187.742 225.104 187.552 225.213 187.435 225.409C187.251 225.718 187.282 226.192 187.514 226.616C187.844 227.226 188.612 227.747 188.645 227.771H188.765C188.781 227.76 188.98 227.623 189.217 227.415C189.456 227.206 189.731 226.921 189.896 226.618C190.127 226.193 190.16 225.72 189.975 225.409ZM205.15 225.409C205.032 225.213 204.843 225.104 204.615 225.104C204.241 225.104 204.006 225.367 203.88 225.623C203.753 225.367 203.517 225.104 203.143 225.104C202.917 225.104 202.727 225.213 202.61 225.409C202.425 225.718 202.457 226.192 202.689 226.616C203.019 227.226 203.787 227.747 203.82 227.771H203.94C203.956 227.76 204.155 227.623 204.392 227.415C204.63 227.206 204.906 226.921 205.071 226.618C205.302 226.193 205.335 225.72 205.15 225.409ZM220.325 225.409C220.207 225.213 220.018 225.104 219.79 225.104C219.416 225.104 219.181 225.367 219.055 225.623C218.928 225.367 218.692 225.104 218.318 225.104C218.092 225.104 217.902 225.213 217.785 225.409C217.6 225.718 217.632 226.192 217.864 226.616C218.194 227.226 218.962 227.747 218.995 227.771H219.115C219.131 227.76 219.33 227.623 219.567 227.415C219.805 227.206 220.081 226.921 220.246 226.618C220.477 226.193 220.51 225.72 220.325 225.409ZM197.562 215.643C197.445 215.447 197.256 215.338 197.027 215.338C196.654 215.338 196.419 215.601 196.292 215.857C196.166 215.601 195.929 215.338 195.556 215.338C195.329 215.338 195.14 215.447 195.022 215.643C194.839 215.952 194.87 216.425 195.102 216.85C195.432 217.46 196.2 217.981 196.233 218.004H196.352C196.368 217.993 196.568 217.857 196.804 217.648C197.042 217.439 197.318 217.155 197.483 216.852C197.715 216.427 197.747 215.953 197.562 215.643ZM212.737 215.643C212.62 215.447 212.431 215.338 212.202 215.338C211.829 215.338 211.594 215.601 211.467 215.857C211.341 215.601 211.104 215.338 210.731 215.338C210.504 215.338 210.315 215.447 210.197 215.643C210.014 215.952 210.045 216.425 210.277 216.85C210.607 217.46 211.375 217.981 211.408 218.004H211.527C211.543 217.993 211.743 217.857 211.979 217.648C212.218 217.439 212.493 217.155 212.658 216.852C212.89 216.427 212.922 215.953 212.737 215.643ZM205.149 244.869C205.029 244.675 204.844 244.564 204.612 244.564C204.242 244.564 204.011 244.823 203.882 245.082C203.752 244.824 203.52 244.564 203.141 244.564C202.919 244.564 202.725 244.675 202.614 244.869C202.521 245.026 202.485 245.221 202.494 245.434L205.177 244.953C205.177 244.925 205.168 244.897 205.149 244.869ZM197.562 235.103C197.445 234.907 197.256 234.798 197.027 234.798C196.654 234.798 196.419 235.061 196.292 235.317C196.166 235.061 195.929 234.798 195.556 234.798C195.329 234.798 195.14 234.907 195.022 235.103C194.839 235.411 194.87 235.885 195.102 236.31C195.432 236.92 196.2 237.441 196.233 237.464H196.352C196.368 237.453 196.568 237.317 196.804 237.108C197.042 236.899 197.318 236.615 197.483 236.311C197.715 235.887 197.747 235.414 197.562 235.103ZM212.737 235.103C212.62 234.907 212.431 234.798 212.202 234.798C211.829 234.798 211.594 235.061 211.467 235.317C211.341 235.061 211.104 234.798 210.731 234.798C210.504 234.798 210.315 234.907 210.197 235.103C210.014 235.411 210.045 235.885 210.277 236.31C210.607 236.92 211.375 237.441 211.408 237.464H211.527C211.543 237.453 211.743 237.317 211.979 237.108C212.218 236.899 212.493 236.615 212.658 236.311C212.89 235.887 212.922 235.414 212.737 235.103ZM227.912 235.103C227.795 234.907 227.606 234.798 227.377 234.798C227.004 234.798 226.769 235.061 226.642 235.317C226.516 235.061 226.279 234.798 225.906 234.798C225.679 234.798 225.49 234.907 225.372 235.103C225.188 235.411 225.22 235.885 225.451 236.31C225.781 236.92 226.549 237.441 226.582 237.464H226.701C226.717 237.453 226.917 237.317 227.153 237.108C227.392 236.899 227.667 236.615 227.832 236.311C228.065 235.887 228.097 235.414 227.912 235.103Z" fill="white"/>
<path d="M193.304 240.441C199.503 238.787 216.446 234.786 227.797 233.626C227.865 233.618 227.922 233.875 227.856 233.891C218.559 236.282 199.706 239.711 193.388 240.821C193.27 240.842 193.188 240.472 193.304 240.441Z" fill="#263238"/>
<path opacity="0.1" d="M228.459 240.762L193.032 247.136C193.032 247.136 182.829 218.153 180.803 202.065C180.072 196.292 181.986 194.063 185.206 194.461L228.459 240.762Z" fill="black"/>
<path d="M215.648 307.423H111.989C111.989 307.423 121.42 235.101 154.812 197.071C163.82 186.811 180.156 189.847 187.887 196.791C189.815 198.526 192.481 201.575 195.405 205.332C202.426 214.356 213.895 236.022 214.967 241.882C216.738 251.567 208.166 262.035 208.166 262.035L215.648 307.423Z" fill="#FF5733"/>
<path d="M159.547 207.157C159.382 207.461 159.107 207.745 158.868 207.954C158.632 208.163 158.431 208.299 158.416 208.31H158.296C158.263 208.287 157.494 207.766 157.165 207.155C156.934 206.731 156.902 206.257 157.086 205.949C157.204 205.752 157.393 205.644 157.619 205.644C157.993 205.644 158.229 205.907 158.356 206.163C158.483 205.907 158.717 205.644 159.091 205.644C159.319 205.644 159.508 205.752 159.626 205.949C159.81 206.259 159.778 206.733 159.547 207.157ZM174.8 205.949C174.683 205.752 174.493 205.644 174.265 205.644C173.891 205.644 173.657 205.907 173.53 206.163C173.404 205.907 173.167 205.644 172.793 205.644C172.567 205.644 172.378 205.752 172.26 205.949C172.076 206.257 172.108 206.731 172.339 207.155C172.669 207.766 173.437 208.287 173.47 208.31H173.59C173.606 208.299 173.806 208.163 174.042 207.954C174.28 207.745 174.556 207.461 174.721 207.157C174.953 206.733 174.985 206.259 174.8 205.949ZM189.975 205.949C189.857 205.752 189.668 205.644 189.44 205.644C189.066 205.644 188.832 205.907 188.705 206.163C188.579 205.907 188.342 205.644 187.968 205.644C187.742 205.644 187.553 205.752 187.435 205.949C187.251 206.257 187.283 206.731 187.514 207.155C187.844 207.766 188.612 208.287 188.645 208.31H188.765C188.781 208.299 188.981 208.163 189.217 207.954C189.456 207.745 189.731 207.461 189.896 207.157C190.128 206.733 190.16 206.259 189.975 205.949ZM167.213 196.183C167.095 195.987 166.906 195.878 166.678 195.878C166.304 195.878 166.069 196.141 165.943 196.397C165.816 196.141 165.58 195.878 165.206 195.878C164.979 195.878 164.79 195.987 164.673 196.183C164.488 196.492 164.52 196.965 164.751 197.39C165.081 198 165.849 198.521 165.882 198.544H166.002C166.018 198.533 166.217 198.397 166.454 198.188C166.693 197.979 166.967 197.695 167.132 197.392C167.365 196.967 167.397 196.493 167.213 196.183ZM182.388 196.183C182.27 195.987 182.081 195.878 181.853 195.878C181.479 195.878 181.244 196.141 181.118 196.397C180.991 196.141 180.755 195.878 180.381 195.878C180.154 195.878 179.965 195.987 179.848 196.183C179.664 196.492 179.695 196.965 179.927 197.39C180.257 198 181.025 198.521 181.058 198.544H181.177C181.193 198.533 181.393 198.397 181.63 198.188C181.868 197.979 182.143 197.695 182.308 197.392C182.54 196.967 182.572 196.493 182.388 196.183ZM144.45 225.409C144.333 225.213 144.143 225.104 143.915 225.104C143.541 225.104 143.307 225.367 143.18 225.623C143.054 225.367 142.817 225.104 142.443 225.104C142.217 225.104 142.028 225.213 141.91 225.409C141.726 225.718 141.758 226.192 141.989 226.616C142.319 227.226 143.087 227.747 143.12 227.77H143.24C143.256 227.76 143.456 227.623 143.692 227.415C143.93 227.206 144.206 226.921 144.371 226.618C144.603 226.193 144.634 225.72 144.45 225.409ZM159.625 225.409C159.508 225.213 159.318 225.104 159.09 225.104C158.716 225.104 158.482 225.367 158.355 225.623C158.229 225.367 157.992 225.104 157.618 225.104C157.392 225.104 157.203 225.213 157.085 225.409C156.901 225.718 156.933 226.192 157.164 226.616C157.494 227.226 158.262 227.747 158.295 227.77H158.415C158.431 227.76 158.631 227.623 158.867 227.415C159.106 227.206 159.381 226.921 159.546 226.618C159.778 226.193 159.81 225.72 159.625 225.409ZM174.8 225.409C174.683 225.213 174.493 225.104 174.265 225.104C173.891 225.104 173.657 225.367 173.53 225.623C173.404 225.367 173.167 225.104 172.793 225.104C172.567 225.104 172.378 225.213 172.26 225.409C172.076 225.718 172.108 226.192 172.339 226.616C172.669 227.226 173.437 227.747 173.47 227.77H173.59C173.606 227.76 173.806 227.623 174.042 227.415C174.28 227.206 174.556 226.921 174.721 226.618C174.953 226.193 174.985 225.72 174.8 225.409ZM189.975 225.409C189.857 225.213 189.668 225.104 189.44 225.104C189.066 225.104 188.832 225.367 188.705 225.623C188.579 225.367 188.342 225.104 187.968 225.104C187.742 225.104 187.553 225.213 187.435 225.409C187.251 225.718 187.283 226.192 187.514 226.616C187.844 227.226 188.612 227.747 188.645 227.77H188.765C188.781 227.76 188.981 227.623 189.217 227.415C189.456 227.206 189.731 226.921 189.896 226.618C190.128 226.193 190.16 225.72 189.975 225.409ZM205.15 225.409C205.033 225.213 204.843 225.104 204.615 225.104C204.241 225.104 204.007 225.367 203.88 225.623C203.753 225.367 203.517 225.104 203.143 225.104C202.917 225.104 202.728 225.213 202.61 225.409C202.425 225.718 202.458 226.192 202.689 226.616C203.019 227.226 203.787 227.747 203.82 227.77H203.94C203.956 227.76 204.156 227.623 204.392 227.415C204.63 227.206 204.906 226.921 205.071 226.618C205.303 226.193 205.335 225.72 205.15 225.409ZM152.038 215.643C151.92 215.447 151.731 215.338 151.503 215.338C151.129 215.338 150.894 215.601 150.768 215.857C150.641 215.601 150.405 215.338 150.031 215.338C149.804 215.338 149.615 215.447 149.498 215.643C149.313 215.951 149.345 216.425 149.576 216.85C149.906 217.46 150.674 217.981 150.707 218.004H150.827C150.843 217.993 151.042 217.857 151.279 217.648C151.517 217.439 151.792 217.155 151.957 216.852C152.19 216.427 152.222 215.953 152.038 215.643ZM167.213 215.643C167.095 215.447 166.906 215.338 166.678 215.338C166.304 215.338 166.069 215.601 165.943 215.857C165.816 215.601 165.58 215.338 165.206 215.338C164.979 215.338 164.79 215.447 164.673 215.643C164.488 215.951 164.52 216.425 164.751 216.85C165.081 217.46 165.849 217.981 165.882 218.004H166.002C166.018 217.993 166.217 217.857 166.454 217.648C166.693 217.439 166.967 217.155 167.132 216.852C167.365 216.427 167.397 215.953 167.213 215.643ZM182.388 215.643C182.27 215.447 182.081 215.338 181.853 215.338C181.479 215.338 181.244 215.601 181.118 215.857C180.991 215.601 180.755 215.338 180.381 215.338C180.154 215.338 179.965 215.447 179.848 215.643C179.664 215.951 179.695 216.425 179.927 216.85C180.257 217.46 181.025 217.981 181.058 218.004H181.177C181.193 217.993 181.393 217.857 181.63 217.648C181.868 217.439 182.143 217.155 182.308 216.852C182.54 216.427 182.572 215.953 182.388 215.643ZM197.563 215.643C197.445 215.447 197.256 215.338 197.028 215.338C196.654 215.338 196.419 215.601 196.293 215.857C196.166 215.601 195.93 215.338 195.556 215.338C195.329 215.338 195.14 215.447 195.023 215.643C194.839 215.951 194.87 216.425 195.102 216.85C195.432 217.46 196.2 217.981 196.233 218.004H196.352C196.368 217.993 196.568 217.857 196.805 217.648C197.043 217.439 197.318 217.155 197.483 216.852C197.715 216.427 197.747 215.953 197.563 215.643ZM129.271 244.869C129.16 244.675 128.966 244.564 128.744 244.564C128.365 244.564 128.134 244.823 128.003 245.082C127.985 245.055 127.976 245.017 127.957 244.99C127.735 245.563 127.523 246.128 127.318 246.701V246.71C127.623 247.006 127.928 247.219 127.947 247.229H128.068C128.077 247.22 128.281 247.081 128.521 246.877C128.752 246.664 129.029 246.378 129.196 246.081C129.429 245.655 129.456 245.183 129.271 244.869ZM144.45 244.869C144.333 244.673 144.143 244.564 143.915 244.564C143.541 244.564 143.307 244.827 143.18 245.083C143.054 244.827 142.817 244.564 142.443 244.564C142.217 244.564 142.028 244.673 141.91 244.869C141.726 245.178 141.758 245.652 141.989 246.076C142.319 246.686 143.087 247.207 143.12 247.23H143.24C143.256 247.22 143.456 247.083 143.692 246.874C143.93 246.666 144.206 246.382 144.371 246.078C144.603 245.653 144.634 245.18 144.45 244.869ZM159.625 244.869C159.508 244.673 159.318 244.564 159.09 244.564C158.716 244.564 158.482 244.827 158.355 245.083C158.229 244.827 157.992 244.564 157.618 244.564C157.392 244.564 157.203 244.673 157.085 244.869C156.901 245.178 156.933 245.652 157.164 246.076C157.494 246.686 158.262 247.207 158.295 247.23H158.415C158.431 247.22 158.631 247.083 158.867 246.874C159.106 246.666 159.381 246.382 159.546 246.078C159.778 245.653 159.81 245.18 159.625 244.869ZM174.8 244.869C174.683 244.673 174.493 244.564 174.265 244.564C173.891 244.564 173.657 244.827 173.53 245.083C173.404 244.827 173.167 244.564 172.793 244.564C172.567 244.564 172.378 244.673 172.26 244.869C172.076 245.178 172.108 245.652 172.339 246.076C172.669 246.686 173.437 247.207 173.47 247.23H173.59C173.606 247.22 173.806 247.083 174.042 246.874C174.28 246.666 174.556 246.382 174.721 246.078C174.953 245.653 174.985 245.18 174.8 244.869ZM189.975 244.869C189.857 244.673 189.668 244.564 189.44 244.564C189.066 244.564 188.832 244.827 188.705 245.083C188.579 244.827 188.342 244.564 187.968 244.564C187.742 244.564 187.553 244.673 187.435 244.869C187.251 245.178 187.283 245.652 187.514 246.076C187.844 246.686 188.612 247.207 188.645 247.23H188.765C188.781 247.22 188.981 247.083 189.217 246.874C189.456 246.666 189.731 246.382 189.896 246.078C190.128 245.653 190.16 245.18 189.975 244.869ZM205.15 244.869C205.033 244.673 204.843 244.564 204.615 244.564C204.241 244.564 204.007 244.827 203.88 245.083C203.753 244.827 203.517 244.564 203.143 244.564C202.917 244.564 202.728 244.673 202.61 244.869C202.425 245.178 202.458 245.652 202.689 246.076C203.019 246.686 203.787 247.207 203.82 247.23H203.94C203.956 247.22 204.156 247.083 204.392 246.874C204.63 246.666 204.906 246.382 205.071 246.078C205.303 245.653 205.335 245.18 205.15 244.869ZM136.863 235.103C136.745 234.906 136.556 234.798 136.328 234.798C135.954 234.798 135.719 235.061 135.593 235.317C135.467 235.061 135.23 234.798 134.856 234.798C134.629 234.798 134.44 234.906 134.323 235.103C134.139 235.411 134.17 235.885 134.401 236.31C134.731 236.92 135.499 237.441 135.532 237.464H135.652C135.668 237.453 135.867 237.317 136.104 237.108C136.343 236.899 136.617 236.615 136.782 236.311C137.015 235.887 137.046 235.414 136.863 235.103ZM152.038 235.103C151.92 234.906 151.731 234.798 151.503 234.798C151.129 234.798 150.894 235.061 150.768 235.317C150.641 235.061 150.405 234.798 150.031 234.798C149.804 234.798 149.615 234.906 149.498 235.103C149.313 235.411 149.345 235.885 149.576 236.31C149.906 236.92 150.674 237.441 150.707 237.464H150.827C150.843 237.453 151.042 237.317 151.279 237.108C151.517 236.899 151.792 236.615 151.957 236.311C152.19 235.887 152.222 235.414 152.038 235.103ZM167.213 235.103C167.095 234.906 166.906 234.798 166.678 234.798C166.304 234.798 166.069 235.061 165.943 235.317C165.816 235.061 165.58 234.798 165.206 234.798C164.979 234.798 164.79 234.906 164.673 235.103C164.488 235.411 164.52 235.885 164.751 236.31C165.081 236.92 165.849 237.441 165.882 237.464H166.002C166.018 237.453 166.217 237.317 166.454 237.108C166.693 236.899 166.967 236.615 167.132 236.311C167.365 235.887 167.397 235.414 167.213 235.103ZM182.388 235.103C182.27 234.906 182.081 234.798 181.853 234.798C181.479 234.798 181.244 235.061 181.118 235.317C180.991 235.061 180.755 234.798 180.381 234.798C180.154 234.798 179.965 234.906 179.848 235.103C179.664 235.411 179.695 235.885 179.927 236.31C180.257 236.92 181.025 237.441 181.058 237.464H181.177C181.193 237.453 181.393 237.317 181.63 237.108C181.868 236.899 182.143 236.615 182.308 236.311C182.54 235.887 182.572 235.414 182.388 235.103ZM197.563 235.103C197.445 234.906 197.256 234.798 197.028 234.798C196.654 234.798 196.419 235.061 196.293 235.317C196.166 235.061 195.93 234.798 195.556 234.798C195.329 234.798 195.14 234.906 195.023 235.103C194.839 235.411 194.87 235.885 195.102 236.31C195.432 236.92 196.2 237.441 196.233 237.464H196.352C196.368 237.453 196.568 237.317 196.805 237.108C197.043 236.899 197.318 236.615 197.483 236.311C197.715 235.887 197.747 235.414 197.563 235.103ZM212.383 234.823C212.327 234.804 212.272 234.795 212.207 234.795C211.828 234.795 211.596 235.063 211.467 235.313C211.337 235.063 211.106 234.795 210.726 234.795C210.504 234.795 210.32 234.906 210.199 235.1C210.015 235.415 210.042 235.887 210.273 236.312C210.606 236.923 211.374 237.441 211.411 237.468H211.532C211.541 237.45 211.745 237.32 211.976 237.107C212.217 236.904 212.494 236.616 212.661 236.311C212.744 236.154 212.8 235.997 212.828 235.849V235.84L212.383 234.823ZM129.275 264.329C129.158 264.133 128.968 264.024 128.74 264.024C128.366 264.024 128.132 264.287 128.005 264.543C127.879 264.287 127.642 264.024 127.268 264.024C127.042 264.024 126.853 264.133 126.735 264.329C126.551 264.638 126.583 265.111 126.814 265.536C127.144 266.146 127.912 266.667 127.945 266.69H128.065C128.081 266.68 128.281 266.543 128.517 266.334C128.755 266.126 129.031 265.841 129.196 265.538C129.428 265.113 129.459 264.64 129.275 264.329ZM144.45 264.329C144.333 264.133 144.143 264.024 143.915 264.024C143.541 264.024 143.307 264.287 143.18 264.543C143.054 264.287 142.817 264.024 142.443 264.024C142.217 264.024 142.028 264.133 141.91 264.329C141.726 264.638 141.758 265.111 141.989 265.536C142.319 266.146 143.087 266.667 143.12 266.69H143.24C143.256 266.68 143.456 266.543 143.692 266.334C143.93 266.126 144.206 265.841 144.371 265.538C144.603 265.113 144.634 264.64 144.45 264.329ZM159.625 264.329C159.508 264.133 159.318 264.024 159.09 264.024C158.716 264.024 158.482 264.287 158.355 264.543C158.229 264.287 157.992 264.024 157.618 264.024C157.392 264.024 157.203 264.133 157.085 264.329C156.901 264.638 156.933 265.111 157.164 265.536C157.494 266.146 158.262 266.667 158.295 266.69H158.415C158.431 266.68 158.631 266.543 158.867 266.334C159.106 266.126 159.381 265.841 159.546 265.538C159.778 265.113 159.81 264.64 159.625 264.329ZM174.8 264.329C174.683 264.133 174.493 264.024 174.265 264.024C173.891 264.024 173.657 264.287 173.53 264.543C173.404 264.287 173.167 264.024 172.793 264.024C172.567 264.024 172.378 264.133 172.26 264.329C172.076 264.638 172.108 265.111 172.339 265.536C172.669 266.146 173.437 266.667 173.47 266.69H173.59C173.606 266.68 173.806 266.543 174.042 266.334C174.28 266.126 174.556 265.841 174.721 265.538C174.953 265.113 174.985 264.64 174.8 264.329ZM189.975 264.329C189.857 264.133 189.668 264.024 189.44 264.024C189.066 264.024 188.832 264.287 188.705 264.543C188.579 264.287 188.342 264.024 187.968 264.024C187.742 264.024 187.553 264.133 187.435 264.329C187.251 264.638 187.283 265.111 187.514 265.536C187.844 266.146 188.612 266.667 188.645 266.69H188.765C188.781 266.68 188.981 266.543 189.217 266.334C189.456 266.126 189.731 265.841 189.896 265.538C190.128 265.113 190.16 264.64 189.975 264.329ZM205.15 264.329C205.033 264.133 204.843 264.024 204.615 264.024C204.241 264.024 204.007 264.287 203.88 264.543C203.753 264.287 203.517 264.024 203.143 264.024C202.917 264.024 202.728 264.133 202.61 264.329C202.425 264.638 202.458 265.111 202.689 265.536C203.019 266.146 203.787 266.667 203.82 266.69H203.94C203.956 266.68 204.156 266.543 204.392 266.334C204.63 266.126 204.906 265.841 205.071 265.538C205.303 265.113 205.335 264.64 205.15 264.329ZM136.863 254.563C136.745 254.367 136.556 254.258 136.328 254.258C135.954 254.258 135.719 254.522 135.593 254.778C135.467 254.522 135.23 254.258 134.856 254.258C134.629 254.258 134.44 254.367 134.323 254.563C134.139 254.872 134.17 255.346 134.401 255.77C134.731 256.381 135.499 256.901 135.532 256.925H135.652C135.668 256.914 135.867 256.777 136.104 256.569C136.343 256.36 136.617 256.076 136.782 255.772C137.015 255.348 137.046 254.874 136.863 254.563ZM152.038 254.563C151.92 254.367 151.731 254.258 151.503 254.258C151.129 254.258 150.894 254.522 150.768 254.778C150.641 254.522 150.405 254.258 150.031 254.258C149.804 254.258 149.615 254.367 149.498 254.563C149.313 254.872 149.345 255.346 149.576 255.77C149.906 256.381 150.674 256.901 150.707 256.925H150.827C150.843 256.914 151.042 256.777 151.279 256.569C151.517 256.36 151.792 256.076 151.957 255.772C152.19 255.348 152.222 254.874 152.038 254.563ZM167.213 254.563C167.095 254.367 166.906 254.258 166.678 254.258C166.304 254.258 166.069 254.522 165.943 254.778C165.816 254.522 165.58 254.258 165.206 254.258C164.979 254.258 164.79 254.367 164.673 254.563C164.488 254.872 164.52 255.346 164.751 255.77C165.081 256.381 165.849 256.901 165.882 256.925H166.002C166.018 256.914 166.217 256.777 166.454 256.569C166.693 256.36 166.967 256.076 167.132 255.772C167.365 255.348 167.397 254.874 167.213 254.563ZM182.388 254.563C182.27 254.367 182.081 254.258 181.853 254.258C181.479 254.258 181.244 254.522 181.118 254.778C180.991 254.522 180.755 254.258 180.381 254.258C180.154 254.258 179.965 254.367 179.848 254.563C179.664 254.872 179.695 255.346 179.927 255.77C180.257 256.381 181.025 256.901 181.058 256.925H181.177C181.193 256.914 181.393 256.777 181.63 256.569C181.868 256.36 182.143 256.076 182.308 255.772C182.54 255.348 182.572 254.874 182.388 254.563ZM197.563 254.563C197.445 254.367 197.256 254.258 197.028 254.258C196.654 254.258 196.419 254.522 196.293 254.778C196.166 254.522 195.93 254.258 195.556 254.258C195.329 254.258 195.14 254.367 195.023 254.563C194.839 254.872 194.87 255.346 195.102 255.77C195.432 256.381 196.2 256.901 196.233 256.925H196.352C196.368 256.914 196.568 256.777 196.805 256.569C197.043 256.36 197.318 256.076 197.483 255.772C197.715 255.348 197.747 254.874 197.563 254.563ZM212.207 254.258C211.828 254.258 211.596 254.517 211.467 254.777C211.337 254.518 211.106 254.258 210.726 254.258C210.504 254.258 210.32 254.369 210.199 254.563C210.015 254.869 210.042 255.35 210.273 255.766C210.606 256.376 211.374 256.904 211.411 256.922H211.532C211.93 256.191 212.336 255.396 212.725 254.554C212.614 254.37 212.429 254.258 212.207 254.258ZM129.275 283.79C129.158 283.594 128.968 283.485 128.74 283.485C128.366 283.485 128.132 283.748 128.005 284.004C127.879 283.748 127.642 283.485 127.268 283.485C127.042 283.485 126.853 283.594 126.735 283.79C126.551 284.099 126.583 284.572 126.814 284.997C127.144 285.607 127.912 286.128 127.945 286.151H128.065C128.081 286.14 128.281 286.004 128.517 285.795C128.755 285.586 129.031 285.303 129.196 284.999C129.428 284.574 129.459 284.1 129.275 283.79ZM144.45 283.79C144.333 283.594 144.143 283.485 143.915 283.485C143.541 283.485 143.307 283.748 143.18 284.004C143.054 283.748 142.817 283.485 142.443 283.485C142.217 283.485 142.028 283.594 141.91 283.79C141.726 284.099 141.758 284.572 141.989 284.997C142.319 285.607 143.087 286.128 143.12 286.151H143.24C143.256 286.14 143.456 286.004 143.692 285.795C143.93 285.586 144.206 285.303 144.371 284.999C144.603 284.574 144.634 284.1 144.45 283.79ZM159.625 283.79C159.508 283.594 159.318 283.485 159.09 283.485C158.716 283.485 158.482 283.748 158.355 284.004C158.229 283.748 157.992 283.485 157.618 283.485C157.392 283.485 157.203 283.594 157.085 283.79C156.901 284.099 156.933 284.572 157.164 284.997C157.494 285.607 158.262 286.128 158.295 286.151H158.415C158.431 286.14 158.631 286.004 158.867 285.795C159.106 285.586 159.381 285.303 159.546 284.999C159.778 284.574 159.81 284.1 159.625 283.79ZM174.8 283.79C174.683 283.594 174.493 283.485 174.265 283.485C173.891 283.485 173.657 283.748 173.53 284.004C173.404 283.748 173.167 283.485 172.793 283.485C172.567 283.485 172.378 283.594 172.26 283.79C172.076 284.099 172.108 284.572 172.339 284.997C172.669 285.607 173.437 286.128 173.47 286.151H173.59C173.606 286.14 173.806 286.004 174.042 285.795C174.28 285.586 174.556 285.303 174.721 284.999C174.953 284.574 174.985 284.1 174.8 283.79ZM189.975 283.79C189.857 283.594 189.668 283.485 189.44 283.485C189.066 283.485 188.832 283.748 188.705 284.004C188.579 283.748 188.342 283.485 187.968 283.485C187.742 283.485 187.553 283.594 187.435 283.79C187.251 284.099 187.283 284.572 187.514 284.997C187.844 285.607 188.612 286.128 188.645 286.151H188.765C188.781 286.14 188.981 286.004 189.217 285.795C189.456 285.586 189.731 285.303 189.896 284.999C190.128 284.574 190.16 284.1 189.975 283.79ZM205.15 283.79C205.033 283.594 204.843 283.485 204.615 283.485C204.241 283.485 204.007 283.748 203.88 284.004C203.753 283.748 203.517 283.485 203.143 283.485C202.917 283.485 202.728 283.594 202.61 283.79C202.425 284.099 202.458 284.572 202.689 284.997C203.019 285.607 203.787 286.128 203.82 286.151H203.94C203.956 286.14 204.156 286.004 204.392 285.795C204.63 285.586 204.906 285.303 205.071 284.999C205.303 284.574 205.335 284.1 205.15 283.79ZM121.688 274.023C121.57 273.827 121.381 273.718 121.153 273.718C120.779 273.718 120.544 273.981 120.418 274.237C120.291 273.981 120.055 273.718 119.681 273.718C119.454 273.718 119.265 273.827 119.148 274.023C118.964 274.332 118.995 274.806 119.227 275.23C119.557 275.84 120.325 276.361 120.358 276.384H120.477C120.493 276.374 120.693 276.237 120.93 276.029C121.168 275.82 121.443 275.535 121.608 275.232C121.84 274.807 121.872 274.334 121.688 274.023ZM136.863 274.023C136.745 273.827 136.556 273.718 136.328 273.718C135.954 273.718 135.719 273.981 135.593 274.237C135.467 273.981 135.23 273.718 134.856 273.718C134.629 273.718 134.44 273.827 134.323 274.023C134.139 274.332 134.17 274.806 134.401 275.23C134.731 275.84 135.499 276.361 135.532 276.384H135.652C135.668 276.374 135.867 276.237 136.104 276.029C136.343 275.82 136.617 275.535 136.782 275.232C137.015 274.807 137.046 274.334 136.863 274.023ZM152.038 274.023C151.92 273.827 151.731 273.718 151.503 273.718C151.129 273.718 150.894 273.981 150.768 274.237C150.641 273.981 150.405 273.718 150.031 273.718C149.804 273.718 149.615 273.827 149.498 274.023C149.313 274.332 149.345 274.806 149.576 275.23C149.906 275.84 150.674 276.361 150.707 276.384H150.827C150.843 276.374 151.042 276.237 151.279 276.029C151.517 275.82 151.792 275.535 151.957 275.232C152.19 274.807 152.222 274.334 152.038 274.023ZM167.213 274.023C167.095 273.827 166.906 273.718 166.678 273.718C166.304 273.718 166.069 273.981 165.943 274.237C165.816 273.981 165.58 273.718 165.206 273.718C164.979 273.718 164.79 273.827 164.673 274.023C164.488 274.332 164.52 274.806 164.751 275.23C165.081 275.84 165.849 276.361 165.882 276.384H166.002C166.018 276.374 166.217 276.237 166.454 276.029C166.693 275.82 166.967 275.535 167.132 275.232C167.365 274.807 167.397 274.334 167.213 274.023ZM182.388 274.023C182.27 273.827 182.081 273.718 181.853 273.718C181.479 273.718 181.244 273.981 181.118 274.237C180.991 273.981 180.755 273.718 180.381 273.718C180.154 273.718 179.965 273.827 179.848 274.023C179.664 274.332 179.695 274.806 179.927 275.23C180.257 275.84 181.025 276.361 181.058 276.384H181.177C181.193 276.374 181.393 276.237 181.63 276.029C181.868 275.82 182.143 275.535 182.308 275.232C182.54 274.807 182.572 274.334 182.388 274.023ZM197.563 274.023C197.445 273.827 197.256 273.718 197.028 273.718C196.654 273.718 196.419 273.981 196.293 274.237C196.166 273.981 195.93 273.718 195.556 273.718C195.329 273.718 195.14 273.827 195.023 274.023C194.839 274.332 194.87 274.806 195.102 275.23C195.432 275.84 196.2 276.361 196.233 276.384H196.352C196.368 276.374 196.568 276.237 196.805 276.029C197.043 275.82 197.318 275.535 197.483 275.232C197.715 274.807 197.747 274.334 197.563 274.023ZM210.154 274.139C210.025 274.444 210.071 274.852 210.274 275.231C210.302 275.286 210.33 275.333 210.367 275.379L210.154 274.139ZM114.101 303.252C113.981 303.057 113.796 302.946 113.564 302.946C113.194 302.946 112.954 303.205 112.834 303.465C112.787 303.372 112.723 303.27 112.639 303.187C112.5 303.983 112.399 304.677 112.307 305.25C112.547 305.463 112.751 305.602 112.77 305.612H112.89C112.909 305.603 113.102 305.464 113.343 305.26C113.584 305.047 113.861 304.761 114.018 304.456C114.249 304.038 114.286 303.557 114.101 303.252ZM129.275 303.25C129.158 303.054 128.968 302.945 128.74 302.945C128.366 302.945 128.132 303.208 128.005 303.464C127.879 303.208 127.642 302.945 127.268 302.945C127.042 302.945 126.853 303.054 126.735 303.25C126.551 303.558 126.583 304.032 126.814 304.457C127.144 305.067 127.912 305.588 127.945 305.611H128.065C128.081 305.6 128.281 305.464 128.517 305.255C128.755 305.046 129.031 304.762 129.196 304.458C129.428 304.034 129.459 303.56 129.275 303.25ZM144.45 303.25C144.333 303.054 144.143 302.945 143.915 302.945C143.541 302.945 143.307 303.208 143.18 303.464C143.054 303.208 142.817 302.945 142.443 302.945C142.217 302.945 142.028 303.054 141.91 303.25C141.726 303.558 141.758 304.032 141.989 304.457C142.319 305.067 143.087 305.588 143.12 305.611H143.24C143.256 305.6 143.456 305.464 143.692 305.255C143.93 305.046 144.206 304.762 144.371 304.458C144.603 304.034 144.634 303.56 144.45 303.25ZM159.625 303.25C159.508 303.054 159.318 302.945 159.09 302.945C158.716 302.945 158.482 303.208 158.355 303.464C158.229 303.208 157.992 302.945 157.618 302.945C157.392 302.945 157.203 303.054 157.085 303.25C156.901 303.558 156.933 304.032 157.164 304.457C157.494 305.067 158.262 305.588 158.295 305.611H158.415C158.431 305.6 158.631 305.464 158.867 305.255C159.106 305.046 159.381 304.762 159.546 304.458C159.778 304.034 159.81 303.56 159.625 303.25ZM174.8 303.25C174.683 303.054 174.493 302.945 174.265 302.945C173.891 302.945 173.657 303.208 173.53 303.464C173.404 303.208 173.167 302.945 172.793 302.945C172.567 302.945 172.378 303.054 172.26 303.25C172.076 303.558 172.108 304.032 172.339 304.457C172.669 305.067 173.437 305.588 173.47 305.611H173.59C173.606 305.6 173.806 305.464 174.042 305.255C174.28 305.046 174.556 304.762 174.721 304.458C174.953 304.034 174.985 303.56 174.8 303.25ZM189.975 303.25C189.857 303.054 189.668 302.945 189.44 302.945C189.066 302.945 188.832 303.208 188.705 303.464C188.579 303.208 188.342 302.945 187.968 302.945C187.742 302.945 187.553 303.054 187.435 303.25C187.251 303.558 187.283 304.032 187.514 304.457C187.844 305.067 188.612 305.588 188.645 305.611H188.765C188.781 305.6 188.981 305.464 189.217 305.255C189.456 305.046 189.731 304.762 189.896 304.458C190.128 304.034 190.16 303.56 189.975 303.25ZM205.15 303.25C205.033 303.054 204.843 302.945 204.615 302.945C204.241 302.945 204.007 303.208 203.88 303.464C203.753 303.208 203.517 302.945 203.143 302.945C202.917 302.945 202.728 303.054 202.61 303.25C202.425 303.558 202.458 304.032 202.689 304.457C203.019 305.067 203.787 305.588 203.82 305.611H203.94C203.956 305.6 204.156 305.464 204.392 305.255C204.63 305.046 204.906 304.762 205.071 304.458C205.303 304.034 205.335 303.56 205.15 303.25ZM121.688 293.483C121.57 293.287 121.381 293.178 121.153 293.178C120.779 293.178 120.544 293.441 120.418 293.697C120.291 293.441 120.055 293.178 119.681 293.178C119.454 293.178 119.265 293.287 119.148 293.483C118.964 293.792 118.995 294.266 119.227 294.69C119.557 295.3 120.325 295.821 120.358 295.844H120.477C120.493 295.834 120.693 295.697 120.93 295.488C121.168 295.28 121.443 294.995 121.608 294.692C121.84 294.267 121.872 293.795 121.688 293.483ZM136.863 293.483C136.745 293.287 136.556 293.178 136.328 293.178C135.954 293.178 135.719 293.441 135.593 293.697C135.467 293.441 135.23 293.178 134.856 293.178C134.629 293.178 134.44 293.287 134.323 293.483C134.139 293.792 134.17 294.266 134.401 294.69C134.731 295.3 135.499 295.821 135.532 295.844H135.652C135.668 295.834 135.867 295.697 136.104 295.488C136.343 295.28 136.617 294.995 136.782 294.692C137.015 294.267 137.046 293.795 136.863 293.483ZM152.038 293.483C151.92 293.287 151.731 293.178 151.503 293.178C151.129 293.178 150.894 293.441 150.768 293.697C150.641 293.441 150.405 293.178 150.031 293.178C149.804 293.178 149.615 293.287 149.498 293.483C149.313 293.792 149.345 294.266 149.576 294.69C149.906 295.3 150.674 295.821 150.707 295.844H150.827C150.843 295.834 151.042 295.697 151.279 295.488C151.517 295.28 151.792 294.995 151.957 294.692C152.19 294.267 152.222 293.795 152.038 293.483ZM167.213 293.483C167.095 293.287 166.906 293.178 166.678 293.178C166.304 293.178 166.069 293.441 165.943 293.697C165.816 293.441 165.58 293.178 165.206 293.178C164.979 293.178 164.79 293.287 164.673 293.483C164.488 293.792 164.52 294.266 164.751 294.69C165.081 295.3 165.849 295.821 165.882 295.844H166.002C166.018 295.834 166.217 295.697 166.454 295.488C166.693 295.28 166.967 294.995 167.132 294.692C167.365 294.267 167.397 293.795 167.213 293.483ZM182.388 293.483C182.27 293.287 182.081 293.178 181.853 293.178C181.479 293.178 181.244 293.441 181.118 293.697C180.991 293.441 180.755 293.178 180.381 293.178C180.154 293.178 179.965 293.287 179.848 293.483C179.664 293.792 179.695 294.266 179.927 294.69C180.257 295.3 181.025 295.821 181.058 295.844H181.177C181.193 295.834 181.393 295.697 181.63 295.488C181.868 295.28 182.143 294.995 182.308 294.692C182.54 294.267 182.572 293.795 182.388 293.483ZM197.563 293.483C197.445 293.287 197.256 293.178 197.028 293.178C196.654 293.178 196.419 293.441 196.293 293.697C196.166 293.441 195.93 293.178 195.556 293.178C195.329 293.178 195.14 293.287 195.023 293.483C194.839 293.792 194.87 294.266 195.102 294.69C195.432 295.3 196.2 295.821 196.233 295.844H196.352C196.368 295.834 196.568 295.697 196.805 295.488C197.043 295.28 197.318 294.995 197.483 294.692C197.715 294.267 197.747 293.795 197.563 293.483ZM212.738 293.483C212.62 293.287 212.431 293.178 212.203 293.178C211.829 293.178 211.594 293.441 211.468 293.697C211.341 293.441 211.105 293.178 210.731 293.178C210.504 293.178 210.315 293.287 210.198 293.483C210.014 293.792 210.045 294.266 210.277 294.69C210.607 295.3 211.375 295.821 211.408 295.844H211.527C211.543 295.834 211.743 295.697 211.98 295.488C212.219 295.28 212.493 294.995 212.658 294.692C212.89 294.267 212.922 293.795 212.738 293.483Z" fill="white"/>
<path d="M216.021 241.356C215.061 237.359 212.844 233.711 210.892 230.138C208.831 226.366 206.667 222.656 204.447 218.976C204.369 218.845 204.288 218.715 204.209 218.585C203.839 217.406 203.31 216.257 202.862 215.12C202.287 213.66 201.671 212.215 201.105 210.751C201.085 210.7 201.005 210.722 201.022 210.776C201.486 212.301 201.947 213.823 202.504 215.317C202.646 215.701 202.789 216.093 202.934 216.486C202.185 215.258 201.429 214.035 200.654 212.823C199.335 210.762 197.944 208.747 196.622 206.687C196.589 206.636 196.512 206.685 196.542 206.736C198.659 210.352 200.693 214.018 202.805 217.637C204.915 221.254 206.984 224.901 208.957 228.594C209.937 230.426 210.887 232.272 211.804 234.136C212.673 235.904 213.539 237.673 214.182 239.54C215.446 243.206 215.41 246.948 214.259 250.639C212.984 254.724 210.712 258.434 208.547 262.096C208.46 262.244 208.687 262.42 208.796 262.278C213.331 256.313 217.903 249.188 216.021 241.356Z" fill="#263238"/>
<path d="M255.933 308.647C249.255 317.867 231.47 319.349 187.042 327.283C180.894 328.381 161.476 287.074 167.98 285.564C176.173 283.662 208.382 278.057 210.789 277.945C231.092 276.997 260.463 302.393 255.933 308.647Z" fill="#C95F50"/>
<path d="M176.872 283.693C176.872 283.693 158.064 286.214 148.592 290.598C135.909 296.468 127.376 306.758 124.061 311.286C117.14 320.737 106.94 348.377 114.387 352.704C121.128 356.621 130.128 327.842 130.128 327.842C130.128 327.842 116.111 355.67 125.095 358.895C134.08 362.118 142.625 328.116 142.625 328.116C142.625 328.116 128.865 357.032 138.655 358.89C146.054 360.294 155.529 329.935 155.529 329.935C155.529 329.935 143.874 354.87 151.42 356.642C159.76 358.6 170.264 331.125 170.264 331.125C190.205 332.4 200.221 324.849 206.707 318.63C208.278 317.123 176.872 283.693 176.872 283.693Z" fill="#C95F50"/>
<path d="M134.359 317.906C132.594 321.116 130.786 324.352 129.313 327.708C127.839 331.063 126.482 334.472 125.327 337.949C122.495 346.478 122.056 352.262 122.122 351.907C123.684 343.529 128.773 331.436 130.248 328.08C131.717 324.732 133.021 321.308 134.489 317.958C134.526 317.874 134.401 317.83 134.359 317.906Z" fill="#263238"/>
<path d="M146.569 323.008C144.492 327.203 142.278 331.292 140.386 335.581C138.504 339.849 137.092 344.062 135.508 348.448C135.386 348.786 135.608 348.741 135.744 348.406C137.501 344.087 139.458 340.229 141.266 335.932C143.068 331.649 144.716 327.263 146.672 323.05C146.703 322.983 146.601 322.944 146.569 323.008Z" fill="#263238"/>
<path d="M157.837 325.501C154.336 331.75 151.993 338.638 149.855 345.449C149.748 345.787 150.028 345.697 150.157 345.357C152.686 338.676 154.622 333.416 158.056 325.621C158.108 325.501 157.911 325.369 157.837 325.501Z" fill="#263238"/>
<path d="M230.394 282.924C227.438 281.053 219.076 276.659 210.849 277.877C210.758 277.89 210.758 278.022 210.853 278.021C217.631 277.989 227.315 281.466 230.328 283.044C230.406 283.085 230.468 282.971 230.394 282.924Z" fill="#263238"/>
<path d="M168.834 192.192C169.283 193.901 177.798 204.841 185.65 204.256C188.207 204.06 187.766 190.058 187.766 190.058L187.97 189.017L190.811 174.441L173.495 163.989L170.997 162.612C170.997 162.612 170.482 166.651 169.893 171.687C169.864 171.921 169.835 172.153 169.808 172.404C169.767 172.688 169.725 172.956 169.7 173.222C169.602 173.973 169.505 174.74 169.425 175.507C169.362 176.091 169.297 176.657 169.253 177.272C169.192 177.887 169.147 178.486 169.086 179.101C168.622 185.182 168.654 191.466 168.834 192.192Z" fill="#C95F50"/>
<path d="M169.893 171.687C174.359 183.103 183.698 187.55 187.97 189.017L190.811 174.441L173.495 163.989L170.997 162.612C170.997 162.612 170.482 166.651 169.893 171.687Z" fill="#263238"/>
<path d="M212.363 149.596C216.564 175.317 201.634 180.739 196.087 181.639C191.051 182.456 173.802 184.598 166.965 159.448C160.129 134.298 170.758 124.213 182.177 121.735C193.594 119.256 208.161 123.873 212.363 149.596Z" fill="#C95F50"/>
<path d="M206.254 144.392C205.639 144.389 205.071 144.284 204.463 144.218C203.776 144.144 203.222 144.154 202.67 143.692C202.374 143.443 202.332 142.876 202.546 142.567C203.046 141.844 203.909 141.726 204.74 141.782C205.641 141.842 206.319 142.12 206.978 142.734C207.616 143.33 207.066 144.396 206.254 144.392Z" fill="#263238"/>
<path d="M189.592 146.371C190.192 146.233 190.722 146.005 191.301 145.806C191.954 145.583 192.497 145.472 192.934 144.898C193.167 144.592 193.084 144.029 192.807 143.774C192.161 143.178 191.293 143.254 190.495 143.49C189.629 143.748 189.028 144.167 188.52 144.912C188.029 145.635 188.8 146.554 189.592 146.371Z" fill="#263238"/>
<path d="M193.77 152.522C193.747 152.457 193.643 152.624 193.656 152.696C193.949 154.447 193.99 156.502 192.478 157.301C192.431 157.326 192.449 157.413 192.506 157.397C194.41 156.861 194.328 154.134 193.77 152.522Z" fill="#263238"/>
<path d="M191.952 150.898C189.094 151.065 189.639 156.768 192.287 156.613C194.891 156.46 194.347 150.758 191.952 150.898Z" fill="#263238"/>
<path d="M190.86 151.307C190.393 151.677 189.959 152.293 189.365 152.409C188.677 152.544 188.095 151.997 187.587 151.466C187.534 151.411 187.489 151.465 187.496 151.541C187.584 152.636 188.111 153.717 189.298 153.768C190.381 153.814 191.056 152.773 191.224 151.649C191.254 151.44 191.048 151.157 190.86 151.307Z" fill="#263238"/>
<path d="M203.882 150.792C203.89 150.723 204.028 150.863 204.032 150.936C204.131 152.709 204.543 154.723 206.193 155.169C206.244 155.182 206.247 155.271 206.187 155.269C204.212 155.165 203.692 152.487 203.882 150.792Z" fill="#263238"/>
<path d="M205.298 148.807C208.122 148.342 208.846 154.025 206.229 154.456C203.655 154.88 202.931 149.197 205.298 148.807Z" fill="#263238"/>
<path d="M206.531 149.03C207.018 149.275 207.531 149.765 208.073 149.732C208.7 149.694 209.081 149.021 209.403 148.381C209.437 148.315 209.488 148.357 209.5 148.432C209.667 149.514 209.452 150.691 208.436 151.033C207.508 151.344 206.691 150.501 206.294 149.452C206.22 149.257 206.334 148.932 206.531 149.03Z" fill="#263238"/>
<path d="M194.288 166.505C194.733 166.899 195.185 167.449 195.831 167.471C196.451 167.492 197.159 167.178 197.714 166.931C197.768 166.906 197.828 166.963 197.795 167.017C197.369 167.72 196.423 168.195 195.594 168.092C194.785 167.992 194.353 167.318 194.122 166.594C194.089 166.493 194.224 166.448 194.288 166.505Z" fill="#263238"/>
<path d="M201.754 158.96C201.754 158.96 202.404 161.568 202.539 162.818C202.55 162.935 198.775 164.184 195.781 161.502C195.668 161.401 195.826 161.243 195.948 161.309C197.725 162.341 199.578 162.457 201.536 162.28C201.587 161.925 200.272 157.85 200.469 157.814C201.145 157.682 202.54 158.002 203.374 158.151C202.177 152.678 200.112 147.442 199 141.975C198.965 141.779 199.241 141.69 199.318 141.859C201.871 147.194 203.387 153.462 204.769 159.082C204.949 159.781 202.276 159.119 201.754 158.96Z" fill="#263238"/>
<path d="M200.819 162.868C200.819 162.868 199.859 164.439 198.41 165.104C197.877 165.351 197.29 165.482 196.654 165.372C195.347 165.149 195.211 163.98 195.356 162.956C195.472 162.114 195.791 161.369 195.791 161.369C195.791 161.369 197.813 162.949 200.819 162.868Z" fill="#263238"/>
<path d="M198.411 165.104C197.878 165.351 197.291 165.482 196.655 165.372C195.348 165.149 195.212 163.98 195.357 162.956C196.738 162.974 198.176 163.783 198.411 165.104Z" fill="#FF9ABB"/>
<path d="M167.728 158.155C172.652 158.588 173.482 147.314 173.482 147.314C173.482 147.314 194.227 142.981 195.352 125.911C195.352 125.911 199.342 136.613 210.463 141.102C210.463 141.102 209.026 122.49 194.112 119.431C194.112 119.431 175.521 113.453 165.766 128.396C156.011 143.339 164.424 157.865 167.728 158.155Z" fill="#263238"/>
<path d="M195.377 124.652C195.756 127.235 195.477 129.912 194.741 132.449C194.004 134.986 192.777 137.421 191.061 139.464C190.673 140.009 190.153 140.438 189.705 140.928L189.007 141.642C188.757 141.858 188.494 142.064 188.233 142.269C187.706 142.672 187.196 143.098 186.656 143.48C186.093 143.827 185.521 144.161 184.947 144.487C184.66 144.649 184.38 144.823 184.088 144.973L183.18 145.364L181.373 146.138C180.125 146.538 178.858 146.872 177.602 147.185C178.781 146.616 179.995 146.176 181.146 145.605L182.842 144.698L183.688 144.247C183.958 144.079 184.215 143.887 184.478 143.708C185 143.342 185.524 142.982 186.054 142.636C186.555 142.248 187.023 141.82 187.507 141.415L188.23 140.804L188.881 140.117C189.297 139.645 189.786 139.235 190.145 138.715C191.793 136.8 192.97 134.53 193.879 132.167C194.328 130.978 194.662 129.744 194.91 128.487C195.183 127.232 195.325 125.951 195.377 124.652Z" fill="#263238"/>
<path d="M171.374 159.884C171.374 159.884 165.091 152.2 161.562 154.501C158.035 156.801 163.187 168.238 167.63 169.52C172.072 170.802 173.339 166.713 173.339 166.713L171.374 159.884Z" fill="#C95F50"/>
<path d="M163.121 157.742C163.051 157.741 163.046 157.84 163.107 157.859C166.23 158.858 168.037 161.547 169.374 164.376C168.388 163.323 167.114 162.801 165.694 163.987C165.619 164.05 165.704 164.167 165.788 164.143C167.009 163.784 167.921 163.932 168.834 164.862C169.481 165.522 169.953 166.381 170.44 167.161C170.603 167.421 171.081 167.24 170.954 166.935C170.945 166.913 170.934 166.89 170.924 166.867C170.709 162.997 167.298 157.818 163.121 157.742Z" fill="#263238"/>
<path d="M170.072 168.174C170.072 168.759 169.598 169.232 169.014 169.232C168.43 169.232 167.956 168.759 167.956 168.174C167.956 167.59 168.43 167.116 169.014 167.116C169.598 167.116 170.072 167.59 170.072 168.174Z" fill="white"/>
<path d="M166.706 167.206C167.127 167.206 167.469 166.865 167.469 166.444C167.469 166.023 167.127 165.681 166.706 165.681C166.285 165.681 165.943 166.023 165.943 166.444C165.943 166.865 166.285 167.206 166.706 167.206Z" fill="white"/>
<path d="M161.513 157.463L159.906 157.325C159.61 157.299 159.391 157.039 159.416 156.743L159.42 156.703C159.445 156.407 159.705 156.189 160.001 156.213L161.608 156.352C161.904 156.377 162.123 156.637 162.098 156.933L162.094 156.973C162.069 157.27 161.809 157.489 161.513 157.463Z" fill="#FF5733"/>
<path d="M161.573 159.086L159.973 159.291C159.679 159.328 159.409 159.12 159.371 158.826L159.366 158.787C159.328 158.492 159.536 158.223 159.83 158.185L161.43 157.98C161.725 157.942 161.994 158.15 162.033 158.444L162.038 158.484C162.075 158.778 161.868 159.047 161.573 159.086Z" fill="#FF5733"/>
<path d="M160.877 142.226L159.398 144.587L166.971 151.431L170.184 146.104L160.877 142.226ZM166.669 148.804L161.376 144.55L161.708 143.992L167.836 146.943L166.669 148.804Z" fill="#FF5733"/>
<path d="M161.674 137.866L161.193 140.61L170.787 144.096L171.757 137.951L161.674 137.866ZM169.518 141.776L163.012 139.831L163.109 139.19L169.898 139.615L169.518 141.776Z" fill="#FF5733"/>
<path d="M171.014 122.497C173.001 121.755 174.886 110.659 167.591 105.372C160.406 100.165 150.952 106.125 154.872 115.218C157.349 120.965 166.811 124.063 171.014 122.497Z" fill="#263238"/>
<path d="M157.394 104.716C155.168 106.54 153.735 109.12 153.187 111.753C152.632 114.411 153.43 117.127 155.399 118.903C157.311 120.774 159.957 121.822 162.647 122.448C164.007 122.741 165.404 122.917 166.811 122.96C168.22 123.024 169.645 122.955 171.012 122.497C169.78 123.291 168.28 123.539 166.841 123.735C165.382 123.879 163.9 123.869 162.434 123.665C159.526 123.252 156.555 122.193 154.306 120.046C153.202 118.97 152.297 117.598 151.903 116.065C151.512 114.536 151.566 112.93 151.989 111.47C152.815 108.553 154.812 106.035 157.394 104.716Z" fill="#263238"/>
<path d="M236.869 224.129L249.283 222.453L244.432 186.501L228.722 188.621L236.869 224.129Z" fill="#FF5733"/>
<path d="M228.725 188.621L231.828 202.166L236.872 224.133L249.287 222.458L244.435 186.501L228.725 188.621Z" fill="#FF5733"/>
<path opacity="0.1" d="M228.725 188.621L231.828 202.166L246.285 200.216L244.435 186.501L228.725 188.621Z" fill="black"/>
<path d="M227.989 194.121L247.534 191.484L245.531 176.635L225.986 179.273L227.989 194.121Z" fill="#FF5733"/>
<path d="M212.155 175.619L227.542 175.086L224.3 151.058L209.322 154.625L212.155 175.619Z" fill="#FF5733"/>
<path d="M231.468 145.247L236.252 180.707L262.14 180.321L324.312 194.119L312.822 108.961L256.531 138.757L231.468 145.247Z" fill="#FF5733"/>
<path d="M325.706 194.155C333.301 193.131 336.874 173.142 333.686 149.51C330.498 125.878 321.757 107.551 314.162 108.576C306.566 109.601 302.994 129.589 306.182 153.221C309.37 176.853 318.111 195.18 325.706 194.155Z" fill="#FF5733"/>
<path opacity="0.2" d="M325.673 188.52C331.891 187.681 334.638 169.993 331.808 149.014C328.978 128.035 321.642 111.709 315.424 112.548C309.205 113.387 306.458 131.074 309.288 152.053C312.119 173.032 319.454 189.359 325.673 188.52Z" fill="black"/>
<path d="M311.134 151.799C311.512 154.593 311.97 157.302 312.498 159.897C314.12 160.895 316.082 161.351 318.113 161.077C322.8 160.444 326.091 156.125 325.457 151.429L324.915 147.412C324.281 142.716 319.963 139.423 315.276 140.057C313.282 140.326 311.529 141.273 310.233 142.627C310.407 145.58 310.711 148.655 311.134 151.799Z" fill="#FF5733"/>
<path d="M222.775 184.525L252.532 183.497L246.262 137.029L217.297 143.926L222.775 184.525Z" fill="#FF5733"/>
<path opacity="0.2" d="M222.775 184.525L252.532 183.497L246.262 137.029L217.297 143.926L222.775 184.525Z" fill="black"/>
<path opacity="0.2" d="M309.623 115.332C307.832 118.043 306.964 121.243 306.26 124.389C305.625 127.566 305.23 130.797 305.107 134.035C304.996 135.653 305.034 137.274 305.013 138.895C305.081 140.512 305.102 142.134 305.21 143.749C305.344 145.362 305.42 146.982 305.603 148.59C305.793 150.198 305.945 151.81 306.166 153.413C307.085 159.816 308.366 166.196 310.441 172.345C311.499 175.407 312.718 178.427 314.3 181.264C315.923 184.049 317.79 186.819 320.44 188.706C317.928 186.658 316.176 183.881 314.7 181.048C313.217 178.2 312.084 175.182 311.118 172.122C309.204 165.99 307.925 159.664 307.083 153.286C306.19 146.918 305.637 140.486 305.815 134.061C305.85 130.847 306.164 127.64 306.701 124.474C307.255 121.323 308.018 118.141 309.623 115.332Z" fill="black"/>
<path d="M340.763 109.235C338.948 110.555 337.206 111.957 335.474 113.371C333.736 114.778 332.05 116.244 330.365 117.71C328.695 119.194 327.027 120.681 325.41 122.225L322.988 124.546C322.205 125.347 321.398 126.122 320.636 126.946C321.55 126.295 322.421 125.594 323.316 124.918L325.925 122.811C327.662 121.404 329.349 119.938 331.034 118.471C332.702 116.986 334.371 115.5 335.986 113.955C337.612 112.417 339.223 110.868 340.763 109.235Z" fill="#263238"/>
<path d="M325.668 174.073C328.087 174.808 330.529 175.434 332.974 176.043C335.417 176.664 337.878 177.207 340.338 177.751C342.803 178.27 345.269 178.787 347.751 179.228L351.475 179.885C352.724 180.068 353.966 180.285 355.221 180.438C354.015 180.061 352.794 179.747 351.58 179.4L347.915 178.466C345.472 177.846 343.011 177.302 340.551 176.761C338.086 176.242 335.62 175.725 333.138 175.285C330.658 174.834 328.175 174.399 325.668 174.073Z" fill="#263238"/>
<path d="M372.395 167.166C368.711 166.726 365.021 166.396 361.331 166.084C357.64 165.76 353.945 165.515 350.25 165.271C346.553 165.05 342.856 164.832 339.153 164.692L333.6 164.486C331.747 164.454 329.895 164.388 328.04 164.386C329.881 164.616 331.726 164.782 333.569 164.982L339.104 165.471C342.795 165.793 346.49 166.039 350.185 166.282C353.882 166.501 357.579 166.72 361.282 166.859C364.983 167.009 368.685 167.143 372.395 167.166Z" fill="#263238"/>
<path d="M361.398 110.806C358.153 112.71 354.97 114.705 351.796 116.716C348.615 118.716 345.479 120.782 342.342 122.85C339.22 124.937 336.098 127.025 333.019 129.18L328.403 132.414C326.885 133.523 325.348 134.603 323.847 135.738C325.475 134.795 327.067 133.797 328.678 132.828L333.45 129.83C336.63 127.829 339.766 125.762 342.902 123.695C346.024 121.606 349.147 119.518 352.225 117.363C355.309 115.217 358.384 113.058 361.398 110.806Z" fill="#263238"/>
<path d="M327.133 150.053C331.455 149.636 335.761 149.108 340.065 148.563C344.369 148.02 348.66 147.389 352.958 146.805C357.245 146.142 361.537 145.521 365.818 144.816L372.236 143.74C374.37 143.344 376.509 142.983 378.638 142.557C376.476 142.756 374.322 143.019 372.165 143.248L365.706 144.045C361.403 144.59 357.111 145.219 352.814 145.804C348.528 146.47 344.234 147.087 339.954 147.795C335.673 148.5 331.394 149.222 327.133 150.053Z" fill="#263238"/>
<path d="M145.219 209.873C131.711 231.983 108.86 279.719 117.553 297.068C125.925 313.777 210.439 267.953 221.139 259.632C225.801 256.006 203.996 213.106 198.674 216.506C191.558 221.054 157.05 249.186 156.298 249.33C154.685 249.64 159.486 233.747 162.733 214.046C167.457 185.378 154.929 193.98 145.219 209.873Z" fill="#C95F50"/>
<path d="M255.173 198.985C258.342 202.714 255.644 207.004 255.644 207.004C255.644 207.004 259.401 208.08 261.265 211.339C263.4 215.071 258.486 220.056 258.486 220.056C258.486 220.056 262.062 221.932 263.685 225.573C265.37 229.35 261.128 235.088 261.128 235.088C261.128 235.088 263.499 238.666 262.645 242.819C261.186 249.918 250.837 253.845 244.24 256.294C234.441 259.932 216.673 259.802 212.691 260.395L196.165 218.359C196.165 218.359 222.417 198.681 230.563 196.817C237.423 195.246 251.615 194.799 255.173 198.985Z" fill="#C95F50"/>
<path d="M255.088 206.443C247.391 206.362 240.09 208.561 232.677 210.343C232.512 210.382 232.576 210.641 232.741 210.599C240.093 208.741 247.718 208.368 255.128 206.807C255.334 206.764 255.295 206.445 255.088 206.443Z" fill="#263238"/>
<path d="M258.135 219.558C256.394 219.593 254.668 220.201 253.011 220.688C251.226 221.212 249.452 221.768 247.686 222.351C244.151 223.517 240.641 224.764 237.171 226.114C237.018 226.174 237.071 226.424 237.236 226.37C240.761 225.214 244.304 224.111 247.875 223.104C249.662 222.6 251.454 222.112 253.249 221.634C254.919 221.191 256.717 220.862 258.257 220.054C258.484 219.933 258.398 219.553 258.135 219.558Z" fill="#263238"/>
<path d="M260.977 235.132C259.462 235.101 257.827 235.898 256.418 236.395C254.818 236.96 253.215 237.517 251.609 238.063C248.398 239.158 245.185 240.25 241.938 241.232C241.776 241.281 241.839 241.537 242.002 241.488C245.307 240.507 248.625 239.572 251.921 238.562C253.54 238.066 255.155 237.561 256.769 237.047C258.14 236.61 259.904 236.22 261.038 235.291C261.102 235.239 261.052 235.133 260.977 235.132Z" fill="#263238"/>
<path d="M177.799 283.325C172.33 285.997 166.81 288.556 161.168 290.845C155.571 293.115 149.874 295.18 144.116 297.007C140.888 298.031 137.631 299.015 134.356 299.877C134.265 299.901 134.306 300.033 134.397 300.015C140.366 298.832 146.278 297.368 152.044 295.406C154.921 294.428 157.769 293.354 160.575 292.186C163.347 291.033 166.134 289.849 168.805 288.474C171.874 286.894 174.944 285.275 177.892 283.479C177.994 283.418 177.901 283.275 177.799 283.325Z" fill="#263238"/>
<path d="M237.994 257.863C231.455 259.654 221.03 259.154 220.946 259.227C218.973 260.97 210.848 266.231 208.783 267.396C208.701 267.442 208.775 267.556 208.858 267.519C213.333 265.482 218.922 262.435 221.279 260.186C230.53 260.502 235.147 258.908 238.026 258.065C238.219 258.008 238.186 257.81 237.994 257.863Z" fill="#263238"/>
<path d="M117.117 245.862L158.652 247.291C158.652 247.291 164.605 217.144 164.305 200.926C164.136 191.838 158.838 192.231 152.926 197.929C132.232 217.874 117.117 245.862 117.117 245.862Z" fill="#FF5733"/>
<path d="M144.526 206.755C144.498 206.894 144.443 207.032 144.369 207.162C144.212 207.458 143.934 207.744 143.694 207.957C143.453 208.161 143.259 208.3 143.24 208.309H143.166C143.62 207.791 144.064 207.273 144.526 206.755ZM159.627 205.949C159.509 205.752 159.32 205.644 159.092 205.644C158.718 205.644 158.483 205.907 158.357 206.163C158.231 205.907 157.994 205.644 157.62 205.644C157.393 205.644 157.204 205.752 157.086 205.949C156.903 206.257 156.934 206.731 157.166 207.156C157.496 207.766 158.264 208.287 158.297 208.31H158.416C158.432 208.299 158.632 208.163 158.869 207.954C159.108 207.745 159.382 207.461 159.547 207.157C159.779 206.733 159.811 206.259 159.627 205.949ZM128.736 227.2C128.912 227.033 129.088 226.829 129.198 226.617C129.236 226.543 129.272 226.478 129.291 226.404C129.106 226.672 128.921 226.94 128.736 227.2ZM144.452 225.409C144.334 225.213 144.145 225.104 143.917 225.104C143.543 225.104 143.308 225.367 143.182 225.623C143.055 225.367 142.819 225.104 142.445 225.104C142.218 225.104 142.029 225.213 141.911 225.409C141.728 225.718 141.759 226.192 141.991 226.616C142.321 227.226 143.089 227.747 143.122 227.771H143.241C143.257 227.76 143.457 227.623 143.694 227.415C143.932 227.206 144.207 226.921 144.372 226.618C144.604 226.193 144.635 225.72 144.452 225.409ZM159.627 225.409C159.509 225.213 159.32 225.104 159.092 225.104C158.718 225.104 158.483 225.367 158.357 225.623C158.231 225.367 157.994 225.104 157.62 225.104C157.393 225.104 157.204 225.213 157.086 225.409C156.903 225.718 156.934 226.192 157.166 226.616C157.496 227.226 158.264 227.747 158.297 227.771H158.416C158.432 227.76 158.632 227.623 158.869 227.415C159.108 227.206 159.382 226.921 159.547 226.618C159.779 226.193 159.811 225.72 159.627 225.409ZM135.424 217.93C135.489 217.976 135.525 218.004 135.534 218.004H135.655C135.673 217.995 135.867 217.856 136.108 217.644C136.349 217.44 136.616 217.153 136.783 216.848C136.95 216.543 137.014 216.2 136.968 215.923C136.432 216.588 135.923 217.264 135.424 217.93ZM152.039 215.643C151.921 215.447 151.732 215.338 151.504 215.338C151.13 215.338 150.896 215.601 150.769 215.857C150.642 215.601 150.406 215.338 150.032 215.338C149.806 215.338 149.617 215.447 149.499 215.643C149.314 215.951 149.346 216.425 149.577 216.85C149.907 217.46 150.675 217.981 150.708 218.004H150.828C150.844 217.993 151.044 217.857 151.28 217.648C151.518 217.439 151.794 217.155 151.959 216.852C152.192 216.427 152.224 215.953 152.039 215.643ZM129.272 244.869C129.162 244.675 128.967 244.564 128.745 244.564C128.366 244.564 128.135 244.823 128.005 245.082C127.884 244.824 127.644 244.564 127.274 244.564C127.043 244.564 126.858 244.675 126.737 244.869C126.553 245.174 126.58 245.656 126.811 246.072C126.83 246.108 126.858 246.155 126.885 246.192L129.078 246.275C129.124 246.21 129.161 246.146 129.198 246.081C129.43 245.655 129.458 245.183 129.272 244.869ZM144.452 244.869C144.331 244.675 144.147 244.564 143.915 244.564C143.545 244.564 143.305 244.823 143.184 245.082C143.055 244.824 142.814 244.564 142.444 244.564C142.222 244.564 142.027 244.675 141.907 244.869C141.731 245.174 141.759 245.656 141.99 246.072C142.119 246.313 142.323 246.552 142.526 246.738L143.793 246.784C144.006 246.581 144.228 246.34 144.367 246.081C144.6 245.655 144.637 245.183 144.452 244.869ZM159.094 244.563C158.715 244.563 158.484 244.822 158.354 245.082C158.233 244.823 157.994 244.563 157.623 244.563C157.392 244.563 157.207 244.674 157.086 244.868C156.902 245.173 156.93 245.655 157.169 246.071C157.493 246.681 158.261 247.209 158.298 247.227H158.418C158.427 247.218 158.539 247.144 158.705 247.014C158.779 246.607 158.946 245.765 159.158 244.571C159.141 244.563 159.113 244.563 159.094 244.563ZM136.864 235.103C136.746 234.907 136.557 234.798 136.329 234.798C135.955 234.798 135.721 235.061 135.594 235.317C135.468 235.061 135.231 234.798 134.857 234.798C134.631 234.798 134.442 234.907 134.324 235.103C134.14 235.411 134.171 235.885 134.402 236.31C134.732 236.92 135.5 237.441 135.533 237.464H135.653C135.669 237.453 135.869 237.317 136.105 237.108C136.344 236.899 136.619 236.615 136.784 236.311C137.017 235.887 137.048 235.414 136.864 235.103ZM152.039 235.103C151.921 234.907 151.732 234.798 151.504 234.798C151.13 234.798 150.896 235.061 150.769 235.317C150.642 235.061 150.406 234.798 150.032 234.798C149.806 234.798 149.617 234.907 149.499 235.103C149.314 235.411 149.346 235.885 149.577 236.31C149.907 236.92 150.675 237.441 150.708 237.464H150.828C150.844 237.453 151.044 237.317 151.28 237.108C151.518 236.899 151.794 236.615 151.959 236.311C152.192 235.887 152.224 235.414 152.039 235.103Z" fill="white"/>
<path d="M157.426 240.7C151.054 239.951 133.713 238.419 122.312 238.896C122.244 238.899 122.224 239.16 122.293 239.169C131.836 240.202 150.986 240.895 157.397 241.089C157.518 241.093 157.546 240.715 157.426 240.7Z" fill="#263238"/>
<path d="M164.272 216.404C163.799 218.201 163.353 220.004 162.918 221.809C162.941 221.59 162.972 221.371 162.994 221.152C163.253 218.627 163.497 216.103 163.682 213.572C163.686 213.511 163.584 213.499 163.575 213.56C162.341 222.388 158.851 244.694 158.649 247.136C158.452 247.111 156.561 247.184 156.117 247.163C156.023 247.158 156.031 247.297 156.121 247.307C156.348 247.331 159.192 247.677 159.21 247.615C160.447 243.312 162.327 227.054 162.728 223.454C163.371 221.134 163.907 218.791 164.32 216.416C164.326 216.384 164.28 216.372 164.272 216.404Z" fill="#263238"/>
<path d="M241.381 112.892C240.683 119.776 235.132 125.792 235.132 125.792C235.132 125.792 226.993 124.919 221.942 120.195C217.727 116.254 217.279 110.453 220.633 107.889C225.439 104.213 230.377 113.132 230.377 113.132C230.377 113.132 228.221 103.167 234.265 102.767C238.476 102.489 241.959 107.152 241.381 112.892Z" fill="#FF5733"/>
<path d="M226.661 68.3683C226.38 71.1309 224.153 73.5446 224.153 73.5446C224.153 73.5446 220.888 73.1941 218.86 71.2986C217.169 69.717 216.99 67.3889 218.335 66.3604C220.263 64.8851 222.245 68.4647 222.245 68.4647C222.245 68.4647 221.38 64.4658 223.805 64.3053C225.495 64.1938 226.892 66.0643 226.661 68.3683Z" fill="#FF5733"/>
<path d="M251.451 89.7273C248.391 93.7975 242.604 95.4718 242.604 95.4718C242.604 95.4718 237.811 91.8235 236.428 86.9237C235.274 82.8375 237.201 79.0126 240.289 78.6754C244.716 78.1902 244.429 85.6883 244.429 85.6883C244.429 85.6883 246.866 78.5916 250.823 80.6414C253.582 82.0695 254 86.3323 251.451 89.7273Z" fill="#FF5733"/>
<path d="M111.429 92.5156H24.2188V141.761H111.429V92.5156Z" fill="#FF5733"/>
<path d="M38.9683 141.761L24.2188 156.896V141.761H38.9683Z" fill="#FF5733"/>
<path d="M88.6051 102.403H36.8242V103.925H88.6051V102.403Z" fill="white"/>
<path d="M72.3072 107.061H36.8242V108.583H72.3072V107.061Z" fill="white"/>
<path d="M98.8228 111.719H36.8242V113.241H98.8228V111.719Z" fill="white"/>
<path d="M58.1525 116.377H36.8242V117.899H58.1525V116.377Z" fill="white"/>
<path d="M85.4709 121.035H36.8242V122.557H85.4709V121.035Z" fill="white"/>
<path d="M88.6051 125.693H36.8242V127.215H88.6051V125.693Z" fill="white"/>
<path d="M75.6179 130.351H36.8242V131.873H75.6179V130.351Z" fill="white"/>
<path d="M41.4245 193.318H128.635V157.281H41.4245V193.318Z" fill="#DBDBDB"/>
<path d="M113.885 193.318L128.635 208.453V193.318H113.885Z" fill="#DBDBDB"/>
<path d="M101.822 164.926H54.8701V166.494H101.822V164.926Z" fill="white"/>
<path d="M114.639 169.72H54.8701V171.287H114.639V169.72Z" fill="white"/>
<path d="M98.3098 174.515H54.8701V176.084H98.3098V174.515Z" fill="white"/>
<path d="M109.502 179.31H54.8701V180.878H109.502V179.31Z" fill="white"/>
<path d="M90.6938 184.105H54.8701V185.673H90.6938V184.105Z" fill="white"/>
<path d="M313.008 38.3704H245.224V67.0375H313.008V38.3704Z" fill="#FF5733"/>
<path d="M271.247 67.0375H286.986L279.116 77.8655L271.247 67.0375Z" fill="#FF5733"/>
<path d="M270.961 53.6923C270.051 55.3674 268.531 56.9365 267.213 58.0889C265.906 59.2414 264.802 59.9969 264.715 60.0549H264.057C263.873 59.9291 259.631 57.0524 257.811 53.6825C256.533 51.3383 256.358 48.7238 257.375 47.0192C258.024 45.9345 259.069 45.3342 260.319 45.3342C262.382 45.3342 263.688 46.7873 264.386 48.2011C265.083 46.7873 266.381 45.3342 268.443 45.3342C269.702 45.3342 270.748 45.9345 271.396 47.0192C272.413 48.7336 272.239 51.3481 270.961 53.6923Z" fill="white"/>
<path d="M299.822 47.5847L291.737 58.3806L290.008 51.9422L289.009 52.3864L288.528 51.3133L289.462 50.8967L285.632 46.715H298.878L301.523 45.5403H284.291L283.856 46.5304L288.777 51.9056L290.914 59.8524L291.959 60.0558L302.043 46.6044L299.822 47.5847Z" fill="white"/>
<path d="M299.822 47.5848L291.738 58.3807L290.008 51.9422L299.822 47.5848Z" fill="white"/>
<path d="M298.878 46.715L289.461 50.8967L285.632 46.715H298.878Z" fill="white"/>
<path d="M68.8016 285.495C58.4394 299.531 47.6338 315.82 45.0027 333.421C44.9706 333.687 45.3978 333.774 45.4594 333.51C46.6625 328.682 48.1841 323.994 50.042 319.417C56.8544 317.542 63.542 316.002 67.1194 309.24C70.7683 302.287 70.3045 293.224 69.6114 285.652C69.5633 285.245 69.013 285.225 68.8016 285.495Z" fill="#FF5733"/>
<path d="M50.1441 319.285C54.7999 308.838 60.7757 298.347 68.3721 289.756C68.423 289.699 68.5032 289.782 68.456 289.84C63.4827 295.959 59.7036 302.623 56.0129 309.403C59.4441 305.92 63.2044 302.798 66.4545 299.105C66.5179 299.032 66.6195 299.137 66.5589 299.209C63.331 303.082 59.8062 307.291 55.6026 310.157C54.4735 312.238 53.3372 314.325 52.1839 316.411C52.4658 316.253 52.7574 316.112 53.0473 315.97C53.0981 315.945 53.1436 316.021 53.0919 316.046C52.7708 316.209 52.4542 316.38 52.1233 316.52C51.5774 317.508 51.0369 318.496 50.475 319.481C50.3511 319.698 50.046 319.506 50.1441 319.285Z" fill="#263238"/>
<path d="M53.6072 315.641C56.3847 314.047 59.0631 312.337 61.5622 310.33C61.63 310.275 61.7281 310.369 61.6594 310.427C59.2049 312.505 56.588 314.365 53.7223 315.836C53.593 315.902 53.4806 315.714 53.6072 315.641Z" fill="#263238"/>
<path d="M43.8031 330.805C43.8245 331.019 44.1866 331.014 44.1821 330.788C44.2357 324.991 44.1875 319.168 44.2749 313.345C45.7599 310.349 48.9467 308.69 51.1631 306.289C52.7614 304.556 54.1278 302.601 55.2963 300.533C58.0371 295.629 59.5203 290.115 60.0921 284.543C60.7039 278.342 58.3519 257.883 55.7378 258.594C54.382 258.962 49.9965 269.096 48.8335 272.445C46.9274 277.956 45.5878 283.668 44.7084 289.431C42.5901 303.071 42.7667 317.078 43.8031 330.805Z" fill="#FF5733"/>
<path d="M43.7613 305.8C43.7702 305.793 43.7782 305.785 43.788 305.778C44.1055 298.444 45.7583 291.037 47.3039 283.924C48.97 276.261 50.918 269.044 54.8611 262.21C54.9351 262.083 55.1224 262.195 55.0564 262.324C52.3727 267.612 50.4542 273.226 48.9861 278.991C49.2501 278.577 49.5712 278.185 49.8459 277.796C49.9538 277.642 50.208 277.785 50.101 277.945C49.7148 278.522 49.3651 279.195 48.8692 279.685C48.8532 279.701 48.8354 279.703 48.8175 279.708C47.46 285.185 46.4852 290.789 45.6521 296.377C45.7145 296.306 45.7752 296.23 45.8376 296.161C45.8804 296.115 45.9527 296.174 45.9233 296.227C45.8207 296.413 45.7047 296.596 45.5915 296.781C45.1714 299.618 44.7816 302.45 44.3901 305.256C49.441 300.939 53.7534 295.85 56.1865 289.58C56.1981 289.551 56.2454 289.563 56.2338 289.593C53.8506 296.097 50.0929 301.879 44.3098 305.824C44.2037 306.58 44.0984 307.337 43.9914 308.089C43.9691 308.245 43.7202 308.204 43.7211 308.052C43.7238 307.384 43.7559 306.714 43.7818 306.044C43.7086 305.98 43.6748 305.872 43.7613 305.8Z" fill="#263238"/>
<path d="M46.1404 295.173C49.9997 289.412 53.6048 283.818 56.4295 277.45C56.4607 277.379 56.5829 277.429 56.5553 277.503C54.1756 283.83 50.8426 290.241 46.3339 295.322C46.2421 295.426 46.0619 295.29 46.1404 295.173Z" fill="#263238"/>
<path d="M51.2704 276.027C52.8696 273.197 54.5553 270.445 56.06 267.559C56.1019 267.479 56.2134 267.549 56.1786 267.629C54.9156 270.578 53.4074 273.571 51.5166 276.17C51.4104 276.317 51.1776 276.19 51.2704 276.027Z" fill="#263238"/>
<path d="M50.6456 277.258C50.6779 277.258 50.6779 277.307 50.6456 277.307C50.6142 277.307 50.6142 277.258 50.6456 277.258Z" fill="#263238"/>
<path d="M39.8807 314.042C39.7817 317.883 39.3669 321.724 38.5268 325.462C38.5865 325.874 38.6454 326.287 38.706 326.712C39.9164 322.552 40.5496 318.287 40.7485 313.982C40.8145 313.863 40.8422 313.734 40.7664 313.589C40.7664 313.589 40.7664 313.589 40.7655 313.576C40.984 307.828 40.4515 302.017 39.4865 296.329C37.6919 285.676 33.7702 275.452 26.3415 267.468C26.106 267.222 25.636 267.349 25.5209 267.638C22.5232 275.261 23.5694 284.356 26.1229 291.962C27.5125 296.058 29.4953 299.991 32.014 303.514C34.5613 307.097 37.8106 310.128 39.8807 314.042Z" fill="#FF5733"/>
<path d="M27.2205 271.036C34.2603 282.464 39.1587 296.012 39.7581 309.51C39.7688 309.749 39.3665 309.812 39.3326 309.568C39.1658 308.355 38.9803 307.153 38.7868 305.956C38.7832 305.953 38.7787 305.955 38.7743 305.952C35.8613 303.162 32.8716 300.218 30.7863 296.732C30.7498 296.67 30.8381 296.598 30.8862 296.654C33.4201 299.551 35.7846 302.517 38.6459 305.101C38.1419 302.116 37.5443 299.179 36.8371 296.285C36.648 296.069 36.4651 295.848 36.2796 295.63C36.1574 295.487 36.3608 295.278 36.4883 295.422C36.5445 295.484 36.6007 295.546 36.6578 295.609C35.6606 291.635 34.4432 287.744 32.9769 283.921C31.1841 281.783 29.1809 279.936 27.8751 277.359C27.843 277.297 27.9286 277.249 27.9688 277.305C29.0186 278.778 30.0335 280.259 31.2251 281.627C31.6996 282.171 32.2205 282.68 32.712 283.212C31.1101 279.131 29.2085 275.129 26.9484 271.197C26.8467 271.018 27.1143 270.864 27.2205 271.036Z" fill="#263238"/>
<path d="M28.6431 285.132C30.9192 288.196 33.512 291.118 35.6276 294.283C35.6883 294.374 35.5563 294.467 35.4805 294.397C32.7619 291.846 30.4626 288.364 28.4906 285.222C28.4281 285.123 28.5771 285.043 28.6431 285.132Z" fill="#263238"/>
<path d="M35.9476 294.993L36.0449 295.09C36.1126 295.158 36.0074 295.262 35.9405 295.194L35.8433 295.097C35.7755 295.029 35.8799 294.925 35.9476 294.993Z" fill="#263238"/>
<path d="M16.1897 293.003C16.7552 298.883 19.8483 305.905 23.6185 310.435C25.2899 312.438 27.3172 313.972 29.6433 315.137C32.2522 316.427 34.985 317.914 37.6839 318.974C38.946 322.196 39.911 325.57 40.5309 329.087C40.6183 328.793 40.7048 328.486 40.7913 328.192C39.0592 313.307 29.4284 300.584 17.1084 292.417C16.6651 292.123 16.1407 292.501 16.1897 293.003Z" fill="#FF5733"/>
<path d="M20.4463 297.401C20.3598 297.324 20.4766 297.168 20.5712 297.239C27.0991 302.075 32.9821 309.128 36.2679 316.586C36.358 316.789 36.078 316.968 35.962 316.765C35.3894 315.762 34.8052 314.786 34.2112 313.827C34.2076 313.826 34.2067 313.829 34.2023 313.829C31.391 313.299 28.7277 311.321 26.6406 309.441C26.5844 309.39 26.6674 309.307 26.7245 309.357C27.8144 310.318 28.9837 311.197 30.2823 311.857C31.4284 312.439 32.6628 312.806 33.8553 313.272C32.8127 311.618 31.7272 310.032 30.5927 308.493C27.5664 307.462 24.6856 305.603 22.1418 303.742C22.0616 303.683 22.132 303.552 22.2212 303.606C24.8131 305.166 27.3693 306.539 30.0754 307.804C28.3701 305.546 26.5256 303.407 24.5304 301.338C23.5751 300.833 22.6056 300.327 21.6789 299.786C21.604 299.742 21.6531 299.613 21.7396 299.643C22.4772 299.888 23.2291 300.275 23.9274 300.717C22.8179 299.593 21.6727 298.484 20.4463 297.401Z" fill="#263238"/>
<path d="M20.7085 302.541C20.8788 302.649 21.0322 302.747 21.1821 302.879C21.2275 302.919 21.1696 302.977 21.1223 302.956C20.9421 302.878 20.7941 302.782 20.6282 302.676C20.5434 302.622 20.6219 302.486 20.7085 302.541Z" fill="#263238"/>
<path d="M60.0159 361.322H26.2588L28.9836 330.577L29.5821 323.797H56.6926L57.2911 330.577L60.0159 361.322Z" fill="#455A64"/>
<path d="M57.2909 330.577H28.9834L29.5819 323.797H56.6924L57.2909 330.577Z" fill="#263238"/>
<path d="M58.3079 319.057H27.9678V325.767H58.3079V319.057Z" fill="#455A64"/>
</g>
<defs>
<clipPath id="clip0_251_5552">
<rect width="394" height="367" fill="white"/>
</clipPath>
</defs>
</svg>