<svg xmlns="http://www.w3.org/2000/svg" fill="none" viewBox="18.64 27.4 334.25 321.04">
<g opacity="0.7">
<path d="M98.1953 141.359V146.831H103.667V141.359V135.887H98.1953V141.359Z" fill="#EBEBEB"/>
<path d="M103.667 108.526H98.1953V113.998H103.667V108.526Z" fill="#EBEBEB"/>
<path d="M137.482 168.775H132.01V174.247H137.482V168.775Z" fill="#EBEBEB"/>
<path d="M103.667 119.47V124.942H98.1953V130.415H103.667V135.887H109.14H114.612V141.359H120.084V135.887H125.556V130.415V124.942H120.084V130.415H114.612H109.14V124.942V119.47V113.998H103.667V119.47Z" fill="#EBEBEB"/>
<path d="M114.612 108.526H109.14V113.998H114.612H120.084V108.526H114.612Z" fill="#EBEBEB"/>
<path d="M139.237 152.517H142.177V147.045H139.237H136.297V152.517H139.237Z" fill="#EBEBEB"/>
<path d="M125.556 113.998H120.084V119.47H125.556V113.998Z" fill="#EBEBEB"/>
<path d="M163.862 135.887H158.39V141.359H163.862V135.887Z" fill="#EBEBEB"/>
<path d="M169.333 75.693H163.861V81.1651H169.333V75.693Z" fill="#EBEBEB"/>
<path d="M136.5 119.47V113.998H141.972V108.526H136.5V103.054H131.028V108.526H125.556V113.998H131.028V119.47V124.942V130.415V135.887H136.5V130.415V124.942H141.972V119.47H136.5Z" fill="#EBEBEB"/>
<path d="M163.862 174.192H169.334V168.72H163.862H158.39V174.192H163.862Z" fill="#EBEBEB"/>
<path d="M158.389 75.693H152.917V81.1651H158.389V75.693Z" fill="#EBEBEB"/>
<path d="M157.021 119.47V113.998H151.549V108.526H146.077V113.998V119.47H140.604V124.942H146.077H151.549V119.47H157.021Z" fill="#EBEBEB"/>
<path d="M187.908 108.526H182.436V113.998H187.908V108.526Z" fill="#EBEBEB"/>
<path d="M131.186 135.887H125.714V141.359H131.186V135.887Z" fill="#EBEBEB"/>
<path d="M152.917 103.054V97.5821H158.389V92.1093H163.861H169.333V86.6372H163.861V81.1651H158.389V86.6372H152.917V92.1093H147.445V97.5821H141.973V103.054H147.445H152.917Z" fill="#EBEBEB"/>
<path d="M152.918 141.359V135.887H158.39V130.415H152.918H147.445V135.887H141.973V141.359H147.445H152.918Z" fill="#EBEBEB"/>
<path d="M169.333 163.245V157.773H163.861H158.389V152.301H152.917V157.773H147.445V163.245H141.972H136.5V168.717H141.972H147.445H152.917V163.245H158.389V168.717H163.861V163.245H169.333Z" fill="#EBEBEB"/>
<path d="M147.445 81.1651V75.693H141.973H136.5V81.1651H131.028V86.6372H136.5H141.973V81.1651H147.445Z" fill="#EBEBEB"/>
<path d="M147.445 86.6371H141.973V92.1092H147.445V86.6371Z" fill="#EBEBEB"/>
<path d="M161.125 108.526H155.653V113.998V119.47V124.942H161.125H166.597V119.47H161.125V113.998H166.597V108.526H172.07V103.054H166.597V97.582H161.125V103.054V108.526Z" fill="#EBEBEB"/>
<path d="M141.972 92.1093H136.5V97.5813H141.972V92.1093Z" fill="#EBEBEB"/>
<path d="M158.39 146.832V152.304H163.862H169.334V146.832H174.806H180.278V141.359H174.806H169.334H163.862V146.832H158.39Z" fill="#EBEBEB"/>
<path d="M187.908 124.942H182.436V130.415H187.908V124.942Z" fill="#EBEBEB"/>
<path d="M169.333 130.415H163.861V135.887H169.333V130.415Z" fill="#EBEBEB"/>
<path d="M183.013 113.998H177.541H172.069V119.47H177.541V124.942H183.013V119.47V113.998Z" fill="#EBEBEB"/>
<path d="M180.278 130.415H174.806V135.887H180.278V130.415Z" fill="#EBEBEB"/>
<path d="M120.084 163.35H136.507V141.353H114.51V146.831H109.141V152.304H114.51V157.776H109.141V163.248H114.51V163.35H114.613V168.72H109.141V174.192V179.664H114.613V174.192H120.085V168.72L120.084 163.35ZM132.294 145.566V159.246H118.614V145.566H132.294Z" fill="#EBEBEB"/>
<path d="M191.221 141.359H196.694V135.887H191.221H185.749H180.277V141.359H185.749H191.221Z" fill="#EBEBEB"/>
<path d="M191.222 119.47H196.694V113.998V108.526H191.222V113.998V119.47Z" fill="#EBEBEB"/>
<path d="M147.649 147.045H142.177V152.517V157.989H147.649V152.517V147.045Z" fill="#EBEBEB"/>
<path d="M202.166 141.359H196.694V146.831H202.166V141.359Z" fill="#EBEBEB"/>
<path d="M202.166 130.415V124.942H196.694V130.415V135.887H202.166V130.415Z" fill="#EBEBEB"/>
<path d="M103.668 168.72H98.1953V174.192V179.664H103.668V174.192V168.72Z" fill="#EBEBEB"/>
<path d="M202.167 103.054V75.693H174.807V103.054H202.167ZM178.91 98.9501V79.797H198.062V98.9501H178.91Z" fill="#EBEBEB"/>
<path d="M193.958 83.9011H183.014V94.8453H193.958V83.9011Z" fill="#EBEBEB"/>
<path d="M202.167 152.304H174.807V179.665H202.167V152.304ZM178.91 175.56V156.407H198.062V175.56H178.91Z" fill="#EBEBEB"/>
<path d="M193.958 160.512H183.014V171.456H193.958V160.512Z" fill="#EBEBEB"/>
<path d="M98.127 75.693V103.054H125.487V75.693H98.127ZM121.383 79.797V98.9501H102.231V79.797H121.383Z" fill="#EBEBEB"/>
<path d="M117.279 83.9011H106.335V94.8453H117.279V83.9011Z" fill="#EBEBEB"/>
<path d="M54.466 182.864C54.4594 184.295 53.2943 185.449 51.8635 185.443C50.4327 185.436 49.2786 184.271 49.2852 182.84C49.2918 181.409 50.4568 180.255 51.8876 180.262C53.3177 180.268 54.4726 181.433 54.466 182.864Z" fill="#EBEBEB"/>
<path d="M46.6976 179.535C49.5424 176.548 54.1655 176.457 57.0833 179.398C58.4053 180.73 60.4756 178.68 59.1528 177.347C55.1495 173.312 48.5788 173.336 44.647 177.465C43.3549 178.822 45.4018 180.895 46.6976 179.535Z" fill="#EBEBEB"/>
<path d="M37.9001 167.477C41.8392 164.072 46.5411 161.929 51.8066 161.916C57.0254 161.903 62.1719 163.756 65.9941 167.345C67.36 168.628 69.4339 166.582 68.0637 165.295C63.6852 161.183 57.813 158.987 51.8197 159.002C45.7607 159.017 40.3755 161.494 35.8488 165.407C34.4282 166.636 36.4868 168.699 37.9001 167.477Z" fill="#EBEBEB"/>
<path d="M41.3716 174.159C44.0121 171.304 47.7132 169.516 51.6238 169.427C55.6417 169.335 59.5202 170.99 62.3132 173.86C63.6235 175.205 65.6923 173.155 64.3827 171.809C61.0773 168.413 56.3936 166.405 51.6369 166.514C46.9846 166.62 42.4761 168.677 39.3203 172.089C38.0501 173.463 40.0956 175.539 41.3716 174.159Z" fill="#EBEBEB"/>
<path d="M166.514 41.1975C166.955 37.995 162.435 35.3605 159.039 35.0867C157.419 34.956 155.737 35.2035 154.203 34.6692C150.878 33.5106 149.551 29.2153 146.306 27.8473C143.881 26.8246 141.089 27.7349 138.739 28.9182C136.387 30.1015 134.064 31.5907 131.438 31.7586C129.153 31.9046 126.672 31.0578 124.673 32.174C123.184 33.0055 122.403 34.7217 121.03 35.735C119.687 36.7256 117.935 36.9358 116.268 37.0263C114.602 37.1168 112.877 37.1336 111.359 37.8286C109.841 38.5236 108.587 40.1281 108.901 41.7669L166.514 41.1975Z" fill="#EBEBEB"/>
<path d="M79.3097 95.3008C79.7046 92.4297 75.6531 90.0681 72.609 89.8228C71.1571 89.706 69.6489 89.928 68.2736 89.4484C65.2937 88.4096 64.1031 84.5595 61.1955 83.3331C59.0215 82.4163 56.5191 83.2324 54.4116 84.2931C52.3041 85.3538 50.2214 86.689 47.8671 86.8393C45.8188 86.9707 43.5952 86.2108 41.803 87.2116C40.4679 87.957 39.7685 89.4958 38.5377 90.4032C37.334 91.2916 35.763 91.4792 34.2694 91.561C32.7758 91.642 31.229 91.6573 29.869 92.28C28.509 92.9027 27.3833 94.3415 27.6658 95.8103L79.3097 95.3008Z" fill="#F5F5F5"/>
<path d="M352.867 93.2699C353.29 90.1959 348.952 87.6671 345.692 87.4043C344.137 87.2788 342.522 87.5168 341.05 87.0036C337.859 85.8918 336.584 81.7687 333.471 80.4555C331.143 79.4736 328.463 80.3474 326.206 81.4833C323.95 82.6192 321.72 84.0485 319.198 84.2099C317.005 84.35 314.624 83.5368 312.705 84.6084C311.276 85.4063 310.527 87.0539 309.208 88.0263C307.919 88.9775 306.237 89.1782 304.638 89.2658C303.038 89.3527 301.382 89.3688 299.926 90.036C298.469 90.7032 297.264 92.2428 297.566 93.8159L352.867 93.2699Z" fill="#F5F5F5"/>
<path d="M346.357 348.252C346.357 348.357 272.99 348.441 182.507 348.441C91.9935 348.441 18.6416 348.356 18.6416 348.252C18.6416 348.146 91.9935 348.062 182.507 348.062C272.99 348.061 346.357 348.146 346.357 348.252Z" fill="#263238"/>
<path d="M307.108 316.138C308.57 316.773 309.645 318.125 310.185 319.624C310.725 321.124 310.774 322.762 310.594 324.346C310.247 327.411 308.506 330.505 306.63 332.953C304.05 330.701 303.456 326.772 303.28 324.76C303.002 321.58 304.43 315.664 307.108 316.138Z" fill="#FF5733"/>
<path d="M309.63 338.012C309.217 336.28 309.937 334.379 311.267 333.195C312.597 332.011 314.455 331.51 316.23 331.646C317.051 331.708 317.938 331.948 318.408 332.624C318.848 333.256 318.799 334.138 318.442 334.82C318.086 335.502 317.468 336.012 316.816 336.421C314.58 337.823 312.159 338.77 309.63 338.012Z" fill="#FF5733"/>
<path d="M306.321 347.408C306.306 347.404 306.341 347.181 306.413 346.778C306.494 346.336 306.599 345.764 306.725 345.077C307.011 343.655 307.377 341.617 308.482 339.64C309.572 337.667 311.098 336.215 312.384 335.493C313.022 335.124 313.58 334.904 313.974 334.79C314.169 334.724 314.328 334.699 314.433 334.674C314.539 334.652 314.595 334.643 314.596 334.651C314.614 334.701 313.702 334.865 312.465 335.629C311.224 336.372 309.749 337.81 308.677 339.749C307.593 341.685 307.204 343.694 306.88 345.108C306.724 345.821 306.597 346.4 306.498 346.796C306.4 347.194 306.336 347.411 306.321 347.408Z" fill="#263238"/>
<path d="M306.418 320.74C306.426 320.74 306.437 320.834 306.45 321.015C306.462 321.219 306.477 321.48 306.496 321.804C306.533 322.491 306.573 323.484 306.613 324.712C306.693 327.168 306.755 330.562 306.739 334.31C306.723 338.06 306.631 341.454 306.53 343.909C306.48 345.136 306.431 346.129 306.388 346.815C306.366 347.139 306.348 347.4 306.334 347.604C306.32 347.784 306.308 347.879 306.3 347.879C306.293 347.879 306.289 347.783 306.289 347.602C306.292 347.398 306.296 347.135 306.301 346.811C306.318 346.097 306.342 345.11 306.372 343.904C306.432 341.449 306.499 338.057 306.515 334.309C306.531 330.563 306.493 327.171 306.455 324.716C306.436 323.509 306.42 322.522 306.41 321.807C306.407 321.483 306.406 321.22 306.404 321.016C306.406 320.835 306.41 320.74 306.418 320.74Z" fill="#263238"/>
<path d="M305.165 339.877C304.578 336.169 302.079 332.817 298.693 331.195C297.831 330.782 296.705 330.513 295.996 331.154C295.285 331.796 295.445 332.949 295.792 333.841C297.237 337.554 301.12 340.176 305.104 340.129" fill="#FF5733"/>
<path d="M299.112 334.102C299.118 334.088 299.313 334.174 299.659 334.341C299.833 334.423 300.046 334.525 300.278 334.671C300.51 334.815 300.79 334.957 301.066 335.165C301.348 335.363 301.662 335.575 301.968 335.843C302.289 336.093 302.6 336.395 302.927 336.715C303.563 337.37 304.203 338.152 304.75 339.057C305.288 339.966 305.677 340.899 305.95 341.771C306.073 342.212 306.191 342.63 306.253 343.032C306.341 343.429 306.373 343.807 306.408 344.15C306.456 344.492 306.44 344.806 306.451 345.079C306.464 345.353 306.446 345.588 306.43 345.78C306.402 346.164 306.379 346.375 306.364 346.373C306.313 346.371 306.401 345.521 306.25 344.166C306.206 343.828 306.165 343.457 306.071 343.068C306.002 342.673 305.879 342.264 305.753 341.832C305.474 340.978 305.085 340.065 304.557 339.171C304.02 338.283 303.396 337.511 302.779 336.859C302.461 336.54 302.159 336.237 301.848 335.985C301.552 335.715 301.247 335.499 300.975 335.294C299.867 334.499 299.089 334.145 299.112 334.102Z" fill="#263238"/>
<path d="M111.001 348.261C110.943 348.269 110.794 347.466 110.501 346.183C110.209 344.899 109.751 343.14 109.093 341.246C108.432 339.351 107.7 337.687 107.132 336.5C106.564 335.312 106.183 334.59 106.233 334.56C106.273 334.536 106.738 335.213 107.372 336.378C108.005 337.542 108.785 339.207 109.452 341.12C110.117 343.034 110.539 344.823 110.765 346.129C110.992 347.436 111.047 348.255 111.001 348.261Z" fill="#263238"/>
<path d="M117.479 316.67C117.504 316.676 117.438 317.116 117.298 317.908C117.154 318.698 116.955 319.844 116.725 321.261C116.26 324.095 115.721 328.027 115.383 332.395C115.051 336.764 114.986 340.733 115.014 343.604C115.027 345.04 115.049 346.202 115.071 347.005C115.089 347.809 115.088 348.255 115.062 348.256C115.035 348.257 114.988 347.815 114.924 347.013C114.856 346.211 114.793 345.048 114.745 343.61C114.648 340.733 114.671 336.75 115.005 332.366C115.343 327.984 115.926 324.044 116.46 321.215C116.725 319.801 116.965 318.661 117.154 317.878C117.338 317.094 117.453 316.665 117.479 316.67Z" fill="#263238"/>
<path d="M127.871 334.854C127.917 334.894 127.401 335.534 126.658 336.628C125.914 337.72 124.972 339.288 124.161 341.131C123.355 342.977 122.84 344.733 122.542 346.02C122.242 347.307 122.12 348.121 122.059 348.114C122.016 348.109 122.042 347.281 122.279 345.965C122.512 344.651 122.994 342.853 123.813 340.979C124.637 339.107 125.632 337.535 126.44 336.472C127.247 335.406 127.838 334.825 127.871 334.854Z" fill="#263238"/>
<path d="M255.141 337.232C255.185 337.207 255.561 337.758 256.103 338.687C256.645 339.616 257.347 340.929 258.042 342.417C258.736 343.906 259.292 345.286 259.656 346.299C260.02 347.311 260.201 347.953 260.154 347.971C260.103 347.99 259.833 347.381 259.406 346.398C258.98 345.415 258.388 344.058 257.697 342.577C257.006 341.098 256.346 339.773 255.866 338.815C255.386 337.856 255.093 337.259 255.141 337.232Z" fill="#263238"/>
<path d="M268.572 323.933C268.597 323.94 268.53 324.278 268.387 324.881C268.23 325.557 268.031 326.413 267.795 327.434C267.309 329.592 266.717 332.591 266.273 335.936C265.833 339.281 265.624 342.332 265.533 344.542C265.496 345.589 265.465 346.467 265.441 347.161C265.422 347.78 265.398 348.123 265.373 348.123C265.346 348.123 265.319 347.781 265.293 347.161C265.264 346.541 265.252 345.643 265.265 344.534C265.288 342.315 265.454 339.246 265.897 335.885C266.344 332.526 266.98 329.52 267.535 327.371C267.812 326.297 268.056 325.433 268.246 324.842C268.431 324.249 268.546 323.926 268.572 323.933Z" fill="#263238"/>
<path d="M171.407 329.872C171.424 329.852 171.658 330.034 172.068 330.383C172.481 330.727 173.045 331.264 173.709 331.96C175.038 333.349 176.701 335.453 178.108 338.04C179.508 340.631 180.363 343.173 180.801 345.045C181.023 345.981 181.164 346.746 181.226 347.281C181.295 347.814 181.32 348.109 181.295 348.113C181.228 348.124 181.045 346.951 180.541 345.112C180.041 343.274 179.156 340.78 177.773 338.221C176.384 335.666 174.778 333.564 173.51 332.142C172.244 330.715 171.362 329.921 171.407 329.872Z" fill="#263238"/>
<path d="M184.054 322.105C184.08 322.107 184.089 322.476 184.085 323.142C184.083 323.88 184.08 324.827 184.076 325.961C184.083 328.34 184.175 331.627 184.487 335.243C184.805 338.859 185.284 342.112 185.689 344.457C185.889 345.574 186.055 346.505 186.185 347.232C186.306 347.887 186.36 348.252 186.334 348.258C186.309 348.264 186.206 347.91 186.041 347.263C185.873 346.617 185.66 345.675 185.424 344.506C184.951 342.168 184.427 338.906 184.109 335.276C183.794 331.646 183.745 328.344 183.808 325.959C183.837 324.766 183.884 323.802 183.937 323.137C183.987 322.47 184.027 322.104 184.054 322.105Z" fill="#263238"/>
<path d="M195.226 337.583C195.333 337.64 194.077 339.83 193.214 342.791C192.331 345.747 192.197 348.268 192.077 348.258C192.03 348.256 192.003 347.623 192.092 346.604C192.181 345.586 192.409 344.184 192.85 342.683C193.294 341.184 193.863 339.883 194.342 338.98C194.819 338.076 195.185 337.559 195.226 337.583Z" fill="#263238"/>
<path d="M45.9379 278.799H37.459V346.081H45.9379V278.799Z" fill="#455A64"/>
<path d="M45.9383 346.081C45.9383 346.081 45.9295 345.958 45.9251 345.729C45.9222 345.487 45.9178 345.152 45.912 344.72C45.9062 343.822 45.8974 342.523 45.8857 340.852C45.8726 337.485 45.8536 332.625 45.8302 326.586C45.8098 314.507 45.7806 297.717 45.7485 278.799L45.9376 278.988C43.2307 278.988 40.3655 278.988 37.4623 278.989H37.4601H37.4586L37.6484 278.799C37.6031 308.271 37.5637 333.793 37.5447 346.081L37.4586 345.995C40.1968 346.016 42.3043 346.033 43.7439 346.044C44.4505 346.053 44.9922 346.06 45.374 346.065C45.7426 346.07 45.9383 346.081 45.9383 346.081C45.9383 346.081 45.7645 346.092 45.4054 346.098C45.0287 346.103 44.4929 346.11 43.795 346.119C42.3438 346.13 40.2195 346.146 37.4593 346.167L37.3732 346.168V346.081C37.3542 333.793 37.3148 308.271 37.2695 278.799L37.4601 278.61H37.4608H37.4637C40.3669 278.61 43.2314 278.61 45.939 278.611H46.1281L46.1274 278.8C46.0952 297.771 46.0668 314.61 46.0456 326.723C46.0222 332.743 46.0033 337.589 45.9901 340.946C45.9792 342.598 45.9704 343.883 45.9638 344.771C45.9587 345.193 45.9543 345.52 45.9507 345.756C45.947 345.975 45.9383 346.081 45.9383 346.081Z" fill="#263238"/>
<g opacity="0.3">
<path d="M45.9379 280.435H37.459V283.236H45.9379V280.435Z" fill="black"/>
</g>
<path d="M226.249 278.799H217.771V346.081H226.249V278.799Z" fill="#455A64"/>
<path d="M226.25 346.081C226.25 346.081 226.241 345.958 226.237 345.729C226.234 345.487 226.229 345.152 226.224 344.72C226.218 343.822 226.21 342.523 226.198 340.852C226.185 337.485 226.166 332.625 226.142 326.586C226.122 314.507 226.093 297.717 226.061 278.799L226.25 278.988C223.543 278.988 220.678 278.988 217.775 278.989H217.772H217.772L217.961 278.799C217.915 308.271 217.875 333.793 217.856 346.081L217.77 345.995C220.508 346.016 222.616 346.033 224.055 346.044C224.762 346.053 225.304 346.06 225.685 346.065C226.054 346.07 226.25 346.081 226.25 346.081C226.25 346.081 226.076 346.092 225.717 346.098C225.34 346.103 224.805 346.11 224.107 346.119C222.655 346.13 220.531 346.146 217.771 346.167L217.685 346.168V346.081C217.666 333.793 217.626 308.271 217.581 278.799L217.772 278.61H217.772H217.773H217.775C220.678 278.61 223.543 278.61 226.251 278.611H226.44V278.8C226.407 297.771 226.379 314.61 226.358 326.723C226.334 332.743 226.315 337.589 226.302 340.946C226.291 342.598 226.283 343.883 226.276 344.771C226.27 345.193 226.267 345.52 226.264 345.756C226.259 345.975 226.25 346.081 226.25 346.081Z" fill="#263238"/>
<path d="M212.967 219.86H204.488V275.945H212.967V219.86Z" fill="#455A64"/>
<path d="M212.967 275.946C212.963 275.941 212.959 275.842 212.955 275.652C212.952 275.446 212.948 275.168 212.942 274.811C212.937 274.059 212.928 272.98 212.917 271.594C212.904 268.788 212.885 264.746 212.861 259.721C212.841 249.662 212.812 235.671 212.779 219.861L212.967 220.049C210.253 220.05 207.394 220.05 204.491 220.05C204.865 219.67 204.595 219.956 204.678 219.875V219.893V219.929V219.999V220.141V220.424V220.989V222.116C204.678 222.866 204.678 223.613 204.678 224.356C204.677 225.842 204.677 227.315 204.677 228.772C204.675 231.685 204.673 234.536 204.672 237.311C204.664 242.858 204.658 248.099 204.652 252.924C204.623 262.557 204.598 270.523 204.582 275.946L204.489 275.853C207.208 275.876 209.315 275.893 210.761 275.906C211.468 275.915 212.012 275.923 212.399 275.928C212.769 275.933 212.967 275.946 212.967 275.946C212.967 275.946 212.792 275.958 212.431 275.964C212.05 275.969 211.512 275.977 210.815 275.986C209.357 275.998 207.232 276.016 204.489 276.039L204.396 276.039V275.946C204.38 270.523 204.355 262.557 204.326 252.924C204.32 248.099 204.314 242.858 204.307 237.311C204.305 234.536 204.303 231.685 204.301 228.772C204.301 227.315 204.301 225.842 204.3 224.356C204.3 223.613 204.3 222.866 204.3 222.116V220.989V220.424V220.141V219.999V219.929V219.893V219.875C204.386 219.786 204.107 220.05 204.493 219.671C207.397 219.672 210.255 219.672 212.97 219.672H213.159L213.158 219.861C213.125 235.725 213.097 249.763 213.075 259.856C213.052 264.863 213.033 268.89 213.02 271.686C213.009 273.053 213 274.119 212.994 274.861C212.989 275.207 212.985 275.478 212.982 275.677C212.976 275.859 212.972 275.95 212.967 275.946Z" fill="#263238"/>
<path d="M62.1655 219.86H53.6865V275.945H62.1655V219.86Z" fill="#455A64"/>
<path d="M62.1653 275.946C62.1609 275.941 62.1565 275.842 62.1529 275.652C62.15 275.446 62.1456 275.168 62.1405 274.811C62.1346 274.059 62.1259 272.98 62.1149 271.594C62.1018 268.788 62.0828 264.746 62.0594 259.721C62.0383 249.662 62.0098 235.671 61.977 219.861L62.1653 220.049C59.4512 220.05 56.5932 220.05 53.6893 220.05C54.063 219.67 53.7929 219.956 53.8762 219.875V219.893V219.929V219.999V220.141V220.424V220.989V222.116C53.8762 222.866 53.8762 223.613 53.8762 224.356C53.8754 225.842 53.8754 227.315 53.8747 228.772C53.8732 231.685 53.871 234.536 53.8696 237.311C53.8623 242.858 53.8557 248.099 53.8499 252.924C53.8207 262.557 53.7958 270.523 53.7798 275.946L53.6871 275.853C56.4063 275.876 58.5131 275.893 59.9585 275.906C60.6659 275.915 61.2105 275.923 61.5966 275.928C61.966 275.933 62.1653 275.946 62.1653 275.946C62.1653 275.946 61.9901 275.958 61.6295 275.964C61.2484 275.969 60.7104 275.977 60.0125 275.986C58.554 275.998 56.4297 276.016 53.6863 276.039L53.5936 276.039V275.946C53.5768 270.523 53.5528 262.557 53.5236 252.924C53.5177 248.099 53.5104 242.858 53.5038 237.311C53.5024 234.536 53.5002 231.685 53.4987 228.772C53.498 227.315 53.498 225.842 53.4973 224.356C53.4973 223.613 53.4973 222.866 53.4973 222.116V220.989V220.424V220.141V219.999V219.929V219.893V219.875C53.5834 219.786 53.3046 220.05 53.6907 219.671C56.5939 219.672 59.4526 219.672 62.1668 219.672H62.3558L62.3551 219.861C62.3222 235.725 62.2938 249.763 62.2726 259.856C62.2492 264.863 62.2303 268.89 62.2171 271.686C62.2062 273.053 62.1974 274.119 62.1916 274.861C62.1865 275.207 62.1821 275.478 62.1792 275.677C62.1733 275.859 62.1689 275.95 62.1653 275.946Z" fill="#263238"/>
<path d="M229.324 213.461H36.9609V222.438H229.324V213.461Z" fill="#455A64"/>
<path d="M229.324 222.439C229.324 222.439 229.318 222.256 229.314 221.892C229.311 221.524 229.308 220.978 229.302 220.242C229.295 218.763 229.285 216.526 229.271 213.462L229.324 213.515C205.669 213.532 128.449 213.586 36.9708 213.651H36.9613L37.1511 213.462C37.1511 216.537 37.1511 219.596 37.1511 222.439L36.9613 222.249C90.5082 222.28 138.571 222.308 173.254 222.328C190.608 222.352 204.614 222.372 214.288 222.386C219.124 222.397 222.877 222.407 225.428 222.413C226.698 222.419 227.668 222.423 228.328 222.426C228.982 222.43 229.324 222.439 229.324 222.439C229.324 222.439 229 222.448 228.354 222.452C227.7 222.455 226.739 222.46 225.479 222.465C222.939 222.471 219.201 222.481 214.384 222.492C204.72 222.505 190.731 222.525 173.395 222.55C138.675 222.57 90.563 222.597 36.9613 222.629H36.7715V222.439C36.7715 219.596 36.7715 216.537 36.7715 213.462V213.272H36.9613H36.9708C128.448 213.337 205.669 213.391 229.324 213.408H229.378V213.462C229.364 216.54 229.354 218.788 229.348 220.272C229.343 221.003 229.338 221.545 229.335 221.911C229.331 222.269 229.324 222.439 229.324 222.439Z" fill="#263238"/>
<path d="M229.822 226.928H37.459V235.905H229.822V226.928Z" fill="#455A64"/>
<path d="M229.822 235.905C229.822 235.905 229.816 235.722 229.812 235.359C229.809 234.99 229.806 234.444 229.8 233.708C229.793 232.23 229.783 229.992 229.768 226.928L229.822 226.981C206.166 226.998 128.946 227.053 37.4681 227.118H37.4586L37.6484 226.928C37.6484 230.003 37.6484 233.063 37.6484 235.905L37.4586 235.716C91.0056 235.746 139.068 235.774 173.752 235.794C191.105 235.819 205.111 235.838 214.785 235.852C219.621 235.864 223.374 235.873 225.925 235.879C227.196 235.885 228.165 235.889 228.825 235.892C229.481 235.897 229.822 235.905 229.822 235.905C229.822 235.905 229.498 235.914 228.853 235.919C228.199 235.921 227.237 235.926 225.978 235.932C223.438 235.937 219.7 235.947 214.882 235.959C205.218 235.973 191.229 235.992 173.893 236.016C139.173 236.036 91.061 236.064 37.4593 236.095H37.2695V235.905C37.2695 233.062 37.2695 230.003 37.2695 226.928V226.738H37.4593H37.4688C128.946 226.803 206.167 226.858 229.822 226.875H229.876V226.928C229.862 230.006 229.852 232.254 229.845 233.739C229.84 234.469 229.835 235.011 229.833 235.377C229.829 235.735 229.822 235.905 229.822 235.905Z" fill="#263238"/>
<path d="M229.822 240.893H37.459V249.871H229.822V240.893Z" fill="#455A64"/>
<path d="M229.822 249.871C229.822 249.871 229.816 249.688 229.812 249.324C229.809 248.956 229.806 248.41 229.8 247.674C229.793 246.195 229.783 243.958 229.768 240.893L229.822 240.947C206.166 240.964 128.946 241.018 37.4681 241.083H37.4586L37.6484 240.893C37.6484 243.969 37.6484 247.028 37.6484 249.871L37.4586 249.681C91.0056 249.712 139.068 249.74 173.752 249.76C191.105 249.784 205.111 249.804 214.785 249.818C219.621 249.829 223.374 249.839 225.925 249.845C227.196 249.851 228.165 249.855 228.825 249.858C229.481 249.862 229.822 249.871 229.822 249.871C229.822 249.871 229.498 249.88 228.853 249.884C228.199 249.887 227.237 249.891 225.978 249.897C223.438 249.904 219.7 249.913 214.882 249.924C205.218 249.937 191.229 249.957 173.893 249.981C139.173 250.001 91.061 250.029 37.4593 250.06H37.2695V249.87C37.2695 247.027 37.2695 243.968 37.2695 240.893V240.703H37.4593H37.4688C128.946 240.768 206.167 240.823 229.822 240.839H229.876V240.893C229.862 243.971 229.852 246.219 229.845 247.704C229.84 248.434 229.835 248.976 229.833 249.342C229.829 249.701 229.822 249.871 229.822 249.871Z" fill="#263238"/>
<path d="M229.822 254.859H37.459V263.837H229.822V254.859Z" fill="#455A64"/>
<path d="M229.822 263.837C229.822 263.837 229.816 263.654 229.812 263.291C229.809 262.922 229.806 262.376 229.8 261.64C229.793 260.162 229.783 257.924 229.768 254.86L229.822 254.913C206.166 254.93 128.946 254.985 37.4681 255.05H37.4586L37.6484 254.86C37.6484 257.935 37.6484 260.995 37.6484 263.837L37.4586 263.648C91.0056 263.678 139.068 263.706 173.752 263.726C191.105 263.751 205.111 263.77 214.785 263.784C219.621 263.796 223.374 263.805 225.925 263.811C227.196 263.817 228.165 263.821 228.825 263.824C229.481 263.828 229.822 263.837 229.822 263.837C229.822 263.837 229.498 263.846 228.853 263.851C228.199 263.853 227.237 263.858 225.978 263.864C223.438 263.869 219.7 263.879 214.882 263.891C205.218 263.904 191.229 263.924 173.893 263.948C139.173 263.968 91.061 263.996 37.4593 264.027H37.2695V263.837C37.2695 260.994 37.2695 257.935 37.2695 254.86V254.67H37.4593H37.4688C128.946 254.735 206.167 254.79 229.822 254.807H229.876V254.86C229.862 257.938 229.852 260.186 229.845 261.671C229.84 262.401 229.835 262.943 229.833 263.309C229.829 263.667 229.822 263.837 229.822 263.837Z" fill="#263238"/>
<path d="M233.32 271.456H29.1035V280.434H233.32V271.456Z" fill="#455A64"/>
<path d="M233.32 280.435C233.32 280.435 233.313 280.252 233.31 279.889C233.307 279.521 233.303 278.977 233.298 278.242C233.291 276.765 233.281 274.527 233.268 271.457L233.32 271.509C208.804 271.526 126.604 271.581 29.1141 271.647H29.1039L29.2937 271.457C29.2937 274.533 29.2937 277.593 29.2937 280.435L29.1039 280.245C85.9263 280.275 136.952 280.303 173.78 280.324C192.206 280.348 207.079 280.367 217.353 280.381C222.489 280.393 226.475 280.402 229.182 280.408C230.532 280.414 231.562 280.419 232.262 280.421C232.957 280.425 233.32 280.435 233.32 280.435C233.32 280.435 232.975 280.443 232.289 280.448C231.595 280.451 230.574 280.455 229.235 280.461C226.537 280.467 222.566 280.476 217.449 280.488C207.186 280.502 192.329 280.521 173.921 280.546C137.057 280.565 85.9818 280.593 29.1039 280.624H28.9141V280.435C28.9141 277.593 28.9141 274.533 28.9141 271.457V271.267H29.1039H29.1141C126.604 271.333 208.804 271.389 233.32 271.405H233.372V271.457C233.359 274.541 233.349 276.788 233.343 278.272C233.337 279.002 233.333 279.543 233.33 279.908C233.326 280.265 233.32 280.435 233.32 280.435Z" fill="#263238"/>
<g opacity="0.3">
<path d="M226.249 280.435H217.771V283.236H226.249V280.435Z" fill="black"/>
</g>
<path d="M122.863 168.134L121.032 179.954L116.317 190.715L109.329 186.252L106.846 179.972L104.762 174.705C104.762 174.705 97.382 176.48 94.4423 169.58C93.0232 166.249 90.6587 159.15 88.5936 152.7C86.3722 145.763 89.8492 138.285 96.5849 135.513L97.2543 135.238C104.643 132.69 110.934 137.542 113.277 144.999L122.863 168.134Z" fill="#FFC9AF"/>
<path d="M104.753 174.704C104.753 174.704 109.283 173.257 112.737 168.415C112.737 168.415 112.654 174.285 105.476 176.508L104.753 174.704Z" fill="#FFB095"/>
<path d="M93.1021 157.993C93.2985 158.524 93.9102 158.795 94.4679 158.6C95.0249 158.405 95.3184 157.817 95.1213 157.287C94.9242 156.756 94.3132 156.484 93.7562 156.679C93.1985 156.874 92.9057 157.462 93.1021 157.993Z" fill="#263238"/>
<path d="M91.2272 155.156C91.4032 155.235 91.9244 154.371 92.9916 153.935C94.0509 153.485 95.059 153.711 95.1203 153.533C95.1532 153.452 94.932 153.27 94.4896 153.162C94.0523 153.053 93.3822 153.048 92.7193 153.324C92.0572 153.601 91.5988 154.075 91.3813 154.457C91.1579 154.844 91.1425 155.123 91.2272 155.156Z" fill="#263238"/>
<path d="M102.398 153.848C102.595 154.379 103.206 154.65 103.765 154.454C104.322 154.259 104.615 153.672 104.418 153.141C104.221 152.61 103.609 152.339 103.053 152.534C102.495 152.73 102.201 153.318 102.398 153.848Z" fill="#263238"/>
<path d="M101.723 150.486C101.89 150.583 102.503 149.781 103.61 149.463C104.712 149.13 105.689 149.465 105.77 149.294C105.812 149.216 105.613 149.012 105.183 148.857C104.761 148.701 104.095 148.624 103.406 148.827C102.718 149.03 102.211 149.452 101.952 149.808C101.689 150.168 101.643 150.444 101.723 150.486Z" fill="#263238"/>
<path d="M101.422 160.861C101.403 160.799 100.693 160.957 99.5631 161.261C99.2792 161.345 98.9996 161.397 98.8777 161.231C98.7324 161.061 98.7258 160.72 98.7273 160.35C98.712 159.586 98.6959 158.785 98.6791 157.946C98.5827 154.536 98.3937 151.777 98.2564 151.782C98.1192 151.787 98.0856 154.555 98.182 157.965C98.2126 158.803 98.2404 159.603 98.2688 160.367C98.2937 160.719 98.2601 161.142 98.5674 161.494C98.7244 161.667 98.985 161.732 99.1784 161.707C99.3748 161.689 99.5288 161.629 99.6668 161.581C100.771 161.194 101.444 160.923 101.422 160.861Z" fill="#263238"/>
<path d="M99.686 145.948C99.9101 146.195 100.918 145.62 102.23 145.255C103.535 144.865 104.695 144.817 104.753 144.488C104.776 144.333 104.488 144.133 103.965 144.02C103.445 143.906 102.691 143.906 101.906 144.131C101.122 144.358 100.483 144.76 100.104 145.133C99.721 145.507 99.5838 145.829 99.686 145.948Z" fill="#263238"/>
<path d="M89.7047 150.963C89.9916 151.128 90.6223 150.574 91.5005 150.199C92.3656 149.793 93.1978 149.691 93.2657 149.367C93.2905 149.213 93.073 149.019 92.6525 148.924C92.2364 148.829 91.621 148.864 91.0224 149.132C90.4238 149.4 89.988 149.836 89.7828 150.211C89.5733 150.587 89.5733 150.879 89.7047 150.963Z" fill="#263238"/>
<path d="M114.823 150.368C114.92 150.268 119.008 146.998 120.808 151.802C122.607 156.606 117.413 157.422 117.353 157.287C117.294 157.152 114.823 150.368 114.823 150.368Z" fill="#FFC9AF"/>
<path d="M118.14 154.917C118.155 154.894 118.246 154.944 118.411 154.956C118.573 154.967 118.826 154.922 119.041 154.735C119.479 154.358 119.604 153.393 119.303 152.518C119.152 152.076 118.904 151.695 118.62 151.408C118.342 151.111 118.022 150.951 117.75 151.001C117.474 151.038 117.35 151.258 117.342 151.416C117.328 151.574 117.394 151.659 117.372 151.676C117.363 151.693 117.238 151.635 117.203 151.422C117.187 151.319 117.201 151.184 117.279 151.05C117.359 150.913 117.511 150.802 117.696 150.754C118.076 150.641 118.537 150.857 118.849 151.172C119.182 151.481 119.471 151.906 119.641 152.402C119.973 153.382 119.817 154.473 119.197 154.934C118.892 155.148 118.572 155.152 118.384 155.094C118.192 155.03 118.127 154.932 118.14 154.917Z" fill="#FFB095"/>
<path d="M84.4942 144.925C84.3241 143.921 84.6431 142.762 85.5177 142.24C84.7621 141.516 84.5935 140.255 85.1322 139.356C85.671 138.458 86.8631 138.014 87.8581 138.339C87.2047 136.917 88.5012 135.022 90.0634 135.115C89.667 134.297 89.9108 133.221 90.6204 132.654C91.3299 132.087 92.4337 132.087 93.1433 132.654C93.4345 130.545 96.1173 129.176 97.9956 130.179C99.6089 128.725 102.366 128.795 103.903 130.331C105.486 129.775 107.388 130.306 108.454 131.601C109.482 131.274 110.676 131.535 111.474 132.261C112.271 132.987 112.643 134.151 112.414 135.205C113.852 135.289 114.882 137.085 114.228 138.369C115.073 138.424 115.862 139 116.173 139.788C116.484 140.576 116.3 141.535 115.721 142.154C116.454 141.953 117.113 142.76 117.181 143.517C117.25 144.275 116.968 145.022 116.958 145.782C116.95 146.409 117.127 147.024 117.157 147.651C117.214 148.827 116.713 150.014 115.842 150.805C115.902 150.836 115.964 150.865 116.024 150.896C116.399 151.452 115.724 152.22 115.053 152.214C114.383 152.208 113.814 151.752 113.268 151.363C112.642 150.917 111.958 150.517 111.503 149.898C111.047 149.28 110.891 148.353 111.387 147.766C110.456 147.832 109.584 147.215 109.08 146.43C108.575 145.645 108.368 144.712 108.17 143.8C107.878 142.455 107.586 141.11 107.293 139.765C105.557 140.431 103.459 140.026 102.095 138.763C101.257 140.216 98.9913 140.559 97.7612 139.419C97.9116 141.344 96.2896 143.231 94.3638 143.372C94.9558 144.276 93.5696 145.913 92.7111 146.569C91.8526 147.226 90.362 147.042 90.362 147.042C90.362 147.042 89.1064 148.708 88.0486 148.719C87.0098 148.731 85.3374 148.083 85.5374 146.903C85.5388 146.903 84.6643 145.928 84.4942 144.925Z" fill="#263238"/>
<path d="M114.464 138.255C114.412 138.258 114.525 138.613 114.247 139.061C114.109 139.274 113.862 139.488 113.529 139.521C113.202 139.559 112.793 139.414 112.579 139.092L112.405 138.831L112.266 139.116C112.066 139.526 111.577 139.864 111.049 139.858C110.454 139.852 109.931 139.395 109.793 138.903L109.711 138.61L109.498 138.823C109.228 139.093 108.856 139.216 108.535 139.212C108.211 139.21 107.937 139.083 107.742 138.939C107.348 138.639 107.26 138.324 107.215 138.344C107.186 138.342 107.195 138.704 107.604 139.104C107.805 139.293 108.122 139.479 108.523 139.508C108.916 139.538 109.382 139.415 109.746 139.077L109.452 138.998C109.615 139.642 110.25 140.228 111.046 140.244C111.742 140.247 112.344 139.815 112.593 139.272L112.281 139.296C112.609 139.747 113.146 139.895 113.572 139.823C114.016 139.75 114.311 139.439 114.442 139.171C114.707 138.596 114.484 138.228 114.464 138.255Z" fill="#455A64"/>
<path d="M117.05 142.503C117.015 142.484 116.936 142.705 116.626 142.911C116.342 143.106 115.714 143.279 115.225 142.895L115.064 142.769L114.99 142.962C114.841 143.353 114.435 143.73 113.922 143.799C113.422 143.876 112.82 143.578 112.578 143.057L112.436 142.751L112.243 143.032C112.197 143.099 112.137 143.165 112.067 143.221C111.751 143.477 111.278 143.508 110.977 143.296C110.663 143.09 110.5 142.694 110.55 142.368L110.605 142.002L110.291 142.192C109.906 142.424 109.452 142.463 109.088 142.376C108.72 142.289 108.441 142.079 108.256 141.872C107.884 141.443 107.855 141.076 107.806 141.089C107.782 141.081 107.73 141.477 108.095 142.001C108.277 142.253 108.582 142.524 109.014 142.652C109.438 142.78 109.977 142.763 110.467 142.489L110.208 142.312C110.128 142.777 110.329 143.304 110.767 143.607C111.214 143.922 111.867 143.879 112.308 143.522C112.408 143.441 112.496 143.346 112.563 143.246L112.228 143.219C112.557 143.908 113.316 144.266 113.974 144.155C114.635 144.044 115.109 143.563 115.273 143.063L115.038 143.13C115.363 143.37 115.74 143.408 116.033 143.359C116.334 143.314 116.566 143.18 116.726 143.046C117.05 142.763 117.071 142.503 117.05 142.503Z" fill="#455A64"/>
<path d="M90.6294 134.723C90.66 134.738 90.7038 134.472 91.0367 134.195C91.2009 134.064 91.447 133.94 91.7448 133.949C92.0375 133.955 92.3872 134.097 92.6033 134.397L92.7785 134.642L92.8208 134.34C92.896 133.802 93.2895 133.189 93.9435 132.918C94.5779 132.644 95.4897 132.825 95.9992 133.464L96.2182 133.738L96.3102 133.398C96.4781 132.776 96.973 132.204 97.6249 131.935C98.2695 131.654 99.0791 131.755 99.6945 132.185C99.9456 132.356 100.154 132.579 100.31 132.828L100.422 133.007L100.589 132.883C101.411 132.277 102.625 132.38 103.286 133.008C103.969 133.636 104.137 134.642 103.864 135.362L103.762 135.632L104.042 135.57C104.713 135.423 105.372 135.594 105.837 135.892C106.312 136.19 106.596 136.617 106.751 136.986C107.059 137.745 106.924 138.24 106.976 138.237C106.989 138.239 107.031 138.126 107.051 137.9C107.068 137.675 107.06 137.332 106.916 136.922C106.776 136.519 106.49 136.035 105.975 135.684C105.471 135.334 104.748 135.117 103.976 135.267L104.153 135.475C104.487 134.643 104.325 133.499 103.531 132.745C102.741 131.991 101.353 131.856 100.359 132.575L100.638 132.629C100.453 132.331 100.206 132.069 99.9128 131.869C99.1995 131.369 98.2418 131.25 97.4782 131.588C96.7176 131.911 96.1562 132.572 95.9656 133.31L96.2759 133.244C95.6401 132.477 94.5765 132.296 93.8216 132.637C93.0603 132.978 92.642 133.691 92.5792 134.313L92.7967 134.256C92.5091 133.891 92.0886 133.751 91.7426 133.762C91.3878 133.772 91.1163 133.937 90.9484 134.1C90.7768 134.264 90.6958 134.432 90.6564 134.545C90.6199 134.657 90.6199 134.721 90.6294 134.723Z" fill="#455A64"/>
<path d="M104.592 159.699C104.414 159.76 104.888 160.918 104.235 162.147C103.586 163.377 102.299 163.755 102.356 163.92C102.37 163.999 102.724 164.032 103.25 163.832C103.767 163.639 104.446 163.168 104.845 162.417C105.241 161.665 105.225 160.886 105.069 160.396C104.915 159.893 104.668 159.66 104.592 159.699Z" fill="#263238"/>
<path d="M97.4793 180.724L91.6934 197.016L93.03 214.828L96.7143 245.597C96.7143 245.597 110.269 241.02 110.878 241.477C111.487 241.934 104.882 210.281 104.882 210.281L109.661 184.53L109.353 176.946L97.4793 180.724Z" fill="#FF5733"/>
<path d="M97.4787 180.724L91.1146 195.333L78.0045 200.49L64.2002 204.735L66.1654 214.627C66.5676 216.654 68.6006 217.918 70.5965 217.383L82.2275 214.262L93.0629 213.764L98.6963 200.67L97.4787 180.724Z" fill="#FF5733"/>
<path d="M68.7292 200.67L69.6928 199.475C69.6928 199.475 71.4754 199.466 72.439 200.073C73.4026 200.679 74.8962 202.895 75.0889 204.052C75.2817 205.208 75.0889 207.424 75.0889 207.424L68.4883 200.67" fill="#FFC9AF"/>
<path d="M55.918 193.575C55.918 193.774 68.3075 206.922 68.3075 206.922L70.6399 209.225H78.1333L63.6771 193.177L57.4437 192.116L55.918 193.575Z" fill="#263238"/>
<path d="M106.25 222.782C106.238 222.788 106.14 222.63 105.966 222.323C105.78 221.98 105.534 221.529 105.228 220.964C104.601 219.778 103.712 218.05 102.678 215.884C101.651 213.714 100.443 211.118 99.3892 208.111C99.1374 207.355 98.8848 206.577 98.7096 205.752C98.592 205.35 98.5804 204.908 98.5154 204.48C98.5008 204.055 98.484 203.625 98.4825 203.193C98.4621 201.462 98.5066 199.673 98.5738 197.843C98.6592 195.526 98.7797 193.282 98.9169 191.15L98.9242 191.038L99.0264 190.994C100.359 190.409 101.643 189.845 102.87 189.307L102.918 189.637C101.893 189.504 100.908 189.377 99.9637 189.255L99.7214 189.223L99.8433 189.014C101.738 185.753 103.318 183.031 104.448 181.085C104.996 180.162 105.435 179.425 105.757 178.882C105.899 178.651 106.017 178.463 106.112 178.308C106.195 178.18 106.242 178.116 106.249 178.12C106.256 178.124 106.225 178.197 106.156 178.333C106.072 178.494 105.969 178.691 105.843 178.931C105.539 179.484 105.127 180.237 104.612 181.178C103.51 183.141 101.97 185.886 100.124 189.174L100.004 188.933C100.948 189.048 101.935 189.169 102.961 189.293L103.582 189.368L103.009 189.623C101.785 190.167 100.504 190.737 99.1746 191.329L99.2841 191.172C99.1549 193.3 99.0388 195.543 98.9534 197.856C98.8862 199.682 98.8402 201.467 98.8548 203.187C98.8556 203.617 98.8709 204.042 98.8833 204.463C98.9468 204.871 98.9505 205.277 99.0651 205.675C99.2308 206.476 99.4768 207.248 99.7206 207.997C100.747 210.984 101.928 213.588 102.921 215.768C103.923 217.945 104.773 219.689 105.359 220.895C105.639 221.472 105.863 221.934 106.033 222.285C106.186 222.606 106.261 222.776 106.25 222.782Z" fill="#263238"/>
<path d="M63.2361 200.67C63.2361 200.67 61.357 202.028 61.4052 202.799C61.4534 203.57 61.8863 204.389 62.3199 204.534C62.7543 204.678 64.0551 205.353 64.0551 205.353C64.0551 205.353 62.8988 206.461 63.2361 207.617C63.5733 208.773 64.3442 209.062 64.3442 209.062C64.3442 209.062 64.3924 210.556 64.826 211.423C65.2596 212.291 66.6568 212.58 66.6568 212.58C66.6568 212.58 67.4277 214.151 68.1022 214.932C68.7767 215.712 70.1258 215.952 70.1258 215.952C70.1258 215.952 71.8603 216.145 72.7757 215.519C73.6911 214.892 74.7029 214.266 74.7511 212.146C74.7511 212.146 78.8945 210.074 78.9427 209.014C78.9909 207.954 78.5091 207.617 78.5091 207.617L76.4374 208.003C76.4374 208.003 76.1483 206.894 75.522 206.798C74.8956 206.702 67.3306 208.533 67.3306 208.533C67.3306 208.533 72.4859 207.713 72.6304 206.702C72.775 205.69 72.8231 204.823 72.0523 204.63C71.2814 204.437 65.7896 205.026 65.7896 205.026L65.502 204.052C65.502 204.052 66.9926 204.1 66.9926 202.799C66.9926 201.498 66.1736 201.209 66.1736 201.209L63.2361 200.67Z" fill="#FFC9AF"/>
<path d="M106.249 178.121L106.883 183.151L102.987 205.024L106.936 223.915L127.404 229.962L135.456 226.493L132.709 173.474L125.394 168.336L122.584 166.449L112.039 182.406L106.249 178.121Z" fill="#FAFAFA"/>
<path d="M124.796 167.934L129.911 170.218L148.03 172.654L157.804 224.061L159.032 229.963L177.768 258.002C178.628 259.289 178.217 261.033 176.873 261.801L161.523 270.572C160.344 271.173 158.901 270.795 158.17 269.693L138.667 240.302L128.997 227.926C128.997 227.926 123.211 210.416 122.45 202.955C121.688 195.495 122.015 187.503 122.45 183.313C122.915 178.829 124.796 167.934 124.796 167.934Z" fill="#FF5733"/>
<path d="M148.031 172.654C150.421 173.909 152.106 176.185 152.608 178.838C153.76 184.939 157.238 195.584 158.542 206.948C160.365 222.849 156.093 227.754 154.074 230.496C152.1 233.179 139.56 239.071 139.56 239.071L130.166 226.553L140.57 218.028L139.657 195.95C139.657 195.95 136.002 190.926 137.83 183.465C139.656 176.004 144.986 172.197 148.031 172.654Z" fill="#FF5733"/>
<g opacity="0.3">
<path d="M157.725 223.639C156.301 227.499 154.674 230.752 151.356 232.588C147.828 234.541 142.912 237.301 139.56 239.071L142.017 242.879C145.864 242.29 152.957 237.804 155.271 234.676C157.586 231.548 158.285 227.491 157.725 223.639Z" fill="black"/>
</g>
<path d="M139.401 197.122C139.408 197.121 139.431 197.233 139.469 197.452C139.509 197.688 139.562 198.011 139.63 198.425C139.766 199.302 139.962 200.562 140.213 202.176C140.705 205.458 141.412 210.177 142.288 216.012L142.299 216.085L142.242 216.135C138.783 219.184 134.73 222.757 130.278 226.681L130.302 226.45C133.195 230.297 136.375 234.524 139.709 238.958L139.476 238.903C142.6 237.328 145.83 235.622 149.031 233.728C149.94 233.182 150.84 232.632 151.705 232.045C152.573 231.469 153.419 230.849 154.127 230.144C155.414 228.594 156.389 226.758 157.099 224.914C158.524 221.186 158.882 217.283 158.851 213.624C158.799 209.95 158.362 206.474 157.856 203.241C157.351 200.008 156.769 197.012 156.193 194.287C155.041 188.837 153.937 184.464 153.16 181.447C152.767 179.955 152.461 178.789 152.247 177.977C152.146 177.594 152.067 177.294 152.01 177.074C151.958 176.87 151.934 176.765 151.94 176.763C151.94 176.763 151.983 176.863 152.048 177.063C152.114 177.281 152.205 177.577 152.321 177.956C152.557 178.742 152.891 179.906 153.303 181.409C154.125 184.416 155.27 188.781 156.456 194.23C157.05 196.955 157.648 199.951 158.167 203.191C158.689 206.428 159.139 209.918 159.201 213.618C159.242 217.303 158.89 221.253 157.446 225.046C156.717 226.934 155.758 228.766 154.403 230.4C153.646 231.155 152.795 231.774 151.916 232.358C151.043 232.951 150.139 233.504 149.226 234.053C146.009 235.955 142.777 237.66 139.641 239.236L139.503 239.306L139.408 239.181C136.083 234.74 132.912 230.506 130.027 226.653L129.932 226.526L130.051 226.422C134.52 222.517 138.588 218.961 142.061 215.927L142.015 216.049C141.192 210.207 140.525 205.481 140.062 202.196C139.842 200.576 139.671 199.313 139.552 198.434C139.499 198.018 139.459 197.693 139.429 197.455C139.404 197.236 139.395 197.123 139.401 197.122Z" fill="#263238"/>
<path d="M126.167 215.984C126.154 215.982 126.168 215.807 126.207 215.476C126.255 215.107 126.317 214.627 126.395 214.029C126.581 212.731 126.839 210.928 127.155 208.719C127.795 204.236 128.793 198.062 129.764 191.222C130.215 187.911 130.645 184.753 131.037 181.877L131.148 182.065C130.07 181.651 129.037 181.254 128.053 180.876L127.752 180.761L128.021 180.587C129.133 179.867 130.172 179.194 131.132 178.573L131.069 178.713C130.699 176.131 130.397 174.02 130.18 172.508C130.088 171.804 130.015 171.24 129.959 170.813C129.913 170.425 129.896 170.219 129.91 170.217C129.923 170.215 129.969 170.416 130.041 170.8C130.116 171.224 130.215 171.784 130.338 172.484C130.585 173.991 130.929 176.095 131.351 178.67L131.366 178.759L131.289 178.811C130.336 179.442 129.304 180.127 128.201 180.859L128.169 180.569C129.156 180.94 130.191 181.328 131.273 181.734L131.404 181.783L131.386 181.923C131.002 184.8 130.581 187.959 130.14 191.272C129.17 198.113 128.128 204.286 127.421 208.76C127.055 210.961 126.756 212.758 126.541 214.051C126.434 214.644 126.348 215.121 126.282 215.486C126.219 215.816 126.18 215.987 126.167 215.984Z" fill="#263238"/>
<path d="M145.285 173.343C145.331 173.404 144.401 174.043 143.154 175.339C142.525 175.982 141.851 176.815 141.179 177.793C140.528 178.784 139.892 179.926 139.366 181.19C138.856 182.461 138.51 183.722 138.282 184.886C138.077 186.054 137.975 187.122 137.975 188.02C137.957 189.819 138.174 190.926 138.098 190.937C138.072 190.942 138.007 190.669 137.913 190.169C137.861 189.919 137.81 189.611 137.784 189.25C137.754 188.889 137.697 188.478 137.706 188.022C137.672 187.108 137.748 186.019 137.937 184.824C138.151 183.634 138.494 182.343 139.014 181.046C139.551 179.755 140.21 178.594 140.89 177.595C141.591 176.61 142.3 175.779 142.963 175.15C143.277 174.818 143.606 174.565 143.88 174.328C144.151 174.088 144.403 173.905 144.615 173.763C145.032 173.471 145.27 173.322 145.285 173.343Z" fill="#263238"/>
<path d="M92.9503 213.773C92.8451 213.78 92.5101 210.238 92.2005 205.861C91.891 201.482 91.7253 197.929 91.8304 197.921C91.9348 197.914 92.2706 201.456 92.5801 205.834C92.8897 210.211 93.0554 213.766 92.9503 213.773Z" fill="#263238"/>
<path d="M154.666 246L157.478 251.743L170.495 243.412L165.987 238.31L154.666 246Z" fill="#FF5733"/>
<path d="M154.666 246C154.646 245.995 154.92 245.79 155.446 245.414C156.019 245.011 156.79 244.467 157.741 243.797C159.783 242.384 162.599 240.436 165.887 238.163L166.015 238.074L166.12 238.192C167.517 239.767 169.043 241.488 170.638 243.286L170.785 243.453L170.597 243.573C170.417 243.688 170.223 243.812 170.028 243.938C165.186 247.012 160.798 249.797 157.552 251.858L157.422 251.941L157.357 251.803C156.525 250.037 155.843 248.591 155.346 247.536C155.133 247.069 154.96 246.69 154.824 246.39C154.708 246.13 154.653 245.996 154.666 246C154.679 246.003 154.759 246.144 154.899 246.406C155.055 246.704 155.252 247.082 155.495 247.546C156.015 248.568 156.729 249.97 157.601 251.683L157.405 251.628C160.636 249.544 165.004 246.725 169.822 243.616C170.017 243.491 170.212 243.367 170.392 243.252L170.351 243.537C168.764 241.734 167.243 240.007 165.852 238.427L166.085 238.457C162.797 240.65 159.979 242.529 157.936 243.892C156.949 244.538 156.151 245.06 155.556 245.449C155.298 245.613 155.085 245.749 154.908 245.861C154.759 245.955 154.675 246.002 154.666 246Z" fill="#263238"/>
<g opacity="0.3">
<path d="M154.791 246.257C154.846 246.368 157.679 255.072 157.679 255.072L169.819 246.454L168.776 244.511L157.477 251.743L154.791 246.257Z" fill="black"/>
</g>
<g opacity="0.3">
<path d="M130.279 172.617L132.435 179.733L130.279 180.724L133.158 182.141C133.158 182.141 128.62 206.96 128.048 209.225C127.475 211.49 126.78 212.218 126.78 212.218L131.211 181.901L128.112 180.725L131.211 178.693L130.279 172.617Z" fill="black"/>
</g>
<path d="M82.249 211.4C82.1235 211.404 82.3556 209.049 81.4248 206.366C80.5291 203.67 78.9122 201.944 79.0144 201.87C79.0458 201.84 79.4904 202.225 80.0656 202.978C80.6408 203.728 81.3161 204.869 81.7847 206.244C82.249 207.619 82.4089 208.936 82.4082 209.881C82.4104 210.829 82.2928 211.405 82.249 211.4Z" fill="#263238"/>
<g opacity="0.3">
<path d="M91.7481 197.219C89.5837 202.616 90.3648 208.54 92.8979 213.773C92.5073 207.751 92.2759 203.058 91.7481 197.219Z" fill="black"/>
</g>
<path d="M123.247 172.43C123.269 172.445 123.131 172.699 122.862 173.146C122.553 173.663 122.176 174.296 121.732 175.039C120.788 176.642 119.525 178.881 118.279 181.43C117.435 183.145 116.711 184.783 116.123 186.175L116.038 186.376L115.871 186.242C114.674 185.285 113.763 184.389 113.156 183.737C112.55 183.083 112.243 182.677 112.267 182.655C112.295 182.631 112.65 182.992 113.292 183.602C113.934 184.211 114.869 185.064 116.072 185.984L115.821 186.051C116.38 184.64 117.091 182.987 117.938 181.263C119.19 178.701 120.497 176.471 121.504 174.898C122.008 174.113 122.434 173.489 122.739 173.065C123.045 172.642 123.225 172.416 123.247 172.43Z" fill="#263238"/>
<path d="M111.26 182.517C111.356 182.553 110.815 184.205 110.044 186.232L109.947 186.487L109.742 186.308C109.712 186.281 109.68 186.254 109.647 186.225C107.952 184.749 106.865 183.277 106.943 183.217C107.028 183.145 108.23 184.487 109.897 185.939C109.929 185.967 109.961 185.995 109.99 186.021L109.689 186.097C110.466 184.072 111.164 182.48 111.26 182.517Z" fill="#263238"/>
<path d="M113.401 219.857C113.388 219.858 113.369 219.735 113.344 219.5C113.32 219.221 113.29 218.882 113.255 218.472C113.191 217.52 113.105 216.241 113.001 214.687C112.807 211.491 112.577 207.072 112.384 202.188C112.196 197.303 112.085 192.878 112.085 189.673C112.082 188.071 112.105 186.774 112.136 185.878C112.157 185.467 112.174 185.127 112.189 184.848C112.205 184.612 112.22 184.489 112.233 184.489C112.246 184.49 112.257 184.613 112.266 184.849C112.271 185.129 112.277 185.469 112.285 185.88C112.302 186.834 112.326 188.114 112.355 189.669C112.424 192.87 112.577 197.29 112.765 202.173C112.961 207.027 113.139 211.419 113.271 214.673C113.326 216.229 113.371 217.509 113.404 218.463C113.412 218.874 113.417 219.215 113.423 219.495C113.421 219.732 113.415 219.856 113.401 219.857Z" fill="#263238"/>
<path d="M70.6654 318.438L72.5547 336.263C72.5547 336.263 55.0712 344.17 55.0996 347.498L89.7936 345.076L87.9891 317.181L70.6654 318.438Z" fill="#FF5733"/>
<path d="M83.1778 334.011C83.8618 334.147 84.3786 334.87 84.2706 335.559C84.1618 336.248 83.4318 336.78 82.7449 336.656C82.0587 336.531 81.4112 335.683 81.5966 335.01C81.7813 334.338 82.6734 333.76 83.3099 334.046" fill="#E0E0E0"/>
<path d="M89.8687 345.804L89.6972 343.101L56.3464 345.642C56.3464 345.642 54.8491 346.422 55.0995 347.497L89.8687 345.804Z" fill="#E0E0E0"/>
<path d="M71.9801 336.126C71.9976 336.295 72.8503 336.312 73.7212 336.799C74.6059 337.262 75.0863 337.966 75.2374 337.889C75.3914 337.845 75.068 336.85 74.0022 336.279C72.9423 335.699 71.9327 335.972 71.9801 336.126Z" fill="#263238"/>
<path d="M68.446 337.885C68.419 338.052 69.1724 338.289 69.798 338.965C70.4433 339.623 70.6426 340.388 70.8105 340.369C70.9718 340.384 71.0193 339.384 70.2258 338.558C69.4403 337.724 68.4387 337.723 68.446 337.885Z" fill="#263238"/>
<path d="M66.6841 342.384C66.8403 342.409 67.017 341.547 66.5176 340.649C66.0242 339.748 65.2 339.438 65.1379 339.584C65.0518 339.73 65.6008 340.192 66.0001 340.936C66.4162 341.668 66.514 342.379 66.6841 342.384Z" fill="#263238"/>
<path d="M72.0008 332.016C72.0826 332.165 72.8432 331.877 73.8054 331.875C74.7675 331.854 75.5348 332.124 75.6136 331.972C75.7034 331.843 74.9318 331.266 73.7988 331.284C72.6651 331.294 71.9081 331.888 72.0008 332.016Z" fill="#263238"/>
<path d="M64.4869 246.511L48.4189 254.456C48.4189 254.456 34.946 240.793 31.834 241.972L46.1215 273.679L71.665 262.326L64.4869 246.511Z" fill="#FF5733"/>
<path d="M54.2109 263.642C54.3197 264.331 53.8211 265.066 53.1371 265.203C52.4531 265.34 51.7012 264.839 51.5807 264.152C51.4596 263.465 52.0319 262.564 52.7268 262.504C53.4218 262.445 54.2722 263.081 54.2248 263.777" fill="#E0E0E0"/>
<path d="M45.4648 274.003L47.9409 272.906L34.0074 242.499C34.0074 242.499 32.757 241.364 31.835 241.972L45.4648 274.003Z" fill="#E0E0E0"/>
<path d="M48.3486 253.87C48.196 253.945 48.4749 254.75 48.3201 255.736C48.1909 256.727 47.6974 257.422 47.823 257.537C47.9179 257.666 48.7392 257.018 48.9049 255.82C49.0823 254.625 48.4756 253.772 48.3486 253.87Z" fill="#263238"/>
<path d="M45.4752 251.164C45.3095 251.196 45.3482 251.985 44.9299 252.806C44.5364 253.639 43.8882 254.091 43.9641 254.242C44.0057 254.398 44.9606 254.098 45.4606 253.067C45.9702 252.041 45.6241 251.101 45.4752 251.164Z" fill="#263238"/>
<path d="M40.6439 251.069C40.6745 251.224 41.5447 251.092 42.2134 250.312C42.8879 249.537 42.8937 248.656 42.7346 248.648C42.5681 248.618 42.3251 249.294 41.7659 249.925C41.2228 250.57 40.5898 250.908 40.6439 251.069Z" fill="#263238"/>
<path d="M52.2124 252.465C52.1007 252.594 52.6343 253.208 52.9686 254.11C53.322 255.005 53.3351 255.818 53.5037 255.839C53.6563 255.879 53.9301 254.955 53.5205 253.898C53.1198 252.839 52.2992 252.335 52.2124 252.465Z" fill="#263238"/>
<path d="M72.3317 256.617C72.3317 256.617 66.5779 257.789 65.4055 263.969C64.2331 270.148 68.4883 332.34 68.4883 332.34L90.3131 330.591L88.9801 288.684L88.4428 280.236L90.3131 278.802L128.675 272.053L122.838 256.191L116.422 245.027L87.0361 252.356L72.3317 256.617Z" fill="#263238"/>
<path d="M144.56 246.138C144.56 246.138 128.689 223.195 124.05 219.857C120.222 217.103 114.471 217.107 110.918 218.707C107.364 220.306 51.749 247.874 51.749 247.874L59.9024 268.284L112.802 249.952L120.687 262.326L128.025 272.052L148.639 272.213C149.616 272.213 154.041 263.469 154.041 263.469L144.56 246.138Z" fill="#263238"/>
<path d="M65.2016 268.766C65.1951 268.766 65.1914 268.693 65.1914 268.551C65.1936 268.387 65.1958 268.18 65.1987 267.921C65.2053 267.635 65.214 267.293 65.2228 266.895C65.2586 266.492 65.3221 266.027 65.3827 265.503C65.4199 264.975 65.6024 264.411 65.7258 263.78C65.7871 263.464 65.9229 263.153 66.0251 262.82C66.1316 262.486 66.2477 262.142 66.4193 261.806C67.0208 260.436 68.0004 258.947 69.5378 257.805C70.3043 257.239 71.1971 256.758 72.2206 256.49C73.2345 256.318 74.2894 256.139 75.3807 255.955C77.5613 255.59 79.89 255.201 82.3384 254.791C87.2432 253.979 92.6306 253.087 98.286 252.15C103.405 251.311 108.304 250.509 112.773 249.777L112.888 249.758L112.951 249.856C117.192 256.48 120.638 262.24 123.534 266.006C124.94 267.892 126.06 269.396 126.847 270.453C127.222 270.952 127.516 271.345 127.733 271.634C127.822 271.758 127.895 271.858 127.956 271.942C128.005 272.012 128.028 272.049 128.024 272.052C128.02 272.055 127.989 272.024 127.932 271.96C127.865 271.881 127.785 271.787 127.685 271.67C127.458 271.39 127.148 271.009 126.754 270.523C125.95 269.515 124.786 268.034 123.357 266.136C120.406 262.399 116.908 256.645 112.65 250.048L112.829 250.127C108.361 250.867 103.465 251.678 98.3473 252.525C92.6905 253.451 87.3016 254.333 82.3953 255.136C79.944 255.534 77.6145 255.912 75.4318 256.266C74.3449 256.442 73.2944 256.613 72.2841 256.776C71.319 257.021 70.4394 257.48 69.6948 258.022C68.1939 259.116 67.2201 260.557 66.6105 261.894C66.4375 262.222 66.3178 262.559 66.2083 262.885C66.1032 263.212 65.9637 263.516 65.898 263.828C65.7666 264.449 65.5747 265.003 65.5265 265.527C65.4542 266.041 65.3892 266.501 65.333 266.905C65.3097 267.3 65.2892 267.64 65.2724 267.924C65.2542 268.182 65.2389 268.389 65.2272 268.552C65.2177 268.693 65.2082 268.766 65.2016 268.766Z" fill="#455A64"/>
<path d="M120.376 235.797C120.403 235.795 120.431 236.029 120.46 236.454C120.497 236.879 120.487 237.499 120.421 238.26C120.36 239.023 120.197 239.923 119.933 240.9C119.65 241.872 119.255 242.918 118.717 243.958C118.167 244.992 117.531 245.911 116.892 246.696C116.238 247.469 115.59 248.115 114.998 248.599C114.41 249.086 113.905 249.445 113.534 249.656C113.168 249.875 112.96 249.984 112.946 249.961C112.907 249.902 113.708 249.406 114.82 248.396C115.38 247.896 115.995 247.243 116.62 246.474C117.23 245.694 117.843 244.79 118.38 243.78C118.905 242.764 119.3 241.747 119.595 240.801C119.872 239.85 120.06 238.974 120.153 238.228C120.352 236.739 120.305 235.799 120.376 235.797Z" fill="#455A64"/>
<path d="M304.341 308.559L208.816 308.502C197.327 308.496 188.017 299.18 188.02 287.691L188.066 48.2077C188.068 36.7124 197.391 27.3969 208.887 27.4034L304.412 27.4597C315.901 27.467 325.21 36.7832 325.208 48.272L325.161 287.756C325.159 299.25 315.836 308.567 304.341 308.559Z" fill="#263238"/>
<path d="M304.311 35.9299L285.79 35.9189C283.307 35.9175 281.292 38.022 281.293 40.6179L281.291 43.9774C281.291 46.574 279.277 48.6779 276.794 48.6764L240.693 48.6552C238.209 48.6538 236.196 46.5477 236.197 43.9511L236.198 40.5917C236.198 37.995 234.184 35.889 231.701 35.8875L225.187 35.8831L208.977 35.8737C200.926 35.8693 194.397 42.3933 194.396 50.4437L194.35 284.196C194.348 292.243 200.868 298.768 208.914 298.773L304.248 298.828C312.298 298.834 318.827 292.31 318.829 284.258L318.875 50.505C318.877 42.4597 312.357 35.935 304.311 35.9299Z" fill="white"/>
<path d="M318.875 50.5058C318.877 42.4597 312.357 35.935 304.311 35.9299L285.79 35.9189C283.307 35.9175 281.292 38.022 281.293 40.6179L281.291 43.9774C281.291 46.574 279.277 48.6779 276.794 48.6764L240.693 48.6552C238.209 48.6538 236.196 46.5477 236.197 43.9511L236.198 40.5917C236.198 37.995 234.184 35.889 231.701 35.8875L225.187 35.8831L208.977 35.8737C200.926 35.8693 194.397 42.3933 194.396 50.4437L194.35 72.7963H318.873L318.875 50.5058Z" fill="#F5F5F5"/>
<path d="M308.743 58.719C308.744 58.7883 306.512 58.8635 303.76 58.8861C301.007 58.9088 298.775 58.8708 298.774 58.8015C298.774 58.7314 301.005 58.6569 303.758 58.6343C306.51 58.6117 308.743 58.6496 308.743 58.719Z" fill="#263238"/>
<path d="M308.764 61.2696C308.765 61.3389 306.533 61.4141 303.781 61.4367C301.027 61.4594 298.796 61.4214 298.795 61.3521C298.794 61.2827 301.025 61.2075 303.779 61.1849C306.531 61.1623 308.764 61.2002 308.764 61.2696Z" fill="#263238"/>
<path d="M308.785 63.8202C308.786 63.8896 306.554 63.9648 303.802 63.9874C301.049 64.01 298.817 63.9721 298.816 63.902C298.816 63.8327 301.047 63.7575 303.8 63.7348C306.553 63.7129 308.785 63.7509 308.785 63.8202Z" fill="#263238"/>
<path d="M222.003 235.233L222.505 234.175C223.211 234.813 224.418 235.274 225.64 235.274C227.281 235.274 227.987 234.636 227.987 233.808C227.987 231.488 222.234 232.953 222.234 229.426C222.234 227.961 223.374 226.712 225.87 226.712C226.982 226.712 228.135 227.011 228.923 227.553L228.475 228.638C227.647 228.109 226.711 227.865 225.87 227.865C224.256 227.865 223.564 228.543 223.564 229.371C223.564 231.691 229.317 230.239 229.317 233.726C229.317 235.178 228.15 236.426 225.64 236.426C224.187 236.426 222.763 235.938 222.003 235.233Z" fill="#263238"/>
<path d="M230.441 232.723C230.441 230.579 232.029 229.059 234.24 229.059C235.53 229.059 236.601 229.588 237.171 230.592L236.181 231.23C235.719 230.524 235.014 230.199 234.227 230.199C232.816 230.199 231.758 231.19 231.758 232.723C231.758 234.283 232.816 235.26 234.227 235.26C235.014 235.26 235.719 234.934 236.181 234.229L237.171 234.853C236.602 235.856 235.53 236.399 234.24 236.399C232.029 236.399 230.441 234.867 230.441 232.723Z" fill="#263238"/>
<path d="M244.551 231.976V236.318H243.316V235.368C242.882 236.019 242.082 236.399 240.956 236.399C239.328 236.399 238.297 235.531 238.297 234.283C238.297 233.13 239.042 232.179 241.186 232.179H243.248V231.922C243.248 230.823 242.611 230.186 241.322 230.186C240.467 230.186 239.599 230.484 239.042 230.96L238.5 229.982C239.246 229.386 240.318 229.059 241.471 229.059C243.438 229.059 244.551 230.008 244.551 231.976ZM243.248 234.12V233.116H241.24C239.95 233.116 239.585 233.618 239.585 234.228C239.585 234.947 240.181 235.395 241.172 235.395C242.149 235.395 242.922 234.948 243.248 234.12Z" fill="#263238"/>
<path d="M253.79 232.179V236.318H252.488V232.329C252.488 230.918 251.782 230.226 250.547 230.226C249.164 230.226 248.268 231.054 248.268 232.614V236.318H246.966V229.127H248.214V230.212C248.743 229.479 249.665 229.059 250.806 229.059C252.555 229.059 253.79 230.064 253.79 232.179Z" fill="#263238"/>
<path d="M263.029 232.179V236.318H261.727V232.329C261.727 230.918 261.021 230.226 259.786 230.226C258.402 230.226 257.507 231.054 257.507 232.614V236.318H256.205V229.127H257.453V230.212C257.983 229.479 258.905 229.059 260.045 229.059C261.795 229.059 263.029 230.064 263.029 232.179Z" fill="#263238"/>
<path d="M265.212 226.902C265.212 226.427 265.592 226.047 266.094 226.047C266.597 226.047 266.976 226.413 266.976 226.874C266.976 227.363 266.61 227.742 266.094 227.742C265.592 227.743 265.212 227.377 265.212 226.902ZM265.443 229.127H266.746V236.318H265.443V229.127Z" fill="#263238"/>
<path d="M276.054 232.179V236.318H274.751V232.329C274.751 230.918 274.045 230.226 272.811 230.226C271.427 230.226 270.532 231.054 270.532 232.614V236.318H269.229V229.127H270.478V230.212C271.007 229.479 271.929 229.059 273.069 229.059C274.818 229.059 276.054 230.064 276.054 232.179Z" fill="#263238"/>
<path d="M285.387 229.127V235.341C285.387 237.879 284.097 239.031 281.656 239.031C280.339 239.031 279.01 238.665 278.223 237.96L278.847 236.955C279.512 237.525 280.557 237.892 281.615 237.892C283.31 237.892 284.084 237.105 284.084 235.476V234.907C283.46 235.652 282.524 236.018 281.493 236.018C279.417 236.018 277.843 234.607 277.843 232.532C277.843 230.456 279.417 229.059 281.493 229.059C282.564 229.059 283.541 229.452 284.152 230.239V229.127H285.387ZM284.111 232.532C284.111 231.135 283.08 230.199 281.642 230.199C280.19 230.199 279.159 231.135 279.159 232.532C279.159 233.915 280.19 234.88 281.642 234.88C283.08 234.88 284.111 233.916 284.111 232.532Z" fill="#263238"/>
<path d="M287.258 235.463C287.258 234.921 287.678 234.54 288.181 234.54C288.67 234.54 289.077 234.921 289.077 235.463C289.077 236.005 288.67 236.399 288.181 236.399C287.679 236.399 287.258 236.005 287.258 235.463Z" fill="#263238"/>
<path d="M290.338 235.463C290.338 234.921 290.758 234.54 291.261 234.54C291.75 234.54 292.157 234.921 292.157 235.463C292.157 236.005 291.75 236.399 291.261 236.399C290.758 236.399 290.338 236.005 290.338 235.463Z" fill="#263238"/>
<path d="M293.417 235.463C293.417 234.921 293.837 234.54 294.34 234.54C294.829 234.54 295.236 234.921 295.236 235.463C295.236 236.005 294.829 236.399 294.34 236.399C293.837 236.399 293.417 236.005 293.417 235.463Z" fill="#263238"/>
<path d="M214.724 161.239V165.758H219.243V161.239V156.719H214.724V161.239Z" fill="#263238"/>
<path d="M219.243 134.121H214.724V138.641H219.243V134.121Z" fill="#263238"/>
<path d="M247.172 183.883H242.652V188.402H247.172V183.883Z" fill="#263238"/>
<path d="M219.243 143.16V147.68H214.724V152.2H219.243V156.719H223.762H228.282V161.239H232.802V156.719H237.322V152.2V147.68H232.802V152.2H228.282H223.762V147.68V143.16V138.641H219.243V143.16Z" fill="#263238"/>
<path d="M228.282 134.121H223.763V138.641H228.282H232.802V134.121H228.282Z" fill="#263238"/>
<path d="M248.62 170.454H251.049V165.935H248.62H246.192V170.454H248.62Z" fill="#263238"/>
<path d="M237.322 138.641H232.803V143.16H237.322V138.641Z" fill="#263238"/>
<path d="M268.959 156.719H264.439V161.239H268.959V156.719Z" fill="#263238"/>
<path d="M273.478 107.004H268.959V111.524H273.478V107.004Z" fill="#263238"/>
<path d="M246.361 143.16V138.641H250.881V134.121H246.361V129.602H241.842V134.121H237.322V138.641H241.842V143.16V147.68V152.2V156.719H246.361V152.2V147.68H250.881V143.16H246.361Z" fill="#263238"/>
<path d="M268.96 188.356H273.479V183.837H268.96H264.439V188.356H268.96Z" fill="#263238"/>
<path d="M264.439 107.004H259.92V111.524H264.439V107.004Z" fill="#263238"/>
<path d="M263.309 143.16V138.641H258.79V134.121H254.27V138.641V143.16H249.751V147.68H254.27H258.79V143.16H263.309Z" fill="#263238"/>
<path d="M288.819 134.121H284.3V138.641H288.819V134.121Z" fill="#263238"/>
<path d="M241.972 156.719H237.452V161.239H241.972V156.719Z" fill="#263238"/>
<path d="M259.92 129.602V125.083H264.439V120.562H268.959H273.479V116.043H268.959V111.524H264.439V116.043H259.92V120.562H255.4V125.083H250.881V129.602H255.4H259.92Z" fill="#263238"/>
<path d="M259.92 161.239V156.719H264.439V152.2H259.92H255.4V156.719H250.881V161.239H255.4H259.92Z" fill="#263238"/>
<path d="M273.478 179.315V174.795H268.959H264.439V170.275H259.919V174.795H255.4V179.315H250.881H246.36V183.834H250.881H255.4H259.919V179.315H264.439V183.834H268.959V179.315H273.478Z" fill="#263238"/>
<path d="M255.4 111.524V107.004H250.88H246.36V111.524H241.841V116.043H246.36H250.88V111.524H255.4Z" fill="#263238"/>
<path d="M255.4 116.043H250.881V120.562H255.4V116.043Z" fill="#263238"/>
<path d="M266.699 134.121H262.18V138.641V143.16V147.68H266.699H271.219V143.16H266.699V138.641H271.219V134.121H275.738V129.602H271.219V125.083H266.699V129.602V134.121Z" fill="#263238"/>
<path d="M250.88 120.562H246.36V125.082H250.88V120.562Z" fill="#263238"/>
<path d="M264.439 165.758V170.278H268.96H273.479V165.758H277.998H282.518V161.239H277.998H273.479H268.96V165.758H264.439Z" fill="#263238"/>
<path d="M288.819 147.68H284.3V152.199H288.819V147.68Z" fill="#263238"/>
<path d="M273.478 152.2H268.959V156.719H273.478V152.2Z" fill="#263238"/>
<path d="M284.778 138.641H280.258H275.738V143.16H280.258V147.68H284.778V143.16V138.641Z" fill="#263238"/>
<path d="M282.517 152.2H277.998V156.719H282.517V152.2Z" fill="#263238"/>
<path d="M232.802 179.402H246.366V161.234H228.197V165.758H223.763V170.278H228.197V174.797H223.763V179.316H228.197V179.401H228.282V183.836H223.763V188.355V192.875H228.282V188.355H232.802V183.836L232.802 179.402ZM242.886 164.714V176.012H231.588V164.714H242.886Z" fill="#263238"/>
<path d="M291.557 161.239H296.077V156.719H291.557H287.037H282.518V161.239H287.037H291.557Z" fill="#263238"/>
<path d="M291.558 143.16H296.077V138.641V134.121H291.558V138.641V143.16Z" fill="#263238"/>
<path d="M255.569 165.935H251.05V170.454V174.974H255.569V170.454V165.935Z" fill="#263238"/>
<path d="M300.596 161.239H296.076V165.758H300.596V161.239Z" fill="#263238"/>
<path d="M300.596 152.2V147.68H296.076V152.2V156.719H300.596V152.2Z" fill="#263238"/>
<path d="M219.243 183.837H214.724V188.356V192.876H219.243V188.356V183.837Z" fill="#263238"/>
<path d="M300.596 129.602V107.004H277.998V129.602H300.596ZM281.388 126.212V110.394H297.207V126.212H281.388Z" fill="#263238"/>
<path d="M293.816 113.783H284.777V122.822H293.816V113.783Z" fill="#263238"/>
<path d="M300.596 170.278H277.998V192.876H300.596V170.278ZM281.388 189.486V173.668H297.207V189.486H281.388Z" fill="#263238"/>
<path d="M293.816 177.057H284.777V186.097H293.816V177.057Z" fill="#263238"/>
<path d="M214.667 107.004V129.602H237.265V107.004H214.667ZM233.875 110.394V126.212H218.057V110.394H233.875Z" fill="#263238"/>
<path d="M230.486 113.783H221.446V122.822H230.486V113.783Z" fill="#263238"/>
<path d="M208.222 122.758C208.222 117.407 208.222 112.057 208.222 106.707C208.222 105.211 208.473 103.794 209.494 102.616C210.635 101.3 212.2 100.793 213.892 100.793C216.803 100.793 219.713 100.793 222.622 100.793C225.338 100.793 228.054 100.793 230.769 100.793C231.418 100.793 231.419 99.783 230.769 99.783C225.205 99.783 219.641 99.783 214.078 99.783C212.648 99.783 211.28 99.9939 210.054 100.8C208.263 101.977 207.25 103.945 207.212 106.07C207.165 108.711 207.212 111.357 207.212 113.998C207.212 116.918 207.212 119.837 207.212 122.757C207.213 123.407 208.222 123.409 208.222 122.758Z" fill="#FF5733"/>
<path d="M229.291 200.508C223.941 200.508 218.591 200.508 213.241 200.508C211.744 200.508 210.328 200.257 209.15 199.235C207.834 198.094 207.327 196.53 207.327 194.837C207.327 191.927 207.327 189.017 207.327 186.107C207.327 183.391 207.327 180.676 207.327 177.961C207.327 177.311 206.317 177.31 206.317 177.961C206.317 183.524 206.317 189.088 206.317 194.652C206.317 196.082 206.528 197.45 207.334 198.675C208.511 200.466 210.479 201.48 212.605 201.517C215.246 201.564 217.892 201.517 220.533 201.517C223.452 201.517 226.371 201.517 229.291 201.517C229.941 201.517 229.942 200.508 229.291 200.508Z" fill="#FF5733"/>
<path d="M306.556 177.8C306.556 183.15 306.556 188.501 306.556 193.851C306.556 195.347 306.305 196.763 305.283 197.941C304.142 199.257 302.578 199.765 300.885 199.765C297.975 199.765 295.065 199.765 292.155 199.765C289.44 199.765 286.724 199.765 284.009 199.765C283.359 199.765 283.359 200.774 284.009 200.774C289.572 200.774 295.136 200.774 300.7 200.774C302.13 200.774 303.498 200.563 304.724 199.757C306.514 198.58 307.527 196.612 307.565 194.487C307.612 191.845 307.565 189.2 307.565 186.559C307.565 183.64 307.565 180.72 307.565 177.8C307.565 177.151 306.556 177.15 306.556 177.8Z" fill="#FF5733"/>
<path d="M284.3 100.794C289.65 100.794 295 100.794 300.35 100.794C301.847 100.794 303.263 101.045 304.441 102.066C305.757 103.207 306.265 104.772 306.265 106.465C306.265 109.374 306.265 112.285 306.265 115.195C306.265 117.91 306.265 120.626 306.265 123.341C306.265 123.991 307.274 123.991 307.274 123.341C307.274 117.777 307.274 112.213 307.274 106.65C307.274 105.22 307.063 103.852 306.257 102.626C305.081 100.836 303.113 99.8224 300.987 99.7844C298.346 99.7377 295.7 99.7844 293.059 99.7844C290.14 99.7844 287.22 99.7844 284.3 99.7844C283.651 99.7844 283.649 100.794 284.3 100.794Z" fill="#FF5733"/>
<path d="M293.469 275.274H217.333C210.632 275.274 205.2 269.842 205.2 263.141V260.565C205.2 253.865 210.632 248.433 217.333 248.433H293.468C300.169 248.433 305.6 253.865 305.6 260.565V263.141C305.601 269.842 300.169 275.274 293.469 275.274Z" fill="#EBEBEB"/>
<path d="M229.052 259.864L227.8 264H227.072L226.128 260.948L225.232 264H224.508L223.232 259.864H223.916L224.864 263.044H224.928L225.86 259.864H226.42L227.388 263.036H227.452L228.36 259.864H229.052ZM235.819 259.864L234.567 264H233.839L232.895 260.948L231.999 264H231.275L229.999 259.864H230.683L231.631 263.044H231.695L232.627 259.864H233.187L234.155 263.036H234.219L235.127 259.864H235.819ZM242.586 259.864L241.334 264H240.606L239.662 260.948L238.766 264H238.042L236.766 259.864H237.45L238.398 263.044H238.462L239.394 259.864H239.954L240.922 263.036H240.986L241.894 259.864H242.586ZM243.257 264V263.056H244.137V264H243.257ZM246.51 264V259.396H245.394V258.912C245.741 258.912 246.01 258.887 246.202 258.836C246.394 258.785 246.53 258.708 246.61 258.604C246.693 258.5 246.738 258.371 246.746 258.216H247.274V264H246.51ZM249.292 264V259.864H249.996V260.66C250.065 260.463 250.162 260.3 250.288 260.172C250.413 260.041 250.556 259.944 250.716 259.88C250.878 259.816 251.046 259.784 251.22 259.784C251.281 259.784 251.341 259.788 251.4 259.796C251.458 259.804 251.504 259.817 251.536 259.836V260.552C251.496 260.533 251.444 260.521 251.38 260.516C251.318 260.508 251.266 260.504 251.224 260.504C251.058 260.493 250.904 260.504 250.76 260.536C250.616 260.565 250.489 260.617 250.38 260.692C250.27 260.767 250.184 260.865 250.12 260.988C250.058 261.108 250.028 261.255 250.028 261.428V264H249.292ZM254.351 264.08C253.97 264.08 253.637 263.999 253.351 263.836C253.066 263.671 252.845 263.429 252.687 263.112C252.53 262.795 252.451 262.407 252.451 261.948C252.451 261.516 252.525 261.137 252.671 260.812C252.818 260.487 253.033 260.235 253.315 260.056C253.601 259.875 253.946 259.784 254.351 259.784C254.733 259.784 255.063 259.868 255.343 260.036C255.626 260.201 255.845 260.445 255.999 260.768C256.154 261.091 256.231 261.484 256.231 261.948C256.231 262.369 256.159 262.74 256.015 263.06C255.874 263.38 255.663 263.631 255.383 263.812C255.106 263.991 254.762 264.08 254.351 264.08ZM254.351 263.496C254.599 263.496 254.809 263.433 254.979 263.308C255.15 263.183 255.279 263.003 255.367 262.768C255.455 262.533 255.499 262.255 255.499 261.932C255.499 261.636 255.461 261.371 255.383 261.136C255.306 260.899 255.182 260.711 255.011 260.572C254.843 260.433 254.623 260.364 254.351 260.364C254.101 260.364 253.889 260.427 253.715 260.552C253.542 260.675 253.41 260.853 253.319 261.088C253.231 261.323 253.187 261.604 253.187 261.932C253.187 262.223 253.227 262.487 253.307 262.724C253.387 262.961 253.513 263.149 253.683 263.288C253.854 263.427 254.077 263.496 254.351 263.496ZM259.243 264.08C258.862 264.08 258.529 263.999 258.243 263.836C257.958 263.671 257.737 263.429 257.579 263.112C257.422 262.795 257.343 262.407 257.343 261.948C257.343 261.516 257.417 261.137 257.563 260.812C257.71 260.487 257.925 260.235 258.207 260.056C258.493 259.875 258.838 259.784 259.243 259.784C259.625 259.784 259.955 259.868 260.235 260.036C260.518 260.201 260.737 260.445 260.891 260.768C261.046 261.091 261.123 261.484 261.123 261.948C261.123 262.369 261.051 262.74 260.907 263.06C260.766 263.38 260.555 263.631 260.275 263.812C259.998 263.991 259.654 264.08 259.243 264.08ZM259.243 263.496C259.491 263.496 259.701 263.433 259.871 263.308C260.042 263.183 260.171 263.003 260.259 262.768C260.347 262.533 260.391 262.255 260.391 261.932C260.391 261.636 260.353 261.371 260.275 261.136C260.198 260.899 260.074 260.711 259.903 260.572C259.735 260.433 259.515 260.364 259.243 260.364C258.993 260.364 258.781 260.427 258.607 260.552C258.434 260.675 258.302 260.853 258.211 261.088C258.123 261.323 258.079 261.604 258.079 261.932C258.079 262.223 258.119 262.487 258.199 262.724C258.279 262.961 258.405 263.149 258.575 263.288C258.746 263.427 258.969 263.496 259.243 263.496ZM263.936 264.08C263.648 264.08 263.38 264.036 263.132 263.948C262.887 263.857 262.683 263.717 262.52 263.528C262.358 263.336 262.255 263.092 262.212 262.796H262.884C262.922 262.959 262.988 263.095 263.084 263.204C263.183 263.311 263.306 263.392 263.452 263.448C263.599 263.501 263.759 263.528 263.932 263.528C264.21 263.528 264.434 263.476 264.604 263.372C264.775 263.268 264.86 263.108 264.86 262.892C264.86 262.74 264.815 262.619 264.724 262.528C264.636 262.435 264.499 262.367 264.312 262.324L263.456 262.112C263.123 262.032 262.856 261.907 262.656 261.736C262.456 261.565 262.356 261.327 262.356 261.02C262.354 260.777 262.411 260.564 262.528 260.38C262.646 260.196 262.822 260.051 263.056 259.944C263.291 259.837 263.583 259.784 263.932 259.784C264.38 259.784 264.742 259.885 265.016 260.088C265.294 260.288 265.438 260.583 265.448 260.972H264.796C264.77 260.775 264.68 260.619 264.528 260.504C264.379 260.387 264.178 260.328 263.924 260.328C263.66 260.328 263.446 260.381 263.28 260.488C263.115 260.592 263.032 260.755 263.032 260.976C263.032 261.123 263.091 261.239 263.208 261.324C263.326 261.407 263.499 261.476 263.728 261.532L264.556 261.74C264.748 261.791 264.906 261.857 265.028 261.94C265.154 262.023 265.252 262.115 265.324 262.216C265.399 262.317 265.451 262.424 265.48 262.536C265.512 262.645 265.528 262.751 265.528 262.852C265.528 263.105 265.464 263.324 265.336 263.508C265.211 263.689 265.03 263.831 264.792 263.932C264.558 264.031 264.272 264.08 263.936 264.08ZM266.79 264V263.056H267.67V264H266.79ZM270.815 259.784C271.111 259.784 271.377 259.841 271.615 259.956C271.852 260.068 272.045 260.228 272.195 260.436C272.347 260.644 272.441 260.889 272.479 261.172H271.823C271.799 261.028 271.743 260.896 271.655 260.776C271.569 260.656 271.456 260.56 271.315 260.488C271.173 260.416 271.008 260.38 270.819 260.38C270.464 260.38 270.176 260.508 269.955 260.764C269.733 261.02 269.623 261.412 269.623 261.94C269.623 262.417 269.724 262.8 269.927 263.088C270.132 263.373 270.433 263.516 270.831 263.516C271.02 263.516 271.184 263.48 271.323 263.408C271.464 263.333 271.577 263.236 271.663 263.116C271.748 262.993 271.803 262.863 271.827 262.724H272.471C272.436 263.001 272.343 263.241 272.191 263.444C272.039 263.647 271.844 263.804 271.607 263.916C271.372 264.025 271.108 264.08 270.815 264.08C270.444 264.08 270.115 263.999 269.827 263.836C269.541 263.673 269.317 263.433 269.155 263.116C268.992 262.799 268.911 262.409 268.911 261.948C268.911 261.516 268.984 261.139 269.131 260.816C269.28 260.491 269.496 260.237 269.779 260.056C270.064 259.875 270.409 259.784 270.815 259.784ZM275.523 264.08C275.142 264.08 274.809 263.999 274.523 263.836C274.238 263.671 274.017 263.429 273.859 263.112C273.702 262.795 273.623 262.407 273.623 261.948C273.623 261.516 273.697 261.137 273.843 260.812C273.99 260.487 274.205 260.235 274.487 260.056C274.773 259.875 275.118 259.784 275.523 259.784C275.905 259.784 276.235 259.868 276.515 260.036C276.798 260.201 277.017 260.445 277.171 260.768C277.326 261.091 277.403 261.484 277.403 261.948C277.403 262.369 277.331 262.74 277.187 263.06C277.046 263.38 276.835 263.631 276.555 263.812C276.278 263.991 275.934 264.08 275.523 264.08ZM275.523 263.496C275.771 263.496 275.981 263.433 276.151 263.308C276.322 263.183 276.451 263.003 276.539 262.768C276.627 262.533 276.671 262.255 276.671 261.932C276.671 261.636 276.633 261.371 276.555 261.136C276.478 260.899 276.354 260.711 276.183 260.572C276.015 260.433 275.795 260.364 275.523 260.364C275.273 260.364 275.061 260.427 274.887 260.552C274.714 260.675 274.582 260.853 274.491 261.088C274.403 261.323 274.359 261.604 274.359 261.932C274.359 262.223 274.399 262.487 274.479 262.724C274.559 262.961 274.685 263.149 274.855 263.288C275.026 263.427 275.249 263.496 275.523 263.496ZM278.771 264V259.864H279.483V260.464C279.598 260.283 279.755 260.124 279.955 259.988C280.155 259.852 280.415 259.784 280.735 259.784C280.885 259.784 281.037 259.809 281.191 259.86C281.349 259.911 281.493 259.987 281.623 260.088C281.754 260.189 281.855 260.313 281.927 260.46C282.055 260.257 282.229 260.095 282.447 259.972C282.666 259.847 282.913 259.784 283.187 259.784C283.331 259.784 283.482 259.807 283.639 259.852C283.797 259.895 283.942 259.972 284.075 260.084C284.211 260.193 284.322 260.347 284.407 260.544C284.493 260.739 284.535 260.989 284.535 261.296V264H283.791V261.368C283.791 261.117 283.751 260.924 283.671 260.788C283.591 260.649 283.486 260.552 283.355 260.496C283.227 260.44 283.09 260.412 282.943 260.412C282.815 260.412 282.679 260.437 282.535 260.488C282.391 260.539 282.269 260.624 282.167 260.744C282.066 260.864 282.015 261.028 282.015 261.236V264H281.279V261.152C281.279 260.989 281.235 260.853 281.147 260.744C281.062 260.635 280.954 260.552 280.823 260.496C280.695 260.44 280.567 260.412 280.439 260.412C280.298 260.412 280.155 260.44 280.011 260.496C279.87 260.552 279.75 260.641 279.651 260.764C279.555 260.884 279.507 261.041 279.507 261.236V264H278.771Z" fill="#263238"/>
<path d="M295.066 266.902C295.066 267.007 277.848 267.092 256.614 267.092C235.372 267.092 218.158 267.007 218.158 266.902C218.158 266.797 235.372 266.712 256.614 266.712C277.848 266.711 295.066 266.797 295.066 266.902Z" fill="#263238"/>
</g>
</svg>