<svg version="1.2" xmlns="http://www.w3.org/2000/svg" viewBox="0 0 487 376" width="487" height="376">
	<title>NoSalesData-svg</title>
	<style>
		.s0 { fill: #f5f5f5 } 
		.s1 { fill: #e6e6e6 } 
		.s2 { fill: #ff5833 } 
		.s3 { opacity: .1;fill: #000000 } 
		.s4 { opacity: .6;fill: #ffffff } 
		.s5 { opacity: .5;fill: #ffffff } 
		.s6 { fill: #37474f } 
		.s7 { fill: #263238 } 
		.s8 { fill: #000000 } 
		.s9 { fill: #455a64 } 
		.s10 { opacity: .2;fill: #000000 } 
		.s11 { opacity: .2;fill: #ffffff } 
		.s12 { opacity: .4;fill: #ffffff } 
		.s13 { opacity: .8;fill: #ffffff } 
		.s14 { fill: #fafafa } 
		.s15 { opacity: .4;fill: #455a64 } 
		.s16 { fill: #f9b7a2 } 
		.s17 { opacity: .5;fill: #263238 } 
		.s18 { opacity: .7;fill: #000000 } 
		.s19 { opacity: .4;fill: #000000 } 
		.s20 { fill: #8c3f3e } 
	</style>
	<path id="Layer" class="s0" d="m242.1 368.6c130.7 0 236.7-61.2 236.7-136.7 0-75.4-106-136.6-236.7-136.6-130.7 0-236.7 61.2-236.7 136.6 0 75.5 106 136.7 236.7 136.7z"/>
	<path id="Layer" class="s1" d="m420.8 338.5c26 0 47.1-12.2 47.1-27.2 0-15-21.1-27.2-47.1-27.2-26 0-47 12.2-47 27.2 0 15 21 27.2 47 27.2z"/>
	<path id="Layer" class="s1" d="m121.1 258.5l119.8 69.2c1.3 0.6 2.8 1 4.3 1 1.5 0 3-0.4 4.3-1l156.3-90c2.4-1.4 2.4-3.6 0-5l-120.4-69.3c-1.3-0.7-2.8-1-4.2-1-1.5 0-3 0.3-4.3 1l-155.8 90.1c-2.4 1.4-2.4 3.6 0 5z"/>
	<path id="Layer" class="s1" d="m95.6 241.6l-60.4-34.9c-2.4-1.4-2.4-3.6 0-5 15-8.7 64.1-37.2 64.8-37.4 0.6-0.1 49.8 28.7 64.8 37.5 2.4 1.4 2.4 3.6 0 5l-60.5 34.8c-1.3 0.6-2.8 1-4.3 1-1.6 0-3-0.3-4.4-1z"/>
	<path id="Layer" class="s1" d="m303.3 134.2c13.3-7.7 35-7.7 48.3 0 11.3 6.5 13 16.5 5.2 24q0.7 0.2 1.3 0.6l42.1 24.3c1.8 1 1.8 2.7 0 3.7l-2.6 1.6c-1 0.5-2.1 0.7-3.2 0.7-1.1 0-2.2-0.4-3.2-0.9l-39.2-25.7q-0.2-0.2-0.4-0.4c-13.4 7.7-35 7.6-48.2 0-13.3-7.7-13.4-20.2-0.1-27.9z"/>
	<path id="Layer" fill-rule="evenodd" class="s2" d="m306.5 126.7c11.9-6.9 31.2-6.9 43.1 0 5.9 3.5 8.9 8 8.9 12.5v8.3c0 4.4-2.9 9-8.9 12.4-11.9 6.9-31.2 6.9-43.1 0-5.9-3.4-8.9-7.9-8.9-12.4v-8.3c0-4.5 2.9-9 8.9-12.5zm49.1 12.5c0-3.6-2.7-7.1-7.5-9.9-5.3-3.1-12.4-4.8-20.1-4.8-7.6 0-14.8 1.7-20.1 4.8-4.8 2.8-7.4 6.3-7.4 9.9 0 3.6 2.6 7.1 7.4 9.9 5.3 3 12.5 4.7 20.1 4.7 7.6 0 14.8-1.7 20.1-4.7 4.8-2.8 7.5-6.3 7.5-9.9z"/>
	<path id="Layer" class="s3" d="m329 156.8v8.3c-8.1 0.1-16.3-1.6-22.6-5.2-6-3.4-8.9-8-8.9-12.4v-8.3q0-0.4 0-0.9c-0.4 4.8 2.6 9.7 8.9 13.3 6.3 3.7 14.5 5.3 22.6 5.2z"/>
	<path id="Layer" fill-rule="evenodd" class="s4" d="m349.6 151.6c-11.9 6.9-31.2 6.9-43.1 0-11.9-6.9-11.9-18 0-24.9 11.9-6.9 31.2-6.9 43.1 0 11.9 6.9 11.9 18.1 0 24.9zm6-12.4c0-3.6-2.6-7.1-7.5-9.9-5.3-3.1-12.4-4.8-20-4.8-7.7 0-14.8 1.7-20.1 4.8-4.8 2.8-7.5 6.3-7.5 9.9 0 3.6 2.7 7.1 7.5 9.9 5.3 3 12.4 4.7 20.1 4.7 7.6 0 14.7-1.7 20-4.7 4.9-2.8 7.5-6.3 7.5-9.9z"/>
	<path id="Layer" class="s2" d="m355.6 139.2c0 1.4-0.4 2.9-1.2 4.1-1.6-2.4-3.7-4.4-6.3-5.7-5.3-3.1-12.4-4.8-20.1-4.8-7.6 0-14.7 1.7-20 4.8-2.6 1.3-4.8 3.3-6.3 5.7-0.8-1.2-1.2-2.7-1.2-4.1 0-3.6 2.6-7.1 7.5-9.9 5.3-3.1 12.4-4.8 20-4.8 7.7 0 14.8 1.7 20.1 4.8 4.9 2.8 7.5 6.3 7.5 9.9z"/>
	<path id="Layer" class="s5" d="m348.1 133c-5.3-3.1-12.4-4.8-20-4.8-7.7 0-14.8 1.8-20.1 4.8-4 2.3-6.5 5.1-7.2 8 0.7 2.9 3.2 5.7 7.2 8 5.3 3.1 12.5 4.8 20.1 4.8 7.6 0 14.8-1.7 20.1-4.8 4-2.3 6.4-5.1 7.2-8-0.8-2.9-3.3-5.7-7.3-8z"/>
	<path id="Layer" class="s6" d="m348.7 156.9q0.1-1.1 0.6-2.1 0.6-1 1.5-1.6 0.4-0.2 0.8-0.3 0.4 0 0.7 0.1l10.3 5.9q0.3 0.2 0.5 0.6 0.2 0.4 0.1 0.8 0 1.1-0.6 2.1-0.6 1-1.5 1.6-0.3 0.2-0.7 0.3-0.4 0-0.8-0.2l-10.3-5.8q-0.3-0.3-0.5-0.6-0.1-0.4-0.1-0.8z"/>
	<path id="Layer" class="s7" d="m349.3 158.3q-0.3-0.2-0.5-0.6-0.1-0.4-0.1-0.8 0-0.8 0.4-1.6l13.2 7.6q-0.5 0.7-1.2 1.1-0.3 0.2-0.7 0.3-0.4 0-0.8-0.2z"/>
	<path id="Layer" class="s2" d="m395.7 181.5l-35.4-20.5c0.5-0.8 1.1-1.4 1.8-1.9q0.5-0.3 1-0.4 0.5 0 1 0.2l34 18.2z"/>
	<path id="Layer" class="s4" d="m395.7 181.5l-35.4-20.5c0.5-0.8 1.1-1.4 1.8-1.9q0.5-0.3 1-0.4 0.5 0 1 0.2l34 18.2z"/>
	<path id="Layer" class="s2" d="m395.7 181.5l-2.6 4.6-32.9-20.3q-0.4-0.3-0.6-0.8-0.3-0.5-0.2-1 0-0.8 0.2-1.6c0-0.1 0.1-0.2 0.2-0.3q0.1-0.4 0.3-0.7l0.2-0.4z"/>
	<path id="Layer" class="s3" d="m395.7 181.5l-2.6 4.6-32.9-20.3q-0.4-0.3-0.6-0.8-0.3-0.5-0.2-1 0-0.8 0.2-1.6c0-0.1 0.1-0.2 0.2-0.3q0.1-0.4 0.3-0.7l0.2-0.4z"/>
	<path id="Layer" class="s2" d="m395.6 185.8c1.1-0.7 2-1.6 2.6-2.7 0.6-1.1 1-2.3 1.1-3.6 0-2.3-1.7-3.3-3.7-2.1-1 0.7-1.9 1.6-2.6 2.7-0.6 1.1-0.9 2.4-1 3.6 0 2.4 1.6 3.3 3.6 2.1z"/>
	<g id="Layer" style="opacity: .3">
		<path id="Layer" class="s8" d="m395.6 185.8c1.1-0.7 2-1.6 2.6-2.7 0.6-1.1 1-2.3 1.1-3.6 0-2.3-1.7-3.3-3.7-2.1-1 0.7-1.9 1.6-2.6 2.7-0.6 1.1-0.9 2.4-1 3.6 0 2.4 1.6 3.3 3.6 2.1z"/>
	</g>
	<path id="Layer" class="s2" d="m164.9 300.6c-1 0-1.9-0.2-2.8-0.7l-92.3-53.3q-0.6-0.2-1-0.8-0.3-0.5-0.3-1.1 0-0.7 0.3-1.2 0.4-0.5 1-0.8l21.8-12.5 0.4 0.8-21.7 12.6q-0.3 0.2-0.6 0.4-0.2 0.3-0.2 0.7 0 0.3 0.2 0.6 0.3 0.3 0.6 0.4l92.3 53.3c0.7 0.4 1.5 0.6 2.3 0.6 0.8 0 1.7-0.2 2.4-0.6l17.7-10.2 0.5 0.9-17.7 10.2c-0.9 0.5-1.9 0.7-2.9 0.7z"/>
	<path id="Layer" class="s2" d="m164.9 310c-1 0-1.9-0.2-2.8-0.7l-108.6-62.7q-0.6-0.2-0.9-0.7-0.4-0.6-0.4-1.2 0-0.7 0.4-1.2 0.3-0.5 0.9-0.7l29.9-17.3 0.5 0.9-29.9 17.2q-0.4 0.1-0.6 0.4-0.2 0.3-0.2 0.7 0 0.4 0.2 0.7 0.2 0.3 0.6 0.4l108.5 62.6c0.8 0.4 1.6 0.6 2.4 0.6 0.8 0 1.6-0.2 2.3-0.6l25.9-14.9 0.5 0.9-25.9 14.9c-0.8 0.5-1.8 0.7-2.8 0.7z"/>
	<path id="Layer" class="s2" d="m164.9 319.4c-1 0-1.9-0.3-2.8-0.7l-124.8-72.1q-0.6-0.3-0.9-0.8-0.4-0.5-0.4-1.1 0-0.6 0.4-1.2 0.4-0.5 0.9-0.8l38-21.9 0.5 0.9-38 21.9q-0.3 0.1-0.6 0.4-0.2 0.3-0.2 0.7 0 0.4 0.2 0.6 0.3 0.3 0.6 0.4l124.8 72.1c0.7 0.4 1.5 0.5 2.4 0.5 0.8 0 1.6-0.1 2.3-0.5l34-19.6 0.5 0.9-34 19.6c-0.9 0.4-1.9 0.7-2.9 0.7z"/>
	<path id="Layer" class="s7" d="m34.9 183.7l65 37.5 65-37.5-65-37.5z"/>
	<path id="Layer" class="s9" d="m99.9 221.2v17.3c-1.5 0.1-3-0.3-4.3-1l-28.2-16.3-29.9-17.2c-0.7-0.5-1.3-1.2-1.8-1.9-0.5-0.8-0.7-1.7-0.8-2.6v-15.8l63.2 36.5z"/>
	<path id="Layer" class="s6" d="m164.9 183.7v15.8c0 0.9-0.3 1.7-0.7 2.5-0.5 0.8-1.1 1.5-1.9 2l-25.8 14.9-32.2 18.6c-1.4 0.7-2.9 1-4.4 1v-17.3l2-1.2z"/>
	<path id="Layer" class="s2" d="m39 191.2v2.2q0 0.2 0.1 0.4 0.1 0.2 0.3 0.3l0.5 0.3c0.2 0.1 0.5 0 0.5-0.3v-2.1q-0.1-0.2-0.2-0.4-0.1-0.2-0.3-0.3l-0.5-0.3c-0.2-0.1-0.4 0-0.4 0.2z"/>
	<path id="Layer" class="s2" d="m41.2 192.5v2.1q0 0.3 0.1 0.4 0.1 0.2 0.3 0.4l0.5 0.2c0.2 0.2 0.4 0 0.4-0.2v-2.1q0-0.2-0.1-0.4-0.1-0.2-0.3-0.4l-0.5-0.3c-0.2-0.1-0.4 0-0.4 0.3z"/>
	<path id="Layer" class="s2" d="m43.4 193.8v2.1q0 0.2 0.1 0.4 0.1 0.2 0.3 0.3l0.5 0.3c0.2 0.1 0.4 0 0.4-0.2v-2.2q0-0.2-0.1-0.4-0.1-0.2-0.3-0.3l-0.5-0.3c-0.2-0.1-0.4 0-0.4 0.3z"/>
	<path id="Layer" class="s2" d="m45.6 195v2.1q0 0.3 0.1 0.5 0.1 0.2 0.3 0.3l0.5 0.3c0.2 0.1 0.4 0 0.4-0.3v-2.1q0-0.2-0.1-0.4-0.1-0.2-0.3-0.3l-0.5-0.3c-0.2-0.2-0.4 0-0.4 0.2z"/>
	<path id="Layer" class="s7" d="m47.8 196.3v2.1q0 0.2 0.1 0.4 0.1 0.2 0.3 0.4l0.5 0.2c0.2 0.2 0.4 0 0.4-0.2v-2.1q0-0.3-0.1-0.5-0.1-0.2-0.3-0.3l-0.5-0.3c-0.2-0.1-0.4 0-0.4 0.3z"/>
	<path id="Layer" class="s2" d="m50 197.5v2.2q0 0.2 0.1 0.4 0.1 0.2 0.3 0.3l0.5 0.3c0.3 0.1 0.5 0 0.5-0.3v-2.1q-0.1-0.2-0.2-0.4-0.1-0.2-0.3-0.3l-0.5-0.3c-0.3-0.1-0.4 0-0.4 0.2z"/>
	<path id="Layer" class="s7" d="m52.1 198.8v2.1q0.1 0.3 0.2 0.5 0.1 0.2 0.3 0.3l0.5 0.3c0.2 0.1 0.4 0 0.4-0.3v-2.1q0-0.2-0.1-0.4-0.2-0.2-0.3-0.4l-0.5-0.2c-0.3-0.2-0.5-0.1-0.5 0.2z"/>
	<path id="Layer" class="s7" d="m54.3 200.1v2.1q0 0.2 0.2 0.4 0.1 0.2 0.3 0.3l0.4 0.3c0.3 0.2 0.5 0 0.5-0.2v-2.1q0-0.3-0.2-0.5-0.1-0.2-0.3-0.3l-0.4-0.3c-0.3-0.1-0.5 0-0.5 0.3z"/>
	<path id="Layer" class="s7" d="m56.5 201.3v2.1q0 0.3 0.1 0.5 0.2 0.2 0.3 0.3l0.5 0.3c0.3 0.1 0.5 0 0.5-0.3v-2.1q0-0.2-0.2-0.4-0.1-0.2-0.3-0.3l-0.5-0.3c-0.2-0.2-0.4 0-0.4 0.2z"/>
	<path id="Layer" class="s2" d="m58.7 202.6v2.1q0 0.2 0.1 0.4 0.1 0.2 0.3 0.4l0.5 0.3c0.3 0.1 0.4 0 0.4-0.3v-2.1q0-0.3-0.1-0.5-0.1-0.2-0.3-0.3l-0.5-0.3c-0.2-0.1-0.4 0-0.4 0.3z"/>
	<path id="Layer" class="s2" d="m60.9 203.9v2.1q0 0.2 0.1 0.4 0.1 0.2 0.3 0.3l0.5 0.3c0.2 0.2 0.4 0 0.4-0.2v-2.2q0-0.2-0.1-0.4-0.1-0.2-0.3-0.3l-0.5-0.3c-0.2-0.1-0.4 0-0.4 0.3z"/>
	<path id="Layer" class="s7" d="m63.1 205.1v2.1q0 0.3 0.1 0.5 0.1 0.2 0.3 0.3l0.5 0.3c0.2 0.1 0.4 0 0.4-0.3v-2.1q0-0.2-0.1-0.4-0.1-0.2-0.3-0.4l-0.5-0.2c-0.2-0.2-0.4-0.1-0.4 0.2z"/>
	<path id="Layer" class="s7" d="m65.3 206.4v2.1q0 0.2 0.1 0.4 0.1 0.2 0.3 0.3l0.5 0.3c0.2 0.2 0.4 0 0.4-0.2v-2.1q0-0.3-0.1-0.5-0.1-0.2-0.3-0.3l-0.5-0.3c-0.2-0.1-0.4 0-0.4 0.3z"/>
	<path id="Layer" class="s2" d="m67.4 207.6v2.2q0.1 0.2 0.2 0.4 0.1 0.2 0.3 0.3l0.5 0.3c0.2 0.1 0.4 0 0.4-0.3v-2.1q0-0.2-0.1-0.4-0.1-0.2-0.3-0.3l-0.5-0.3c-0.3-0.1-0.5 0-0.5 0.2z"/>
	<path id="Layer" class="s2" d="m69.6 208.9v2.1q0.1 0.2 0.2 0.4 0.1 0.2 0.3 0.3l0.5 0.3c0.2 0.2 0.4 0 0.4-0.2v-2.1q0-0.3-0.1-0.5-0.2-0.2-0.3-0.3l-0.5-0.3c-0.3-0.1-0.5 0-0.5 0.3z"/>
	<path id="Layer" class="s2" d="m71.8 210.2v2.1q0 0.2 0.2 0.4 0.1 0.2 0.3 0.3l0.5 0.3c0.2 0.1 0.4 0 0.4-0.2v-2.2q0-0.2-0.1-0.4-0.2-0.2-0.3-0.3l-0.5-0.3c-0.3-0.1-0.5 0-0.5 0.3z"/>
	<path id="Layer" class="s2" d="m74 211.4v2.2q0 0.2 0.1 0.4 0.1 0.2 0.3 0.3l0.5 0.3c0.3 0.1 0.4 0 0.4-0.3v-2.1q0-0.2-0.1-0.4-0.1-0.2-0.3-0.4l-0.5-0.2c-0.2-0.2-0.4-0.1-0.4 0.2z"/>
	<path id="Layer" class="s2" d="m39 197.5v2.2q0 0.2 0.1 0.4 0.1 0.2 0.3 0.3l0.5 0.3c0.2 0.1 0.5 0 0.5-0.3v-2.1q-0.1-0.2-0.2-0.4-0.1-0.2-0.3-0.3l-0.5-0.3c-0.2-0.1-0.4 0-0.4 0.2z"/>
	<path id="Layer" class="s7" d="m41.2 198.8v2.1q0 0.3 0.1 0.5 0.1 0.2 0.3 0.3l0.5 0.3c0.2 0.1 0.4 0 0.4-0.3v-2.1q0-0.2-0.1-0.4-0.1-0.2-0.3-0.4l-0.5-0.2c-0.2-0.2-0.4-0.1-0.4 0.2z"/>
	<path id="Layer" class="s2" d="m43.4 200.1v2.1q0 0.2 0.1 0.4 0.1 0.2 0.3 0.3l0.5 0.3c0.2 0.2 0.4 0 0.4-0.2v-2.1q0-0.3-0.1-0.5-0.1-0.2-0.3-0.3l-0.5-0.3c-0.2-0.1-0.4 0-0.4 0.3z"/>
	<path id="Layer" class="s7" d="m45.6 201.3v2.1q0 0.3 0.1 0.5 0.1 0.2 0.3 0.3l0.5 0.3c0.2 0.1 0.4 0 0.4-0.3v-2.1q0-0.2-0.1-0.4-0.1-0.2-0.3-0.3l-0.5-0.3c-0.2-0.2-0.4 0-0.4 0.2z"/>
	<path id="Layer" class="s7" d="m47.8 202.6v2.1q0 0.2 0.1 0.4 0.1 0.2 0.3 0.4l0.5 0.3c0.2 0.1 0.4 0 0.4-0.3v-2.1q0-0.3-0.1-0.5-0.1-0.2-0.3-0.3l-0.5-0.3c-0.2-0.1-0.4 0-0.4 0.3z"/>
	<path id="Layer" class="s2" d="m50 203.9v2.1q0 0.2 0.1 0.4 0.1 0.2 0.3 0.3l0.5 0.3c0.3 0.2 0.5 0 0.5-0.2v-2.2q-0.1-0.2-0.2-0.4-0.1-0.2-0.3-0.3l-0.5-0.3c-0.3-0.1-0.4 0-0.4 0.3z"/>
	<path id="Layer" class="s2" d="m52.1 205.1v2.1q0.1 0.3 0.2 0.5 0.1 0.2 0.3 0.3l0.5 0.3c0.2 0.1 0.4 0 0.4-0.3v-2.1q0-0.2-0.1-0.4-0.2-0.2-0.3-0.4l-0.5-0.2c-0.3-0.2-0.5-0.1-0.5 0.2z"/>
	<path id="Layer" class="s2" d="m54.3 206.4v2.1q0 0.2 0.2 0.4 0.1 0.2 0.3 0.3l0.4 0.3c0.3 0.2 0.5 0 0.5-0.2v-2.1q0-0.3-0.1-0.5-0.2-0.2-0.4-0.3l-0.4-0.3c-0.3-0.1-0.5 0-0.5 0.3z"/>
	<path id="Layer" class="s2" d="m56.5 207.6v2.2q0 0.2 0.1 0.4 0.2 0.2 0.3 0.3l0.5 0.3c0.3 0.1 0.5 0 0.5-0.3v-2.1q0-0.2-0.2-0.4-0.1-0.2-0.3-0.3l-0.5-0.3c-0.2-0.1-0.4 0-0.4 0.2z"/>
	<path id="Layer" class="s7" d="m58.7 208.9v2.1q0 0.2 0.1 0.4 0.1 0.2 0.3 0.3l0.5 0.3c0.3 0.2 0.4 0 0.4-0.2v-2.1q0-0.3-0.1-0.5-0.1-0.2-0.3-0.3l-0.5-0.3c-0.2-0.1-0.4 0-0.4 0.3z"/>
	<path id="Layer" class="s7" d="m60.9 210.2v2.1q0 0.2 0.1 0.4 0.1 0.2 0.3 0.3l0.5 0.3c0.2 0.1 0.4 0 0.4-0.2v-2.2q0-0.2-0.1-0.4-0.1-0.2-0.3-0.3l-0.5-0.3c-0.2-0.1-0.4 0-0.4 0.3z"/>
	<path id="Layer" class="s2" d="m63.1 211.4v2.2q0 0.2 0.1 0.4 0.1 0.2 0.3 0.3l0.5 0.3c0.2 0.1 0.4 0 0.4-0.3v-2.1q0-0.2-0.1-0.4-0.1-0.2-0.3-0.4l-0.5-0.2c-0.2-0.2-0.4-0.1-0.4 0.2z"/>
	<path id="Layer" class="s2" d="m65.3 212.7v2.1q0 0.2 0.1 0.4 0.1 0.2 0.3 0.4l0.5 0.2c0.2 0.2 0.4 0 0.4-0.2v-2.1q0-0.3-0.1-0.5-0.1-0.2-0.3-0.3l-0.5-0.3c-0.2-0.1-0.4 0-0.4 0.3z"/>
	<path id="Layer" class="s7" d="m67.4 213.9v2.2q0.1 0.2 0.2 0.4 0.1 0.2 0.3 0.3l0.5 0.3c0.2 0.1 0.4 0 0.4-0.2v-2.2q0-0.2-0.1-0.4-0.1-0.2-0.3-0.3l-0.5-0.3c-0.3-0.1-0.5 0-0.5 0.2z"/>
	<path id="Layer" class="s7" d="m69.6 215.2v2.1q0.1 0.3 0.2 0.5 0.1 0.2 0.3 0.3l0.5 0.3c0.2 0.1 0.4 0 0.4-0.3v-2.1q0-0.2-0.1-0.4-0.2-0.2-0.3-0.3l-0.5-0.3c-0.3-0.2-0.5-0.1-0.5 0.2z"/>
	<path id="Layer" class="s7" d="m71.8 216.5v2.1q0 0.2 0.2 0.4 0.1 0.2 0.3 0.3l0.5 0.3c0.2 0.2 0.4 0 0.4-0.2v-2.1q0-0.3-0.1-0.5-0.2-0.2-0.3-0.3l-0.5-0.3c-0.3-0.1-0.5 0-0.5 0.3z"/>
	<path id="Layer" class="s7" d="m74 217.7v2.2q0 0.2 0.1 0.4 0.1 0.2 0.3 0.3l0.5 0.3c0.3 0.1 0.4 0 0.4-0.3v-2.1q0-0.2-0.1-0.4-0.1-0.2-0.3-0.3l-0.5-0.3c-0.2-0.2-0.4-0.1-0.4 0.2z"/>
	<path id="Layer" class="s2" d="m81.3 218.6l1-0.5q0.4-0.2 0.7-0.2 0.4 0.1 0.7 0.3 0.8 0.5 1.3 1.4 0.5 0.9 0.5 1.8 0.1 0.4-0.1 0.7-0.1 0.4-0.4 0.6l-0.9 0.5-0.2-0.3q-0.3-0.1-0.5-0.2-0.9-0.5-1.4-1.4-0.5-0.9-0.5-1.9 0-0.2 0-0.4z"/>
	<path id="Layer" class="s10" d="m81.3 218.6l1-0.5q0.4-0.2 0.7-0.2 0.4 0.1 0.7 0.3 0.8 0.5 1.3 1.4 0.5 0.9 0.5 1.8 0.1 0.4-0.1 0.7-0.1 0.4-0.4 0.6l-0.9 0.5-0.2-0.3q-0.3-0.1-0.5-0.2-0.9-0.5-1.4-1.4-0.5-0.9-0.5-1.9 0-0.2 0-0.4z"/>
	<path id="Layer" class="s2" d="m82.7 218.7q0.8 0.6 1.3 1.4 0.5 0.9 0.6 1.9c0 1.2-0.9 1.7-1.9 1.1q-0.8-0.6-1.3-1.4-0.5-0.9-0.6-1.9c0-1.2 0.9-1.7 1.9-1.1z"/>
	<path id="Layer" class="s2" d="m89.5 223.3l1-0.5q0.3-0.2 0.7-0.2 0.3 0.1 0.6 0.3 0.9 0.5 1.4 1.4 0.4 0.9 0.5 1.8 0 0.4-0.1 0.7-0.2 0.4-0.4 0.6l-1 0.5-0.1-0.3q-0.3 0-0.6-0.2-0.8-0.5-1.3-1.4-0.5-0.9-0.6-1.9 0-0.2 0.1-0.4z"/>
	<path id="Layer" class="s10" d="m89.5 223.3l1-0.5q0.3-0.2 0.7-0.2 0.3 0.1 0.6 0.3 0.9 0.5 1.4 1.4 0.4 0.9 0.5 1.8 0 0.4-0.1 0.7-0.2 0.4-0.4 0.6l-1 0.5-0.1-0.3q-0.3 0-0.6-0.2-0.8-0.5-1.3-1.4-0.5-0.9-0.6-1.9 0-0.2 0.1-0.4z"/>
	<path id="Layer" class="s2" d="m90.9 223.4q0.8 0.6 1.3 1.4 0.5 0.9 0.5 1.9c0 1.2-0.8 1.7-1.8 1.1q-0.9-0.6-1.4-1.4-0.4-0.9-0.5-1.9c0-1.2 0.8-1.7 1.9-1.1z"/>
	<path id="Layer" class="s7" d="m34.9 155.6l65 37.5 65-37.5-65-37.6z"/>
	<path id="Layer" class="s9" d="m34.9 174.3l65 37.6v-18.8l-65-37.5z"/>
	<path id="Layer" class="s6" d="m99.9 211.9l65-37.6v-18.7l-65 37.5z"/>
	<path id="Layer" class="s2" d="m43.1 183.7v-4.7l56.8 32.9v4.6z"/>
	<path id="Layer" class="s2" d="m160.9 176.7v4.7l-61 35.1v-4.6z"/>
	<path id="Layer" class="s10" d="m160.9 176.7v4.7l-61 35.1v-4.6z"/>
	<path id="Layer" class="s7" d="m39 163.1v2.1q0 0.2 0.1 0.4 0.1 0.2 0.3 0.4l0.5 0.3c0.2 0.1 0.5 0 0.5-0.3v-2.1q-0.1-0.2-0.2-0.4-0.1-0.2-0.3-0.4l-0.5-0.3c-0.2-0.1-0.4 0-0.4 0.3z"/>
	<path id="Layer" class="s2" d="m41.2 164.4v2.1q0 0.2 0.1 0.4 0.1 0.2 0.3 0.3l0.5 0.3c0.2 0.1 0.4 0 0.4-0.2v-2.2q0-0.2-0.1-0.4-0.1-0.2-0.3-0.3l-0.5-0.3c-0.2-0.1-0.4 0-0.4 0.3z"/>
	<path id="Layer" class="s2" d="m43.4 165.6v2.1q0 0.3 0.1 0.5 0.1 0.2 0.3 0.3l0.5 0.3c0.2 0.1 0.4 0 0.4-0.3v-2.1q0-0.2-0.1-0.4-0.1-0.2-0.3-0.3l-0.5-0.3c-0.2-0.2-0.4-0.1-0.4 0.2z"/>
	<path id="Layer" class="s7" d="m45.6 166.9v2.1q0 0.2 0.1 0.4 0.1 0.2 0.3 0.3l0.5 0.3c0.2 0.2 0.4 0 0.4-0.2v-2.1q0-0.3-0.1-0.5-0.1-0.2-0.3-0.3l-0.5-0.3c-0.2-0.1-0.4 0-0.4 0.3z"/>
	<path id="Layer" class="s7" d="m47.8 168.1v2.2q0 0.2 0.1 0.4 0.1 0.2 0.3 0.3l0.5 0.3c0.2 0.1 0.4 0 0.4-0.2v-2.2q0-0.2-0.1-0.4-0.1-0.2-0.3-0.3l-0.5-0.3c-0.2-0.1-0.4 0-0.4 0.2z"/>
	<path id="Layer" class="s2" d="m50 169.4v2.1q0 0.3 0.1 0.5 0.1 0.2 0.3 0.3l0.5 0.3c0.3 0.1 0.5 0 0.5-0.3v-2.1q-0.1-0.2-0.2-0.4-0.1-0.2-0.3-0.4l-0.5-0.2c-0.3-0.2-0.4-0.1-0.4 0.2z"/>
	<path id="Layer" class="s2" d="m52.1 170.7v2.1q0.1 0.2 0.2 0.4 0.1 0.2 0.3 0.3l0.5 0.3c0.2 0.2 0.4 0 0.4-0.2v-2.1q0-0.3-0.1-0.5-0.2-0.2-0.3-0.3l-0.5-0.3c-0.3-0.1-0.5 0-0.5 0.3z"/>
	<path id="Layer" class="s2" d="m54.3 171.9v2.2q0 0.2 0.2 0.4 0.1 0.2 0.3 0.3l0.4 0.3c0.3 0.1 0.5 0 0.5-0.3v-2.1q0-0.2-0.2-0.4-0.1-0.2-0.3-0.3l-0.4-0.3c-0.3-0.2-0.5-0.1-0.5 0.2z"/>
	<path id="Layer" class="s2" d="m56.5 173.2v2.1q0 0.2 0.1 0.4 0.2 0.2 0.3 0.4l0.5 0.2c0.3 0.2 0.5 0 0.5-0.2v-2.1q0-0.2-0.2-0.4-0.1-0.2-0.3-0.3l-0.5-0.3c-0.2-0.2-0.4-0.1-0.4 0.2z"/>
	<path id="Layer" class="s7" d="m58.7 174.4v2.2q0 0.2 0.1 0.4 0.1 0.2 0.3 0.3l0.5 0.3c0.3 0.1 0.4 0 0.4-0.2v-2.2q0-0.2-0.1-0.4-0.1-0.2-0.3-0.3l-0.5-0.3c-0.2-0.1-0.4 0-0.4 0.2z"/>
	<path id="Layer" class="s7" d="m60.9 175.7v2.1q0 0.3 0.1 0.5 0.1 0.2 0.3 0.3l0.5 0.3c0.2 0.1 0.4 0 0.4-0.3v-2.1q0-0.2-0.1-0.4-0.1-0.2-0.3-0.4l-0.5-0.2c-0.2-0.2-0.4-0.1-0.4 0.2z"/>
	<path id="Layer" class="s7" d="m63.1 177v2.1q0 0.3 0.1 0.5 0.1 0.2 0.3 0.3l0.5 0.3c0.2 0.1 0.4 0 0.4-0.3v-2.1q0-0.3-0.1-0.5-0.1-0.2-0.3-0.3l-0.5-0.3c-0.2-0.1-0.4 0-0.4 0.3z"/>
	<path id="Layer" class="s2" d="m65.3 178.2v2.2q0 0.2 0.1 0.4 0.1 0.2 0.3 0.3l0.5 0.3c0.2 0.1 0.4 0 0.4-0.3v-2.1q0-0.2-0.1-0.4-0.1-0.2-0.3-0.3l-0.5-0.3c-0.2-0.1-0.4 0-0.4 0.2z"/>
	<path id="Layer" class="s2" d="m67.4 179.5v2.1q0.1 0.2 0.2 0.4 0.1 0.2 0.3 0.4l0.5 0.2c0.2 0.2 0.4 0 0.4-0.2v-2.1q0-0.2-0.1-0.4-0.1-0.2-0.3-0.4l-0.5-0.3c-0.3-0.1-0.5 0-0.5 0.3z"/>
	<path id="Layer" class="s2" d="m69.6 180.8v2.1q0.1 0.2 0.2 0.4 0.1 0.2 0.3 0.3l0.5 0.3c0.2 0.1 0.4 0 0.4-0.2v-2.2q0-0.2-0.1-0.4-0.2-0.2-0.3-0.3l-0.5-0.3c-0.3-0.1-0.5 0-0.5 0.3z"/>
	<path id="Layer" class="s7" d="m71.8 182v2.1q0 0.2 0.2 0.4 0.1 0.2 0.3 0.4l0.5 0.2c0.2 0.2 0.4 0 0.4-0.2v-2.1q0-0.2-0.1-0.4-0.2-0.2-0.3-0.3l-0.5-0.3c-0.3-0.2-0.5-0.1-0.5 0.2z"/>
	<path id="Layer" class="s2" d="m74 183.3v2.1q0 0.2 0.1 0.4 0.1 0.2 0.3 0.3l0.5 0.3c0.3 0.2 0.4 0 0.4-0.2v-2.1q0-0.3-0.1-0.5-0.1-0.2-0.3-0.3l-0.5-0.3c-0.2-0.1-0.4 0-0.4 0.3z"/>
	<path id="Layer" class="s2" d="m39 169.4v2.1q0 0.3 0.1 0.5 0.1 0.2 0.3 0.3l0.5 0.3c0.2 0.1 0.5 0 0.5-0.3v-2.1q-0.1-0.2-0.2-0.4-0.1-0.2-0.3-0.4l-0.5-0.2c-0.2-0.2-0.4-0.1-0.4 0.2z"/>
	<path id="Layer" class="s2" d="m41.2 170.7v2.1q0 0.2 0.1 0.4 0.1 0.2 0.3 0.3l0.5 0.3c0.2 0.2 0.4 0 0.4-0.2v-2.1q0-0.3-0.1-0.5-0.1-0.2-0.3-0.3l-0.5-0.3c-0.2-0.1-0.4 0-0.4 0.3z"/>
	<path id="Layer" class="s2" d="m43.4 171.9v2.2q0 0.2 0.1 0.4 0.1 0.2 0.3 0.3l0.5 0.3c0.2 0.1 0.4 0 0.4-0.3v-2.1q0-0.2-0.1-0.4-0.1-0.2-0.3-0.3l-0.5-0.3c-0.2-0.2-0.4-0.1-0.4 0.2z"/>
	<path id="Layer" class="s2" d="m45.6 173.2v2.1q0 0.2 0.1 0.4 0.1 0.2 0.3 0.4l0.5 0.2c0.2 0.2 0.4 0 0.4-0.2v-2.1q0-0.2-0.1-0.4-0.1-0.2-0.3-0.3l-0.5-0.3c-0.2-0.2-0.4-0.1-0.4 0.2z"/>
	<path id="Layer" class="s7" d="m47.8 174.4v2.2q0 0.2 0.1 0.4 0.1 0.2 0.3 0.3l0.5 0.3c0.2 0.1 0.4 0 0.4-0.2v-2.2q0-0.2-0.1-0.4-0.1-0.2-0.3-0.3l-0.5-0.3c-0.2-0.1-0.4 0-0.4 0.2z"/>
	<path id="Layer" class="s7" d="m50 175.7v2.1q0 0.3 0.1 0.5 0.1 0.2 0.3 0.3l0.5 0.3c0.3 0.1 0.5 0 0.5-0.3v-2.1q-0.1-0.2-0.2-0.4-0.1-0.2-0.3-0.4l-0.5-0.2c-0.3-0.2-0.4-0.1-0.4 0.2z"/>
	<path id="Layer" class="s2" d="m52.1 177v2.1q0.1 0.3 0.2 0.5 0.1 0.2 0.3 0.3l0.5 0.3c0.2 0.1 0.4 0 0.4-0.3v-2.1q0-0.2-0.1-0.4-0.2-0.2-0.3-0.4l-0.5-0.2c-0.3-0.2-0.5-0.1-0.5 0.2z"/>
	<path id="Layer" class="s2" d="m54.3 178.2v2.2q0 0.2 0.2 0.4 0.1 0.2 0.3 0.3l0.4 0.3c0.3 0.1 0.5 0 0.5-0.3v-2.1q0-0.2-0.1-0.4-0.2-0.2-0.4-0.3l-0.4-0.3c-0.3-0.1-0.5 0-0.5 0.2z"/>
	<path id="Layer" class="s2" d="m56.5 179.5v2.1q0 0.2 0.1 0.4 0.2 0.2 0.3 0.4l0.5 0.2c0.3 0.2 0.5 0 0.5-0.2v-2.1q0-0.2-0.2-0.4-0.1-0.2-0.3-0.4l-0.5-0.3c-0.2-0.1-0.4 0-0.4 0.3z"/>
	<path id="Layer" class="s2" d="m58.7 180.8v2.1q0 0.2 0.1 0.4 0.1 0.2 0.3 0.3l0.5 0.3c0.3 0.1 0.4 0 0.4-0.2v-2.2q0-0.2-0.1-0.4-0.1-0.2-0.3-0.3l-0.5-0.3c-0.2-0.1-0.4 0-0.4 0.3z"/>
	<path id="Layer" class="s2" d="m60.9 182v2.1q0 0.2 0.1 0.4 0.1 0.2 0.3 0.4l0.5 0.2c0.2 0.2 0.4 0 0.4-0.2v-2.1q0-0.2-0.1-0.4-0.1-0.2-0.3-0.3l-0.5-0.3c-0.2-0.2-0.4-0.1-0.4 0.2z"/>
	<path id="Layer" class="s7" d="m63.1 183.3v2.1q0 0.2 0.1 0.4 0.1 0.2 0.3 0.3l0.5 0.3c0.2 0.2 0.4 0 0.4-0.2v-2.1q0-0.3-0.1-0.5-0.1-0.2-0.3-0.3l-0.5-0.3c-0.2-0.1-0.4 0-0.4 0.3z"/>
	<path id="Layer" class="s2" d="m65.3 184.5v2.2q0 0.2 0.1 0.4 0.1 0.2 0.3 0.3l0.5 0.3c0.2 0.1 0.4 0 0.4-0.3v-2.1q0-0.2-0.1-0.4-0.1-0.2-0.3-0.3l-0.5-0.3c-0.2-0.2-0.4 0-0.4 0.2z"/>
	<path id="Layer" class="s2" d="m67.4 185.8v2.1q0.1 0.3 0.2 0.5 0.1 0.2 0.3 0.3l0.5 0.3c0.2 0.1 0.4 0 0.4-0.3v-2.1q0-0.2-0.1-0.4-0.1-0.2-0.3-0.4l-0.5-0.2q-0.1-0.1-0.2-0.1 0 0-0.1 0-0.1 0.1-0.1 0.1-0.1 0.1-0.1 0.2z"/>
	<path id="Layer" class="s2" d="m69.6 187.1v2.1q0.1 0.2 0.2 0.4 0.1 0.2 0.3 0.3l0.5 0.3c0.2 0.2 0.4 0 0.4-0.2v-2.1q0-0.3-0.1-0.5-0.1-0.2-0.3-0.3l-0.5-0.3c-0.3-0.1-0.5 0-0.5 0.3z"/>
	<path id="Layer" class="s2" d="m71.8 188.3v2.1q0 0.3 0.2 0.5 0.1 0.2 0.3 0.3l0.5 0.3c0.2 0.1 0.4 0 0.4-0.3v-2.1q0-0.2-0.1-0.4-0.2-0.2-0.3-0.3l-0.5-0.3c-0.3-0.2-0.5 0-0.5 0.2z"/>
	<path id="Layer" class="s2" d="m74 189.6v2.1q0 0.2 0.1 0.4 0.1 0.2 0.3 0.4l0.5 0.2c0.3 0.2 0.4 0 0.4-0.2v-2.1q0-0.3-0.1-0.5-0.1-0.2-0.3-0.3l-0.5-0.3c-0.2-0.1-0.4 0-0.4 0.3z"/>
	<path id="Layer" class="s2" d="m81.3 190.5l1-0.6q0.4-0.1 0.7-0.1 0.4 0 0.7 0.2 0.8 0.6 1.3 1.4 0.5 0.9 0.5 1.9 0.1 0.3-0.1 0.7-0.1 0.3-0.4 0.5l-0.9 0.5-0.2-0.2q-0.3-0.1-0.5-0.2-0.9-0.6-1.4-1.5-0.5-0.8-0.5-1.8 0-0.3 0-0.5z"/>
	<path id="Layer" class="s10" d="m81.3 190.5l1-0.6q0.4-0.1 0.7-0.1 0.4 0 0.7 0.2 0.8 0.6 1.3 1.4 0.5 0.9 0.5 1.9 0.1 0.3-0.1 0.7-0.1 0.3-0.4 0.5l-0.9 0.5-0.2-0.2q-0.3-0.1-0.5-0.2-0.9-0.6-1.4-1.5-0.5-0.8-0.5-1.8 0-0.3 0-0.5z"/>
	<path id="Layer" class="s2" d="m82.7 190.6q0.8 0.5 1.3 1.4 0.5 0.8 0.6 1.8c0 1.2-0.9 1.7-1.9 1.1q-0.8-0.5-1.3-1.4-0.5-0.8-0.6-1.8c0-1.2 0.9-1.7 1.9-1.1z"/>
	<path id="Layer" class="s2" d="m89.5 195.2l1-0.6q0.3-0.1 0.7-0.1 0.3 0 0.6 0.3 0.8 0.5 1.3 1.4 0.5 0.8 0.6 1.8 0 0.4-0.1 0.7-0.2 0.3-0.4 0.5l-1 0.6-0.1-0.3q-0.3-0.1-0.6-0.2-0.8-0.6-1.3-1.4-0.5-0.9-0.6-1.9 0-0.2 0.1-0.5z"/>
	<path id="Layer" class="s10" d="m89.5 195.2l1-0.6q0.3-0.1 0.7-0.1 0.3 0 0.6 0.3 0.8 0.5 1.3 1.4 0.5 0.8 0.6 1.8 0 0.4-0.1 0.7-0.2 0.3-0.4 0.5l-1 0.6-0.1-0.3q-0.3-0.1-0.6-0.2-0.8-0.6-1.3-1.4-0.5-0.9-0.6-1.9 0-0.2 0.1-0.5z"/>
	<path id="Layer" class="s2" d="m90.9 195.3q0.8 0.5 1.3 1.4 0.5 0.9 0.5 1.9c0 1.2-0.8 1.6-1.8 1q-0.9-0.5-1.4-1.4-0.4-0.8-0.5-1.8c0-1.2 0.8-1.7 1.9-1.1z"/>
	<path id="Layer" class="s7" d="m34.9 127.4l65 37.5 65-37.5-65-37.5z"/>
	<path id="Layer" class="s9" d="m34.9 146.2l65 37.5v-18.8l-65-37.5z"/>
	<path id="Layer" class="s6" d="m99.9 183.7l65-37.5v-18.8l-65 37.5z"/>
	<path id="Layer" class="s2" d="m43.1 155.6v-4.7l56.8 32.8v4.7z"/>
	<path id="Layer" class="s2" d="m160.9 148.5v4.7l-61 35.2v-4.7z"/>
	<path id="Layer" class="s10" d="m160.9 148.5v4.7l-61 35.2v-4.7z"/>
	<path id="Layer" class="s2" d="m39 135v2.1q0 0.3 0.1 0.5 0.1 0.2 0.3 0.3l0.5 0.3c0.2 0.1 0.5 0 0.5-0.3v-2.1q-0.1-0.2-0.2-0.4-0.1-0.2-0.3-0.4l-0.5-0.2c-0.2-0.2-0.4-0.1-0.4 0.2z"/>
	<path id="Layer" class="s2" d="m41.2 136.2v2.1q0 0.3 0.1 0.5 0.1 0.2 0.3 0.3l0.5 0.3c0.2 0.1 0.4 0 0.4-0.3v-2.1q0-0.2-0.1-0.4-0.1-0.2-0.3-0.3l-0.5-0.3c-0.2-0.2-0.4-0.1-0.4 0.2z"/>
	<path id="Layer" class="s2" d="m43.4 137.5v2.1q0 0.2 0.1 0.4 0.1 0.2 0.3 0.3l0.5 0.3c0.2 0.2 0.4 0 0.4-0.2v-2.1q0-0.3-0.1-0.5-0.1-0.2-0.3-0.3l-0.5-0.3c-0.2-0.1-0.4 0-0.4 0.3z"/>
	<path id="Layer" class="s7" d="m45.6 138.7v2.2q0 0.2 0.1 0.4 0.1 0.2 0.3 0.3l0.5 0.3c0.2 0.1 0.4 0 0.4-0.3v-2.1q0-0.2-0.1-0.4-0.1-0.2-0.3-0.3l-0.5-0.3c-0.2-0.1-0.4 0-0.4 0.2z"/>
	<path id="Layer" class="s7" d="m47.8 140v2.1q0 0.2 0.1 0.4 0.1 0.2 0.3 0.4l0.5 0.3c0.2 0.1 0.4 0 0.4-0.3v-2.1q0-0.2-0.1-0.4-0.1-0.2-0.3-0.4l-0.5-0.3c-0.2-0.1-0.4 0-0.4 0.3z"/>
	<path id="Layer" class="s2" d="m50 141.3v2.1q0 0.2 0.1 0.4 0.1 0.2 0.3 0.3l0.5 0.3c0.3 0.1 0.5 0 0.5-0.2v-2.2q-0.1-0.2-0.2-0.4-0.1-0.2-0.3-0.4l-0.5-0.2c-0.3-0.1-0.4 0-0.4 0.3z"/>
	<path id="Layer" class="s2" d="m52.1 142.5v2.2q0.1 0.2 0.2 0.4 0.1 0.2 0.3 0.3l0.5 0.3c0.2 0.1 0.4 0 0.4-0.3v-2.1q0-0.2-0.1-0.4-0.2-0.2-0.3-0.3l-0.5-0.3c-0.3-0.2-0.5-0.1-0.5 0.2z"/>
	<path id="Layer" class="s2" d="m54.3 143.8v2.1q0 0.2 0.2 0.4 0.1 0.2 0.3 0.4l0.4 0.2c0.3 0.2 0.5 0 0.5-0.2v-2.1q0-0.3-0.2-0.5-0.1-0.2-0.3-0.3l-0.4-0.3c-0.3-0.1-0.5 0-0.5 0.3z"/>
	<path id="Layer" class="s2" d="m56.5 145.1v2.1q0 0.2 0.1 0.4 0.2 0.2 0.3 0.3l0.5 0.3c0.3 0.1 0.5 0 0.5-0.3v-2.1q0-0.2-0.2-0.4-0.1-0.2-0.3-0.3l-0.5-0.3c-0.2-0.1-0.4 0-0.4 0.3z"/>
	<path id="Layer" class="s2" d="m58.7 146.3v2.1q0 0.3 0.1 0.5 0.1 0.2 0.3 0.3l0.5 0.3c0.3 0.1 0.4 0 0.4-0.3v-2.1q0-0.2-0.1-0.4-0.1-0.2-0.3-0.4l-0.5-0.2c-0.2-0.2-0.4-0.1-0.4 0.2z"/>
	<path id="Layer" class="s2" d="m60.9 147.6v2.1q0 0.2 0.1 0.4 0.1 0.2 0.3 0.3l0.5 0.3c0.2 0.2 0.4 0 0.4-0.2v-2.1q0-0.3-0.1-0.5-0.1-0.2-0.3-0.3l-0.5-0.3c-0.2-0.1-0.4 0-0.4 0.3z"/>
	<path id="Layer" class="s2" d="m63.1 148.8v2.2q0 0.2 0.1 0.4 0.1 0.2 0.3 0.3l0.5 0.3c0.2 0.1 0.4 0 0.4-0.3v-2.1q0-0.2-0.1-0.4-0.1-0.2-0.3-0.3l-0.5-0.3c-0.2-0.2-0.4-0.1-0.4 0.2z"/>
	<path id="Layer" class="s7" d="m65.3 150.1v2.1q0 0.2 0.1 0.4 0.1 0.2 0.3 0.4l0.5 0.3c0.2 0.1 0.4 0 0.4-0.3v-2.1q0-0.3-0.1-0.5-0.1-0.2-0.3-0.3l-0.5-0.3c-0.2-0.1-0.4 0-0.4 0.3z"/>
	<path id="Layer" class="s2" d="m67.4 151.3v2.2q0.1 0.2 0.2 0.4 0.1 0.2 0.3 0.3l0.5 0.3c0.2 0.1 0.4 0 0.4-0.2v-2.2q0-0.2-0.1-0.4-0.1-0.2-0.3-0.3l-0.5-0.3q-0.1-0.1-0.2-0.1 0 0-0.1 0.1-0.1 0-0.1 0.1-0.1 0.1-0.1 0.1z"/>
	<path id="Layer" class="s2" d="m69.6 152.6v2.1q0.1 0.3 0.2 0.5 0.1 0.2 0.3 0.3l0.5 0.3c0.2 0.1 0.4 0 0.4-0.3v-2.1q0-0.2-0.1-0.4-0.1-0.2-0.3-0.3l-0.5-0.3c-0.3-0.2-0.5-0.1-0.5 0.2z"/>
	<path id="Layer" class="s2" d="m71.8 153.9v2.1q0 0.2 0.2 0.4 0.1 0.2 0.3 0.3l0.5 0.3c0.2 0.2 0.4 0 0.4-0.2v-2.1q0-0.3-0.1-0.5-0.2-0.2-0.3-0.3l-0.5-0.3c-0.3-0.1-0.5 0-0.5 0.3z"/>
	<path id="Layer" class="s2" d="m74 155.1v2.2q0 0.2 0.1 0.4 0.1 0.2 0.3 0.3l0.5 0.3c0.3 0.1 0.4 0 0.4-0.3v-2.1q0-0.2-0.1-0.4-0.1-0.2-0.3-0.3l-0.5-0.3c-0.2-0.1-0.4 0-0.4 0.2z"/>
	<path id="Layer" class="s2" d="m39 141.3v2.1q0 0.2 0.1 0.4 0.1 0.2 0.3 0.3l0.5 0.3q0.1 0.1 0.2 0.1 0 0 0.1-0.1 0.1 0 0.1-0.1 0.1 0 0.1-0.1v-2.2q-0.1-0.2-0.2-0.4-0.1-0.2-0.3-0.4l-0.5-0.2c-0.2-0.1-0.4 0-0.4 0.3z"/>
	<path id="Layer" class="s7" d="m41.2 142.5v2.2q0 0.2 0.1 0.4 0.1 0.2 0.3 0.3l0.5 0.3q0.1 0 0.2 0 0 0 0.1 0 0.1 0 0.1-0.1 0.1-0.1 0-0.2v-2.1q0-0.2-0.1-0.4-0.1-0.2-0.3-0.3l-0.5-0.3q0-0.1-0.1-0.1-0.1 0-0.2 0-0.1 0.1-0.1 0.2 0 0 0 0.1z"/>
	<path id="Layer" class="s7" d="m43.4 143.8v2.1q0 0.2 0.1 0.4 0.1 0.2 0.3 0.4l0.5 0.2c0.2 0.2 0.4 0 0.4-0.2v-2.1q0-0.3-0.1-0.5-0.1-0.2-0.3-0.3l-0.5-0.3q-0.1 0-0.1 0-0.1 0-0.2 0-0.1 0.1-0.1 0.1 0 0.1 0 0.2z"/>
	<path id="Layer" class="s2" d="m45.6 145.1v2.1q0 0.2 0.1 0.4 0.1 0.2 0.3 0.3l0.5 0.3c0.2 0.1 0.4 0 0.4-0.3v-2.1q0-0.2-0.1-0.4-0.1-0.2-0.3-0.3l-0.5-0.3c-0.2-0.1-0.4 0-0.4 0.3z"/>
	<path id="Layer" class="s2" d="m47.8 146.3v2.1q0 0.3 0.1 0.5 0.1 0.2 0.3 0.3l0.5 0.3c0.2 0.1 0.4 0 0.4-0.3v-2.1q0-0.2-0.1-0.4-0.1-0.2-0.3-0.4l-0.5-0.2c-0.2-0.2-0.4-0.1-0.4 0.2z"/>
	<path id="Layer" class="s7" d="m50 147.6v2.1q0 0.2 0.1 0.4 0.1 0.2 0.3 0.3l0.5 0.3c0.3 0.2 0.5 0 0.5-0.2v-2.1q-0.1-0.3-0.2-0.5-0.1-0.2-0.3-0.3l-0.5-0.3c-0.3-0.1-0.4 0-0.4 0.3z"/>
	<path id="Layer" class="s2" d="m52.1 148.8v2.2q0 0.2 0.2 0.4 0.1 0.2 0.3 0.3l0.5 0.3q0 0.1 0.1 0.1 0.1 0 0.2 0 0-0.1 0.1-0.2 0 0 0-0.1v-2.1q0-0.3-0.1-0.5-0.2-0.2-0.3-0.3l-0.5-0.3c-0.3-0.2-0.5-0.1-0.5 0.2z"/>
	<path id="Layer" class="s2" d="m54.3 150.1v2.1q0 0.2 0.2 0.4 0.1 0.2 0.3 0.4l0.4 0.3q0.1 0 0.2 0 0.1 0 0.1 0 0.1-0.1 0.2-0.1 0-0.1 0-0.2v-2.1q0-0.3-0.2-0.5-0.1-0.2-0.3-0.3l-0.4-0.3c-0.3-0.1-0.5 0-0.5 0.3z"/>
	<path id="Layer" class="s2" d="m56.5 151.3v2.2q0 0.2 0.1 0.4 0.2 0.2 0.3 0.3l0.5 0.3c0.3 0.1 0.5 0 0.5-0.2v-2.2q0-0.2-0.2-0.4-0.1-0.2-0.3-0.3l-0.5-0.3c-0.2-0.1-0.4 0-0.4 0.2z"/>
	<path id="Layer" class="s2" d="m58.7 152.6v2.1q0 0.3 0.1 0.5 0.1 0.2 0.3 0.3l0.5 0.3c0.3 0.1 0.4 0 0.4-0.3v-2.1q0-0.2-0.1-0.4-0.1-0.2-0.3-0.3l-0.5-0.3c-0.2-0.2-0.4-0.1-0.4 0.2z"/>
	<path id="Layer" class="s7" d="m60.9 153.9v2.1q0 0.2 0.1 0.4 0.1 0.2 0.3 0.3l0.5 0.3c0.2 0.2 0.4 0 0.4-0.2v-2.1q0-0.3-0.1-0.5-0.1-0.2-0.3-0.3l-0.5-0.3c-0.2-0.1-0.4 0-0.4 0.3z"/>
	<path id="Layer" class="s7" d="m63.1 155.1v2.2q0 0.2 0.1 0.4 0.1 0.2 0.3 0.3l0.5 0.3c0.2 0.1 0.4 0 0.4-0.3v-2.1q0-0.2-0.1-0.4-0.1-0.2-0.3-0.3l-0.5-0.3c-0.2-0.1-0.4 0-0.4 0.2z"/>
	<path id="Layer" class="s2" d="m65.3 156.4v2.1q0 0.2 0.1 0.4 0.1 0.2 0.3 0.4l0.5 0.3q0.1 0 0.1 0 0.1 0 0.2 0 0.1-0.1 0.1-0.1 0-0.1 0-0.2v-2.1q0-0.2-0.1-0.4-0.1-0.2-0.3-0.4l-0.5-0.2c-0.2-0.2-0.4-0.1-0.4 0.2z"/>
	<path id="Layer" class="s2" d="m67.4 157.7v2.1q0.1 0.2 0.2 0.4 0.1 0.2 0.3 0.3l0.5 0.3c0.2 0.1 0.4 0 0.4-0.2v-2.2q0-0.2-0.1-0.4-0.1-0.2-0.3-0.3l-0.5-0.3c-0.3-0.1-0.5 0-0.5 0.3z"/>
	<path id="Layer" class="s2" d="m69.6 158.9v2.2q0.1 0.2 0.2 0.4 0.1 0.2 0.3 0.3l0.5 0.3q0 0 0.1 0 0.1 0 0.2 0 0 0 0.1-0.1 0-0.1 0-0.2v-2.1q0-0.2-0.1-0.4-0.2-0.2-0.3-0.4l-0.5-0.2q-0.1-0.1-0.2-0.1-0.1 0-0.1 0-0.1 0.1-0.1 0.2-0.1 0-0.1 0.1z"/>
	<path id="Layer" class="s7" d="m71.8 160.2v2.1q0 0.2 0.2 0.4 0.1 0.2 0.3 0.4l0.5 0.2c0.2 0.2 0.4 0 0.4-0.2v-2.1q0-0.2-0.1-0.4-0.2-0.2-0.3-0.3l-0.5-0.3c-0.3-0.2-0.5-0.1-0.5 0.2z"/>
	<path id="Layer" class="s2" d="m74 161.4v2.2q0 0.2 0.1 0.4 0.1 0.2 0.3 0.3l0.5 0.3c0.3 0.1 0.4 0 0.4-0.3v-2.1q0-0.2-0.1-0.4-0.1-0.2-0.3-0.3l-0.5-0.3c-0.2-0.1-0.4 0-0.4 0.2z"/>
	<path id="Layer" class="s2" d="m81.3 162.3l1-0.5q0.4-0.2 0.7-0.2 0.4 0.1 0.7 0.3 0.8 0.5 1.3 1.4 0.5 0.9 0.5 1.8 0.1 0.4-0.1 0.7-0.1 0.4-0.4 0.6l-0.9 0.5-0.2-0.3q-0.3 0-0.5-0.2-0.9-0.5-1.4-1.4-0.5-0.9-0.5-1.9 0-0.2 0-0.4z"/>
	<path id="Layer" class="s10" d="m81.3 162.3l1-0.5q0.4-0.2 0.7-0.2 0.4 0.1 0.7 0.3 0.8 0.5 1.3 1.4 0.5 0.9 0.5 1.8 0.1 0.4-0.1 0.7-0.1 0.4-0.4 0.6l-0.9 0.5-0.2-0.3q-0.3 0-0.5-0.2-0.9-0.5-1.4-1.4-0.5-0.9-0.5-1.9 0-0.2 0-0.4z"/>
	<path id="Layer" class="s2" d="m82.7 162.4q0.8 0.6 1.3 1.4 0.5 0.9 0.6 1.9c0 1.2-0.9 1.7-1.9 1.1q-0.8-0.6-1.3-1.4-0.5-0.9-0.6-1.9c0-1.2 0.9-1.7 1.9-1.1z"/>
	<path id="Layer" class="s2" d="m89.5 167.1l1-0.6q0.3-0.2 0.7-0.1 0.3 0 0.6 0.2 0.9 0.6 1.4 1.4 0.4 0.9 0.5 1.9 0 0.3-0.1 0.7-0.2 0.3-0.4 0.5l-1 0.5-0.1-0.3q-0.3 0-0.6-0.2-0.8-0.5-1.3-1.4-0.5-0.8-0.6-1.8 0-0.3 0.1-0.5z"/>
	<path id="Layer" class="s10" d="m89.5 167.1l1-0.6q0.3-0.2 0.7-0.1 0.3 0 0.6 0.2 0.9 0.6 1.4 1.4 0.4 0.9 0.5 1.9 0 0.3-0.1 0.7-0.2 0.3-0.4 0.5l-1 0.5-0.1-0.3q-0.3 0-0.6-0.2-0.8-0.5-1.3-1.4-0.5-0.8-0.6-1.8 0-0.3 0.1-0.5z"/>
	<path id="Layer" class="s2" d="m90.9 167.2q0.8 0.5 1.3 1.4 0.5 0.8 0.5 1.8c0 1.2-0.8 1.7-1.8 1.1q-0.9-0.5-1.4-1.4-0.4-0.9-0.5-1.9c0-1.2 0.8-1.6 1.9-1z"/>
	<path id="Layer" class="s7" d="m34.9 99.3l65 37.5 65-37.5-65-37.5z"/>
	<path id="Layer" class="s9" d="m34.9 118l65 37.6v-18.8l-65-37.5z"/>
	<path id="Layer" class="s6" d="m99.9 155.6l65-37.6v-18.7l-65 37.5z"/>
	<path id="Layer" class="s2" d="m43.1 127.4v-4.7l56.8 32.9v4.6z"/>
	<path id="Layer" class="s2" d="m160.9 120.4v4.7l-61 35.1v-4.6z"/>
	<path id="Layer" class="s10" d="m160.9 120.4v4.7l-61 35.1v-4.6z"/>
	<path id="Layer" class="s2" d="m39 106.8v2.1q0 0.3 0.1 0.5 0.1 0.2 0.3 0.3l0.5 0.3q0.1 0 0.2 0 0 0 0.1 0 0.1-0.1 0.1-0.1 0.1-0.1 0.1-0.2v-2.1q-0.1-0.2-0.2-0.4-0.1-0.2-0.3-0.4l-0.5-0.2c-0.2-0.2-0.4-0.1-0.4 0.2z"/>
	<path id="Layer" class="s7" d="m41.2 108.1v2.1q0 0.2 0.1 0.4 0.1 0.2 0.3 0.3l0.5 0.3q0.1 0.1 0.2 0.1 0 0 0.1 0 0.1-0.1 0.1-0.2 0.1 0 0-0.1v-2.1q0-0.3-0.1-0.5-0.1-0.2-0.3-0.3l-0.5-0.3q0 0-0.1 0-0.1 0-0.2 0-0.1 0-0.1 0.1 0 0.1 0 0.2z"/>
	<path id="Layer" class="s2" d="m43.4 109.3v2.2q0 0.2 0.1 0.4 0.1 0.2 0.3 0.3l0.5 0.3c0.2 0.1 0.4 0 0.4-0.3v-2.1q0-0.2-0.1-0.4-0.1-0.2-0.3-0.3l-0.5-0.3q-0.1-0.1-0.1-0.1-0.1 0-0.2 0.1-0.1 0-0.1 0.1 0 0 0 0.1z"/>
	<path id="Layer" class="s7" d="m45.6 110.6v2.1q0 0.2 0.1 0.4 0.1 0.2 0.3 0.4l0.5 0.3c0.2 0.1 0.4 0 0.4-0.3v-2.1q0-0.2-0.1-0.4-0.1-0.2-0.3-0.4l-0.5-0.3c-0.2-0.1-0.4 0-0.4 0.3z"/>
	<path id="Layer" class="s7" d="m47.8 111.9v2.1q0 0.2 0.1 0.4 0.1 0.2 0.3 0.3l0.5 0.3c0.2 0.2 0.4 0 0.4-0.2v-2.1q0-0.3-0.1-0.5-0.1-0.2-0.3-0.3l-0.5-0.3c-0.2-0.1-0.4 0-0.4 0.3z"/>
	<path id="Layer" class="s7" d="m50 113.1v2.1q0 0.3 0.1 0.5 0.1 0.2 0.3 0.3l0.5 0.3c0.3 0.1 0.5 0 0.5-0.3v-2.1q-0.1-0.2-0.2-0.4-0.1-0.2-0.3-0.3l-0.5-0.3c-0.3-0.2-0.4-0.1-0.4 0.2z"/>
	<path id="Layer" class="s7" d="m52.1 114.4v2.1q0 0.2 0.2 0.4 0.1 0.2 0.3 0.3l0.5 0.3q0 0.1 0.1 0.1 0.1 0 0.2 0 0-0.1 0.1-0.2 0 0 0-0.1v-2.1q0-0.3-0.1-0.5-0.2-0.2-0.3-0.3l-0.5-0.3c-0.3-0.1-0.5 0-0.5 0.3z"/>
	<path id="Layer" class="s2" d="m54.3 115.6v2.2q0 0.2 0.2 0.4 0.1 0.2 0.3 0.3l0.4 0.3q0.1 0.1 0.2 0.1 0.1 0 0.1-0.1 0.1 0 0.2-0.1 0-0.1 0-0.1v-2.2q0-0.2-0.2-0.4-0.1-0.2-0.3-0.3l-0.4-0.3c-0.3-0.1-0.5 0-0.5 0.2z"/>
	<path id="Layer" class="s2" d="m56.5 116.9v2.1q0 0.2 0.1 0.4 0.2 0.2 0.3 0.3l0.5 0.3q0.1 0.1 0.2 0.1 0.1 0 0.1 0 0.1-0.1 0.1-0.2 0.1 0 0.1-0.1v-2.1q0-0.3-0.2-0.5-0.1-0.2-0.3-0.3l-0.5-0.3c-0.2-0.1-0.4 0-0.4 0.3z"/>
	<path id="Layer" class="s2" d="m58.7 118.2v2.1q0 0.2 0.1 0.4 0.1 0.2 0.3 0.3l0.5 0.3c0.3 0.2 0.4 0 0.4-0.2v-2.1q0-0.2-0.1-0.4-0.1-0.2-0.3-0.4l-0.5-0.2c-0.2-0.2-0.4-0.1-0.4 0.2z"/>
	<path id="Layer" class="s2" d="m60.9 119.4v2.2q0 0.2 0.1 0.4 0.1 0.2 0.3 0.3l0.5 0.3c0.2 0.1 0.4 0 0.4-0.3v-2.1q0-0.2-0.1-0.4-0.1-0.2-0.3-0.3l-0.5-0.3c-0.2-0.2-0.4-0.1-0.4 0.2z"/>
	<path id="Layer" class="s7" d="m63.1 120.7v2.1q0 0.2 0.1 0.4 0.1 0.2 0.3 0.4l0.5 0.2c0.2 0.2 0.4 0 0.4-0.2v-2.1q0-0.3-0.1-0.5-0.1-0.2-0.3-0.3l-0.5-0.3c-0.2-0.1-0.4 0-0.4 0.3z"/>
	<path id="Layer" class="s7" d="m65.3 122v2.1q0 0.2 0.1 0.4 0.1 0.2 0.3 0.4l0.5 0.3c0.2 0.1 0.4 0 0.4-0.3v-2.1q0-0.2-0.1-0.4-0.1-0.2-0.3-0.4l-0.5-0.3c-0.2-0.1-0.4 0-0.4 0.3z"/>
	<path id="Layer" class="s7" d="m67.4 123.2v2.1q0.1 0.3 0.2 0.5 0.1 0.2 0.3 0.3l0.5 0.3c0.2 0.1 0.4 0 0.4-0.3v-2.1q0-0.2-0.1-0.4-0.1-0.2-0.3-0.4l-0.5-0.2c-0.3-0.2-0.5-0.1-0.5 0.2z"/>
	<path id="Layer" class="s2" d="m69.6 124.5v2.1q0.1 0.2 0.2 0.4 0.1 0.2 0.3 0.3l0.5 0.3q0 0.1 0.1 0.1 0.1 0 0.2 0 0-0.1 0.1-0.2 0 0 0-0.1v-2.1q0-0.3-0.1-0.5-0.2-0.2-0.3-0.3l-0.5-0.3q-0.1 0-0.2 0-0.1 0-0.1 0-0.1 0-0.1 0.1-0.1 0.1-0.1 0.2z"/>
	<path id="Layer" class="s7" d="m71.8 125.7v2.2q0 0.2 0.2 0.4 0.1 0.2 0.3 0.3l0.5 0.3c0.2 0.1 0.4 0 0.4-0.3v-2.1q0-0.2-0.1-0.4-0.2-0.2-0.3-0.3l-0.5-0.3c-0.3-0.2-0.5 0-0.5 0.2z"/>
	<path id="Layer" class="s7" d="m74 127v2.1q0 0.3 0.1 0.5 0.1 0.2 0.3 0.3l0.5 0.3c0.3 0.1 0.4 0 0.4-0.3v-2.1q0-0.2-0.1-0.4-0.1-0.2-0.3-0.4l-0.5-0.2c-0.2-0.2-0.4-0.1-0.4 0.2z"/>
	<path id="Layer" class="s7" d="m39 113.1v2.1q0 0.3 0.1 0.5 0.1 0.2 0.3 0.3l0.5 0.3c0.2 0.1 0.5 0 0.5-0.3v-2.1q-0.1-0.2-0.2-0.4-0.1-0.2-0.3-0.3l-0.5-0.3c-0.2-0.2-0.4-0.1-0.4 0.2z"/>
	<path id="Layer" class="s7" d="m41.2 114.4v2.1q0 0.2 0.1 0.4 0.1 0.2 0.3 0.3l0.5 0.3c0.2 0.2 0.4 0 0.4-0.2v-2.1q0-0.3-0.1-0.5-0.1-0.2-0.3-0.3l-0.5-0.3c-0.2-0.1-0.4 0-0.4 0.3z"/>
	<path id="Layer" class="s2" d="m43.4 115.6v2.2q0 0.2 0.1 0.4 0.1 0.2 0.3 0.3l0.5 0.3q0.1 0.1 0.1 0.1 0.1 0 0.2-0.1 0.1 0 0.1-0.1 0.1-0.1 0-0.1v-2.2q0-0.2-0.1-0.4-0.1-0.2-0.3-0.3l-0.5-0.3c-0.2-0.1-0.4 0-0.4 0.2z"/>
	<path id="Layer" class="s7" d="m45.6 116.9v2.1q0 0.2 0.1 0.4 0.1 0.2 0.3 0.3l0.5 0.3c0.2 0.2 0.4 0 0.4-0.2v-2.1q0-0.3-0.1-0.5-0.1-0.2-0.3-0.3l-0.5-0.3c-0.2-0.1-0.4 0-0.4 0.3z"/>
	<path id="Layer" class="s7" d="m47.8 118.2v2.1q0 0.2 0.1 0.4 0.1 0.2 0.3 0.3l0.5 0.3c0.2 0.2 0.4 0 0.4-0.2v-2.1q0-0.2-0.1-0.4-0.1-0.2-0.3-0.4l-0.5-0.2c-0.2-0.2-0.4-0.1-0.4 0.2z"/>
	<path id="Layer" class="s7" d="m50 119.4v2.2q0 0.2 0.1 0.4 0.1 0.2 0.3 0.3l0.5 0.3c0.3 0.1 0.5 0 0.5-0.3v-2.1q-0.1-0.2-0.2-0.4-0.1-0.2-0.3-0.3l-0.5-0.3c-0.3-0.2-0.4-0.1-0.4 0.2z"/>
	<path id="Layer" class="s7" d="m52.1 120.7v2.1q0.1 0.2 0.2 0.4 0.1 0.2 0.3 0.4l0.5 0.2c0.2 0.2 0.4 0 0.4-0.2v-2.1q0-0.3-0.1-0.5-0.2-0.2-0.3-0.3l-0.5-0.3c-0.3-0.1-0.5 0-0.5 0.3z"/>
	<path id="Layer" class="s2" d="m54.3 122v2.1q0 0.3 0.1 0.4 0.2 0.2 0.4 0.4l0.4 0.3c0.3 0.1 0.5 0 0.5-0.3v-2.1q0-0.2-0.2-0.4-0.1-0.2-0.3-0.4l-0.4-0.3c-0.3-0.1-0.5 0-0.5 0.3z"/>
	<path id="Layer" class="s7" d="m56.5 123.2v2.1q0 0.3 0.1 0.5 0.2 0.2 0.3 0.3l0.5 0.3c0.3 0.1 0.5 0 0.5-0.3v-2.1q0-0.2-0.2-0.4-0.1-0.2-0.3-0.4l-0.5-0.2c-0.2-0.2-0.4-0.1-0.4 0.2z"/>
	<path id="Layer" class="s7" d="m58.7 124.5v2.1q0 0.2 0.1 0.4 0.1 0.2 0.3 0.3l0.5 0.3c0.3 0.2 0.4 0 0.4-0.2v-2.1q0-0.3-0.1-0.5-0.1-0.2-0.3-0.3l-0.5-0.3c-0.2-0.1-0.4 0-0.4 0.3z"/>
	<path id="Layer" class="s7" d="m60.9 125.7v2.2q0 0.2 0.1 0.4 0.1 0.2 0.3 0.3l0.5 0.3c0.2 0.1 0.4 0 0.4-0.3v-2.1q0-0.2-0.1-0.4-0.1-0.2-0.3-0.3l-0.5-0.3c-0.2-0.2-0.4 0-0.4 0.2z"/>
	<path id="Layer" class="s2" d="m63.1 127v2.1q0 0.3 0.1 0.5 0.1 0.2 0.3 0.3l0.5 0.3c0.2 0.1 0.4 0 0.4-0.3v-2.1q0-0.2-0.1-0.5-0.1-0.2-0.3-0.3l-0.5-0.3c-0.2-0.1-0.4 0-0.4 0.3z"/>
	<path id="Layer" class="s2" d="m65.3 128.3v2.1q0 0.2 0.1 0.4 0.1 0.2 0.3 0.3l0.5 0.3c0.2 0.1 0.4 0 0.4-0.2v-2.2q0-0.2-0.1-0.4-0.1-0.2-0.3-0.4l-0.5-0.2c-0.2-0.1-0.4 0-0.4 0.3z"/>
	<path id="Layer" class="s7" d="m67.4 129.5v2.1q0.1 0.3 0.2 0.5 0.1 0.2 0.3 0.3l0.5 0.3c0.2 0.1 0.4 0 0.4-0.3v-2.1q0-0.2-0.1-0.4-0.1-0.2-0.3-0.3l-0.5-0.3c-0.3-0.2-0.5-0.1-0.5 0.2z"/>
	<path id="Layer" class="s7" d="m69.6 130.8v2.1q0.1 0.2 0.2 0.4 0.1 0.2 0.3 0.3l0.5 0.3c0.2 0.2 0.4 0 0.4-0.2v-2.1q0-0.3-0.1-0.5-0.2-0.2-0.3-0.3l-0.5-0.3c-0.3-0.1-0.5 0-0.5 0.3z"/>
	<path id="Layer" class="s7" d="m71.8 132v2.1q0 0.3 0.2 0.5 0.1 0.2 0.3 0.3l0.5 0.3c0.2 0.1 0.4 0 0.4-0.3v-2.1q0-0.2-0.1-0.4-0.2-0.2-0.3-0.4l-0.5-0.2c-0.3-0.1-0.5 0-0.5 0.2z"/>
	<path id="Layer" class="s7" d="m74 133.3v2.1q0 0.3 0.1 0.5 0.1 0.2 0.3 0.3l0.5 0.3c0.3 0.1 0.4 0 0.4-0.3v-2.1q0-0.2-0.1-0.4-0.1-0.2-0.3-0.4l-0.5-0.2c-0.2-0.2-0.4-0.1-0.4 0.2z"/>
	<path id="Layer" class="s2" d="m81.3 134.2l1-0.6q0.4-0.1 0.7-0.1 0.4 0 0.7 0.3 0.8 0.5 1.3 1.4 0.5 0.8 0.5 1.8 0.1 0.4-0.1 0.7-0.1 0.3-0.4 0.5l-0.9 0.6-0.2-0.3q-0.3-0.1-0.5-0.2-0.9-0.6-1.4-1.4-0.5-0.9-0.5-1.9 0-0.2 0-0.5z"/>
	<path id="Layer" class="s10" d="m81.3 134.2l1-0.6q0.4-0.1 0.7-0.1 0.4 0 0.7 0.3 0.8 0.5 1.3 1.4 0.5 0.8 0.5 1.8 0.1 0.4-0.1 0.7-0.1 0.3-0.4 0.5l-0.9 0.6-0.2-0.3q-0.3-0.1-0.5-0.2-0.9-0.6-1.4-1.4-0.5-0.9-0.5-1.9 0-0.2 0-0.5z"/>
	<path id="Layer" class="s2" d="m82.7 134.3q0.8 0.5 1.3 1.4 0.5 0.9 0.6 1.9c0 1.2-0.9 1.6-1.9 1q-0.8-0.5-1.3-1.4-0.5-0.8-0.6-1.8c0-1.2 0.9-1.7 1.9-1.1z"/>
	<path id="Layer" class="s2" d="m89.5 138.9l1-0.6q0.3-0.1 0.7-0.1 0.3 0.1 0.6 0.3 0.9 0.5 1.4 1.4 0.4 0.8 0.5 1.8 0 0.4-0.1 0.7-0.2 0.3-0.4 0.5l-1 0.6-0.1-0.3q-0.3-0.1-0.6-0.2-0.8-0.6-1.3-1.4-0.5-0.9-0.6-1.9 0-0.2 0.1-0.5z"/>
	<path id="Layer" class="s10" d="m89.5 138.9l1-0.6q0.3-0.1 0.7-0.1 0.3 0.1 0.6 0.3 0.9 0.5 1.4 1.4 0.4 0.8 0.5 1.8 0 0.4-0.1 0.7-0.2 0.3-0.4 0.5l-1 0.6-0.1-0.3q-0.3-0.1-0.6-0.2-0.8-0.6-1.3-1.4-0.5-0.9-0.6-1.9 0-0.2 0.1-0.5z"/>
	<path id="Layer" class="s2" d="m90.9 139q0.8 0.5 1.3 1.4 0.5 0.9 0.5 1.9c0 1.2-0.8 1.6-1.8 1q-0.9-0.5-1.4-1.4-0.4-0.8-0.5-1.8c0-1.2 0.8-1.7 1.9-1.1z"/>
	<path id="Layer" class="s7" d="m34.9 71.1l65 37.6 65-37.6-65-37.5z"/>
	<path id="Layer" class="s9" d="m34.9 89.9l65 37.5v-18.7l-65-37.6z"/>
	<path id="Layer" class="s6" d="m99.9 127.4l65-37.5v-18.8l-65 37.6z"/>
	<path id="Layer" class="s2" d="m43.1 99.3v-4.7l56.8 32.8v4.7z"/>
	<path id="Layer" class="s2" d="m160.9 92.2v4.7l-61 35.2v-4.7z"/>
	<path id="Layer" class="s10" d="m160.9 92.2v4.7l-61 35.2v-4.7z"/>
	<path id="Layer" class="s2" d="m39 78.7v2.1q0 0.2 0.1 0.4 0.1 0.2 0.3 0.3l0.5 0.3c0.2 0.2 0.5 0 0.5-0.2v-2.2q-0.1-0.2-0.2-0.4-0.1-0.2-0.3-0.3l-0.5-0.3c-0.2-0.1-0.4 0-0.4 0.3z"/>
	<path id="Layer" class="s2" d="m41.2 79.9v2.2q0 0.2 0.1 0.4 0.1 0.2 0.3 0.3l0.5 0.3c0.2 0.1 0.4 0 0.4-0.3v-2.1q0-0.2-0.1-0.4-0.1-0.2-0.3-0.3l-0.5-0.3c-0.2-0.2-0.4-0.1-0.4 0.2z"/>
	<path id="Layer" class="s7" d="m43.4 81.2v2.1q0 0.2 0.1 0.4 0.1 0.2 0.3 0.4l0.5 0.2c0.2 0.2 0.4 0 0.4-0.2v-2.1q0-0.2-0.1-0.4-0.1-0.2-0.3-0.4l-0.5-0.2c-0.2-0.2-0.4-0.1-0.4 0.2z"/>
	<path id="Layer" class="s2" d="m45.6 82.4v2.2q0 0.2 0.1 0.4 0.1 0.2 0.3 0.3l0.5 0.3c0.2 0.1 0.4 0 0.4-0.2v-2.2q0-0.2-0.1-0.4-0.1-0.2-0.3-0.3l-0.5-0.3c-0.2-0.1-0.4 0-0.4 0.2z"/>
	<path id="Layer" class="s2" d="m47.8 83.7v2.1q0 0.3 0.1 0.5 0.1 0.2 0.3 0.3l0.5 0.3c0.2 0.1 0.4 0 0.4-0.3v-2.1q0-0.2-0.1-0.4-0.1-0.2-0.3-0.4l-0.5-0.2c-0.2-0.2-0.4-0.1-0.4 0.2z"/>
	<path id="Layer" class="s7" d="m50 85v2.1q0 0.2 0.1 0.4 0.1 0.2 0.3 0.4l0.5 0.3c0.3 0.1 0.5 0 0.5-0.3v-2.1q-0.1-0.2-0.2-0.4-0.1-0.2-0.3-0.4l-0.5-0.3c-0.3-0.1-0.4 0-0.4 0.3z"/>
	<path id="Layer" class="s7" d="m52.1 86.2v2.2q0.1 0.2 0.2 0.4 0.1 0.2 0.3 0.3l0.5 0.3c0.2 0.1 0.4 0 0.4-0.3v-2.1q0-0.2-0.1-0.4-0.2-0.2-0.3-0.4l-0.5-0.2c-0.3-0.2-0.5 0-0.5 0.2z"/>
	<path id="Layer" class="s2" d="m54.3 87.5v2.1q0 0.2 0.1 0.4 0.2 0.2 0.4 0.4l0.4 0.3c0.3 0.1 0.5 0 0.5-0.3v-2.1q0-0.2-0.2-0.4-0.1-0.2-0.3-0.4l-0.4-0.3c-0.3-0.1-0.5 0-0.5 0.3z"/>
	<path id="Layer" class="s7" d="m56.5 88.8v2.1q0 0.2 0.1 0.4 0.2 0.2 0.3 0.3l0.5 0.3c0.3 0.2 0.5 0 0.5-0.2v-2.2q0-0.2-0.2-0.4-0.1-0.2-0.3-0.3l-0.5-0.3c-0.2-0.1-0.4 0-0.4 0.3z"/>
	<path id="Layer" class="s2" d="m58.7 90v2.1q0 0.3 0.1 0.5 0.1 0.2 0.3 0.3l0.5 0.3c0.3 0.1 0.4 0 0.4-0.3v-2.1q0-0.2-0.1-0.4-0.1-0.2-0.3-0.3l-0.5-0.3c-0.2-0.2-0.4 0-0.4 0.2z"/>
	<path id="Layer" class="s2" d="m60.9 91.3v2.1q0 0.2 0.1 0.4 0.1 0.2 0.3 0.4l0.5 0.2c0.2 0.2 0.4 0 0.4-0.2v-2.1q0-0.3-0.1-0.5-0.1-0.2-0.3-0.3l-0.5-0.3c-0.2-0.1-0.4 0-0.4 0.3z"/>
	<path id="Layer" class="s2" d="m63.1 92.5v2.2q0 0.2 0.1 0.4 0.1 0.2 0.3 0.3l0.5 0.3c0.2 0.1 0.4 0 0.4-0.3v-2.1q0-0.2-0.1-0.4-0.1-0.2-0.3-0.3l-0.5-0.3c-0.2-0.1-0.4 0-0.4 0.2z"/>
	<path id="Layer" class="s2" d="m65.3 93.8v2.1q0 0.3 0.1 0.5 0.1 0.2 0.3 0.3l0.5 0.3c0.2 0.1 0.4 0 0.4-0.3v-2.1q0-0.2-0.1-0.4-0.1-0.2-0.3-0.4l-0.5-0.2c-0.2-0.2-0.4-0.1-0.4 0.2z"/>
	<path id="Layer" class="s7" d="m67.4 95.1v2.1q0.1 0.2 0.2 0.4 0.1 0.2 0.3 0.3l0.5 0.3c0.2 0.2 0.4 0 0.4-0.2v-2.1q0-0.3-0.1-0.5-0.1-0.2-0.3-0.3l-0.5-0.3c-0.3-0.1-0.5 0-0.5 0.3z"/>
	<path id="Layer" class="s7" d="m69.6 96.3v2.1q0.1 0.3 0.2 0.5 0.1 0.2 0.3 0.3l0.5 0.3c0.2 0.1 0.4 0 0.4-0.3v-2.1q0-0.2-0.1-0.4-0.2-0.2-0.3-0.3l-0.5-0.3c-0.3-0.2-0.5 0-0.5 0.2z"/>
	<path id="Layer" class="s7" d="m71.8 97.6v2.1q0 0.2 0.2 0.4 0.1 0.2 0.3 0.4l0.5 0.3c0.2 0.1 0.4 0 0.4-0.3v-2.1q0-0.3-0.1-0.5-0.2-0.2-0.3-0.3l-0.5-0.3c-0.3-0.1-0.5 0-0.5 0.3z"/>
	<path id="Layer" class="s2" d="m74 98.8v2.2q0 0.2 0.1 0.4 0.1 0.2 0.3 0.4l0.5 0.2c0.3 0.2 0.4 0 0.4-0.2v-2.1q0-0.3-0.1-0.5-0.1-0.2-0.3-0.3l-0.5-0.3c-0.2-0.1-0.4 0-0.4 0.2z"/>
	<path id="Layer" class="s2" d="m39 85v2.1q0 0.2 0.1 0.4 0.1 0.2 0.3 0.4l0.5 0.3c0.2 0.1 0.5 0 0.5-0.3v-2.1q-0.1-0.2-0.2-0.4-0.1-0.2-0.3-0.4l-0.5-0.3c-0.2-0.1-0.4 0-0.4 0.3z"/>
	<path id="Layer" class="s2" d="m41.2 86.2v2.2q0 0.2 0.1 0.4 0.1 0.2 0.3 0.3l0.5 0.3c0.2 0.1 0.4 0 0.4-0.3v-2.1q0-0.2-0.1-0.4-0.1-0.2-0.3-0.4l-0.5-0.2c-0.2-0.2-0.4 0-0.4 0.2z"/>
	<path id="Layer" class="s2" d="m43.4 87.5v2.1q0 0.2 0.1 0.4 0.1 0.2 0.3 0.4l0.5 0.3c0.2 0.1 0.4 0 0.4-0.3v-2.1q0-0.2-0.1-0.4-0.1-0.2-0.3-0.4l-0.5-0.3c-0.2-0.1-0.4 0-0.4 0.3z"/>
	<path id="Layer" class="s7" d="m45.6 88.8v2.1q0 0.2 0.1 0.4 0.1 0.2 0.3 0.3l0.5 0.3c0.2 0.2 0.4 0 0.4-0.2v-2.2q0-0.2-0.1-0.4-0.1-0.2-0.3-0.3l-0.5-0.3c-0.2-0.1-0.4 0-0.4 0.3z"/>
	<path id="Layer" class="s7" d="m47.8 90v2.1q0 0.3 0.1 0.5 0.1 0.2 0.3 0.3l0.5 0.3c0.2 0.1 0.4 0 0.4-0.3v-2.1q0-0.2-0.1-0.4-0.1-0.2-0.3-0.3l-0.5-0.3c-0.2-0.2-0.4 0-0.4 0.2z"/>
	<path id="Layer" class="s2" d="m50 91.3v2.1q0 0.2 0.1 0.4 0.1 0.2 0.3 0.4l0.5 0.2c0.3 0.2 0.5 0 0.5-0.2v-2.1q-0.1-0.3-0.2-0.5-0.1-0.2-0.3-0.3l-0.5-0.3c-0.3-0.1-0.4 0-0.4 0.3z"/>
	<path id="Layer" class="s2" d="m52.1 92.5v2.2q0.1 0.2 0.2 0.4 0.1 0.2 0.3 0.3l0.5 0.3c0.2 0.1 0.4 0 0.4-0.3v-2.1q0-0.2-0.1-0.4-0.2-0.2-0.3-0.3l-0.5-0.3c-0.3-0.1-0.5 0-0.5 0.2z"/>
	<path id="Layer" class="s2" d="m54.3 93.8v2.1q0 0.3 0.2 0.5 0.1 0.2 0.3 0.3l0.4 0.3c0.3 0.1 0.5 0 0.5-0.3v-2.1q0-0.2-0.2-0.4-0.1-0.2-0.3-0.4l-0.4-0.2c-0.3-0.2-0.5-0.1-0.5 0.2z"/>
	<path id="Layer" class="s7" d="m56.5 95.1v2.1q0 0.2 0.1 0.4 0.2 0.2 0.3 0.3l0.5 0.3c0.3 0.2 0.5 0 0.5-0.2v-2.1q0-0.3-0.2-0.5-0.1-0.2-0.3-0.3l-0.5-0.3c-0.2-0.1-0.4 0-0.4 0.3z"/>
	<path id="Layer" class="s7" d="m58.7 96.3v2.1q0 0.3 0.1 0.5 0.1 0.2 0.3 0.3l0.5 0.3c0.3 0.1 0.4 0 0.4-0.3v-2.1q0-0.2-0.1-0.4-0.1-0.2-0.3-0.3l-0.5-0.3c-0.2-0.2-0.4 0-0.4 0.2z"/>
	<path id="Layer" class="s7" d="m60.9 97.6v2.1q0 0.2 0.1 0.4 0.1 0.2 0.3 0.4l0.5 0.3c0.2 0.1 0.4 0 0.4-0.3v-2.1q0-0.3-0.1-0.5-0.1-0.2-0.3-0.3l-0.5-0.3c-0.2-0.1-0.4 0-0.4 0.3z"/>
	<path id="Layer" class="s7" d="m63.1 98.8v2.2q0 0.2 0.1 0.4 0.1 0.2 0.3 0.4l0.5 0.2c0.2 0.1 0.4 0 0.4-0.2v-2.2q0-0.2-0.1-0.4-0.1-0.2-0.3-0.3l-0.5-0.3c-0.2-0.1-0.4 0-0.4 0.2z"/>
	<path id="Layer" class="s2" d="m65.3 100.1v2.1q0 0.3 0.1 0.5 0.1 0.2 0.3 0.3l0.5 0.3c0.2 0.1 0.4 0 0.4-0.3v-2.1q0-0.2-0.1-0.4-0.1-0.2-0.3-0.4l-0.5-0.2c-0.2-0.2-0.4-0.1-0.4 0.2z"/>
	<path id="Layer" class="s2" d="m67.4 101.4v2.1q0.1 0.2 0.2 0.4 0.1 0.2 0.3 0.3l0.5 0.3c0.2 0.2 0.4 0 0.4-0.2v-2.1q0-0.3-0.1-0.5-0.1-0.2-0.3-0.3l-0.5-0.3c-0.3-0.1-0.5 0-0.5 0.3z"/>
	<path id="Layer" class="s2" d="m69.6 102.6v2.2q0.1 0.2 0.2 0.4 0.1 0.2 0.3 0.3l0.5 0.3c0.2 0.1 0.4 0 0.4-0.3v-2.1q0-0.2-0.1-0.4-0.2-0.2-0.3-0.3l-0.5-0.3c-0.3-0.1-0.5 0-0.5 0.2z"/>
	<path id="Layer" class="s2" d="m71.8 103.9v2.1q0 0.2 0.2 0.4 0.1 0.2 0.3 0.3l0.5 0.3c0.2 0.2 0.4 0 0.4-0.2v-2.1q0-0.3-0.1-0.5-0.2-0.2-0.3-0.3l-0.5-0.3c-0.3-0.1-0.5 0-0.5 0.3z"/>
	<path id="Layer" class="s2" d="m74 105.2v2.1q0 0.2 0.1 0.4 0.1 0.2 0.3 0.3l0.5 0.3c0.3 0.1 0.4 0 0.4-0.2v-2.2q0-0.2-0.1-0.4-0.1-0.2-0.3-0.3l-0.5-0.3c-0.2-0.1-0.4 0-0.4 0.3z"/>
	<path id="Layer" class="s2" d="m81.3 106.1l1-0.6q0.4-0.2 0.7-0.1 0.4 0 0.7 0.2 0.8 0.6 1.3 1.4 0.5 0.9 0.5 1.9 0.1 0.3-0.1 0.7-0.1 0.3-0.4 0.5l-0.9 0.5-0.2-0.3q-0.3 0-0.5-0.2-0.9-0.5-1.4-1.4-0.5-0.8-0.5-1.8 0-0.3 0-0.5z"/>
	<path id="Layer" class="s10" d="m81.3 106.1l1-0.6q0.4-0.2 0.7-0.1 0.4 0 0.7 0.2 0.8 0.6 1.3 1.4 0.5 0.9 0.5 1.9 0.1 0.3-0.1 0.7-0.1 0.3-0.4 0.5l-0.9 0.5-0.2-0.3q-0.3 0-0.5-0.2-0.9-0.5-1.4-1.4-0.5-0.8-0.5-1.8 0-0.3 0-0.5z"/>
	<path id="Layer" class="s2" d="m82.7 106.2q0.8 0.5 1.3 1.4 0.5 0.8 0.6 1.8c0 1.2-0.9 1.7-1.9 1.1q-0.8-0.5-1.3-1.4-0.5-0.9-0.6-1.9c0-1.2 0.9-1.6 1.9-1z"/>
	<path id="Layer" class="s2" d="m89.5 110.8l1-0.6q0.3-0.2 0.7-0.1 0.3 0 0.6 0.2 0.9 0.6 1.4 1.4 0.4 0.9 0.5 1.9 0 0.3-0.1 0.7-0.2 0.3-0.4 0.5l-1 0.5-0.1-0.2q-0.3-0.1-0.6-0.3-0.8-0.5-1.3-1.4-0.5-0.8-0.6-1.8 0-0.3 0.1-0.5z"/>
	<path id="Layer" class="s10" d="m89.5 110.8l1-0.6q0.3-0.2 0.7-0.1 0.3 0 0.6 0.2 0.9 0.6 1.4 1.4 0.4 0.9 0.5 1.9 0 0.3-0.1 0.7-0.2 0.3-0.4 0.5l-1 0.5-0.1-0.2q-0.3-0.1-0.6-0.3-0.8-0.5-1.3-1.4-0.5-0.8-0.6-1.8 0-0.3 0.1-0.5z"/>
	<path id="Layer" class="s2" d="m90.9 110.9q0.8 0.5 1.3 1.4 0.5 0.8 0.5 1.8c0 1.2-0.8 1.7-1.8 1.1q-0.8-0.5-1.3-1.4-0.5-0.8-0.6-1.8c0-1.2 0.8-1.7 1.9-1.1z"/>
	<path id="Layer" class="s6" d="m162.3 41.5l-59.8-34.5c-0.8-0.4-1.7-0.6-2.6-0.6-0.9 0-1.8 0.2-2.6 0.6l-59.8 34.5c-0.7 0.5-1.3 1.1-1.8 1.9-0.4 0.8-0.7 1.7-0.8 2.6v15.8l65 37.5 65-37.5v-15.8c0-0.9-0.3-1.8-0.7-2.6-0.5-0.7-1.1-1.4-1.9-1.9z"/>
	<path id="Layer" class="s9" d="m100 79.6v19.7l-65-37.5v-15.8q0.1-1.2 0.6-2.3 0.6-1.1 1.5-1.9c-1 0.9-0.8 2 0.5 2.7l59.8 34.5c0.8 0.4 1.7 0.6 2.6 0.6z"/>
	<path id="Layer" class="s7" d="m37.5 44.5l59.9 34.5c0.8 0.4 1.7 0.6 2.6 0.6 0.9 0 1.8-0.2 2.6-0.6l59.7-34.5c1.5-0.8 1.5-2.2 0-3l-59.8-34.5c-0.8-0.4-1.7-0.6-2.6-0.6-0.9 0-1.8 0.2-2.6 0.6l-59.8 34.5c-1.4 0.8-1.4 2.2 0 3z"/>
	<path id="Layer" class="s2" d="m43.1 71.1v-4.7l56.8 32.9v4.7z"/>
	<path id="Layer" class="s2" d="m160.9 64.1v4.7l-61 35.2v-4.7z"/>
	<path id="Layer" class="s10" d="m160.9 64.1v4.7l-61 35.2v-4.7z"/>
	<path id="Layer" class="s7" d="m39 50.5v2.2q0 0.2 0.1 0.4 0.1 0.2 0.3 0.3l0.5 0.3c0.2 0.1 0.5 0 0.5-0.3v-2.1q-0.1-0.2-0.2-0.4-0.1-0.2-0.3-0.3l-0.5-0.3c-0.2-0.2-0.4-0.1-0.4 0.2z"/>
	<path id="Layer" class="s7" d="m41.2 51.8v2.1q0 0.2 0.1 0.4 0.1 0.2 0.3 0.4l0.5 0.2c0.2 0.2 0.4 0 0.4-0.2v-2.1q0-0.3-0.1-0.5-0.1-0.2-0.3-0.3l-0.5-0.3c-0.2-0.1-0.4 0-0.4 0.3z"/>
	<path id="Layer" class="s7" d="m43.4 53.1v2.1q0 0.2 0.1 0.4 0.1 0.2 0.3 0.3l0.5 0.3c0.2 0.1 0.4 0 0.4-0.3v-2.1q0-0.2-0.1-0.4-0.1-0.2-0.3-0.3l-0.5-0.3c-0.2-0.1-0.4 0-0.4 0.3z"/>
	<path id="Layer" class="s2" d="m45.6 54.3v2.1q0 0.3 0.1 0.5 0.1 0.2 0.3 0.3l0.5 0.3c0.2 0.1 0.4 0 0.4-0.3v-2.1q0-0.2-0.1-0.4-0.1-0.2-0.3-0.4l-0.5-0.2c-0.2-0.2-0.4-0.1-0.4 0.2z"/>
	<path id="Layer" class="s2" d="m47.8 55.6v2.1q0 0.2 0.1 0.4 0.1 0.2 0.3 0.3l0.5 0.3c0.2 0.2 0.4 0 0.4-0.2v-2.2q0-0.2-0.1-0.4-0.1-0.2-0.3-0.3l-0.5-0.3c-0.2-0.1-0.4 0-0.4 0.3z"/>
	<path id="Layer" class="s7" d="m50 56.8v2.2q0 0.2 0.1 0.4 0.1 0.2 0.3 0.4l0.5 0.2c0.3 0.2 0.5 0 0.5-0.2v-2.1q-0.1-0.3-0.2-0.5-0.1-0.2-0.3-0.3l-0.5-0.3c-0.3-0.2-0.4 0-0.4 0.2z"/>
	<path id="Layer" class="s7" d="m52.1 58.1v2.1q0.1 0.2 0.2 0.4 0.1 0.2 0.3 0.4l0.5 0.2c0.2 0.2 0.4 0 0.4-0.2v-2.1q0-0.2-0.1-0.4-0.2-0.2-0.3-0.4l-0.5-0.3c-0.3-0.1-0.5 0-0.5 0.3z"/>
	<path id="Layer" class="s7" d="m54.3 59.4v2.1q0 0.2 0.2 0.4 0.1 0.2 0.3 0.3l0.4 0.3c0.3 0.2 0.5 0 0.5-0.2v-2.2q0-0.2-0.1-0.4-0.2-0.2-0.4-0.3l-0.4-0.3c-0.3-0.1-0.5 0-0.5 0.3z"/>
	<path id="Layer" class="s7" d="m56.5 60.6v2.1q0 0.3 0.1 0.5 0.2 0.2 0.3 0.3l0.5 0.3c0.3 0.1 0.5 0 0.5-0.3v-2.1q0-0.2-0.2-0.4-0.1-0.2-0.3-0.3l-0.5-0.3c-0.2-0.2-0.4-0.1-0.4 0.2z"/>
	<path id="Layer" class="s7" d="m58.7 61.9v2.1q0 0.2 0.1 0.4 0.1 0.2 0.3 0.4l0.5 0.2c0.3 0.2 0.4 0 0.4-0.2v-2.1q0-0.3-0.1-0.5-0.1-0.2-0.3-0.3l-0.5-0.3c-0.2-0.1-0.4 0-0.4 0.3z"/>
	<path id="Layer" class="s2" d="m60.9 63.1v2.2q0 0.2 0.1 0.4 0.1 0.2 0.3 0.3l0.5 0.3c0.2 0.1 0.4 0 0.4-0.2v-2.2q0-0.2-0.1-0.4-0.1-0.2-0.3-0.3l-0.5-0.3c-0.2-0.2-0.4 0-0.4 0.2z"/>
	<path id="Layer" class="s2" d="m63.1 64.4v2.1q0 0.3 0.1 0.5 0.1 0.2 0.3 0.3l0.5 0.3c0.2 0.1 0.4 0 0.4-0.3v-2.1q0-0.2-0.1-0.4-0.1-0.2-0.3-0.4l-0.5-0.2c-0.2-0.2-0.4-0.1-0.4 0.2z"/>
	<path id="Layer" class="s7" d="m65.3 65.7v2.1q0 0.2 0.1 0.4 0.1 0.2 0.3 0.3l0.5 0.3c0.2 0.2 0.4 0 0.4-0.2v-2.2q0-0.2-0.1-0.4-0.1-0.2-0.3-0.3l-0.5-0.3c-0.2-0.1-0.4 0-0.4 0.3z"/>
	<path id="Layer" class="s2" d="m67.4 66.9v2.2q0.1 0.2 0.2 0.4 0.1 0.2 0.3 0.3l0.5 0.3c0.2 0.1 0.4 0 0.4-0.3v-2.1q0-0.2-0.1-0.4-0.1-0.2-0.3-0.3l-0.5-0.3c-0.3-0.2-0.5-0.1-0.5 0.2z"/>
	<path id="Layer" class="s7" d="m69.6 68.2v2.1q0.1 0.2 0.2 0.4 0.1 0.2 0.3 0.4l0.5 0.2c0.2 0.2 0.4 0 0.4-0.2v-2.1q0-0.2-0.1-0.4-0.2-0.2-0.3-0.4l-0.5-0.2c-0.3-0.2-0.5-0.1-0.5 0.2z"/>
	<path id="Layer" class="s7" d="m71.8 69.4v2.2q0 0.2 0.2 0.4 0.1 0.2 0.3 0.3l0.5 0.3c0.2 0.1 0.4 0 0.4-0.3v-2.1q0-0.2-0.1-0.4-0.2-0.2-0.3-0.3l-0.5-0.3c-0.3-0.1-0.5 0-0.5 0.2z"/>
	<path id="Layer" class="s7" d="m74 70.7v2.1q0 0.3 0.1 0.5 0.1 0.2 0.3 0.3l0.5 0.3c0.3 0.1 0.4 0 0.4-0.3v-2.1q0-0.2-0.1-0.4-0.1-0.2-0.3-0.4l-0.5-0.2c-0.2-0.2-0.4-0.1-0.4 0.2z"/>
	<path id="Layer" class="s2" d="m39 56.8v2.2q0 0.2 0.1 0.4 0.1 0.2 0.3 0.4l0.5 0.2c0.2 0.2 0.5 0 0.5-0.2v-2.1q-0.1-0.3-0.2-0.5-0.1-0.2-0.3-0.3l-0.5-0.3c-0.2-0.2-0.4 0-0.4 0.2z"/>
	<path id="Layer" class="s7" d="m41.2 58.1v2.1q0 0.2 0.1 0.4 0.1 0.2 0.3 0.4l0.5 0.2c0.2 0.2 0.4 0 0.4-0.2v-2.1q0-0.2-0.1-0.4-0.1-0.2-0.3-0.4l-0.5-0.3c-0.2-0.1-0.4 0-0.4 0.3z"/>
	<path id="Layer" class="s7" d="m43.4 59.4v2.1q0 0.2 0.1 0.4 0.1 0.2 0.3 0.3l0.5 0.3c0.2 0.2 0.4 0 0.4-0.2v-2.2q0-0.2-0.1-0.4-0.1-0.2-0.3-0.3l-0.5-0.3c-0.2-0.1-0.4 0-0.4 0.3z"/>
	<path id="Layer" class="s7" d="m45.6 60.6v2.1q0 0.3 0.1 0.5 0.1 0.2 0.3 0.3l0.5 0.3c0.2 0.1 0.4 0 0.4-0.3v-2.1q0-0.2-0.1-0.4-0.1-0.2-0.3-0.3l-0.5-0.3c-0.2-0.2-0.4-0.1-0.4 0.2z"/>
	<path id="Layer" class="s7" d="m47.8 61.9v2.1q0 0.2 0.1 0.4 0.1 0.2 0.3 0.4l0.5 0.2c0.2 0.2 0.4 0 0.4-0.2v-2.1q0-0.3-0.1-0.5-0.1-0.2-0.3-0.3l-0.5-0.3c-0.2-0.1-0.4 0-0.4 0.3z"/>
	<path id="Layer" class="s2" d="m50 63.1v2.2q0 0.2 0.1 0.4 0.1 0.2 0.3 0.3l0.5 0.3c0.3 0.1 0.5 0 0.5-0.2v-2.2q-0.1-0.2-0.2-0.4-0.1-0.2-0.3-0.3l-0.5-0.3c-0.3-0.2-0.4 0-0.4 0.2z"/>
	<path id="Layer" class="s7" d="m52.1 64.4v2.1q0.1 0.3 0.2 0.5 0.1 0.2 0.3 0.3l0.5 0.3c0.2 0.1 0.4 0 0.4-0.3v-2.1q0-0.2-0.1-0.4-0.2-0.2-0.3-0.4l-0.5-0.2c-0.3-0.2-0.5-0.1-0.5 0.2z"/>
	<path id="Layer" class="s2" d="m54.3 65.7v2.1q0 0.2 0.2 0.4 0.1 0.2 0.3 0.3l0.4 0.3c0.3 0.2 0.5 0 0.5-0.2v-2.2q0-0.2-0.2-0.4-0.1-0.2-0.3-0.3l-0.4-0.3c-0.3-0.1-0.5 0-0.5 0.3z"/>
	<path id="Layer" class="s7" d="m56.5 66.9v2.2q0 0.2 0.1 0.4 0.2 0.2 0.3 0.3l0.5 0.3c0.3 0.1 0.5 0 0.5-0.3v-2.1q0-0.2-0.2-0.4-0.1-0.2-0.3-0.3l-0.5-0.3q0-0.1-0.1-0.1-0.1 0-0.2 0.1 0 0-0.1 0.1 0 0 0 0.1z"/>
	<path id="Layer" class="s2" d="m58.7 68.2v2.1q0 0.2 0.1 0.4 0.1 0.2 0.3 0.4l0.5 0.2c0.3 0.2 0.4 0 0.4-0.2v-2.1q0-0.2-0.1-0.4-0.1-0.2-0.3-0.4l-0.5-0.2c-0.2-0.2-0.4-0.1-0.4 0.2z"/>
	<path id="Layer" class="s7" d="m60.9 69.4v2.2q0 0.2 0.1 0.4 0.1 0.2 0.3 0.3l0.5 0.3c0.2 0.1 0.4 0 0.4-0.3v-2.1q0-0.2-0.1-0.4-0.1-0.2-0.3-0.3l-0.5-0.3c-0.2-0.1-0.4 0-0.4 0.2z"/>
	<path id="Layer" class="s7" d="m63.1 70.7v2.1q0 0.3 0.1 0.5 0.1 0.2 0.3 0.3l0.5 0.3c0.2 0.1 0.4 0 0.4-0.3v-2.1q0-0.2-0.1-0.4-0.1-0.2-0.3-0.4l-0.5-0.2c-0.2-0.2-0.4-0.1-0.4 0.2z"/>
	<path id="Layer" class="s7" d="m65.3 72v2.1q0 0.3 0.1 0.5 0.1 0.2 0.3 0.3l0.5 0.3c0.2 0.1 0.4 0 0.4-0.3v-2.1q0-0.2-0.1-0.4-0.1-0.2-0.3-0.4l-0.5-0.2c-0.2-0.2-0.4-0.1-0.4 0.2z"/>
	<path id="Layer" class="s7" d="m67.4 73.2v2.2q0.1 0.2 0.2 0.4 0.1 0.2 0.3 0.3l0.5 0.3q0 0 0.1 0.1 0.1 0 0.2-0.1 0 0 0.1-0.1 0-0.1 0-0.2v-2.1q0-0.2-0.1-0.4-0.1-0.2-0.3-0.4l-0.5-0.2q-0.1-0.1-0.2-0.1 0 0-0.1 0-0.1 0.1-0.1 0.2-0.1 0-0.1 0.1z"/>
	<path id="Layer" class="s7" d="m69.6 74.5v2.1q0.1 0.2 0.2 0.4 0.1 0.2 0.3 0.4l0.5 0.3c0.2 0.1 0.4 0 0.4-0.3v-2.1q0-0.2-0.1-0.4-0.1-0.2-0.3-0.4l-0.5-0.3c-0.3-0.1-0.5 0-0.5 0.3z"/>
	<path id="Layer" class="s2" d="m71.8 75.8v2.1q0 0.2 0.2 0.4 0.1 0.2 0.3 0.3l0.5 0.3c0.2 0.2 0.4 0 0.4-0.2v-2.2q0-0.2-0.1-0.4-0.2-0.2-0.3-0.3l-0.5-0.3c-0.3-0.1-0.5 0-0.5 0.3z"/>
	<path id="Layer" class="s7" d="m74 77v2.1q0 0.2 0.1 0.4 0.1 0.2 0.3 0.4l0.5 0.3c0.3 0.1 0.4 0 0.4-0.3v-2.1q0-0.2-0.1-0.4-0.1-0.2-0.3-0.3l-0.5-0.3c-0.2-0.2-0.4-0.1-0.4 0.2z"/>
	<path id="Layer" class="s2" d="m81.3 77.9l1-0.6q0.4-0.1 0.7-0.1 0.4 0.1 0.7 0.3 0.8 0.5 1.3 1.4 0.5 0.8 0.5 1.8 0.1 0.4-0.1 0.7-0.1 0.3-0.4 0.5l-0.9 0.6-0.2-0.3q-0.3-0.1-0.5-0.2-0.9-0.6-1.4-1.4-0.5-0.9-0.5-1.9 0-0.2 0-0.5z"/>
	<path id="Layer" class="s10" d="m81.3 77.9l1-0.6q0.4-0.1 0.7-0.1 0.4 0.1 0.7 0.3 0.8 0.5 1.3 1.4 0.5 0.8 0.5 1.8 0.1 0.4-0.1 0.7-0.1 0.3-0.4 0.5l-0.9 0.6-0.2-0.3q-0.3-0.1-0.5-0.2-0.9-0.6-1.4-1.4-0.5-0.9-0.5-1.9 0-0.2 0-0.5z"/>
	<path id="Layer" class="s2" d="m82.7 78q0.8 0.5 1.3 1.4 0.5 0.9 0.6 1.9c0 1.2-0.9 1.6-1.9 1q-0.8-0.5-1.3-1.4-0.5-0.8-0.6-1.8c0-1.2 0.9-1.7 1.9-1.1z"/>
	<path id="Layer" class="s2" d="m89.5 82.6l1-0.5q0.3-0.2 0.7-0.2 0.3 0.1 0.6 0.3 0.9 0.5 1.4 1.4 0.4 0.9 0.5 1.8 0 0.4-0.1 0.7-0.2 0.4-0.4 0.6l-1 0.5-0.1-0.3q-0.3 0-0.6-0.2-0.8-0.5-1.3-1.4-0.5-0.9-0.6-1.9 0-0.2 0.1-0.4z"/>
	<path id="Layer" class="s10" d="m89.5 82.6l1-0.5q0.3-0.2 0.7-0.2 0.3 0.1 0.6 0.3 0.9 0.5 1.4 1.4 0.4 0.9 0.5 1.8 0 0.4-0.1 0.7-0.2 0.4-0.4 0.6l-1 0.5-0.1-0.3q-0.3 0-0.6-0.2-0.8-0.5-1.3-1.4-0.5-0.9-0.6-1.9 0-0.2 0.1-0.4z"/>
	<path id="Layer" class="s2" d="m90.9 82.7q0.8 0.6 1.3 1.4 0.5 0.9 0.5 1.9c0 1.2-0.8 1.7-1.8 1.1q-0.9-0.6-1.4-1.4-0.4-0.9-0.5-1.9c0-1.2 0.8-1.7 1.9-1.1z"/>
	<path id="Layer" class="s2" d="m126.9 253.6c0.1 1.3 0.5 2.6 1.2 3.7 0.7 1.2 1.6 2.1 2.7 2.8l110.3 63.7c1.3 0.6 2.6 1 4 1 1.3 0 2.7-0.4 3.9-1l150.9-87.1c1.2-0.6 2.2-1.6 2.9-2.7 0.7-1.2 1.1-2.5 1.1-3.9 0-1.3-0.4-2.6-1.1-3.8-0.7-1.1-1.7-2.1-2.9-2.7l-110.3-63.7c-1.2-0.6-2.5-0.9-3.9-0.9-1.4 0-2.7 0.3-3.9 0.9l-151 87.2c-1.1 0.7-2 1.6-2.7 2.8-0.7 1.1-1.1 2.4-1.2 3.7z"/>
	<path id="Layer" class="s11" d="m245.1 316.2v8.6c-1.4 0-2.7-0.3-4-1l-110.3-63.7c-1.1-0.6-2.1-1.5-2.8-2.6-0.7-1.1-1-2.4-1.1-3.7 0-1.3 0.3-2.5 0.9-3.7 0.6-1.1 1.5-2.1 2.6-2.8-1.7 1.3-1.6 3.1 0.4 4.3l110.3 63.7c1.2 0.6 2.6 1 4 0.9z"/>
	<path id="Layer" class="s2" d="m123.2 247.2c-1.1-0.7-2-1.7-2.6-2.9-0.7-1.2-1-2.4-1.1-3.8v-131.6c0.1-1.4 0.5-2.7 1.2-3.9 0.7-1.2 1.6-2.2 2.8-2.9l150.9-87.1c1.1-0.7 2.4-1.1 3.8-1.1 1.3 0 2.6 0.3 3.8 1 1.2 0.6 2.1 1.6 2.8 2.8 0.6 1.2 0.9 2.5 0.9 3.8v131.6c-0.1 1.4-0.5 2.7-1.2 3.9-0.6 1.2-1.6 2.2-2.7 2.9l-150.9 87.2c-1.2 0.6-2.5 0.9-3.8 0.9-1.4 0.1-2.7-0.2-3.9-0.8z"/>
	<path id="Layer" class="s11" d="m130.4 247.3c-1.2 0.6-2.4 0.9-3.7 0.9-1.3-0.1-2.6-0.5-3.7-1.1-1.1-0.7-2-1.7-2.6-2.8-0.6-1.2-0.9-2.5-0.9-3.8v-131.6c0.1-1.4 0.5-2.7 1.2-3.9l7.4 4.3c-0.7 1.2-1.1 2.5-1.2 3.9v131.6c0 2.3 1.5 3.4 3.5 2.5z"/>
	<path id="Layer" class="s12" d="m126.9 113.2v131.6c0 2.5 1.8 3.5 3.9 2.3l151-87.2c1.1-0.7 2.1-1.7 2.7-2.9 0.7-1.2 1.1-2.5 1.2-3.9v-131.6c0-2.5-1.8-3.5-3.9-2.3l-151 87.1c-1.1 0.8-2.1 1.8-2.7 3-0.7 1.2-1.1 2.5-1.2 3.9z"/>
	<path id="Layer" class="s2" d="m130.8 251.6l110.3 63.7c1.3 0.6 2.6 0.9 4 0.9 1.3 0 2.7-0.3 3.9-0.9l150.9-87.1c2.2-1.3 2.2-3.3 0-4.6l-110.3-63.7c-1.2-0.6-2.5-0.9-3.9-0.9-1.4 0-2.7 0.3-3.9 0.9l-151 87.2c-2.1 1.2-2.1 3.3 0 4.5z"/>
	<path id="Layer" class="s4" d="m130.8 251.6l110.3 63.7c1.3 0.6 2.6 0.9 4 0.9 1.3 0 2.7-0.3 3.9-0.9l150.9-87.1c2.2-1.3 2.2-3.3 0-4.6l-110.3-63.7c-1.2-0.6-2.5-0.9-3.9-0.9-1.4 0-2.7 0.3-3.9 0.9l-151 87.2c-2.1 1.2-2.1 3.3 0 4.5z"/>
	<path id="Layer" class="s9" d="m133 113.7l145.5-84c1.3-0.8 2.4-0.2 2.4 1.3v114c-0.1 0.8-0.3 1.6-0.7 2.3-0.4 0.7-1 1.3-1.7 1.8l-145.5 84c-1.3 0.7-2.4 0.1-2.4-1.4v-114c0.1-0.8 0.3-1.6 0.7-2.3 0.4-0.7 1-1.3 1.7-1.7z"/>
	<path id="Layer" class="s2" d="m143.7 248.2l140-80.9q1-0.4 2-0.4 1 0 2 0.4l7.1 4.2q0.4 0.1 0.6 0.4 0.3 0.3 0.3 0.7 0 0.4-0.3 0.7-0.2 0.3-0.6 0.4l-140.1 80.9q-0.9 0.5-1.9 0.5-1.1 0-2-0.5l-7.1-4.1q-0.4-0.2-0.6-0.5-0.3-0.3-0.3-0.7 0-0.3 0.3-0.7 0.2-0.3 0.6-0.4z"/>
	<path id="Layer" class="s12" d="m143.7 248.2l140-80.9q1-0.4 2-0.4 1 0 2 0.4l7.1 4.2q0.4 0.1 0.6 0.4 0.3 0.3 0.3 0.7 0 0.4-0.3 0.7-0.2 0.3-0.6 0.4l-140.1 80.9q-0.9 0.5-1.9 0.5-1.1 0-2-0.5l-7.1-4.1q-0.4-0.2-0.6-0.5-0.3-0.3-0.3-0.7 0-0.3 0.3-0.7 0.2-0.3 0.6-0.4z"/>
	<path id="Layer" class="s2" d="m162.1 258.9l140.1-80.9q0.9-0.5 2-0.5 1 0 1.9 0.5l44.1 25.4q0.4 0.2 0.6 0.5 0.2 0.3 0.2 0.7 0 0.4-0.2 0.7-0.2 0.3-0.6 0.4l-139.9 80.8q-0.9 0.4-2 0.4-1 0-2-0.4l-44.2-25.4q-0.3-0.1-0.6-0.4-0.2-0.3-0.2-0.7 0-0.4 0.2-0.7 0.3-0.3 0.6-0.4z"/>
	<path id="Layer" class="s12" d="m162.1 258.9l140.1-80.9q0.9-0.5 2-0.5 1 0 1.9 0.5l44.1 25.4q0.4 0.2 0.6 0.5 0.2 0.3 0.2 0.7 0 0.4-0.2 0.7-0.2 0.3-0.6 0.4l-139.9 80.8q-0.9 0.4-2 0.4-1 0-2-0.4l-44.2-25.4q-0.3-0.1-0.6-0.4-0.2-0.3-0.2-0.7 0-0.4 0.2-0.7 0.3-0.3 0.6-0.4z"/>
	<path id="Layer" fill-rule="evenodd" class="s2" d="m287.3 214.4q-0.2 0-0.3-0.1l-5.1-2.9c-0.2-0.1-0.2-0.3 0-0.4l4.4-2.5q0.2-0.1 0.4-0.1 0.1 0 0.3 0.1l5.1 2.9c0.1 0.2 0.2 0.3 0 0.4l-4.4 2.6q-0.2 0-0.4 0zm-8-10.2q0.2 0 0.4 0.1l5.1 2.9c0.1 0.2 0.2 0.3 0 0.4l-4.4 2.6q-0.2 0.1-0.4 0.1-0.2 0-0.3-0.1l-5.1-3c-0.2-0.1-0.2-0.3 0-0.4l4.4-2.5q0.2-0.1 0.3-0.1zm-14.4 8.3q0.1-0.1 0.3-0.1 0.2 0 0.3 0.1l5.1 2.9c0.2 0.1 0.2 0.3 0 0.4l-7.4 4.3q-0.2 0.1-0.4 0.1-0.2 0-0.3-0.1l-5.1-2.9c-0.2-0.1-0.2-0.3 0-0.4l7.4-4.3zm7.8-4.5q0.2-0.1 0.3-0.1 0.2 0 0.4 0.1l5 2.9c0.2 0.2 0.2 0.3 0 0.5l-4.4 2.5q-0.1 0.1-0.3 0.1-0.2 0-0.4-0.1l-5-3c-0.2-0.1-0.2-0.3 0-0.3l4.4-2.6zm-16.9 9.9q0.2 0 0.4 0.1l5 2.9c0.2 0.1 0.2 0.3 0 0.4l-4.4 2.5q-0.2 0.1-0.3 0.1-0.2 0-0.4-0.1l-5.1-2.9c-0.1-0.1-0.1-0.3 0-0.4l4.5-2.5q0.1-0.1 0.3-0.1zm-6.8 3.8q0.2-0.1 0.4-0.1 0.2 0 0.4 0.1l5 2.9c0.2 0.1 0.2 0.3 0 0.4l-4.4 2.6q-0.1 0.1-0.3 0.1-0.2 0-0.4-0.1l-5-3c-0.2-0.1-0.2-0.3 0-0.4l4.3-2.5zm19.7 12q-0.2 0-0.4-0.1l-5-2.9c-0.2-0.1-0.2-0.3 0-0.4l4.4-2.6q0.1 0 0.3 0 0.2 0 0.4 0l5 3c0.2 0.1 0.2 0.3 0 0.4l-4.4 2.5q-0.1 0.1-0.3 0.1zm-6.1 3.6q-0.2 0.1-0.3 0.1-0.2 0-0.4-0.1l-5-2.9c-0.2-0.1-0.2-0.3 0-0.4l4.4-2.6q0.1 0 0.3 0 0.2 0 0.4 0l5 3c0.2 0.1 0.2 0.3 0 0.4l-4.4 2.5zm-6.4 3.8q-0.1 0-0.3 0-0.2 0-0.3-0.1l-5.1-2.9c-0.2-0.1-0.2-0.3 0-0.4l4.4-2.6q0.2 0 0.3 0 0.2 0 0.4 0l5.1 3c0.1 0.1 0.1 0.3 0 0.4l-4.4 2.5zm-6.4 3.7q-0.2 0.1-0.4 0.1-0.2 0-0.4-0.1l-5-3c-0.2-0.1-0.2-0.3 0-0.4l4.3-2.5q0.2-0.1 0.4-0.1 0.2 0 0.3 0.1l5.2 2.9c0.2 0.2 0.2 0.3 0 0.4l-4.4 2.6zm31.6-26.6q-0.2 0.1-0.4 0.1-0.1 0-0.3-0.1l-5-2.9c-0.2-0.2-0.2-0.3 0-0.4l4.3-2.6q0.2-0.1 0.4-0.1 0.2 0 0.3 0.1l5.1 3c0.2 0.1 0.2 0.2 0 0.4l-4.4 2.5zm-5.9 11.8q-0.2 0.1-0.4 0.1-0.2 0-0.4-0.1l-5.1-3c-0.2-0.1-0.2-0.3 0-0.4l4.1-2.3c0.2-0.1 0.2-0.3 0-0.4l-6.6-3.8c-0.1-0.1-0.1-0.3 0-0.4l5.2-2.9q0.2-0.1 0.4-0.1 0.1 0 0.3 0.1l12.3 7.1c0.2 0.1 0.2 0.3 0 0.4l-9.7 5.7zm-32.8-4.5q0.2-0.1 0.4-0.1 0.2 0 0.3 0.1l5.1 2.9c0.2 0.1 0.2 0.3 0 0.4l-4.4 2.5q-0.1 0.1-0.3 0.1-0.2 0-0.4-0.1l-5-2.9c-0.2-0.1-0.2-0.3 0-0.4l4.3-2.5zm-6.4 3.7q0.2-0.1 0.4-0.1 0.2 0 0.4 0.1l5 2.9c0.2 0.1 0.2 0.3 0 0.4l-4.3 2.5q-0.2 0.1-0.4 0.1-0.2 0-0.3-0.1l-5.1-2.9c-0.2-0.1-0.2-0.3 0-0.4l4.4-2.5zm-37.1 38.5c-0.1-0.1-0.1-0.3 0-0.4l4.4-2.5q0.2-0.1 0.4-0.1 0.2 0 0.3 0.1l5.1 2.9c0.2 0.1 0.2 0.3 0 0.4l-4.4 2.6q-0.1 0.1-0.3 0.1-0.2 0-0.4-0.1zm-13.9-9.1q0.2 0 0.4 0.1l5.1 3c0.1 0.1 0.2 0.2 0 0.3l-4.4 2.6q-0.2 0.1-0.4 0.1-0.2 0-0.3-0.1l-5.1-3c-0.2-0.1-0.2-0.3 0-0.4l4.4-2.5q0.1-0.1 0.3-0.1zm4.9 5.8c-0.2-0.1-0.2-0.2 0-0.4l4.4-2.5q0.2-0.1 0.4-0.1 0.1 0 0.3 0.1l5.1 3c0.2 0.1 0.2 0.2 0 0.4l-4.4 2.5q-0.2 0.1-0.4 0.1-0.1 0-0.3-0.1zm25 8.5q-0.2 0-0.4-0.1l-5-2.9c-0.2-0.2-0.2-0.3 0-0.5l4.4-2.5q0.1-0.1 0.3-0.1 0.2 0 0.4 0.1l5 2.9c0.2 0.2 0.2 0.4 0 0.5l-4.4 2.5q-0.1 0.1-0.3 0.1zm-11.8 0.7c-0.2-0.2-0.2-0.3 0-0.4l4.3-2.6q0.2-0.1 0.4-0.1 0.2 0 0.3 0.1l5.1 2.9c0.2 0.2 0.2 0.3 0 0.4l-4.4 2.6q-0.1 0.1-0.3 0.1-0.2 0-0.4-0.1zm-11.6-18.7q0.2 0 0.4 0.1l5 2.9c0.2 0.2 0.2 0.3 0 0.4l-4.4 2.6q-0.1 0.1-0.3 0.1-0.2 0-0.4-0.1l-5-3c-0.2-0.1-0.2-0.3 0-0.4l4.4-2.5q0.1-0.1 0.3-0.1zm31.7-18.4q0.2-0.1 0.4-0.1 0.2 0 0.3 0.1l5.1 2.9c0.2 0.1 0.2 0.3 0 0.4l-4.4 2.5q-0.1 0.1-0.3 0.1-0.2 0-0.4-0.1l-5-2.9c-0.2-0.1-0.2-0.3 0-0.4l4.3-2.5zm-25.6 14.8q0.1-0.1 0.3-0.1 0.2 0.1 0.4 0.2l5 2.9c0.2 0.1 0.2 0.3 0 0.4l-4.3 2.5q-0.2 0.1-0.4 0.1-0.2 0-0.3-0.1l-5.1-2.9c-0.2-0.1-0.2-0.3 0-0.4l4.4-2.5zm32-18.6q0.2 0 0.4 0 0.2 0 0.3 0.1l5.1 2.9c0.2 0.1 0.2 0.3 0 0.4l-4.4 2.5q-0.2 0.1-0.3 0.1-0.2 0-0.4-0.1l-5.1-2.9c-0.1-0.1-0.1-0.3 0-0.4l4.4-2.5zm-12.4 7.3q0.2 0 0.4 0.1l5 2.9c0.2 0.1 0.2 0.3 0 0.4l-4.4 2.6q-0.1 0-0.3 0-0.2 0-0.4 0l-5-3c-0.2-0.1-0.2-0.3 0-0.4l4.4-2.5q0.1-0.1 0.3-0.1zm-6.8 3.8q0.2-0.1 0.4-0.1 0.2 0 0.4 0.1l5 2.9c0.2 0.1 0.2 0.3 0 0.4l-4.4 2.6q-0.1 0-0.3 0-0.2 0-0.4 0l-5-3c-0.2-0.1-0.2-0.3 0-0.4l4.3-2.5zm-6.4 3.7q0.2-0.1 0.4-0.1 0.2 0 0.4 0.1l5.1 2.9c0.1 0.1 0.1 0.3 0 0.4l-4.4 2.6q-0.2 0-0.4 0-0.2 0-0.3 0l-5.1-3c-0.2-0.1-0.2-0.3 0-0.4l4.4-2.5zm32.8 4.5q-0.2 0.1-0.4 0-0.2 0-0.3-0.1l-5.1-2.8c-0.1-0.2-0.1-0.3 0-0.4l4.4-2.6q0.2-0.1 0.4-0.1 0.2 0 0.3 0.1l5.1 3c0.2 0.1 0.2 0.3 0 0.4l-4.4 2.5zm56.3-55.9q0.2-0.1 0.4-0.1 0.2 0 0.3 0.1l5.1 2.9c0.2 0.1 0.2 0.3 0 0.4l-4.4 2.5q-0.1 0.1-0.3 0.1-0.2 0-0.4-0.1l-5-2.9c-0.2-0.1-0.2-0.3 0-0.4l4.4-2.5zm-7.8 4.4q0.2-0.1 0.4-0.1 0.2 0.1 0.3 0.2l5.1 2.9c0.2 0.1 0.2 0.3 0 0.4l-4.4 2.5q-0.1 0.1-0.3 0.1-0.2 0-0.4-0.1l-5-2.9c-0.2-0.1-0.2-0.3 0-0.4l4.3-2.6zm14.2-8.1q0.2-0.1 0.4-0.1 0.1 0 0.3 0.1l5.1 2.9c0.2 0.1 0.2 0.3 0 0.4l-4.4 2.6q-0.2 0-0.4 0-0.1 0-0.3 0l-5.1-3c-0.1-0.1-0.2-0.3 0-0.4l4.5-2.5zm-33.2 34.2q-0.2 0-0.3 0-0.2 0-0.4 0l-5-3c-0.2-0.1-0.2-0.2 0-0.4l4.3-2.5q0.2-0.1 0.4-0.1 0.2 0 0.3 0.1l5.1 2.9c0.2 0.2 0.2 0.3 0 0.4l-4.4 2.6zm45.4-35c0.2 0.1 0.2 0.3 0 0.4l-4.3 2.5q-0.2 0.1-0.4 0.1-0.2 0-0.3-0.1l-5.1-2.9c-0.2-0.1-0.2-0.3 0-0.4l4.4-2.5q0.1-0.1 0.3-0.1 0.2 0 0.4 0.1zm-68.5 56.7q-0.2 0.1-0.4 0.1-0.2-0.1-0.4-0.2l-5-2.9c-0.2-0.1-0.2-0.3 0-0.4l4.4-2.5q0.2-0.1 0.4-0.1 0.2 0 0.3 0.1l5.1 2.9c0.2 0.2 0.2 0.3 0 0.4l-4.4 2.6zm78.3-45.3q-0.2 0-0.4-0.1l-5.1-2.9c-0.1-0.1-0.1-0.3 0-0.4l4.4-2.5q0.2-0.1 0.4-0.1 0.2 0 0.3 0.1l5.1 2.9c0.2 0.1 0.2 0.3 0 0.4l-4.4 2.5q-0.2 0.1-0.3 0.1zm-13.3-0.6q-0.2 0.1-0.4 0.1-0.2 0-0.3-0.1l-5.1-2.9c-0.2-0.1-0.2-0.3 0-0.4l4.4-2.5q0.1-0.1 0.3-0.1 0.2 0 0.4 0.1l5 2.9c0.2 0.1 0.2 0.3 0 0.4l-4.3 2.5zm10.7-6.6c0.2 0.1 0.2 0.3 0 0.4l-4.4 2.6q-0.1 0.1-0.3 0.1-0.2 0-0.4-0.1l-5-3c-0.2-0.1-0.2-0.3 0-0.4l4.4-2.5q0.1-0.1 0.3-0.1 0.2 0 0.4 0.1zm-3.8-3.7c-0.2-0.2-0.2-0.3 0-0.4l4.4-2.5q0.2-0.1 0.4-0.1 0.1 0 0.3 0.1l12.3 7.1c0.2 0.1 0.2 0.3 0 0.4l-4.4 2.5q-0.1 0.1-0.3 0.1-0.2 0-0.4-0.1l-12.3-7.1zm-14.8 8.2q0.1-0.1 0.3-0.1 0.2 0 0.4 0.1l5 2.9c0.2 0.1 0.2 0.3 0 0.4l-4.4 2.6q-0.1 0-0.3 0-0.2 0-0.4 0l-5-3c-0.2-0.1-0.2-0.3 0-0.4l4.4-2.5zm-47.9 27.8q0.1 0 0.3 0l5.1 3c0.2 0.1 0.2 0.3 0 0.4l-4.4 2.5q-0.2 0.1-0.4 0.1-0.1 0-0.3-0.1l-5.1-2.9c-0.1-0.1-0.2-0.3 0-0.4l4.4-2.6q0.2 0 0.4 0zm57.1-24.4c-0.1-0.1-0.1-0.3 0-0.4l4.4-2.5q0.2-0.1 0.4-0.1 0.2 0 0.3 0.1l5.1 2.9c0.2 0.1 0.2 0.3 0 0.4l-4.4 2.5q-0.1 0.1-0.3 0.1-0.2 0-0.4-0.1zm-50.8 20.7q0.2 0 0.4 0.1l5.1 2.9c0.1 0.1 0.2 0.3 0 0.4l-4.4 2.5q-0.2 0.1-0.4 0.1-0.2 0-0.3-0.1l-5.1-2.9c-0.2-0.1-0.2-0.3 0-0.4l4.4-2.5q0.2-0.1 0.3-0.1zm-53.4 39.5c-0.2-0.1-0.2-0.3 0-0.4l4.3-2.5q0.2-0.1 0.4-0.1 0.2 0 0.3 0.1l5.1 2.9c0.2 0.1 0.2 0.3 0 0.4l-4.3 2.6q-0.2 0-0.4 0-0.2 0-0.3 0zm-4.2-6.3q0.1 0 0.3 0.1l5.1 2.9c0.2 0.1 0.2 0.3 0 0.4l-4.4 2.6q-0.2 0-0.4 0-0.1 0-0.3 0l-5.1-3c-0.1-0.1-0.2-0.3 0-0.4l4.4-2.5q0.2-0.1 0.4-0.1zm16 5.6q-0.2 0-0.3-0.1l-5.1-2.9c-0.2-0.2-0.2-0.3 0-0.4l4.4-2.6q0.2-0.1 0.3-0.1 0.2 0 0.4 0.1l5 2.9c0.2 0.2 0.2 0.3 0 0.4l-4.3 2.6q-0.2 0.1-0.4 0.1zm6.4-3.7q-0.2 0-0.3-0.1l-5.1-2.9c-0.2-0.2-0.2-0.3 0-0.5l4.4-2.5q0.2-0.1 0.3-0.1 0.2 0 0.4 0.1l5.1 2.9c0.1 0.2 0.1 0.3 0 0.4l-4.4 2.6q-0.2 0.1-0.4 0.1zm6.4-3.7q-0.2 0-0.3-0.1l-5.1-2.9c-0.2-0.2-0.2-0.3 0-0.5l4.4-2.5q0.2-0.1 0.4-0.1 0.1 0 0.3 0.1l5.1 2.9c0.1 0.2 0.2 0.3 0 0.4l-4.4 2.6q-0.2 0.1-0.4 0.1zm-22.4-1.9q0.1 0 0.3 0.1l5.1 2.9c0.2 0.1 0.2 0.3 0 0.4l-4.4 2.6q-0.2 0-0.3 0-0.2 0-0.4 0l-5.1-3c-0.1-0.1-0.2-0.3 0-0.4l4.4-2.5q0.2-0.1 0.4-0.1zm6.4-3.7q0.2 0 0.3 0.1l5.1 2.9c0.2 0.1 0.2 0.3 0 0.4l-4.4 2.6q-0.2 0-0.3 0-0.2 0-0.4 0l-5.1-3c-0.1-0.1-0.1-0.3 0-0.4l4.4-2.5q0.2-0.1 0.4-0.1zm25.6-14.8q0.2 0 0.4 0.1l5 2.9c0.2 0.1 0.2 0.3 0 0.4l-4.3 2.5q-0.2 0.1-0.4 0.1-0.2 0-0.3-0.1l-5.1-2.9c-0.2-0.1-0.2-0.3 0-0.4l4.4-2.5q0.1-0.1 0.3-0.1zm-6.7 3.8q0.1-0.1 0.3-0.1 0.2 0 0.4 0.1l5 2.9c0.2 0.1 0.2 0.3 0 0.4l-4.4 2.5q-0.1 0.1-0.3 0.1-0.2 0-0.4-0.1l-5-2.9c-0.2-0.1-0.2-0.3 0-0.4l4.4-2.5zm13.1-7.5q0.2 0 0.3 0.1l5.1 2.9c0.2 0.1 0.2 0.3 0 0.4l-4.4 2.5q-0.1 0.1-0.3 0.1-0.2 0-0.4-0.1l-5-2.9c-0.2-0.1-0.2-0.3 0-0.4l4.4-2.5q0.1-0.1 0.3-0.1zm-25.6 14.8q0.1 0 0.3 0.1l5.1 2.9c0.2 0.1 0.2 0.3 0 0.4l-4.4 2.6q-0.2 0-0.4 0-0.1 0-0.3 0l-5.1-3c-0.1-0.1-0.2-0.3 0-0.4l4.4-2.5q0.2-0.1 0.4-0.1zm6-3.6q0.2-0.1 0.4-0.1 0.2 0 0.3 0.1l5.1 2.9c0.2 0.1 0.2 0.3 0 0.4l-4.4 2.6q-0.2 0-0.3 0-0.2 0-0.4 0l-5.1-3c-0.1-0.1-0.1-0.3 0-0.4l4.4-2.5zm-5 26.2q-0.2 0-0.4-0.1l-5-2.9c-0.2-0.2-0.2-0.3 0-0.5l4.4-2.5q0.1-0.1 0.3-0.1 0.2 0 0.4 0.1l5 2.9c0.2 0.2 0.2 0.3 0 0.5l-4.4 2.5q-0.1 0.1-0.3 0.1zm-37.3-3.5l-4.4 2.5q-0.1 0.1-0.3 0.1-0.2 0-0.4-0.1l-5-2.9c-0.2-0.1-0.2-0.3 0-0.4l4.4-2.5q0.1-0.1 0.3-0.1 0.2 0 0.4 0.1l5 2.9c0.2 0.1 0.2 0.3 0 0.4zm9.6 2.8l-6.7 3.9q-0.2 0.1-0.4 0.1-0.1 0-0.3-0.1l-5.1-2.9c-0.2-0.1-0.2-0.3 0-0.4l6.8-3.9q0.1-0.1 0.3-0.1 0.2 0 0.4 0.1l5 2.9c0.2 0.1 0.2 0.3 0 0.4zm-17.4-8.5l-5.4 3.1q-0.1 0.1-0.3 0.1-0.2 0-0.4-0.1l-5-2.9c-0.2-0.1-0.2-0.3 0-0.4l5.4-3.1q0.1-0.1 0.3-0.1 0.2 0 0.4 0.1l5 2.9c0.2 0.1 0.3 0.3 0 0.4zm-0.9-5.7c-0.2-0.1-0.2-0.3 0-0.4l4.4-2.5q0.2-0.1 0.3-0.1 0.2 0 0.4 0.1l5.1 2.9c0.1 0.1 0.2 0.3 0 0.4l-4.4 2.5q-0.2 0.1-0.4 0.1-0.2 0-0.3-0.1zm27.2 17.4l-8.4 4.9q-0.2 0.1-0.3 0.1-0.2 0-0.4-0.1l-5.1-2.9c-0.1-0.1-0.1-0.3 0-0.4l8.5-4.9q0.1-0.1 0.3-0.1 0.2 0 0.4 0.1l5 2.9c0.2 0.2 0.2 0.3 0 0.4zm4.2 5.6c0.3 0.1 0.3 0.3 0.1 0.4l-5.4 3.1q-0.2 0.1-0.4 0.1-0.2 0-0.3-0.1l-5.1-2.9c-0.2-0.1-0.2-0.3 0-0.4l5.4-3.1q0.1-0.1 0.3-0.1 0.2 0 0.4 0.1l5.1 2.9zm16.2-50.5c-0.2-0.1-0.2-0.3 0-0.4l4.3-2.5q0.2-0.1 0.4-0.1 0.2 0 0.3 0.1l5.1 2.9c0.2 0.1 0.2 0.3 0 0.4l-4.4 2.5q-0.1 0.1-0.3 0.1-0.2 0-0.4-0.1zm-12.8 7.5c-0.2-0.2-0.2-0.3 0-0.4l4.4-2.6q0.2-0.1 0.4-0.1 0.1 0 0.3 0.1l5.1 2.9c0.2 0.2 0.2 0.3 0 0.5l-4.4 2.5q-0.2 0.1-0.4 0.1-0.1 0-0.3-0.1zm-28.5 16.4c-0.1-0.1-0.2-0.3 0-0.4l4.4-2.5q0.2-0.1 0.4-0.1 0.1 0 0.3 0.1l5.1 2.9c0.2 0.1 0.2 0.3 0 0.4l-4.4 2.5q-0.2 0.1-0.3 0.1-0.2 0-0.4-0.1zm34.9-20.1c-0.2-0.1-0.2-0.3 0-0.4l4.4-2.6q0.1-0.1 0.3-0.1 0.2 0 0.4 0.1l5 3c0.2 0.1 0.2 0.3 0 0.4l-4.4 2.5q-0.1 0.1-0.3 0.1-0.2 0-0.4-0.1zm-12.7 7.4c-0.2-0.1-0.2-0.3 0-0.4l4.3-2.5q0.1-0.1 0.3-0.1 0.2 0 0.4 0.1l5.1 2.9c0.2 0.1 0.2 0.3 0 0.4l-4.4 2.5q-0.2 0.1-0.3 0.1-0.2 0-0.4-0.1zm11.6 42.8c0.1 0.1 0.2 0.3 0 0.4l-6.8 3.9q-0.1 0.1-0.3 0.1-0.2 0-0.4-0.1l-5-2.9c-0.2-0.1-0.2-0.3 0-0.4l6.7-3.9q0.2-0.1 0.4-0.1 0.1 0 0.3 0.1zm-20.8-37.5c-0.2-0.1-0.2-0.3 0-0.4l4.4-2.5q0.1-0.1 0.3-0.1 0.2 0 0.4 0.1l5 2.9c0.2 0.1 0.2 0.3 0 0.4l-4.3 2.6q-0.2 0-0.4 0-0.2 0-0.3 0zm-6.4 3.7c-0.2-0.2-0.2-0.3 0-0.4l4.3-2.6q0.2-0.1 0.4-0.1 0.2 0 0.3 0.1l5.1 2.9c0.2 0.2 0.2 0.3 0 0.4l-4.4 2.6q-0.1 0.1-0.3 0.1-0.2 0-0.4-0.1zm146-34.9c0.2 0.2 0.2 0.4 0 0.5l-10.8 6.2q-0.2 0.1-0.3 0.1-0.2 0-0.4-0.1l-5.1-2.9c-0.1-0.2-0.1-0.3 0-0.4l10.8-6.3q0.2-0.1 0.4-0.1 0.2 0 0.3 0.1zm-14.1 8.2c0.2 0.1 0.2 0.3 0 0.4l-4.4 2.5q-0.2 0.1-0.4 0.1-0.1 0-0.3-0.1l-5.1-2.9c-0.1-0.1-0.2-0.3 0-0.4l4.4-2.5q0.2-0.1 0.4-0.1 0.1 0 0.3 0.1zm-91.8 45.1q-0.2 0.1-0.4 0.1-0.2 0-0.4-0.1l-5.1-3c-0.1-0.1-0.1-0.3 0-0.4l4.4-2.5q0.2-0.1 0.4-0.1 0.2 0 0.3 0.1l5.1 2.9c0.2 0.1 0.2 0.3 0 0.4l-4.4 2.6zm79.1-37.8c0.1 0.1 0.1 0.3 0 0.4l-4.4 2.6q-0.2 0-0.4 0-0.2 0-0.3 0l-5.1-3c-0.2-0.1-0.2-0.3 0-0.4l4.4-2.5q0.2-0.1 0.3-0.1 0.2 0 0.4 0.1zm33.4-19.3c0.2 0.1 0.2 0.3 0 0.4l-4.3 2.6q-0.2 0-0.4 0-0.2 0-0.3 0l-5.1-3c-0.2-0.1-0.2-0.3 0-0.4l4.3-2.5q0.2-0.1 0.4-0.1 0.2 0 0.3 0.1zm6.5-3.7c0.2 0.1 0.2 0.3-0.1 0.3l-4.4 2.6q-0.1 0-0.3 0-0.2 0-0.4 0l-12.3-7.1c-0.2-0.2-0.2-0.3 0-0.4l4.4-2.6q0.2-0.1 0.3-0.1 0.2 0 0.4 0.1l12.3 7.1zm-63.8 36.8c0.2 0.1 0.2 0.3 0 0.4l-5.4 3.1q-0.2 0.1-0.3 0.1-0.2 0-0.4-0.1l-5.1-2.9c-0.1-0.1-0.1-0.3 0-0.4l5.4-3.1q0.2-0.1 0.4-0.1 0.2 0 0.3 0.1zm16.2-9.4c0.2 0.1 0.2 0.3 0 0.4l-6.7 3.9q-0.2 0.1-0.4 0.1-0.2 0-0.3-0.1l-5.1-2.9c-0.2-0.1-0.2-0.3 0-0.4l6.8-3.9q0.1-0.1 0.3-0.1 0.2 0 0.4 0.1zm-31 18c0.1 0.1 0.1 0.3 0 0.4l-36.1 20.8q-0.2 0.1-0.4 0.1-0.2 0-0.3-0.1l-5.1-2.9c-0.2-0.1-0.2-0.3 0-0.4l36.1-20.9q0.2-0.1 0.3-0.1 0.2 0 0.4 0.1zm-38.1 22c0.2 0.1 0.2 0.2 0 0.4l-5.4 3.1q-0.2 0.1-0.4 0.1-0.2 0-0.3-0.1l-5.1-2.9c-0.2-0.2-0.2-0.3 0-0.5l5.4-3.1q0.2-0.1 0.4-0.1 0.1 0 0.3 0.1zm45.5-26.3c0.2 0.1 0.2 0.3 0 0.4l-5.4 3.1q-0.1 0.1-0.3 0.1-0.2 0-0.4-0.1l-5-2.9c-0.2-0.1-0.2-0.3 0-0.4l5.4-3.1q0.1-0.1 0.3-0.1 0.2 0 0.4 0.1zm-53 30.6c0.2 0.1 0.2 0.3 0 0.4l-5.4 3.1q-0.2 0.1-0.4 0.1-0.2 0-0.3-0.1l-5.1-2.9c-0.2-0.1-0.2-0.3 0-0.4l5.4-3.2q0.2 0 0.4 0 0.1 0 0.3 0zm67.8-39.1c0.2 0.1 0.2 0.3 0 0.4l-5.4 3.1q-0.2 0.1-0.3 0.1-0.2 0-0.4-0.1l-5.1-2.9c-0.1-0.1-0.1-0.3 0-0.4l5.4-3.1q0.2-0.1 0.4-0.1 0.2 0 0.3 0.1zm23-13.3c0.2 0.1 0.2 0.3 0 0.4l-4.4 2.6q-0.2 0-0.4 0-0.1 0-0.3 0l-5.1-3c-0.1-0.1-0.2-0.3 0-0.4l4.4-2.5q0.2-0.1 0.4-0.1 0.1 0 0.3 0.1zm9-13.1q-0.1 0.1-0.3 0.1-0.2 0-0.4-0.1l-5-2.9c-0.2-0.2-0.2-0.3 0-0.4l4.3-2.6q0.1 0 0.3 0 0.2 0 0.4 0l5 2.9c0.2 0.1 0.2 0.3 0 0.4l-4.3 2.6zm-28.7-0.2q-0.2 0-0.4 0-0.2 0-0.4-0.1l-5-2.9c-0.2-0.1-0.2-0.3 0-0.4l4.3-2.5q0.2-0.1 0.4-0.1 0.2 0 0.3 0.1l5.1 2.9c0.2 0.1 0.2 0.3 0 0.4l-4.4 2.5zm-14.5 25.1q-0.2 0.1-0.4 0.1-0.2 0-0.4-0.1l-5-2.9c-0.2-0.2-0.2-0.3 0-0.4l12.8-7.4q0.1-0.1 0.3-0.1 0.2 0 0.4 0.1l5.1 2.9c0.1 0.1 0.1 0.3 0 0.4l-12.9 7.4zm31-24.2c-0.2-0.2-0.2-0.3 0-0.5l4.4-2.5q0.1-0.1 0.3-0.1 0.2 0 0.4 0.1l5 2.9c0.2 0.2 0.2 0.3 0 0.5l-4.4 2.5q-0.1 0.1-0.3 0.1-0.2 0-0.4-0.1zm-1.4-1.2q-0.2 0.1-0.4 0.1-0.1 0-0.3-0.1l-5.1-3c-0.1-0.1-0.2-0.3 0-0.4l4.4-2.5q0.1-0.1 0.3-0.1 0.2 0 0.4 0.1l5 2.9c0.2 0.1 0.2 0.3 0 0.4l-4.3 2.6zm-36 29.1q-0.2 0.1-0.4 0-0.2 0-0.4-0.1l-5-2.9c-0.2-0.1-0.2-0.3 0-0.4l4.4-2.5q0.1-0.1 0.3-0.1 0.2 0 0.4 0.1l5 2.9c0.2 0.1 0.2 0.3 0 0.4l-4.4 2.5zm23.2-19.7c-0.2-0.1-0.2-0.3 0-0.4l4.4-2.6q0.2-0.1 0.4-0.1 0.1 0 0.3 0.1l5.1 3c0.1 0.1 0.2 0.3 0 0.4l-4.4 2.5q-0.2 0.1-0.4 0.1-0.2 0-0.3-0.1zm-55.6 38.3q-0.2 0-0.4-0.1l-5-2.9c-0.2-0.1-0.2-0.3 0-0.4l4.4-2.5q0.1-0.1 0.3-0.1 0.2 0 0.4 0.1l5 2.9c0.2 0.1 0.2 0.3 0 0.4l-4.3 2.5q-0.2 0.1-0.4 0.1zm6.4-3.7q-0.2 0.1-0.4 0l-5-3c-0.2-0.1-0.2-0.2 0-0.4l4.4-2.5q0.1-0.1 0.3-0.1 0.2 0 0.4 0.1l5 2.9c0.2 0.1 0.2 0.3 0 0.4l-4.3 2.5q-0.2 0.1-0.4 0.1zm-12.8 7.4q-0.2 0-0.4-0.1l-5-2.9c-0.2-0.1-0.2-0.3 0-0.4l4.3-2.5q0.2-0.1 0.4-0.1 0.2 0 0.3 0.1l5.1 2.9c0.2 0.1 0.2 0.3 0 0.4l-4.4 2.5q-0.1 0.1-0.3 0.1zm25.6-14.8q-0.2 0-0.3-0.1l-5.1-2.9c-0.2-0.1-0.2-0.3 0-0.4l4.4-2.6q0.1 0 0.3 0 0.2 0 0.4 0l5.1 3c0.1 0.1 0.2 0.3 0 0.4l-4.4 2.5q-0.2 0.1-0.4 0.1zm-6.4 3.7q-0.2 0-0.3-0.1l-5.1-2.9c-0.2-0.1-0.2-0.3 0-0.4l4.4-2.5q0.1-0.1 0.3-0.1 0.2 0 0.4 0.1l5.1 2.9c0.1 0.1 0.1 0.3 0 0.4l-4.4 2.5q-0.2 0.1-0.4 0.1zm12.9-7.4q-0.2 0-0.4-0.1l-5.1-2.9c-0.1-0.1-0.1-0.3 0-0.4l4.3-2.5q0.2-0.1 0.4-0.1 0.2 0 0.3 0.1l5.2 2.9c0.2 0.1 0.2 0.3 0 0.4l-4.4 2.5q-0.2 0.1-0.3 0.1zm28.3-55.6c-0.2-0.1-0.2-0.3 0-0.4l4.4-2.5q0.1-0.1 0.3-0.1 0.2 0 0.4 0.1l1.3 0.7c0.2 0.2 0.2 0.3 0 0.4l-4.4 2.6q-0.2 0.1-0.3 0.1-0.2 0-0.4-0.1zm-35.3 18.3c-0.1-0.1-0.1-0.3 0-0.4l4.4-2.6q0.2-0.1 0.4-0.1 0.2 0 0.3 0.1l5.1 2.9c0.2 0.1 0.2 0.3 0 0.4l-4.4 2.5q-0.1 0.1-0.3 0.1-0.2 0-0.4-0.1zm12.9-7.4c-0.2-0.1-0.2-0.3 0-0.4l4.4-2.6q0.1 0 0.3 0 0.2 0 0.4 0l5 3c0.2 0.1 0.2 0.3 0 0.4l-4.3 2.5q-0.2 0.1-0.4 0.1-0.2 0-0.3-0.1zm-20.7 11.9c-0.2-0.1-0.2-0.3 0-0.4l4.4-2.5q0.2-0.1 0.4-0.1 0.1 0 0.3 0.1l5.1 2.9c0.2 0.1 0.2 0.3 0 0.4l-4.4 2.5q-0.2 0.1-0.4 0.1-0.1 0-0.3-0.1zm14.3-8.2c-0.2-0.1-0.2-0.3 0-0.4l4.4-2.5q0.2-0.1 0.3-0.1 0.2 0 0.4 0.1l5.1 2.9c0.1 0.1 0.2 0.3 0 0.4l-4.4 2.5q-0.2 0.1-0.4 0.1-0.2 0-0.3-0.1zm-27.1 15.7c-0.2-0.1-0.2-0.3 0-0.4l4.4-2.6q0.2 0 0.3 0 0.2 0 0.4 0l5.1 3c0.1 0.1 0.2 0.3 0 0.4l-4.4 2.5q-0.2 0.1-0.3 0.1-0.2 0-0.4-0.1zm6.4-3.7c-0.1-0.1-0.1-0.3 0-0.4l4.4-2.5q0.2-0.1 0.4-0.1 0.2 0 0.3 0.1l5.1 2.9c0.2 0.1 0.2 0.3 0 0.4l-4.4 2.5q-0.2 0.1-0.3 0.1-0.2 0-0.4-0.1zm36.7-19c-0.2-0.1-0.2-0.3 0-0.4l4.4-2.6q0.1 0 0.3 0 0.2 0 0.4 0l1.3 0.8c0.2 0.1 0.2 0.3 0 0.4l-4.4 2.6q-0.1 0-0.3 0-0.2 0-0.4 0zm19.2-11.2c-0.2-0.1-0.2-0.2 0-0.4l4.4-2.5q0.2-0.1 0.3-0.1 0.2 0 0.4 0.1l1.4 0.8c0.2 0.1 0.2 0.3 0 0.4l-4.4 2.6q-0.1 0-0.3 0-0.2 0-0.4 0zm6.9 4c-0.1-0.1-0.2-0.3 0-0.4l4.5-2.6q0.1-0.1 0.3-0.1 0.2 0 0.4 0.1l5.1 3c0.2 0.1 0.2 0.3 0 0.4l-4.4 2.5q-0.2 0.1-0.3 0.1-0.2 0-0.4-0.1zm21.2 19.2q-0.2 0.1-0.4 0.1-0.1 0-0.3-0.1l-5.1-2.9c-0.1-0.1-0.1-0.3 0-0.4l4.4-2.6q0.2 0 0.4 0 0.2 0 0.3 0l5.1 3c0.2 0.1 0.2 0.3 0 0.4l-4.4 2.5zm-40.9-15.7c-0.1-0.2-0.2-0.3 0-0.4l4.5-2.6q0.1-0.1 0.3-0.1 0.2 0 0.4 0.1l1.3 0.8c0.2 0.1 0.2 0.3 0 0.4l-4.4 2.5q-0.1 0.1-0.3 0.1-0.2 0-0.4-0.1zm-55.8 30.1c-0.2-0.1-0.2-0.3 0-0.4l4.4-2.5q0.1-0.1 0.3-0.1 0.2 0 0.4 0.1l5 2.9c0.2 0.1 0.2 0.3 0 0.4l-4.3 2.6q-0.2 0-0.4 0-0.2 0-0.3 0z"/>
	<path id="Layer" fill-rule="evenodd" class="s13" d="m287.3 214.4q-0.2 0-0.3-0.1l-5.1-2.9c-0.2-0.1-0.2-0.3 0-0.4l4.4-2.5q0.2-0.1 0.4-0.1 0.1 0 0.3 0.1l5.1 2.9c0.1 0.2 0.2 0.3 0 0.4l-4.4 2.6q-0.2 0-0.4 0zm-8-10.2q0.2 0 0.4 0.1l5.1 2.9c0.1 0.2 0.2 0.3 0 0.4l-4.4 2.6q-0.2 0.1-0.4 0.1-0.2 0-0.3-0.1l-5.1-3c-0.2-0.1-0.2-0.3 0-0.4l4.4-2.5q0.2-0.1 0.3-0.1zm-14.4 8.3q0.1-0.1 0.3-0.1 0.2 0 0.3 0.1l5.1 2.9c0.2 0.1 0.2 0.3 0 0.4l-7.4 4.3q-0.2 0.1-0.4 0.1-0.2 0-0.3-0.1l-5.1-2.9c-0.2-0.1-0.2-0.3 0-0.4l7.4-4.3zm7.8-4.5q0.2-0.1 0.3-0.1 0.2 0 0.4 0.1l5 2.9c0.2 0.2 0.2 0.3 0 0.5l-4.4 2.5q-0.1 0.1-0.3 0.1-0.2 0-0.4-0.1l-5-3c-0.2-0.1-0.2-0.3 0-0.3l4.4-2.6zm-16.9 9.9q0.2 0 0.4 0.1l5 2.9c0.2 0.1 0.2 0.3 0 0.4l-4.4 2.5q-0.2 0.1-0.3 0.1-0.2 0-0.4-0.1l-5.1-2.9c-0.1-0.1-0.1-0.3 0-0.4l4.5-2.5q0.1-0.1 0.3-0.1zm-6.8 3.8q0.2-0.1 0.4-0.1 0.2 0 0.4 0.1l5 2.9c0.2 0.1 0.2 0.3 0 0.4l-4.4 2.6q-0.1 0.1-0.3 0.1-0.2 0-0.4-0.1l-5-3c-0.2-0.1-0.2-0.3 0-0.4l4.3-2.5zm19.7 12q-0.2 0-0.4-0.1l-5-2.9c-0.2-0.1-0.2-0.3 0-0.4l4.4-2.6q0.1 0 0.3 0 0.2 0 0.4 0l5 3c0.2 0.1 0.2 0.3 0 0.4l-4.4 2.5q-0.1 0.1-0.3 0.1zm-6.1 3.6q-0.2 0.1-0.3 0.1-0.2 0-0.4-0.1l-5-2.9c-0.2-0.1-0.2-0.3 0-0.4l4.4-2.6q0.1 0 0.3 0 0.2 0 0.4 0l5 3c0.2 0.1 0.2 0.3 0 0.4l-4.4 2.5zm-6.4 3.8q-0.1 0-0.3 0-0.2 0-0.3-0.1l-5.1-2.9c-0.2-0.1-0.2-0.3 0-0.4l4.4-2.6q0.2 0 0.3 0 0.2 0 0.4 0l5.1 3c0.1 0.1 0.1 0.3 0 0.4l-4.4 2.5zm-6.4 3.7q-0.2 0.1-0.4 0.1-0.2 0-0.4-0.1l-5-3c-0.2-0.1-0.2-0.3 0-0.4l4.3-2.5q0.2-0.1 0.4-0.1 0.2 0 0.3 0.1l5.2 2.9c0.2 0.2 0.2 0.3 0 0.4l-4.4 2.6zm31.6-26.6q-0.2 0.1-0.4 0.1-0.1 0-0.3-0.1l-5-2.9c-0.2-0.2-0.2-0.3 0-0.4l4.3-2.6q0.2-0.1 0.4-0.1 0.2 0 0.3 0.1l5.1 3c0.2 0.1 0.2 0.2 0 0.4l-4.4 2.5zm-5.9 11.8q-0.2 0.1-0.4 0.1-0.2 0-0.4-0.1l-5.1-3c-0.2-0.1-0.2-0.3 0-0.4l4.1-2.3c0.2-0.1 0.2-0.3 0-0.4l-6.6-3.8c-0.1-0.1-0.1-0.3 0-0.4l5.2-2.9q0.2-0.1 0.4-0.1 0.1 0 0.3 0.1l12.3 7.1c0.2 0.1 0.2 0.3 0 0.4l-9.7 5.7zm-32.8-4.5q0.2-0.1 0.4-0.1 0.2 0 0.3 0.1l5.1 2.9c0.2 0.1 0.2 0.3 0 0.4l-4.4 2.5q-0.1 0.1-0.3 0.1-0.2 0-0.4-0.1l-5-2.9c-0.2-0.1-0.2-0.3 0-0.4l4.3-2.5zm-6.4 3.7q0.2-0.1 0.4-0.1 0.2 0 0.4 0.1l5 2.9c0.2 0.1 0.2 0.3 0 0.4l-4.3 2.5q-0.2 0.1-0.4 0.1-0.2 0-0.3-0.1l-5.1-2.9c-0.2-0.1-0.2-0.3 0-0.4l4.4-2.5zm-37.1 38.5c-0.1-0.1-0.1-0.3 0-0.4l4.4-2.5q0.2-0.1 0.4-0.1 0.2 0 0.3 0.1l5.1 2.9c0.2 0.1 0.2 0.3 0 0.4l-4.4 2.6q-0.1 0.1-0.3 0.1-0.2 0-0.4-0.1zm-13.9-9.1q0.2 0 0.4 0.1l5.1 3c0.1 0.1 0.2 0.2 0 0.3l-4.4 2.6q-0.2 0.1-0.4 0.1-0.2 0-0.3-0.1l-5.1-3c-0.2-0.1-0.2-0.3 0-0.4l4.4-2.5q0.1-0.1 0.3-0.1zm4.9 5.8c-0.2-0.1-0.2-0.2 0-0.4l4.4-2.5q0.2-0.1 0.4-0.1 0.1 0 0.3 0.1l5.1 3c0.2 0.1 0.2 0.2 0 0.4l-4.4 2.5q-0.2 0.1-0.4 0.1-0.1 0-0.3-0.1zm25 8.5q-0.2 0-0.4-0.1l-5-2.9c-0.2-0.2-0.2-0.3 0-0.5l4.4-2.5q0.1-0.1 0.3-0.1 0.2 0 0.4 0.1l5 2.9c0.2 0.2 0.2 0.4 0 0.5l-4.4 2.5q-0.1 0.1-0.3 0.1zm-11.8 0.7c-0.2-0.2-0.2-0.3 0-0.4l4.3-2.6q0.2-0.1 0.4-0.1 0.2 0 0.3 0.1l5.1 2.9c0.2 0.2 0.2 0.3 0 0.4l-4.4 2.6q-0.1 0.1-0.3 0.1-0.2 0-0.4-0.1zm-11.6-18.7q0.2 0 0.4 0.1l5 2.9c0.2 0.2 0.2 0.3 0 0.4l-4.4 2.6q-0.1 0.1-0.3 0.1-0.2 0-0.4-0.1l-5-3c-0.2-0.1-0.2-0.3 0-0.4l4.4-2.5q0.1-0.1 0.3-0.1zm31.7-18.4q0.2-0.1 0.4-0.1 0.2 0 0.3 0.1l5.1 2.9c0.2 0.1 0.2 0.3 0 0.4l-4.4 2.5q-0.1 0.1-0.3 0.1-0.2 0-0.4-0.1l-5-2.9c-0.2-0.1-0.2-0.3 0-0.4l4.3-2.5zm-25.6 14.8q0.1-0.1 0.3-0.1 0.2 0.1 0.4 0.2l5 2.9c0.2 0.1 0.2 0.3 0 0.4l-4.3 2.5q-0.2 0.1-0.4 0.1-0.2 0-0.3-0.1l-5.1-2.9c-0.2-0.1-0.2-0.3 0-0.4l4.4-2.5zm32-18.6q0.2 0 0.4 0 0.2 0 0.3 0.1l5.1 2.9c0.2 0.1 0.2 0.3 0 0.4l-4.4 2.5q-0.2 0.1-0.3 0.1-0.2 0-0.4-0.1l-5.1-2.9c-0.1-0.1-0.1-0.3 0-0.4l4.4-2.5zm-12.4 7.3q0.2 0 0.4 0.1l5 2.9c0.2 0.1 0.2 0.3 0 0.4l-4.4 2.6q-0.1 0-0.3 0-0.2 0-0.4 0l-5-3c-0.2-0.1-0.2-0.3 0-0.4l4.4-2.5q0.1-0.1 0.3-0.1zm-6.8 3.8q0.2-0.1 0.4-0.1 0.2 0 0.4 0.1l5 2.9c0.2 0.1 0.2 0.3 0 0.4l-4.4 2.6q-0.1 0-0.3 0-0.2 0-0.4 0l-5-3c-0.2-0.1-0.2-0.3 0-0.4l4.3-2.5zm-6.4 3.7q0.2-0.1 0.4-0.1 0.2 0 0.4 0.1l5.1 2.9c0.1 0.1 0.1 0.3 0 0.4l-4.4 2.6q-0.2 0-0.4 0-0.2 0-0.3 0l-5.1-3c-0.2-0.1-0.2-0.3 0-0.4l4.4-2.5zm32.8 4.5q-0.2 0.1-0.4 0-0.2 0-0.3-0.1l-5.1-2.8c-0.1-0.2-0.1-0.3 0-0.4l4.4-2.6q0.2-0.1 0.4-0.1 0.2 0 0.3 0.1l5.1 3c0.2 0.1 0.2 0.3 0 0.4l-4.4 2.5zm56.3-55.9q0.2-0.1 0.4-0.1 0.2 0 0.3 0.1l5.1 2.9c0.2 0.1 0.2 0.3 0 0.4l-4.4 2.5q-0.1 0.1-0.3 0.1-0.2 0-0.4-0.1l-5-2.9c-0.2-0.1-0.2-0.3 0-0.4l4.4-2.5zm-7.8 4.4q0.2-0.1 0.4-0.1 0.2 0.1 0.3 0.2l5.1 2.9c0.2 0.1 0.2 0.3 0 0.4l-4.4 2.5q-0.1 0.1-0.3 0.1-0.2 0-0.4-0.1l-5-2.9c-0.2-0.1-0.2-0.3 0-0.4l4.3-2.6zm14.2-8.1q0.2-0.1 0.4-0.1 0.1 0 0.3 0.1l5.1 2.9c0.2 0.1 0.2 0.3 0 0.4l-4.4 2.6q-0.2 0-0.4 0-0.1 0-0.3 0l-5.1-3c-0.1-0.1-0.2-0.3 0-0.4l4.5-2.5zm-33.2 34.2q-0.2 0-0.3 0-0.2 0-0.4 0l-5-3c-0.2-0.1-0.2-0.2 0-0.4l4.3-2.5q0.2-0.1 0.4-0.1 0.2 0 0.3 0.1l5.1 2.9c0.2 0.2 0.2 0.3 0 0.4l-4.4 2.6zm45.4-35c0.2 0.1 0.2 0.3 0 0.4l-4.3 2.5q-0.2 0.1-0.4 0.1-0.2 0-0.3-0.1l-5.1-2.9c-0.2-0.1-0.2-0.3 0-0.4l4.4-2.5q0.1-0.1 0.3-0.1 0.2 0 0.4 0.1zm-68.5 56.7q-0.2 0.1-0.4 0.1-0.2-0.1-0.4-0.2l-5-2.9c-0.2-0.1-0.2-0.3 0-0.4l4.4-2.5q0.2-0.1 0.4-0.1 0.2 0 0.3 0.1l5.1 2.9c0.2 0.2 0.2 0.3 0 0.4l-4.4 2.6zm78.3-45.3q-0.2 0-0.4-0.1l-5.1-2.9c-0.1-0.1-0.1-0.3 0-0.4l4.4-2.5q0.2-0.1 0.4-0.1 0.2 0 0.3 0.1l5.1 2.9c0.2 0.1 0.2 0.3 0 0.4l-4.4 2.5q-0.2 0.1-0.3 0.1zm-13.3-0.6q-0.2 0.1-0.4 0.1-0.2 0-0.3-0.1l-5.1-2.9c-0.2-0.1-0.2-0.3 0-0.4l4.4-2.5q0.1-0.1 0.3-0.1 0.2 0 0.4 0.1l5 2.9c0.2 0.1 0.2 0.3 0 0.4l-4.3 2.5zm10.7-6.6c0.2 0.1 0.2 0.3 0 0.4l-4.4 2.6q-0.1 0.1-0.3 0.1-0.2 0-0.4-0.1l-5-3c-0.2-0.1-0.2-0.3 0-0.4l4.4-2.5q0.1-0.1 0.3-0.1 0.2 0 0.4 0.1zm-3.8-3.7c-0.2-0.2-0.2-0.3 0-0.4l4.4-2.5q0.2-0.1 0.4-0.1 0.1 0 0.3 0.1l12.3 7.1c0.2 0.1 0.2 0.3 0 0.4l-4.4 2.5q-0.1 0.1-0.3 0.1-0.2 0-0.4-0.1l-12.3-7.1zm-14.8 8.2q0.1-0.1 0.3-0.1 0.2 0 0.4 0.1l5 2.9c0.2 0.1 0.2 0.3 0 0.4l-4.4 2.6q-0.1 0-0.3 0-0.2 0-0.4 0l-5-3c-0.2-0.1-0.2-0.3 0-0.4l4.4-2.5zm-47.9 27.8q0.1 0 0.3 0l5.1 3c0.2 0.1 0.2 0.3 0 0.4l-4.4 2.5q-0.2 0.1-0.4 0.1-0.1 0-0.3-0.1l-5.1-2.9c-0.1-0.1-0.2-0.3 0-0.4l4.4-2.6q0.2 0 0.4 0zm57.1-24.4c-0.1-0.1-0.1-0.3 0-0.4l4.4-2.5q0.2-0.1 0.4-0.1 0.2 0 0.3 0.1l5.1 2.9c0.2 0.1 0.2 0.3 0 0.4l-4.4 2.5q-0.1 0.1-0.3 0.1-0.2 0-0.4-0.1zm-50.8 20.7q0.2 0 0.4 0.1l5.1 2.9c0.1 0.1 0.2 0.3 0 0.4l-4.4 2.5q-0.2 0.1-0.4 0.1-0.2 0-0.3-0.1l-5.1-2.9c-0.2-0.1-0.2-0.3 0-0.4l4.4-2.5q0.2-0.1 0.3-0.1zm-53.4 39.5c-0.2-0.1-0.2-0.3 0-0.4l4.3-2.5q0.2-0.1 0.4-0.1 0.2 0 0.3 0.1l5.1 2.9c0.2 0.1 0.2 0.3 0 0.4l-4.3 2.6q-0.2 0-0.4 0-0.2 0-0.3 0zm-4.2-6.3q0.1 0 0.3 0.1l5.1 2.9c0.2 0.1 0.2 0.3 0 0.4l-4.4 2.6q-0.2 0-0.4 0-0.1 0-0.3 0l-5.1-3c-0.1-0.1-0.2-0.3 0-0.4l4.4-2.5q0.2-0.1 0.4-0.1zm16 5.6q-0.2 0-0.3-0.1l-5.1-2.9c-0.2-0.2-0.2-0.3 0-0.4l4.4-2.6q0.2-0.1 0.3-0.1 0.2 0 0.4 0.1l5 2.9c0.2 0.2 0.2 0.3 0 0.4l-4.3 2.6q-0.2 0.1-0.4 0.1zm6.4-3.7q-0.2 0-0.3-0.1l-5.1-2.9c-0.2-0.2-0.2-0.3 0-0.5l4.4-2.5q0.2-0.1 0.3-0.1 0.2 0 0.4 0.1l5.1 2.9c0.1 0.2 0.1 0.3 0 0.4l-4.4 2.6q-0.2 0.1-0.4 0.1zm6.4-3.7q-0.2 0-0.3-0.1l-5.1-2.9c-0.2-0.2-0.2-0.3 0-0.5l4.4-2.5q0.2-0.1 0.4-0.1 0.1 0 0.3 0.1l5.1 2.9c0.1 0.2 0.2 0.3 0 0.4l-4.4 2.6q-0.2 0.1-0.4 0.1zm-22.4-1.9q0.1 0 0.3 0.1l5.1 2.9c0.2 0.1 0.2 0.3 0 0.4l-4.4 2.6q-0.2 0-0.3 0-0.2 0-0.4 0l-5.1-3c-0.1-0.1-0.2-0.3 0-0.4l4.4-2.5q0.2-0.1 0.4-0.1zm6.4-3.7q0.2 0 0.3 0.1l5.1 2.9c0.2 0.1 0.2 0.3 0 0.4l-4.4 2.6q-0.2 0-0.3 0-0.2 0-0.4 0l-5.1-3c-0.1-0.1-0.1-0.3 0-0.4l4.4-2.5q0.2-0.1 0.4-0.1zm25.6-14.8q0.2 0 0.4 0.1l5 2.9c0.2 0.1 0.2 0.3 0 0.4l-4.3 2.5q-0.2 0.1-0.4 0.1-0.2 0-0.3-0.1l-5.1-2.9c-0.2-0.1-0.2-0.3 0-0.4l4.4-2.5q0.1-0.1 0.3-0.1zm-6.7 3.8q0.1-0.1 0.3-0.1 0.2 0 0.4 0.1l5 2.9c0.2 0.1 0.2 0.3 0 0.4l-4.4 2.5q-0.1 0.1-0.3 0.1-0.2 0-0.4-0.1l-5-2.9c-0.2-0.1-0.2-0.3 0-0.4l4.4-2.5zm13.1-7.5q0.2 0 0.3 0.1l5.1 2.9c0.2 0.1 0.2 0.3 0 0.4l-4.4 2.5q-0.1 0.1-0.3 0.1-0.2 0-0.4-0.1l-5-2.9c-0.2-0.1-0.2-0.3 0-0.4l4.4-2.5q0.1-0.1 0.3-0.1zm-25.6 14.8q0.1 0 0.3 0.1l5.1 2.9c0.2 0.1 0.2 0.3 0 0.4l-4.4 2.6q-0.2 0-0.4 0-0.1 0-0.3 0l-5.1-3c-0.1-0.1-0.2-0.3 0-0.4l4.4-2.5q0.2-0.1 0.4-0.1zm6-3.6q0.2-0.1 0.4-0.1 0.2 0 0.3 0.1l5.1 2.9c0.2 0.1 0.2 0.3 0 0.4l-4.4 2.6q-0.2 0-0.3 0-0.2 0-0.4 0l-5.1-3c-0.1-0.1-0.1-0.3 0-0.4l4.4-2.5zm-5 26.2q-0.2 0-0.4-0.1l-5-2.9c-0.2-0.2-0.2-0.3 0-0.5l4.4-2.5q0.1-0.1 0.3-0.1 0.2 0 0.4 0.1l5 2.9c0.2 0.2 0.2 0.3 0 0.5l-4.4 2.5q-0.1 0.1-0.3 0.1zm-37.3-3.5l-4.4 2.5q-0.1 0.1-0.3 0.1-0.2 0-0.4-0.1l-5-2.9c-0.2-0.1-0.2-0.3 0-0.4l4.4-2.5q0.1-0.1 0.3-0.1 0.2 0 0.4 0.1l5 2.9c0.2 0.1 0.2 0.3 0 0.4zm9.6 2.8l-6.7 3.9q-0.2 0.1-0.4 0.1-0.1 0-0.3-0.1l-5.1-2.9c-0.2-0.1-0.2-0.3 0-0.4l6.8-3.9q0.1-0.1 0.3-0.1 0.2 0 0.4 0.1l5 2.9c0.2 0.1 0.2 0.3 0 0.4zm-17.4-8.5l-5.4 3.1q-0.1 0.1-0.3 0.1-0.2 0-0.4-0.1l-5-2.9c-0.2-0.1-0.2-0.3 0-0.4l5.4-3.1q0.1-0.1 0.3-0.1 0.2 0 0.4 0.1l5 2.9c0.2 0.1 0.3 0.3 0 0.4zm-0.9-5.7c-0.2-0.1-0.2-0.3 0-0.4l4.4-2.5q0.2-0.1 0.3-0.1 0.2 0 0.4 0.1l5.1 2.9c0.1 0.1 0.2 0.3 0 0.4l-4.4 2.5q-0.2 0.1-0.4 0.1-0.2 0-0.3-0.1zm27.2 17.4l-8.4 4.9q-0.2 0.1-0.3 0.1-0.2 0-0.4-0.1l-5.1-2.9c-0.1-0.1-0.1-0.3 0-0.4l8.5-4.9q0.1-0.1 0.3-0.1 0.2 0 0.4 0.1l5 2.9c0.2 0.2 0.2 0.3 0 0.4zm4.2 5.6c0.3 0.1 0.3 0.3 0.1 0.4l-5.4 3.1q-0.2 0.1-0.4 0.1-0.2 0-0.3-0.1l-5.1-2.9c-0.2-0.1-0.2-0.3 0-0.4l5.4-3.1q0.1-0.1 0.3-0.1 0.2 0 0.4 0.1l5.1 2.9zm16.2-50.5c-0.2-0.1-0.2-0.3 0-0.4l4.3-2.5q0.2-0.1 0.4-0.1 0.2 0 0.3 0.1l5.1 2.9c0.2 0.1 0.2 0.3 0 0.4l-4.4 2.5q-0.1 0.1-0.3 0.1-0.2 0-0.4-0.1zm-12.8 7.5c-0.2-0.2-0.2-0.3 0-0.4l4.4-2.6q0.2-0.1 0.4-0.1 0.1 0 0.3 0.1l5.1 2.9c0.2 0.2 0.2 0.3 0 0.5l-4.4 2.5q-0.2 0.1-0.4 0.1-0.1 0-0.3-0.1zm-28.5 16.4c-0.1-0.1-0.2-0.3 0-0.4l4.4-2.5q0.2-0.1 0.4-0.1 0.1 0 0.3 0.1l5.1 2.9c0.2 0.1 0.2 0.3 0 0.4l-4.4 2.5q-0.2 0.1-0.3 0.1-0.2 0-0.4-0.1zm34.9-20.1c-0.2-0.1-0.2-0.3 0-0.4l4.4-2.6q0.1-0.1 0.3-0.1 0.2 0 0.4 0.1l5 3c0.2 0.1 0.2 0.3 0 0.4l-4.4 2.5q-0.1 0.1-0.3 0.1-0.2 0-0.4-0.1zm-12.7 7.4c-0.2-0.1-0.2-0.3 0-0.4l4.3-2.5q0.1-0.1 0.3-0.1 0.2 0 0.4 0.1l5.1 2.9c0.2 0.1 0.2 0.3 0 0.4l-4.4 2.5q-0.2 0.1-0.3 0.1-0.2 0-0.4-0.1zm11.6 42.8c0.1 0.1 0.2 0.3 0 0.4l-6.8 3.9q-0.1 0.1-0.3 0.1-0.2 0-0.4-0.1l-5-2.9c-0.2-0.1-0.2-0.3 0-0.4l6.7-3.9q0.2-0.1 0.4-0.1 0.1 0 0.3 0.1zm-20.8-37.5c-0.2-0.1-0.2-0.3 0-0.4l4.4-2.5q0.1-0.1 0.3-0.1 0.2 0 0.4 0.1l5 2.9c0.2 0.1 0.2 0.3 0 0.4l-4.3 2.6q-0.2 0-0.4 0-0.2 0-0.3 0zm-6.4 3.7c-0.2-0.2-0.2-0.3 0-0.4l4.3-2.6q0.2-0.1 0.4-0.1 0.2 0 0.3 0.1l5.1 2.9c0.2 0.2 0.2 0.3 0 0.4l-4.4 2.6q-0.1 0.1-0.3 0.1-0.2 0-0.4-0.1zm146-34.9c0.2 0.2 0.2 0.4 0 0.5l-10.8 6.2q-0.2 0.1-0.3 0.1-0.2 0-0.4-0.1l-5.1-2.9c-0.1-0.2-0.1-0.3 0-0.4l10.8-6.3q0.2-0.1 0.4-0.1 0.2 0 0.3 0.1zm-14.1 8.2c0.2 0.1 0.2 0.3 0 0.4l-4.4 2.5q-0.2 0.1-0.4 0.1-0.1 0-0.3-0.1l-5.1-2.9c-0.1-0.1-0.2-0.3 0-0.4l4.4-2.5q0.2-0.1 0.4-0.1 0.1 0 0.3 0.1zm-91.8 45.1q-0.2 0.1-0.4 0.1-0.2 0-0.4-0.1l-5.1-3c-0.1-0.1-0.1-0.3 0-0.4l4.4-2.5q0.2-0.1 0.4-0.1 0.2 0 0.3 0.1l5.1 2.9c0.2 0.1 0.2 0.3 0 0.4l-4.4 2.6zm79.1-37.8c0.1 0.1 0.1 0.3 0 0.4l-4.4 2.6q-0.2 0-0.4 0-0.2 0-0.3 0l-5.1-3c-0.2-0.1-0.2-0.3 0-0.4l4.4-2.5q0.2-0.1 0.3-0.1 0.2 0 0.4 0.1zm33.4-19.3c0.2 0.1 0.2 0.3 0 0.4l-4.3 2.6q-0.2 0-0.4 0-0.2 0-0.3 0l-5.1-3c-0.2-0.1-0.2-0.3 0-0.4l4.3-2.5q0.2-0.1 0.4-0.1 0.2 0 0.3 0.1zm6.5-3.7c0.2 0.1 0.2 0.3-0.1 0.3l-4.4 2.6q-0.1 0-0.3 0-0.2 0-0.4 0l-12.3-7.1c-0.2-0.2-0.2-0.3 0-0.4l4.4-2.6q0.2-0.1 0.3-0.1 0.2 0 0.4 0.1l12.3 7.1zm-63.8 36.8c0.2 0.1 0.2 0.3 0 0.4l-5.4 3.1q-0.2 0.1-0.3 0.1-0.2 0-0.4-0.1l-5.1-2.9c-0.1-0.1-0.1-0.3 0-0.4l5.4-3.1q0.2-0.1 0.4-0.1 0.2 0 0.3 0.1zm16.2-9.4c0.2 0.1 0.2 0.3 0 0.4l-6.7 3.9q-0.2 0.1-0.4 0.1-0.2 0-0.3-0.1l-5.1-2.9c-0.2-0.1-0.2-0.3 0-0.4l6.8-3.9q0.1-0.1 0.3-0.1 0.2 0 0.4 0.1zm-31 18c0.1 0.1 0.1 0.3 0 0.4l-36.1 20.8q-0.2 0.1-0.4 0.1-0.2 0-0.3-0.1l-5.1-2.9c-0.2-0.1-0.2-0.3 0-0.4l36.1-20.9q0.2-0.1 0.3-0.1 0.2 0 0.4 0.1zm-38.1 22c0.2 0.1 0.2 0.2 0 0.4l-5.4 3.1q-0.2 0.1-0.4 0.1-0.2 0-0.3-0.1l-5.1-2.9c-0.2-0.2-0.2-0.3 0-0.5l5.4-3.1q0.2-0.1 0.4-0.1 0.1 0 0.3 0.1zm45.5-26.3c0.2 0.1 0.2 0.3 0 0.4l-5.4 3.1q-0.1 0.1-0.3 0.1-0.2 0-0.4-0.1l-5-2.9c-0.2-0.1-0.2-0.3 0-0.4l5.4-3.1q0.1-0.1 0.3-0.1 0.2 0 0.4 0.1zm-53 30.6c0.2 0.1 0.2 0.3 0 0.4l-5.4 3.1q-0.2 0.1-0.4 0.1-0.2 0-0.3-0.1l-5.1-2.9c-0.2-0.1-0.2-0.3 0-0.4l5.4-3.2q0.2 0 0.4 0 0.1 0 0.3 0zm67.8-39.1c0.2 0.1 0.2 0.3 0 0.4l-5.4 3.1q-0.2 0.1-0.3 0.1-0.2 0-0.4-0.1l-5.1-2.9c-0.1-0.1-0.1-0.3 0-0.4l5.4-3.1q0.2-0.1 0.4-0.1 0.2 0 0.3 0.1zm23-13.3c0.2 0.1 0.2 0.3 0 0.4l-4.4 2.6q-0.2 0-0.4 0-0.1 0-0.3 0l-5.1-3c-0.1-0.1-0.2-0.3 0-0.4l4.4-2.5q0.2-0.1 0.4-0.1 0.1 0 0.3 0.1zm9-13.1q-0.1 0.1-0.3 0.1-0.2 0-0.4-0.1l-5-2.9c-0.2-0.2-0.2-0.3 0-0.4l4.3-2.6q0.1 0 0.3 0 0.2 0 0.4 0l5 2.9c0.2 0.1 0.2 0.3 0 0.4l-4.3 2.6zm-28.7-0.2q-0.2 0-0.4 0-0.2 0-0.4-0.1l-5-2.9c-0.2-0.1-0.2-0.3 0-0.4l4.3-2.5q0.2-0.1 0.4-0.1 0.2 0 0.3 0.1l5.1 2.9c0.2 0.1 0.2 0.3 0 0.4l-4.4 2.5zm-14.5 25.1q-0.2 0.1-0.4 0.1-0.2 0-0.4-0.1l-5-2.9c-0.2-0.2-0.2-0.3 0-0.4l12.8-7.4q0.1-0.1 0.3-0.1 0.2 0 0.4 0.1l5.1 2.9c0.1 0.1 0.1 0.3 0 0.4l-12.9 7.4zm31-24.2c-0.2-0.2-0.2-0.3 0-0.5l4.4-2.5q0.1-0.1 0.3-0.1 0.2 0 0.4 0.1l5 2.9c0.2 0.2 0.2 0.3 0 0.5l-4.4 2.5q-0.1 0.1-0.3 0.1-0.2 0-0.4-0.1zm-1.4-1.2q-0.2 0.1-0.4 0.1-0.1 0-0.3-0.1l-5.1-3c-0.1-0.1-0.2-0.3 0-0.4l4.4-2.5q0.1-0.1 0.3-0.1 0.2 0 0.4 0.1l5 2.9c0.2 0.1 0.2 0.3 0 0.4l-4.3 2.6zm-36 29.1q-0.2 0.1-0.4 0-0.2 0-0.4-0.1l-5-2.9c-0.2-0.1-0.2-0.3 0-0.4l4.4-2.5q0.1-0.1 0.3-0.1 0.2 0 0.4 0.1l5 2.9c0.2 0.1 0.2 0.3 0 0.4l-4.4 2.5zm23.2-19.7c-0.2-0.1-0.2-0.3 0-0.4l4.4-2.6q0.2-0.1 0.4-0.1 0.1 0 0.3 0.1l5.1 3c0.1 0.1 0.2 0.3 0 0.4l-4.4 2.5q-0.2 0.1-0.4 0.1-0.2 0-0.3-0.1zm-55.6 38.3q-0.2 0-0.4-0.1l-5-2.9c-0.2-0.1-0.2-0.3 0-0.4l4.4-2.5q0.1-0.1 0.3-0.1 0.2 0 0.4 0.1l5 2.9c0.2 0.1 0.2 0.3 0 0.4l-4.3 2.5q-0.2 0.1-0.4 0.1zm6.4-3.7q-0.2 0.1-0.4 0l-5-3c-0.2-0.1-0.2-0.2 0-0.4l4.4-2.5q0.1-0.1 0.3-0.1 0.2 0 0.4 0.1l5 2.9c0.2 0.1 0.2 0.3 0 0.4l-4.3 2.5q-0.2 0.1-0.4 0.1zm-12.8 7.4q-0.2 0-0.4-0.1l-5-2.9c-0.2-0.1-0.2-0.3 0-0.4l4.3-2.5q0.2-0.1 0.4-0.1 0.2 0 0.3 0.1l5.1 2.9c0.2 0.1 0.2 0.3 0 0.4l-4.4 2.5q-0.1 0.1-0.3 0.1zm25.6-14.8q-0.2 0-0.3-0.1l-5.1-2.9c-0.2-0.1-0.2-0.3 0-0.4l4.4-2.6q0.1 0 0.3 0 0.2 0 0.4 0l5.1 3c0.1 0.1 0.2 0.3 0 0.4l-4.4 2.5q-0.2 0.1-0.4 0.1zm-6.4 3.7q-0.2 0-0.3-0.1l-5.1-2.9c-0.2-0.1-0.2-0.3 0-0.4l4.4-2.5q0.1-0.1 0.3-0.1 0.2 0 0.4 0.1l5.1 2.9c0.1 0.1 0.1 0.3 0 0.4l-4.4 2.5q-0.2 0.1-0.4 0.1zm12.9-7.4q-0.2 0-0.4-0.1l-5.1-2.9c-0.1-0.1-0.1-0.3 0-0.4l4.3-2.5q0.2-0.1 0.4-0.1 0.2 0 0.3 0.1l5.2 2.9c0.2 0.1 0.2 0.3 0 0.4l-4.4 2.5q-0.2 0.1-0.3 0.1zm28.3-55.6c-0.2-0.1-0.2-0.3 0-0.4l4.4-2.5q0.1-0.1 0.3-0.1 0.2 0 0.4 0.1l1.3 0.7c0.2 0.2 0.2 0.3 0 0.4l-4.4 2.6q-0.2 0.1-0.3 0.1-0.2 0-0.4-0.1zm-35.3 18.3c-0.1-0.1-0.1-0.3 0-0.4l4.4-2.6q0.2-0.1 0.4-0.1 0.2 0 0.3 0.1l5.1 2.9c0.2 0.1 0.2 0.3 0 0.4l-4.4 2.5q-0.1 0.1-0.3 0.1-0.2 0-0.4-0.1zm12.9-7.4c-0.2-0.1-0.2-0.3 0-0.4l4.4-2.6q0.1 0 0.3 0 0.2 0 0.4 0l5 3c0.2 0.1 0.2 0.3 0 0.4l-4.3 2.5q-0.2 0.1-0.4 0.1-0.2 0-0.3-0.1zm-20.7 11.9c-0.2-0.1-0.2-0.3 0-0.4l4.4-2.5q0.2-0.1 0.4-0.1 0.1 0 0.3 0.1l5.1 2.9c0.2 0.1 0.2 0.3 0 0.4l-4.4 2.5q-0.2 0.1-0.4 0.1-0.1 0-0.3-0.1zm14.3-8.2c-0.2-0.1-0.2-0.3 0-0.4l4.4-2.5q0.2-0.1 0.3-0.1 0.2 0 0.4 0.1l5.1 2.9c0.1 0.1 0.2 0.3 0 0.4l-4.4 2.5q-0.2 0.1-0.4 0.1-0.2 0-0.3-0.1zm-27.1 15.7c-0.2-0.1-0.2-0.3 0-0.4l4.4-2.6q0.2 0 0.3 0 0.2 0 0.4 0l5.1 3c0.1 0.1 0.2 0.3 0 0.4l-4.4 2.5q-0.2 0.1-0.3 0.1-0.2 0-0.4-0.1zm6.4-3.7c-0.1-0.1-0.1-0.3 0-0.4l4.4-2.5q0.2-0.1 0.4-0.1 0.2 0 0.3 0.1l5.1 2.9c0.2 0.1 0.2 0.3 0 0.4l-4.4 2.5q-0.2 0.1-0.3 0.1-0.2 0-0.4-0.1zm36.7-19c-0.2-0.1-0.2-0.3 0-0.4l4.4-2.6q0.1 0 0.3 0 0.2 0 0.4 0l1.3 0.8c0.2 0.1 0.2 0.3 0 0.4l-4.4 2.6q-0.1 0-0.3 0-0.2 0-0.4 0zm19.2-11.2c-0.2-0.1-0.2-0.2 0-0.4l4.4-2.5q0.2-0.1 0.3-0.1 0.2 0 0.4 0.1l1.4 0.8c0.2 0.1 0.2 0.3 0 0.4l-4.4 2.6q-0.1 0-0.3 0-0.2 0-0.4 0zm6.9 4c-0.1-0.1-0.2-0.3 0-0.4l4.5-2.6q0.1-0.1 0.3-0.1 0.2 0 0.4 0.1l5.1 3c0.2 0.1 0.2 0.3 0 0.4l-4.4 2.5q-0.2 0.1-0.3 0.1-0.2 0-0.4-0.1zm21.2 19.2q-0.2 0.1-0.4 0.1-0.1 0-0.3-0.1l-5.1-2.9c-0.1-0.1-0.1-0.3 0-0.4l4.4-2.6q0.2 0 0.4 0 0.2 0 0.3 0l5.1 3c0.2 0.1 0.2 0.3 0 0.4l-4.4 2.5zm-40.9-15.7c-0.1-0.2-0.2-0.3 0-0.4l4.5-2.6q0.1-0.1 0.3-0.1 0.2 0 0.4 0.1l1.3 0.8c0.2 0.1 0.2 0.3 0 0.4l-4.4 2.5q-0.1 0.1-0.3 0.1-0.2 0-0.4-0.1zm-55.8 30.1c-0.2-0.1-0.2-0.3 0-0.4l4.4-2.5q0.1-0.1 0.3-0.1 0.2 0 0.4 0.1l5 2.9c0.2 0.1 0.2 0.3 0 0.4l-4.3 2.6q-0.2 0-0.4 0-0.2 0-0.3 0z"/>
	<path id="Layer" class="s2" d="m265.9 262.9l43.3-25c0.7-0.4 1.5-0.6 2.4-0.6 0.8 0 1.6 0.2 2.3 0.6l24.8 14.3c1.3 0.8 1.3 2 0 2.8l-43.2 25c-0.8 0.3-1.6 0.5-2.4 0.5-0.8 0-1.6-0.2-2.4-0.5l-24.8-14.4c-1.3-0.7-1.3-2 0-2.7z"/>
	<path id="Layer" class="s12" d="m265.9 262.9l43.3-25c0.7-0.4 1.5-0.6 2.4-0.6 0.8 0 1.6 0.2 2.3 0.6l24.8 14.3c1.3 0.8 1.3 2 0 2.8l-43.2 25c-0.8 0.3-1.6 0.5-2.4 0.5-0.8 0-1.6-0.2-2.4-0.5l-24.8-14.4c-1.3-0.7-1.3-2 0-2.7z"/>
	<path id="Layer" class="s2" d="m123.2 247.2q0.6 0.3 1.2 0.5-0.6-0.2-1.2-0.5-0.2-0.1-0.4-0.2 0.2 0.1 0.4 0.2z"/>
	<path id="Layer" class="s4" d="m285.7 20.9c-0.3-2-2-2.8-3.9-1.7l-150.9 87.2c-1.2 0.7-2.2 1.7-2.8 2.9l-7.4-4.3c0.6-1.2 1.6-2.2 2.8-2.9l150.9-87.1c1.1-0.7 2.3-1.1 3.6-1.1 1.3-0.1 2.6 0.2 3.7 0.8 1.2 0.6 2.1 1.5 2.8 2.6 0.7 1.1 1.1 2.3 1.2 3.6z"/>
	<path id="Layer" class="s2" d="m130.1 247.6c0 0 0 0 0.1-0.1z"/>
	<path id="Layer" class="s13" d="m403.9 230.1c-0.1 1.4-0.5 2.7-1.2 3.8-0.7 1.1-1.6 2.1-2.8 2.8l-150.9 87.1c-1.2 0.7-2.6 1-3.9 0.9v-8.5c1.3 0.1 2.7-0.3 3.9-0.9l150.9-87.1c2-1.2 2.2-3 0.4-4.3 1 0.7 1.9 1.6 2.5 2.7 0.6 1.1 1 2.3 1.1 3.5z"/>
	<path id="Layer" class="s6" d="m136.4 218.3c0 1.9 1.3 2.6 2.9 1.7l133.5-77c0.8-0.5 1.5-1.3 2-2.2 0.5-0.8 0.8-1.8 0.9-2.8v-90l-139.3 80.5z"/>
	<path id="Layer" class="s14" d="m187.1 109.5v4.3c0 0.9 0.7 1.3 1.4 0.8l27.7-16.1v-7.5l-27.7 16.1q-0.6 0.4-1 1-0.3 0.7-0.4 1.4z"/>
	<path id="Layer" class="s2" d="m223.6 86.8c0.7-0.5 1.3-0.1 1.3 0.8v4.3q0 0.7-0.4 1.4-0.3 0.6-0.9 1l-7.4 4.2v-7.5z"/>
	<path id="Layer" fill-rule="evenodd" class="s14" d="m223.2 92.8q0 0.1 0 0.2 0 0.1-0.1 0.2-0.1 0-0.2 0.1h-0.1l-0.8-0.3c-0.2 0.7-0.7 1.4-1.3 1.8q-0.3 0.2-0.7 0.2-0.3 0-0.5-0.1-0.4-0.3-0.6-0.8-0.2-0.5-0.1-1-0.1-1 0.4-1.9 0.4-0.9 1.2-1.5 0.2-0.1 0.6-0.2 0.3 0 0.6 0.2 0.4 0.3 0.6 0.7 0.2 0.5 0.1 1 0 0.5-0.1 1.1l0.8 0.2q0.1 0.1 0.2 0.1zm-2.8 1.5q0.6-0.6 1-1.3 0.3-0.8 0.3-1.6 0.1-0.3-0.1-0.7-0.1-0.3-0.3-0.5-0.1-0.1-0.2-0.1-0.2 0.1-0.4 0.2-0.7 0.5-1 1.2-0.3 0.8-0.3 1.6-0.1 0.4 0 0.7 0.2 0.3 0.4 0.5 0.1 0.1 0.3 0.1 0.2 0 0.3-0.1z"/>
	<path id="Layer" class="s7" d="m136.4 122.4c0-1 0.3-2 0.8-2.9 0.5-0.8 1.2-1.6 2.1-2.1l133.5-77.1c1.6-0.9 2.9-0.2 2.9 1.7v6l-139.3 80.5z"/>
	<path id="Layer" class="s2" d="m259.3 51.2q-0.6 0.4-1 1-0.3 0.6-0.4 1.4c0 0.8 0.7 1.2 1.4 0.7q0.6-0.4 1-1 0.3-0.6 0.4-1.3c0-0.9-0.6-1.3-1.4-0.8z"/>
	<path id="Layer" class="s2" d="m264.1 48.4q-0.6 0.4-1 1-0.3 0.7-0.4 1.4c0 0.9 0.6 1.2 1.4 0.8q0.6-0.4 1-1 0.3-0.7 0.4-1.4c0-0.9-0.7-1.2-1.4-0.8z"/>
	<path id="Layer" class="s2" d="m268.9 45.7q-0.6 0.4-1 1-0.3 0.6-0.4 1.3c0 0.9 0.6 1.2 1.4 0.8q0.6-0.4 0.9-1 0.4-0.7 0.4-1.4c0-0.8-0.6-1.2-1.3-0.7z"/>
	<path id="Layer" class="s14" d="m139.3 220l133.5-77c0.8-0.5 1.5-1.3 2-2.2 0.5-0.8 0.8-1.8 0.9-2.8v-65.2l-139.3 80.5v65c0 1.9 1.3 2.7 2.9 1.7z"/>
	<path id="Layer" class="s15" d="m190.8 108l20.4-11.8c0.8-0.4 1.4-0.1 1.4 0.8q0 0.7-0.4 1.3-0.4 0.6-1 1l-20.3 11.7c-0.8 0.4-1.5 0.1-1.5-0.7q0.1-0.7 0.5-1.3 0.3-0.6 0.9-1z"/>
	<path id="Layer" class="s2" d="m187.3 159.8q-0.2 0.1-0.3 0l-0.2-0.2-3.3-5.6v7.5q0 0.2-0.1 0.4-0.1 0.2-0.2 0.3l-1 0.5q-0.1 0.1-0.1 0.1-0.1 0-0.1-0.1-0.1-0.1-0.1-0.3v-11.7q0-0.2 0.1-0.4 0-0.2 0.2-0.3l0.8-0.5q0.2-0.1 0.3 0l0.2 0.2 3.3 5.6v-7.5q0-0.2 0.1-0.4 0-0.1 0.2-0.2l1-0.6q0 0 0.1 0 0.1 0 0.1 0 0.1 0.1 0.1 0.2 0 0 0 0.1v11.8q0 0.2-0.1 0.4-0.1 0.1-0.2 0.2z"/>
	<path id="Layer" fill-rule="evenodd" class="s2" d="m190 150.3q0-1.1 0.3-2.1 0.2-1 0.6-1.9 0.4-0.9 1.1-1.7 0.6-0.8 1.5-1.3 0.7-0.4 1.5-0.5c0.4 0.1 0.8 0.2 1 0.5q0.5 0.5 0.7 1.2 0.2 0.9 0.2 1.8 0 0.3 0 0.7c0 0.3 0 2.3 0 2.5q0 1.1-0.2 2.1-0.2 1-0.7 1.9-0.4 0.9-1 1.7-0.7 0.7-1.5 1.2-0.7 0.5-1.5 0.5-0.3 0-0.6-0.1-0.3-0.1-0.5-0.3-0.5-0.5-0.6-1.2-0.3-0.9-0.3-1.8 0-0.3 0-0.7 0-0.4 0-0.9 0-0.4 0-0.9 0-0.4 0-0.7zm5.4-3c0-0.7-0.2-1.3-0.6-1.8q-0.5-0.4-1.3 0.1c-0.6 0.4-1.1 0.9-1.4 1.5q-0.5 1.1-0.5 2.3 0 0.7 0 1.6 0 0.8 0 1.5 0 0.5 0.1 0.9 0.1 0.4 0.4 0.8 0.5 0.4 1.4-0.1c0.6-0.3 1-0.8 1.3-1.4q0.5-1.1 0.6-2.4 0-0.7 0-1.5-0.1-0.9-0.1-1.5z"/>
	<path id="Layer" fill-rule="evenodd" class="s2" d="m204.4 137.2q0.7-0.4 1.5-0.5 0.3 0 0.6 0.1 0.3 0.1 0.5 0.3 0.5 0.5 0.7 1.2 0.2 0.9 0.2 1.9 0 1.3 0 2.7 0 1.1-0.2 2.2-0.3 1-0.7 2-0.4 0.9-1.1 1.6-0.6 0.7-1.4 1.2l-3 1.7q-0.1 0.1-0.2 0.1 0 0-0.1-0.1 0 0-0.1-0.1 0-0.1 0-0.1v-11.8q0-0.3 0.1-0.4 0.1-0.2 0.3-0.3zm1.9 3.9q0-0.5-0.2-1-0.1-0.4-0.3-0.7-0.3-0.2-0.6-0.2-0.5 0-0.9 0.3l-1.6 0.9v8.2l1.7-1q0.4-0.3 0.8-0.7 0.4-0.4 0.6-0.9 0.2-0.5 0.3-1.1 0.2-0.6 0.2-1.2 0-1.3 0-2.6z"/>
	<path id="Layer" fill-rule="evenodd" class="s2" d="m213.2 132.1q0.2-0.1 0.3 0 0.1 0.2 0.1 0.4l2.9 9.8q0 0.1 0 0.1 0 0.2-0.1 0.4 0 0.2-0.2 0.3l-0.8 0.5q-0.3 0.1-0.4 0-0.1-0.1-0.1-0.2l-0.5-1.8-3.7 2.2-0.5 2.3q-0.1 0.2-0.2 0.4-0.1 0.2-0.3 0.3l-0.9 0.5q0 0.1-0.1 0.1 0 0-0.1-0.1-0.1-0.1-0.1-0.3 0 0 0-0.1l2.9-13.2q0.1-0.2 0.2-0.5 0.1-0.2 0.3-0.3zm0.6 7.6l-1.3-4.5-1.3 6z"/>
	<path id="Layer" class="s2" d="m222.3 126.9q0-0.1 0.1-0.1 0 0 0.1 0.1 0 0 0.1 0.1 0 0.1 0 0.2v1.2q0 0.3-0.1 0.4-0.1 0.2-0.2 0.3l-2.2 1.2v10q0 0.3 0 0.4-0.1 0.2-0.3 0.3l-0.9 0.6q-0.1 0-0.1 0-0.1 0-0.2 0 0-0.1 0-0.2-0.1 0 0-0.1v-10l-2.2 1.2q0 0.1-0.1 0.1-0.1 0-0.1-0.1-0.1 0-0.1-0.1 0-0.1 0-0.2v-1.3q0-0.2 0.1-0.4 0.1-0.1 0.2-0.2z"/>
	<path id="Layer" fill-rule="evenodd" class="s2" d="m226.8 124.3q0.2-0.2 0.3 0 0.1 0.1 0.2 0.3l2.8 9.8q0.1 0.1 0 0.2 0 0.2 0 0.4-0.1 0.1-0.3 0.2l-0.8 0.5q-0.3 0.2-0.4 0 0-0.1-0.1-0.2l-0.5-1.7-3.7 2.2-0.5 2.3q-0.1 0.2-0.1 0.4-0.1 0.2-0.4 0.3l-0.8 0.5q-0.1 0.1-0.1 0.1-0.1 0-0.1-0.1-0.1 0-0.1-0.1 0-0.1 0-0.2 0 0 0-0.1l2.9-13.2q0-0.2 0.1-0.5 0.1-0.2 0.3-0.3zm0.6 7.6l-1.3-4.5-1.2 6z"/>
	<path id="Layer" class="s16" d="m450.4 191.9c1.4-28.8-0.7-35.7-8.3-41.2l-3.3 16.6c0 0 3 19.8 2.5 26.3-0.4 5.8-1.2 13-2.6 17.6-0.3 0.8-0.9 1.5-1.6 1.9-2 1.2-2.8 2.5-4.3 4-1.2 1.1-2.2 1.4-2 1.8 0.2 0.4 0.6 0.8 1 0.9 0.5 0.2 0.9 0.2 1.4 0q1.5-0.5 2.8-1.4c-0.7 1.7-1.7 3.4-2.9 4.8-2.9 3.3-3 5.4 2.5 5.5 3.5 0.1 6.3-2 9.1-9.5q1.6-4.2 2.6-8.5c1.5-7.6 2.9-14.1 3.1-18.8z"/>
	<path id="Layer" class="s2" d="m435.7 148.4c3.7-0.5 8.7 0.4 11.7 6.2 3.1 5.8 3.7 15.8 3.8 25.6 0 0-6.5 5.2-14.1 2.4z"/>
	<path id="Layer" class="s17" d="m435.7 148.4c3.7-0.5 8.7 0.4 11.7 6.2 3.1 5.8 3.7 15.8 3.8 25.6 0 0-6.5 5.2-14.1 2.4z"/>
	<path id="Layer" class="s7" d="m442.8 299.2c0.5 0.3 0.6 1.3 0.7 3.4 0 1.6 0.3 4.4-1.6 4.9-1.8 0.5-4.6 0.1-5.7-1.4q-2.1-3-4.5-5.9c-1.8-2-3.7-3.9-4.4-6.6-0.6-2.6 0-3.6 1.7-4.3 2.4-1 6 2.4 7.8 3 1.6 0.4 5.4 6.7 6 6.9z"/>
	<path id="Layer" class="s16" d="m442.8 297.3v2.6c-1 0.5-2.1 0.9-3.3 0.9-1.1 0-2.2-0.4-3.2-0.9-0.1-0.3-0.6-3.7-0.6-3.7z"/>
	<path id="Layer" class="s7" d="m421.6 313.6c0 0 0.7 2.2 1 4.2 0.3 1.5 0.7 4.2 0.1 5.3-0.5 1.2-2.7 1.9-6 1.8-2.1-0.1-5.4 1.3-7.7 2.5-2.4 1.2-7.3 1.7-9.8 1.3-2.9-0.4-5.9-2.2-6.4-3.4-0.4-1.2 0.3-2.4 7.2-5.2 0.1 0 9.7-2.9 13.1-6.6z"/>
	<path id="Layer" class="s16" d="m421.7 310.8c0 0-0.1 1.9-0.1 3 0 1.1-1.3 2.7-4.6 2.5-2.4-0.2-4-0.8-3.9-2.8l0.1-2.7z"/>
	<path id="Layer" class="s7" d="m445.3 263.2c-0.5-4.5-1.4-9.1-2.8-13.4 0 0 1.2-11.6 1.9-22.5 0.7-11.8 0.6-26.7 0.9-29.7 0 0-38-8.5-39 5.1-1 13.7 0.4 48.5 0.7 54.6 0.3 6 1.2 11.3 2.3 21.1 1 9.7 3.9 32.4 3.9 32.4 1.3 0.7 2.7 1 4.2 1 1.5 0 3-0.3 4.3-1 0 0 3.3-27.3 3.2-34.2-0.1-5.2-0.9-10.3-2.3-15.2 0 0 1-11.3 1.8-21.1 0.8-9.8 1.7-14.5 1.9-18.7l0.8-0.4c0 0 0.5 16.9 0.8 22.9 0.3 6 1.1 11.8 2.6 23 1.3 9.8 5.3 30.3 5.3 30.3 4.4 2.5 7-0.1 7-0.1 0 0 3.5-25.7 2.5-34.1z"/>
	<path id="Layer" class="s18" d="m445.3 263.2c-0.5-4.5-1.4-9.1-2.8-13.4 0 0 1.2-11.6 1.9-22.5 0.7-11.8 0.6-26.7 0.9-29.7 0 0-38-8.5-39 5.1-1 13.7 0.4 48.5 0.7 54.6 0.3 6 1.2 11.3 2.3 21.1 1 9.7 3.9 32.4 3.9 32.4 1.3 0.7 2.7 1 4.2 1 1.5 0 3-0.3 4.3-1 0 0 3.3-27.3 3.2-34.2-0.1-5.2-0.9-10.3-2.3-15.2 0 0 1-11.3 1.8-21.1 0.8-9.8 1.7-14.5 1.9-18.7l0.8-0.4c0 0 0.5 16.9 0.8 22.9 0.3 6 1.1 11.8 2.6 23 1.3 9.8 5.3 30.3 5.3 30.3 4.4 2.5 7-0.1 7-0.1 0 0 3.5-25.7 2.5-34.1z"/>
	<path id="Layer" class="s19" d="m426.3 221.6c0 0 9.4-4.4 14.1-8.4 0 0-4.4 6-10.1 8.6 0 0-2.5 21-2.5 20.5l-0.7-20.7z"/>
	<path id="Layer" class="s16" d="m419.8 143.6l2 12.5 11.3-0.5-1.4-14.7z"/>
	<path id="Layer" class="s2" d="m444.9 154.9c-1-3.4-5.2-7.2-9.5-6.5-1 0.2-2 0.4-2.9 0.5-0.6 2.1-5.9 3.8-11.4 2.5q-2.5 0.6-4.6 1.3c-4 1.3-7.6 4.6-8.2 17.5 0 0-2 30.1-2.2 36 9.8 4.1 20 4.2 25.7 3.1 11.9-2.3 13.4-7.2 13.4-7.2 0 0 0.7-21.7 0.5-31-0.1-8-0.1-13.9-0.8-16.2z"/>
	<path id="Layer" class="s20" d="m411.5 128.3c0 0-2.9 4.5-2.6 4.9 0.3 0.5 2.5 0.9 2.5 0.9z"/>
	<path id="Layer" fill-rule="evenodd" class="s7" d="m412.9 131.2c-0.7 0-1.4-0.2-2-0.6-0.6-0.4-1-0.9-1.3-1.6-0.2-0.6-0.3-1.3-0.2-2 0.2-0.7 0.5-1.3 1-1.8 0.5-0.5 1.1-0.8 1.8-1 0.7-0.1 1.4 0 2 0.2 0.7 0.3 1.2 0.7 1.6 1.3 0.4 0.6 0.6 1.3 0.6 2 0 0.9-0.4 1.8-1 2.5-0.7 0.6-1.6 1-2.5 1zm0-6.3c-0.6 0-1.1 0.2-1.5 0.5-0.5 0.3-0.9 0.7-1.1 1.2-0.2 0.5-0.2 1.1-0.1 1.6 0.1 0.6 0.3 1 0.7 1.4 0.4 0.4 0.9 0.7 1.4 0.8 0.6 0.1 1.1 0 1.6-0.2 0.5-0.2 1-0.5 1.3-1 0.3-0.4 0.4-1 0.4-1.5 0-0.7-0.3-1.4-0.8-1.9-0.5-0.5-1.2-0.8-1.9-0.8z"/>
	<path id="Layer" class="s16" d="m419.7 115.9c-6 1.3-7.7 3.9-8.3 13.4-0.5 9.9 0.5 13 1.8 14.4 0.8 0.9 5.7 1 8.2 0.4 3.1-0.9 10-3.4 13.3-8.4 3.8-5.8 4.9-13.8 0.7-17-5.8-4.6-13.3-3.3-15.7-2.8z"/>
	<path id="Layer" class="s20" d="m414.3 144.2c1.9 0.3 3.8 0.4 5.7 0.1 0.8-0.5 1.5-1.3 1.9-2.2 0 0-1.1 1.6-7.6 2.1z"/>
	<path id="Layer" class="s7" d="m409.7 126.9l10.6 1.4-0.4 0.8-10.2-1.4z"/>
	<path id="Layer" class="s7" d="m408.6 120.6c0.9 1.4 2 2.5 3.4 3.3 1.5 0.7 3 0.8 4.7 2.4q0.9 0.9 1.4 2.1c0.1 0.1 1.4 1.8 1.4 1.6 0 0 1-3.7 4-3.2 3.1 0.4 3.6 4.4 1.6 6.8-2 2.4-3.8 1.5-3.8 1.5 0 0 0.1 5.2 2.4 8.2 0 0 2.7 0.9 7.5-0.2 3-0.6 7.2-4.4 9-8.3 3.8-8.4 4-15.9-1.3-18.1-0.6-3.9-3.6-5.6-7.1-6.4-1.8-0.3-3.7-0.4-5.5-0.1-2.1 0.3-4.2 0.1-6.2-0.5-1.1-0.5-2.2-0.7-3.3-0.8-1.2 0.2-2.3 1.1-2.2 2.2-0.9-0.6-1.9-0.9-3-0.8-1.1 0-2.1 0.3-3 1-2.1 1.5-2.1 3.9-1.4 6.3q0.6 1.6 1.4 3z"/>
	<path id="Layer" class="s7" d="m439 118l3.6-2.1c-0.3-0.5-0.8-0.8-1.3-0.9-0.5-0.1-1.1 0-1.5 0.2-0.5 0.3-0.8 0.7-1 1.3-0.1 0.5 0 1 0.2 1.5z"/>
	<path id="Layer" class="s7" d="m419.5 132.1l0.1-4.2q-0.4 0-0.9 0.1-0.4 0.2-0.7 0.4-0.3 0.3-0.5 0.7-0.2 0.4-0.2 0.8 0 0.5 0.2 0.9 0.1 0.4 0.4 0.7 0.3 0.3 0.7 0.4 0.4 0.2 0.9 0.2z"/>
	<path id="Layer" class="s16" d="m415.9 155.1c-7.5-5-22.4-16-24.2-17.1-2.5-1.5-6.3-1.9-8.7-0.6-2.2 1.1-0.9 4.1 3.3 9 4.1 4.9 21.8 23 21.8 23z"/>
	<path id="Layer" class="s2" d="m416.3 153.4c-5.2-3.4-16-10-16-10 0 0-7.4 5.3-5.7 14.2 0 0 10.8 10.4 14 13 2.2 1.8 8.5-1 9.4-7.3 1.1-7.8-1.7-9.9-1.7-9.9z"/>
	<path id="Layer" class="s17" d="m416.3 153.4c-5.2-3.4-16-10-16-10 0 0-7.4 5.3-5.7 14.2 0 0 10.8 10.4 14 13 2.2 1.8 8.5-1 9.4-7.3 1.1-7.8-1.7-9.9-1.7-9.9z"/>
	<path id="Layer" class="s16" d="m382.1 139.1c0.6-4.2 13.3-12.9 17.6-15.6q3-1.8 5.5-4.2c0.6-0.6 1.2-1.3 1.9-2 0.6-0.6 1.2-1.5 2-2.2q1.4-1.4 3.1-2.3c2.2-0.9 4.7-1.1 7-0.5 0.6 0.1 1.1 0.3 1.7 0.3 1.1 0.2 2.5 0 3.4 0.8q0.1 0.1 0.2 0.2 0.1 0.2 0.1 0.4c0 0.3-0.3 0.6-0.7 0.8-2.6 1.3-5.8 1.7-8 3.7-0.2 0.1-1.2 1.5-0.7 1.6 0.6 0.2 2.5-0.6 4.6-0.6 2.6 0.1 0.9 1.6 0 2q-2 1.2-4.3 1.7c-2.4 0.6-4.5 0.9-6 1.9-1.6 1.1-15.7 15.3-15.7 15.3z"/>
</svg>