<svg width="500" height="518" viewBox="0 0 500 518" fill="none" xmlns="http://www.w3.org/2000/svg">
<rect x="4.41176" y="4.41176" width="491.176" height="471.986" rx="17.7121" fill="white"/>
<rect x="4.41176" y="4.41176" width="491.176" height="471.986" rx="17.7121" stroke="#2C3E50" stroke-width="8.82353"/>
<path d="M277.929 154.041H285.58C289.452 154.041 292.632 151.045 293.093 147.265L300.698 71.3067H277.652V52.6396H268.572V71.3067H245.665L247.048 82.0921C254.929 84.2584 262.304 88.1761 266.729 92.5087C273.366 99.0537 277.929 105.829 277.929 116.891V154.041ZM199.297 149.432V144.823H268.572V149.432C268.572 151.921 266.498 154.041 263.825 154.041H203.906C201.371 154.041 199.297 151.921 199.297 149.432ZM268.572 117.168C268.572 80.2945 199.297 80.2945 199.297 117.168H268.572ZM199.297 126.386H268.434V135.604H199.297V126.386Z" fill="#D9D9D9"/>
<path d="M94.1201 57.2515C70.5113 57.2515 51.373 76.3897 51.373 99.9985C51.373 123.607 70.5113 142.746 94.1201 142.746C117.729 142.746 136.867 123.607 136.867 99.9985C136.867 76.3897 117.729 57.2515 94.1201 57.2515ZM97.8113 123.175V129.196H92.0525V123.243C82.6025 121.949 78.4642 114.184 78.4642 114.184L84.3466 109.263C84.3466 109.263 88.1025 115.801 94.8966 115.801C98.6495 115.801 101.497 113.793 101.497 110.36C101.497 102.337 79.8789 103.31 79.8789 88.425C79.8789 81.9544 84.9966 77.2926 92.0495 76.1897V70.175H97.8083V76.1897C102.726 76.8368 108.55 79.425 108.55 84.9926V89.2632H100.914V87.1926C100.914 85.0573 98.1936 83.6338 95.1495 83.6338C91.2672 83.6338 88.423 85.575 88.423 88.2926C88.423 96.5103 110.041 94.5044 110.041 110.101C110.041 116.513 105.252 122.072 97.8113 123.175Z" fill="#FF5833"/>
<rect x="45.8184" y="186.581" width="176.471" height="23.5294" rx="10.182" fill="#D9D9D9"/>
<rect x="45.8184" y="215.201" width="264.706" height="17.6471" rx="8.82353" fill="#D9D9D9"/>
<rect x="347.27" y="182.987" width="106.911" height="53.4553" rx="10.182" fill="#D9D9D9"/>
<rect x="45.8184" y="286.079" width="176.471" height="22.9094" rx="10.182" fill="#D9D9D9"/>
<rect x="45.8184" y="314.08" width="264.706" height="17.8184" rx="8.90922" fill="#D9D9D9"/>
<rect x="347.27" y="282.261" width="106.911" height="53.4553" rx="10.182" fill="#D9D9D9"/>
<rect width="89.5256" height="15.4354" rx="7.71772" transform="matrix(-0.707107 0.707107 0.707107 0.707107 384.305 286)" fill="#FF5833"/>
<rect width="89.5256" height="15.4354" rx="7.71772" transform="matrix(0.707107 0.707107 0.707107 -0.707107 321.004 296.915)" fill="#FF5833"/>
<rect x="45.8184" y="385.354" width="176.471" height="22.9094" rx="10.182" fill="#D9D9D9"/>
<rect x="45.8184" y="413.354" width="264.706" height="17.8184" rx="8.90922" fill="#D9D9D9"/>
<rect x="347.27" y="381.535" width="106.911" height="53.4553" rx="10.182" fill="#D9D9D9"/>
<path d="M394.806 286.376C404.99 296.56 410.004 308.642 410.004 322.944C410.004 337.245 404.99 349.327 394.806 359.511C384.622 369.695 372.54 374.709 358.238 374.709C343.937 374.709 331.855 369.695 321.671 359.511C311.487 349.327 306.473 337.245 306.473 322.944C306.473 308.642 311.487 296.56 321.671 286.376C331.855 276.192 343.937 271.178 358.238 271.178C372.54 271.178 384.622 276.192 394.806 286.376ZM481.04 445.745C485.362 441.423 487.653 436.083 487.653 430.004C487.653 423.92 485.462 418.557 481.169 414.264L440.418 373.514C449.94 358.23 454.711 341.331 454.711 322.944C454.711 309.892 452.173 297.377 447.1 285.448C442.062 273.602 435.216 263.309 426.544 254.638C417.873 245.966 407.58 239.12 395.734 234.082C383.805 229.009 371.29 226.471 358.238 226.471C345.187 226.471 332.672 229.009 320.743 234.082C308.897 239.12 298.604 245.966 289.933 254.638C281.261 263.309 274.415 273.602 269.377 285.448C264.304 297.377 261.766 309.892 261.766 322.944C261.766 335.995 264.304 348.51 269.377 360.439C274.415 372.285 281.261 382.578 289.933 391.249C298.604 399.921 308.897 406.767 320.743 411.805C332.672 416.878 345.187 419.416 358.238 419.416C376.628 419.416 393.529 414.644 408.815 405.12L449.51 445.696C453.739 450.127 459.139 452.358 465.299 452.358C471.378 452.358 476.718 450.067 481.04 445.745Z" fill="#FF5833" stroke="white" stroke-width="11.7647"/>
<path d="M250.5 518C334.723 518 403 515.09 403 511.5C403 507.91 334.723 505 250.5 505C166.277 505 98 507.91 98 511.5C98 515.09 166.277 518 250.5 518Z" fill="#A3B1BE"/>
</svg>
