<svg version="1.2" xmlns="http://www.w3.org/2000/svg" viewBox="0 0 483 500" width="483" height="500">
	<title>NoSummary-svg</title>
	<defs>
		<clipPath clipPathUnits="userSpaceOnUse" id="cp1">
			<path d="m0 0h500v500h-500z"/>
		</clipPath>
	</defs>
	<style>
		.s0 { fill: #f5f8ff } 
		.s1 { opacity: .7;fill: #f4d3c8 } 
		.s2 { fill: #f5f8ff;stroke: #455a64;stroke-width: 7.8 } 
		.s3 { fill: #c0bebc } 
		.s4 { fill: #ff947c } 
		.s5 { fill: #455a64 } 
		.s6 { fill: #ff5833 } 
		.s7 { fill: none;stroke: #ffa693;stroke-width: 15.6 } 
		.s8 { fill: none;stroke: #ff5833;stroke-width: 15.6 } 
		.s9 { fill: none;stroke: #ffa693;stroke-width: 11.7 } 
		.s10 { fill: #f4d3c8 } 
		.s11 { fill: #1a3166 } 
		.s12 { opacity: .5;fill: #ffbbac } 
		.s13 { fill: #ffa693 } 
	</style>
	<g id="Clip-Path" clip-path="url(#cp1)">
		<g id="Layer">
			<path id="Layer" class="s0" d="m237.4 482.6c-131.3 0-237.4-106.1-237.4-237.4 0-131.3 106.1-237.4 237.4-237.4 131.3 0 237.4 106.1 237.4 237.4 0 131.3-106.1 237.4-237.4 237.4z"/>
			<path id="Layer" class="s1" d="m237.4 429.9c-102.1 0-184.6-82.6-184.6-184.7 0-102.1 82.5-184.6 184.6-184.6 102.1 0 184.7 82.5 184.7 184.6 0 102.1-82.6 184.7-184.7 184.7z"/>
			<path id="Layer" class="s2" d="m347.8 404.1h-220.2c-5.8 0-10.4-4.6-10.4-10.4v-297.4c0-5.7 4.6-10.4 10.4-10.4h171.9l58.6 54.2v253.6c0 5.8-4.6 10.4-10.3 10.4z"/>
			<path id="Layer" fill-rule="evenodd" class="s3" d="m143.7 152.4c0-3.9 3.2-7.1 7.1-7.1h138.3c3.9 0 7.1 3.2 7.1 7.1 0 4-3.2 7.2-7.1 7.2h-138.3c-3.9 0-7.1-3.2-7.1-7.2zm0 44c0-3.9 3.2-7.1 7.1-7.1h178.4c3.9 0 7.1 3.2 7.1 7.1 0 4-3.2 7.2-7.1 7.2h-178.4c-3.9 0-7.1-3.2-7.1-7.2zm0 44c0-3.9 3.2-7.1 7.1-7.1h49.1c3.9 0 7.1 3.2 7.1 7.1 0 4-3.2 7.2-7.1 7.2h-49.1c-3.9 0-7.1-3.2-7.1-7.2zm80.3 0c0-3.9 3.2-7.1 7.1-7.1h98.1c3.9 0 7.1 3.2 7.1 7.1 0 4-3.2 7.2-7.1 7.2h-98.1c-3.9 0-7.1-3.2-7.1-7.2zm-80.3 44c0-3.9 3.2-7.1 7.1-7.1h129.3c4 0 7.2 3.2 7.2 7.1 0 4-3.2 7.2-7.2 7.2h-129.3c-3.9 0-7.1-3.2-7.1-7.2zm160.5 0c0-3.9 3.2-7.1 7.2-7.1h17.8c3.9 0 7.1 3.2 7.1 7.1 0 4-3.2 7.2-7.1 7.2h-17.8c-4 0-7.2-3.2-7.2-7.2zm-160.5 39.7c0-4 3.2-7.2 7.1-7.2h165c4 0 7.2 3.2 7.2 7.2 0 3.9-3.2 7.1-7.2 7.1h-165c-3.9 0-7.1-3.2-7.1-7.1zm0 39.6c0-4 3.2-7.2 7.1-7.2h120.4c4 0 7.2 3.2 7.2 7.2 0 3.9-3.2 7.1-7.2 7.1h-120.4c-3.9 0-7.1-3.2-7.1-7.1z"/>
			<path id="Layer" class="s4" d="m143.7 152.4c0-3.9 3.2-7.1 7.1-7.1h138.3c3.9 0 7.1 3.2 7.1 7.1 0 4-3.2 7.2-7.1 7.2h-138.3c-3.9 0-7.1-3.2-7.1-7.2z"/>
			<path id="Layer" class="s5" d="m301 82l61.1 56.4h-45.4c-8.7 0-15.7-7-15.7-15.7z"/>
			<path id="Layer" class="s6" d="m76.2 93.4l-33.6 33.6c-2 2-2 5.1 0 7 1.9 2 5.1 2 7 0l33.7-33.6c1.9-2 1.9-5.1 0-7-2-2-5.1-2-7.1 0z"/>
			<path id="Layer" class="s6" d="m42.6 100.4l33.6 33.6c2 2 5.1 2 7.1 0 1.9-1.9 1.9-5 0-7l-33.7-33.6c-2-2-5.1-2-7 0-2 1.9-2 5 0 7z"/>
			<path id="Layer" class="s7" d="m102.9 244.9c-9.4 0-17-7.6-17-17 0-9.4 7.6-17 17-17 9.4 0 17 7.6 17 17 0 9.4-7.6 17-17 17z"/>
			<path id="Layer" class="s8" d="m455.5 293.8c-7.8 0-14.1-6.3-14.1-14.1 0-7.8 6.3-14.1 14.1-14.1 7.8 0 14.1 6.3 14.1 14.1 0 7.8-6.3 14.1-14.1 14.1z"/>
			<path id="Layer" class="s9" d="m39.5 313.4c-2.4 0-4.3-2-4.3-4.4 0-2.4 1.9-4.3 4.3-4.3 2.4 0 4.3 1.9 4.3 4.3 0 2.4-1.9 4.4-4.3 4.4z"/>
			<path id="Layer" class="s10" d="m245.8 492c85.4 0 154.7-4 154.7-9 0-5-69.3-9-154.7-9-85.5 0-154.7 4-154.7 9 0 5 69.2 9 154.7 9z"/>
			<path id="Layer" class="s11" d="m327.1 350.7l23.3-23.2 95.7 81.7c11.8 10 12.5 27.9 1.6 38.8-10.9 10.9-28.8 10.2-38.8-1.5z"/>
			<path id="Layer" class="s6" d="m343.6 370l65.3 76.5c10 11.7 27.9 12.4 38.8 1.5 10.9-10.9 10.2-28.8-1.6-38.8l-85.3-72.8c-3.4 12.3-9.3 23.7-17.2 33.6z"/>
			<path id="Layer" fill-rule="evenodd" class="s6" d="m207.4 251.4c6.9-16.1 18.4-29.8 33-39.4 14.7-9.5 31.7-14.4 49.1-14 17.4 0.4 34.3 6.1 48.4 16.2 14.2 10.2 25.1 24.4 31.4 40.9 4.1 10.9 6.1 22.5 5.9 34.2-0.3 11.7-2.8 23.2-7.4 33.9-4.6 10.8-11.3 20.5-19.6 28.6-8.3 8.1-18.1 14.5-28.8 18.7-16.2 6.5-33.9 7.9-50.9 4-16.9-3.8-32.3-12.7-44.3-25.5-12-12.8-19.9-28.9-22.9-46.2-3-17.4-0.9-35.2 6.1-51.4zm45-20.9c-10.9 7.1-19.6 17.4-24.8 29.6-5.3 12.2-6.9 25.8-4.6 38.9 2.3 13.2 8.3 25.3 17.3 34.9 9 9.6 20.5 16.3 33.1 19.1 12.6 2.9 25.8 1.9 37.9-2.9 8-3.2 15.3-8 21.5-14.1 6.3-6.1 11.3-13.4 14.8-21.5 3.5-8.1 5.4-16.8 5.6-25.7 0.2-8.9-1.4-17.7-4.5-25.9-4.7-12.5-12.9-23.2-23.6-30.8-10.6-7.6-23.2-11.8-36.1-12.1-12.9-0.3-25.6 3.4-36.6 10.5z"/>
			<path id="Layer" class="s12" d="m437.5 410l-69-56.5c-2.1-1.8-4.6 0.7-2.9 2.8l55.8 69.3c2.1 2.7 5.2 4.4 8.5 4.8l1.9 0.2c6.6 0.7 11.5-4.5 10.6-11.2l-0.3-1.5c-0.4-3-2.1-5.9-4.6-7.9z"/>
			<path id="Layer" class="s6" d="m307.8 255.5l-52.3 52.3c-3.1 3.1-3.1 7.9 0 11 3 3 7.9 3 10.9 0l52.4-52.4c3-3 3-7.9 0-10.9-3.1-3.1-7.9-3.1-11 0z"/>
			<path id="Layer" class="s6" d="m255.5 266.4l52.3 52.4c3.1 3 7.9 3 11 0 3-3.1 3-7.9 0-11l-52.4-52.3c-3-3.1-7.9-3.1-10.9 0-3.1 3-3.1 7.9 0 10.9z"/>
			<path id="Layer" class="s13" d="m430.7 155.4l-29.2 29.3c-1.7 1.6-1.7 4.4 0 6 1.7 1.7 4.4 1.7 6.1 0l29.2-29.2c1.7-1.7 1.7-4.4 0-6.1-1.6-1.7-4.4-1.7-6.1 0z"/>
			<path id="Layer" class="s13" d="m401.5 161.5l29.2 29.2c1.7 1.7 4.5 1.7 6.1 0 1.7-1.6 1.7-4.4 0-6l-29.2-29.3c-1.7-1.7-4.4-1.7-6.1 0-1.7 1.7-1.7 4.4 0 6.1z"/>
			<path id="Layer" class="s6" d="m171.9 428.4l-24.8 24.8c-1.4 1.4-1.4 3.7 0 5.2 1.4 1.4 3.8 1.4 5.2 0l24.8-24.9c1.4-1.4 1.4-3.7 0-5.1-1.4-1.5-3.7-1.5-5.2 0z"/>
			<path id="Layer" class="s6" d="m147.1 433.5l24.8 24.9c1.5 1.4 3.8 1.4 5.2 0 1.4-1.5 1.4-3.8 0-5.2l-24.8-24.8c-1.4-1.5-3.8-1.5-5.2 0-1.4 1.4-1.4 3.7 0 5.1z"/>
		</g>
	</g>
</svg>