<svg version="1.2" xmlns="http://www.w3.org/2000/svg" viewBox="0 0 401 362" width="401" height="362"><style>.a{fill:#ebebeb}.b{fill:#e6e6e6}.c{fill:#f0f0f0}.d{fill:#fafafa}.e{fill:#fff}.f{opacity:.6;fill:#ebebeb}.g{fill:#f5f5f5}.h{fill:#e0e0e0}.i{fill:#ff5833}.j{opacity:.5;fill:#fff}.k{fill:#f9b7a2}.l{fill:#ffab99}.m{fill:#263238}.n{fill:#ffc4b1}.o{opacity:.1;fill:#fff}.p{opacity:.3}.q{opacity:.4}.r{opacity:.2}.s{opacity:.3;fill:#fff}</style><path class="a" d="m449 309.4h-500v0.3h500z"/><path class="a" d="m398.9 325.5h-33.1v0.2h33.1z"/><path class="a" d="m280.2 328.2h-8.7v0.3h8.7z"/><path class="a" d="m364.8 316.2h-19.2v0.3h19.2z"/><path class="a" d="m44.7 317.9h-43.2v0.2h43.2z"/><path class="a" d="m59.9 317.9h-6.3v0.2h6.3z"/><path class="a" d="m174.2 322.1h-93.7v0.3h93.7z"/><path fill-rule="evenodd" class="a" d="m186 264.8h-193.1c-1.5 0-3-0.6-4-1.7-1.1-1-1.7-2.5-1.7-4v-271.4c0-1.5 0.6-3 1.7-4 1.1-1.1 2.5-1.7 4-1.7h193.1c1.5 0 3 0.6 4 1.7 1.1 1 1.7 2.5 1.7 4v271.4c0 1.5-0.6 3-1.7 4-1 1.1-2.5 1.7-4 1.7zm-193.1-282.6c-1.4 0-2.8 0.6-3.8 1.6-1.1 1-1.6 2.4-1.6 3.9v271.4c0 1.4 0.5 2.8 1.6 3.8 1 1.1 2.4 1.6 3.8 1.7h193.1c1.4-0.1 2.8-0.6 3.9-1.7 1-1 1.6-2.4 1.6-3.8v-271.4c0-1.5-0.6-2.9-1.6-3.9-1.1-1-2.5-1.6-3.9-1.6z"/><path fill-rule="evenodd" class="a" d="m402.3 264.8h-193.1c-1.5 0-3-0.6-4-1.7-1.1-1-1.7-2.5-1.7-4v-271.4c0-1.5 0.6-3 1.7-4 1.1-1.1 2.5-1.7 4-1.7h193.1c1.5 0 3 0.6 4 1.7 1.1 1 1.7 2.5 1.7 4v271.4c0 1.5-0.6 3-1.7 4-1 1.1-2.5 1.7-4 1.7zm-193.1-282.6c-1.4 0-2.8 0.6-3.8 1.6-1.1 1-1.6 2.4-1.7 3.9v271.4c0.1 1.4 0.6 2.8 1.7 3.8 1 1.1 2.4 1.6 3.8 1.7h193.1c1.5-0.1 2.8-0.6 3.9-1.7 1-1 1.6-2.4 1.6-3.8v-271.4c0-1.5-0.6-2.9-1.6-3.9-1.1-1-2.4-1.6-3.9-1.6z"/><path class="b" d="m238.7 101.1h137.8v-90.3h-137.8z"/><path class="c" d="m234.5 101.1h140v-90.3h-140z"/><path class="b" d="m238.7 118.8h137.8v-17.7h-137.8z"/><path class="c" d="m227.5 118.8h140v-17.7h-140z"/><path class="d" d="m368.6 95.2v-78.5h-128.2v78.5z"/><path class="e" d="m339.7 95.2l-16.4-78.5h-25.5l16.3 78.5z"/><path class="c" d="m365.9 89.3q0.1 0 0.2 0 0 0 0.1-0.1 0.1-0.1 0.1-0.1 0-0.1 0-0.2v-68.3q0-0.2-0.1-0.3-0.1-0.2-0.3-0.2-0.1 0-0.2 0.1 0 0-0.1 0.1-0.1 0-0.1 0.1 0 0.1 0 0.1v68.4q0 0.1 0 0.2 0 0 0.1 0.1 0.1 0.1 0.1 0.1 0.1 0 0.2 0z"/><path class="e" d="m308.7 95.2l-16.4-78.5h-10l16.4 78.5z"/><path class="b" d="m241.1 95.2v-78.5h-0.7v78.5z"/><path class="f" d="m233.1 25.6h137.8l0.5-6.6h-137.8z"/><path class="f" d="m233.1 36.4h137.8l0.5-6.6h-137.8z"/><path class="f" d="m233.1 47.2h137.8l0.5-6.6h-137.8z"/><path class="f" d="m233.1 58h137.8l0.5-6.6h-137.8z"/><path class="f" d="m233.1 68.8h137.8l0.5-6.6h-137.8z"/><path class="f" d="m233.1 79.6h137.8l0.5-6.6h-137.8z"/><path class="b" d="m356.7 243.8h-28.9v5.7h28.9z"/><path class="b" d="m273.3 309.4h5.3v-131.1h-5.3z"/><path class="g" d="m254.8 249.5h73v-5.7h-73z"/><path class="b" d="m356.7 274.9l-28.9 0.1v5.7l28.9-0.1z"/><path class="g" d="m254.8 280.6h73v-5.7h-73z"/><path class="b" d="m356.7 181.4h-28.9v5.7h28.9z"/><path class="g" d="m254.8 187.1h73v-5.7h-73z"/><path class="b" d="m356.7 212.6h-28.9v5.7h28.9z"/><path class="g" d="m254.8 218.3h73v-5.7h-73z"/><path class="b" d="m346.3 309.4h5.3v-131.1h-5.3z"/><path class="g" d="m322.5 309.4h5.3v-131.1h-5.3z"/><path class="g" d="m254.8 309.4h5.4v-131.1h-5.4z"/><path class="b" d="m14.4 309.4h54.6v-105.9h-54.6z"/><path class="d" d="m28.9 309.4h-14.5v-14.6h29.8z"/><path class="b" d="m163.2 309.4h54.6v-105.9h-54.6z"/><path class="d" d="m14.4 304.4h161.5v-100.9h-161.5z"/><path class="d" d="m161.3 309.4h14.6v-14.6h-29.8z"/><path class="c" d="m25.7 266.3h138.9v-25.2h-138.9z"/><path class="c" d="m25.7 297h138.9v-25.3h-138.9z"/><path class="d" d="m138.2 243.8h-86.1c-1.2 0-2.4-0.5-3.2-1.4-0.9-0.8-1.4-2-1.4-3.2v-0.3h95.3v0.3c0 1.2-0.5 2.4-1.4 3.2-0.8 0.9-2 1.4-3.2 1.4z"/><path class="c" d="m25.7 235.7h138.9v-25.3l-138.9 0.1z"/><path class="d" d="m138.2 213.1h-86.1c-1.2 0-2.4-0.4-3.2-1.3-0.9-0.9-1.4-2-1.4-3.2v-0.3h95.3v0.3c0 1.2-0.5 2.3-1.4 3.2-0.8 0.9-2 1.3-3.2 1.3z"/><path class="d" d="m138.2 274.4h-86.1c-1.2 0-2.4-0.5-3.2-1.3-0.9-0.9-1.4-2-1.4-3.2v-0.4h95.3v0.4c0 1.2-0.5 2.3-1.4 3.2-0.8 0.8-2 1.3-3.2 1.3z"/><path class="b" d="m23.1 101.1h137.7v-90.3h-137.7z"/><path class="c" d="m18.9 101.1h140v-90.3h-140z"/><path class="b" d="m23.1 118.8h137.7v-17.7h-137.7z"/><path class="c" d="m11.9 118.8h140v-17.7h-140z"/><path class="d" d="m153 95.2v-78.5h-128.3l0.1 78.5z"/><path class="e" d="m124.1 95.2l-16.4-78.5h-25.6l16.4 78.5z"/><path class="c" d="m150.3 89.3q0.1 0 0.1 0 0.1 0 0.2-0.1 0-0.1 0.1-0.1 0-0.1 0-0.2v-68.3q0-0.1 0-0.2-0.1-0.1-0.1-0.1-0.1-0.1-0.2-0.1 0-0.1-0.1-0.1-0.2 0-0.3 0.2-0.1 0.1-0.2 0.2v68.4q0 0.1 0.1 0.2 0 0 0.1 0.1 0 0.1 0.1 0.1 0.1 0 0.2 0z"/><path class="e" d="m93 95.2l-16.3-78.5h-10l16.4 78.5z"/><path class="b" d="m25.5 95.2v-78.5h-0.8l0.1 78.5z"/><path class="f" d="m17.5 25.6h137.8l0.5-6.6h-137.8z"/><path class="f" d="m17.5 29.3h137.8l0.5-6.6h-137.8z"/><path class="f" d="m17.5 33h137.8l0.5-6.6h-137.8z"/><path class="f" d="m17.5 36.7h137.8l0.5-6.5h-137.8z"/><path class="f" d="m17.5 40.5h137.8l0.5-6.6h-137.8z"/><path class="f" d="m17.5 44.2h137.8l0.5-6.6h-137.8z"/><path class="g" d="m45 200.3h4.8v-53.1h-4.8z"/><path class="d" d="m45.6 200.2h1.4v-53h-1.4z"/><path class="d" d="m47.5 200.2h0.6v-53h-0.6z"/><path class="c" d="m65 203.5h-35.2c0-1.2 0.5-2.3 1.3-3.1 0.8-0.9 2-1.3 3.1-1.3h26.4c1.2 0 2.3 0.4 3.1 1.3 0.9 0.8 1.3 1.9 1.3 3.1z"/><path class="c" d="m38.8 180.1c0.4 0 0.8-0.1 1-0.4 0.3-0.2 0.4-0.6 0.4-0.9v-34.8c0-0.4-0.1-0.7-0.4-1-0.2-0.2-0.6-0.4-1-0.4q-0.2 0-0.5 0.1-0.2 0.1-0.4 0.3-0.2 0.2-0.3 0.5-0.1 0.2-0.1 0.5v34.8c0 0.4 0.1 0.7 0.4 1 0.2 0.2 0.6 0.3 0.9 0.3z"/><path class="h" d="m26.1 159.8h42.6l-4.9-29.8h-32.8z"/><path class="g" d="m199 354.6c107.1 0 193.9-5.1 193.9-11.4 0-6.2-86.8-11.3-193.9-11.3-107.1 0-193.9 5.1-193.9 11.3 0 6.3 86.8 11.4 193.9 11.4z"/><path class="i" d="m53.1 129.4h-1l1.4 18.5 0.9-0.1z"/><path class="i" d="m55.1 157.3l-1 0.1 0.5 6.9h1z"/><path class="i" d="m286.7 242.2h-214.2c-2.3-0.1-4.6-1-6.4-2.6-1.7-1.7-2.8-3.9-3-6.2l-10.5-146.2c-0.1-1.1 0-2.2 0.4-3.3 0.4-1.1 1-2.1 1.7-2.9 0.8-0.8 1.7-1.5 2.8-1.9 1-0.5 2.1-0.7 3.3-0.7h214.1c2.4 0.1 4.7 1 6.4 2.6 1.8 1.6 2.8 3.8 3.1 6.2l10.5 146.2c0.1 1.1-0.1 2.2-0.4 3.3-0.4 1.1-1 2-1.8 2.9-0.7 0.8-1.7 1.5-2.7 1.9-1 0.4-2.2 0.7-3.3 0.7z"/><path class="i" d="m287.5 242.2h-214.1c-2.4-0.1-4.7-1-6.4-2.6-1.8-1.7-2.9-3.9-3.1-6.2l-10.5-146.2c-0.1-1.1 0.1-2.2 0.4-3.3 0.4-1.1 1-2.1 1.7-2.9 0.8-0.8 1.7-1.5 2.8-1.9 1-0.5 2.1-0.7 3.3-0.7h214.1c2.4 0.1 4.7 1 6.4 2.6 1.8 1.6 2.9 3.8 3.1 6.2l10.5 146.2c0.1 1.1 0 2.2-0.4 3.3-0.4 1.1-1 2-1.7 2.9-0.8 0.8-1.7 1.5-2.8 1.9-1 0.4-2.1 0.7-3.3 0.7z"/><path class="j" d="m287.5 242.2h-214.1c-2.4-0.1-4.7-1-6.4-2.6-1.8-1.7-2.9-3.9-3.1-6.2l-10.5-146.2c-0.1-1.1 0.1-2.2 0.4-3.3 0.4-1.1 1-2.1 1.7-2.9 0.8-0.8 1.7-1.5 2.8-1.9 1-0.5 2.1-0.7 3.3-0.7h214.1c2.4 0.1 4.7 1 6.4 2.6 1.8 1.6 2.9 3.8 3.1 6.2l10.5 146.2c0.1 1.1 0 2.2-0.4 3.3-0.4 1.1-1 2-1.7 2.9-0.8 0.8-1.7 1.5-2.8 1.9-1 0.4-2.1 0.7-3.3 0.7z"/><path class="i" d="m276.1 82.8h-214.2-0.7c-5.5 0.5-4.4 8.8 1.1 8.8h214.6c5.5 0 5.4-8.3-0.1-8.8z"/><path class="d" d="m67.5 87.2q0 0.4-0.1 0.8-0.1 0.4-0.4 0.6-0.3 0.3-0.6 0.5-0.4 0.1-0.8 0.1c-0.5 0-1.1-0.2-1.5-0.6-0.4-0.3-0.6-0.8-0.7-1.4q0-0.4 0.1-0.7 0.2-0.4 0.4-0.7 0.3-0.3 0.7-0.4 0.3-0.2 0.7-0.2c0.6 0 1.1 0.2 1.5 0.6 0.4 0.4 0.6 0.9 0.7 1.4z"/><path class="d" d="m74.4 87.2q0 0.4-0.1 0.8-0.2 0.4-0.4 0.6-0.3 0.3-0.7 0.5-0.3 0.1-0.7 0.1c-0.6 0-1.1-0.2-1.5-0.6-0.4-0.3-0.6-0.8-0.7-1.4q0-0.4 0.1-0.7 0.1-0.4 0.4-0.7 0.3-0.3 0.6-0.4 0.4-0.2 0.8-0.2c0.5 0 1 0.2 1.5 0.6 0.4 0.4 0.6 0.9 0.7 1.4z"/><path class="d" d="m81.2 87.2q0 0.4-0.1 0.8-0.1 0.3-0.4 0.6-0.2 0.3-0.6 0.5-0.4 0.1-0.8 0.1c-0.5 0-1-0.2-1.4-0.6-0.4-0.3-0.7-0.8-0.7-1.4q-0.1-0.4 0.1-0.7 0.1-0.4 0.4-0.7 0.2-0.3 0.6-0.4 0.4-0.2 0.8-0.2c0.5 0 1 0.2 1.4 0.6 0.4 0.4 0.7 0.9 0.7 1.4z"/><path class="e" d="m281.9 227.6h-204.9c-0.9 0-1.7-0.4-2.3-1-0.7-0.6-1-1.4-1.1-2.2l-8.7-120.2q0-0.6 0.2-1.2 0.2-0.6 0.6-1.1 0.4-0.4 1-0.7 0.6-0.2 1.2-0.2h204.9c0.9 0 1.7 0.4 2.4 1 0.6 0.5 1 1.3 1.1 2.2l8.6 120.2q0.1 0.6-0.1 1.2-0.3 0.6-0.7 1.1-0.4 0.4-1 0.7-0.6 0.2-1.2 0.2z"/><path class="e" d="m195.5 181.8l-3.3-46.3-10.1-6.1h-27.8l3.8 52.4z"/><path fill-rule="evenodd" class="i" d="m195.5 182.3h-37.4q-0.2 0-0.4-0.1-0.1-0.2-0.1-0.4l-3.8-52.4q0-0.1 0-0.2 0.1-0.1 0.1-0.1 0.1-0.1 0.2-0.1 0.1-0.1 0.2-0.1h27.8q0.1 0 0.2 0.1l10.1 6.1q0.1 0 0.2 0.1 0.1 0.1 0.1 0.2l3.3 46.4q0 0.1 0 0.2-0.1 0.1-0.1 0.1-0.1 0.1-0.2 0.1-0.1 0.1-0.2 0.1zm-37-1h36.5l-3.3-45.6-9.7-5.8h-27.2z"/><path class="a" d="m192.2 135.5l-10.1-6.1 3.7 8.1z"/><path fill-rule="evenodd" class="i" d="m185.8 137.9q-0.1 0-0.3 0-0.1-0.1-0.1-0.2l-3.7-8.1q-0.1-0.1-0.1-0.3 0-0.2 0.2-0.3 0.1-0.1 0.2-0.1 0.2 0 0.3 0.1l10.1 6.1q0.2 0 0.2 0.2 0.1 0.1 0.1 0.2 0 0.2-0.1 0.3-0.1 0.1-0.3 0.1l-6.4 2zm-2.6-7.3l2.9 6.3 5-1.6z"/><path class="i" d="m170 153q0 0.4-0.1 0.8-0.2 0.4-0.4 0.7-0.3 0.3-0.7 0.4-0.4 0.2-0.8 0.2c-0.6 0-1.1-0.2-1.5-0.6-0.5-0.4-0.7-0.9-0.8-1.5q0-0.4 0.1-0.8 0.2-0.4 0.5-0.7 0.2-0.3 0.6-0.5 0.4-0.1 0.8-0.1c0.6 0 1.2 0.2 1.6 0.6 0.4 0.4 0.6 0.9 0.7 1.5z"/><path class="i" d="m183.7 153q0 0.4-0.1 0.8-0.1 0.4-0.4 0.7-0.3 0.3-0.7 0.5-0.4 0.1-0.8 0.1c-0.6 0-1.1-0.2-1.5-0.6-0.5-0.4-0.7-0.9-0.8-1.5q0-0.4 0.1-0.8 0.2-0.4 0.5-0.7 0.3-0.3 0.6-0.5 0.4-0.1 0.8-0.1c0.6 0 1.2 0.2 1.6 0.6 0.4 0.4 0.7 0.9 0.7 1.5z"/><path class="i" d="m187.6 166.7q-0.2 0-0.3-0.1-0.2-0.1-0.2-0.3c-0.3-3.4-5.6-6.2-11.9-6.2-4.2 0-8 1.3-9.8 3.3q-0.6 0.5-0.9 1.3-0.3 0.7-0.3 1.5 0.1 0.1 0 0.2 0 0.1-0.1 0.2-0.1 0.1-0.3 0.2-0.2 0-0.4-0.2-0.1-0.1-0.2-0.3 0-1 0.4-2 0.3-0.9 1-1.6c2-2.2 6.1-3.6 10.6-3.6 6.9 0 12.5 3.2 12.8 7.1q0 0.1 0 0.2 0 0.1-0.1 0.2-0.1 0-0.1 0.1-0.1 0-0.2 0z"/><path class="i" d="m162.2 148.7q-0.2 0-0.4-0.1-0.1-0.2-0.1-0.4 0-0.2 0.1-0.3l2.2-2.3q0.1-0.1 0.3-0.1 0.2 0 0.3 0.1 0.1 0.1 0.2 0.2 0 0.1 0 0.1 0 0.1 0 0.2-0.1 0.1-0.2 0.2l-2.1 2.3q-0.1 0-0.1 0.1-0.1 0-0.2 0z"/><path class="i" d="m186.6 148.7q-0.2 0-0.3-0.1l-2.5-2.3q-0.1-0.1-0.1-0.2 0 0 0-0.1 0-0.1 0-0.2 0-0.1 0.1-0.2 0.1-0.1 0.3-0.1 0.2 0 0.4 0.1l2.4 2.3q0.1 0.1 0.1 0.2 0.1 0 0.1 0.1 0 0.1-0.1 0.2 0 0.1-0.1 0.2-0.1 0.1-0.3 0.1z"/><path class="i" d="m151.3 192.1h2.2l3.3 4.4-0.3-4.4h2.2l0.6 7.9h-2.3l-3.2-4.3 0.3 4.3h-2.3z"/><path fill-rule="evenodd" class="i" d="m160.3 196.1q-0.1-0.8 0.1-1.6 0.3-0.8 0.8-1.4 0.6-0.6 1.3-0.9 0.8-0.3 1.6-0.2c1.1-0.1 2.2 0.3 3.1 1 0.8 0.8 1.2 1.9 1.2 3 0.1 0.8 0 1.5-0.3 2.2-0.2 0.6-0.6 1.1-1.2 1.4-0.6 0.4-1.4 0.5-2.1 0.5q-1.2 0-2.3-0.4c-0.6-0.3-1.1-0.8-1.5-1.4-0.4-0.6-0.6-1.4-0.7-2.2zm2.5 0q0 0 0 0 0 0 0 0zm0.5 1.6q0.3 0.3 0.6 0.4 0.3 0.2 0.7 0.2 0.3 0 0.6-0.1 0.3-0.2 0.5-0.4c0.3-0.6 0.4-1.2 0.3-1.8 0-0.6-0.2-1.2-0.6-1.6q-0.2-0.3-0.5-0.4-0.4-0.2-0.7-0.2-0.3 0-0.6 0.2-0.3 0.1-0.6 0.4c-0.2 0.5-0.3 1.1-0.2 1.7 0 0.6 0.2 1.2 0.5 1.6z"/><path fill-rule="evenodd" class="i" d="m173.2 192.1h3.6q0.8 0 1.7 0.3 0.7 0.3 1.1 0.9 0.5 0.5 0.7 1.2 0.3 0.8 0.3 1.5 0.2 1-0.1 2-0.2 0.7-0.7 1.1-0.4 0.5-1 0.7-0.7 0.2-1.4 0.2h-3.6zm2.5 1.8l0.3 4.3h0.6q0.6 0 1.1-0.2 0.3-0.2 0.4-0.6 0.2-0.7 0.1-1.4c0-0.6-0.1-1.2-0.5-1.7q-0.3-0.2-0.7-0.3-0.3-0.2-0.7-0.1z"/><path fill-rule="evenodd" class="i" d="m186.4 198.7h-2.7l-0.3 1.3h-2.5l2.4-7.9h2.7l3.5 7.9h-2.5zm-0.7-1.7l-1-2.8-0.7 2.8z"/><path class="i" d="m188.4 192.1h7.3l0.2 2h-2.5l0.4 5.9h-2.4l-0.4-5.9h-2.5z"/><path fill-rule="evenodd" class="i" d="m201.4 198.7h-2.8l-0.3 1.3h-2.4l2.3-7.9h2.7l3.5 7.9h-2.6zm-0.6-1.7l-1.1-2.8-0.6 2.8z"/><path class="k" d="m302.7 100.1c0.9-0.5 2-1 2.9-1.6 1-0.6 2-1.1 3-1.7 2-1.2 4-2.4 5.8-3.7q5.7-3.9 10.6-8.7c0.4-0.4 0.7-0.8 1.1-1.2l0.6-0.6 0.3-0.3 0.1-0.2c-0.1 0.3 0 0.2 0 0q0.1-0.6 0.2-1.1-0.1-3.2-0.8-6.3c-0.9-4.5-2.2-9.1-3.5-13.7l3.8-1.7q3.7 6.5 6.1 13.6c0.9 2.6 1.5 5.2 1.8 7.9q0.1 1.3-0.1 2.5c-0.2 1.2-0.6 2.3-1.2 3.3l-0.2 0.2-0.1 0.2-0.2 0.2-0.3 0.4-0.6 0.7c-0.4 0.5-0.8 1-1.3 1.5-3.4 3.8-7.2 7.2-11.3 10.2-2 1.5-4.2 2.9-6.3 4.2q-1.6 1-3.3 1.9c-1.1 0.6-2.2 1.1-3.5 1.7z"/><path fill-rule="evenodd" class="i" d="m292.2 334.7q-0.2-0.2-0.3-0.4-0.1-0.3 0-0.6 0-0.2 0.1-0.3 0.1-0.2 0.3-0.3c0.9-0.4 3.5 1.2 3.8 1.4q0 0.1 0 0.1 0.1 0.1 0.1 0.1-0.1 0.1-0.1 0.1 0 0.1-0.1 0.1-1.1 0.3-2.2 0.3c-0.6 0-1.1-0.1-1.6-0.5zm0.2-1.2q-0.1 0-0.1 0.1-0.1 0.1-0.1 0.1 0 0.2 0.1 0.4 0 0.2 0.1 0.3c0.5 0.4 1.6 0.5 3 0.2-1-0.6-2.5-1.3-3-1.1z"/><path fill-rule="evenodd" class="i" d="m295.9 334.9c-0.8-0.5-2.3-2.2-2.1-3.2q0-0.3 0.2-0.4 0.2-0.2 0.4-0.2 0.3 0 0.5 0.1 0.2 0 0.4 0.2c0.9 0.8 0.9 3.2 0.9 3.3q0 0.1 0 0.1-0.1 0.1-0.1 0.1h-0.1q0 0-0.1 0zm-1.4-3.4c-0.3 0-0.3 0.1-0.3 0.2-0.2 0.6 0.8 2 1.6 2.6 0-0.9-0.3-1.9-0.8-2.6q-0.2-0.2-0.4-0.2z"/><path class="l" d="m295.2 75.1c-1 5-3 15 0.5 18.3 0 0-1.4 5-10.6 5-10.2 0-4.9-5-4.9-5 5.6-1.3 5.4-5.4 4.5-9.3z"/><path class="m" d="m278.3 95.4c-1.6 0.2-0.3-3.9 0.4-4.3 1.5-1 20.9-2.4 20.7 0-0.1 1-0.5 3-1.4 3.6-0.8 0.7-5.8-1.4-19.7 0.7z"/><path class="m" d="m281.4 94c-1.2 0.4-1.1-3.7-0.7-4.2 1-1.2 16.7-5.2 17.2-2.9 0.1 1 0.2 3-0.3 3.7-0.6 0.7-5.2-0.5-16.2 3.4z"/><path class="m" d="m275.6 66.1q-0.1 0-0.2 0-0.1-0.1-0.1-0.1-0.5-0.6-1.2-1-0.7-0.3-1.4-0.3-0.1 0-0.2 0 0 0-0.1-0.1-0.1 0-0.1-0.1 0 0 0-0.1-0.1-0.2 0-0.3 0.1-0.1 0.3-0.2 1 0 1.8 0.4 0.9 0.4 1.5 1.2 0.1 0.1 0.1 0.3 0 0.1-0.2 0.2-0.1 0.1-0.2 0.1z"/><path class="l" d="m273.7 71q-0.7 2.4-2 4.5 0.5 0.3 1.2 0.4 0.6 0.1 1.2-0.2z"/><path class="m" d="m274.2 69.8c0 0.7-0.3 1.2-0.7 1.3-0.5 0-0.9-0.5-0.9-1.2-0.1-0.6 0.2-1.2 0.6-1.2 0.5-0.1 0.9 0.4 1 1.1z"/><path class="m" d="m273.4 68.7l-1.6-0.3c0 0 0.9 1.1 1.6 0.3z"/><path class="k" d="m305.7 334.7h-8.4l0.7-19.4h8.4z"/><path class="m" d="m296.7 333.7h9.4q0.2 0 0.4 0.2 0.2 0.1 0.2 0.4l1.1 7.4q0 0.3 0 0.6-0.1 0.3-0.3 0.5-0.2 0.2-0.5 0.3-0.2 0.1-0.5 0.1c-3.3 0-4.9-0.2-9-0.2-2.6 0-6.3 0.2-9.8 0.2-3.5 0-3.7-3.4-2.2-3.8 6.5-1.4 7.6-3.3 9.8-5.2 0.4-0.3 0.8-0.5 1.4-0.5z"/><g style="opacity:.2"><path  d="m306.4 315.3h-8.4l-0.4 10h8.4z"/></g><path class="k" d="m272.4 105q-7.7-3-15.1-6.8c-5-2.4-9.9-5.4-14.4-8.7q-1.8-1.4-3.4-3.1c-0.3-0.3-0.6-0.6-0.8-0.9q-0.5-0.6-0.9-1.2c-0.7-1-1.2-2.3-1.3-3.6-0.2-1.2 0-2.4 0.4-3.6q0.6-1.4 1.5-2.6 1.4-2 3.3-3.5 3.4-2.7 7.3-4.7 1.9-1 3.8-1.8c1.3-0.5 2.6-1 3.9-1.5l1.8 3.8c-4.4 2.8-8.9 5.8-12.2 9.2q-1.1 1.1-1.9 2.5c-0.5 0.8-0.5 1.4-0.4 1.3 0 0 0 0 0.1 0.1l0.4 0.4c0.2 0.2 0.4 0.4 0.6 0.6q1.2 1.2 2.6 2.2 3.1 2.2 6.5 4 3.4 1.8 6.9 3.6c4.7 2.2 9.6 4.4 14.4 6.4z"/><path class="k" d="m261 64.2l1.4-3-6.3-2.2c0 0-2 5.9 0.3 8.6 1-0.1 2-0.5 2.8-1.1 0.8-0.6 1.4-1.4 1.8-2.3z"/><path class="k" d="m262.4 54.7l-5.1-1.5-1.2 5.8 6.3 2.2z"/><path class="k" d="m327.4 61.4l0.7-7-6.5 1.6c0 0-0.1 6.6 3.3 7.6z"/><path class="k" d="m325 49.5l-4.3 2 0.9 4.5 6.5-1.6z"/><path class="k" d="m296.5 65.3c0.4 8.3 0.6 11.8-3.1 16.4-5.7 7-15.9 5.6-18.7-2.5-2.5-7.2-2.6-19.6 5.2-23.7 1.7-0.9 3.6-1.3 5.5-1.3 2 0 3.8 0.6 5.5 1.5 1.7 1 3.1 2.4 4.1 4.1 0.9 1.6 1.5 3.5 1.5 5.5z"/><path class="m" d="m292.9 81.7c8.2-3.5 13.5-11 11.3-22.6-2.2-11.1-9.7-12.2-12.8-9.9-3.1 2.3-10.8-1.1-15.5 2.8-8 6.8-0.4 14 3.6 18.4 2.3 4.8 5.4 14.8 13.4 11.3z"/><path class="i" d="m289.5 57.1c1 1.3 2.4 2.3 3.9 2.8 1.5 0.5 3.2 0.6 4.8 0.2 1.5-0.4 2.9-1.3 4-2.5 1.1-1.2 1.8-2.7 2.1-4.3 0.2-1.6 0-3.2-0.7-4.7-0.7-1.5-1.8-2.7-3.1-3.6-1.4-0.8-3-1.3-4.6-1.2-1.6 0-3.2 0.5-4.5 1.4-1.9 1.4-3.1 3.4-3.4 5.6-0.4 2.2 0.2 4.5 1.5 6.3z"/><path class="m" d="m291.7 50c-1.2-6.7 5.1-11.9 13.6-9.4 8.5 2.5 4 10 2.2 16-1.7 6 2.9 11.7 4.8 7.2 1.9-4.6-1.3-6-1.3-6 0 0 9 2.3 0.6 12.5-8.3 10.1-15.9-1.1-13.9-7.7 1.7-5.3-4.9-6.3-6-12.6z"/><path class="m" d="m283.2 52.5c-3.9-2-10.4-3.6-14.2 2.7-1.7 3-1 7-1 7l11.3 0.7z"/><path class="m" d="m266.6 60.2q-0.1 0-0.2-0.1 0-0.1 0-0.2c0-0.2 0.3-4.2 2.7-6.7 5.9-6.1 12.7-1 14.7 0.7q0.1 0 0.1 0.1 0 0.1-0.1 0.2-0.1 0.1-0.1 0.1-0.1 0-0.2-0.1c-1.9-1.6-8.5-6.4-14-0.7-2.3 2.4-2.6 6.4-2.6 6.4q0 0.1 0 0.1 0 0.1-0.1 0.1 0 0.1-0.1 0.1 0 0-0.1 0z"/><path class="n" d="m280.9 70c-0.1 1.6-0.7 3.1-1.7 4.3-1.4 1.6-3 0.8-3.3-1-0.4-1.6 0-4.4 1.7-5.4 1.8-1 3.3 0.3 3.3 2.1z"/><path class="m" d="m279.1 146.1c0 0 0.5 58.2 5.5 90.6 4.1 26.1 11.6 86.7 11.6 86.7h11.5c0 0 1.1-58.5-1-84.3-5.3-65.5 8.3-77.8-2.6-93z"/><path class="o" d="m279.1 146.1c0 0 0.5 58.2 5.5 90.6 4.1 26.1 11.6 86.7 11.6 86.7h11.5c0 0 1.1-58.5-1-84.3-5.3-65.5 8.3-77.8-2.6-93z"/><path class="p" d="m285.1 172.5c4 17.6 0.8 45.2-1.4 57.4-2.3-18.5-3.5-42.5-4.1-60 2.1-3.4 4-3.6 5.5 2.6z"/><path class="i" d="m294.7 323.6h14.5l0.8-5.1-15.4-0.5z"/><path class="i" d="m298.8 97c1.4-2.7 8.8-4.4 12.8-4.4l3 13.3c0 0-8 11.9-11.4 10.7-3.9-1.5-7.3-13.7-4.4-19.6z"/><path class="q" d="m298.8 97c1.4-2.7 8.8-4.4 12.8-4.4l3 13.3c0 0-8 11.9-11.4 10.7-3.9-1.5-7.3-13.7-4.4-19.6z"/><path fill-rule="evenodd" class="i" d="m290.3 320.3c-0.9 1.1-2.7 2.7-3.9 2.6q-0.3 0-0.5-0.2-0.2-0.1-0.4-0.3-0.1-0.2-0.1-0.4 0-0.1 0.1-0.3c0.5-1 4.2-1.6 4.6-1.7q0.1 0 0.2 0 0 0.1 0.1 0.1 0 0.1 0 0.1 0 0.1 0 0.1zm-4.4 1.5q-0.1 0.1-0.1 0.2 0 0 0.1 0.1 0.1 0.1 0.2 0.3 0.2 0.1 0.3 0.1c0.7 0.1 1.9-0.7 3.2-2-1.5 0.2-3.4 0.8-3.7 1.3q0 0 0 0z"/><path fill-rule="evenodd" class="i" d="m290.3 320.4q0 0-0.1 0c-1 0.3-3.7 0-4.1-0.9-0.1-0.2-0.2-0.5 0.3-0.9q0.2-0.2 0.5-0.3 0.2-0.1 0.5 0c1.4 0 2.9 1.8 3 1.8q0 0.1 0 0.1 0 0.1 0 0.1-0.1 0.1-0.1 0.1zm-3.9-1.2q0 0 0 0.1c0.3 0.5 2.2 0.9 3.4 0.8-0.6-0.8-1.5-1.3-2.4-1.5q-0.2 0-0.4 0-0.2 0.1-0.4 0.3-0.1 0-0.2 0.2 0 0 0 0.1z"/><path class="k" d="m299.1 316.8l-7.7 3.4-3.4-7.1-4.4-9.3-0.6-1.1 7.7-3.4 0.6 1.2 4.3 9z"/><path class="r" d="m295.6 309.5l-7.6 3.6-4.4-9.3 7.7-3.3z"/><path class="m" d="m270.1 146.1c0 0-24.5 60.9-17.9 89.5 6 25.9 32.5 74.9 32.5 74.9l10.3-5.1c0 0-16.4-59.2-18.2-72.1-3.4-25 18.8-60.3 18.8-87.2z"/><path class="o" d="m270.1 146.1c0 0-24.5 60.9-17.9 89.5 6 25.9 32.5 74.9 32.5 74.9l10.3-5.1c0 0-16.4-59.2-18.2-72.1-3.4-25 18.8-60.3 18.8-87.2z"/><path class="m" d="m290.1 319.1l7.6-5.5q0.2-0.2 0.4-0.2 0.3 0.1 0.4 0.2l5.3 5.4q0.2 0.2 0.3 0.5 0.1 0.3 0 0.6 0 0.3-0.1 0.5-0.2 0.3-0.4 0.4c-2.7 1.9-4.1 2.7-7.4 5.1-2.1 1.5-6.2 4.8-9 6.9-2.9 2.1-5-0.6-4-1.8 4.4-5 5.4-8.1 6.1-10.9 0.1-0.5 0.4-0.9 0.8-1.2z"/><path class="i" d="m284.1 312.7l13.2-6.1-1.7-5.3-14.2 6.4z"/><path class="i" d="m276.6 96.4c-1.1-2.9-10.7-6-15.5-7l-2.1 15.7c0 0 7.8 11.2 11.3 10.3 4-1.1 8.6-13 6.3-19z"/><path class="q" d="m276.6 96.4c-1.1-2.9-10.7-6-15.5-7l-2.1 15.7c0 0 7.8 11.2 11.3 10.3 4-1.1 8.6-13 6.3-19z"/><path class="i" d="m266.1 95.6c0 0-4 1.4 4 50.5h34c-0.6-13.8-0.6-22.4 6-50.8q-7.2-1.5-14.5-1.9-7.7-0.5-15.4 0c-6.6 0.6-14.1 2.2-14.1 2.2z"/><path class="q" d="m266.1 95.6c0 0-4 1.4 4 50.5h34c-0.6-13.8-0.6-22.4 6-50.8q-7.2-1.5-14.5-1.9-7.7-0.5-15.4 0c-6.6 0.6-14.1 2.2-14.1 2.2z"/><path class="i" d="m304.6 144.1l1.5 3c0.2 0.3-0.1 0.5-0.5 0.5h-35.7c-0.3 0-0.6-0.1-0.6-0.3l-0.3-3c0-0.2 0.3-0.4 0.6-0.4h34.4q0.2-0.1 0.3 0 0.2 0.1 0.3 0.2z"/><path class="s" d="m304.6 144.1l1.5 3c0.2 0.3-0.1 0.5-0.5 0.5h-35.7c-0.3 0-0.6-0.1-0.6-0.3l-0.3-3c0-0.2 0.3-0.4 0.6-0.4h34.4q0.2-0.1 0.3 0 0.2 0.1 0.3 0.2z"/><path class="m" d="m300 148h0.9c0.2 0 0.4-0.1 0.3-0.2l-0.4-4c0-0.1-0.2-0.2-0.3-0.2h-1c-0.2 0-0.3 0.1-0.3 0.2l0.4 4c0 0.1 0.2 0.2 0.4 0.2z"/><path class="m" d="m277.6 148h0.9c0.2 0 0.4-0.1 0.3-0.2l-0.4-4c0-0.1-0.2-0.2-0.3-0.2h-1c-0.2 0-0.3 0.1-0.3 0.2l0.5 4c0 0.1 0.1 0.2 0.3 0.2z"/></svg>