<svg version="1.2" xmlns="http://www.w3.org/2000/svg" viewBox="0 0 400 350" width="400" height="350">
	<title>NoWebsiteVisit-svg</title>
	<style>
		.s0 { fill: #ebebeb } 
		.s1 { fill: #e6e6e6 } 
		.s2 { fill: #f0f0f0 } 
		.s3 { fill: #ffffff } 
		.s4 { fill: #f5f5f5 } 
		.s5 { fill: #fafafa } 
		.s6 { fill: #ff5833 } 
		.s7 { opacity: .6;fill: #ff5833 } 
		.s8 { opacity: .2;fill: #263238 } 
		.s9 { opacity: .4;fill: #ffb7a7 } 
		.s10 { opacity: .4;fill: #ff5833 } 
		.s11 { fill: #f9b7a2 } 
		.s12 { fill: #263238 } 
		.s13 { opacity: .2;fill: #000000 } 
		.s14 { fill: #000000 } 
		.s15 { opacity: .3;fill: #000000 } 
	</style>
	<path id="Layer" class="s0" d="m451 291.4h-500v0.3h500z"/>
	<path id="Layer" class="s0" d="m400.9 307.5h-33.1v0.2h33.1z"/>
	<path id="Layer" class="s0" d="m282.2 310.2h-8.7v0.3h8.7z"/>
	<path id="Layer" class="s0" d="m366.8 298.2h-19.2v0.3h19.2z"/>
	<path id="Layer" class="s0" d="m46.7 299.9h-43.2v0.2h43.2z"/>
	<path id="Layer" class="s0" d="m61.9 299.9h-6.3v0.2h6.3z"/>
	<path id="Layer" class="s0" d="m176.2 304.1h-93.7v0.3h93.7z"/>
	<path id="Layer" fill-rule="evenodd" class="s0" d="m188 246.8h-193.1c-1.5 0-3-0.6-4-1.7-1.1-1-1.7-2.5-1.7-4v-271.4c0-1.5 0.6-3 1.7-4 1.1-1.1 2.5-1.7 4-1.7h193.1c1.5 0 3 0.6 4 1.7 1.1 1 1.7 2.5 1.7 4v271.4c0 1.5-0.6 3-1.7 4-1 1.1-2.5 1.7-4 1.7zm-193.1-282.6c-1.4 0-2.8 0.6-3.8 1.6-1.1 1-1.6 2.4-1.6 3.9v271.4c0 1.4 0.5 2.8 1.6 3.8 1 1.1 2.4 1.6 3.8 1.7h193.1c1.4-0.1 2.8-0.6 3.9-1.7 1-1 1.6-2.4 1.6-3.8v-271.4c0-1.5-0.6-2.9-1.6-3.9-1.1-1-2.5-1.6-3.9-1.6z"/>
	<path id="Layer" fill-rule="evenodd" class="s0" d="m404.3 246.8h-193.1c-1.5 0-3-0.6-4-1.7-1.1-1-1.7-2.5-1.7-4v-271.4c0-1.5 0.6-3 1.7-4 1.1-1.1 2.5-1.7 4-1.7h193.1c1.5 0 3 0.6 4 1.7 1.1 1 1.7 2.5 1.7 4v271.4c0 1.5-0.6 3-1.7 4-1 1.1-2.5 1.7-4 1.7zm-193.1-282.6c-1.4 0-2.8 0.6-3.8 1.6-1.1 1-1.6 2.4-1.7 3.9v271.4c0.1 1.4 0.6 2.8 1.7 3.8 1 1.1 2.4 1.6 3.8 1.7h193.1c1.5-0.1 2.8-0.6 3.9-1.7 1-1 1.6-2.4 1.6-3.8v-271.4c0-1.5-0.6-2.9-1.6-3.9-1.1-1-2.4-1.6-3.9-1.6z"/>
	<path id="Layer" class="s1" d="m39.5 291.4h29.4v-106.5h-29.4z"/>
	<path id="Layer" class="s2" d="m44.6 291.4h-5.1v-14.5h10.4z"/>
	<path id="Layer" class="s1" d="m233.4 291.4h29.5v-106.5h-29.5z"/>
	<path id="Layer" class="s2" d="m39.5 282.5h198.4v-97.6h-198.4z"/>
	<path id="Layer" class="s1" d="m43.4 216h190.5v-26.7h-190.5z"/>
	<path id="Layer" class="s2" d="m99.5 197.6h78.4c4 0 7.9-0.8 11.6-2.4 3.6-1.6 6.9-3.9 9.6-6.8h-120.9c2.8 2.9 6 5.2 9.7 6.8 3.6 1.6 7.6 2.4 11.6 2.4z"/>
	<path id="Layer" class="s2" d="m232.8 291.4h5.1v-14.5h-10.4z"/>
	<path id="Layer" class="s1" d="m43.4 247.1h190.5v-26.8h-190.5z"/>
	<path id="Layer" class="s2" d="m99.5 228.6h78.4c4 0 7.9-0.8 11.6-2.3 3.6-1.6 6.9-3.9 9.6-6.8h-120.9c2.8 2.9 6 5.2 9.7 6.8 3.6 1.5 7.6 2.3 11.6 2.3z"/>
	<path id="Layer" class="s1" d="m43.4 278.2h190.5v-26.8h-190.5z"/>
	<path id="Layer" class="s2" d="m99.5 259.7h78.4c4 0 7.9-0.8 11.6-2.3 3.6-1.6 6.9-3.9 9.6-6.8h-120.9c2.8 2.9 6 5.2 9.7 6.8 3.6 1.5 7.6 2.3 11.6 2.3z"/>
	<path id="Layer" class="s1" d="m35.1 153.7h116.1v-143.7h-116.1z"/>
	<path id="Layer" class="s2" d="m21.9 153.7h125.9v-143.7h-125.9z"/>
	<path id="Layer" class="s3" d="m137.3 143.2l-0.1-122.6h-104.7v122.6z"/>
	<path id="Layer" class="s0" d="m230.1 150.1h157.2v-141.7h-157.2z"/>
	<path id="Layer" class="s4" d="m226 150.1h159.4v-141.7h-159.4z"/>
	<path id="Layer" class="s0" d="m242.3 157.8h145v-7.7h-145.1z"/>
	<path id="Layer" class="s2" d="m219.9 157.8h136.7v-7.7h-136.7z"/>
	<path id="Layer" class="s5" d="m379.6 144.3v-130.1h-147.9v130.1z"/>
	<path id="Layer" class="s3" d="m356.6 144.3l-49.4-130.1h-23.4l49.4 130.1z"/>
	<path id="Layer" class="s2" d="m376.8 135.2q0.3 0 0.4-0.1 0.2-0.2 0.2-0.4v-116.6q0-0.1 0-0.3-0.1-0.1-0.1-0.2-0.1-0.1-0.2-0.1-0.1-0.1-0.2-0.1-0.2 0-0.3 0.1-0.1 0-0.2 0.1 0 0.1-0.1 0.2 0 0.2 0.1 0.3v116.6q0 0.2 0.1 0.4 0.1 0.1 0.3 0.1z"/>
	<path id="Layer" class="s3" d="m328.2 144.3l-49.4-130.1h-9l49.3 130.1z"/>
	<path id="Layer" class="s3" d="m306.7 144.3l-49.4-130.1h-9.1l49.4 130.1z"/>
	<path id="Layer" class="s0" d="m232.5 144.3v-130.1h-0.7v130.1z"/>
	<g id="Layer" style="opacity: .7">
		<path id="Layer" class="s0" d="m224.6 19.5h157.2l0.6-3h-157.3z"/>
		<path id="Layer" class="s0" d="m224.6 22.7h157.2l0.6-3h-157.3z"/>
		<path id="Layer" class="s0" d="m224.6 25.9h157.2l0.6-3h-157.3z"/>
		<path id="Layer" class="s0" d="m224.6 29.1h157.2l0.6-3h-157.3z"/>
		<path id="Layer" class="s0" d="m224.6 32.3h157.2l0.6-3h-157.3z"/>
		<path id="Layer" class="s0" d="m224.6 35.6h157.2l0.6-3h-157.3z"/>
		<path id="Layer" class="s0" d="m224.6 38.8h157.2l0.6-3h-157.3z"/>
		<path id="Layer" class="s0" d="m224.6 42h157.2l0.6-3h-157.3z"/>
		<path id="Layer" class="s0" d="m224.6 45.2h157.2l0.6-3h-157.3z"/>
		<path id="Layer" class="s0" d="m224.6 48.4h157.2l0.6-3h-157.3z"/>
		<path id="Layer" class="s0" d="m224.6 51.7h157.2l0.6-3h-157.3z"/>
		<path id="Layer" class="s0" d="m224.6 54.9h157.2l0.6-3h-157.3z"/>
		<path id="Layer" class="s0" d="m224.6 58.1h157.2l0.6-3h-157.3z"/>
		<path id="Layer" class="s0" d="m224.6 61.3h157.2l0.6-3h-157.3z"/>
		<path id="Layer" class="s0" d="m224.6 64.6h157.2l0.6-3h-157.3z"/>
		<path id="Layer" class="s0" d="m224.6 67.8h157.2l0.6-3h-157.3z"/>
		<path id="Layer" class="s0" d="m224.6 71h157.2l0.6-3h-157.3z"/>
		<path id="Layer" class="s0" d="m224.6 74.2h157.2l0.6-3h-157.3z"/>
		<path id="Layer" class="s0" d="m224.6 77.4h157.2l0.6-3h-157.3z"/>
		<path id="Layer" class="s0" d="m224.6 80.7h157.2l0.6-3h-157.3z"/>
		<path id="Layer" class="s0" d="m224.6 83.9h157.2l0.6-3h-157.3z"/>
		<path id="Layer" class="s0" d="m224.6 87.1h157.2l0.6-3h-157.3z"/>
		<path id="Layer" class="s0" d="m224.6 90.3h157.2l0.6-3h-157.3z"/>
		<path id="Layer" class="s0" d="m224.6 93.6h157.2l0.6-3h-157.3z"/>
	</g>
	<path id="Layer" class="s0" d="m196.7 169.3c0 8.6-11.3 15.6-25.3 15.6-13.9 0-25.2-7-25.2-15.6z"/>
	<path id="Layer" class="s0" d="m130.3 169.3c0 8.6-11.4 15.6-25.3 15.6-14 0-25.3-7-25.3-15.6z"/>
	<path id="Layer" class="s2" d="m321.6 285.6h18.1v-92.2h-18.1z"/>
	<path id="Layer" class="s2" d="m246.9 291.4h89.3v-5.8h-89.3z"/>
	<path id="Layer" class="s4" d="m321.6 193.4h-78.1v92.2h78.1z"/>
	<path id="Layer" class="s2" d="m314.5 204.7h-63.9v30.3l63.9-0.1z"/>
	<path id="Layer" class="s2" d="m314.5 244h-63.9v30.2h63.9z"/>
	<path id="Layer" class="s4" d="m275.3 221.9h14.5c0.9 0 1.7-0.7 1.7-1.7v-0.8c0-0.9-0.8-1.7-1.7-1.7h-14.5c-1 0-1.7 0.8-1.7 1.7v0.8c0 1 0.7 1.7 1.7 1.7z"/>
	<path id="Layer" class="s4" d="m275.3 261.2h14.5c0.9 0 1.7-0.8 1.7-1.7v-0.8c0-0.9-0.8-1.7-1.7-1.7h-14.5c-1 0-1.7 0.8-1.7 1.7v0.8c0 0.9 0.7 1.7 1.7 1.7z"/>
	<path id="Layer" class="s4" d="m201 336.6c107.1 0 193.9-5.1 193.9-11.4 0-6.2-86.8-11.3-193.9-11.3-107.1 0-193.9 5.1-193.9 11.3 0 6.3 86.8 11.4 193.9 11.4z"/>
	<path id="Layer" class="s6" d="m39.6 85.9h-1v19.2h1z"/>
	<path id="Layer" class="s6" d="m39.6 112.4h-1v8.8h1z"/>
	<path id="Layer" class="s6" d="m312.3 38.3h-260c-5.8 0-10.6 4.7-10.6 10.6v162.9c0 5.9 4.8 10.6 10.6 10.6h260c5.8 0 10.6-4.7 10.6-10.6v-162.9c0-5.9-4.8-10.6-10.6-10.6z"/>
	<path id="Layer" class="s3" d="m45.2 48.9v162.9c0 3.9 3.2 7.1 7.1 7.1h260c3.9 0 7-3.2 7-7.1v-162.9c0-3.9-3.1-7.1-7-7.1h-260c-3.9 0-7.1 3.2-7.1 7.1z"/>
	<path id="Layer" class="s7" d="m150.6 190.4v28.5h63.4v-28.5c0-2.6-1.1-5.2-2.9-7.1-1.9-1.8-4.4-2.9-7.1-2.9h-43.5c-2.6 0-5.2 1.1-7 3-1.9 1.8-2.9 4.4-2.9 7z"/>
	<path id="Layer" class="s7" d="m230.8 190.4v28.5h63.5v-28.5c0-2.6-1.1-5.2-3-7.1-1.9-1.8-4.4-2.9-7-2.9h-43.5c-2.7 0-5.2 1.1-7.1 3-1.9 1.8-2.9 4.4-2.9 7z"/>
	<path id="Layer" class="s7" d="m70.3 190.4v28.5h63.5v-28.5c0-2.6-1-5.2-2.9-7.1-1.9-1.8-4.4-2.9-7.1-2.9h-43.5c-2.6 0-5.2 1.1-7 3-1.9 1.8-3 4.4-3 7z"/>
	<path id="Layer" class="s6" d="m273.3 59.7h18.4c0.7 0 1.3-0.3 1.8-0.8 0.5-0.5 0.7-1.1 0.7-1.8q0-0.5-0.1-1-0.2-0.4-0.6-0.8-0.4-0.3-0.8-0.5-0.5-0.2-1-0.2h-18.4c-0.7 0-1.3 0.2-1.8 0.7-0.5 0.5-0.8 1.1-0.8 1.8 0 0.7 0.3 1.3 0.8 1.8 0.5 0.5 1.1 0.8 1.8 0.8z"/>
	<path id="Layer" class="s6" d="m210.6 61.1c2.2 0 4-1.8 4-4 0-2.2-1.8-4-4-4-2.2 0-4 1.8-4 4 0 2.2 1.8 4 4 4z"/>
	<path id="Layer" class="s6" d="m202.1 57.1c0 0.8-0.2 1.6-0.6 2.2-0.5 0.7-1.1 1.2-1.8 1.5-0.8 0.3-1.6 0.4-2.4 0.2-0.7-0.1-1.4-0.5-2-1.1-0.6-0.5-0.9-1.2-1.1-2-0.1-0.8-0.1-1.6 0.2-2.3 0.3-0.7 0.9-1.4 1.5-1.8 0.7-0.4 1.4-0.7 2.2-0.7 1.1 0 2.1 0.4 2.9 1.2 0.7 0.7 1.1 1.8 1.1 2.8z"/>
	<path id="Layer" class="s6" d="m77 53h-5.1c-0.9 0-1.6 0.7-1.6 1.6v5c0 0.9 0.7 1.6 1.6 1.6h5.1c0.8 0 1.6-0.7 1.6-1.6v-5c0-0.9-0.8-1.6-1.6-1.6z"/>
	<path id="Layer" class="s8" d="m103.4 58.4h-9.6c-0.3 0-0.6-0.1-0.9-0.4-0.2-0.2-0.3-0.5-0.3-0.9 0-0.3 0.1-0.6 0.3-0.9 0.3-0.2 0.6-0.4 0.9-0.4h9.6c0.4 0 0.7 0.2 0.9 0.4 0.3 0.3 0.4 0.6 0.4 0.9 0 0.4-0.1 0.7-0.4 0.9-0.2 0.3-0.5 0.4-0.9 0.4z"/>
	<path id="Layer" class="s8" d="m122.2 58.4h-9.6c-0.4 0-0.7-0.1-0.9-0.4-0.3-0.2-0.4-0.5-0.4-0.9 0-0.3 0.1-0.6 0.4-0.9 0.2-0.2 0.5-0.4 0.9-0.4h9.6c0.3 0 0.6 0.2 0.9 0.4 0.2 0.3 0.4 0.6 0.4 0.9 0 0.4-0.2 0.7-0.4 0.9-0.3 0.3-0.6 0.4-0.9 0.4z"/>
	<path id="Layer" class="s8" d="m140.9 58.4h-9.6c-0.3 0-0.6-0.1-0.9-0.4-0.2-0.2-0.3-0.5-0.3-0.9 0-0.3 0.1-0.6 0.3-0.9 0.3-0.2 0.6-0.4 0.9-0.4h9.6c0.4 0 0.7 0.2 0.9 0.4 0.3 0.3 0.4 0.6 0.4 0.9 0 0.4-0.1 0.7-0.4 0.9-0.2 0.3-0.5 0.4-0.9 0.4z"/>
	<path id="Layer" class="s8" d="m159.7 58.4h-9.6c-0.4 0-0.7-0.1-0.9-0.4-0.3-0.2-0.4-0.5-0.4-0.9 0-0.3 0.1-0.6 0.4-0.9 0.2-0.2 0.5-0.4 0.9-0.4h9.6c0.3 0 0.6 0.2 0.9 0.4 0.2 0.3 0.3 0.6 0.3 0.9 0 0.4-0.1 0.7-0.3 0.9-0.3 0.3-0.6 0.4-0.9 0.4z"/>
	<path id="Layer" class="s9" d="m360.7 77.7l-202.7 6.1c-5.9 0.2-10.5 5.1-10.3 10.9l1.8 59.1c0.2 5.8 5 10.4 10.9 10.2l202.7-6.1c5.9-0.1 10.5-5 10.3-10.9l-1.8-59c-0.1-5.9-5-10.5-10.9-10.3z"/>
	<path id="Layer" class="s10" d="m236.6 125.5l-63.2 2.1q-1.2 0.1-2.4-0.3-1.1-0.5-2-1.3-0.9-0.9-1.4-2-0.5-1.1-0.6-2.4 0-1.2 0.4-2.3 0.5-1.2 1.3-2.1 0.9-0.9 2-1.4 1.1-0.5 2.3-0.5l63.2-2.2q1.3 0 2.4 0.4 1.2 0.4 2.1 1.3 0.9 0.8 1.4 2 0.5 1.1 0.5 2.3 0.1 1.2-0.4 2.4-0.4 1.1-1.3 2-0.8 0.9-1.9 1.5-1.2 0.5-2.4 0.5z"/>
	<path id="Layer" class="s10" d="m215.8 145l-41.7 1.4c-1.7 0.1-3.3-0.5-4.5-1.6-1.2-1.2-1.9-2.7-1.9-4.3q-0.1-1.3 0.4-2.4 0.4-1.2 1.3-2.1 0.8-0.9 1.9-1.4 1.2-0.5 2.4-0.5l41.7-1.4q1.3-0.1 2.4 0.4 1.2 0.4 2.1 1.2 0.9 0.9 1.4 2 0.5 1.1 0.5 2.4c0.1 1.6-0.6 3.2-1.7 4.4-1.1 1.2-2.6 1.8-4.3 1.9z"/>
	<path id="Layer" class="s11" d="m367.8 121.6l1.8 5.6 6.7-6.1q-2.1-1.4-4.3-2.5c-0.6-0.3-1.2-0.4-1.8-0.2-0.5 0.2-1 0.6-1.3 1.1z"/>
	<path id="Layer" class="s11" d="m376.2 131.8l2.9-6.7-2.9-4-6.6 6.1z"/>
	<path id="Layer" class="s11" d="m304.4 80.3c-3.4 4.6-6.9 8.9-10.7 13.2q-5.7 6.5-12.1 12.2l-0.3 0.2-0.4 0.4q-0.5 0.4-1 0.7-1.1 0.6-2.3 0.8c-1.3 0.4-2.6 0.4-3.9 0.2-1.8-0.4-3.6-1-5.3-1.9q-4.1-2.3-7.5-5.3c-4.4-3.8-8.4-8-11.9-12.6l4-3.8c4.2 3.4 8.5 6.8 12.9 9.7q3.1 2.1 6.5 3.5 1.2 0.6 2.5 0.7c0.3 0 0.4 0 0.2 0q-0.1 0-0.3 0-0.1 0.1-0.2 0.1v0.1l0.1-0.2c1.8-1.8 3.6-3.8 5.4-5.8 1.8-2 3.5-4.1 5.2-6.2 3.4-4.2 6.9-8.5 10.2-12.7z"/>
	<path id="Layer" class="s11" d="m249.2 75.7l-7.8 1.6 3.9 6.8 6.9-5.3z"/>
	<path id="Layer" class="s11" d="m253.2 85.9l-1-7.1-7 5.3c0 0 1.1 6.2 6 6.2z"/>
	<path id="Layer" class="s12" d="m253.7 84.4q-0.3 0-0.5 0.3-0.3 0.2-0.3 0.5 0 0.1 0 0.2-0.1-0.1-0.3-0.1-0.3 0-0.5 0.2-0.2 0.2-0.3 0.5 0.1 0.1 0.1 0.2h-0.1q-0.3 0-0.5 0.3-0.2 0.2-0.2 0.5 0 0.2 0.2 0.4-0.4 0-0.6 0.2-0.2 0.3-0.2 0.6 0 0.2 0.2 0.4-0.3 0.1-0.5 0.3-0.1 0.2-0.1 0.4 0 0.2 0.1 0.4 0 0.1 0.2 0.2-0.2 0.1-0.4 0.3-0.1 0.2-0.1 0.4 0 0.3 0.2 0.6 0.2 0.2 0.5 0.2 0.3 0 0.6-0.2 0.2-0.3 0.2-0.6 0-0.1-0.1-0.3-0.1-0.1-0.2-0.3 0.2 0 0.3-0.2 0.2-0.2 0.2-0.5 0-0.2-0.2-0.4 0.3-0.1 0.4-0.3 0.2-0.2 0.2-0.4 0-0.3-0.2-0.5 0.2 0 0.3 0 0.2-0.1 0.3-0.2 0.1-0.1 0.1-0.2 0.1-0.2 0.1-0.3 0-0.1 0-0.2 0.3 0 0.5-0.2 0.2-0.3 0.2-0.6 0.1-0.1 0-0.1 0.2 0 0.4 0 0.3 0 0.5-0.2 0.2-0.2 0.2-0.5 0-0.3-0.2-0.5-0.2-0.3-0.5-0.3z"/>
	<path id="Layer" class="s11" d="m345.1 72.7q3.5 6.2 6.8 12.5 3.2 6.3 6.4 12.7l0.8 1.6 0.6 1.3 0.8 1.3 0.9 1.4c1.2 1.8 2.5 3.7 3.8 5.6l8.2 11.4-4 3.8q-5.7-4.5-10.8-9.7c-1.6-1.7-3.3-3.5-5-5.5l-1.1-1.5-1.2-1.6c-0.4-0.6-0.8-1.2-1.1-1.8l-0.9-1.5c-2.4-4-4.8-8.1-7.2-12.2q-3.5-6.2-6.8-12.4z"/>
	<path id="Layer" class="s12" d="m307.3 44.3c0.1 0.6-0.1 1.1-0.5 1.2-0.3 0.1-0.8-0.3-0.9-0.8-0.1-0.6 0.1-1.2 0.5-1.3 0.3-0.1 0.8 0.3 0.9 0.9z"/>
	<path id="Layer" class="s11" d="m307.2 45.4q-0.4 3-1.6 5.7 0.6 0.3 1.4 0.2 0.7 0 1.4-0.4z"/>
	<path id="Layer" class="s12" d="m305.7 40.8q0 0-0.1 0-0.1-0.1-0.1-0.1-0.1-0.1-0.1-0.2 0 0 0-0.1 0-0.1 0-0.1 0.1-0.1 0.1-0.1 0.8-0.5 1.6-0.5 0.8-0.1 1.6 0.2 0.1 0.1 0.2 0.2 0 0.1 0 0.3 0 0-0.1 0.1 0 0-0.1 0.1-0.1 0-0.1 0-0.1 0-0.2 0-0.6-0.3-1.2-0.3-0.7 0.1-1.3 0.4-0.1 0.1-0.2 0.1z"/>
	<path id="Layer" class="s11" d="m327.2 46.2c0.7 6.7-0.3 13.3 1.2 19.1 0 0-1.6 5.5-11.6 5.5-11 0-5-5.5-5-5.5 6-1.4 6-5.8 5.1-10z"/>
	<path id="Layer" class="s12" d="m329.8 67.2c0.8-1.7 1.8-3.7 0-4.3-1.9-0.7-12.7-1.4-16.5-0.1-1 0.3-1.9 0.9-2.4 1.8-0.5 0.9-0.7 2-0.5 3z"/>
	<path id="Layer" fill-rule="evenodd" class="s6" d="m349.6 313q-0.3-0.1-0.4-0.4-0.2-0.2-0.2-0.5-0.1-0.2 0-0.3 0.1-0.2 0.2-0.3c0.8-0.6 3.7 0.4 4 0.5q0 0 0.1 0.1 0 0 0 0.1 0 0 0 0.1 0 0-0.1 0.1-1 0.4-2 0.7c-0.5 0.1-1.1 0.1-1.6-0.1zm-0.1-1.2c-0.1 0-0.1 0.1-0.1 0.2q0 0.2 0.1 0.4 0.1 0.2 0.3 0.3c0.5 0.2 1.5 0.1 2.8-0.5-1.2-0.4-2.7-0.7-3.1-0.4z"/>
	<path id="Layer" fill-rule="evenodd" class="s6" d="m353.1 312.4c-0.9-0.3-2.9-1.7-2.9-2.6q0-0.2 0.1-0.4 0.2-0.2 0.4-0.2 0.2-0.1 0.4-0.1 0.2 0.1 0.4 0.2c1.1 0.5 1.8 2.7 1.8 2.8q0 0.1 0 0.1 0 0.1-0.1 0.1v0.1zm-2.3-2.8c-0.2 0-0.2 0.2-0.2 0.2 0 0.5 1.3 1.6 2.2 2.1-0.2-0.9-0.7-1.7-1.4-2.3q-0.3-0.1-0.5-0.1z"/>
	<path id="Layer" fill-rule="evenodd" class="s6" d="m298.1 317.9q-0.2-0.2-0.3-0.5-0.1-0.2-0.1-0.5 0-0.2 0.1-0.3 0.1-0.2 0.3-0.2c0.9-0.5 3.4 1.1 3.7 1.3q0.1 0 0.1 0.1 0 0 0 0.1 0 0 0 0.1-0.1 0-0.1 0-1.1 0.3-2.1 0.3c-0.6 0.1-1.1-0.1-1.6-0.4zm0.1-1.2c0 0-0.1 0.1-0.1 0.2q0 0.2 0.1 0.4 0 0.2 0.2 0.3c0.4 0.4 1.5 0.4 2.8 0.2-1-0.7-2.5-1.3-3-1.1z"/>
	<path id="Layer" fill-rule="evenodd" class="s6" d="m301.6 318c-0.8-0.4-2.4-2.2-2.2-3.1q0-0.2 0.2-0.4 0.2-0.1 0.4-0.1 0.2 0 0.4 0 0.2 0.1 0.4 0.2c0.9 0.8 1.1 3.1 1.1 3.2q0 0.1 0 0.1 0 0.1-0.1 0.1 0 0-0.1 0 0 0-0.1 0zm-1.5-3.3h-0.1c-0.3 0.1-0.3 0.2-0.3 0.2-0.1 0.5 1 1.9 1.8 2.5-0.1-0.9-0.4-1.8-1-2.5q-0.1-0.2-0.4-0.2z"/>
	<path id="Layer" class="s11" d="m310.4 317.7h-7.4l-0.1-17h7.4z"/>
	<path id="Layer" class="s11" d="m361.7 310.6l-7.2 1.5-6.5-16 7.2-1.6z"/>
	<path id="Layer" class="s12" d="m353.9 311.4l8-1.8q0.3 0 0.5 0.1 0.1 0.1 0.2 0.3l2.6 6.1q0.1 0.3 0 0.5 0 0.3-0.1 0.5-0.1 0.2-0.3 0.4-0.2 0.1-0.5 0.1c-2.8 0.6-4.2 0.7-7.7 1.5-2.2 0.4-6.7 1.6-9.7 2.3-3 0.6-3.9-2.3-2.7-2.8 5.3-2.4 7.1-4.6 8.6-6.6 0.2-0.3 0.6-0.5 1.1-0.6z"/>
	<path id="Layer" class="s12" d="m303.1 316.9h8q0.2 0 0.4 0.1 0.2 0.2 0.2 0.4l1.2 6.5q0.1 0.3 0 0.5-0.1 0.2-0.2 0.4-0.2 0.2-0.4 0.3-0.3 0.1-0.5 0.1c-2.9 0-7.1-0.2-10.7-0.2-4.3 0-7.9 0.2-12.9 0.2-3 0-3.8-3-2.5-3.3 5.8-1.2 10.5-1.4 15.6-4.4 0.5-0.4 1.2-0.6 1.8-0.6z"/>
	<path id="Layer" class="s6" d="m342.4 67c6.9 1.6 14 20.3 14 20.3l-14.2 9.5q-4.8-7.4-8.5-15.5c-3.7-8.6 1.8-15.9 8.7-14.3z"/>
	<path id="Layer" class="s13" d="m337.1 79l5.8 17.4-0.6 0.5c0 0-2.7-4-5.6-9.4z"/>
	<path id="Layer" class="s6" d="m296.6 99.8c0.1 8.2 0.6 18.4 1.8 31.1h39.3c0.5-6-2.2-35.5 4.7-63.9q-6.5-1.3-13-1.7-8.4-0.5-16.8 0-5.7 0.6-11.3 2c0 0-3.4 3.7-4.4 20.7-0.2 3.4-0.3 7.3-0.3 11.8z"/>
	<path id="Layer" class="s13" d="m296.6 99.8c2.4-4.3 6.7-13 6.1-18l-5.8 6.3c-0.2 3.3-0.3 7.2-0.3 11.7z"/>
	<path id="Layer" class="s6" d="m309 74c0.6 7-15.3 23.8-15.3 23.8l-12.7-10.3c3.3-5.6 7.3-10.8 11.9-15.5 7.4-7.2 15.4-5.8 16.1 2z"/>
	<g id="Layer" style="opacity: .2">
		<path id="Layer" class="s14" d="m302.9 300.7l0.1 8.8h7.3v-8.8z"/>
		<path id="Layer" class="s14" d="m355.2 294.6l-7.2 1.5 3.4 8.2 7.2-1.5z"/>
	</g>
	<path id="Layer" class="s11" d="m326.2 38.3c1 7.2 2 11.4-0.7 15.9-0.9 1.5-2.2 2.7-3.7 3.5-1.6 0.8-3.3 1.2-5 1.1-1.7-0.1-3.4-0.6-4.8-1.6-1.5-1-2.6-2.3-3.3-3.9-2.9-6-4.2-16.8 2.1-21.4 1.4-1 2.9-1.7 4.6-1.9 1.7-0.2 3.4 0 4.9 0.6 1.6 0.7 3 1.7 4 3.1 1 1.3 1.7 2.9 1.9 4.6z"/>
	<path id="Layer" class="s12" d="m313 44.3c-3.6 0.7-5.7-3.5-2.9-7.1-5.3 0.3-7.5-2.4-5.2-7.3 2-4.2 8.4-2.1 8.4-2.1 0 0 5.3-7.2 11.6-3.2 6.8 4.3 3.2 8.2 3.2 8.2 0 0 9.7 1.4 7.2 8.3-0.4 1.1-1 2-1.9 2.7-0.9 0.7-2 1.2-3.1 1.3 0 0 2.5 7.5-4.9 9-7.3 1.6-14.7-4.6-12.4-9.8z"/>
	<path id="Layer" class="s11" d="m315.2 42.5c0.2 1.8-0.3 3.7-1.3 5.2-1.3 2-3.1 1.3-3.7-0.8-0.5-1.9-0.5-5.2 1.3-6.6 1.8-1.3 3.5 0 3.7 2.2z"/>
	<path id="Layer" class="s12" d="m312.3 130.9c0 0 6.2 56.1 10 77.1 4.1 23 25.4 95.3 25.4 95.3l13.2-2.8c0 0-14.7-67.6-16.7-90.4-2.1-24.8-6.5-79.3-6.5-79.3z"/>
	<path id="Layer" class="s6" d="m344.8 298.9c-0.1 0 2.2 4.8 2.2 4.8l14.8-3.1-1-4.5z"/>
	<path id="Layer" class="s13" d="m316.8 150.9c9.6 1.9 7.2 37.8 5.3 56.3-2.3-13.1-5.4-38.2-7.5-56.1 0.7-0.3 1.5-0.4 2.2-0.2z"/>
	<path id="Layer" class="s12" d="m298.4 130.9c0 0-3.1 54.9-3.2 77.3-0.1 23.3 5.1 99.6 5.1 99.6h12.5c0 0 3.3-74.9 4.7-97.8 1.6-25 6.7-79.1 6.7-79.1z"/>
	<path id="Layer" class="s6" d="m296.6 125.7c0 1.7 0.3 3.5 0.9 5.2q-0.4 2.2-0.5 4.5c4 1.4 41.8 3.2 41.7 0 0-3.1 0-4.5 0-4.5 0 0 1-4.5 0-5.2-1-0.8-41.8-2.7-42.1 0z"/>
	<path id="Layer" class="s15" d="m296.6 125.7c0 1.7 0.3 3.5 0.9 5.2q-0.4 2.2-0.5 4.5c4 1.4 41.8 3.2 41.7 0 0-3.1 0-4.5 0-4.5 0 0 1-4.5 0-5.2-1-0.8-41.8-2.7-42.1 0z"/>
	<path id="Layer" class="s6" d="m298.1 302.8c-0.1 0 0.5 5.2 0.5 5.2h15.1l0.6-4.6z"/>
</svg>