<svg version="1.1" id="Layer_1" xmlns="http://www.w3.org/2000/svg" xmlns:xlink="http://www.w3.org/1999/xlink" x="0px" y="0px"
	 width="100%" viewBox="0 0 800 533" enable-background="new 0 0 800 533" xml:space="preserve">
<path fill="#00007B" opacity="1.000000" stroke="none" 
	d="
M801.000000,179.000000 
	C801.000000,237.687561 801.000000,296.375122 800.542358,355.640259 
	C698.690857,356.228149 597.297058,356.237061 495.903229,356.259247 
	C493.913971,356.259705 491.924805,356.415863 489.483032,356.399414 
	C430.867279,356.278595 372.704071,356.256653 314.540833,356.247833 
	C313.715363,356.247711 312.889893,356.411865 311.603516,356.389801 
	C209.750977,356.269775 108.359306,356.260742 6.967641,356.238495 
	C4.978410,356.238068 2.989213,356.082947 1.000000,356.000000 
	C1.000000,297.312439 1.000000,238.624878 1.457635,179.359756 
	C103.309113,178.771851 204.702957,178.762924 306.096802,178.740753 
	C308.086029,178.740326 310.075226,178.584152 312.516815,178.600693 
	C371.132538,178.721527 429.295837,178.743408 487.459167,178.752182 
	C488.284637,178.752304 489.110107,178.588135 490.396484,178.610214 
	C592.249023,178.730255 693.640686,178.739304 795.032349,178.761520 
	C797.021545,178.761963 799.010803,178.917068 801.000000,179.000000 
M276.056946,250.355240 
	C271.559509,250.355240 267.062073,250.355240 261.192413,250.355240 
	C265.506226,253.511963 268.483185,255.904785 271.679199,257.956390 
	C273.938049,259.406403 274.298859,260.852173 273.309235,263.324677 
	C271.909363,266.821991 270.987335,270.510559 269.516052,275.222229 
	C274.465149,271.672485 278.470154,268.799927 282.489807,265.916840 
	C286.669525,268.913330 290.640717,271.760345 295.418365,275.185516 
	C294.353363,271.682831 293.976471,268.960114 292.747803,266.700531 
	C289.893372,261.450867 291.495819,258.180023 296.491028,255.624527 
	C298.725037,254.481628 300.609802,252.656097 303.665222,250.389526 
	C298.473450,250.389526 294.696320,250.219513 290.943298,250.447525 
	C288.310425,250.607498 287.038635,249.639801 286.341888,247.160156 
	C285.307953,243.480560 283.996796,239.878845 282.639954,235.745422 
	C280.553436,241.007919 278.741638,245.577499 276.056946,250.355240 
M531.547424,257.099701 
	C534.273865,255.135010 537.000305,253.170319 540.858826,250.389832 
	C535.679443,250.389832 532.071472,250.196762 528.495056,250.449493 
	C525.511353,250.660355 523.956604,249.698532 523.207031,246.717697 
	C522.309326,243.147919 520.953979,239.693237 519.496277,235.278442 
	C517.916809,240.055527 516.884033,243.916962 515.307800,247.542099 
	C514.763794,248.793259 512.928833,250.136566 511.576447,250.259552 
	C507.612640,250.619980 503.594940,250.387833 498.226990,250.387833 
	C502.651093,253.602036 506.012665,255.752777 508.975342,258.357239 
	C509.991974,259.250977 510.659760,261.423218 510.363220,262.762573 
	C509.498138,266.669922 508.065735,270.451691 506.549072,275.253601 
	C511.490173,271.692291 515.497253,268.804169 519.489502,265.926758 
	C523.657593,268.878387 527.582581,271.657867 532.499268,275.139618 
	C531.008362,270.406158 530.219971,266.819489 528.746582,263.540619 
	C527.370544,260.478485 528.452515,258.888824 531.547424,257.099701 
M412.015228,224.778778 
	C412.285095,223.906754 412.948120,222.932800 412.753265,222.181244 
	C412.089386,219.620422 411.275787,217.072403 410.232086,214.642914 
	C409.045898,211.881760 409.674805,210.134735 412.248291,208.544128 
	C415.386261,206.604675 418.269073,204.252426 422.343842,201.293213 
	C417.760986,201.293213 414.610718,200.934723 411.577148,201.376755 
	C406.958954,202.049683 405.007111,199.992294 404.096741,195.798492 
	C403.462250,192.875656 402.276398,190.072510 400.978760,186.127151 
	C399.487701,190.630493 398.093597,193.831116 397.411163,197.176895 
	C396.681396,200.755051 394.791687,201.622131 391.453125,201.354721 
	C387.992676,201.077545 384.492737,201.293030 379.896240,201.293030 
	C384.759796,205.001724 390.571045,207.238297 391.801270,210.980743 
	C393.063202,214.819641 389.845215,220.131210 388.340485,225.716705 
	C392.886566,222.582367 396.989990,219.753235 401.096100,216.922241 
	C404.675293,219.489075 408.044556,221.905350 412.015228,224.778778 
M355.452423,337.842712 
	C358.219910,339.833008 360.987366,341.823334 364.791962,344.559509 
	C363.002167,338.766876 361.557495,334.091339 360.087158,329.332642 
	C364.135345,326.354797 368.005341,323.508057 372.899536,319.907898 
	C368.442780,319.907898 365.405823,319.545593 362.492340,319.990906 
	C357.858337,320.699219 355.977234,318.570221 355.041290,314.420410 
	C354.357605,311.389130 353.108673,308.485291 351.834290,304.700775 
	C349.918915,310.487640 348.369080,315.170105 346.686951,320.252258 
	C341.635437,320.252258 336.836823,320.252258 331.357758,320.252258 
	C335.937408,323.629578 339.800049,326.478149 343.756226,329.395691 
	C342.243469,334.057709 340.814087,338.462799 339.384735,342.867889 
	C343.087952,341.586456 346.121490,339.653503 348.853638,337.361298 
	C351.034180,335.531891 352.866974,335.299164 355.452423,337.842712 
M438.382202,342.882507 
	C441.277924,341.053131 444.323608,339.417908 447.022644,337.333832 
	C449.239075,335.622375 450.893127,335.438324 453.097656,337.320343 
	C455.673279,339.519165 458.561462,341.351868 461.314026,343.343384 
	C461.689514,343.074524 462.065002,342.805634 462.440491,342.536774 
	C461.380096,339.298187 460.465851,336.001740 459.213898,332.838989 
	C458.179504,330.225891 458.719543,328.624207 461.140564,327.119965 
	C464.279297,325.169830 467.159943,322.804230 471.082550,319.937134 
	C465.021973,319.937134 460.233032,319.937134 455.218140,319.937134 
	C453.591278,315.080963 452.015259,310.376526 450.089569,304.628296 
	C448.507141,309.405945 447.516083,313.246094 445.911652,316.810181 
	C445.300079,318.168701 443.358978,319.609100 441.889038,319.768372 
	C438.065887,320.182617 434.168091,319.907623 429.111389,319.907623 
	C434.199677,323.681244 438.135864,326.600433 441.910309,329.399689 
	C440.487366,334.006927 439.215637,338.124573 438.382202,342.882507 
z"/>
<path fill="#FFFFFF" opacity="1.000000" stroke="none" 
	d="
M312.064423,178.500641 
	C310.075226,178.584152 308.086029,178.740326 306.096802,178.740753 
	C204.702957,178.762924 103.309113,178.771851 1.457635,178.891098 
	C1.000000,119.719780 1.000000,60.439556 1.000000,1.000000 
	C104.354172,1.000000 207.708435,1.000000 311.560455,1.467875 
	C312.060303,60.790714 312.062378,119.645676 312.064423,178.500641 
z"/>
<path fill="#FFFFFF" opacity="1.000000" stroke="none" 
	d="
M801.000000,178.531342 
	C799.010803,178.917068 797.021545,178.761963 795.032349,178.761520 
	C693.640686,178.739304 592.249023,178.730255 490.404572,178.175781 
	C489.967865,118.754509 489.983917,59.877254 490.000000,1.000000 
	C593.573853,1.000000 697.147766,1.000000 801.000000,1.000000 
	C801.000000,60.020603 801.000000,119.041641 801.000000,178.531342 
z"/>
<path fill="#FFFFFF" opacity="1.000000" stroke="none" 
	d="
M1.000000,356.468658 
	C2.989213,356.082947 4.978410,356.238068 6.967641,356.238495 
	C108.359306,356.260742 209.750977,356.269775 311.595428,356.824219 
	C312.032166,416.245483 312.016083,475.122742 312.000000,534.000000 
	C208.426132,534.000000 104.852272,534.000000 1.000000,534.000000 
	C1.000000,474.979401 1.000000,415.958344 1.000000,356.468658 
z"/>
<path fill="#FFFFFF" opacity="1.000000" stroke="none" 
	d="
M489.935577,356.499359 
	C491.924805,356.415863 493.913971,356.259705 495.903229,356.259247 
	C597.297058,356.237061 698.690857,356.228149 800.542358,356.108887 
	C801.000000,415.280212 801.000000,474.560425 801.000000,534.000000 
	C697.645813,534.000000 594.291565,534.000000 490.439545,533.532104 
	C489.939697,474.209290 489.937653,415.354340 489.935577,356.499359 
z"/>
<path fill="#DC171D" opacity="1.000000" stroke="none" 
	d="
M489.531342,1.000000 
	C489.983917,59.877254 489.967865,118.754509 489.943665,178.066193 
	C489.110107,178.588135 488.284637,178.752304 487.459167,178.752182 
	C429.295837,178.743408 371.132538,178.721527 312.516815,178.600677 
	C312.062378,119.645676 312.060303,60.790714 312.029114,1.467875 
	C371.020905,1.000000 430.041779,1.000000 489.531342,1.000000 
z"/>
<path fill="#DC171D" opacity="1.000000" stroke="none" 
	d="
M489.483032,356.399414 
	C489.937653,415.354340 489.939697,474.209290 489.970886,533.532104 
	C430.979095,534.000000 371.958221,534.000000 312.468658,534.000000 
	C312.016083,475.122742 312.032166,416.245483 312.056335,356.933777 
	C312.889893,356.411865 313.715363,356.247711 314.540833,356.247833 
	C372.704071,356.256653 430.867279,356.278595 489.483032,356.399414 
z"/>
<path fill="#F2F2F8" opacity="1.000000" stroke="none" 
	d="
M276.493408,250.251160 
	C278.741638,245.577499 280.553436,241.007919 282.639954,235.745422 
	C283.996796,239.878845 285.307953,243.480560 286.341888,247.160156 
	C287.038635,249.639801 288.310425,250.607498 290.943298,250.447525 
	C294.696320,250.219513 298.473450,250.389526 303.665222,250.389526 
	C300.609802,252.656097 298.725037,254.481628 296.491028,255.624527 
	C291.495819,258.180023 289.893372,261.450867 292.747803,266.700531 
	C293.976471,268.960114 294.353363,271.682831 295.418365,275.185516 
	C290.640717,271.760345 286.669525,268.913330 282.489807,265.916840 
	C278.470154,268.799927 274.465149,271.672485 269.516052,275.222229 
	C270.987335,270.510559 271.909363,266.821991 273.309235,263.324677 
	C274.298859,260.852173 273.938049,259.406403 271.679199,257.956390 
	C268.483185,255.904785 265.506226,253.511963 261.192413,250.355240 
	C267.062073,250.355240 271.559509,250.355240 276.493408,250.251160 
z"/>
<path fill="#F2F2F8" opacity="1.000000" stroke="none" 
	d="
M531.259521,257.328339 
	C528.452515,258.888824 527.370544,260.478485 528.746582,263.540619 
	C530.219971,266.819489 531.008362,270.406158 532.499268,275.139618 
	C527.582581,271.657867 523.657593,268.878387 519.489502,265.926758 
	C515.497253,268.804169 511.490173,271.692291 506.549072,275.253601 
	C508.065735,270.451691 509.498138,266.669922 510.363220,262.762573 
	C510.659760,261.423218 509.991974,259.250977 508.975342,258.357239 
	C506.012665,255.752777 502.651093,253.602036 498.226990,250.387833 
	C503.594940,250.387833 507.612640,250.619980 511.576447,250.259552 
	C512.928833,250.136566 514.763794,248.793259 515.307800,247.542099 
	C516.884033,243.916962 517.916809,240.055527 519.496277,235.278442 
	C520.953979,239.693237 522.309326,243.147919 523.207031,246.717697 
	C523.956604,249.698532 525.511353,250.660355 528.495056,250.449493 
	C532.071472,250.196762 535.679443,250.389832 540.858826,250.389832 
	C537.000305,253.170319 534.273865,255.135010 531.259521,257.328339 
z"/>
<path fill="#F3F3F9" opacity="1.000000" stroke="none" 
	d="
M411.714539,224.550201 
	C408.044556,221.905350 404.675293,219.489075 401.096100,216.922241 
	C396.989990,219.753235 392.886566,222.582367 388.340485,225.716705 
	C389.845215,220.131210 393.063202,214.819641 391.801270,210.980743 
	C390.571045,207.238297 384.759796,205.001724 379.896240,201.293030 
	C384.492737,201.293030 387.992676,201.077545 391.453125,201.354721 
	C394.791687,201.622131 396.681396,200.755051 397.411163,197.176895 
	C398.093597,193.831116 399.487701,190.630493 400.978760,186.127151 
	C402.276398,190.072510 403.462250,192.875656 404.096741,195.798492 
	C405.007111,199.992294 406.958954,202.049683 411.577148,201.376755 
	C414.610718,200.934723 417.760986,201.293213 422.343842,201.293213 
	C418.269073,204.252426 415.386261,206.604675 412.248291,208.544128 
	C409.674805,210.134735 409.045898,211.881760 410.232086,214.642914 
	C411.275787,217.072403 412.089386,219.620422 412.753265,222.181244 
	C412.948120,222.932800 412.285095,223.906754 411.714539,224.550201 
z"/>
<path fill="#F8F8FB" opacity="1.000000" stroke="none" 
	d="
M355.167603,337.597931 
	C352.866974,335.299164 351.034180,335.531891 348.853638,337.361298 
	C346.121490,339.653503 343.087952,341.586456 339.384735,342.867889 
	C340.814087,338.462799 342.243469,334.057709 343.756226,329.395691 
	C339.800049,326.478149 335.937408,323.629578 331.357758,320.252258 
	C336.836823,320.252258 341.635437,320.252258 346.686951,320.252258 
	C348.369080,315.170105 349.918915,310.487640 351.834290,304.700775 
	C353.108673,308.485291 354.357605,311.389130 355.041290,314.420410 
	C355.977234,318.570221 357.858337,320.699219 362.492340,319.990906 
	C365.405823,319.545593 368.442780,319.907898 372.899536,319.907898 
	C368.005341,323.508057 364.135345,326.354797 360.087158,329.332642 
	C361.557495,334.091339 363.002167,338.766876 364.791962,344.559509 
	C360.987366,341.823334 358.219910,339.833008 355.167603,337.597931 
z"/>
<path fill="#F8F8FB" opacity="1.000000" stroke="none" 
	d="
M438.163055,342.562347 
	C439.215637,338.124573 440.487366,334.006927 441.910309,329.399689 
	C438.135864,326.600433 434.199677,323.681244 429.111389,319.907623 
	C434.168091,319.907623 438.065887,320.182617 441.889038,319.768372 
	C443.358978,319.609100 445.300079,318.168701 445.911652,316.810181 
	C447.516083,313.246094 448.507141,309.405945 450.089569,304.628296 
	C452.015259,310.376526 453.591278,315.080963 455.218140,319.937134 
	C460.233032,319.937134 465.021973,319.937134 471.082550,319.937134 
	C467.159943,322.804230 464.279297,325.169830 461.140564,327.119965 
	C458.719543,328.624207 458.179504,330.225891 459.213898,332.838989 
	C460.465851,336.001740 461.380096,339.298187 462.440491,342.536774 
	C462.065002,342.805634 461.689514,343.074524 461.314026,343.343384 
	C458.561462,341.351868 455.673279,339.519165 453.097656,337.320343 
	C450.893127,335.438324 449.239075,335.622375 447.022644,337.333832 
	C444.323608,339.417908 441.277924,341.053131 438.163055,342.562347 
z"/>
</svg>