<svg version="1.2" xmlns="http://www.w3.org/2000/svg" viewBox="0 0 434 465" width="434" height="465">
	<title>OrderFood-svg</title>
	<style>
		.s0 { fill: #e0e0e0 } 
		.s1 { fill: #ffffff } 
		.s2 { fill: #f5f5f5 } 
		.s3 { fill: #ebebeb } 
		.s4 { fill: #263238 } 
		.s5 { fill: #455a64 } 
		.s6 { fill: #ff5833 } 
		.s7 { fill: #000000 } 
		.s8 { fill: #844031 } 
		.s9 { fill: #f9b7a2 } 
		.s10 { fill: #ff8970 } 
		.s11 { fill: #fafafa } 
		.s12 { fill: #ff9a6c } 
	</style>
	<path id="Layer" class="s0" d="m55.5 165.8q0-0.1 0-0.2v-0.7q0-0.9 0-2.5c0-2.3 0-5.5-0.1-9.5l0.2 0.2-48.7 0.1 0.3-0.3v12.9l-0.3-0.3 34.7 0.2h10.2 2.8 0.7 0.3-0.2-0.7-2.7l-10.2 0.1-34.9 0.2h-0.3v-13l0.3-0.3 48.6 0.1h0.2v0.2c0 4.1-0.1 7.3-0.1 9.5q0 1.6 0 2.5v0.7q0 0-0.1 0.1z"/>
	<path id="Layer" class="s0" d="m62.1 152.9q0 0 0-0.2c0-0.2 0-0.4 0-0.7q0-1 0-2.6c0-2.2 0-5.4-0.1-9.3l0.2 0.1-29.2 0.1c-0.3 0.2 0.3-0.3 0.2-0.2v6.6q0 3.2 0 6.2l-0.2-0.2 20.9 0.1h6.1 1.6 0.6-0.5l-1.7 0.2-6 0.1-21.1 0.1h-0.2v-0.3q0-3 0-6.2 0-1.6 0-3.3v-3.3l0.3-0.3 29.2 0.1h0.2v0.2c0 4-0.1 7.2-0.1 9.5q0 1.6 0 2.5-0.1 0.4-0.2 0.8z"/>
	<path id="Layer" class="s0" d="m202.8 49.6q0-0.1 0-0.3v-0.6q0-0.9 0-2.5c0-2.3 0-5.5 0-9.5l0.1 0.2-48.7 0.1c0.1-0.1-0.3 0.2 0.2-0.3v12.9l-0.2-0.3 34.7 0.2h10.2 2.8 0.7 0.2q-0.1 0-0.2 0h-0.7-2.7l-10.2 0.2-34.8 0.1h-0.2v-9.8q0-0.8 0-1.6v-1.7l0.3-0.2 48.6 0.1h0.1v0.1c0 4.1-0.1 7.3-0.1 9.6q0 1.6 0 2.5v0.6q0 0.1-0.1 0.2z"/>
	<path id="Layer" class="s0" d="m209.4 36.7q0 0 0-0.2c0-0.2 0-0.4 0-0.7q0-1 0-2.6c0-2.3 0-5.4-0.1-9.4l0.2 0.2-29.2 0.1 0.2-0.3v3.4q0 1.6 0 3.2v6.3l-0.2-0.3 20.9 0.2h6.1 1.6 0.6q-0.2 0.1-0.5 0h-1.6l-6 0.1-21.2 0.3h-0.2v-0.2q0-3 0-6.3v-6.6l0.2-0.3 29.3 0.1h0.2v0.2c0 4-0.1 7.1-0.1 9.4q0 1.6 0 2.6-0.1 0.4-0.2 0.8z"/>
	<path id="Layer" class="s0" d="m157.4 26v83.9h-120.4l-4.3-83.3z"/>
	<path id="Layer" class="s1" d="m32.7 26.6v83.1h120.4v-83.1z"/>
	<path id="Layer" fill-rule="evenodd" class="s0" d="m153.7 110.3h-121.6v-84.2h121.6zm-120.4-1.2h119.2v-81.9h-119.2z"/>
	<path id="Layer" class="s1" d="m140.1 36.9h-94.3v62.5h94.3z"/>
	<path id="Layer" class="s0" d="m140.1 37q-0.3 0-0.5 0h-1.3-5.2l-19.5 0.1-67.8 0.1 0.2-0.2c0 19.1 0 40.2 0 62.4l-0.3-0.3 94.3 0.1-0.2 0.2c0-19 0.1-34.6 0.1-45.4 0-5.4 0-9.7 0.1-12.6q0-2.1 0-3.3 0-1.1 0-1.1 0 0 0 1.1c0 0.7 0 1.8 0 3.2 0 2.9 0 7.2 0 12.5 0 10.9 0.1 26.5 0.1 45.6v0.3h-0.2-94.3-0.3v-0.3c0-22.2 0-43.3 0-62.4v-0.3h0.3l68 0.2h19.4 5.1 1.3z"/>
	<path id="Layer" class="s0" d="m32.7 26.4q1.1 0.5 2.1 1.3c1.2 0.9 2.9 2.2 4.7 3.6 1.8 1.5 3.4 2.9 4.5 3.9q1 0.8 1.8 1.8c-0.2 0.1-3-2.3-6.7-5.1-3.6-2.9-6.5-5.4-6.4-5.5z"/>
	<path id="Layer" class="s0" d="m153.1 26.6q-3 2.9-6.3 5.4-3.2 2.7-6.7 4.9 2.9-2.9 6.3-5.4c3.6-2.8 6.6-5 6.7-4.9z"/>
	<path id="Layer" class="s1" d="m153 109.7l-13.4-10.9z"/>
	<path id="Layer" class="s0" d="m139.6 98.8q3.6 2.4 6.9 5.2 3.4 2.6 6.5 5.7-3.6-2.4-6.9-5.2c-3.7-3-6.6-5.5-6.5-5.7z"/>
	<path id="Layer" class="s0" d="m32.7 109.7q3-2.9 6.3-5.4 3.1-2.6 6.6-4.8-2.9 2.9-6.2 5.3-3.2 2.7-6.7 4.9z"/>
	<path id="Layer" class="s0" d="m64.9 56.4v20.9h59.3v-20.9z"/>
	<path id="Layer" class="s2" d="m276 419.2v38.3h56 61.7v-38.3z"/>
	<path id="Layer" class="s0" d="m271.1 408.5v10.7h126.7v-10.7h-65.8z"/>
	<path id="Layer" class="s0" d="m334.5 457.4h59.2v-38.2h4.1v-10.7h-65.8v9.7z"/>
	<path id="Layer" class="s0" d="m316.4 425.4h-23.9v5.7h23.9z"/>
	<path id="Layer" class="s1" d="m320.1 438.3h-30.7v12.2h30.7z"/>
	<path id="Layer" class="s3" d="m217.7 199.5h-48.7v12.8h48.7z"/>
	<path id="Layer" class="s0" d="m197.1 225.9q0-0.1 0-0.3v-0.6q0-0.9 0-2.5c0-2.3-0.1-5.4-0.1-9.5l0.2 0.2-48.7 0.1 0.3-0.3v12.9l-0.3-0.3 34.7 0.1 10.2 0.1h2.8 0.7 0.3-0.3-0.7-2.7l-10.1 0.1-34.9 0.1h-0.2v-13l0.2-0.3 48.7 0.1h0.1v0.2c0 4.1 0 7.3-0.1 9.5q0 1.6 0 2.5 0 0.4 0 0.7 0 0.1-0.1 0.2z"/>
	<path id="Layer" class="s3" d="m453.4 122.7h-48.6v12.9h48.6z"/>
	<path id="Layer" class="s0" d="m432.8 149.1q0 0 0-0.2v-0.7q0-0.9 0-2.5c0-2.2 0-5.4 0-9.4l0.1 0.1-48.6 0.1 0.2-0.2v3.3q0 1.6 0 3.2v6.3l-0.2-0.2 34.6 0.1 10.3 0.1h2.7 0.8 0.2-0.2-0.7-2.7-10.2l-34.8 0.1h-0.3v-0.2q0-3.1 0-6.3v-6.6l0.3-0.2 48.6 0.1h0.1v0.1c0 4.1-0.1 7.3-0.1 9.6q0 1.6 0 2.5 0 0.4 0 0.6 0 0.2-0.1 0.3z"/>
	<path id="Layer" class="s4" d="m447.7 458.7c0 0.1-100.2 0.3-223.7 0.3-123.5 0-223.7-0.2-223.7-0.3 0-0.1 100.1-0.3 223.7-0.3 123.6 0 223.7 0.1 223.7 0.3z"/>
	<path id="Layer" class="s5" d="m400.8 6.4h-144.9c-14 0-25.3 11.4-25.3 25.4v336.6c0 13.9 11.3 25.3 25.3 25.3h144.9c14 0 25.3-11.4 25.3-25.3v-336.6c0-14-11.3-25.4-25.3-25.4z"/>
	<path id="Layer" class="s4" d="m423.1 368.4v-336.6c0-12.3-10-22.3-22.3-22.3h-144.9c-12.3 0-22.2 10-22.2 22.3v336.6c0 12.3 9.9 22.2 22.2 22.2h144.9c12.3 0 22.3-9.9 22.3-22.2z"/>
	<path id="Layer" class="s5" d="m314.3 21.7q-0.4 0-0.8-0.1-0.5-0.2-0.8-0.5-0.3-0.3-0.5-0.7-0.2-0.4-0.2-0.9 0-0.4 0.2-0.8 0.2-0.4 0.5-0.7 0.3-0.4 0.8-0.5 0.4-0.2 0.8-0.1h28c0.6 0 1.1 0.3 1.5 0.7 0.4 0.4 0.6 0.9 0.6 1.4 0 0.6-0.2 1.1-0.6 1.5-0.4 0.4-0.9 0.7-1.5 0.7z"/>
	<path id="Layer" class="s5" d="m299.3 21.7q-0.6 0-1.2-0.3-0.5-0.4-0.8-1-0.2-0.6-0.1-1.3 0.1-0.6 0.6-1.1 0.5-0.5 1.1-0.6 0.7-0.1 1.3 0.1 0.6 0.3 0.9 0.8 0.4 0.6 0.4 1.2c0 0.6-0.2 1.2-0.6 1.6-0.4 0.4-1 0.6-1.6 0.6z"/>
	<path id="Layer" class="s5" d="m307.3 21.7q-0.6 0-1.2-0.3-0.5-0.4-0.8-1-0.2-0.6-0.1-1.3 0.1-0.6 0.6-1.1 0.5-0.5 1.1-0.6 0.6-0.1 1.3 0.1 0.6 0.3 0.9 0.8 0.4 0.6 0.4 1.2c0 0.6-0.2 1.2-0.6 1.6-0.4 0.4-1 0.6-1.6 0.6z"/>
	<path id="Layer" class="s5" d="m357.4 21.7q-0.6 0-1.2-0.3-0.5-0.4-0.8-1-0.3-0.6-0.1-1.3 0.1-0.6 0.6-1.1 0.4-0.5 1.1-0.6 0.6-0.1 1.2 0.1 0.7 0.3 1 0.8 0.4 0.6 0.4 1.2c0 0.6-0.2 1.2-0.6 1.6-0.5 0.4-1 0.6-1.6 0.6z"/>
	<path id="Layer" class="s5" d="m349.4 21.7q-0.7 0-1.2-0.3-0.5-0.4-0.8-1-0.3-0.6-0.1-1.3 0.1-0.6 0.6-1.1 0.4-0.5 1.1-0.6 0.6-0.1 1.2 0.1 0.7 0.3 1 0.8 0.4 0.6 0.4 1.2c0 0.6-0.2 1.2-0.6 1.6-0.5 0.4-1 0.6-1.6 0.6z"/>
	<path id="Layer" class="s1" d="m401.9 11.7h-27.5c-2.1 0-4.2 0.7-5.9 2-1.6 1.2-2.9 3-3.5 5l-0.5 1.6c-0.6 2.2-1.9 4.1-3.7 5.4-1.8 1.4-4 2.1-6.3 2.2h-52.3c-2.2 0-4.4-0.8-6.2-2.1-1.9-1.4-3.2-3.3-3.8-5.5l-0.5-1.6c-0.6-2-1.8-3.8-3.5-5.1-1.7-1.2-3.7-1.9-5.9-1.9h-24.9c-5.1 0-10 2-13.7 5.7-3.6 3.6-5.6 8.5-5.6 13.7v335.8c0 4.8 1.9 9.4 5.3 12.8 3.4 3.4 8.1 5.4 12.9 5.4h145.9c2.2 0 4.3-0.5 6.3-1.3 2-0.8 3.8-2 5.3-3.6 1.6-1.5 2.8-3.3 3.6-5.3 0.8-2 1.3-4.1 1.3-6.3v-340.1c0-4.4-1.8-8.7-5-11.9-3.1-3.1-7.4-4.9-11.8-4.9z"/>
	<path id="Layer" class="s5" d="m426.4 135.1h-0.3v-44.5h0.3c0.2 0 0.5 0.1 0.7 0.3 0.2 0.2 0.3 0.5 0.3 0.8v42.3c0 0.3-0.1 0.6-0.3 0.8-0.2 0.2-0.5 0.3-0.7 0.3z"/>
	<path id="Layer" class="s5" d="m230.3 118h0.3v28.2h-0.3c-0.3 0-0.5-0.1-0.7-0.3-0.2-0.2-0.3-0.5-0.3-0.8v-26q0-0.2 0-0.4 0.1-0.2 0.3-0.4 0.1-0.1 0.3-0.2 0.2-0.1 0.4-0.1z"/>
	<path id="Layer" class="s5" d="m230.3 81.2h0.3v28.2h-0.3c-0.3 0-0.5-0.1-0.7-0.3-0.2-0.2-0.3-0.5-0.3-0.8v-26q0-0.2 0-0.4 0.1-0.2 0.3-0.4 0.1-0.1 0.3-0.2 0.2-0.1 0.4-0.1z"/>
	<path id="Layer" class="s5" d="m230.4 53.6h0.2v13.1h-0.2q-0.4 0-0.7-0.3-0.2-0.3-0.3-0.7v-11.2q0.1-0.4 0.3-0.6 0.3-0.3 0.7-0.3z"/>
	<path id="Layer" class="s4" d="m376.2 24.7h-1.4v1.9h1.4z"/>
	<path id="Layer" class="s4" d="m378.4 23.9h-1.4v2.7h1.4z"/>
	<path id="Layer" class="s4" d="m380.5 23.3h-1.3v3.3h1.3z"/>
	<path id="Layer" class="s4" d="m382.7 22h-1.3v4.6h1.3z"/>
	<path id="Layer" fill-rule="evenodd" class="s4" d="m402.6 26.7h-6.8q-0.2 0-0.3-0.1-0.2-0.2-0.2-0.4v-3.3q0-0.2 0.2-0.4 0.1-0.1 0.3-0.1h6.8q0 0 0 0 0.1 0 0 0.1v1.1h0.8q0 0 0.1 0 0 0 0 0.1v1.6q0 0 0 0.1 0 0 0 0-0.1 0-0.1 0 0 0 0 0h-0.8v1.1q0.1 0.1 0.1 0.1 0 0-0.1 0 0 0.1 0 0.1 0 0 0 0zm-0.2-4.1h-6.6q0 0-0.1 0 0 0.1-0.1 0.1 0 0 0 0.1 0 0 0 0.1v3.3q0 0.1 0 0.1 0 0.1 0 0.1 0.1 0 0.1 0 0.1 0.1 0.1 0.1h6.6v-1.1q0-0.1 0.1-0.1 0-0.1 0.1-0.1h0.7v-1.3h-0.7q-0.1 0-0.1 0 0-0.1 0-0.1 0 0-0.1 0 0 0 0-0.1z"/>
	<path id="Layer" class="s4" d="m396.1 25.9v-2.7h5.8v1.2 0.3 1.2z"/>
	<path id="Layer" class="s4" d="m389.2 26.4q0-0.1-0.1-0.2-0.1-0.2-0.3-0.2-0.1-0.1-0.2 0-0.2 0-0.3 0.1-0.1 0.1-0.1 0.2-0.1 0.2 0 0.3 0.1 0.2 0.2 0.3 0.1 0 0.3 0 0.1 0 0.2 0 0.1 0 0.1-0.1 0.1-0.1 0.1-0.2 0.1-0.1 0.1-0.2z"/>
	<path id="Layer" class="s4" d="m387 25.3l0.6 0.6c0.3-0.3 0.7-0.4 1.1-0.4 0.4 0 0.8 0.1 1 0.4l0.7-0.6q-0.4-0.4-0.8-0.6-0.4-0.1-0.9-0.1-0.5 0-0.9 0.1-0.5 0.2-0.8 0.6z"/>
	<path id="Layer" class="s4" d="m388.7 23.2q-0.8 0-1.5 0.2-0.7 0.3-1.2 0.9l0.6 0.6c0.6-0.5 1.3-0.8 2.1-0.8 0.7 0 1.5 0.3 2 0.8l0.7-0.6q-0.6-0.6-1.3-0.9-0.7-0.2-1.4-0.2z"/>
	<path id="Layer" class="s4" d="m385 23.2l0.6 0.7q0.6-0.6 1.4-1 0.8-0.3 1.7-0.3 0.9 0 1.7 0.3 0.7 0.4 1.4 1l0.6-0.7c-1-0.9-2.3-1.5-3.7-1.5-1.4 0-2.7 0.6-3.7 1.5z"/>
	<path id="Layer" class="s4" d="m312.4 50.1v2.2h3.9v1.5h-3.9v3h-1.9v-8.3h6.3v1.6z"/>
	<path id="Layer" fill-rule="evenodd" class="s4" d="m319 56.5q-0.8-0.4-1.3-1.2-0.4-0.7-0.4-1.6 0-1 0.4-1.7 0.5-0.8 1.3-1.2 0.9-0.4 1.8-0.4 1 0 1.8 0.4c0.5 0.3 1 0.7 1.3 1.2q0.4 0.8 0.4 1.7 0 0.9-0.4 1.7c-0.3 0.5-0.8 0.9-1.3 1.2q-0.8 0.4-1.8 0.4-0.9 0-1.8-0.4zm3-1.6c0.3-0.4 0.5-0.8 0.5-1.3 0-0.5-0.2-0.9-0.5-1.3q-0.2-0.2-0.5-0.4-0.3-0.1-0.7-0.1-0.3 0-0.6 0.1-0.3 0.2-0.5 0.4c-0.3 0.4-0.5 0.8-0.5 1.3 0 0.5 0.2 0.9 0.5 1.3q0.2 0.2 0.5 0.4 0.3 0.1 0.6 0.1 0.4 0 0.7-0.1 0.3-0.2 0.5-0.4z"/>
	<path id="Layer" fill-rule="evenodd" class="s4" d="m326.8 56.5q-0.8-0.4-1.3-1.1-0.4-0.8-0.4-1.7 0-1 0.4-1.7 0.5-0.8 1.3-1.2 0.8-0.4 1.8-0.4 0.9 0 1.8 0.4c0.5 0.3 0.9 0.7 1.2 1.2q0.5 0.8 0.5 1.7 0 0.9-0.5 1.7c-0.3 0.5-0.7 0.9-1.2 1.2q-0.9 0.4-1.8 0.4-1 0-1.8-0.5zm3-1.6c0.3-0.3 0.4-0.8 0.4-1.2 0-0.5-0.1-1-0.4-1.3q-0.3-0.3-0.6-0.4-0.3-0.1-0.6-0.1-0.3 0-0.6 0.1-0.3 0.1-0.6 0.4c-0.3 0.3-0.4 0.8-0.4 1.3 0 0.4 0.1 0.9 0.4 1.2q0.3 0.3 0.6 0.4 0.3 0.1 0.6 0.1 0.3 0 0.6-0.1 0.3-0.1 0.5-0.4z"/>
	<path id="Layer" fill-rule="evenodd" class="s4" d="m339.8 48v8.8h-1.8l0.1-0.7q-0.4 0.4-1 0.6-0.5 0.2-1.1 0.2-0.8 0-1.6-0.4c-0.5-0.3-0.9-0.7-1.1-1.2q-0.4-0.8-0.4-1.7 0-0.9 0.4-1.7c0.2-0.5 0.6-0.9 1.1-1.2q0.8-0.4 1.7-0.4 0.5 0 1 0.2 0.5 0.2 0.9 0.6v-3.1zm-2.3 6.9c0.3-0.4 0.5-0.8 0.5-1.3 0-0.5-0.2-0.9-0.5-1.3-0.3-0.3-0.7-0.5-1.2-0.5-0.4 0-0.8 0.2-1.2 0.5-0.3 0.4-0.4 0.8-0.4 1.3 0 0.5 0.1 0.9 0.4 1.3 0.4 0.3 0.8 0.5 1.2 0.5 0.5 0 0.9-0.2 1.2-0.5z"/>
	<path id="Layer" class="s0" d="m408.4 266.2h-161.5v41.7h161.5z"/>
	<path id="Layer" class="s4" d="m259.5 285.1h-2.6v-1.5h7.2v1.5h-2.7v6.8h-1.9z"/>
	<path id="Layer" fill-rule="evenodd" class="s4" d="m266.7 291.5c-0.7-0.4-1.2-0.9-1.6-1.6-0.4-0.6-0.6-1.4-0.6-2.2 0-0.7 0.2-1.5 0.6-2.2 0.4-0.6 0.9-1.1 1.6-1.5 0.7-0.4 1.5-0.6 2.3-0.6 0.8 0 1.6 0.2 2.4 0.6q0.7 0.4 1.3 1.1 0.5 0.7 0.7 1.5 0.2 0.9 0.1 1.7-0.1 0.9-0.5 1.6c-0.4 0.7-1 1.2-1.6 1.6-0.8 0.3-1.6 0.5-2.4 0.5-0.8 0-1.6-0.2-2.3-0.5zm3.7-1.4q0.6-0.4 0.9-1 0.3-0.6 0.3-1.4 0-0.7-0.3-1.3-0.3-0.6-0.9-1-0.7-0.3-1.4-0.3-0.7 0-1.3 0.3-0.6 0.4-0.9 1-0.4 0.6-0.4 1.3 0 0.8 0.4 1.4 0.3 0.6 0.9 1 0.6 0.3 1.3 0.3 0.7 0 1.4-0.3z"/>
	<path id="Layer" class="s4" d="m276.6 285.1h-2.6v-1.5h7.2v1.5h-2.6v6.8h-2z"/>
	<path id="Layer" fill-rule="evenodd" class="s4" d="m287.3 290.1h-3.9l-0.7 1.8h-2l3.7-8.3h1.9l3.7 8.3h-2zm-0.6-1.5l-1.3-3.2-1.4 3.2z"/>
	<path id="Layer" class="s4" d="m290.9 283.6h1.9v6.7h4.2v1.6h-6.1z"/>
	<path id="Layer" class="s4" d="m298 287.4q-0.2-0.2-0.3-0.4 0-0.2 0-0.4 0-0.3 0-0.5 0.1-0.2 0.3-0.4c0.2-0.2 0.5-0.3 0.8-0.3q0.2 0 0.5 0.1 0.2 0.1 0.3 0.2 0.2 0.2 0.3 0.4 0.1 0.2 0.1 0.5 0 0.2-0.1 0.4-0.1 0.2-0.3 0.4-0.1 0.2-0.3 0.2-0.2 0.1-0.5 0.1-0.2 0-0.4-0.1-0.2 0-0.4-0.2zm0 4.3q-0.2-0.2-0.3-0.4 0-0.2 0-0.5 0-0.2 0-0.4 0.1-0.2 0.3-0.4c0.2-0.2 0.5-0.3 0.8-0.3q0.2 0 0.5 0.1 0.2 0 0.3 0.2 0.2 0.2 0.3 0.4 0.1 0.2 0.1 0.4 0 0.3-0.1 0.5-0.1 0.2-0.3 0.4-0.1 0.1-0.3 0.2-0.2 0.1-0.5 0.1-0.2 0-0.4-0.1-0.2-0.1-0.4-0.2z"/>
	<path id="Layer" fill-rule="evenodd" class="s4" d="m378.8 290.5c-0.5 0.5-1.2 0.8-2 0.9v1.3h-1.2v-1.3q-0.9-0.1-1.7-0.3-0.7-0.2-1.3-0.7l0.7-1.4q0.5 0.3 1.1 0.6 0.6 0.2 1.2 0.2v-2q-0.7-0.1-1.4-0.4-0.6-0.2-1-0.7c-0.3-0.4-0.4-0.9-0.4-1.3q0-0.5 0.2-0.9 0.2-0.5 0.5-0.8c0.6-0.5 1.3-0.8 2.1-0.9v-1.3h1.2v1.3c0.8 0.1 1.6 0.3 2.4 0.7l-0.6 1.5q-0.8-0.5-1.8-0.6v2q0.7 0.1 1.4 0.4 0.6 0.2 1 0.7c0.3 0.4 0.4 0.8 0.4 1.3q0 0.5-0.2 0.9-0.2 0.5-0.6 0.8zm-3.9-4.7q0.3 0.2 0.7 0.3v-1.7q-0.4 0.1-0.7 0.4-0.1 0.1-0.1 0.2-0.1 0.1-0.1 0.3 0 0.1 0.1 0.3 0.1 0.1 0.2 0.2zm2.5 3.7q0.1-0.1 0.1-0.3 0.1-0.1 0.1-0.2 0-0.2-0.1-0.3 0-0.1-0.1-0.2-0.3-0.2-0.7-0.3v1.6q0.4-0.1 0.7-0.3z"/>
	<path id="Layer" fill-rule="evenodd" class="s4" d="m386.4 290.5c-0.6 0.5-1.3 0.8-2 0.9v1.3h-1.2v-1.3q-0.9-0.1-1.7-0.3-0.7-0.2-1.3-0.7l0.7-1.4q0.5 0.3 1 0.6 0.6 0.2 1.3 0.2v-2q-0.8-0.1-1.5-0.4-0.6-0.2-1-0.7c-0.2-0.4-0.4-0.9-0.3-1.3q-0.1-0.5 0.1-0.9 0.2-0.5 0.6-0.8c0.5-0.5 1.3-0.8 2-0.9v-1.3h1.2v1.3c0.9 0.1 1.7 0.3 2.4 0.7l-0.6 1.5q-0.8-0.5-1.8-0.6v2q0.7 0.1 1.4 0.4 0.6 0.2 1 0.7c0.3 0.4 0.4 0.8 0.4 1.3q0 0.5-0.2 0.9-0.1 0.5-0.5 0.8zm-3.9-4.7q0.3 0.2 0.7 0.3v-1.7q-0.4 0.1-0.7 0.4-0.2 0.2-0.2 0.5 0 0.1 0 0.3 0.1 0.1 0.2 0.2zm2.5 3.7q0.1-0.1 0.2-0.3 0-0.1 0-0.2 0-0.2 0-0.3-0.1-0.1-0.2-0.2-0.3-0.2-0.6-0.3v1.6q0.3-0.1 0.6-0.3z"/>
	<path id="Layer" fill-rule="evenodd" class="s4" d="m394 290.5c-0.6 0.5-1.3 0.8-2.1 0.9v1.3h-1.1v-1.3q-0.9-0.1-1.7-0.3-0.7-0.2-1.3-0.7l0.7-1.4q0.5 0.3 1 0.6 0.6 0.2 1.3 0.2v-2q-0.8-0.1-1.5-0.4-0.6-0.2-1-0.7c-0.2-0.4-0.4-0.9-0.4-1.3q0-0.5 0.2-0.9 0.2-0.5 0.6-0.8c0.5-0.5 1.3-0.8 2-0.9v-1.3h1.2v1.3c0.9 0.1 1.7 0.3 2.4 0.7l-0.6 1.5q-0.8-0.5-1.8-0.6v2q0.7 0.1 1.4 0.4 0.6 0.2 1 0.7c0.3 0.4 0.4 0.8 0.4 1.3q0 0.5-0.2 0.9-0.1 0.5-0.5 0.8zm-3.9-4.7q0.3 0.2 0.7 0.3v-1.7q-0.4 0.1-0.7 0.4-0.2 0.2-0.2 0.5 0 0.1 0 0.3 0.1 0.1 0.2 0.2zm2.5 3.7q0.1-0.1 0.1-0.3 0.1-0.1 0.1-0.2 0-0.2-0.1-0.3 0-0.1-0.1-0.2-0.3-0.2-0.7-0.3v1.6q0.4-0.1 0.6-0.3z"/>
	<path id="Layer" class="s4" d="m409.2 68.2c0 0.1-37.1 0.2-82.9 0.2-45.7 0-82.9-0.1-82.9-0.2 0-0.2 37.1-0.3 82.9-0.3 45.8 0 82.9 0.1 82.9 0.3z"/>
	<path id="Layer" class="s6" d="m375.4 361.2h-94.2c-2.5 0-5.1-0.5-7.5-1.5-2.4-1-4.5-2.5-6.4-4.3-1.8-1.8-3.2-4-4.2-6.4-1-2.3-1.5-4.9-1.5-7.5 0-5.2 2.1-10.2 5.7-13.9 3.7-3.7 8.7-5.7 13.9-5.7h94.2c5.2 0 10.2 2 13.9 5.7 3.7 3.7 5.7 8.7 5.7 13.9 0 5.2-2 10.2-5.7 13.9-3.7 3.7-8.7 5.8-13.9 5.8z"/>
	<path id="Layer" fill-rule="evenodd" class="s1" d="m306.5 346.9c-0.6-0.4-1.2-0.9-1.6-1.6-0.4-0.6-0.6-1.4-0.6-2.2 0-0.7 0.2-1.5 0.6-2.1 0.4-0.7 1-1.2 1.6-1.6 0.8-0.4 1.6-0.6 2.4-0.5 0.8-0.1 1.6 0.1 2.3 0.5 0.7 0.4 1.2 0.9 1.6 1.5q0.5 0.8 0.6 1.7 0.1 0.8-0.1 1.7-0.2 0.8-0.8 1.5-0.5 0.7-1.3 1.1c-0.7 0.4-1.5 0.5-2.3 0.5-0.8 0-1.6-0.1-2.4-0.5zm3.7-1.4q0.6-0.4 0.9-1 0.4-0.6 0.4-1.4 0-0.7-0.4-1.3-0.3-0.6-0.9-1-0.6-0.3-1.3-0.3-0.7 0-1.4 0.3-0.5 0.4-0.9 1-0.3 0.6-0.3 1.3 0 0.8 0.3 1.4 0.3 0.6 0.9 1 0.7 0.3 1.4 0.3 0.7 0 1.3-0.3z"/>
	<path id="Layer" fill-rule="evenodd" class="s1" d="m320.1 347.3l-1.6-2.3h-1.7v2.3h-1.9v-8.3h3.5q1 0 2 0.4c0.5 0.2 0.9 0.5 1.2 1 0.3 0.5 0.5 1 0.5 1.6 0 0.6-0.2 1.1-0.5 1.6-0.3 0.5-0.7 0.8-1.3 1l1.9 2.7zm-0.5-6.4c-0.4-0.2-0.8-0.4-1.3-0.3h-1.6v2.9h1.6c0.5 0 0.9-0.1 1.3-0.4q0.2-0.2 0.4-0.5 0.1-0.3 0.1-0.6 0-0.3-0.1-0.6-0.1-0.3-0.4-0.5z"/>
	<path id="Layer" fill-rule="evenodd" class="s1" d="m323.6 339h3.7c0.9 0 1.7 0.2 2.4 0.5 0.7 0.3 1.3 0.8 1.6 1.5 0.4 0.6 0.6 1.4 0.6 2.1 0 0.8-0.2 1.6-0.6 2.2-0.3 0.7-0.9 1.2-1.6 1.5-0.7 0.3-1.5 0.5-2.4 0.5h-3.7zm3.6 6.7c0.8 0.1 1.5-0.2 2-0.7 0.5-0.5 0.8-1.2 0.8-1.9 0-0.6-0.3-1.3-0.8-1.8-0.5-0.5-1.2-0.8-2-0.7h-1.7v5.1z"/>
	<path id="Layer" class="s1" d="m339.8 345.8v1.5h-6.4v-8.3h6.2v1.5h-4.3v1.8h3.8v1.5h-3.8v2z"/>
	<path id="Layer" fill-rule="evenodd" class="s1" d="m346.6 347.3l-1.6-2.3h-1.8v2.3h-1.9v-8.3h3.6q1 0 1.9 0.4c0.5 0.2 1 0.5 1.3 1 0.3 0.5 0.5 1 0.5 1.6 0 0.6-0.2 1.1-0.5 1.6-0.3 0.5-0.8 0.8-1.3 1l1.9 2.7zm-0.5-6.4c-0.4-0.2-0.9-0.4-1.3-0.3h-1.6v2.9h1.6c0.4 0 0.9-0.1 1.3-0.4q0.2-0.2 0.3-0.5 0.2-0.3 0.1-0.6 0.1-0.3-0.1-0.6-0.1-0.3-0.3-0.5z"/>
	<path id="Layer" class="s3" d="m302 75.1h-56.1v54.9h56.1z"/>
	<path id="Layer" class="s4" d="m245.9 75.1h0.8 2.3 9.1l34.1-0.1 117.2-0.1h0.3v0.3c0 17.3 0 35.8 0 54.9v0.2h-0.3-163.5-0.2v-0.3c0-17.2 0.1-31 0.1-40.4 0-4.7 0-8.3 0-10.8q0-1.8 0-2.8 0-0.9 0-0.9 0 0 0 1c0 0.7 0 1.6 0 2.8 0 2.5 0 6.1 0 10.8 0 9.4 0 23.1 0.1 40.3l-0.2-0.1 163.6-0.1-0.3 0.2v-54.9l0.3 0.3-117-0.1-34.2-0.1h-9.2-2.4z"/>
	<path id="Layer" class="s6" d="m286.2 101.6l-1.8 9 6-0.2z"/>
	<g id="Layer" style="opacity: .3">
		<path id="Layer" class="s7" d="m286.2 101.6l-1.8 9 6-0.2z"/>
	</g>
	<path id="Layer" class="s6" d="m260.8 101.9l1.8 8.9-5.9-0.1z"/>
	<g id="Layer" style="opacity: .3">
		<path id="Layer" class="s7" d="m260.8 101.9l1.8 8.9-5.9-0.1z"/>
	</g>
	<path id="Layer" class="s8" d="m276 103.6q-0.3 0-0.5-0.2-0.2-0.3-0.3-0.6l-0.8-20.9q0-0.1 0-0.3 0.1-0.1 0.2-0.2 0.1-0.1 0.2-0.2 0.2-0.1 0.3 0h1q0.3 0 0.6 0.2 0.2 0.2 0.2 0.5l-0.2 20.9q0 0.3-0.2 0.5-0.2 0.2-0.5 0.3z"/>
	<path id="Layer" class="s6" d="m276.9 83.8h-2.4v1.8h2.4z"/>
	<path id="Layer" class="s8" d="m277.7 103.6q-0.3-0.1-0.4-0.3-0.1-0.3 0-0.6l6.3-19.9q0.1-0.2 0.2-0.3 0.1-0.1 0.2-0.2 0.2-0.1 0.3-0.1 0.2 0 0.3 0.1l1 0.4q0.2 0 0.3 0.1 0.1 0.1 0.2 0.3 0 0.1 0 0.3 0 0.1 0 0.3l-7.4 19.5q0 0.2-0.2 0.3-0.1 0.1-0.2 0.2-0.1 0-0.3 0-0.2 0-0.3-0.1z"/>
	<path id="Layer" class="s6" d="m283 84.6l-0.6 1.7 2.3 0.8 0.6-1.7z"/>
	<path id="Layer" class="s1" d="m284.8 98.3q-0.6-0.9-1.5-1.4-0.9-0.6-1.9-0.7c-1.4-0.2-2.8 0-4 0.7-1 0.4-2 1.1-3 0.8q-1.1-0.3-2-1.1-1.2-0.8-2.6-1.1-1.4-0.2-2.8 0c-1.8 0.5-3.5 1.6-4.6 3.2q-0.6 0.9-0.9 2-0.2 1.1 0 2.2h23.6q0.5-1.2 0.4-2.3-0.1-1.2-0.7-2.3z"/>
	<path id="Layer" class="s4" d="m284.2 102.3q0.1-0.6 0-1.1c-0.1-1.1-0.6-2.1-1.3-2.8-0.6-0.5-1.3-0.8-2-0.9-0.8-0.1-1.7 0.1-2.4 0.4-0.9 0.2-1.7 0.8-2.6 1.1q-0.7 0.3-1.5 0.3-0.8 0-1.5-0.4c-0.9-0.4-1.7-1.1-2.6-1.5-0.8-0.4-1.7-0.7-2.6-0.6q-1.2 0.1-2.3 0.6-1 0.6-1.7 1.6c-0.7 0.8-1.1 1.8-1.3 2.9q-0.1 0.5-0.1 0.8 0 0.2 0 0.3 0-0.6 0.1-1.1c0.1-1.1 0.5-2.2 1.2-3q0.7-1 1.8-1.6 1-0.6 2.3-0.7c0.9-0.1 1.9 0.1 2.7 0.6 0.9 0.4 1.7 1.1 2.6 1.5q0.7 0.3 1.4 0.4 0.8 0 1.4-0.3c0.9-0.3 1.7-0.9 2.6-1.1 0.8-0.4 1.7-0.5 2.5-0.4 0.8 0.1 1.5 0.4 2 0.9 0.8 0.8 1.3 1.8 1.3 2.9q0.1 0.6 0 1.2z"/>
	<path id="Layer" class="s4" d="m283.1 102.6q0-0.5 0-1-0.1-0.7-0.4-1.3-0.4-0.6-0.9-1c-0.5-0.4-1.2-0.5-1.8-0.5q-1.1 0.3-2 0.9-1 0.7-2.2 1.1c-0.9 0.2-1.8 0.1-2.7-0.2-1.7-0.7-3-1.9-4.6-2.2-0.6-0.1-1.3-0.1-2 0.1-0.6 0.3-1.2 0.6-1.7 1.1-0.6 0.7-1.1 1.5-1.3 2.5-0.1 0.6-0.1 1-0.1 1q0-0.6 0.1-1c0.1-1 0.6-1.9 1.2-2.6 0.5-0.5 1.1-0.9 1.8-1.1 0.6-0.2 1.4-0.3 2.1-0.1 1.6 0.3 3 1.4 4.6 2.1 0.8 0.3 1.7 0.4 2.5 0.2q1.2-0.4 2.2-1 0.9-0.7 2.1-0.9c0.6-0.1 1.3 0.1 1.9 0.5q0.5 0.4 0.9 1 0.3 0.7 0.3 1.4 0.1 0.5 0 1z"/>
	<path id="Layer" class="s4" d="m281.6 102.6q0-0.4-0.1-0.8-0.2-0.4-0.6-0.7c-0.4-0.2-0.8-0.2-1.2-0.1-1 0.1-1.8 1-3 1.4-1.4 0.3-2.8 0.1-4-0.6q-1.8-0.9-3.7-1.6-0.8-0.2-1.6-0.1-0.8 0.1-1.5 0.5c-0.7 0.5-1.1 1.1-1.3 1.8q-0.1 0.4-0.1 0.8-0.1-0.4 0-0.8c0.2-0.8 0.6-1.4 1.2-1.9q0.8-0.4 1.6-0.6 0.9-0.1 1.7 0.2 1.9 0.5 3.7 1.5c1.2 0.7 2.6 0.9 3.9 0.6 1.1-0.4 2-1.3 3-1.4 0.4-0.1 0.9 0 1.3 0.2q0.4 0.3 0.6 0.8 0.1 0.3 0.1 0.6 0 0.1 0 0.2z"/>
	<path id="Layer" class="s6" d="m260.8 101.8c0 0.6 4.3 22.9 4.3 22.9l17-0.3 4.1-22.8z"/>
	<path id="Layer" class="s4" d="m260.8 101.8h0.5 1.4 5.3l18.2-0.2h0.2l-0.1 0.1-2.6 5.2q-1.1 2.3-2.2 4.4v0.1h-0.1-15.8l-4.7-9.5 4.8 9.4h-0.1 15.9-0.1l2.2-4.4q1.4-2.7 2.6-5.2l0.1 0.2z"/>
	<g id="Layer" style="opacity: .3">
		<path id="Layer" class="s7" d="m266 111.2l0.4 1h15.4l4-9.8-4.4 8.8z"/>
	</g>
	<path id="Layer" class="s1" d="m277 120.6q-3 0.2-6 0 3-0.2 6 0z"/>
	<path id="Layer" class="s1" d="m275.9 117.1c0 0 0-0.2-0.1-0.5q-0.1-0.5-0.5-0.8-0.3-0.4-0.8-0.6-0.4-0.1-0.9 0-0.5 0.1-0.9 0.4-0.4 0.4-0.5 0.8-0.2 0.5-0.1 1 0.1 0.5 0.4 0.9 0.3 0.4 0.8 0.5 0.5 0.2 0.9 0.1 0.5 0 0.9-0.3c0.3-0.3 0.6-0.6 0.7-1 0.1-0.3 0.1-0.5 0.1-0.5q0.1 0.3 0 0.5c-0.1 0.5-0.3 0.9-0.7 1.1q-0.4 0.4-0.9 0.5-0.5 0-1-0.1-0.7-0.3-1-0.8-0.4-0.5-0.4-1.2 0-0.6 0.4-1.2 0.3-0.5 1-0.7 0.5-0.2 1-0.1 0.5 0.1 0.9 0.4c0.4 0.3 0.6 0.7 0.7 1.1q0 0.2 0 0.5z"/>
	<path id="Layer" class="s4" d="m266 93.9q0.2 0 0.3-0.1 0.1-0.1 0.1-0.3 0.2-0.4 0-0.7-0.2-0.5-0.5-0.9c-0.5-0.6-0.7-1.3-0.6-2 0-0.8 0.4-1.5 1-2 0.4-0.3 0.9-0.7 0.9-1.3q0-0.4-0.2-0.7-0.1-0.4-0.5-0.7-0.6-0.6-1-1.3-0.3-0.6-0.3-1.3 0-0.7 0.2-1.4c0.3-0.5 0.7-1 1.2-1.4q0.2-0.2 0.6-0.3c0 0-0.3 0.1-0.6 0.3q-0.7 0.6-1 1.5-0.2 0.6-0.2 1.3 0.1 0.6 0.3 1.2 0.5 0.7 1 1.3 0.4 0.3 0.6 0.7 0.2 0.4 0.2 0.9c-0.2 0.5-0.5 1-1 1.4-0.6 0.4-0.9 1.1-1 1.8-0.1 0.7 0.1 1.4 0.6 1.9q0.3 0.4 0.5 0.9 0.2 0.4 0 0.8c-0.2 0.5-0.6 0.5-0.6 0.4z"/>
	<path id="Layer" class="s4" d="m268.7 93.9q0.1 0 0.2-0.1 0.2-0.1 0.2-0.3 0.1-0.4 0-0.7-0.2-0.5-0.6-0.9c-0.4-0.6-0.6-1.3-0.6-2 0.1-0.8 0.5-1.5 1-2 0.4-0.3 0.9-0.7 1-1.3q0-0.4-0.2-0.7-0.2-0.4-0.5-0.7-0.6-0.6-1-1.3-0.3-0.6-0.3-1.3-0.1-0.7 0.2-1.4c0.2-0.5 0.6-1 1.1-1.4q0.3-0.2 0.6-0.3c0 0-0.2 0.1-0.5 0.3q-0.7 0.6-1 1.5-0.3 0.6-0.2 1.3 0 0.6 0.3 1.2 0.4 0.7 1 1.3 0.4 0.3 0.6 0.7 0.2 0.4 0.2 0.9c-0.2 0.5-0.6 1-1 1.4q-0.6 0.5-0.9 1.2-0.2 0.7-0.1 1.3 0.1 0.7 0.5 1.2 0.4 0.4 0.6 0.9 0.2 0.4 0 0.8c-0.3 0.5-0.7 0.5-0.6 0.4z"/>
	<path id="Layer" class="s6" d="m345.3 85h-32.5v4.4h32.5z"/>
	<path id="Layer" class="s0" d="m398.4 95.9h-85.6v2.8h85.6z"/>
	<path id="Layer" class="s0" d="m398.4 101.5h-85.6v2.9h85.6z"/>
	<path id="Layer" class="s6" d="m375.7 118.3h-1.7v1.5h-1.2v-1.5h-1.6v-1.2h1.6v-1.6h1.2v1.6h1.7z"/>
	<path id="Layer" class="s6" d="m386.7 119.7v1.2h-4.9v-1l2.5-2.3q0.3-0.3 0.6-0.7 0.1-0.2 0.1-0.5 0-0.2-0.1-0.4 0-0.1-0.2-0.2-0.3-0.3-0.7-0.2-0.4-0.1-0.8 0.1-0.4 0.2-0.6 0.5l-1.1-0.7q0.4-0.6 1.1-0.9 0.7-0.3 1.5-0.3 0.7 0 1.3 0.2 0.5 0.2 0.8 0.7 0.3 0.4 0.3 1 0 0.5-0.2 1-0.3 0.6-0.9 1l-1.5 1.5z"/>
	<path id="Layer" class="s6" d="m392.7 117.7h2.7v1.2h-2.7z"/>
	<path id="Layer" class="s4" d="m398.4 125.2q0 0 0-0.3c0-0.2 0-0.5 0-0.8q0-1.1 0-3c0-2.7-0.1-6.5-0.1-11.2l0.2 0.2-32.4 0.1 0.3-0.3v7.9c0 2.5 0 5 0 7.4l-0.3-0.2 23.2 0.1h6.7 1.8 0.7q-0.3 0.1-0.6 0h-1.8l-6.6 0.1-23.4 0.1h-0.2v-0.2q0-3.6 0-7.4v-7.9l0.2-0.3 32.4 0.1h0.2v0.2c0 4.7-0.1 8.5-0.1 11.2 0 1.3 0 2.3-0.1 3v0.8q0 0.2-0.1 0.4z"/>
	<path id="Layer" fill-rule="evenodd" class="s0" d="m319.4 120.3c-0.6 0.5-1.3 0.8-2.1 0.9v1.3h-1.2v-1.3q-0.8 0-1.6-0.3-0.7-0.2-1.3-0.6l0.6-1.5q0.5 0.4 1.1 0.6 0.6 0.2 1.2 0.3v-2q-0.7-0.2-1.4-0.5-0.6-0.2-1-0.7c-0.3-0.4-0.4-0.8-0.4-1.3q0-0.5 0.2-0.9 0.2-0.4 0.5-0.8c0.6-0.5 1.3-0.8 2.1-0.8v-1.3h1.2v1.2c0.8 0.1 1.7 0.3 2.4 0.8l-0.6 1.4q-0.8-0.5-1.8-0.6v2q0.7 0.2 1.4 0.4 0.6 0.3 1 0.8c0.3 0.3 0.4 0.8 0.4 1.2q0 0.5-0.2 1-0.2 0.4-0.5 0.7zm-3.9-4.7q0.3 0.3 0.6 0.4v-1.7q-0.4 0-0.6 0.3-0.3 0.2-0.3 0.5 0 0.2 0.1 0.3 0.1 0.1 0.2 0.2zm2.4 3.7q0.1-0.1 0.2-0.2 0.1-0.1 0.1-0.3 0-0.1-0.1-0.3-0.1-0.1-0.2-0.2-0.2-0.2-0.6-0.3v1.6q0.4 0 0.6-0.3z"/>
	<path id="Layer" fill-rule="evenodd" class="s0" d="m328.3 120.3c-0.5 0.5-1.3 0.8-2 0.9v1.3h-1.2v-1.3q-0.9 0-1.7-0.3-0.7-0.2-1.3-0.6l0.7-1.5q0.5 0.4 1 0.6 0.6 0.2 1.2 0.3v-2q-0.7-0.2-1.4-0.5-0.6-0.2-1-0.7c-0.3-0.4-0.4-0.8-0.4-1.3q0-0.5 0.2-0.9 0.2-0.4 0.5-0.8c0.6-0.5 1.3-0.8 2.1-0.8v-1.3h1.2v1.2c0.8 0.1 1.7 0.3 2.4 0.8l-0.6 1.4q-0.8-0.5-1.8-0.6v2q0.7 0.2 1.4 0.4 0.6 0.3 1 0.8c0.3 0.3 0.4 0.8 0.4 1.2q0 0.5-0.2 1-0.1 0.4-0.5 0.7zm-3.9-4.7q0.3 0.3 0.7 0.4v-1.7q-0.4 0-0.7 0.3-0.2 0.2-0.2 0.5 0 0.2 0.1 0.3 0 0.1 0.1 0.2zm2.5 3.7q0.1-0.1 0.2-0.2 0-0.1 0-0.3 0-0.1 0-0.3-0.1-0.1-0.2-0.2-0.3-0.2-0.6-0.3v1.6q0.3 0 0.6-0.3z"/>
	<path id="Layer" class="s4" d="m302 130.5c-0.2 0-0.3-12.3-0.3-27.5 0-15.2 0.1-27.5 0.3-27.5 0.1 0 0.3 12.3 0.3 27.5 0 15.2-0.1 27.5-0.3 27.5z"/>
	<path id="Layer" class="s3" d="m302 135.7h-56.1v54.9h56.1z"/>
	<path id="Layer" class="s4" d="m245.9 135.7h0.8 2.3 9.2l34.1-0.1 117.2-0.1h0.2v0.3c0 17.3 0 35.8 0 54.9v0.2h-0.3l-163.5-0.1h-0.2v-0.1c0-17.3 0.1-31 0.1-40.5 0-4.7 0-8.3 0-10.7q0-1.9 0-2.8 0-1 0-0.9 0-0.1 0 1c0 0.6 0 1.5 0 2.8 0 2.4 0 6.1 0 10.8 0 9.4 0.1 23.1 0.1 40.3l-0.2-0.2 163.6-0.1-0.3 0.3v-55l0.3 0.3-117-0.2h-34.2-9.1-2.4z"/>
	<path id="Layer" class="s6" d="m345.3 145.6h-32.5v4.4h32.5z"/>
	<path id="Layer" class="s0" d="m398.4 156.5h-85.6v2.8h85.6z"/>
	<path id="Layer" class="s0" d="m398.4 162.1h-85.6v2.8h85.6z"/>
	<path id="Layer" class="s6" d="m375.7 178.8h-1.7v1.6h-1.2v-1.6h-1.6v-1.1h1.6v-1.6h1.2v1.6h1.7z"/>
	<path id="Layer" class="s6" d="m384.4 175v6.5h-1.5v-5.3h-1.3v-1.2z"/>
	<path id="Layer" class="s6" d="m390.9 178.3h2.6v1.2h-2.6z"/>
	<path id="Layer" class="s4" d="m398.4 185.8q0 0 0-0.3c0-0.2 0-0.5 0-0.8q0-1.1 0-3.1c0-2.7-0.1-6.4-0.1-11.1l0.2 0.2h-32.4l0.3-0.2v7.9c0 2.5 0 5 0 7.4l-0.3-0.3 23.2 0.2h6.7 1.8 0.7q-0.3 0.1-0.6 0h-1.8l-6.6 0.1-23.4 0.1h-0.2v-0.2q0-3.6 0-7.5v-7.7l0.2-0.3 32.4 0.1h0.2v0.2c0 4.7-0.1 8.5-0.1 11.3q0 1.9-0.1 3v0.7q0 0.2-0.1 0.3z"/>
	<path id="Layer" fill-rule="evenodd" class="s0" d="m319.4 180.9c-0.6 0.5-1.3 0.8-2.1 0.9v1.3h-1.2v-1.3q-0.8 0-1.6-0.3-0.7-0.2-1.3-0.6l0.6-1.5q0.5 0.4 1.1 0.6 0.6 0.2 1.2 0.3v-2q-0.7-0.2-1.4-0.5-0.6-0.2-1-0.7c-0.3-0.4-0.4-0.8-0.4-1.3q0-0.5 0.2-0.9 0.2-0.5 0.5-0.8c0.6-0.5 1.3-0.8 2.1-0.9v-1.2h1.2v1.3c0.8 0 1.7 0.3 2.4 0.7l-0.6 1.5q-0.8-0.5-1.8-0.6v2q0.7 0.1 1.4 0.4 0.6 0.2 1 0.7c0.3 0.4 0.4 0.8 0.4 1.3q0 0.4-0.2 0.9-0.2 0.4-0.5 0.7zm-3.9-4.7q0.3 0.2 0.6 0.3v-1.7q-0.4 0.1-0.6 0.4-0.3 0.2-0.3 0.5 0 0.2 0.1 0.3 0.1 0.1 0.2 0.2zm2.4 3.7q0.1-0.1 0.2-0.2 0.1-0.2 0.1-0.3 0-0.2-0.1-0.3-0.1-0.1-0.2-0.2-0.2-0.2-0.6-0.3v1.6q0.4-0.1 0.6-0.3z"/>
	<path id="Layer" class="s4" d="m302 191.1c-0.2 0-0.3-12.3-0.3-27.5 0-15.2 0.2-27.6 0.3-27.6 0.1 0 0.3 12.3 0.3 27.6 0 15.2-0.1 27.5-0.3 27.5z"/>
	<path id="Layer" class="s3" d="m302 196.1h-56.1v55h56.1z"/>
	<path id="Layer" class="s4" d="m245.9 196.1h0.8 2.3 9.2 34.1l117.2-0.2h0.2v0.3c0 17.3 0 35.8 0 54.9v0.3h-0.3l-163.5-0.1h-0.2v-0.3c0-17.2 0.1-31 0.1-40.4 0-4.7 0-8.3 0-10.8q0-1.8 0-2.8 0-0.9 0-0.9 0 0 0 1c0 0.7 0 1.6 0 2.8q0 3.7 0 10.8c0 9.5 0.1 23.2 0.1 40.3l-0.2-0.1 163.6-0.1-0.3 0.2v-54.9l0.3 0.3-117-0.1-34.2-0.1h-9.1-2.4z"/>
	<path id="Layer" class="s6" d="m345.3 206h-32.5v4.4h32.5z"/>
	<path id="Layer" class="s0" d="m398.4 216.9h-85.6v2.8h85.6z"/>
	<path id="Layer" class="s0" d="m398.4 222.6h-85.6v2.8h85.6z"/>
	<path id="Layer" class="s6" d="m375.7 239.3h-1.7v1.6h-1.2v-1.6h-1.6v-1.2h1.6v-1.6l1.2 0.1v1.5h1.7z"/>
	<path id="Layer" class="s6" d="m384.4 235.4v6.6h-1.5v-5.3h-1.3v-1.2z"/>
	<path id="Layer" class="s6" d="m390.9 238.8h2.6v1.1h-2.6z"/>
	<path id="Layer" class="s4" d="m398.4 246.2q0 0 0-0.3 0-0.3 0-0.8 0-1.1 0-3c0-2.7-0.1-6.5-0.1-11.2l0.2 0.2-32.4 0.1 0.3-0.3v7.9c0 2.6 0 5 0 7.4l-0.3-0.2 23.2 0.1h6.7 1.8 0.7q-0.3 0.1-0.6 0h-1.8l-6.6 0.1-23.4 0.1h-0.2v-0.2q0-3.6 0-7.4v-7.7c-0.1 0 0.5-0.5 0.2-0.3l32.4 0.1h0.2v0.2c0 4.7-0.1 8.6-0.1 11.3q0 1.9-0.1 3v0.7c-0.1 0.1-0.1 0.2-0.1 0.2z"/>
	<path id="Layer" fill-rule="evenodd" class="s0" d="m319.4 241.4c-0.6 0.5-1.3 0.8-2.1 0.8v1.3h-1.2v-1.3q-0.8 0-1.6-0.3-0.7-0.2-1.3-0.6l0.6-1.4q0.5 0.3 1.1 0.5 0.6 0.2 1.2 0.3v-2q-0.7-0.2-1.4-0.5-0.6-0.2-1-0.7c-0.3-0.4-0.4-0.8-0.4-1.3q0-0.4 0.2-0.9 0.2-0.4 0.5-0.8c0.6-0.5 1.3-0.8 2.1-0.8v-1.3h1.2v1.3c0.8 0 1.7 0.2 2.4 0.7l-0.6 1.4q-0.8-0.5-1.8-0.6v2q0.7 0.2 1.4 0.5 0.6 0.2 1 0.7c0.3 0.4 0.4 0.8 0.4 1.2q0 0.5-0.2 1-0.2 0.4-0.5 0.8zm-3.9-4.8q0.3 0.3 0.6 0.4v-1.7q-0.4 0.1-0.6 0.3-0.3 0.2-0.3 0.6 0 0.1 0.1 0.2 0.1 0.2 0.2 0.2zm2.4 3.7q0.1-0.1 0.2-0.2 0.1-0.1 0.1-0.3 0-0.1-0.1-0.2-0.1-0.2-0.2-0.3-0.2-0.2-0.6-0.3v1.6q0.4 0 0.6-0.3z"/>
	<path id="Layer" fill-rule="evenodd" class="s0" d="m327.5 241.4c-0.6 0.5-1.3 0.8-2 0.8v1.3h-1.2v-1.3q-0.9 0-1.7-0.3-0.7-0.2-1.3-0.6l0.7-1.4q0.5 0.3 1 0.5 0.6 0.2 1.3 0.3v-2q-0.8-0.2-1.5-0.5-0.5-0.2-1-0.7c-0.2-0.4-0.4-0.8-0.4-1.3q0-0.4 0.2-0.9 0.2-0.4 0.6-0.8c0.5-0.5 1.3-0.8 2-0.8v-1.3h1.2v1.3c0.9 0 1.7 0.3 2.4 0.7l-0.6 1.4q-0.8-0.5-1.8-0.6v2q0.7 0.2 1.4 0.5 0.6 0.2 1 0.7c0.3 0.4 0.4 0.8 0.4 1.2q0 0.5-0.2 1-0.1 0.4-0.5 0.8zm-3.9-4.8q0.3 0.3 0.7 0.4v-1.7q-0.4 0.1-0.7 0.3-0.2 0.2-0.2 0.6 0 0.1 0 0.2 0.1 0.2 0.2 0.2zm2.5 3.7q0.1-0.1 0.2-0.2 0-0.1 0-0.3 0-0.1 0-0.2-0.1-0.2-0.2-0.3-0.3-0.2-0.6-0.3v1.6q0.3 0 0.6-0.3z"/>
	<path id="Layer" class="s4" d="m302 251.6c-0.2 0-0.3-12.4-0.3-27.6 0-15.2 0.1-27.5 0.3-27.5 0.1 0 0.3 12.3 0.3 27.5 0 15.2-0.1 27.6-0.3 27.6z"/>
	<path id="Layer" class="s6" d="m262.9 155.4l2.1 27.6c0 0.4 0.2 0.8 0.5 1.1 0.3 0.3 0.7 0.4 1.1 0.4l11.3 0.1c0.4 0 0.8-0.1 1.1-0.4 0.3-0.3 0.5-0.7 0.6-1.1l2.2-27.4z"/>
	<g id="Layer" style="opacity: .3">
		<path id="Layer" class="s7" d="m280.8 167.4q-8.5 0.4-17.1-0.2l0.5 8.3c0 0 10 1.7 16-0.3z"/>
	</g>
	<g id="Layer" style="opacity: .3">
		<path id="Layer" class="s7" d="m281.7 157.2c-3.9 1.5-8.1 2.2-12.3 1.8-5.4-0.3-6.4-1.7-6.4-1.7v-1.2h18.8z"/>
	</g>
	<path id="Layer" class="s0" d="m282.6 154.2l0.5 1.9c0 0-2.2 1.8-11 1.6-7.9-0.1-9.8-1.5-9.8-1.5l-0.6-0.5 0.6-1.8z"/>
	<path id="Layer" class="s4" d="m282.6 154.2h-1.6-4.3l-14.4-0.2-0.5 1.8v-0.1l0.6 0.5q0.4 0.3 0.8 0.4l0.4 0.2 0.4 0.1q0.9 0.2 1.7 0.4 1.6 0.2 3.3 0.3 3 0.3 6 0.2 2.4-0.1 4.8-0.5 1-0.2 1.9-0.5 0.7-0.2 1.4-0.6l-0.3-1.5-0.1-0.3v-0.2q0 0.1 0 0.2l0.1 0.3q0.1 0.5 0.3 1.4-0.6 0.5-1.4 0.7-0.9 0.3-1.8 0.5-2.4 0.4-4.9 0.5-3 0.1-6-0.1-1.6-0.1-3.3-0.4-0.8-0.1-1.7-0.4c-0.1 0-0.3 0-0.4-0.1q-0.2 0-0.4-0.1-0.4-0.2-0.8-0.4l-0.7-0.5q0.3-1 0.6-1.8l14.5 0.2 4.3 0.1h1.1 0.4z"/>
	<path id="Layer" class="s1" d="m262.3 154c-0.1 0.9 4.5 1.6 10.1 1.7 3.9 0.1 9.5-0.6 10.2-1.6 0.6-0.7-4.5-1.7-10.2-1.7-5.6-0.1-10.1 0.7-10.2 1.6z"/>
	<path id="Layer" class="s4" d="m262.2 154q0-0.1 0-0.1 0.1-0.2 0.2-0.3 0.6-0.3 1.2-0.4 2.2-0.6 4.4-0.7 3.4-0.3 6.7-0.1c1.3 0.1 2.6 0.2 4 0.4q1.1 0.1 2.1 0.3 0.5 0.1 1 0.3 0.3 0.1 0.5 0.2l0.1 0.1 0.2 0.1q0 0 0.1 0.1 0 0.1 0 0.1 0 0.1-0.1 0.2l-0.1 0.1q-0.1 0.1-0.2 0.2-0.3 0.1-0.5 0.2-0.5 0.2-1 0.3-1.1 0.2-2.1 0.4-2.1 0.3-4 0.3-1.7 0.1-3.5 0c-1.2 0-2.2-0.1-3.2-0.2q-2.2-0.1-4.4-0.7-0.6-0.1-1.2-0.4-0.1-0.1-0.2-0.3 0 0 0-0.1c0 0 0 0 0 0.1q0.1 0.2 0.2 0.2 0.6 0.4 1.2 0.5 2.2 0.5 4.4 0.7 1.5 0.1 3.1 0.1 1.8 0.1 3.6 0 1.9 0 4-0.3 1-0.2 2-0.4 0.5-0.1 1-0.3 0.3-0.1 0.5-0.3 0.1 0 0.2-0.1 0.1-0.1 0.2-0.2 0 0-0.1-0.1 0 0 0-0.1c-0.1 0-0.1 0-0.3-0.1q-0.2-0.1-0.5-0.2-0.4-0.2-1-0.3-1-0.2-2-0.3-2-0.3-3.9-0.4-3.4-0.1-6.7 0.1-2.3 0.1-4.5 0.6-0.6 0.1-1.1 0.5-0.2 0.1-0.2 0.2c0 0.1 0 0.1-0.1 0.1z"/>
	<path id="Layer" class="s0" d="m278.2 152.4l0.3 1.1c0 0-1.2 1.1-6.2 0.9-4.9-0.2-5.5-0.9-5.5-0.9l-0.1-0.2 0.1-1.1z"/>
	<path id="Layer" class="s4" d="m278.2 152.4h-0.8-2.5l-8.1-0.1 0.1-0.1c0 0.4-0.1 0.8-0.1 1.2l0.1 0.1q0 0 0.1 0.1 0.4 0.2 0.9 0.3 0.4 0.1 0.9 0.2 0.9 0.1 1.8 0.2 1.7 0.1 3.4 0.1 1.3 0 2.7-0.3 0.5-0.1 1-0.2 0.4-0.2 0.7-0.4l-0.1-0.8v-0.2q0 0 0-0.1 0 0 0 0.1v0.2q0.1 0.3 0.2 0.8-0.3 0.2-0.7 0.4-0.5 0.2-1 0.3-1.4 0.2-2.8 0.3c-1 0-2.1 0-3.3-0.1q-0.9-0.1-1.9-0.2c-0.3 0-0.6-0.1-0.9-0.2q-0.5-0.1-1-0.4 0 0-0.1-0.1l-0.1-0.1 0.1-1.1v-0.1h0.1l8.1 0.1 2.4 0.1h0.7 0.2z"/>
	<path id="Layer" class="s1" d="m266.8 152.3c0 0.5 2.5 1 5.7 1 3.2 0 5.7-0.4 5.7-0.9 0-0.5-2.5-1-5.7-1-3.1 0-5.7 0.4-5.7 0.9z"/>
	<path id="Layer" class="s4" d="m266.8 152.3c0 0 0-0.1 0.1-0.2q0.3-0.2 0.6-0.3 1.3-0.3 2.6-0.4 1.8-0.1 3.7 0 1.1 0 2.3 0.2 0.5 0 1.1 0.2 0.3 0 0.6 0.1 0.2 0.1 0.3 0.2 0.1 0 0.1 0.1 0.1 0.1 0.1 0.2 0 0.1-0.1 0.1 0 0.1-0.1 0.2-0.1 0-0.3 0.1-0.3 0.1-0.6 0.2-0.6 0.1-1.2 0.2-1.1 0.1-2.2 0.1-1.9 0.1-3.8-0.1-1.2-0.1-2.5-0.4-0.3-0.1-0.6-0.3c-0.1-0.1-0.1-0.2-0.1-0.2q0 0.1 0 0.1 0.1 0.1 0.1 0.1 0.3 0.2 0.6 0.2 1.3 0.3 2.6 0.4 1.8 0.2 3.7 0.1 1.1 0 2.2-0.2 0.6 0 1.2-0.2 0.3 0 0.6-0.1l0.2-0.2c0.1 0 0.2-0.1 0.2-0.1q0-0.1-0.2-0.2-0.1-0.1-0.2-0.1-0.3-0.1-0.6-0.2-0.6-0.1-1.2-0.2-1.1-0.2-2.2-0.2-1.9-0.1-3.7 0-1.3 0-2.5 0.3-0.4 0.1-0.7 0.3 0 0-0.1 0.1 0 0 0 0.1z"/>
	<path id="Layer" class="s1" d="m271.6 152.1l-0.3-12.4 1.6-0.1 0.2 12.5c-0.6 0-1 0.2-1.5 0z"/>
	<path id="Layer" class="s4" d="m271.6 152.1q0.2 0 0.4 0 0.2 0.1 0.5 0 0.3 0 0.6 0c0-2.3-0.2-7-0.3-12.4l0.1 0.1h-1.6 0.1c0.1 3.4 0.1 6.5 0.2 8.7 0 1.1 0 2 0 2.7v1q0-0.1 0-0.1v-0.2q0-0.2 0-0.7c0-0.6 0-1.5-0.1-2.6-0.1-2.2-0.1-5.3-0.2-8.8v-0.1h1.6 0.1v0.1c0.1 5.4 0.2 10.1 0.2 12.4q-0.3-0.1-0.7 0-0.2 0-0.5 0-0.1 0-0.3-0.1z"/>
	<path id="Layer" class="s5" d="m272.4 139.7l0.3 12.4h-0.6l-0.4-12.4z"/>
	<path id="Layer" class="s4" d="m271 151.9c0 0 0.7 0.1 1.5 0.1 0.9 0.1 1.6-0.1 1.6 0q-0.2 0.1-0.5 0.1-0.5 0.1-1.1 0.1-0.5 0-1.1-0.1-0.2-0.1-0.4-0.2z"/>
	<path id="Layer" class="s4" d="m282.1 156.6q-0.2-0.5-0.3-0.9-0.1-0.5-0.2-1 0.2 0.4 0.3 0.9 0.2 0.5 0.2 1z"/>
	<path id="Layer" class="s4" d="m280.5 157.1q-0.2-0.5-0.3-1-0.2-0.5-0.2-1 0.2 0.5 0.3 1 0.1 0.5 0.2 1z"/>
	<path id="Layer" class="s4" d="m278.7 157.5q-0.2-0.5-0.3-1-0.1-0.5-0.1-1 0.2 0.4 0.3 1 0.1 0.4 0.1 1z"/>
	<path id="Layer" class="s4" d="m276.6 157.7q-0.2-1-0.3-2 0.2 0.5 0.2 1 0.1 0.5 0.1 1z"/>
	<path id="Layer" class="s4" d="m274.5 157.8q-0.1-0.5 0-1 0-0.5 0.1-1 0 0.5 0 1 0 0.5-0.1 1z"/>
	<path id="Layer" class="s4" d="m272.7 157.7q-0.1-0.5 0-1 0-0.5 0.1-1 0.1 0.5 0 1 0 0.5-0.1 1z"/>
	<path id="Layer" class="s4" d="m270.8 157.7q-0.1-0.5 0.1-1 0-0.5 0.2-1 0 0.5-0.1 1-0.1 0.5-0.2 1z"/>
	<path id="Layer" class="s4" d="m268.6 157.5q0-0.5 0.2-1 0.1-0.5 0.3-1 0 0.5-0.2 1-0.1 0.5-0.3 1z"/>
	<path id="Layer" class="s4" d="m266.5 157.4q0.1-0.5 0.2-1 0.1-0.6 0.4-1-0.1 0.5-0.2 1-0.1 0.5-0.4 1z"/>
	<path id="Layer" class="s4" d="m264.1 156.9q0.1-0.5 0.3-0.9 0.1-0.5 0.4-0.9-0.2 0.9-0.7 1.8z"/>
	<path id="Layer" class="s4" d="m262.4 156.2q0-0.4 0.2-0.8 0.1-0.4 0.3-0.8 0 0.4-0.2 0.8-0.1 0.5-0.3 0.8z"/>
	<path id="Layer" class="s5" d="m276.7 220.7c0.9-1.3 1.5-2.8 1.7-4.4 0.2-1.5-0.1-2.9-0.7-4.2-0.1-0.1-0.1-0.2-0.2-0.3q-0.2 0-0.3 0c-0.8 0.4-1.5 1-2 1.8-0.5 0.7-0.8 1.6-0.8 2.5-0.1 0.9 0.1 1.8 0.5 2.6 0.4 0.8 1 1.4 1.8 1.9"/>
	<path id="Layer" class="s5" d="m279.8 217c1.1-0.4 2.1-1.2 2.9-2.1 0.7-0.9 1.1-1.9 1.2-3q0.1-0.1 0-0.2 0-0.1-0.2-0.1c-0.6-0.1-1.3 0-1.9 0.3-0.7 0.2-1.2 0.7-1.6 1.2-0.4 0.6-0.6 1.2-0.7 1.9-0.1 0.7 0 1.3 0.3 1.9"/>
	<path id="Layer" class="s6" d="m279.2 220.6q0.2-0.6 0-1.1-0.2-0.6-0.7-0.9c-0.5-0.5-1.2-0.7-2-0.7-0.6-0.1-1.2 0.1-1.8 0.5q-0.4 0.2-0.7 0.6-0.3 0.4-0.4 0.9-0.1 0.6 0.1 1.2 0.2 0.6 0.7 1c0.6 0.5 1.4 0.8 2.2 0.8 0.7 0 1.4-0.2 1.9-0.7q0.3-0.3 0.5-0.7 0.3-0.5 0.3-0.9"/>
	<path id="Layer" class="s5" d="m286.3 222.6c2.8 0.5 5.5-2.6 6.2-4.6q0-0.1 0-0.3 0-0.2 0-0.3-0.2-0.2-0.3-0.2-0.2 0-0.4 0c-1.4 0.2-2.6 0.8-3.6 1.8-1 1-1.7 2.2-1.9 3.6"/>
	<path id="Layer" class="s6" d="m289.4 221.1q0.1-0.6-0.1-1.1-0.2-0.6-0.6-0.9c-0.5-0.5-1.3-0.8-2-0.7-0.6-0.1-1.3 0.1-1.8 0.4q-0.5 0.3-0.8 0.8-0.3 0.5-0.4 1 0 0.6 0.2 1.1 0.2 0.5 0.6 0.9c0.7 0.5 1.5 0.8 2.3 0.8 0.7 0 1.3-0.2 1.8-0.7q0.4-0.3 0.6-0.7 0.2-0.5 0.2-1"/>
	<path id="Layer" class="s6" d="m269.2 216.7q0.1-0.5-0.1-1.1-0.2-0.5-0.6-0.9c-0.6-0.4-1.3-0.7-2-0.7-0.7 0-1.3 0.2-1.9 0.5q-0.5 0.3-0.8 0.8-0.3 0.5-0.3 1-0.1 0.6 0.2 1.1 0.2 0.5 0.6 0.9c0.6 0.5 1.4 0.8 2.2 0.8 0.7 0 1.4-0.3 1.9-0.7q0.4-0.3 0.6-0.8 0.2-0.4 0.2-0.9"/>
	<path id="Layer" class="s5" d="m275.1 221.7c-0.2-1.6-0.8-3.1-1.9-4.4-0.8-1.2-2-2.1-3.4-2.5q-0.1-0.1-0.3 0 0 0-0.1 0.1 0 0 0 0.1c-0.3 0.9-0.4 1.8-0.2 2.6 0.1 0.9 0.5 1.7 1.1 2.4 0.6 0.7 1.3 1.2 2.2 1.5 0.8 0.3 1.7 0.4 2.6 0.2"/>
	<path id="Layer" class="s5" d="m265 219.2q-0.8-0.9-1.5-2c-0.4-0.7-0.6-1.6-0.6-2.4q0-0.1 0-0.2 0.1-0.1 0.1-0.2 0.1 0 0.2 0 0.1 0 0.2 0c1.6 0.4 3 1.2 4 2.4 1.1 1.2 1.8 2.7 1.9 4.3l0.1 0.4c-1.3 0.8-2.9 1-4.4 0.7-1.2-0.2-2.3-0.7-3.3-1.3-1.1-0.7-1.8-1.8-2.1-3 1-0.2 1.9-0.1 2.8 0.1 1 0.2 1.8 0.6 2.6 1.2z"/>
	<path id="Layer" class="s5" d="m282.3 216.8c1.3-1.3 3-2.2 4.9-2.5q0.1 1.3-0.2 2.7-0.4 1.3-1.3 2.4-0.9 1.1-2.1 1.8-1.2 0.7-2.6 0.8l-0.1-0.2c-0.3-0.8-0.3-1.8 0-2.7 0.2-0.9 0.7-1.7 1.4-2.4z"/>
	<path id="Layer" class="s1" d="m291.8 220.6c-1 4.1-2.9 7.9-5.5 11.2-6.1 7.6-20 5.5-23.7-0.4-1.5-2.3-5.3-10.7-5.3-10.7z"/>
	<path id="Layer" class="s4" d="m291.8 220.6h-0.7-2-7.2l-24.7 0.1 0.1-0.1c1.2 2.4 2.3 5 3.6 7.5q0.5 1 1 2 0.5 1 1.2 1.8c0.9 1.1 2 2 3.3 2.6 2.3 1.3 5 2 7.6 2 2.5 0.1 4.9-0.3 7.1-1.1 2-0.8 3.7-2.1 5.1-3.7 1.9-2.4 3.4-5.1 4.5-7.9 0.4-1 0.7-1.8 0.8-2.4l0.3-0.8q-0.4 1.6-1 3.2c-1.1 2.9-2.6 5.6-4.5 8-1.4 1.6-3.1 2.9-5.1 3.7-2.3 0.9-4.7 1.3-7.2 1.2-2.7 0-5.4-0.7-7.8-2-1.2-0.6-2.4-1.5-3.3-2.6q-0.7-0.9-1.2-1.9-0.5-0.9-1-2c-1.3-2.5-2.5-5.1-3.6-7.5v-0.2h34.7z"/>
	<path id="Layer" class="s6" d="m289.6 226.2c0 0.1-6.7 0.1-14.8 0.1-8.2 0-14.9 0-14.9-0.1 0-0.1 6.7-0.1 14.9-0.1 8.1 0 14.8 0.1 14.8 0.1z"/>
	<path id="Layer" class="s6" d="m290.2 225.4c0 0-6.9 0.1-15.4 0.1-8.4 0-15.3 0-15.3-0.1 0-0.1 6.8-0.1 15.3-0.1 8.5 0 15.4 0 15.4 0.1z"/>
	<path id="Layer" class="s1" d="m133.9 86.3h73.4c1.4 0 2.8 0.5 3.8 1.5 0.9 1 1.5 2.3 1.5 3.7v73.4c0 1.4-0.6 2.7-1.5 3.7-1 1-2.4 1.6-3.8 1.6h-54.6c-5 4.2-14.6 12.7-14.6 12.7l-0.7-12.7h-3.5c-1.3-0.1-2.7-0.6-3.7-1.6-0.9-1-1.5-2.3-1.5-3.7v-73.4c0-1.4 0.6-2.7 1.5-3.7 1-1 2.4-1.5 3.7-1.5z"/>
	<path id="Layer" class="s4" d="m133.9 86.3q-0.8 0-1.6 0.3c-0.8 0.3-1.5 0.7-2.1 1.3-0.6 0.6-1 1.4-1.2 2.2q-0.3 1.8-0.2 3.6 0 2 0 4.4 0 4.8 0 11c0 8.1 0 18.1 0 29.4q0 8.6 0 18.1v4.8q0 1.3 0 2.5 0 1.2 0.3 2.4c0.2 0.8 0.6 1.5 1.1 2.1 0.6 0.6 1.3 1 2.1 1.3q1.2 0.3 2.4 0.2h2.9v0.2c0.2 4 0.4 8.4 0.7 12.8l-0.4-0.1 14.6-12.8 0.1-0.1h46.3q4.5 0 8.8 0c1 0 2-0.4 2.8-1.1 0.8-0.7 1.4-1.6 1.7-2.6q0.2-1 0.1-2.1v-17.1c0-11.2 0-22 0-32.2q0-7.7 0-15 0-3.7 0-7.2 0.1-0.9 0-1.8-0.1-0.8-0.5-1.5c-0.5-1-1.3-1.8-2.4-2.3q-0.7-0.4-1.5-0.5-0.8 0-1.7 0h-9.8-12.2-36.8l36.8-0.1h12.2 9.8q0.9 0 1.7 0c0.9 0.1 1.8 0.4 2.5 0.9 0.8 0.5 1.4 1.2 1.8 2q0.4 0.8 0.5 1.7 0.1 0.9 0.1 1.8 0 3.6 0 7.2 0 7.3 0 15c0 10.3 0 21.1 0 32.3q0 8.3 0 17 0 1.1-0.2 2.2-0.3 1.1-1 2-0.7 0.9-1.8 1.4-1 0.6-2.1 0.7c-3 0-5.9 0-8.9 0h-46.1l0.1-0.1c-5 4.4-10 8.7-14.5 12.8l-0.4 0.3v-0.5c-0.2-4.4-0.5-8.8-0.7-12.8l0.2 0.3h-2.6q-1.3 0-2.6-0.3c-0.8-0.3-1.6-0.8-2.2-1.4-0.6-0.7-1-1.5-1.3-2.3q-0.3-1.2-0.2-2.5v-7.3q0-9.6 0-18.1c0-11.3 0-21.3 0.1-29.5q0-6.1 0-10.9 0-2.4 0-4.4-0.2-1.9 0.2-3.7c0.2-0.8 0.7-1.6 1.3-2.2 0.5-0.6 1.3-1.1 2.1-1.3q0.6-0.2 1.3-0.3z"/>
	<path id="Layer" class="s6" d="m188.5 126.9l-2.6 13.1 8.6-0.2z"/>
	<g id="Layer" style="opacity: .3">
		<path id="Layer" class="s7" d="m188.5 126.9l-2.6 13.1 8.6-0.2z"/>
	</g>
	<path id="Layer" class="s6" d="m151.4 127.4l2.6 13-8.6-0.2z"/>
	<g id="Layer" style="opacity: .3">
		<path id="Layer" class="s7" d="m151.4 127.4l2.6 13-8.6-0.2z"/>
	</g>
	<path id="Layer" class="s8" d="m173.6 129.8q-0.5 0-0.8-0.3-0.3-0.3-0.3-0.8l-1.3-30.5q0-0.3 0.1-0.5 0.1-0.2 0.2-0.3 0.2-0.2 0.4-0.3 0.2-0.1 0.4-0.1h1.5q0.2 0 0.5 0.1 0.2 0.1 0.3 0.2 0.2 0.2 0.2 0.4 0.1 0.2 0.1 0.4l-0.2 30.6c0 0.3-0.2 0.6-0.4 0.8-0.2 0.2-0.4 0.3-0.7 0.3z"/>
	<path id="Layer" class="s6" d="m174.9 100.9h-3.6v2.7h3.6z"/>
	<path id="Layer" class="s8" d="m176 129.9q-0.4-0.2-0.6-0.6-0.2-0.3-0.1-0.8l9.3-29.1q0.1-0.2 0.3-0.4 0.1-0.2 0.3-0.3 0.2-0.1 0.4-0.1 0.2 0 0.5 0.1l1.4 0.5c0.3 0.1 0.5 0.3 0.6 0.6 0.1 0.3 0.1 0.6 0 0.8l-10.7 28.6c-0.1 0.3-0.3 0.5-0.6 0.7q-0.4 0.1-0.8 0z"/>
	<path id="Layer" class="s6" d="m183.8 102l-0.9 2.5 3.4 1.2 0.9-2.4z"/>
	<path id="Layer" class="s0" d="m186.4 122.1c-0.5-0.8-1.3-1.5-2.1-2.1-0.9-0.5-1.8-0.9-2.9-1.1-1.9-0.2-4 0.1-5.8 1-1.4 0.7-2.8 1.6-4.3 1.3q-1.6-0.5-2.9-1.6c-1.1-0.8-2.4-1.3-3.7-1.6-1.4-0.3-2.8-0.3-4.1 0-2.8 0.7-5.2 2.3-6.8 4.7-0.6 0.8-1.1 1.8-1.3 2.9-0.2 1.1-0.2 2.2 0 3.2l34.6-0.1c0.4-1.1 0.5-2.2 0.4-3.4-0.1-1.1-0.5-2.2-1.1-3.2z"/>
	<path id="Layer" class="s4" d="m185.5 128q0.1-0.8 0-1.7c-0.1-1.5-0.8-3-2-4-0.8-0.7-1.8-1.1-2.8-1.2-1.2-0.1-2.4 0.1-3.5 0.5-1.2 0.4-2.4 1.2-3.7 1.7q-1.1 0.5-2.3 0.4-1.1 0-2.2-0.6c-1.4-0.6-2.6-1.5-3.8-2.2-1.2-0.6-2.5-0.9-3.8-0.8-1.2 0-2.4 0.4-3.4 1q-1.4 0.8-2.4 2.1c-0.9 1.2-1.5 2.6-1.8 4.1-0.2 1.1-0.2 1.7-0.3 1.7q0-0.2 0-0.4 0-0.7 0.1-1.3c0.2-1.6 0.8-3.1 1.8-4.4q1-1.3 2.4-2.2c1.1-0.7 2.3-1.1 3.6-1.1 1.4-0.1 2.8 0.2 4.1 0.8 1.3 0.7 2.4 1.6 3.8 2.2q0.9 0.5 2 0.6 1 0 2-0.4c1.3-0.5 2.4-1.3 3.7-1.7 1.2-0.4 2.5-0.6 3.7-0.5 1.2 0.2 2.2 0.6 3 1.4 1.2 1.1 1.9 2.7 2 4.3q0 0.6-0.1 1.3c0 0.2-0.1 0.4-0.1 0.4z"/>
	<path id="Layer" class="s4" d="m183.9 128.4q0-0.8 0-1.5-0.1-1-0.6-1.9-0.5-0.9-1.3-1.5c-0.8-0.5-1.7-0.7-2.6-0.6q-1.5 0.4-2.8 1.3-1.6 1-3.3 1.6c-1.3 0.3-2.7 0.2-3.9-0.4-2.5-1-4.5-2.6-6.7-3.1-1-0.2-2-0.1-2.9 0.2-1 0.3-1.8 0.8-2.5 1.5-0.9 1-1.6 2.2-1.9 3.5-0.2 0.9-0.2 1.5-0.2 1.5-0.1 0 0-0.2 0-0.4q0-0.6 0.1-1.1c0.2-1.4 0.8-2.7 1.8-3.8 0.6-0.7 1.5-1.2 2.4-1.6 1-0.4 2.2-0.5 3.3-0.3 2.4 0.5 4.4 2.2 6.8 3.1 1.1 0.5 2.4 0.7 3.6 0.4q1.7-0.6 3.1-1.6c1-0.6 2-1 3.1-1.2 1-0.2 2 0.1 2.8 0.7 0.7 0.5 1.2 1.1 1.5 1.9q0.4 0.8 0.4 1.7 0 0.6-0.1 1.2 0 0.2-0.1 0.4z"/>
	<path id="Layer" class="s4" d="m181.7 128.4q0-0.6-0.2-1.2c-0.2-0.4-0.6-0.8-1-1-0.5-0.3-1-0.3-1.5-0.2q-1.1 0.2-2 0.9-1.1 0.7-2.3 1.2c-2 0.5-4.2 0.2-6-0.8q-2.6-1.4-5.4-2.3-1.1-0.4-2.3-0.2-1.2 0.1-2.2 0.7c-0.8 0.6-1.5 1.5-1.8 2.5-0.2 0.8-0.2 1.2-0.2 1.2q-0.1-0.2-0.1-0.3 0-0.5 0.1-0.9c0.3-1.1 0.9-2.1 1.8-2.8q1.1-0.7 2.4-0.9 1.2-0.2 2.4 0.2 2.9 0.9 5.5 2.3c1.7 1 3.7 1.2 5.6 0.8q1.2-0.4 2.3-1.1 1-0.6 2.1-0.9c0.7-0.1 1.4 0 1.9 0.4q0.7 0.4 1 1.1 0.1 0.5 0.1 0.9 0 0.2-0.2 0.4z"/>
	<path id="Layer" class="s6" d="m151.3 127.3c0 0.8 6.4 33.4 6.4 33.4l24.8-0.4 6-33.4z"/>
	<path id="Layer" class="s4" d="m151.3 127.3q0.4-0.1 0.7 0l2.1-0.1 7.8-0.1 26.6-0.4h0.4l-0.2 0.4-3.8 7.7q-1.7 3.2-3.2 6.4l-0.1 0.1h-0.2l-23.1-0.1h-0.2v-0.1c-2.1-4.2-3.8-7.7-5-10.2l-1.3-2.7-0.3-0.7q-0.1-0.1-0.1-0.2l0.1 0.2 0.4 0.8 1.4 2.7c1.3 2.4 3 5.8 5.2 9.9l-0.2-0.1h23.2l-0.2 0.1 3.2-6.4 3.8-7.6 0.3 0.3-26.5 0.1h-10z"/>
	<g id="Layer" style="opacity: .3">
		<path id="Layer" class="s7" d="m158.9 141l0.6 1.3h22.6l5.8-14.2-6.5 12.9z"/>
	</g>
	<path id="Layer" class="s1" d="m175 154.7q-2.2 0.4-4.4 0.3-2.2 0.1-4.4-0.3 2.2-0.4 4.4-0.3 2.2-0.1 4.4 0.3z"/>
	<path id="Layer" class="s1" d="m173.4 149.5c0 0 0-0.2-0.2-0.7-0.2-0.5-0.5-1.1-1-1.4q-0.6-0.4-1.3-0.5-0.6-0.1-1.3 0.1-0.5 0.2-0.9 0.7-0.4 0.4-0.6 0.9-0.2 0.5-0.2 1.1 0.1 0.6 0.3 1.1 0.3 0.5 0.8 0.9 0.4 0.3 1 0.4 0.6 0.1 1.1 0 0.6-0.1 1.1-0.4c0.5-0.4 0.8-0.9 1-1.5 0.2-0.4 0.2-0.7 0.2-0.7q0.1 0.4 0 0.7c-0.1 0.7-0.5 1.3-1 1.8q-0.6 0.4-1.4 0.6-0.8 0.1-1.5-0.2c-0.6-0.2-1.1-0.6-1.5-1.1-0.4-0.5-0.6-1.1-0.6-1.8 0-0.6 0.2-1.2 0.6-1.8 0.4-0.5 0.9-0.9 1.5-1.1q0.7-0.3 1.5-0.1 0.8 0.1 1.4 0.6c0.5 0.4 0.9 1 1 1.7q0.1 0.4 0 0.7z"/>
	<path id="Layer" class="s4" d="m159 115.7q0.2-0.1 0.4-0.2 0.1-0.2 0.2-0.4 0.2-0.5 0-1-0.3-0.7-0.8-1.3c-0.7-0.8-1.1-1.9-1-3.1 0.1-1.1 0.7-2.1 1.5-2.9 0.6-0.5 1.3-1 1.4-1.8q0-0.6-0.3-1.1-0.3-0.5-0.7-0.9-0.9-0.8-1.5-1.9-0.4-0.9-0.4-2-0.1-1 0.3-2c0.3-0.8 0.9-1.6 1.7-2.1q0.4-0.3 0.9-0.4c0 0-0.3 0.2-0.8 0.6-0.6 0.5-1.2 1.2-1.5 2q-0.3 0.9-0.2 1.9 0 1 0.5 1.8 0.5 1 1.4 1.8 0.4 0.4 0.8 1c0.2 0.4 0.3 0.9 0.3 1.4q-0.1 0.7-0.6 1.2-0.5 0.5-1 0.9c-0.7 0.7-1.2 1.6-1.3 2.6-0.1 1 0.1 2 0.7 2.8q0.5 0.6 0.8 1.3c0.2 0.4 0.2 0.8 0 1.2q-0.1 0.4-0.5 0.6c-0.2 0-0.3 0-0.3 0z"/>
	<path id="Layer" class="s4" d="m162.8 115.7q0.2-0.1 0.4-0.2 0.2-0.2 0.2-0.4 0.2-0.5 0-1-0.3-0.7-0.8-1.3c-0.7-0.8-1-1.9-0.9-3.1 0.1-1.1 0.6-2.1 1.5-2.9 0.6-0.5 1.2-1 1.3-1.8q0-0.6-0.3-1.1-0.2-0.5-0.7-0.9-0.9-0.8-1.4-1.9-0.5-0.9-0.5-2-0.1-1 0.3-2c0.4-0.8 1-1.6 1.7-2.1q0.4-0.3 0.9-0.4c0 0-0.3 0.2-0.7 0.6-0.7 0.5-1.2 1.2-1.5 2q-0.3 0.9-0.3 1.9 0.1 1 0.5 1.8 0.6 1 1.4 1.8 0.4 0.4 0.8 1c0.2 0.4 0.3 0.9 0.3 1.4-0.1 0.4-0.3 0.9-0.6 1.2-0.3 0.4-0.6 0.6-0.9 0.9-0.6 0.5-1 1.1-1.2 1.8q-0.3 0.9-0.2 1.9 0.2 0.9 0.8 1.7 0.5 0.6 0.8 1.3c0.1 0.4 0.1 0.8 0 1.2q-0.2 0.4-0.6 0.6c-0.2 0-0.3 0-0.3 0z"/>
	<path id="Layer" class="s4" d="m48 413.8l-6.9 45.3h7.9l13.5-45.3z"/>
	<path id="Layer" class="s4" d="m220.8 413.8l7 45.3h-8l-13.4-45.3z"/>
	<path id="Layer" class="s5" d="m11.9 293.8c-0.6 20.4-5.9 110.5 12.6 127.6h22.9c6 0 5.7-2.8 5.4-8.8l-4.3-116.8c-0.1-2.3-0.9-4.5-2.3-6.2-3-3.7-9.1-9.5-17.4-8.9-4.4 0.2-8.8 1.6-12.5 4.1-1.4 1.1-2.5 2.4-3.3 4-0.8 1.5-1.2 3.3-1.1 5z"/>
	<path id="Layer" class="s5" d="m219.8 422.8l-172.4-1.4v-53.2h172.4z"/>
	<path id="Layer" class="s5" d="m219.1 368.2l-172.7 1.4v-31.9l173.4-3.3z"/>
	<path id="Layer" class="s5" d="m15.1 287.8c0 0 1.3-44.3 50.1-46.6 48.8-2.3 121.2 0 121.2 0 0 0 61.3-2.3 62.7 36.3l-12.1 74h-189.3z"/>
	<path id="Layer" class="s5" d="m256.4 298.5c-1.3 30.6-4.1 120.2-25.4 124.3h-15.8l4.9-131c0 0 7.3-12.8 19.5-12h0.4c4.6 0.4 8.9 2.6 12 6 3 3.5 4.6 8.1 4.4 12.7z"/>
	<path id="Layer" class="s4" d="m247.7 281.7l-0.6-0.1-1.6-0.5-1.2-0.3-1.5-0.2c-0.6-0.1-1.2-0.2-1.8-0.3h-2c-3.4 0-6.8 0.9-9.8 2.5l-0.7 0.3-0.6 0.4-1.3 0.8q-1.4 1-2.6 2-2.6 2.4-4.6 5.4v-0.1c-0.6 13.5-1.4 30.6-2.3 49.1-1 22.6-1.7 43-2.1 57.8-0.2 7.4-0.3 13.4-0.5 17.6 0 2 0 3.6-0.1 4.7q0 0.8 0 1.3c-0.1 0.3 0 0.4 0 0.4q0 0 0-0.4c0-0.3 0-0.7 0-1.3q0-1.7 0-4.7c0-4.2 0.1-10.2 0.3-17.6 0.3-14.8 1-35.2 2-57.8 0.8-18.5 1.7-35.6 2.4-49.2q-0.1 0 0 0 1.9-3 4.7-5.4 1.2-1.1 2.5-2.1l1.4-0.8 0.6-0.4 0.7-0.3c3.1-1.6 6.5-2.4 10-2.4h2c0.6 0.1 1.2 0.2 1.7 0.3l1.5 0.3 1.2 0.3 1.7 0.5z"/>
	<path id="Layer" class="s4" d="m47.7 369.5h0.8 2.6 9.7l35.7 0.1c30.1 0.1 71.8 0.4 117.8-0.3h1.9l-0.3 0.3q0.3-8.2 0.5-16.2 0.1-4 0.3-7.9l0.1-3.9c0-0.7 0-1.3 0-1.9q-0.1-1-0.5-1.8-0.5-0.8-1.2-1.4-0.8-0.6-1.7-0.8-1-0.1-2-0.1h-2-7.8l-15.1 0.1-52.4 0.6c-14.9 0.1-26.9 0.2-35.2 0.2h-9.6-2.5q-0.8 0-0.8 0h0.8 2.5l9.6-0.1 35.2-0.3 52.4-0.7 15.1-0.1h7.8 2q1-0.1 2 0.1 1.1 0.2 1.9 0.9 0.9 0.6 1.4 1.5 0.5 0.9 0.5 1.9c0 0.7 0 1.4 0 2 0 1.3 0 2.6-0.1 4q-0.1 3.9-0.2 7.9-0.3 8-0.5 16.1 0 0.1-0.1 0.2-0.1 0.1-0.2 0.1h-1.9c-46 0.6-87.6 0.3-117.8 0.1l-35.7-0.3h-9.7-2.5z"/>
	<g id="Layer" style="opacity: .2">
		<path id="Layer" class="s7" d="m46.4 369.6c39.6 8.6 58.4 7.9 95.2 8.6 33 0.5 69.3-5.4 74.6-9z"/>
	</g>
	<path id="Layer" class="s4" d="m47.4 421.4q0-0.2 0-0.4 0-0.5 0-1.3 0-1.7 0-5c0-4.4 0.1-10.6 0.2-18.3 0.2-15.5 0.4-36.9 0.7-60.5 0.2-11.8 0.3-23.1 0.5-33.3 0-2.5-0.3-4.9-1-7.3-0.8-2.2-1.8-4.3-3.2-6.2-1.4-1.7-2.9-3.2-4.7-4.5q-2.5-1.7-5.3-2.6c-3.4-1-6.9-1.2-10.3-0.4-2.5 0.5-5 1.6-7.1 3.1q-2 1.4-3.5 3.4c-0.7 1-1 1.5-1 1.5q0-0.2 0.2-0.4 0.3-0.6 0.7-1.1c0.9-1.4 2.1-2.6 3.5-3.6 2.1-1.5 4.6-2.6 7.2-3.2 3.4-0.8 7-0.7 10.4 0.3q2.9 1 5.5 2.7c1.8 1.3 3.4 2.8 4.8 4.6 2.9 3.9 4.4 8.8 4.2 13.7-0.1 10.3-0.3 21.5-0.4 33.3-0.3 23.6-0.7 45-0.9 60.5-0.1 7.7-0.2 14-0.3 18.3 0 2.2-0.1 3.8-0.1 5q0 0.9 0 1.3 0 0.2-0.1 0.4z"/>
	<path id="Layer" class="s6" d="m144.4 327.7c0.4-21 2.4-41.9 6.1-62.5 0.6-3.2 1.3-6.6 3.7-8.6 2.1-1.8 5-2.2 7.8-2.4 19.6-1.6 39.6 7.1 57.5 16.6 1.9 1.1 3.5 2.7 4.5 4.7 1 2 1.3 4.2 0.9 6.4-3 17.1-9 30-17.8 46.3-20.1 8.2-42.1 10.1-63.3 5.6"/>
	<path id="Layer" class="s4" d="m109.2 173.2c-1.3-8.8-1.2-8.5-2.3-17-2.1-16.3-7.3-34.9-30.6-33.5 0 0-17.6 1-23 13.5-2.9 6.8-3.6 30.3-4.6 51.4q0 0.5-0.2 1l-1.1 3.2c-1.5 4.2-2.3 8.5-2.5 13l-1.5 29.3c0 0.9 0.3 1.9 0.9 2.6 0.7 0.7 1.6 1.1 2.6 1.2 7.8 0.4 25.8-0.6 29.3-1.9 7.1-2.6 13.5-6.7 18.9-12 5.4-5.3 9.5-11.7 12.2-18.8 0.4-1 5.5-1.4 6.4-1.8 1.6-0.6-4.3-28.5-4.5-30.2z"/>
	<path id="Layer" class="s9" d="m71.8 130.2l1.5-1.3 15.7 6.5c1.1 0.1 2.1 0.6 2.9 1.4 0.8 0.8 1.2 1.8 1.2 3l-0.9 51.3c0 3.5 1 7.6-1.1 10.3l-2.6 3.6c-5.1 6.6-17 4.2-20.9-3.2q-0.4-0.6-0.5-1.3-0.2-0.6-0.2-1.2c-0.5-4.1-0.4-7.7-0.4-7.7-0.3-4.5-0.3-6.4-0.3-6.4 0 0.1-9.7-1.2-12.1-13.7-1.2-6.2-0.9-14.7-0.4-23 0.7-11.5 8.8-18.4 18.1-18.3z"/>
	<path id="Layer" class="s4" d="m74.3 156.9c0 0.4 0.1 0.8 0.4 1.1 0.3 0.3 0.8 0.4 1.2 0.4q0.3 0.1 0.6-0.1 0.3-0.1 0.5-0.3 0.2-0.2 0.3-0.5 0.2-0.3 0.2-0.6c0-0.4-0.2-0.8-0.5-1.1-0.3-0.3-0.7-0.4-1.1-0.4q-0.4 0-0.6 0.1-0.3 0.1-0.6 0.3-0.2 0.2-0.3 0.5-0.1 0.3-0.1 0.6z"/>
	<path id="Layer" class="s4" d="m58.1 157c0.1 0.4 0.2 0.8 0.5 1.1 0.3 0.3 0.7 0.5 1.1 0.5q0.4 0 0.6-0.1 0.3-0.1 0.6-0.4 0.2-0.2 0.3-0.4 0.1-0.3 0.1-0.6c0-0.5-0.1-0.9-0.4-1.2-0.3-0.2-0.7-0.4-1.2-0.4q-0.3 0-0.6 0.1-0.3 0.1-0.5 0.3-0.2 0.2-0.3 0.5-0.2 0.3-0.2 0.6z"/>
	<path id="Layer" class="s4" d="m55.3 151.8c0.2 0.2 1.4-0.7 3.1-0.8 1.8 0 3 0.8 3.2 0.6 0.2-0.3-0.1-0.5-0.7-0.9-0.7-0.5-1.6-0.7-2.5-0.7-0.9 0.1-1.8 0.4-2.5 0.9-0.5 0.4-0.7 0.8-0.6 0.9z"/>
	<path id="Layer" class="s4" d="m72.8 152.3c0.3 0.1 1.3-0.9 3-1.2 1.7-0.2 3.1 0.5 3.3 0.2 0.1-0.2-0.2-0.4-0.8-0.7-0.8-0.4-1.7-0.6-2.6-0.5-0.9 0.2-1.8 0.6-2.4 1.2-0.5 0.5-0.6 0.9-0.5 1z"/>
	<path id="Layer" class="s4" d="m66.6 164.7q-1.4-0.4-2.8-0.4c-0.4 0-0.9-0.1-1-0.4 0-0.4 0-0.9 0.3-1.3q0.5-1.6 1.1-3.4c1.7-4.8 2.8-8.8 2.7-8.9-0.2 0-1.7 3.8-3.4 8.7l-1.1 3.4c-0.3 0.5-0.3 1.2-0.2 1.7q0.1 0.3 0.3 0.4 0.2 0.2 0.5 0.2 0.4 0.1 0.7 0.1 1.5 0.2 2.9-0.1z"/>
	<path id="Layer" class="s10" d="m66.2 185.2c5.9-0.1 11.6-1.9 16.6-5.1 0 0-3.9 8.8-16.5 8.1z"/>
	<path id="Layer" class="s10" d="m67.5 168.9q0.5-0.7 1.2-1 0.8-0.4 1.6-0.3 0.5 0 1.1 0.3 0.5 0.3 0.9 0.7 0.3 0.4 0.4 1 0 0.6-0.2 1.1-0.4 0.4-1.1 0.6-0.6 0.2-1.2 0-1.2-0.4-2.2-1.2-0.3-0.2-0.5-0.5-0.1-0.2-0.1-0.4 0-0.1 0.1-0.3"/>
	<path id="Layer" class="s4" d="m71.7 165.7c-0.2 0-0.2 1.9-1.7 3.3-1.6 1.4-3.6 1.2-3.6 1.5 0 0.1 0.5 0.4 1.3 0.4 1.1-0.1 2.2-0.5 3-1.2 0.8-0.7 1.3-1.7 1.4-2.7 0-0.8-0.2-1.3-0.4-1.3z"/>
	<path id="Layer" class="s4" d="m71.3 143.9c0.2 0.4 1.9 0 3.9-0.1 2.1 0 3.8 0.3 4-0.2 0.1-0.2-0.2-0.6-1-1-0.9-0.4-2-0.6-3-0.6-1 0.1-2.1 0.3-3 0.8-0.7 0.4-1 0.8-0.9 1.1z"/>
	<path id="Layer" class="s4" d="m55.7 144.4c0.3 0.4 1.5-0.1 2.9-0.1 1.4-0.1 2.6 0.1 2.9-0.3 0.1-0.2-0.1-0.6-0.6-0.9-0.7-0.4-1.6-0.6-2.4-0.6-0.9 0.1-1.7 0.4-2.3 0.9-0.5 0.4-0.7 0.8-0.5 1z"/>
	<path id="Layer" class="s4" d="m92.4 161.7c0 0-8.8 2.6-13.5-19.3-1.6-7.5-8.5-13.6-8.5-13.6l2.8-0.8c0 0 17.4 5.2 17.7 5.4 0.3 0.2 4.3 9.1 4.3 9.1z"/>
	<path id="Layer" class="s9" d="m90.3 160.8c0-0.9 1-3.1 1.9-3.3 2.4-0.5 6.8-0.4 7.1 5.8 0.4 8.5-8.3 7.1-8.3 6.9 0-0.3-0.6-6.2-0.7-9.4z"/>
	<path id="Layer" class="s10" d="m93.5 166.8c0 0 0.1 0.1 0.4 0.2 0.3 0.2 0.7 0.2 1.1 0 0.9-0.3 1.6-1.8 1.5-3.3q0-1.1-0.5-2.1-0.1-0.4-0.4-0.7-0.3-0.3-0.7-0.4-0.3-0.1-0.5 0-0.3 0.2-0.4 0.4c-0.1 0.3 0 0.4-0.1 0.4-0.1 0.1-0.2-0.1-0.1-0.5q0.1-0.3 0.3-0.5 0.4-0.3 0.8-0.3 0.5 0.1 1 0.5 0.4 0.3 0.6 0.8c0.4 0.7 0.6 1.5 0.6 2.4 0 1.7-0.8 3.3-2 3.7q-0.3 0.1-0.7 0.1-0.3 0-0.6-0.2c-0.3-0.3-0.4-0.4-0.3-0.5z"/>
	<path id="Layer" class="s4" d="m86.5 157.4q-0.6-0.1-1.3-0.3c-1.1-0.3-2.1-0.9-3-1.8q-0.9-0.8-1.5-1.8-0.8-1.2-1.3-2.5-1-3.1-1.7-6.3c-0.6-2.2-1.2-4.3-1.9-6.2q-0.9-2.5-2.2-4.8-0.8-1.6-1.9-3-0.4-0.5-0.6-0.8-0.1-0.1-0.2-0.2 0.1 0.1 0.2 0.2c0.1 0.2 0.3 0.5 0.6 0.8q1 1.5 1.8 3 1.2 2.4 2.1 4.9c0.7 1.8 1.3 4 1.9 6.2q0.6 3.2 1.7 6.2 0.5 1.3 1.3 2.6 0.7 1 1.6 1.8c0.9 0.9 2 1.5 3.1 1.8q0.6 0.2 1.3 0.2z"/>
	<path id="Layer" class="s6" d="m112.2 203.3l-19-7.2-27-5.8-21.8 2.8c-4.6 0.1-12.5 9.8-18.6 20.1-5.4 9.3-9.7 18.6-9.7 18.6l25.3 9.5c1.5 10.7 3.6 25 5.4 30.6 3.1 9.6 4.1 22.7 4.1 22.7l60.1-7.8 0.8-41.3 19.8-2.6c0-1.4-7.6-35.9-19.4-39.6z"/>
	<path id="Layer" class="s4" d="m110.6 219.9q0 0.5 0.1 1c0.1 0.6 0.3 1.6 0.4 2.8q0.6 4.6 0.6 9.3 0 4.7-0.6 9.3c-0.1 1.2-0.3 2.1-0.4 2.8q-0.1 0.5-0.1 1 0.2-0.5 0.3-1 0.2-1 0.5-2.8c1-6.2 1-12.5 0-18.7-0.2-1.2-0.4-2.1-0.5-2.8q-0.1-0.5-0.3-0.9z"/>
	<path id="Layer" class="s9" d="m130.9 243.5l-19.6 2.1 0.3 5.4-4.3-6.3-6.6 13.6c0 0 2.7 8 4.1 12.4 3.8 11.7 9.9 24.8 17 24 8.6-1 14.6-11.3 14.3-17.9-0.2-5.9-5.2-33.3-5.2-33.3z"/>
	<path id="Layer" class="s9" d="m140 321.4l33.9 13.3-12.9 15.5-28.8-5z"/>
	<path id="Layer" class="s4" d="m51 293.9c0 0-0.9 38.7 2.7 45.4 3.5 6.7 37.7 7 37.7 7l54 2.7 6.3-25.2c0 0-39.3-18.3-43-20.4-3.7-2.1-12.5-5.8-12.5-5.8l-13.2-17z"/>
	<path id="Layer" class="s5" d="m113.4 346.7q-0.2-0.1-0.5-0.2l-1.2-0.3-4.6-1.3-15.5-4.1h-0.1q-1.3 0-2.6-0.2-2.5-0.3-4.9-1.1-2.2-0.8-4.2-2c-3.9-2.3-7-5.7-9-9.6-0.3-0.6-0.5-1-0.7-1.4q-0.1-0.2-0.2-0.4 0.1 0.2 0.2 0.5c0.1 0.3 0.2 0.8 0.5 1.3q1.2 2.5 2.9 4.6c1.7 2.1 3.8 3.9 6.1 5.3q2 1.2 4.3 2.1 1.2 0.4 2.4 0.7 1.3 0.3 2.6 0.4 1.3 0.2 2.6 0.2l15.6 4 4.6 1.1 1.3 0.3q0.2 0.1 0.4 0.1z"/>
	<path id="Layer" class="s4" d="m111.8 305.7l9.2-56.3c0 0-1.2-40.5 21.5-37.5 22.7 2.9 20 38.5 20 38.5 0 0-3 48.8-4.6 55.9-1.6 7-2.4 14.8-7 17.7l-20.7-3.2z"/>
	<path id="Layer" class="s4" d="m129.5 222.1l-5.5 13.3 3.4 50.7c0 0 29.3 2.5 29 1.8-0.3-0.8 5.3-25.3 5.3-25.3 0 0 1.8-32.5-6.9-38.7-8.7-6.2-25.3-1.8-25.3-1.8z"/>
	<path id="Layer" class="s9" d="m128.6 286.2l0.4 24.3 20.4 11.2 5.6-33.7z"/>
	<path id="Layer" class="s4" d="m83 280.6l22.3-9.2 13.4 12-7.4 23.8-19.6-7.3z"/>
	<path id="Layer" class="s5" d="m150.4 323.7l-0.2-0.1-0.9-0.4-3.1-1.6-11.7-5.6-17.3-8.2-10.2-4.9-5.4-2.5-2.8-1.3-1.4-0.7q-0.7-0.3-1.4-0.6c-2-0.7-4-1.1-6.1-1.2q-3-0.2-6 0.3c-3.7 0.7-7.3 2.2-10.5 4.2-3 1.8-5.6 4.1-7.8 6.7q-2.9 3.5-5.1 7.4-3.1 5.6-5.1 11.8-0.7 2.2-1 3.4l-0.3 0.9q0 0.1 0 0.3c0 0 0-0.1 0.1-0.3l0.3-0.9q0.3-1.2 1.1-3.3 2.1-6.2 5.2-11.8 2.2-3.9 5.1-7.3c2.2-2.6 4.8-4.8 7.7-6.6 3.2-2 6.7-3.4 10.4-4.1q2.9-0.5 5.9-0.3c2 0.1 4.1 0.5 6 1.2q0.7 0.2 1.4 0.6l1.4 0.6 2.8 1.3 5.4 2.6 10.2 4.8 17.4 8.2 11.7 5.4 3.2 1.5 0.8 0.4q0.1 0.1 0.2 0.1z"/>
	<path id="Layer" class="s5" d="m107.9 304q-0.1-1.8 0.2-3.7c0.6-2.9 1.7-5.7 3.2-8.2q2.3-3.9 3.9-8.2 0.4-1.3 0.6-2.6 0.1-0.5 0.1-1c-0.1 0-0.3 1.4-1 3.6q-1.7 4.1-4 8c-1.5 2.6-2.5 5.4-3.1 8.4q-0.2 1.3-0.1 2.7 0 0.5 0.2 1z"/>
	<path id="Layer" class="s5" d="m161.7 262.6l-0.1 0.2c0 0.2-0.1 0.5-0.2 0.8q-0.2 1.1-0.7 3c-0.6 2.6-1.4 6.4-2.5 11.1q-0.7 3.5-1.5 7.7c-0.2 0.6-0.3 1.3-0.4 2.1q0 0.1 0 0.3v0.1q0 0.1 0-0.1v-0.1q0 0-0.1 0-0.2 0.1-0.5 0.1h-1.1c-1.5 0-3-0.1-4.6-0.2-6.3-0.4-13.2-0.9-20.5-1.5l-2-0.2 0.2 0.2c-1-14.1-1.9-26.8-2.5-36-0.3-4.6-0.6-8.3-0.8-10.8q-0.2-1.9-0.2-3c0-0.3-0.1-0.5-0.1-0.7q0-0.1 0-0.3 0 0.2 0 0.3 0 0.3 0 0.7c0 0.7 0.1 1.7 0.1 3 0.2 2.6 0.4 6.2 0.7 10.8 0.6 9.2 1.4 21.9 2.4 36v0.2h0.1l2 0.2c7.3 0.6 14.3 1.1 20.6 1.5q2.4 0.1 4.6 0.2h1.1q0.3 0 0.6-0.1 0.1 0 0.2-0.1 0.1 0 0.1-0.1 0 0 0-0.1c-0.1 0 0-0.1 0 0q0-0.1 0-0.2c0.1-0.7 0.2-1.4 0.3-2.1q0.8-4.2 1.6-7.7c1-4.7 1.8-8.4 2.4-11.1l0.6-3q0.1-0.5 0.1-0.8 0.1-0.1 0.1-0.3z"/>
	<path id="Layer" class="s5" d="m134.7 218.3q-0.3 0.2-0.6 0.5c-0.4 0.4-1 1-1.6 1.7-3.4 4-5.8 8.6-7.1 13.7q-0.4 1.5-0.5 2.3-0.1 0.4-0.1 0.8c0.1 0 0.3-1.2 0.9-3.1 1.4-4.9 3.8-9.5 7-13.5 1.2-1.5 2.1-2.4 2-2.4z"/>
	<path id="Layer" class="s5" d="m101.3 297.6q0-0.5-0.2-0.9c-0.1-0.5-0.3-1.2-0.6-2.1q-1.1-3.5-2.8-6.8-1.7-3.3-3.9-6.3c-0.5-0.8-1-1.4-1.3-1.8q-0.3-0.3-0.6-0.5c0 0 0.6 1 1.7 2.5q2.1 3 3.7 6.3 1.7 3.2 2.9 6.7c0.7 1.7 1 2.9 1.1 2.8z"/>
	<path id="Layer" class="s5" d="m64.5 294.6c-0.1 0-0.3 0.9-1 2.2q-1.2 2.6-3 4.9-1.7 2.3-4 4.1c-1.1 1-1.9 1.5-1.9 1.5 0.1 0.1 0.3 0 0.6-0.2q0.8-0.5 1.5-1 2.4-1.8 4.2-4.1 1.8-2.3 2.9-5.1 0.4-0.8 0.6-1.6 0.1-0.3 0.1-0.7z"/>
	<path id="Layer" class="s11" d="m173.4 350.6c12.6-0.6 15.8-0.2 28.4-0.9 3.1-0.1 14.3 0.3 16.9-1.4 2.3-1.6 5.3-3 6-5.8 1-4.6-0.3-9.8-4.5-12.7-1.5-1-3.3-1.6-5-1.7-7.5-0.6-14.3 4.8-21.8 3.2-2-0.4-3.8-1.5-5.8-2-3-0.6-6-0.1-8.7 1.4-2.7 1.4-3.3 1.6-3.3 1.6l-13.3-4.5-4.1 23.2z"/>
	<path id="Layer" class="s11" d="m162.1 322.3l7 2.3c0.6 0.2 1 0.5 1.3 1 0.2 0.5 0.3 1 0.2 1.6l-5.4 24.8c-0.1 0.5-0.4 1-0.9 1.3-0.4 0.3-1 0.5-1.5 0.4l-7.1-0.8q-0.4 0-0.9-0.3-0.3-0.2-0.6-0.6-0.3-0.3-0.4-0.8-0.1-0.4 0-0.9l5.5-26.3q0.1-0.5 0.4-0.8 0.3-0.4 0.7-0.7 0.4-0.2 0.8-0.3 0.5 0 0.9 0.1z"/>
	<path id="Layer" class="s4" d="m165 353q0.8-1.8 1.3-3.7c0.7-2.4 1.6-5.6 2.4-9.2 0.8-3.7 1.3-7 1.6-9.4 0.1-1.2 0.3-2.2 0.3-2.9q0.1-0.5 0-1.1-0.5 2-0.7 3.9c-0.4 2.4-1 5.7-1.8 9.3-0.8 3.6-1.6 6.9-2.2 9.3q-0.6 1.9-0.9 3.8z"/>
	<path id="Layer" class="s4" d="m169.4 330.3c-1.5-1.2-3.3-2-5.3-2.3-1.9-0.3-3.9-0.1-5.7 0.6 0 0.2 2.5-0.6 5.6 0 3.1 0.5 5.3 1.9 5.4 1.7z"/>
	<path id="Layer" class="s4" d="m168.6 339.7q-2.9-1.3-5.9-1.8-3-0.9-6.1-1 2.9 1 6 1.6c3.3 0.7 5.9 1.4 6 1.2z"/>
	<path id="Layer" class="s4" d="m165.4 349.4c0-0.1-2.7 0.2-5.7-1.1-3-1.3-4.7-3.4-4.8-3.2-0.2 0.1 0.2 0.6 1 1.4 1 1 2.2 1.8 3.5 2.4 1.3 0.5 2.8 0.8 4.2 0.8q0.9 0.1 1.8-0.3z"/>
	<path id="Layer" class="s11" d="m128.1 302.7l0.5 10.5 20.9 10 3.5-17.5z"/>
	<path id="Layer" class="s11" d="m156.4 299.6l-1.5 7.3c-0.1 0.5-0.4 1-0.9 1.3-0.4 0.4-1 0.5-1.5 0.4l-25.8-2.8c-0.5 0-1.1-0.3-1.4-0.7-0.4-0.4-0.6-1-0.6-1.5v-7.3q0-0.5 0.2-0.9 0.2-0.4 0.5-0.7 0.4-0.3 0.8-0.5 0.5-0.1 1-0.1l27.2 2.8q0.5 0 0.9 0.3 0.5 0.2 0.8 0.6 0.2 0.4 0.3 0.8 0.2 0.5 0 1z"/>
	<path id="Layer" class="s4" d="m125.7 305.8q1.9 0.6 3.9 0.9c2.5 0.4 5.8 1 9.6 1.4 3.8 0.5 7.2 0.6 9.7 0.7q1.9 0 2.9 0 0.6 0 1.1-0.1-2-0.3-4-0.3c-2.5-0.2-5.9-0.4-9.6-0.9-3.8-0.4-7.2-0.9-9.6-1.2q-2-0.4-4-0.6z"/>
	<path id="Layer" class="s4" d="m149.1 307.8c1.2-1.6 1.9-3.6 1.9-5.6 0.2-3.4-1.1-5.9-1.3-5.8-0.1 0.1 0.9 2.6 0.7 5.7-0.2 3.2-1.4 5.6-1.3 5.7z"/>
	<path id="Layer" class="s4" d="m139.5 307.9q1-3 1.3-6.1c0.4-3.4 0.4-6.2 0.3-6.3-0.2 0-0.5 2.8-0.9 6.2-0.5 3.4-0.8 6.2-0.7 6.2z"/>
	<path id="Layer" class="s4" d="m129.3 305.8c0.2-0.1-0.4-2.8 0.6-5.9 1-3.2 2.9-5.2 2.8-5.3-0.2-0.1-0.6 0.4-1.4 1.2-1.8 2.3-2.7 5.3-2.4 8.2q0 0.9 0.4 1.7z"/>
	<path id="Layer" class="s9" d="m81.5 225.8c0 0 10.7 1.5 11.4 2.1 0.6 0.7 14.4 16.8 14.4 16.8l-6.6 13.6-12.1-6.2q-1.8-0.8-3.8-1.2c0 0-12.2-1.6-13-3-0.9-1.5-0.4-1.8 0.5-2 0.9-0.3 8.1 0.4 9.8 0.6q2.4 0.2 4.8-0.1c0 0-5.1-1-6.2-1.4-1.2-0.4-12.5-2.6-12.3-4.7 0.1-2 1.5-2.8 8.6-1 3.9 1 7.9 1.6 12 1.6l-15.7-5.1c0 0-6.3-1.9-4.3-3.7 1.9-1.8 15.5 1.6 15.5 1.6l6 2.1-1.8-3.6c0 0-8.5-2.3-9.6-3.1-1.4-1-1.6-2-0.6-2.9 1-0.8 3-0.4 3-0.4z"/>
	<path id="Layer" class="s4" d="m45 208.8q0 0.6-0.1 1.2-0.3 1.3-0.6 3.2c-0.4 2.7-1 6.5-1.6 10.7-0.6 4.2-0.9 8-1.2 10.7q-0.1 2-0.3 3.3 0 0.6-0.1 1.2-0.1-0.6 0-1.2c0-0.8 0-1.9 0.1-3.3 0.2-2.8 0.5-6.6 1-10.8 0.5-4.2 1.2-8 1.7-10.7 0.3-1.3 0.6-2.4 0.7-3.2q0.2-0.6 0.4-1.1z"/>
	<path id="Layer" class="s4" d="m115.7 209.8c0-0.3-2.7-16.7-3.9-22.5l-19.6 3c-0.3 2.4-0.4 10.9-0.3 13.8 0 2.8 0.9 5.6 2.7 7.9 0.9 1.1 2.1 1.9 3.5 2.4 1.3 0.5 2.8 0.6 4.2 0.2 1.5 2.2 3.8 3.8 6.4 4.3 2.6 0.4 5.5-0.9 6.4-3.4 0.6-1.8 0.8-3.8 0.6-5.7z"/>
	<path id="Layer" class="s4" d="m87.2 212.1l-3.1 29.9c-0.1 0.5-0.3 0.9-0.7 1.2-0.4 0.4-0.9 0.5-1.3 0.5l-18.6-1.5c-0.5 0-0.9-0.3-1.2-0.6-0.4-0.4-0.5-0.9-0.5-1.4l2.2-31.5q0-0.4 0.2-0.7 0.2-0.4 0.5-0.6 0.3-0.3 0.7-0.4 0.4-0.1 0.8 0l19.4 3c0.5 0.1 0.9 0.3 1.2 0.7 0.3 0.4 0.4 0.9 0.4 1.4z"/>
	<path id="Layer" class="s9" d="m71.5 222c0 0-10.7-0.3-11.5 0.3-0.8 0.5-17 14.2-17 14.2l4.2 14.5c0 0 11.7-3.7 13-4.2q2-0.4 4-0.5c0 0 12.3 0.4 13.3-0.9 1-1.3 0.7-1.7-0.2-2.1-0.8-0.4-8.1-0.9-9.7-0.9q-2.4-0.2-4.8-0.9c0 0 5.2-0.2 6.4-0.4 1.2-0.2 12.7-0.6 12.9-2.6 0.2-2-1-3-8.3-2.4-4 0.4-8 0.2-12-0.3l16.2-2.5c0 0 6.5-0.9 4.9-3-1.7-2.2-15.6-1-15.6-1l-6.2 1.1 2.3-3.2c0 0 8.8-0.9 10-1.6 1.5-0.8 1.9-1.7 1-2.7-0.9-1-2.9-0.9-2.9-0.9z"/>
	<path id="Layer" class="s9" d="m20.3 233.4l18 6.7-0.3 2.5 5.4-6.5 5 13c0 0-8.4 16.6-10.2 20.8-5.2 12.3-14.5 18.7-21.1 16-8-3.3-12.6-11.7-8.9-21.1 2.1-5.6 12.1-31.4 12.1-31.4z"/>
	<path id="Layer" class="s12" d="m43 236.5q0 0 0.4-0.4l1.4-1.2 5.1-4.3 8.1-6.9 1.2-1 0.7-0.5q0.4-0.2 0.8-0.2c1.1-0.1 2.3-0.2 3.4-0.2q3.6 0 7.4 0 1 0 2 0.3 0.5 0.2 0.9 0.5 0.4 0.4 0.6 0.9 0.1 0.3 0.1 0.6-0.1 0.3-0.2 0.5-0.3 0.5-0.7 0.8-0.5 0.4-1 0.5-0.6 0.2-1 0.3c-2.8 0.5-5.7 0.9-8.8 1.2l0.2-0.1-2.3 3.2-0.2-0.3 6.2-1.1c2.7-0.2 5.4-0.3 8.1-0.3q2.1 0 4.2 0.2 1.1 0.1 2.1 0.4 0.5 0.1 1 0.4 0.3 0.2 0.4 0.5 0.2 0.2 0.2 0.5 0 0.4-0.1 0.7-0.2 0.2-0.4 0.4-0.5 0.4-1 0.6-1.1 0.4-2.1 0.6c-1.5 0.3-2.9 0.5-4.4 0.7l-8.8 1.4-4.8 0.7v-0.4q5.5 0.7 11.1 0.3 2.7-0.2 5.5-0.2 1.4 0.1 2.7 0.5c0.4 0.2 0.8 0.6 1 1q0.3 0.7 0.2 1.5-0.1 0.4-0.5 0.6-0.3 0.2-0.6 0.3-0.6 0.3-1.3 0.5-1.2 0.3-2.5 0.5-2.5 0.3-5 0.5l-2.5 0.2c-0.7 0-1.6 0.2-2.4 0.2q-2.3 0.1-4.6 0.2v-0.3q2.5 0.8 5.1 0.9 2.6 0.1 5.1 0.3 1.2 0.1 2.5 0.3 0.6 0.1 1.1 0.1 0.4 0.1 0.7 0.2 0.2 0.1 0.5 0.3 0.1 0.1 0.2 0.3 0.1 0.2 0.2 0.3 0 0.4-0.2 0.7-0.1 0.2-0.3 0.5l-0.2 0.2q-0.1 0.2-0.2 0.2-1.1 0.5-2.3 0.6-4.1 0.3-8.2 0.2h-1.9q-0.9 0-1.8 0-1.7 0.1-3.3 0.6l-9.3 3-2.5 0.8-0.7 0.1-0.2 0.1 0.2-0.1 0.7-0.2 2.4-0.8 9.4-3.1c2.2-0.6 4.6-0.8 7-0.6q4.1 0.1 8.2-0.3 1.1-0.1 2.1-0.5 0.1-0.1 0.2-0.1l0.1-0.3q0.2-0.2 0.3-0.4c0.2-0.4 0.2-0.7-0.1-0.9q-0.2-0.1-0.5-0.3-0.2 0-0.5-0.1-0.6-0.1-1.2-0.2-1.2-0.1-2.4-0.2-2.5-0.2-5.1-0.3-2.7-0.1-5.2-0.9-0.1 0-0.2-0.1 0-0.1 0-0.2 0 0 0.1 0 0-0.1 0.1-0.1 2.3-0.1 4.7-0.2c0.8 0 1.6-0.2 2.4-0.3l2.4-0.2c1.7-0.1 3.3-0.2 5-0.5q1.3-0.2 2.5-0.5 0.7-0.2 1.2-0.4c0.4-0.2 0.8-0.4 0.9-0.7q0.1-0.6-0.1-1.1c-0.2-0.4-0.5-0.7-0.9-0.8q-1.2-0.4-2.5-0.5-2.8 0-5.5 0.3c-3.7 0.2-7.4 0.1-11.1-0.4q-0.1 0-0.1 0 0 0-0.1-0.1 0 0 0-0.1 0 0 0 0 0-0.1 0-0.2 0.1 0 0.2 0l4.8-0.7 8.8-1.4c1.5-0.2 2.9-0.4 4.3-0.7q1-0.2 2-0.6 0.5-0.2 0.9-0.5 0.2-0.1 0.3-0.3 0.1-0.2 0.1-0.4c0-0.6-0.7-0.9-1.4-1.1q-0.9-0.3-2-0.4-2-0.2-4.1-0.2c-2.7 0-5.4 0.1-8 0.3l-6.2 1.1q-0.1 0-0.1 0-0.1 0-0.1-0.1 0 0 0 0-0.1 0-0.1-0.1 0-0.1 0-0.1c0.8-1.1 1.6-2.2 2.4-3.2q0-0.1 0.1-0.1c3-0.3 5.9-0.7 8.7-1.2q0.5-0.1 1-0.2 0.4-0.2 0.8-0.5c0.6-0.4 1-0.9 0.8-1.5q-0.2-0.4-0.5-0.7-0.4-0.4-0.8-0.5-0.9-0.3-1.9-0.3-3.9-0.1-7.4 0c-1.1 0-2.3 0-3.4 0.1q-0.3 0-0.7 0.2l-0.6 0.5-1.2 1-8.2 6.7-5.2 4.3-1.3 1.1q-0.5 0.4-0.5 0.4z"/>
	<path id="Layer" class="s10" d="m43 236.5c0.1 0.1-5 6.5-11.4 14.4-6.3 7.8-11.6 14.1-11.8 14-0.1-0.1 5-6.5 11.4-14.3 6.4-7.9 11.7-14.2 11.8-14.1z"/>
</svg>