<svg version="1.2" xmlns="http://www.w3.org/2000/svg" viewBox="0 0 398 387" width="398" height="387">
	<title>OrderMore-svg</title>
	<style>
		.s0 { fill: #ffffff } 
		.s1 { fill: none;stroke: #ff5833;stroke-width: .7 } 
		.s2 { fill: #ff5833 } 
		.s3 { fill: #ebebeb } 
		.s4 { fill: #e0e0e0 } 
		.s5 { fill: #e6e6e6 } 
		.s6 { fill: #f0f0f0 } 
		.s7 { fill: #f5f5f5 } 
		.s8 { fill: #263238 } 
		.s9 { opacity: .6;fill: #ffffff } 
		.s10 { opacity: .2;fill: #000000 } 
		.s11 { opacity: .2;fill: #ffffff } 
		.s12 { opacity: .8;fill: #ffa579 } 
		.s13 { opacity: .2;fill: #ffa579 } 
		.s14 { opacity: .8;fill: #ffffff } 
		.s15 { opacity: .5;fill: #ffffff } 
		.s16 { opacity: .5;fill: #ffa579 } 
		.s17 { opacity: .7;fill: #ffffff } 
		.s18 { fill: #ff725e } 
		.s19 { opacity: .1;fill: #ffffff } 
		.s20 { fill: #f9b7a2 } 
		.s21 { opacity: .1;fill: #f9b7a2 } 
		.s22 { fill: #ff7e40 } 
		.s23 { fill: #ba5a3c } 
		.s24 { fill: #a24e3f } 
		.s25 { fill: #ffd8c6 } 
	</style>
	<path id="Layer" class="s0" d="m84.2 92h66c0.9 0 1.6 0.8 1.6 1.7v19.9c0 0.9-0.7 1.7-1.6 1.7h-66c-0.9 0-1.6-0.8-1.6-1.7v-19.9c0-0.9 0.7-1.7 1.6-1.7z"/>
	<path id="Layer" class="s1" d="m84.2 92h66c0.9 0 1.6 0.8 1.6 1.7v19.9c0 0.9-0.7 1.7-1.6 1.7h-66c-0.9 0-1.6-0.8-1.6-1.7v-19.9c0-0.9 0.7-1.7 1.6-1.7z"/>
	<path id="Layer" fill-rule="evenodd" class="s2" d="m95 102.6h-1.2q0-0.2-0.1-0.4-0.1-0.2-0.3-0.3-0.1-0.1-0.3-0.2-0.2 0-0.5 0-0.4 0-0.7 0.2-0.3 0.2-0.5 0.6-0.1 0.4-0.1 0.9 0 0.6 0.1 1 0.2 0.4 0.5 0.6 0.3 0.2 0.7 0.2 0.3 0 0.5 0 0.2-0.1 0.3-0.2 0.2-0.1 0.3-0.3 0.1-0.2 0.1-0.4h1.2q-0.1 0.4-0.2 0.7-0.2 0.4-0.5 0.6-0.3 0.3-0.7 0.5-0.5 0.1-1 0.1-0.7 0-1.3-0.3-0.6-0.3-0.9-1-0.3-0.6-0.3-1.5 0-0.9 0.3-1.5 0.4-0.6 0.9-0.9 0.6-0.4 1.3-0.4 0.5 0 0.9 0.2 0.4 0.1 0.7 0.4 0.3 0.2 0.5 0.6 0.2 0.3 0.3 0.8zm5.8 0.8q0 0.9-0.3 1.5-0.4 0.7-0.9 1-0.6 0.3-1.3 0.3-0.8 0-1.3-0.3-0.6-0.3-0.9-1-0.4-0.6-0.4-1.5 0-0.9 0.4-1.5 0.3-0.6 0.9-0.9 0.5-0.4 1.3-0.4 0.7 0 1.3 0.4 0.5 0.3 0.9 0.9 0.3 0.6 0.3 1.5zm-1.2 0q0-0.5-0.1-0.9-0.2-0.4-0.5-0.6-0.3-0.2-0.7-0.2-0.5 0-0.8 0.2-0.3 0.2-0.4 0.6-0.2 0.4-0.2 0.9 0 0.6 0.2 1 0.1 0.4 0.4 0.6 0.3 0.2 0.8 0.2 0.4 0 0.7-0.2 0.3-0.2 0.5-0.6 0.1-0.4 0.1-1zm2.1-2.7h1.4l1.5 3.7 1.5-3.7h1.5v5.5h-1.1v-3.6h-0.1l-1.4 3.5h-0.8l-1.4-3.5v3.6h-1.1zm6.8 5.4v-5.4h2.2q0.6 0 1 0.1 0.4 0.2 0.6 0.5 0.2 0.3 0.2 0.8 0 0.3-0.1 0.5-0.2 0.3-0.4 0.4-0.2 0.2-0.5 0.2v0.1q0.3 0 0.6 0.1 0.3 0.2 0.4 0.5 0.2 0.3 0.2 0.7 0 0.4-0.2 0.8-0.2 0.3-0.6 0.5-0.4 0.2-1.1 0.2zm1.2-0.9h0.9q0.5 0 0.7-0.2 0.3-0.2 0.3-0.5 0-0.2-0.2-0.4-0.1-0.2-0.3-0.3-0.2-0.1-0.4-0.1h-1zm0-2.2h0.8q0.3 0 0.5-0.1 0.2-0.1 0.3-0.2 0.1-0.2 0.1-0.4 0-0.3-0.2-0.5-0.2-0.2-0.6-0.2h-0.9zm8.8 0.5q0 0.9-0.3 1.5-0.4 0.6-1 1-0.5 0.3-1.3 0.3-0.7 0-1.3-0.3-0.5-0.4-0.9-1-0.3-0.6-0.3-1.5 0-0.9 0.3-1.5 0.4-0.7 0.9-1 0.6-0.3 1.3-0.3 0.8 0 1.3 0.3 0.6 0.3 1 1 0.3 0.6 0.3 1.5zm-1.2 0q0-0.6-0.1-1-0.2-0.4-0.5-0.6-0.3-0.2-0.8-0.2-0.4 0-0.7 0.2-0.3 0.2-0.5 0.6-0.1 0.4-0.1 1 0 0.6 0.1 1 0.2 0.4 0.5 0.6 0.3 0.2 0.7 0.2 0.5 0 0.8-0.2 0.3-0.2 0.5-0.6 0.1-0.4 0.1-1zm8.8 0q0 0.9-0.4 1.5-0.3 0.6-0.9 1-0.5 0.3-1.3 0.3-0.7 0-1.3-0.3-0.5-0.4-0.9-1-0.3-0.6-0.3-1.5 0-0.9 0.3-1.5 0.4-0.7 0.9-1 0.6-0.3 1.3-0.3 0.8 0 1.3 0.3 0.6 0.3 0.9 1 0.4 0.6 0.4 1.5zm-1.2 0q0-0.6-0.2-1-0.1-0.4-0.4-0.6-0.3-0.2-0.8-0.2-0.4 0-0.7 0.2-0.3 0.2-0.5 0.6-0.1 0.4-0.1 1 0 0.6 0.1 1 0.2 0.4 0.5 0.6 0.3 0.2 0.7 0.2 0.5 0 0.8-0.2 0.3-0.2 0.4-0.6 0.2-0.4 0.2-1zm2 2.7v-5.4h3.6v0.9h-2.4v1.3h2.2v1h-2.2v2.2zm4.4 0v-5.4h3.6v0.9h-2.5v1.3h2.2v1h-2.2v2.2zm4.4 0v-5.4h3.7v0.9h-2.6v1.3h2.4v1h-2.4v1.3h2.6v0.9zm4.6 0v-5.4h2.1q0.6 0 1.1 0.2 0.4 0.2 0.6 0.6 0.3 0.4 0.3 0.9 0 0.6-0.3 1-0.2 0.4-0.7 0.6 0 0 0 0l1.2 2.1h-1.3l-1.1-1.9h-0.8v1.9zm1.2-1.9v-0.9h-0.5v0.9zm0.8-0.9q0.3 0 0.5-0.1 0.2-0.1 0.3-0.3 0.2-0.2 0.2-0.5 0-0.2-0.2-0.4-0.1-0.2-0.3-0.3-0.2-0.1-0.5-0.1h-0.8v1.7z"/>
	<path id="Layer" class="s2" d="m298.5 6l-43.7 13.4 10.6 6.7 29.4 18.3 9.5 5.9z"/>
	<path id="Layer" class="s2" d="m101.3 233.4l-26.3-13.2 62.4-96.5 25.4 24.3 49.6-78.8 24.8 18.2 44.5-72.6 14.9 7-54.7 98-27.7-25.8-47.3 88.2-24.9-29.1z"/>
	<path id="Layer" class="s3" d="m450 332.4h-500v0.3h500z"/>
	<path id="Layer" class="s3" d="m399.9 348.5h-33.1v0.2h33.1z"/>
	<path id="Layer" class="s3" d="m281.2 351.2h-8.7v0.3h8.7z"/>
	<path id="Layer" class="s3" d="m365.8 339.2h-19.2v0.3h19.2z"/>
	<path id="Layer" class="s3" d="m45.7 340.9h-43.2v0.2h43.2z"/>
	<path id="Layer" class="s3" d="m60.9 340.9h-6.3v0.2h6.3z"/>
	<path id="Layer" class="s3" d="m175.2 345.1h-93.7v0.3h93.7z"/>
	<path id="Layer" fill-rule="evenodd" class="s3" d="m187 287.8h-193.1c-1.5 0-3-0.6-4-1.7-1.1-1-1.7-2.5-1.7-4v-271.4c0-1.5 0.6-3 1.7-4 1.1-1.1 2.5-1.7 4-1.7h193.1c1.5 0 3 0.6 4 1.7 1.1 1 1.7 2.5 1.7 4v271.4c0 1.5-0.6 3-1.7 4-1 1.1-2.5 1.7-4 1.7zm-193.1-282.6c-1.4 0-2.8 0.6-3.8 1.6-1.1 1-1.6 2.4-1.6 3.9v271.4c0 1.4 0.5 2.8 1.6 3.8 1 1.1 2.4 1.6 3.8 1.7h193.1c1.4-0.1 2.8-0.6 3.9-1.7 1-1 1.6-2.4 1.6-3.8v-271.4c0-1.5-0.6-2.9-1.6-3.9-1.1-1-2.5-1.6-3.9-1.6z"/>
	<path id="Layer" fill-rule="evenodd" class="s3" d="m403.3 287.8h-193.1c-1.5 0-3-0.6-4-1.7-1.1-1-1.7-2.5-1.7-4v-271.4c0-1.5 0.6-3 1.7-4 1.1-1.1 2.5-1.7 4-1.7h193.1c1.5 0 3 0.6 4 1.7 1.1 1 1.7 2.5 1.7 4v271.4c0 1.5-0.6 3-1.7 4-1 1.1-2.5 1.7-4 1.7zm-193.1-282.6c-1.4 0-2.8 0.6-3.8 1.6-1.1 1-1.6 2.4-1.7 3.9v271.4c0.1 1.4 0.6 2.8 1.7 3.8 1 1.1 2.4 1.6 3.8 1.7h193.1c1.5-0.1 2.8-0.6 3.9-1.7 1-1 1.6-2.4 1.6-3.8v-271.4c0-1.5-0.6-2.9-1.6-3.9-1.1-1-2.4-1.6-3.9-1.6z"/>
	<path id="Layer" class="s4" d="m373.9 79.3h-159.3c-1.2 0-2.1 0.9-2.1 2.1v2.3c0 1.1 0.9 2.1 2.1 2.1h159.3c1.2 0 2.1-1 2.1-2.1v-2.3c0-1.2-0.9-2.1-2.1-2.1z"/>
	<path id="Layer" class="s5" d="m366.3 84.5h-144.1v127.9h144.1z"/>
	<path id="Layer" class="s6" d="m362.5 88h-136.7v120.9h136.7z"/>
	<path id="Layer" class="s0" d="m257.9 88l-32.1 120.7v-56.8l16.9-63.9z"/>
	<path id="Layer" class="s0" d="m269.2 88l-32.3 120.9h-5.2l32.4-120.9z"/>
	<path id="Layer" class="s0" d="m357.5 88l-32.3 120.9h-5.2l32.4-120.9z"/>
	<path id="Layer" class="s0" d="m362.5 164.3v19.3l-6.5 25.3h-5.2z"/>
	<path id="Layer" class="s5" d="m273.5 85.8h-2.3v125.8h2.3z"/>
	<path id="Layer" class="s5" d="m318.1 85.8h-2.3v125.8h2.3z"/>
	<path id="Layer" class="s4" d="m342.8 81.4c0 0 3.3 43.2 22.4 65.3 0 0-13.9 55.7-13.9 75.1l25.8-4.8-9.3-70 4.5-65.7z"/>
	<path id="Layer" class="s4" d="m245.7 81.4c0 0-3.4 43.2-22.4 65.3 0 0 13.9 55.7 13.8 75.1l-25.8-4.8 9.3-70-4.4-65.7z"/>
	<path id="Layer" class="s7" d="m200 377.6c107.1 0 193.9-5.1 193.9-11.4 0-6.2-86.8-11.3-193.9-11.3-107.1 0-193.9 5.1-193.9 11.3 0 6.3 86.8 11.4 193.9 11.4z"/>
	<path id="Layer" class="s8" d="m317.5 56.6h-129.7c-4.9 0-8.8 3.9-8.8 8.8v247.4c0 4.8 3.9 8.8 8.8 8.8h129.7c4.9 0 8.8-4 8.8-8.8v-247.4c0-4.9-3.9-8.8-8.8-8.8z"/>
	<path id="Layer" class="s2" d="m321.4 65.5v246.7q-0.1 0.8-0.3 1.4-0.3 0.7-0.8 1.2-0.5 0.5-1.2 0.8-0.7 0.2-1.4 0.2h-130.5q-0.6 0-1.2-0.2-0.6-0.3-1.1-0.7-0.5-0.5-0.7-1.1-0.2-0.6-0.2-1.3v-247.3c-0.1-0.8 0.2-1.5 0.8-2.1 0.5-0.6 1.2-0.9 2-0.9h32.6q0.7 0 1.3 0.4 0.5 0.4 0.8 1l1.3 3.4q0.3 0.6 0.9 1 0.5 0.4 1.2 0.4h55.6q0.7 0 1.2-0.4 0.6-0.4 0.9-1l1.3-3.4q0.3-0.6 0.8-1 0.6-0.4 1.3-0.4h32.1c0.9 0 1.7 0.4 2.3 1 0.6 0.6 1 1.4 1 2.3z"/>
	<path id="Layer" class="s9" d="m321.4 77.5h-137.4v224.4h137.4z"/>
	<path id="Layer" class="s9" d="m199.1 72.1h1.7v-2.3h-1.7z"/>
	<path id="Layer" class="s9" d="m196.3 72.1h1.7v-3h-1.7z"/>
	<path id="Layer" class="s9" d="m193.6 72.1h1.7v-3.8h-1.7z"/>
	<path id="Layer" class="s9" d="m190.8 72.1h1.7v-4.5h-1.7z"/>
	<path id="Layer" class="s9" d="m305.8 69h-1v2.3h1z"/>
	<path id="Layer" class="s9" d="m306.5 72.1h8v-3.9h-8z"/>
	<path id="Layer" class="s9" d="m319.6 186.3l-133.9-0.1v27.2h133.9z"/>
	<path id="Layer" class="s9" d="m250.8 64.3c1 0 1.8-0.8 1.8-1.8 0-1.1-0.8-1.9-1.9-1.9-1 0-1.8 0.8-1.8 1.9 0 1 0.8 1.8 1.8 1.8z"/>
	<path id="Layer" class="s9" d="m256.4 62.5q0 0.3-0.2 0.6-0.2 0.3-0.5 0.5-0.3 0.1-0.7 0-0.4 0-0.6-0.3-0.3-0.3-0.3-0.6-0.1-0.4 0-0.7 0.2-0.3 0.5-0.6 0.3-0.2 0.7-0.2c0.3 0.1 0.6 0.2 0.8 0.4 0.2 0.2 0.4 0.5 0.4 0.9z"/>
	<path id="Layer" class="s9" d="m319.6 255.7h-133.9v15.8h133.9z"/>
	<path id="Layer" class="s8" d="m253.4 260.6v6.3h-0.9v-5.5h-1.4v-0.8z"/>
	<path id="Layer" fill-rule="evenodd" class="s8" d="m288.3 203.9v1.3h-0.7v-1.3c-1 0-2-0.4-2.8-1l0.4-0.9c0.7 0.6 1.5 0.9 2.4 0.9v-2.6c-1.3-0.3-2.6-0.7-2.6-2.2 0-1.2 0.8-2.1 2.6-2.3v-1.3h0.7v1.3c0.8 0 1.6 0.3 2.3 0.7l-0.4 0.9c-0.5-0.4-1.2-0.6-1.9-0.6v2.6c1.3 0.3 2.6 0.7 2.6 2.3 0 1.1-0.8 2.1-2.6 2.2zm-0.7-4.7v-2.4c-1 0.1-1.5 0.6-1.5 1.2 0 0.6 0.7 1 1.5 1.2zm2.2 2.5c0-0.7-0.7-1-1.5-1.2v2.4c1.1-0.1 1.5-0.6 1.5-1.2z"/>
	<path id="Layer" class="s8" d="m294.3 195.9v8h-1.1v-7h-1.8v-1z"/>
	<path id="Layer" class="s8" d="m296 203.1q0-0.1 0.1-0.3 0-0.1 0.1-0.2 0.1-0.1 0.3-0.2 0.1-0.1 0.3 0 0.3 0 0.5 0.2 0.2 0.2 0.3 0.5-0.1 0.4-0.3 0.6-0.2 0.2-0.5 0.2-0.2 0-0.3 0-0.2-0.1-0.3-0.2-0.1-0.1-0.1-0.3-0.1-0.1-0.1-0.3z"/>
	<path id="Layer" fill-rule="evenodd" class="s8" d="m304.5 199.8c0 2.7-1.5 4.1-3.7 4.1-0.7 0.1-1.4-0.1-2-0.4l0.4-0.9c0.5 0.2 1 0.4 1.5 0.4 1.7 0 2.7-1 2.7-3v-0.3q-0.4 0.5-1 0.8-0.7 0.3-1.3 0.2-0.5 0.1-1-0.1-0.5-0.1-0.9-0.5-0.4-0.3-0.6-0.8-0.2-0.5-0.2-1 0-0.5 0.2-1 0.2-0.5 0.6-0.9 0.4-0.3 0.9-0.5 0.5-0.1 1.1-0.1c2.1 0 3.3 1.4 3.3 4zm-1.4-1.5c0-0.9-0.6-1.6-1.9-1.6q-0.3 0-0.6 0.1-0.3 0.1-0.6 0.3-0.2 0.2-0.4 0.5-0.1 0.3-0.1 0.7c0 0.9 0.7 1.5 1.8 1.5q0.3 0 0.7-0.1 0.3-0.1 0.6-0.3 0.2-0.2 0.4-0.5 0.1-0.3 0.1-0.6z"/>
	<path id="Layer" fill-rule="evenodd" class="s8" d="m311.5 199.8c0 2.7-1.5 4.1-3.7 4.1-0.7 0.1-1.4-0.1-2-0.4l0.4-0.9c0.5 0.2 1 0.4 1.5 0.4 1.7 0 2.7-1 2.7-3v-0.3q-0.4 0.5-1 0.8-0.6 0.3-1.3 0.2-0.5 0.1-1-0.1-0.5-0.1-0.9-0.5-0.4-0.3-0.6-0.8-0.2-0.5-0.2-1 0-0.5 0.2-1 0.2-0.5 0.6-0.9 0.4-0.3 0.9-0.5 0.5-0.2 1.1-0.1c2.1 0 3.3 1.4 3.3 4zm-1.4-1.5c0-0.9-0.6-1.6-1.9-1.6q-0.3 0-0.6 0.1-0.3 0.1-0.6 0.3-0.2 0.2-0.4 0.5-0.1 0.3-0.1 0.7c0 0.9 0.7 1.5 1.8 1.5q0.3 0 0.7-0.1 0.3-0.1 0.6-0.3 0.2-0.2 0.4-0.5 0.1-0.3 0.1-0.6z"/>
	<path id="Layer" class="s8" d="m196.1 207.2v0.5h-2.7v-0.4l1.5-1.4c0.4-0.4 0.5-0.6 0.5-0.9 0-0.4-0.3-0.6-0.8-0.6q-0.3 0-0.5 0.1-0.3 0.1-0.4 0.3l-0.4-0.3q0.3-0.3 0.6-0.4 0.4-0.2 0.7-0.1c0.8 0 1.3 0.3 1.3 1q0 0.3-0.2 0.6-0.1 0.3-0.4 0.5l-1.1 1.1z"/>
	<path id="Layer" fill-rule="evenodd" class="s8" d="m196.5 205.8c0-1.2 0.6-1.8 1.5-1.8 0.8 0 1.4 0.6 1.4 1.8 0 1.2-0.6 1.9-1.4 1.9-0.9 0-1.5-0.7-1.5-1.9zm2.4 0c0-0.9-0.4-1.4-1-1.4-0.6 0-1 0.5-1 1.4 0 1 0.4 1.4 1 1.4 0.6 0 1-0.4 1-1.4z"/>
	<path id="Layer" fill-rule="evenodd" class="s8" d="m199.9 205q0-0.2 0-0.4 0.1-0.1 0.2-0.3 0.1-0.1 0.3-0.2 0.2-0.1 0.4-0.1c0.5 0 0.8 0.4 0.8 1 0 0.6-0.3 1-0.8 1q-0.2 0-0.4-0.1-0.2-0.1-0.3-0.2-0.1-0.2-0.2-0.3 0-0.2 0-0.4zm1.4 0c0-0.4-0.2-0.7-0.5-0.7-0.4 0-0.6 0.3-0.6 0.7 0 0.4 0.2 0.7 0.6 0.7 0.3 0 0.5-0.3 0.5-0.7zm1.7-1h0.4l-2.5 3.7h-0.4zm-0.8 2.7q0.1-0.3 0.2-0.5 0.2-0.2 0.4-0.2 0.3-0.1 0.5 0 0.3 0 0.4 0.2 0.2 0.2 0.2 0.5 0 0.2-0.1 0.5-0.1 0.2-0.3 0.3-0.2 0.2-0.4 0.2c-0.5 0-0.9-0.4-0.9-1zm1.4 0c0-0.5-0.2-0.7-0.5-0.7-0.4 0-0.6 0.2-0.6 0.7 0 0.4 0.2 0.7 0.6 0.7 0.3 0 0.5-0.3 0.5-0.7z"/>
	<path id="Layer" fill-rule="evenodd" class="s8" d="m204.5 206.3q-0.1-0.5 0.2-0.8 0.2-0.4 0.6-0.6 0.4-0.1 0.9-0.1 0.4 0.1 0.7 0.4 0.3 0.3 0.4 0.8 0.1 0.4-0.1 0.8-0.1 0.4-0.5 0.6-0.4 0.3-0.8 0.3-0.3 0-0.6-0.1-0.2-0.1-0.4-0.3-0.2-0.2-0.3-0.5-0.2-0.2-0.1-0.5zm2.3 0q0-0.2 0-0.4-0.1-0.2-0.2-0.3-0.2-0.2-0.3-0.3-0.2 0-0.4 0-0.3 0.1-0.6 0.3-0.2 0.3-0.2 0.7 0 0.3 0.2 0.6 0.3 0.2 0.6 0.3 0.2 0 0.4 0 0.1-0.1 0.3-0.2 0.1-0.2 0.2-0.4 0-0.1 0-0.3z"/>
	<path id="Layer" class="s8" d="m208.6 204.7v0.2h0.8v0.4h-0.8v2.4h-0.5v-2.4h-0.5v-0.4h0.5v-0.3q0-0.1 0.1-0.3 0-0.2 0.1-0.3 0.2-0.1 0.4-0.2 0.1-0.1 0.3 0 0.3-0.1 0.6 0.1l-0.2 0.4q-0.1-0.1-0.4-0.1-0.4 0-0.4 0.5z"/>
	<path id="Layer" class="s8" d="m210.4 204.7v0.2h0.8v0.4h-0.8v2.4h-0.5v-2.4h-0.4v-0.4h0.4v-0.3q0-0.1 0.1-0.3 0.1-0.2 0.2-0.3 0.1-0.1 0.3-0.2 0.2-0.1 0.4 0 0.3-0.1 0.5 0.1l-0.1 0.4q-0.2-0.1-0.4-0.1-0.5 0-0.5 0.5z"/>
	<path id="Layer" class="s8" d="m193.7 196q0-0.7 0.2-1.3 0.3-0.6 0.7-1 0.5-0.5 1.1-0.7 0.6-0.3 1.3-0.2 0.7 0 1.3 0.2 0.6 0.3 1.1 0.8l-0.6 0.5q-0.3-0.3-0.8-0.5-0.5-0.2-1-0.2-0.6 0-1.1 0.3-0.6 0.3-0.9 0.8-0.3 0.5-0.4 1.1 0 0.6 0.2 1.2 0.3 0.6 0.7 0.9 0.5 0.4 1.1 0.5 0.6 0.1 1.2-0.1 0.6-0.2 1-0.6l0.6 0.6q-0.5 0.5-1.1 0.7-0.6 0.3-1.3 0.3-0.7 0-1.3-0.2-0.6-0.3-1.1-0.7-0.5-0.5-0.7-1.1-0.3-0.6-0.2-1.3z"/>
	<path id="Layer" fill-rule="evenodd" class="s8" d="m199.9 196.7c0-0.5 0.2-1 0.4-1.4 0.3-0.4 0.7-0.7 1.1-0.9 0.5-0.2 1-0.2 1.5-0.2q0.7 0.2 1.2 0.7 0.6 0.5 0.7 1.3 0.2 0.7-0.1 1.4c-0.2 0.5-0.5 0.9-0.9 1.1-0.4 0.3-0.9 0.5-1.4 0.5q-0.5 0-1-0.2-0.4-0.2-0.8-0.5-0.3-0.4-0.5-0.8-0.2-0.5-0.2-1zm4.1 0q0-0.5-0.3-0.9-0.3-0.3-0.7-0.5-0.5-0.2-1-0.1-0.4 0.1-0.8 0.5-0.3 0.3-0.4 0.8-0.1 0.5 0.1 0.9 0.2 0.5 0.6 0.7 0.4 0.3 0.9 0.3 0.3 0 0.6-0.1 0.3-0.1 0.6-0.4 0.2-0.2 0.3-0.5 0.1-0.3 0.1-0.7z"/>
	<path id="Layer" class="s8" d="m214 196.4v2.7h-0.9v-2.6c0-1-0.4-1.4-1.2-1.4q-0.3-0.1-0.6 0.1-0.3 0.1-0.5 0.3-0.2 0.3-0.3 0.5-0.1 0.3 0 0.6v2.5h-0.9v-2.6c0-1-0.5-1.4-1.2-1.4q-0.3-0.1-0.6 0.1-0.3 0.1-0.5 0.3-0.2 0.3-0.3 0.5-0.1 0.3-0.1 0.6v2.5h-0.8v-4.8h0.8v0.7q0.3-0.4 0.7-0.6 0.5-0.2 1-0.2 0.5 0 0.9 0.3 0.5 0.2 0.7 0.6 0.3-0.4 0.8-0.6 0.5-0.3 1-0.3 0.5 0 0.9 0.2 0.3 0.1 0.6 0.4 0.3 0.3 0.4 0.7 0.2 0.4 0.1 0.9z"/>
	<path id="Layer" fill-rule="evenodd" class="s8" d="m220.5 196.7q0.1 0.5-0.1 1-0.2 0.4-0.5 0.8-0.4 0.3-0.8 0.5-0.5 0.2-1 0.2-0.5 0-0.9-0.2-0.5-0.2-0.8-0.6v0.7h-0.8v-6.7h0.9v2.7q0.3-0.4 0.7-0.6 0.4-0.2 0.9-0.2 0.5 0 1 0.1 0.4 0.2 0.8 0.6 0.3 0.3 0.5 0.8 0.2 0.4 0.1 0.9zm-0.8 0q-0.1-0.5-0.3-0.9-0.3-0.3-0.8-0.5-0.4-0.2-0.9-0.1-0.5 0.1-0.8 0.5-0.3 0.3-0.4 0.8-0.1 0.5 0.1 0.9 0.2 0.5 0.6 0.7 0.4 0.3 0.9 0.3 0.3 0 0.6-0.1 0.3-0.1 0.5-0.4 0.3-0.2 0.4-0.5 0.1-0.3 0.1-0.7z"/>
	<path id="Layer" fill-rule="evenodd" class="s8" d="m221.3 196.7q0-0.7 0.4-1.4c0.3-0.4 0.6-0.7 1.1-0.9 0.4-0.2 0.9-0.2 1.4-0.2q0.8 0.2 1.3 0.7c0.4 0.4 0.6 0.8 0.7 1.3q0.1 0.7-0.1 1.4-0.3 0.7-0.9 1.1c-0.4 0.3-0.9 0.5-1.4 0.5q-0.5 0-1-0.2-0.4-0.2-0.8-0.5-0.4-0.4-0.5-0.8-0.2-0.5-0.2-1zm4.1 0q0-0.5-0.3-0.9-0.3-0.3-0.8-0.5-0.4-0.2-0.9-0.1-0.5 0.1-0.8 0.5-0.3 0.3-0.4 0.8-0.1 0.5 0.1 0.9 0.2 0.5 0.6 0.7 0.4 0.3 0.9 0.3 0.3 0 0.6-0.1 0.3-0.1 0.6-0.4 0.2-0.2 0.3-0.5 0.1-0.3 0.1-0.7z"/>
	<path id="Layer" class="s8" d="m233.9 198.3v0.8h-4.5v-0.6l2.6-2.5c0.7-0.7 0.8-1.1 0.8-1.4 0-0.7-0.5-1.1-1.4-1.1q-0.4 0-0.8 0.2-0.5 0.2-0.8 0.5l-0.6-0.5q0.5-0.5 1.1-0.8 0.6-0.3 1.2-0.2c1.4 0 2.2 0.6 2.2 1.7q0 0.6-0.3 1.1-0.2 0.6-0.7 0.9l-1.9 1.9z"/>
	<path id="Layer" class="s9" d="m319.6 215.3h-133.9v38.5h133.9z"/>
	<path id="Layer" class="s10" d="m239.3 226.2h-46.1c-0.2 0-0.5-0.1-0.7-0.3-0.2-0.2-0.3-0.5-0.3-0.8 0-0.2 0.1-0.5 0.3-0.7 0.2-0.2 0.5-0.3 0.7-0.3h46.1q0.2 0 0.4 0 0.2 0.1 0.4 0.3 0.1 0.1 0.2 0.3 0.1 0.2 0.1 0.4 0 0.3-0.1 0.5-0.1 0.1-0.2 0.3-0.2 0.1-0.4 0.2-0.2 0.1-0.4 0.1z"/>
	<path id="Layer" class="s10" d="m312.1 232.2h-118.9c-0.2 0-0.5-0.2-0.7-0.4-0.2-0.2-0.3-0.4-0.3-0.7 0-0.3 0.1-0.6 0.3-0.8 0.2-0.2 0.5-0.3 0.7-0.3h118.9c0.3 0 0.5 0.1 0.7 0.3 0.2 0.2 0.3 0.5 0.3 0.8 0 0.3-0.1 0.5-0.3 0.7-0.2 0.2-0.4 0.4-0.7 0.4z"/>
	<path id="Layer" class="s10" d="m312.1 238.1h-118.9q-0.2 0-0.4-0.1-0.2-0.1-0.3-0.2-0.2-0.2-0.3-0.4 0-0.2 0-0.4c0-0.3 0.1-0.5 0.3-0.7 0.2-0.2 0.5-0.3 0.7-0.3h118.9c0.3 0 0.5 0.1 0.7 0.3 0.2 0.2 0.3 0.4 0.3 0.7q0.1 0.2 0 0.4-0.1 0.2-0.3 0.4-0.1 0.1-0.3 0.2-0.2 0.1-0.4 0.1z"/>
	<path id="Layer" class="s10" d="m312.1 244.1h-118.9c-0.2 0-0.5-0.2-0.7-0.4-0.2-0.2-0.3-0.4-0.3-0.7 0-0.3 0.1-0.6 0.3-0.8 0.2-0.2 0.5-0.3 0.7-0.3h118.9c0.3 0 0.5 0.1 0.7 0.3 0.2 0.2 0.3 0.5 0.3 0.8 0 0.3-0.1 0.5-0.3 0.7-0.2 0.2-0.4 0.4-0.7 0.4z"/>
	<path id="Layer" class="s10" d="m279.1 259.6h-7c-0.2 0-0.4 0.2-0.4 0.5v7c0 0.2 0.2 0.4 0.4 0.4h7c0.3 0 0.5-0.2 0.5-0.4v-7c0-0.3-0.2-0.5-0.5-0.5z"/>
	<path id="Layer" class="s0" d="m276.1 261.6h-1v3.9h1z"/>
	<path id="Layer" class="s0" d="m277.6 263.1h-3.9v1h3.9z"/>
	<path id="Layer" class="s10" d="m233.2 259.6h-7c-0.3 0-0.5 0.2-0.5 0.5v7c0 0.2 0.2 0.4 0.5 0.4h7c0.2 0 0.4-0.2 0.4-0.4v-7c0-0.3-0.2-0.5-0.4-0.5z"/>
	<path id="Layer" class="s0" d="m230.2 261.6h-1v3.9h1z"/>
	<path id="Layer" class="s0" d="m231.6 263.1h-3.9v1h3.9z"/>
	<path id="Layer" class="s2" d="m311.9 277.1h-118.5c-1.9 0-3.5 1.6-3.5 3.5v12c0 1.9 1.6 3.5 3.5 3.5h118.5c1.9 0 3.5-1.6 3.5-3.5v-12c0-1.9-1.6-3.5-3.5-3.5z"/>
	<path id="Layer" fill-rule="evenodd" class="s0" d="m231.5 286.6c-0.1-0.8 0.1-1.7 0.6-2.4 0.4-0.7 1.1-1.3 1.9-1.6 0.7-0.4 1.6-0.5 2.5-0.4 0.8 0.2 1.6 0.6 2.2 1.2 0.6 0.6 1 1.3 1.2 2.2 0.2 0.8 0.1 1.7-0.2 2.4-0.3 0.8-0.9 1.5-1.6 2-0.7 0.5-1.5 0.7-2.4 0.7q-0.8 0.1-1.6-0.2-0.8-0.3-1.4-0.9-0.6-0.6-0.9-1.4-0.4-0.7-0.3-1.6zm7.4 0c0-0.6-0.2-1.2-0.6-1.7-0.3-0.5-0.8-1-1.4-1.2-0.5-0.2-1.2-0.3-1.8-0.2-0.6 0.1-1.1 0.4-1.6 0.9-0.4 0.4-0.7 1-0.8 1.6-0.2 0.6-0.1 1.2 0.1 1.8 0.3 0.6 0.7 1.1 1.2 1.4 0.5 0.3 1.1 0.5 1.7 0.5q0.7 0 1.2-0.2 0.6-0.2 1.1-0.7 0.4-0.4 0.6-1 0.3-0.5 0.3-1.2z"/>
	<path id="Layer" fill-rule="evenodd" class="s0" d="m247.1 290.6l-1.7-2.4h-2.5v2.4h-1.2v-8h3.2c2.1 0 3.3 1.1 3.3 2.8 0.1 0.6-0.1 1.1-0.4 1.6-0.3 0.5-0.8 0.8-1.3 1l1.9 2.7zm0-5.3c0-1.1-0.8-1.8-2.3-1.8h-2v3.7h2c1.5 0 2.2-0.7 2.2-1.9z"/>
	<path id="Layer" fill-rule="evenodd" class="s0" d="m250.1 282.6h3.4c2.6 0 4.3 1.6 4.3 4 0 2.4-1.7 4-4.3 4h-3.4zm3.3 7c0.8 0 1.6-0.3 2.1-0.9 0.6-0.5 0.9-1.3 0.9-2.1 0-0.8-0.3-1.5-0.9-2.1-0.5-0.6-1.3-0.9-2.1-0.9h-2.1v6z"/>
	<path id="Layer" class="s0" d="m265.4 289.6v1h-5.8v-8h5.7v1h-4.6v2.5h4v1h-4v2.6z"/>
	<path id="Layer" fill-rule="evenodd" class="s0" d="m272.7 290.6l-1.8-2.4h-2.5v2.4h-1.1v-8h3.1c2.1 0 3.4 1.1 3.4 2.8 0 0.6-0.2 1.2-0.5 1.6-0.3 0.5-0.8 0.8-1.3 1l1.9 2.7zm0-5.2c0-1.2-0.8-1.8-2.2-1.8h-2v3.6h2c1.4 0 2.2-0.7 2.2-1.8z"/>
	<path id="Layer" class="s11" d="m312 131.3c0.8 4.9-0.3 10-3.2 14.1-5.3 7.6-14.8 10.1-21.2 16.5-5.7 5.7-8.7 14.9-16.8 18.1-3.7 1.5-7.8 1.3-11.7 0.5-8.4-1.6-16-5.9-23.6-9.6-10.2-5-22-7.1-31.8-12.7-4.4-2.6-8.4-6.5-10-11.4-3.3-10.5 4-20.7 11.6-27 5.8-4.7 12.4-8.7 17.2-14.5 4.4-5.3 6.3-12.5 11.3-17.3 4.1-3.9 10-5.6 15.7-5.5 15.6 0.4 22.6 10.1 31.6 21 7.5 9 20.8 10.6 27.8 20.1 1.6 2.3 2.7 4.9 3.1 7.7z"/>
	<path id="Layer" class="s2" d="m262.3 111.3l-3 41.5c0 0 11 7.5 23.3 4.3l11.9-37.4c0 0-7.8-12-32.2-8.4z"/>
	<path id="Layer" class="s8" d="m261.9 109.8l-0.3 4.5c0 0 9.4 8.8 32.5 8.2l2.1-4.9c-4.6-4.1-10.2-7-16.2-8.3-6-1.3-12.2-1.2-18.1 0.5z"/>
	<path id="Layer" class="s12" d="m261.9 109.8l-0.3 4.5c0 0 9.4 8.8 32.5 8.2l2.1-4.9c-4.6-4.1-10.2-7-16.2-8.3-6-1.3-12.2-1.2-18.1 0.5z"/>
	<path id="Layer" class="s13" d="m295.3 117.6c-14 1.9-26-3.4-30.6-5.8-1.3-0.7-2-1.1-2-1.1q0.7-0.2 1.2-0.4 3-0.7 6-1c6.3-0.4 12.6 0.8 18.2 3.6 2.6 1.2 5.1 2.8 7.2 4.7z"/>
	<path id="Layer" class="s2" d="m301.5 101.7c-0.5 4.7-0.7 11.7-6.2 15.9-5 0.7-10.2 0.5-15.2-0.5q-4.3-0.8-8.4-2.3-3.6-1.3-6.9-3-0.5-0.7-0.9-1.5c-0.5-1.1-0.9-2.5 0.4-2.7 2.2-0.5 1.8-0.7 1.6-1.8-0.1-1.1 0.3-2.2 0.8-1.1 0.4 1 0 3.4 0.5 3.7 0.5 0.3 2.9-1.1 2.7 1q-0.1 1.3 0.1 2.6c0 0.1 0.1 0.1 0.1 0.2q0 0.1 0 0.1 0 0 0 0c0.2 0.5 0.5 0.8 0.9 1.1 0.4 0.2 0.9 0.3 1.4 0.3 2.6 0.1 4.4-1.5 7.1-2.3 2.7-0.7 5.9-0.5 6.4 2.3 0.6 2.8 2.8 1.8 2.3-0.2l-0.1-0.5c-0.3-2-0.1-4.4 0.9-3.1 1.1 1.2-0.4 1.7 0.5 2.6 0.9 0.9 2.1-0.6 2.6-3.2 0.4-2.6 2.4-8.3 0-11.4-2.5-3.2-1.7-3.8 0-3.4 1.6 0.4 0.7 3.2 2.4 4 1.6 0.8 2.1-3.4 1.2-5.4-0.9-2-2-5.4 0.5-5 2.5 0.4 2 3.8 2 6 0 2.2 0.7 3.7 1.4 2.8q0.2-0.2 0.5-0.2 0.3 0 0.6 0.2c0.6 0.4 1.1 1.8 0.8 4.8z"/>
	<path id="Layer" class="s2" d="m277.3 98.8l3.5-3 4.1 3v4l-3.5 1.3-4.2-1.7z"/>
	<path id="Layer" class="s14" d="m277.3 98.8l3.5-3 4.1 3v4l-3.5 1.3-4.2-1.7z"/>
	<path id="Layer" class="s15" d="m280.8 95.8v4.9l4.1 2.1v-4z"/>
	<path id="Layer" class="s10" d="m300.6 96.8q-0.8 0.7-1.3 1.7-0.5 1-0.5 2.1c-0.2 3.5-1.3 3.4-3.5 1.9-2.1-1.5-1.4 1.7-0.9 8.1 0.6 6.4-5.2 7.4-7.8 6.5-2.5-0.8-0.4-1.6-2.1-2.6-1.4-0.9-1.1 2.1-4.4 2.6q-0.8 0.1-1.7 0c-3.2-0.3-5.3-1-6.7-2.3-0.8-0.7-1.3-1.6-1.6-2.6 0.2 0.5 0.5 0.8 0.9 1.1 0.4 0.2 0.9 0.4 1.4 0.3 2.6 0.2 4.4-1.5 7.1-2.2 2.7-0.8 5.9-0.6 6.4 2.2 0.5 2.9 2.8 1.8 2.3-0.1l-0.1-0.6c-0.4-2-0.1-4.4 0.9-3.1 1.1 1.3-0.4 1.7 0.5 2.6 0.9 0.9 2.1-0.6 2.6-3.2 0.4-2.6 2.4-8.3 0-11.4-2.5-3.1-1.7-3.8 0-3.4 1.6 0.4 0.7 3.2 2.3 4 1.7 0.8 2.2-3.4 1.3-5.4-0.9-2-2-5.4 0.5-5 2.5 0.4 2 3.8 2 6 0 2.2 0.7 3.7 1.4 2.9q0.2-0.2 0.5-0.3 0.3 0 0.5 0.2z"/>
	<path id="Layer" class="s2" d="m275.3 114.7l-3.2-0.7v-3.6l2.2-1.7 2.2 1.4 0.8 3.1z"/>
	<path id="Layer" class="s14" d="m275.3 114.7l-3.2-0.7v-3.6l2.2-1.7 2.2 1.4 0.8 3.1z"/>
	<path id="Layer" class="s15" d="m272.1 114l2.8-2.1-0.6-3.2-2.2 1.7z"/>
	<path id="Layer" class="s14" d="m281.1 128.1c9.4 0 8.7 18-2.7 17.9-11.3 0-8-17.9 2.7-17.9z"/>
	<path id="Layer" class="s13" d="m280.8 129.5c8 0 7.4 15.2-2.2 15.1-9.6 0-6.8-15.1 2.2-15.1z"/>
	<path id="Layer" class="s8" d="m204.3 158.4c0 0-2.7 4.3-2.7 5.4 0 1.1 2 6.7 3.4 7.9 1.3 1.3 17.2 5 36.6 2.1 19.4-2.9 24.8-11.9 25.7-14.1 1-2.2 0.7-10.5-1.4-10.9-2.1-0.3-57.9 6.6-61.6 9.6z"/>
	<path id="Layer" class="s16" d="m267.3 159.7c-0.9 2.2-6.3 11.2-25.7 14.1-19.4 2.9-35.3-0.8-36.6-2.1-1.4-1.2-3.4-6.8-3.4-8q0.2-0.9 0.7-1.7c0.8-1.7 2-3.6 2-3.6 3.7-3 59.5-10 61.5-9.6 0.7 0.1 1.2 1 1.5 2.2 0.7 2.8 0.7 7.2 0 8.7z"/>
	<path id="Layer" class="s10" d="m267.3 151.1c-1.9 3.1-8.4 10.5-26.5 13.1-20.3 2.9-37-0.9-38.4-2.1l-0.1-0.1c0.8-1.6 2-3.6 2-3.6 3.7-2.9 59.5-10 61.5-9.6 0.7 0.1 1.2 1 1.5 2.3z"/>
	<path id="Layer" class="s2" d="m203.6 158.3c-2-0.2-3.1 1.4-1.9 2.4 1.3 1.1 3.6 0.2 3.6 2.3 0.1 2.1 0.2 4.8 1.5 3.3 1.2-1.4 0.1-3 3.4-2.4 2 0.3 4.6 1.6 6.6 0.3 0.3-0.2 0.6-0.5 1-0.7q0.6-0.3 1.2-0.5 0.8-0.3 1.6-0.8c0.6-0.4 1.4-1 1.4-1.7q-0.1-0.6-0.5-0.9-0.4-0.4-0.9-0.4-1.1-0.1-2 0.3-1 0.3-2 0.4c-1.3 0.2-2.4-0.3-3.6-0.5q-2.2-0.4-4.3-0.6c-1.8-0.2-3.4-0.4-5.1-0.6z"/>
	<path id="Layer" class="s2" d="m222.8 160.8c0 0 5.2 4.2 7.2 4.1 2-0.1 2.6-0.3 3.4 0.9 0.8 1.1 4.3 3.5 4.8 1.1 0.5-2.3 2.4-3.6 3.6-3.2 1.3 0.4 3.6 1 4.6-0.8q0.2-0.5 0.6-0.8 0.4-0.4 1-0.5 0.9-0.4 1.9-0.7 1.2-0.2 2.4-0.6c0.8-0.5 1.1-1.5 1.7-2.2 0.6-0.9 1.4-1.4 2.4-1.6q1.3-0.1 2.5-0.1 0.7 0 1.2-0.3 0.6-0.3 1-0.9c0.3-0.6 0.2-1.4 0.5-2.1 0.2-0.4 0.6-0.8 1.1-1 0.4-0.2 1-0.2 1.4 0q0.4 0.2 0.9 0.2c0.6 0 1.3-1 1.8-0.6 0.5 0.4 0.3 1.1 0.9 1.4 0.1-1.1 0-2.2 0.1-3.3q0-0.6-0.2-1.1c-0.4-0.9-1.1-1.5-1.9-2-0.8-0.5-1.7-0.7-2.6-0.6-2.2-0.1-4.5-0.1-6.3 1.1-1.8 1.2-2.7 3.3-4.2 4.8q-1.3 1.1-3 1.9-3.9 2.1-8.2 3.7c-2.5 1-5.7 1-8.4 1.4-3.4 0.6-6.8 1.2-10.2 1.8z"/>
	<path id="Layer" class="s2" d="m266.1 150.4c-0.3 1.4-1.6 2.3-2.7 3.1l-1 0.7q-0.9 0.8-2 1.2-1.1 0.4-2.3 0.5c-3.2 0.4-6.2 1.6-8.8 3.4q-1 0.9-2.2 1.3-1.2 0-2.3-0.1-0.5-0.1-1.1 0.2-0.5 0.2-0.8 0.7-0.1 0.3-0.3 0.6-0.3 0.2-0.6 0.2-3.8 0.5-7.5 0.5c-2.6 0-5.1-0.1-7.7-0.3l-5-0.3q-1.2-0.1-2.4 0c-0.8 0.1-1.6 0.4-2.4 0.5q-1.4 0.2-2.9 0.3h-3c-2.6 0.1-4.9-1.2-7.3-2.1q-0.4-0.2-0.8-0.5c-0.6-0.7 0-1.8-0.3-2.6q-0.1-0.3-0.2-0.6 0-0.5 0.2-0.9 0.1-0.1 0.1-0.3 0-0.6-0.3-1.1-0.2-0.6-0.3-1.3 0-0.3 0-0.7 0.1-0.3 0.2-0.5c0.5-1 2.7-1 3.7-1.2 6.8-1.8 13.8-3 20.8-4.2q12.2-2.2 24.5-4c3-0.4 6-0.8 9-1.2q1.6-0.3 3.2-0.2c0.6 0 1.1 0.3 1.5 0.6q0.1 0.2 0.2 0.4c0.1 0.4 0.1 0.9-0.1 1.3q-0.2 1 0 2 0 0.5 0.2 1 0.3 0.2 0.4 0.5c0.2 0.4 0 1 0 1.5 0 0.5 0.5 0.9 0.3 1.6z"/>
	<path id="Layer" class="s10" d="m264.6 145.7c-0.4 1.4-1.7 2.4-2.8 3.1l-1 0.7q-0.9 0.8-2 1.2-1.1 0.4-2.3 0.5c-3.1 0.4-6.2 1.6-8.8 3.5q-1 0.8-2.2 1.2-1.1 0-2.2-0.1-0.6-0.1-1.1 0.1-0.6 0.3-0.9 0.8-0.1 0.3-0.3 0.6-0.3 0.2-0.6 0.2-3.7 0.5-7.5 0.5c-2.5 0-5.1-0.1-7.6-0.3l-5-0.3q-1.3-0.1-2.5 0c-0.8 0.1-1.6 0.4-2.4 0.5q-1.4 0.2-2.9 0.2l-3 0.1c-2.4 0.1-4.6-1.1-6.8-2q0.1-0.1 0.1-0.3 0-0.6-0.3-1.1-0.2-0.7-0.3-1.3 0-0.4 0-0.7 0.1-0.3 0.2-0.5c0.5-1 2.7-1 3.7-1.2 6.8-1.8 13.8-3 20.8-4.2q12.2-2.2 24.5-4c3-0.4 6-0.8 9-1.2q1.6-0.3 3.2-0.2 0.1 0.3 0.2 0.5 0.2 0.2 0.4 0.5c0.2 0.5 0 1.1 0 1.6 0.2 0.6 0.5 0.9 0.4 1.6z"/>
	<path id="Layer" class="s2" d="m200.8 151.1c-0.4 1 7.8 12 7.8 12 0 0 11.9-9.4 19.9-10.8 8.1-1.3 34.7 0.1 34.7 0.1 0 0 1.5-9.2 1.3-11.5-0.3-2.2-59.3-1.8-63.7 10.2z"/>
	<path id="Layer" class="s17" d="m200.8 151.1c-0.4 1 7.8 12 7.8 12 0 0 11.9-9.4 19.9-10.8 8.1-1.3 34.7 0.1 34.7 0.1 0 0 1.5-9.2 1.3-11.5-0.3-2.2-59.3-1.8-63.7 10.2z"/>
	<path id="Layer" class="s2" d="m208.4 150.3l2.6 5.5c0 0 5.5-2 7.4 0 1.1 1.1 1.8 2.4 1.9 3.9 0 0 1.4-6.1 3.8-4.7q2.5 1.6 4.5 3.8c0 0 3.4-5.6 6.5-3.8l3 1.9c0 0 2.4-5.6 6.2-5.9 3.8-0.2 5.4 0.4 5.7-0.7 0.3-1 8.9-7 12.9-6.7l4 0.2c0 0 0.7-5.3 3-5.3 0 0-4.6-2.6-4.5-5.9 0-1.2-2.9 1.9-5 0-2.1-1.9-61.8 10.1-61.8 10.1 0 0 0.5-0.5-2.4 0.9-2.8 1.3 1.2 1 0 3.9-1.1 3 4.2-0.2 5.7 2 1.5 2.1 6.5 0.8 6.5 0.8z"/>
	<path id="Layer" class="s15" d="m208.4 150.3l2.6 5.5c0 0 5.5-2 7.4 0 1.1 1.1 1.8 2.4 1.9 3.9 0 0 1.4-6.1 3.8-4.7q2.5 1.6 4.5 3.8c0 0 3.4-5.6 6.5-3.8l3 1.9c0 0 2.4-5.6 6.2-5.9 3.8-0.2 5.4 0.4 5.7-0.7 0.3-1 8.9-7 12.9-6.7l4 0.2c0 0 0.7-5.3 3-5.3 0 0-4.6-2.6-4.5-5.9 0-1.2-2.9 1.9-5 0-2.1-1.9-61.8 10.1-61.8 10.1 0 0 0.5-0.5-2.4 0.9-2.8 1.3 1.2 1 0 3.9-1.1 3 4.2-0.2 5.7 2 1.5 2.1 6.5 0.8 6.5 0.8z"/>
	<path id="Layer" class="s2" d="m223.4 149.8c-4.2 6.6-23.7 8.3-25.2 2.6-0.3-1.2-0.4-2.4-0.2-3.6 0.3-1.9 1.2-3.7 2.7-4.9 8.2-4.3 21.2-2 23.2 2.6q0.3 0.9 0.2 1.7-0.1 0.9-0.7 1.6z"/>
	<path id="Layer" class="s10" d="m223.9 146.5q-0.2 0.5-0.5 0.8c-4.2 6.7-23.7 8.3-25.2 2.7q-0.1-0.6-0.2-1.2c0.3-1.9 1.2-3.7 2.7-4.9 8.2-4.2 21.2-2 23.2 2.6z"/>
	<path id="Layer" class="s2" d="m263.8 145.9c-4.3 6.6-23.7 8.2-25.2 2.6-0.4-1.2-0.4-2.4-0.3-3.7 0.3-1.9 1.3-3.6 2.8-4.9 8.1-4.2 21.1-2 23.1 2.7q0.3 0.8 0.2 1.7-0.1 0.9-0.6 1.6z"/>
	<path id="Layer" class="s10" d="m264.2 142.6q-0.2 0.4-0.4 0.8c-4.3 6.6-23.7 8.3-25.2 2.6q-0.2-0.6-0.3-1.2c0.3-1.9 1.3-3.6 2.8-4.9 8.1-4.2 21.2-1.9 23.1 2.7z"/>
	<path id="Layer" class="s8" d="m229.8 114.3c20.4-1.7 38 16 34.1 25.2-3.9 9.2-59.1 17-64.3 6.5-5.2-10.5 8.8-29.9 30.2-31.7z"/>
	<path id="Layer" class="s16" d="m229.8 114.3c20.4-1.7 38 16 34.1 25.2-3.9 9.2-59.1 17-64.3 6.5-5.2-10.5 8.8-29.9 30.2-31.7z"/>
	<path id="Layer" class="s11" d="m228.3 125.8c0 0-0.9 2.3 0 2.3 1 0 0-2.3 0-2.3z"/>
	<path id="Layer" class="s11" d="m235.8 123c0 0 1.7 2.3 1.8 1.2 0.1-1-1.8-1.2-1.8-1.2z"/>
	<path id="Layer" class="s11" d="m224.6 122.1c0 0-2.5 0.5-1.8 1.2 0.6 0.6 1.8-1.2 1.8-1.2z"/>
	<path id="Layer" class="s11" d="m216.5 125c0 0-1.9 0.2-1.6 0.8 0.3 0.6 1.6-0.8 1.6-0.8z"/>
	<path id="Layer" class="s11" d="m221.3 117.2c0 0-2.1-0.3-2.1 0.4 0 0.7 2.1-0.4 2.1-0.4z"/>
	<path id="Layer" class="s11" d="m228.8 118.3c0 0-0.4 1.9 0.4 1.7 0.7-0.2-0.4-1.7-0.4-1.7z"/>
	<path id="Layer" class="s11" d="m240.7 120c0 0 1.7 0.8 1.7 0 0-0.8-1.7 0-1.7 0z"/>
	<path id="Layer" class="s11" d="m234.8 116.1c0 0 0.9-1 1.4-0.8 0.5 0.3-1.4 0.8-1.4 0.8z"/>
	<path id="Layer" class="s11" d="m226.4 116.1c1-0.2 0.5 1.1 0.5 1.1 0 0-1.5-0.9-0.5-1.1z"/>
	<path id="Layer" class="s11" d="m220.3 129.8c0 0-1.2 0.8-1.1 1.3 0.2 0.6 1.1-1.3 1.1-1.3z"/>
	<path id="Layer" class="s11" d="m246.5 125.4c0 0 2.1 0.8 1.3 1.5-0.7 0.7-1.3-1.5-1.3-1.5z"/>
	<path id="Layer" class="s11" d="m234.8 131.2c0 0 0.6 1.2 0 1.4-0.6 0.2 0-1.4 0-1.4z"/>
	<path id="Layer" class="s10" d="m263.9 139.5c-3.9 9.2-59.1 17-64.3 6.5q-0.8-1.8-1-3.7 0.2 0.5 0.4 0.9c5.2 10.5 60.4 2.7 64.3-6.5 0.5-1.1 0.7-2.3 0.5-3.6 0.9 2.1 0.9 4.4 0.1 6.4z"/>
	<path id="Layer" class="s18" d="m340.6 340.9c0 0-5.7-12.3 0.8-24.5 6.4-12.1 8.3-15 4.2-17.5-4.1-2.5-6 9.7-6 9.7 0 0-3.5-8.4-0.6-17.2 2.8-8.8 4.6-23.1 0.7-24.6-3.9-1.6-0.7 17.9-4.1 24.5-1.7-4.7-2.9-9.5-3.3-14.5-0.5-7 0.2-18.3-2.9-21.2-3-2.9-5-0.9-2 14.7 1.9 9.3 2.9 18.8 3 28.3 0 0-6.7-20.5-11.2-21-4.5-0.6-4.5 6-0.6 11.7 3.8 5.8 11.3 16 12.5 21.3 0 0-7.4-15.3-14-10.6-6.6 4.7 5.8 14 11.3 17.3 5.5 3.4 9.3 24.4 9.3 24.4z"/>
	<path id="Layer" class="s10" d="m340.6 340.9c0 0-5.7-12.3 0.8-24.5 6.4-12.1 8.3-15 4.2-17.5-4.1-2.5-6 9.7-6 9.7 0 0-3.5-8.4-0.6-17.2 2.8-8.8 4.6-23.1 0.7-24.6-3.9-1.6-0.7 17.9-4.1 24.5-1.7-4.7-2.9-9.5-3.3-14.5-0.5-7 0.2-18.3-2.9-21.2-3-2.9-5-0.9-2 14.7 1.9 9.3 2.9 18.8 3 28.3 0 0-6.7-20.5-11.2-21-4.5-0.6-4.5 6-0.6 11.7 3.8 5.8 11.3 16 12.5 21.3 0 0-7.4-15.3-14-10.6-6.6 4.7 5.8 14 11.3 17.3 5.5 3.4 9.3 24.4 9.3 24.4z"/>
	<path id="Layer" class="s18" d="m336.1 345.9c0 0 5.5-12.4-1.1-24.4-6.6-12.1-8.5-14.9-4.4-17.5 4.1-2.5 6.1 9.7 6.1 9.7 0 0 3.4-8.5 0.4-17.2-3-8.8-4.9-23-1-24.7 3.9-1.6 1 17.9 4.4 24.4 1.7-4.6 2.8-9.5 3.2-14.4 0.4-7.1-0.5-18.4 2.6-21.3 3-2.9 5-1 2.2 14.7-1.7 9.3-2.6 18.8-2.7 28.3 0 0 6.4-20.6 10.9-21.2 4.5-0.7 4.6 6 0.8 11.7-3.8 5.8-11.1 16.2-12.2 21.5 0 0 7.2-15.5 13.8-10.9 6.7 4.7-5.6 14.1-11.1 17.6-5.5 3.4-9 24.5-9 24.5z"/>
	<path id="Layer" class="s8" d="m361.5 337.1h-45.5l3.7 32.5h38.1z"/>
	<path id="Layer" class="s8" d="m77.4 133.7h-4.9v154.6h4.9z"/>
	<path id="Layer" class="s15" d="m77.4 133.7h-4.9v154.6h4.9z"/>
	<path id="Layer" class="s10" d="m77.4 134.7v36.6l-4.9-1.8v-34.8z"/>
	<path id="Layer" class="s2" d="m100.9 110h-51.9v49.4h51.9z"/>
	<path id="Layer" fill-rule="evenodd" class="s0" d="m99.4 157.8h-48.8v-46h48.8zm-47.8-45v43.9h46.7v-43.9z"/>
	<path id="Layer" class="s0" d="m79.9 135.7h-9.9v9.5h-5.4l10.4 9.2 10.4-9.2h-5.5z"/>
	<path id="Layer" class="s8" d="m164.6 353.8h51.1c5.4 0 9.9-4.4 9.9-9.9v-40.2c0-5.4-4.5-9.8-9.9-9.8h-51.1c-5.5 0-9.9 4.4-9.9 9.8v40.2c0 5.5 4.4 9.9 9.9 9.9z"/>
	<path id="Layer" class="s19" d="m164.6 353.8h51.1c5.4 0 9.9-4.4 9.9-9.9v-40.2c0-5.4-4.5-9.8-9.9-9.8h-51.1c-5.5 0-9.9 4.4-9.9 9.8v40.2c0 5.5 4.4 9.9 9.9 9.9z"/>
	<path id="Layer" class="s11" d="m215.7 353.8c2.6 0 5.1-1.1 7-2.9 1.8-1.9 2.8-4.4 2.8-7v-40.2c0-1.3-0.2-2.6-0.7-3.8-0.5-1.2-1.2-2.2-2.1-3.2-1-0.9-2-1.6-3.2-2.1-1.2-0.5-2.5-0.7-3.8-0.7-1.3 0-2.6 0.2-3.8 0.7-1.2 0.5-2.3 1.2-3.2 2.1-0.9 1-1.6 2-2.1 3.2-0.5 1.2-0.8 2.5-0.8 3.8v40.2c0 2.6 1.1 5.1 2.9 7 1.9 1.8 4.4 2.9 7 2.9z"/>
	<path id="Layer" class="s8" d="m154.9 313.8h-104.4l-15.9-82.2c-0.4-2.1-0.4-4.3 0.2-6.3 0.5-2.1 1.5-4.1 2.8-5.7 1.4-1.7 3.1-3 5.1-3.9 1.9-0.9 4-1.4 6.2-1.4h74.7c3.4 0 6.7 1.2 9.3 3.3 2.6 2.2 4.3 5.2 5 8.5z"/>
	<g id="Layer" style="opacity: .1">
		<path id="Layer" class="s0" d="m154.9 313.8h-104.4l-15.9-82.2c-0.4-2.1-0.4-4.3 0.2-6.3 0.5-2.1 1.5-4.1 2.8-5.7 1.4-1.7 3.1-3 5.1-3.9 1.9-0.9 4-1.4 6.2-1.4h74.7c3.4 0 6.7 1.2 9.3 3.3 2.6 2.2 4.3 5.2 5 8.5z"/>
	</g>
	<path id="Layer" class="s11" d="m154.9 313.6h-74.8l-17-87.6c-0.6-3.3-2.4-6.3-5-8.4-2.6-2.2-5.9-3.3-9.3-3.3h74.8c3.4 0 6.6 1.1 9.2 3.3 2.7 2.1 4.4 5.1 5.1 8.4z"/>
	<path id="Layer" class="s20" d="m152.4 255.7q-1.1-3.4-3-6.4-1.7-2.9-3.8-5.5c-0.5-0.6-1.2-1-2-1.2-0.8-0.2-1.6-0.1-2.3 0.3-0.7 0.3-1.3 0.9-1.7 1.6-0.3 0.7-0.4 1.5-0.2 2.3v0.2c0.3 1.6 0.7 3.2 1 4.8q-1.7-1.9-3.5-3.9c-2.6-2.9-5.2-6-7.6-8.9l-0.1-0.1c-0.8-0.9-1.7-1.6-2.7-2-1.1-0.4-2.2-0.6-3.3-0.5q-0.6 0.1-1.1 0.2-1.4 0.4-2.6 1.2-1.1 0.9-1.8 2.1-0.7 1.2-0.9 2.6-0.1 1.4 0.2 2.7 0.4 1.4 1.2 2.5 2.1 2.7 4.2 5.2c1.5 1.6 2.7 3 4.1 4.5 1.5 1.5 3 3 4.7 4.5q0.7 0.7 1.5 1.4 1.9 1.6 3.9 3.1 1.9 1.3 4 2.2 0.3 0.1 0.7 0.3 0.4 0.1 0.8 0.2 0.5 0.1 1 0.2l0.6 0.1q0.4 0 0.7 0c0.3 0 0.5 0 0.8 0q0.4 0 0.9-0.1 0.6-0.1 1.2-0.3 1.3-0.5 2.5-1.3c1.4-1.1 2.4-2.6 3-4.3q0.4-1.6 0.4-3.3-0.1-2.3-0.8-4.4z"/>
	<path id="Layer" class="s21" d="m152.4 255.7q-1.1-3.4-3-6.4-1.7-2.9-3.8-5.5c-0.5-0.6-1.2-1-2-1.2-0.8-0.2-1.6-0.1-2.3 0.3-0.7 0.3-1.3 0.9-1.7 1.6-0.3 0.7-0.4 1.5-0.2 2.3v0.2c0.3 1.6 0.7 3.2 1 4.8q-1.7-1.9-3.5-3.9c-2.6-2.9-5.2-6-7.6-8.9l-0.1-0.1c-0.8-0.9-1.7-1.6-2.7-2-1.1-0.4-2.2-0.6-3.3-0.5q-0.6 0.1-1.1 0.2-1.4 0.4-2.6 1.2-1.1 0.9-1.8 2.1-0.7 1.2-0.9 2.6-0.1 1.4 0.2 2.7 0.4 1.4 1.2 2.5c1 1.3 2.1 2.6 3.2 3.9l1 1.2q2 2.3 4.1 4.6c1.5 1.5 3 3 4.7 4.5l1.4 1.3q0 0 0.1 0.1 1.9 1.6 3.9 3.1 1.9 1.3 4 2.2 0.3 0.1 0.7 0.2 0.4 0.2 0.8 0.3 0.5 0.1 1 0.2l0.6 0.1q0.4 0 0.7 0c0.3 0 0.5 0 0.8 0q0.4 0 0.9-0.1 0.6-0.1 1.2-0.3 1.3-0.5 2.4-1.3c1.5-1.1 2.5-2.6 3-4.3q0.5-1.6 0.5-3.3-0.1-2.3-0.8-4.4z"/>
	<path id="Layer" class="s20" d="m138.5 246l-0.6-2.9c-0.2-1.1-0.1-2.2 0.2-3.2l0.7-2c0.2-0.6 0.6-1.1 1.1-1.5 0.6-0.3 1.3-0.4 1.9-0.3l2 0.2q0.6 0.1 1.1 0.4 0.4 0.3 0.8 0.8 0.3 0.4 0.5 1 0.1 0.5 0 1.1l-0.3 1.7c0 0-0.2 4.8-2.6 7.8l-1.1-0.2c-0.8-0.2-1.5-0.5-2.2-1-0.6-0.5-1.2-1.2-1.5-1.9z"/>
	<path id="Layer" class="s21" d="m138.5 246l-0.6-2.9c-0.2-1.1-0.1-2.2 0.2-3.2l0.7-2c0.2-0.6 0.6-1.1 1.1-1.5 0.6-0.3 1.3-0.4 1.9-0.3l2 0.2q0.6 0.1 1.1 0.4 0.4 0.3 0.8 0.8 0.3 0.4 0.5 1 0.1 0.5 0 1.1l-0.3 1.7c0 0-0.2 4.8-2.6 7.8l-1.1-0.2c-0.8-0.2-1.5-0.5-2.2-1-0.6-0.5-1.2-1.2-1.5-1.9z"/>
	<path id="Layer" class="s10" d="m132.7 263.2l-1.4-1.3c-1.7-1.5-3.2-3-4.7-4.5-1.5-1.6-2.8-3-4.1-4.6l-1.1-1.2c-0.3-4.6-0.3-8.5 0.4-10.6q0.1-0.3 0.2-0.5 0.5 0.1 0.9 0.3c2.7 1.3 10.1 5.5 9.8 22.4z"/>
	<path id="Layer" class="s22" d="m127.7 240.8c0.5 3.3 7.3 9.9 1.8 15.6 1.8 2.5 6.6 20.5 4.8 24.3-3 3.3-22.3 6.8-38.7 8-2.1-6.4-1.3-20.8-10.2-41.2-2-4.7 2.2-11.7 11.7-15.3 4.2-1.4 8.7-1.7 13.1-0.8 4.6 0.9 16.5 3.4 17.5 9.4z"/>
	<path id="Layer" class="s17" d="m134.3 280.7c-3 3.3-22.3 6.8-38.7 8-1-3.2-1.4-8.5-2.6-15.5-1.1-6.9-2.9-13.7-5.3-20.2q-1-2.7-2.3-5.6c-2-4.7 2.2-11.6 11.7-15.2 4.2-1.4 8.7-1.7 13.1-0.9 4.6 0.9 16.5 3.4 17.5 9.4 0.5 3.4 7.3 9.9 1.8 15.7 1.8 2.5 6.6 20.5 4.8 24.3z"/>
	<path id="Layer" class="s8" d="m122.9 199.9c0 0 4-4.7-6.4-8.6-10.5-3.8-23.5 1-24.6 15.2-1.2 14.1-7.8 16.5-1.9 21.3 6 4.9 15.5-0.5 24.5 0.6 9 1.1 10.4 5.1 11.7-2.7 1.4-7.9 0.4-17.9 0.4-17.9 0 0 1.7-7.4-3.7-7.9z"/>
	<path id="Layer" class="s20" d="m100.9 215.7c0 5.2-0.8 13.4-3.8 17.2 0 0 4.6 3.3 15.7 10.2 4-7.1-0.5-8.5-0.5-8.5-3.6-1.9-2.6-4.4-1.7-8z"/>
	<path id="Layer" class="s10" d="m110.5 226.6l-8.5-7c-0.3 1.1-0.3 2.2 0.1 3.2 1.2 3.3 4.7 6.3 7.9 8.1q-0.1-2.2 0.5-4.3z"/>
	<path id="Layer" class="s10" d="m87.1 251.5q2.5 6.5 4.2 13.4c2.6-5.9 4.9-16 3.8-20.3z"/>
	<path id="Layer" class="s20" d="m100 205.9c-0.6 8.3-1 11.9 2.6 16.7 5.3 7.2 15.5 6 18.6-2 2.7-7.3 3.1-19.7-4.4-24-7.6-4.3-16.3 0.9-16.8 9.3z"/>
	<path id="Layer" class="s8" d="m111.8 212.5c-0.1 0.6 0.2 1.2 0.6 1.2 0.4 0.1 0.8-0.4 0.9-1 0-0.6-0.2-1.1-0.6-1.2-0.4 0-0.8 0.4-0.9 1z"/>
	<path id="Layer" class="s8" d="m119.3 213.6c0 0.6 0.2 1.2 0.6 1.2 0.4 0.1 0.8-0.4 0.9-1 0.1-0.6-0.2-1.1-0.6-1.2-0.4 0-0.8 0.4-0.9 1z"/>
	<path id="Layer" class="s8" d="m120 212.6l1.5-0.2c0 0-0.8 1-1.5 0.2z"/>
	<path id="Layer" class="s23" d="m117.4 213.5q0.6 2.3 1.7 4.2-0.5 0.3-1.1 0.4-0.6 0-1.1-0.2z"/>
	<path id="Layer" class="s20" d="m97.1 212.9q0.2 1.2 0.7 2.2 0.6 1 1.6 1.6c1.6 1.1 3.1-0.6 3.2-2.7 0.1-1.9-0.6-4.8-2.5-5-1.9-0.2-3.3 1.9-3 3.9z"/>
	<path id="Layer" class="s8" d="m110.8 208.6q0.1 0 0.3-0.1 0.4-0.5 1.1-0.8 0.6-0.2 1.3-0.1 0.1 0 0.1-0.1 0.1 0 0.2 0 0 0 0.1-0.1 0-0.1 0-0.1 0-0.1 0-0.2 0-0.1 0-0.1-0.1-0.1-0.1-0.1-0.1 0-0.2-0.1-0.8-0.1-1.7 0.2-0.8 0.3-1.4 1-0.1 0.1-0.1 0.2 0 0.2 0.1 0.3 0.1 0.1 0.3 0.1z"/>
	<path id="Layer" class="s8" d="m122.5 210.7q0.1 0 0.3-0.1 0 0 0.1-0.1 0-0.1 0-0.1 0-0.1 0-0.2 0-0.1 0-0.1-0.5-0.7-1.3-1.1-0.7-0.5-1.6-0.5-0.1 0-0.3 0.1-0.1 0.1 0 0.3 0 0.1 0.1 0.2 0.1 0.1 0.2 0.1 0.7 0.1 1.3 0.4 0.6 0.3 1 0.9 0.1 0.1 0.2 0.2z"/>
	<path id="Layer" class="s8" d="m112.5 211.5l1.5-0.2c0 0-0.9 1-1.5 0.2z"/>
	<path id="Layer" class="s8" d="m119.7 197.2c-2.1 7.5-16.4 13.6-20.5 14.3-4 0.6-4.4-6.9-0.3-11.6 4.2-4.8 13.1-8.9 20.8-2.7z"/>
	<path id="Layer" class="s8" d="m118.5 197.6c-0.5 3.2-2.2 6.1-4.6 8.2 0 0 5.1-1.3 7.6-4.9z"/>
	<path id="Layer" class="s8" d="m115 220.9q-1.2 0.9-2.3 1.9l-0.4-0.3c-2-1.4-2.4-2.8-2.2-3.8q0.1-0.7 0.5-1.3 0.2-0.4 0.6-0.7c0.8 1.5 1.8 2.7 3.1 3.7q0.7 0.5 0.7 0.5z"/>
	<path id="Layer" class="s0" d="m114.4 220.4l-0.7 0.5c-1.8-1.3-2.9-2.6-3-3.5q0.2-0.4 0.6-0.7c0.7 1.5 1.8 2.7 3.1 3.7z"/>
	<path id="Layer" class="s24" d="m112.3 222.5c-1.9-1.4-2.3-2.8-2.2-3.8q1.1 0.9 1.8 2c0.3 0.6 0.5 1.2 0.4 1.8z"/>
	<path id="Layer" class="s8" d="m131.8 244.9q-0.1 0.2 0 0.3 0 0.1 0.1 0.2 0 0.2 0.1 0.2 0.2 0.1 0.3 0.1l7 1q0.3 0.1 0.6-0.1 0.2-0.2 0.3-0.5l3.5-13.6q0-0.1 0-0.3 0-0.1-0.1-0.2-0.1-0.2-0.2-0.2-0.1-0.1-0.2-0.2l-7-1q-0.3 0-0.6 0.2-0.3 0.2-0.3 0.5z"/>
	<path id="Layer" class="s15" d="m136 231.3l-3.5 13.8q0 0.1 0 0.2 0 0.2 0.1 0.3 0 0.1 0.1 0.1 0.1 0.1 0.3 0.1l5.9 0.8c0.4 0.1 1.2 0 1.3-0.4l3.5-13.8c0.1-0.4-0.5-0.8-0.9-0.8l-6-0.9q-0.2 0-0.5 0.2-0.2 0.2-0.3 0.4z"/>
	<path id="Layer" class="s20" d="m126 246.7l2.4-5.2 7.5 5.5c0 0-3.3 4.5-7.5 5.8l-0.8-0.9c-0.7-0.7-1.1-1.5-1.4-2.5-0.3-0.9-0.4-1.8-0.2-2.7z"/>
	<path id="Layer" class="s20" d="m134.4 239.9l2.4 2.3q0.3 0.3 0.6 0.8 0.2 0.5 0.2 1 0 0.6-0.2 1.1-0.2 0.5-0.5 0.9l-1 1-7.5-5.5 2.6-1.8c0.5-0.4 1.1-0.6 1.8-0.5 0.6 0 1.2 0.3 1.6 0.7z"/>
	<path id="Layer" class="s10" d="m103.4 274.6c-3.1 2.2-7.2 0.6-10.4-1.5-1.1-6.8-2.9-13.6-5.3-20.1q0.2-0.6 0.7-1c3.1-2.6 20.8 18.4 15 22.6z"/>
	<path id="Layer" class="s20" d="m97.2 244.3c0.1 0.4 0.3 1.1 0.4 1.7l0.4 1.7q0.5 1.8 1 3.6 0.9 3.4 2.3 6.6 1.2 2.9 3 5.4 0.7 0.8 1.6 1.5 0.5 0.5 1.2 0.7c0 0 0.3 0.1-0.2 0h-0.3-0.3c-0.3 0.1-0.4 0.1-0.4 0.2 0 0 0.3-0.1 0.6-0.3q1.4-0.7 2.5-1.7 2.9-2.4 5.5-5c3.7-3.6 7.3-7.6 11-11.5v-0.1c0.6-0.6 1.4-1 2.2-1 0.8-0.1 1.7 0.1 2.4 0.6 0.7 0.4 1.2 1.1 1.4 2 0.2 0.8 0.1 1.6-0.3 2.4q-3.7 7.5-8.6 14.4-2.5 3.6-5.5 6.9-1.7 1.8-3.8 3.3-1.4 1.1-2.9 1.7-1.2 0.5-2.4 0.7c-0.2 0-0.5 0.1-0.8 0.1q-0.4 0-0.9 0-0.5 0-1.1-0.1c-2.2-0.3-4.4-1-6.3-2.2q-2.6-1.5-4.6-3.7c-2.3-2.5-4.2-5.3-5.6-8.4q-2-4.1-3.3-8.5-0.7-2.1-1.2-4.3-0.3-1.1-0.5-2.2c-0.1-0.7-0.2-1.4-0.4-2.3-0.3-1.8 0.1-3.7 1.2-5.2 1-1.6 2.7-2.6 4.5-2.9 1.8-0.4 3.7 0 5.3 1.1 1.5 1.1 2.5 2.7 2.9 4.5z"/>
	<path id="Layer" class="s25" d="m266.9 324c-5.7 4.3-12.5 3.9-15.6-0.3-1.7-2.3-8.7 3.6-8.7 3.6 7 5.6 6.5 7.8 7.6 9.9 1 2.1 2.8 3.9 4.3 2.6 1.7-1.4 2.2-2.5 4.4-4.2 2.5-2.1 5.2-4.4 9.6-8.3 1.7-1.5 0.9-5.2-1.6-3.3z"/>
	<path id="Layer" class="s8" d="m253.5 323.8l-7 7.3c-10.6-4.2-19.4-8-26.7-11.5-34-16.4-36.4-25.9-41.2-26.4-0.9 0.1-1.9 0.3-2.7 0.8-11.1 4.7-46.7 30.4-65 25-20.4-6-15.3-30.3-15.3-30.3 54.6-18.1 88.8-20.8 102.8-12 14 8.8 55.1 47.1 55.1 47.1z"/>
	<path id="Layer" class="s10" d="m219.8 319.6c-34-16.4-36.4-25.9-41.2-26.4-0.9 0.1-1.9 0.3-2.7 0.8l0.1-0.5c0 0 14.7-3.9 24.6-0.4 7.2 2.4 15.3 18.1 19.2 26.5z"/>
	<path id="Layer" class="s8" d="m191.3 351.4l2.9 18.2h-6.3l-5.9-17.3z"/>
	<path id="Layer" class="s8" d="m111.2 351.4l-3 18.2h6.4l5.8-17.3z"/>
	<path id="Layer" class="s19" d="m191.3 351.4l2.9 18.2h-6.3l-5.9-17.3z"/>
	<path id="Layer" class="s19" d="m111.2 351.4l-3 18.2h6.4l5.8-17.3z"/>
	<path id="Layer" class="s8" d="m145.5 351.4l3 18.2h-6.4l-5.8-17.3z"/>
	<path id="Layer" class="s8" d="m58.6 351.4l-3 18.2h6.4l5.8-17.3z"/>
	<path id="Layer" class="s8" d="m196.6 313.6h-143.1c-4 0-7.3 3.3-7.3 7.3v27.8c0 4 3.3 7.3 7.3 7.3h143.1c4.1 0 7.4-3.3 7.4-7.3v-27.8c0-4-3.3-7.3-7.4-7.3z"/>
	<path id="Layer" class="s19" d="m196.6 313.6h-143.1c-4 0-7.3 3.3-7.3 7.3v27.8c0 4 3.3 7.3 7.3 7.3h143.1c4.1 0 7.4-3.3 7.4-7.3v-27.8c0-4-3.3-7.3-7.4-7.3z"/>
	<path id="Layer" class="s11" d="m196.7 313.6h-88.1c-4 0-7.3 3.3-7.3 7.3v27.8c0 4 3.3 7.3 7.3 7.3h88.1c4 0 7.3-3.3 7.3-7.3v-27.8c0-4-3.3-7.3-7.3-7.3z"/>
	<path id="Layer" class="s8" d="m38.9 353.8h51.1c5.4 0 9.9-4.4 9.9-9.9v-40.2c0-5.4-4.5-9.8-9.9-9.8h-51.1c-5.5 0-9.9 4.4-9.9 9.8v40.2c0 5.5 4.4 9.9 9.9 9.9z"/>
	<path id="Layer" class="s19" d="m38.9 353.8h51.1c5.4 0 9.9-4.4 9.9-9.9v-40.2c0-5.4-4.5-9.8-9.9-9.8h-51.1c-5.5 0-9.9 4.4-9.9 9.8v40.2c0 5.5 4.4 9.9 9.9 9.9z"/>
	<path id="Layer" class="s11" d="m90 353.8c2.6 0 5.1-1.1 7-2.9 1.8-1.9 2.9-4.4 2.9-7v-40.2c0-1.3-0.3-2.6-0.8-3.8-0.5-1.2-1.2-2.2-2.1-3.2-0.9-0.9-2-1.6-3.2-2.1-1.2-0.5-2.5-0.7-3.8-0.7-1.3 0-2.6 0.2-3.8 0.7-1.2 0.5-2.3 1.2-3.2 2.1-0.9 1-1.6 2-2.1 3.2-0.5 1.2-0.8 2.5-0.8 3.8v40.2c0 2.6 1.1 5.1 2.9 7 1.9 1.8 4.4 2.9 7 2.9z"/>
	<path id="Layer" class="s25" d="m211.4 363.5c0.1-3.8-0.3-7.6-1.3-11.3 0 0 7.4-3.9 7.8-1.1 0.7 5.1 5.5 12.6 11.4 13.6 3.4 0.6 1.1 3.1-1.3 3.8-3.9 1-4.2 0.4-7.6-0.6-2.9-0.9-4-1.3-6.4-0.6-1.9 0.5-2.5-1.4-2.6-3.8z"/>
	<path id="Layer" class="s8" d="m219 351.4l-9 4.3c0 0-22.1-32.8-25.3-41.5 0 0-15 0.3-35.4-0.3-3.7-0.1-5.9 0-9.9-0.3 0 0 19.2-17.3 36.6-20.1q1.3-0.2 2.6-0.3c0 0 15.4-1.2 19.8 2.6 4.4 3.7 20.6 55.6 20.6 55.6z"/>
	<path id="Layer" class="s10" d="m176 293.5c-6.8 8.1-17.9 15.3-26.7 20.4-3.7-0.1-5.9 0-9.9-0.3 0 0 19.3-17.3 36.6-20.1z"/>
	<path id="Layer" fill-rule="evenodd" class="s0" d="m53.6 130v-1.1l2.6-2.4q0.3-0.3 0.5-0.6 0.3-0.2 0.4-0.5 0.1-0.2 0.1-0.5 0-0.3-0.2-0.6-0.1-0.2-0.3-0.3-0.3-0.2-0.6-0.2-0.4 0-0.6 0.2-0.3 0.1-0.4 0.4-0.1 0.2-0.1 0.6h-1.5q0-0.7 0.3-1.3 0.4-0.5 0.9-0.8 0.6-0.3 1.4-0.3 0.8 0 1.4 0.3 0.5 0.3 0.9 0.8 0.3 0.5 0.3 1.1 0 0.4-0.2 0.8-0.1 0.4-0.6 0.9-0.4 0.5-1.1 1.2l-1.1 1h3.1v1.3zm9.1 0.2q-0.9 0-1.6-0.5-0.6-0.4-1-1.3-0.3-0.8-0.3-2 0-1.2 0.3-2.1 0.4-0.8 1.1-1.2 0.6-0.5 1.5-0.5 0.9 0 1.6 0.5 0.7 0.4 1 1.2 0.4 0.9 0.4 2.1 0 1.2-0.4 2-0.3 0.9-1 1.3-0.7 0.5-1.6 0.5zm0-1.3q0.7 0 1-0.6 0.4-0.7 0.4-1.9 0-0.9-0.2-1.4-0.1-0.6-0.5-0.8-0.3-0.3-0.7-0.3-0.6 0-1 0.6-0.3 0.6-0.3 1.9 0 0.8 0.1 1.4 0.2 0.5 0.5 0.8 0.3 0.3 0.7 0.3zm8-0.3v-0.3q0-0.5 0.2-0.9 0.2-0.3 0.6-0.5 0.3-0.3 0.8-0.3 0.6 0 0.9 0.3 0.4 0.2 0.6 0.5 0.1 0.4 0.1 0.9v0.3q0 0.5-0.1 0.8-0.2 0.4-0.6 0.6-0.3 0.3-0.9 0.3-0.5 0-0.8-0.3-0.4-0.2-0.6-0.6-0.2-0.3-0.2-0.8zm-3.2 1.4l5-7.3h0.9l-5 7.3zm-0.5-5.5v-0.4q0-0.4 0.2-0.8 0.2-0.4 0.6-0.6 0.3-0.2 0.8-0.2 0.6 0 0.9 0.2 0.4 0.2 0.6 0.6 0.1 0.4 0.1 0.8v0.4q0 0.4-0.1 0.8-0.2 0.3-0.6 0.6-0.3 0.2-0.9 0.2-0.5 0-0.8-0.2-0.4-0.3-0.6-0.6-0.2-0.4-0.2-0.8zm1.1-0.4v0.4q0 0.2 0.1 0.5 0.1 0.2 0.4 0.2 0.4 0 0.5-0.2 0.1-0.3 0.1-0.5v-0.4q0-0.3-0.1-0.5-0.1-0.2-0.5-0.2-0.3 0-0.4 0.2-0.1 0.2-0.1 0.5zm3.7 4.2v0.3q0 0.3 0.1 0.5 0.1 0.2 0.5 0.2 0.3 0 0.4-0.2 0.1-0.2 0.1-0.5v-0.3q0-0.3-0.1-0.5-0.1-0.3-0.4-0.3-0.3 0-0.5 0.3-0.1 0.2-0.1 0.5zm12.6-1.9q0 1.2-0.4 2-0.5 0.8-1.2 1.3-0.8 0.4-1.8 0.4-1 0-1.7-0.4-0.8-0.5-1.2-1.3-0.5-0.9-0.5-2 0-1.2 0.5-2.1 0.4-0.8 1.2-1.2 0.7-0.5 1.7-0.5 1 0 1.8 0.5 0.7 0.4 1.2 1.2 0.4 0.9 0.4 2.1zm-1.5 0q0-0.8-0.3-1.3-0.2-0.6-0.6-0.8-0.4-0.3-1-0.3-0.5 0-1 0.3-0.4 0.2-0.6 0.8-0.2 0.5-0.2 1.3 0 0.7 0.2 1.3 0.2 0.5 0.6 0.8 0.5 0.2 1 0.2 0.6 0 1-0.2 0.4-0.3 0.6-0.8 0.3-0.6 0.3-1.3zm2.7 3.6v-7.3h4.8v1.3h-3.3v1.7h3v1.3h-3v3zm5.9 0v-7.3h4.8v1.3h-3.3v1.7h2.9v1.3h-2.9v3z"/>
</svg>