<svg version="1.2" xmlns="http://www.w3.org/2000/svg" viewBox="0 0 442 452" width="442" height="452">
	<title>Review-svg</title>
	<style>
		.s0 { fill: #f5f5f5 } 
		.s1 { fill: #e0e0e0 } 
		.s2 { fill: #ebebeb } 
		.s3 { fill: #fafafa } 
		.s4 { fill: #ffffff } 
		.s5 { fill: #455a64 } 
		.s6 { fill: #ff5833 } 
		.s7 { fill: #263238 } 
		.s8 { fill: #f9b7a2 } 
		.s9 { fill: #eb856e } 
		.s10 { fill: #ffbe9d } 
		.s11 { fill: #eb996e } 
		.s12 { fill: #000000 } 
		.s13 { fill: #ff7551 } 
		.s14 { fill: #ed7240 } 
		.s15 { fill: none;stroke: #455a64 } 
	</style>
	<path id="Layer" class="s0" d="m144.8 9.8h-114.5v54.4h46.6l17.4 17.4 17.4-17.4h33.1z"/>
	<path id="Layer" fill-rule="evenodd" class="s1" d="m56.6 38.4q-0.5 0.8-1.2 1.6l-4.6 6.1q-0.2 0.3-0.5 0.4-0.3 0.2-0.7 0.2-0.3 0-0.6-0.2-0.3-0.1-0.6-0.4l-4.7-6.3c-0.4-0.5-0.8-0.9-1.1-1.4-0.6-1.1-1-2.3-1.1-3.5 0-1.3 0.1-2.5 0.6-3.7 0.5-1.1 1.2-2.2 2.2-3 0.9-0.8 2-1.4 3.2-1.8 1.2-0.3 2.5-0.3 3.7-0.1 1.2 0.2 2.4 0.8 3.4 1.5 1 0.8 1.8 1.8 2.3 2.9 0.6 1.1 0.9 2.3 0.9 3.6 0 1.4-0.4 2.9-1.2 4.1zm-4.4-1.6c0.6-0.7 1-1.6 1-2.6 0-0.7-0.2-1.3-0.6-1.9-0.4-0.6-0.9-1.1-1.6-1.3-0.6-0.3-1.4-0.4-2.1-0.3-0.6 0.2-1.3 0.5-1.8 1-0.5 0.5-0.8 1.2-1 1.9-0.1 0.6 0 1.4 0.2 2 0.3 0.7 0.8 1.2 1.4 1.6 0.5 0.4 1.2 0.6 1.9 0.6 1 0 1.9-0.4 2.6-1z"/>
	<path id="Layer" class="s1" d="m133.4 40.1c0 0.1-15.3 0.3-34.1 0.3-18.8 0-34.1-0.2-34.1-0.3 0-0.1 15.3-0.3 34.1-0.3 18.9 0 34.1 0.2 34.1 0.3z"/>
	<path id="Layer" class="s1" d="m111.7 47.4c0 0.2-10.4 0.3-23.2 0.3-12.8 0-23.3-0.1-23.3-0.3 0-0.1 10.4-0.3 23.3-0.3 12.8 0 23.2 0.2 23.2 0.3z"/>
	<path id="Layer" class="s1" d="m69.4 23.2l1.6 3.1 3.4 0.5-2.5 2.5 0.6 3.5-3.1-1.7-3.1 1.7 0.6-3.5-2.5-2.5 3.5-0.5z"/>
	<path id="Layer" class="s1" d="m84.1 23.2l1.6 3.1 3.5 0.5-2.5 2.5 0.6 3.5-3.2-1.7-3.1 1.7 0.6-3.5-2.5-2.5 3.5-0.5z"/>
	<path id="Layer" class="s1" d="m98.9 23.2l1.5 3.1 3.5 0.5-2.5 2.5 0.6 3.5-3.1-1.7-3.1 1.7 0.6-3.5-2.6-2.5 3.5-0.5z"/>
	<path id="Layer" class="s2" d="m113.6 23.2l1.6 3.1 3.5 0.5-2.5 2.5 0.6 3.5-3.2-1.7-3.1 1.7 0.6-3.5-2.5-2.5 3.5-0.5z"/>
	<path id="Layer" class="s2" d="m128.4 23.2l1.5 3.1 3.5 0.5-2.5 2.5 0.6 3.5-3.1-1.7-3.1 1.7 0.6-3.5-2.6-2.5 3.5-0.5z"/>
	<path id="Layer" class="s0" d="m408.6 142.9c0.6-4.3-5.6-8-10.2-8.3-2.2-0.2-4.5 0.1-6.6-0.6-4.5-1.6-6.4-7.4-10.8-9.3-3.3-1.4-7.1-0.1-10.3 1.5-3.2 1.6-6.4 3.6-10 3.8-3.1 0.2-6.5-1-9.3 0.6-2 1.1-3 3.5-5 4.9-1.9 1.3-4.2 1.6-6.5 1.7-2.2 0.1-4.6 0.2-6.7 1.1-2 1-3.7 3.2-3.3 5.4z"/>
	<path id="Layer" class="s0" d="m94.4 186.2c0.6-4.4-5.5-8-10.2-8.3-2.2-0.2-4.5 0.1-6.6-0.6-4.5-1.6-6.3-7.5-10.7-9.3-3.4-1.4-7.2-0.2-10.4 1.4-3.2 1.7-6.4 3.7-10 3.9-3.1 0.2-6.5-1-9.2 0.6-2 1.1-3.1 3.5-5 4.8-1.9 1.4-4.2 1.7-6.5 1.8-2.3 0.1-4.7 0.1-6.7 1.1-2.1 0.9-3.8 3.1-3.4 5.4z"/>
	<path id="Layer" class="s2" d="m62.8 140.1c0.4-3.2-4.1-5.8-7.5-6.1-1.6-0.1-3.3 0.1-4.9-0.4-3.3-1.2-4.6-5.5-7.9-6.9-2.4-1-5.2-0.1-7.6 1.1-2.3 1.2-4.7 2.7-7.3 2.9-2.3 0.1-4.8-0.8-6.8 0.4-1.5 0.8-2.3 2.5-3.7 3.5-1.4 0.9-3 1.4-4.7 1.3-1.7 0-3.4 0.3-5 0.8-1.5 0.7-2.7 2.4-2.4 4z"/>
	<path id="Layer" class="s2" d="m436.4 23.3c0.4-3.2-4.1-5.9-7.5-6.1-1.6-0.2-3.3 0.1-4.9-0.5-3.3-1.1-4.6-5.4-7.9-6.8-2.4-1-5.2-0.1-7.6 1.1-2.3 1.2-4.7 2.6-7.3 2.8-2.3 0.2-4.8-0.7-6.8 0.4-1.5 0.9-2.3 2.6-3.6 3.6-1.5 0.9-3.1 1.3-4.8 1.3-1.7 0-3.4 0.2-4.9 0.8-1.5 0.7-2.8 2.3-2.5 4z"/>
	<path id="Layer" class="s0" d="m428.3 181.3h-83.2v263.8h83.2z"/>
	<path id="Layer" class="s2" d="m428.3 181.3h-41.6v263h41.6z"/>
	<path id="Layer" class="s0" d="m384 155.4h-29.4v25.9h29.4z"/>
	<path id="Layer" class="s2" d="m383.9 155.4h-6.9v25.9h7z"/>
	<path id="Layer" class="s1" d="m338.1 181.3v-1.5h92.6v1.5"/>
	<path id="Layer" class="s3" d="m368.5 192.6h-7v14.9h7z"/>
	<path id="Layer" class="s1" d="m386.7 213.3c0 0.1-9.3 0.3-20.8 0.3-11.5 0-20.8-0.2-20.8-0.3 0-0.2 9.3-0.3 20.8-0.3 11.5 0 20.8 0.1 20.8 0.3z"/>
	<path id="Layer" class="s1" d="m410.5 192.6h-7v14.9h7z"/>
	<path id="Layer" class="s1" d="m428.6 213.3c0 0.1-9.3 0.3-20.8 0.3-11.4 0-20.8-0.2-20.8-0.3 0-0.2 9.4-0.3 20.8-0.3 11.5 0 20.8 0.1 20.8 0.3z"/>
	<path id="Layer" class="s1" d="m410.5 222.1h-7v14.8h7z"/>
	<path id="Layer" class="s1" d="m428.6 242.8c0 0.1-9.3 0.3-20.8 0.3-11.4 0-20.8-0.2-20.8-0.3 0-0.2 9.4-0.3 20.8-0.3 11.5 0 20.8 0.1 20.8 0.3z"/>
	<path id="Layer" class="s1" d="m410.5 252.5h-7v14.8h7z"/>
	<path id="Layer" class="s1" d="m428.6 273.2c0 0.1-9.3 0.3-20.8 0.3-11.4 0-20.8-0.2-20.8-0.3 0-0.2 9.4-0.3 20.8-0.3 11.5 0 20.8 0.1 20.8 0.3z"/>
	<path id="Layer" class="s1" d="m410.5 282.9h-7v14.8h7z"/>
	<path id="Layer" class="s1" d="m428.6 303.6c0 0.1-9.3 0.2-20.8 0.2-11.4 0-20.8-0.1-20.8-0.3 0-0.1 9.4-0.2 20.8-0.2 11.5 0 20.8 0.1 20.8 0.2z"/>
	<path id="Layer" class="s1" d="m410.5 312.4h-7v14.8h7z"/>
	<path id="Layer" class="s1" d="m428.6 333.1c0 0.1-9.3 0.2-20.8 0.2-11.4 0-20.8-0.1-20.8-0.2 0-0.2 9.4-0.3 20.8-0.3 11.5 0 20.8 0.1 20.8 0.3z"/>
	<path id="Layer" class="s1" d="m410.5 342h-7v14.9h7z"/>
	<path id="Layer" class="s1" d="m410.5 372h-7v14.9h7z"/>
	<path id="Layer" class="s1" d="m428.6 362.7c0 0.2-9.3 0.3-20.8 0.3-11.4 0-20.8-0.1-20.8-0.3 0-0.2 9.4-0.3 20.8-0.3 11.5 0 20.8 0.1 20.8 0.3z"/>
	<path id="Layer" class="s3" d="m368.5 222.6h-7v14.8h7z"/>
	<path id="Layer" class="s1" d="m386.7 243.2c0 0.2-9.3 0.3-20.8 0.3-11.5 0-20.8-0.1-20.8-0.3 0-0.1 9.3-0.3 20.8-0.3 11.5 0 20.8 0.2 20.8 0.3z"/>
	<path id="Layer" class="s3" d="m368.5 252.5h-7v14.8h7z"/>
	<path id="Layer" class="s1" d="m386.7 273.2c0 0.1-9.3 0.3-20.8 0.3-11.5 0-20.8-0.2-20.8-0.3 0-0.2 9.3-0.3 20.8-0.3 11.5 0 20.8 0.1 20.8 0.3z"/>
	<path id="Layer" class="s3" d="m368.5 282.4h-7v14.9h7z"/>
	<path id="Layer" class="s1" d="m386.7 303.1c0 0.2-9.3 0.3-20.8 0.3-11.5 0-20.8-0.1-20.8-0.3 0-0.1 9.3-0.3 20.8-0.3 11.5 0 20.8 0.2 20.8 0.3z"/>
	<path id="Layer" class="s3" d="m368.5 312.4h-7v14.8h7z"/>
	<path id="Layer" class="s1" d="m386.7 333.1c0 0.1-9.3 0.2-20.8 0.2-11.5 0-20.8-0.1-20.8-0.2 0-0.2 9.3-0.3 20.8-0.3 11.5 0 20.8 0.1 20.8 0.3z"/>
	<path id="Layer" class="s3" d="m368.5 342.3h-7v14.9h7z"/>
	<path id="Layer" class="s1" d="m386.7 363c0 0.2-9.3 0.3-20.8 0.3-11.5 0-20.8-0.1-20.8-0.3 0-0.2 9.3-0.3 20.8-0.3 11.5 0 20.8 0.1 20.8 0.3z"/>
	<path id="Layer" class="s3" d="m368.5 372.3h-7v14.8h7z"/>
	<path id="Layer" class="s1" d="m167.8 251.7h-61.3v193.6h61.3z"/>
	<path id="Layer" class="s2" d="m102.5 213.6h-43.2v38.1h43.3z"/>
	<path id="Layer" class="s1" d="m102.5 213.6h-10.3v38.1h10.3z"/>
	<path id="Layer" class="s1" d="m171.4 249.5h-136.3v2.2h136.3z"/>
	<path id="Layer" class="s4" d="m79.9 268.4h-10.4v21.8h10.4z"/>
	<path id="Layer" class="s1" d="m106.5 298.8c0 0.2-13.7 0.4-30.6 0.4-16.9 0-30.6-0.2-30.6-0.4 0-0.2 13.7-0.4 30.6-0.4 16.9 0 30.6 0.2 30.6 0.4z"/>
	<path id="Layer" class="s0" d="m141.6 268.4h-10.3v21.8h10.3z"/>
	<path id="Layer" class="s2" d="m168.3 298.8c0 0.2-13.7 0.4-30.6 0.4-16.9 0-30.6-0.2-30.6-0.4 0-0.2 13.7-0.4 30.6-0.4 16.9 0 30.6 0.2 30.6 0.4z"/>
	<path id="Layer" class="s0" d="m141.6 311.8h-10.3v21.8h10.3z"/>
	<path id="Layer" class="s2" d="m168.3 342.2c0 0.2-13.7 0.4-30.6 0.4-16.9 0-30.6-0.2-30.6-0.4 0-0.2 13.7-0.4 30.6-0.4 16.9 0 30.6 0.2 30.6 0.4z"/>
	<path id="Layer" class="s0" d="m141.6 356.5h-10.3v21.8h10.3z"/>
	<path id="Layer" class="s2" d="m168.3 386.9c0 0.2-13.7 0.4-30.6 0.4-16.9 0-30.6-0.2-30.6-0.4 0-0.2 13.7-0.4 30.6-0.4 16.9 0 30.6 0.2 30.6 0.4z"/>
	<path id="Layer" class="s0" d="m141.6 401.2h-10.3v21.8h10.3z"/>
	<path id="Layer" class="s2" d="m168.3 431.6c0 0.2-13.7 0.4-30.6 0.4-16.9 0-30.6-0.2-30.6-0.4 0-0.2 13.7-0.4 30.6-0.4 16.9 0 30.6 0.2 30.6 0.4z"/>
	<path id="Layer" class="s4" d="m79.9 312.4h-10.4v21.9h10.4z"/>
	<path id="Layer" class="s1" d="m106.5 342.9c0 0.2-13.7 0.4-30.6 0.4-16.9 0-30.6-0.2-30.6-0.4 0-0.3 13.7-0.5 30.6-0.5 16.9 0 30.6 0.2 30.6 0.5z"/>
	<path id="Layer" class="s4" d="m79.9 356.5h-10.4v21.8h10.4z"/>
	<path id="Layer" class="s1" d="m106.5 386.9c0 0.3-13.7 0.4-30.6 0.4-16.9 0-30.6-0.2-30.6-0.4 0-0.2 13.7-0.4 30.6-0.4 16.9 0 30.6 0.2 30.6 0.4z"/>
	<path id="Layer" class="s4" d="m79.9 400.5h-10.4v21.9h10.4z"/>
	<path id="Layer" class="s1" d="m106.5 431c0 0.2-13.7 0.4-30.6 0.4-16.9 0-30.6-0.2-30.6-0.4 0-0.2 13.7-0.4 30.6-0.4 16.9 0 30.6 0.2 30.6 0.4z"/>
	<path id="Layer" class="s5" d="m340.1 444.9l-145.2-0.1c-8.4 0-16.4-3.3-22.4-9.3-5.9-5.9-9.2-14-9.2-22.3l0.1-364c0-4.2 0.8-8.3 2.4-12.2 1.5-3.8 3.9-7.3 6.8-10.2 3-3 6.4-5.3 10.3-6.9 3.8-1.6 7.9-2.4 12.1-2.4l145.2 0.1c8.4 0 16.4 3.3 22.4 9.3 5.9 5.9 9.2 13.9 9.2 22.3l-0.1 364c0.1 4.2-0.8 8.3-2.4 12.1-1.5 3.9-3.9 7.4-6.8 10.3-3 2.9-6.4 5.3-10.3 6.9-3.8 1.6-7.9 2.4-12.1 2.4z"/>
	<path id="Layer" class="s0" d="m341.1 28.4l-28.2-0.1q-1.4 0-2.7 0.6-1.3 0.5-2.2 1.5-1 1-1.5 2.3-0.5 1.3-0.5 2.7v5.1q0 1.4-0.5 2.7-0.5 1.3-1.5 2.4-0.9 1-2.2 1.5-1.3 0.6-2.7 0.6l-55.1-0.3q-1.4 0-2.7-0.6-1.2-0.5-2.2-1.6-1-1-1.5-2.3-0.5-1.3-0.4-2.7v-5.1q0-1.4-0.5-2.7-0.5-1.3-1.4-2.3-1-1-2.3-1.6-1.3-0.6-2.7-0.6h-9.9l-24.7-0.1c-2.9 0-5.8 0.5-8.5 1.6-2.7 1.1-5.2 2.8-7.3 4.8-2 2.1-3.7 4.5-4.8 7.2-1.2 2.7-1.7 5.6-1.8 8.5l-1.5 356.6c0 5.9 2.4 11.5 6.5 15.7 4.2 4.2 9.8 6.5 15.7 6.6l145.4 0.6c2.9 0 5.8-0.5 8.5-1.6 2.7-1.1 5.2-2.8 7.3-4.8 2-2.1 3.7-4.5 4.8-7.2 1.2-2.7 1.7-5.6 1.7-8.5l1.6-356.6c0-2.9-0.6-5.8-1.7-8.5-1.1-2.7-2.7-5.1-4.8-7.2-2-2.1-4.5-3.7-7.2-4.9-2.7-1.1-5.6-1.7-8.5-1.7z"/>
	<path id="Layer" class="s0" d="m279.4 362.1c-0.2 4.3-0.3 8.3-0.4 11.6h20.8l-2.5-12.8z"/>
	<path id="Layer" class="s0" d="m194.5 367.4l0.2 6.3h82.2c0.1-3.5 0.3-7.5 0.4-11.5z"/>
	<path id="Layer" class="s0" d="m298.3 360.9l2.6 12.9h38.5l-0.5-15.5z"/>
	<path id="Layer" class="s2" d="m281.5 180.6l7.3-42.3-19.1-1.4v43.7z"/>
	<path id="Layer" class="s0" d="m192.8 344l-20.7 8.1-0.1 14.7 21.4-1.4z"/>
	<path id="Layer" class="s2" d="m192.7 340.7l-1.1-39.3v-13.9l-19.2 2-0.3 59.2 20.6-8z"/>
	<path id="Layer" class="s0" d="m191.6 256.5l-19.1-2.5-0.1 32.4 19.2-2z"/>
	<path id="Layer" class="s0" d="m333.5 288.1l-0.8 11.3-22.5 2.4 1.7 8.9 25.6-1.9-0.4-12.8 2-8.5z"/>
	<path id="Layer" class="s0" d="m292.9 312.1l18-1.3-3.9-20-15.7 1.5z"/>
	<path id="Layer" class="s2" d="m293.1 314.2l1.4 16.7 2.4 22.9 1 5 41-2.6-1.4-45.3z"/>
	<path id="Layer" fill-rule="evenodd" class="s0" d="m191.8 253.4l-19.3-2.5 0.3-58 50.7-9.2h57.9l2 25.3-60.1 5.8 0.2 2.1 60.1-5.8 4 48.5-60.7-8-0.4 3.1 61.4 8 2.3 28.7-64.3 6.5-33.3 2.3v-43.7l31.6-18.4-1.6-2.7zm33.3 40.8l-3.4-49.2-25.8 13.7c0.2 1.3 0 37.4 0 37.4z"/>
	<path id="Layer" class="s0" d="m331.4 288.3l-23.4 2.3 1.8 9.1 20.9-2.2z"/>
	<path id="Layer" class="s0" d="m279.7 354.3q-0.1 2.9-0.2 5.7l17.4-1.1-0.9-4.5z"/>
	<path id="Layer" class="s2" d="m242.3 180.6l3-13.9h23.4v-29.9l-73-5.4v28l-22.8 5.2-0.1 25.2 50.5-9.2z"/>
	<path id="Layer" class="s0" d="m291 97.6l-0.6-2.6 27.9-11-18.2-36.4q-0.5 0.1-1 0.1l-30.8-0.2 0.8 51z"/>
	<path id="Layer" class="s2" d="m333.2 78.1v-49.7l-20.3-0.1q-1.4 0-2.7 0.6-1.3 0.5-2.2 1.5-1 1-1.5 2.3-0.5 1.3-0.5 2.7v5.1c0 1.2-0.3 2.3-0.8 3.4-0.5 1-1.3 1.9-2.2 2.5l18.1 36.4z"/>
	<path id="Layer" fill-rule="evenodd" class="s0" d="m189 74.5l9.4-46.7 22 0.1h5.7l2.3 52.3zm12.3-41.4l-6.4 38.4 29.3 4.2-0.8-42.6z"/>
	<path id="Layer" class="s0" d="m229.5 80.3v0.5c0 4.1 0.1 11.4 0.2 19.3l38.4-1.6-0.9-51-23.2-0.1q-1.4 0-2.7-0.6-1.2-0.5-2.2-1.6-1-1-1.5-2.3-0.5-1.3-0.4-2.7v-5.1q0-1.4-0.5-2.7-0.5-1.3-1.4-2.3-1-1-2.3-1.6-1.3-0.6-2.7-0.6h-3.2l2.3 52.5z"/>
	<path id="Layer" class="s0" d="m185.9 74.1l9.3-46.3c-5.8 0.1-11.3 2.4-15.4 6.6-4.1 4.1-6.4 9.7-6.4 15.5l-0.1 23.1 0.1-0.7z"/>
	<path id="Layer" class="s0" d="m192.6 131.2l-19.6-1.4-0.1 31.6 19.7-4.4z"/>
	<path id="Layer" class="s0" d="m185.7 75.1l-12.4-1.8-0.2 51.3 2.6 0.2z"/>
	<path id="Layer" class="s0" d="m225.1 340.1l0.3-41.1-32.8 2.3 1.2 40.3z"/>
	<path id="Layer" class="s0" d="m231.2 330.6l46.5 22.3c0.5-14.6 1-28.2 1-29l1-0.1 0.5-1c0.6 0.3 0.6 0.3 0.3 10.3-0.2 5.5-0.5 12.9-0.8 20.3h16.1l-2.3-22.4-3.2-38.6-60.8 6.2z"/>
	<path id="Layer" class="s0" d="m345.2 262.4l-0.6-5.5-55.7 5.8 2.3 28.6 48.2-4.9z"/>
	<path id="Layer" class="s0" d="m268.7 169.8h-20.9l-2.3 10.8h23.2z"/>
	<path id="Layer" fill-rule="evenodd" class="s0" d="m339.5 203.6l-55 5.3-2.2-26.7 2.1-12.4 52.2 3.6zm-51.7 1.7l49.2-5.8-2.6-22.2-45.3-2.9-2.8 7.8z"/>
	<path id="Layer" class="s0" d="m342 229.3l-2.3-23.6-55.1 5.3 2.1 25.1z"/>
	<path id="Layer" class="s0" d="m193.5 367.5l-21.4 1.3-0.1-1.4v6.3l21.7 0.1z"/>
	<path id="Layer" class="s2" d="m362.9 66.3l0.3 0.8 0.1-16.4c0-5.9-2.3-11.5-6.5-15.7-4.1-4.2-9.8-6.6-15.7-6.6h-6.9v49.3z"/>
	<path id="Layer" fill-rule="evenodd" class="s0" d="m277.4 360.1l-83 5.2-0.6-21.8v-0.9l32.3-1.5 0.4-42.2 2-0.2 1.7 32.5 47.4 22.8c0 2-0.1 4.1-0.2 6zm-81.6-0.2l74.8-4-29.5-13.7-45.3 3.2z"/>
	<path id="Layer" class="s0" d="m349.4 121l1.9-11.5c-17-6.1-18.2-23.8-18.1-29.2l-11.1 4.4 16.7 33.6z"/>
	<path id="Layer" class="s0" d="m288.6 259.6l23.2-2.4-4.6-20.4-20.2 2.5z"/>
	<path id="Layer" class="s0" d="m338.6 141.1h-43.3l-3.6-0.3-4.8 28.3 51.3 3.6-1.2-12.3 5-18.2z"/>
	<path id="Layer" fill-rule="evenodd" class="s0" d="m301.8 133.5l-9-37.2 26.3-10.4 17 34.1-0.5 13.5zm-3.7-33.7l6.7 28 26.6 1 2.3-9.2-15.6-29.6z"/>
	<path id="Layer" class="s0" d="m342.3 296.5l0.8 26.6 18.7-1.1 0.1 1.1-18.8 1 1 31.8 17.7-1.2 0.1 2.1-17.8 1.2 0.5 15.7h17.3l0.4-88.5-17.7 1.8z"/>
	<path id="Layer" class="s2" d="m228.5 81.3l-39.7-5.7-9.9 49.4 49.7 3.7c0.2-7.6 0.1-31-0.1-47.4z"/>
	<path id="Layer" class="s0" d="m293.7 133.5h6l-8.5-34.9-22.1 0.9 0.6 32.2z"/>
	<path id="Layer" class="s0" d="m229.7 128.7l38.9 2.9-0.5-32-38.4 1.5c0.1 10.9 0.1 22.4 0 27.6z"/>
	<path id="Layer" class="s0" d="m342.3 232.4l-34 4.2 4.5 20.5 31.5-3.3z"/>
	<path id="Layer" class="s2" d="m351.5 108.5l2.2-13 9.4 0.8 0.1-27.9-29 11.5c-0.6 19.6 11.7 26.5 17.3 28.6z"/>
	<path id="Layer" class="s0" d="m340.3 158.4l1.2 12.2 21.2 1.5 0.1-25.1-17.7-5.6z"/>
	<path id="Layer" class="s0" d="m350.4 262.7l-5.5 23.2 17.4-1.8 0.1-24.3c-5.4-1.4-10-2.5-12.5-3z"/>
	<path id="Layer" class="s0" d="m338.7 133.9l24.2 7.6v-13.7l-23.7-6.2z"/>
	<path id="Layer" class="s0" d="m349.6 253.6c1.9 0.3 5.6 1.1 12.8 3l0.2-53.1-17.7 1.7z"/>
	<path id="Layer" class="s0" d="m344.7 203.1l17.9-1.7 0.1-26.1-20.9-1.5z"/>
	<path id="Layer" class="s0" d="m353.5 109.1c3.4 1 6.6 1.9 9.5 2.5l0.1-13.2-7.7-0.6z"/>
	<path id="Layer" class="s0" d="m351.4 121.6l11.5 3 0.1-12q-4.5-0.8-9.7-2.4z"/>
	<path id="Layer" fill-rule="evenodd" class="s4" d="m344.7 373.8l-5.2-0.1-0.5-15.4-40.6 2.6 2.6 12.8h-1.1l-2.6-12.8-17.8 1.2c-0.2 4.3-0.4 8.3-0.5 11.6h-2.2c0.1-3.5 0.3-7.5 0.4-11.5l-82.8 5.2 0.2 6.3h-1l-0.2-6.2-21.3 1.3-0.1-1.4v-0.6l21.4-1.4-0.6-21.4-20.7 8.1v-3.4l20.6-8-1.1-39.4v-13.8l-19.2 2v-3.2l19.1-2v-27.8l-19-2.5v-3.1l19.3 2.5 30.8-18 1.6 2.7-31.6 18.4v43.7l33.4-2.3 64.2-6.5-2.3-28.7-61.4-8 0.4-3.1 60.7 8-4-48.5-60.1 5.7-0.2-2 60.1-5.8-2-25.3h-57.8l-50.8 9.2v-3.2l50.5-9.1h19l3-13.9h23.4v-29.8l-73-5.5v28l-22.8 5.2v-3.2l19.6-4.4v-25.8l-19.5-1.4v-5.3l2.7 0.2 10-49.6-12.4-1.8v-0.3l0.1-0.7 12.5 1.8 9.3-46.4h3.2l-9.4 46.8 39.5 5.7-2.4-52.3h1.1l2.3 52.5v0.4c0.1 4.1 0.2 11.4 0.2 19.3l38.4-1.6-0.8-51h1l0.8 50.9 21.8-0.8-0.6-2.6 27.9-11-18.1-36.4c1-0.1 2-0.6 2.9-1.2l18.1 36.4 12.1-4.7v-49.7h1v49.3l28.7-11.4 0.3 0.8v1.3l-29 11.5c-0.6 19.6 11.7 26.5 17.2 28.6l2.2-13 9.4 0.8v2.1l-7.6-0.6-2 11.3q5.2 1.6 9.5 2.5v1q-4.4-0.9-9.6-2.4l-1.9 11.4 11.5 3v3.2l-23.8-6.1-0.4 12.2 24.1 7.6v5.5l-17.8-5.7-4.7 17.1 1.2 12.2 21.2 1.5v3.1l-20.9-1.4 2.8 29.3 18-1.7v2.1l-17.7 1.7 4.7 48.4c1.9 0.3 5.6 1.1 12.8 3v3.3c-5.4-1.4-10-2.6-12.5-3l0.5 5.9-5.5 23.1 17.4-1.7v1l-17.7 1.8-2.3 9.6 0.8 26.5 18.7-1 0.1 1-18.8 1 1 31.8 17.7-1.2 0.1 2.1m-65 2.1l-0.9-4.5h-16.3q-0.1 2.8-0.2 5.6zm42-2.6l-1.4-45.4-44.4 3.4 1.4 16.6 2.4 22.9 1 5zm-29.1-56.5l21-2.2 0.6-9.2-23.3 2.3zm-18.4-7.4l1.6 19.8 17.9-1.3-3.9-20zm45.7 3.6l2-8.5-5.6 0.6-0.8 11.3-22.5 2.4 1.8 8.9 25.5-1.9zm-50.1-56.7l1.6 20.3 23.2-2.4-4.6-20.4zm57.4 14.5l-2.1-21.3-34 4.1 4.6 20.5zm-9.3-95.8l5-18.2-3.4-1.1h-43.3l-3.6-0.3-4.8 28.3 51.3 3.6zm-13-73.4l16.7 33.6 10.6 2.8 1.9-11.5c-17-6.1-18.2-23.9-18.1-29.3zm-29.2 11.6l9 37.2h33.8l0.5-13.5-17-34.1zm-23.6 3.3l0.5 32.1 24 1.8h6l-8.5-34.8zm-39.6 1.6c0.2 10.8 0.2 22.4 0 27.6l39 2.9-0.5-32.1zm-50.7 23.9l49.7 3.6c0.2-7.6 0.1-30.9-0.1-47.4l-39.7-5.7zm90.8 12v43.6h11.8l7.3-42.2zm-24.2 43.6h23.2v-10.8h-20.8zm39 28.4l55-5.3-2.9-30.2-52.2-3.6-2.1 12.3zm0.1 2.1l2.1 25.2 55.3-6.8-2.3-23.7zm6.6 80.3l48.1-4.9 5.8-24.1-0.5-5.4-55.8 5.8zm-0.9 1.2l-60.8 6.1 1.6 32 46.6 22.3c0.5-14.5 1-28.1 1-29l1-0.1 0.5-1c0.6 0.4 0.6 0.4 0.3 10.3-0.2 5.5-0.5 12.9-0.8 20.3h16.1l-2.4-22.4zm-97.6 8.9l1.1 40.3 31.4-1.5 0.3-41.1zm1.8 64l83-5.3c0.1-2 0.1-4 0.2-6l-47.4-22.7-1.7-32.6-2 0.2-0.3 42.2-32.4 1.5v1z"/>
	<path id="Layer" class="s1" d="m241.1 342.1l-45.3 3.2v14.5l74.8-4z"/>
	<path id="Layer" class="s1" d="m334.4 177.2l-45.3-2.8-2.8 7.7 1.6 23.2 49.1-5.8z"/>
	<path id="Layer" class="s4" d="m172 324.5l-0.1 74.6v8c0.1 5.8 2.5 11.3 6.7 15.3 4.1 4.1 9.6 6.3 15.4 6.4l145.4 0.6c2.9 0 5.8-0.5 8.5-1.6 2.7-1.1 5.2-2.8 7.3-4.8 2-2.1 3.7-4.5 4.8-7.2 1.2-2.7 1.7-5.6 1.7-8.5l0.2-82.8z"/>
	<path id="Layer" class="s1" d="m225 78.5l-0.7-42.6h-22.1l-6.5 38.3z"/>
	<path id="Layer" class="s2" d="m331.4 128.9l2.3-9.3-15.6-29.6-20 9.8 6.7 28.1z"/>
	<path id="Layer" class="s1" d="m195.8 258.7c0.3 1.3 0 37.4 0 37.4l29.2-1.9-3.4-49.2z"/>
	<path id="Layer" class="s1" d="m292.9 288l-1.5-22.4 50-6.4v3.9l-6.1 20.5z"/>
	<path id="Layer" class="s4" d="m339.5 344.9l-0.6-14.6-43.9 2.1c-1.1 0.1-2.3-0.2-3.3-0.7l-62.3-31.4c-0.7-0.4-1.3-0.9-1.7-1.6-0.5-0.7-0.7-1.4-0.8-2.2l-8.4-164.4q-0.1-0.6 0.1-1.2 0.3-0.5 0.7-0.9 0.4-0.4 1-0.6 0.5-0.2 1.1-0.2l26.7 2v-29.2h3.1v29.6q0 0.6-0.2 1.1-0.2 0.5-0.7 0.9-0.4 0.4-0.9 0.6-0.5 0.2-1.1 0.1l-26.7-2 8.5 164q0 0.4 0.2 0.7 0.2 0.3 0.5 0.5l62.3 31.5q0.8 0.4 1.8 0.3l44.2-2.1q0.6-0.1 1.1 0.1 0.5 0.2 0.9 0.6 0.4 0.4 0.7 0.9 0.2 0.5 0.2 1l0.7 14.9z"/>
	<path id="Layer" fill-rule="evenodd" class="s6" d="m332.5 170.5h-0.1q-1.6 2.4-3.5 4.7l-13.6 18.1q-0.7 0.8-1.6 1.3-0.9 0.4-1.9 0.4-1 0-1.9-0.4-0.9-0.5-1.6-1.3l-13.9-18.5c-1.1-1.6-2.3-2.7-3.2-4.2l-0.1-0.1c-1.9-3.2-3-6.8-3.3-10.5-0.3-3.7 0.3-7.4 1.7-10.8 1.4-3.4 3.6-6.5 6.3-8.9 2.8-2.5 6.1-4.3 9.7-5.2 3.5-1 7.3-1.1 10.9-0.4 3.6 0.7 7.1 2.2 10 4.5 2.9 2.3 5.3 5.2 6.9 8.5 1.6 3.3 2.5 7 2.5 10.7 0 4.2-1.2 8.4-3.3 12.1zm-20.7-1.7c2.8 0 5.5-1.1 7.4-3.1 2-2 3.1-4.7 3.1-7.4 0-2.1-0.6-4.2-1.8-5.9-1.1-1.7-2.8-3.1-4.7-3.9-1.9-0.8-4.1-1-6.1-0.6-2.1 0.4-3.9 1.4-5.4 2.9-1.5 1.5-2.5 3.3-2.9 5.4-0.4 2-0.2 4.2 0.6 6.1 0.8 1.9 2.2 3.6 3.9 4.7 1.7 1.2 3.8 1.8 5.9 1.8z"/>
	<path id="Layer" fill-rule="evenodd" class="s6" d="m205.2 361.7q-0.8 1.1-1.6 2.1l-6.2 8.2q-0.3 0.4-0.7 0.6-0.4 0.2-0.9 0.2-0.5 0-0.9-0.2-0.4-0.2-0.7-0.6l-6.3-8.3c-0.5-0.8-1-1.3-1.4-2-0.9-1.5-1.4-3.1-1.5-4.8-0.1-1.6 0.1-3.3 0.8-4.8 0.6-1.6 1.6-3 2.8-4.1 1.3-1.1 2.8-1.9 4.4-2.3 1.6-0.5 3.3-0.5 4.9-0.2 1.7 0.3 3.2 1 4.5 2 1.4 1.1 2.4 2.4 3.2 3.9 0.7 1.5 1.1 3.1 1.1 4.8 0 1.9-0.5 3.8-1.5 5.5zm-6-2.2c0.9-0.9 1.4-2.1 1.4-3.4 0-0.9-0.3-1.8-0.8-2.6-0.5-0.8-1.3-1.4-2.1-1.8-0.9-0.4-1.9-0.5-2.8-0.3-0.9 0.2-1.8 0.7-2.5 1.3-0.6 0.7-1.1 1.6-1.3 2.5-0.2 0.9-0.1 1.9 0.3 2.8 0.4 0.8 1 1.6 1.8 2.1 0.8 0.5 1.7 0.8 2.6 0.8 1.3 0 2.5-0.5 3.4-1.4z"/>
	<path id="Layer" class="s7" d="m337.9 364c0 0.1-27.1 0.3-60.6 0.3-33.4 0-60.6-0.2-60.6-0.3 0-0.1 27.2-0.3 60.6-0.3 33.5 0 60.6 0.1 60.6 0.3z"/>
	<path id="Layer" class="s7" d="m279 373.8c0 0.1-13.9 0.2-31.1 0.2-17.2 0-31.1-0.1-31.1-0.3 0-0.1 13.9-0.2 31.1-0.2 17.2 0 31.1 0.1 31.1 0.2z"/>
	<path id="Layer" class="s6" d="m222.3 341.3l2.1 4.2 4.6 0.7-3.3 3.3 0.8 4.6-4.2-2.2-4.2 2.2 0.8-4.6-3.3-3.3 4.6-0.7z"/>
	<path id="Layer" class="s6" d="m242 341.3l2.1 4.2 4.7 0.7-3.4 3.3 0.8 4.6-4.2-2.2-4.1 2.2 0.8-4.6-3.4-3.3 4.7-0.7z"/>
	<path id="Layer" class="s6" d="m261.8 341.3l2.1 4.2 4.6 0.7-3.3 3.3 0.7 4.6-4.1-2.2-4.2 2.2 0.8-4.6-3.4-3.3 4.7-0.7z"/>
	<path id="Layer" class="s6" d="m281.5 341.3l2.1 4.2 4.7 0.7-3.4 3.3 0.8 4.6-4.2-2.2-4.1 2.2 0.7-4.6-3.3-3.3 4.6-0.7z"/>
	<path id="Layer" class="s1" d="m301.3 341.3l2.1 4.2 4.6 0.7-3.3 3.3 0.7 4.6-4.1-2.2-4.2 2.2 0.8-4.6-3.4-3.3 4.7-0.7z"/>
	<path id="Layer" class="s1" d="m256.6 392.7c0 0.1-7.5 0.3-16.9 0.3-9.3 0-16.9-0.2-16.9-0.3 0-0.2 7.6-0.3 16.9-0.3 9.4 0 16.9 0.2 16.9 0.3z"/>
	<path id="Layer" class="s1" d="m343.6 401.2c0 0.2-27 0.3-60.4 0.3-33.4 0-60.4-0.1-60.4-0.3 0-0.1 27-0.3 60.4-0.3 33.4 0 60.4 0.2 60.4 0.3z"/>
	<path id="Layer" class="s0" d="m200.9 407.1c5.7 0 10.3-4.6 10.3-10.3 0-5.7-4.6-10.3-10.3-10.3-5.7 0-10.3 4.6-10.3 10.3 0 5.7 4.6 10.3 10.3 10.3z"/>
	<path id="Layer" class="s1" d="m202.1 396.5c0.6-0.2 1.1-0.7 1.5-1.2 0.4-0.5 0.5-1.2 0.5-1.8q0-0.6-0.2-1.2-0.2-0.5-0.6-1-0.4-0.4-1-0.6-0.5-0.3-1.1-0.3-0.6 0-1.2 0.2-0.6 0.3-1 0.7-0.4 0.4-0.7 0.9-0.2 0.6-0.2 1.2c0 0.6 0.2 1.3 0.5 1.8 0.3 0.5 0.8 0.9 1.4 1.2-4.7 0.7-4.5 5.7-4.5 5.7l11 0.2c0 0 0.2-5-4.4-5.8z"/>
	<path id="Layer" class="s7" d="m267.6 418.7q-0.2 0-0.4-0.1l-5-5.2q0-0.1-0.1-0.2 0-0.1 0-0.2 0-0.1 0-0.2 0.1-0.1 0.1-0.2 0.1 0 0.2-0.1 0.1 0 0.2 0 0.1 0 0.2 0 0.1 0.1 0.1 0.1l4.7 4.9 4.5-4.8q0.2-0.1 0.4-0.1 0.2 0 0.4 0.1 0 0.1 0.1 0.2 0 0.1 0 0.2 0 0.1 0 0.2-0.1 0.1-0.1 0.1l-4.9 5.2q-0.1 0.1-0.2 0.1-0.1 0-0.2 0z"/>
	<path id="Layer" class="s7" d="m92.9 86c0.8-0.2 1.8-0.2 2.3-1 0.5-0.8-0.1-1.9-0.9-2.5-0.7-0.6-1.7-1.1-2.1-2q-0.3-0.8-0.2-1.6 0.1-0.9 0.7-1.6c0.5-0.8 1.3-1.6 2.1-2.1 0.9-0.6 1.9-0.9 2.9-1 1-0.2 2.1-0.1 3.1 0.3 1 0.3 1.9 0.8 2.6 1.5l2.4-0.2c0.3 2.8 0.3 5.7-0.1 8.5-0.3 2.8-1.8 5.4-4 7.2-1 0.7-2.1 1.2-3.3 1.2-0.6 0-1.2-0.2-1.7-0.5-0.5-0.3-1-0.8-1.2-1.3-0.3-0.5-0.3-1.2-0.1-1.7 0.2-0.6 0.6-1 1.2-1.3q-1.9 0.6-3.9 0.4-0.4 0-0.7-0.1-0.2-0.2-0.5-0.4c-0.4-0.8 0.5-1.6 1.4-1.8z"/>
	<path id="Layer" class="s7" d="m106.7 88.6q-2.4-5.6-3.7-11.5c-0.9-3.9-0.8-8 0.3-11.8 0.2-0.6 1.7-4.5 2.3-4.5 0.5 0-0.4 3.6-0.2 4 2.2 3.5 3.2 7.7 3 11.8-0.1 4.1-0.7 8.1-1.7 12z"/>
	<path id="Layer" class="s8" d="m121 128.1c-6.2 0.3-13.1-11.3-13.5-17.5l-2.1-37.3c-0.9-10 4.2-18.8 14.2-19.5h0.9c4.5 0 8.9 1.7 12.2 4.8 3.4 3 5.4 7.2 5.8 11.7 0.8 8.7 1.4 18.3 1.4 22.9-0.1 9.7-9.7 11.2-9.7 11.2 0 0 0.1 2.2 0.2 5 0.3 6.4-0.1 21-6.5 21.3z"/>
	<path id="Layer" class="s9" d="m130.2 104.4c-4.5 0-8.8-1.3-12.6-3.7 0 0 3.1 7 12.7 6.1z"/>
	<path id="Layer" class="s7" d="m135.4 78.3c0 0.3-0.1 0.7-0.4 0.9-0.2 0.3-0.6 0.4-0.9 0.5q-0.3 0-0.5-0.1-0.3-0.1-0.5-0.3-0.2-0.1-0.3-0.4-0.1-0.2-0.1-0.5 0-0.3 0.1-0.5 0.1-0.3 0.2-0.5 0.2-0.2 0.5-0.3 0.2-0.1 0.5-0.1 0.3 0 0.5 0.1 0.3 0.1 0.5 0.2 0.2 0.2 0.3 0.5 0.1 0.2 0.1 0.5z"/>
	<path id="Layer" class="s7" d="m136.5 74.3c-0.2 0.2-1.3-0.6-2.7-0.6-1.5 0-2.6 0.8-2.8 0.6-0.1-0.2 0.1-0.4 0.6-0.8 0.7-0.4 1.4-0.6 2.2-0.6 0.8 0 1.5 0.2 2.1 0.6 0.5 0.4 0.7 0.7 0.6 0.8z"/>
	<path id="Layer" class="s7" d="m122 78.8c0 0.3-0.1 0.7-0.4 0.9-0.2 0.3-0.6 0.5-0.9 0.5q-0.3 0-0.5-0.1-0.3-0.1-0.5-0.3-0.2-0.1-0.3-0.4-0.1-0.2-0.1-0.5c-0.1-0.3 0.1-0.7 0.3-0.9 0.3-0.3 0.6-0.4 1-0.5q0.2 0 0.5 0.1 0.2 0.1 0.4 0.3 0.2 0.1 0.4 0.4 0.1 0.2 0.1 0.5z"/>
	<path id="Layer" class="s7" d="m122 75c-0.2 0.2-1.2-0.6-2.7-0.6-1.5 0-2.6 0.8-2.7 0.6-0.2-0.2 0.1-0.4 0.5-0.8 0.7-0.4 1.4-0.6 2.2-0.6 0.8 0 1.5 0.2 2.2 0.6 0.4 0.3 0.5 0.7 0.5 0.8z"/>
	<path id="Layer" class="s7" d="m127.3 86.3q1.2-0.4 2.4-0.4c0.4 0 0.7-0.1 0.8-0.4q0.1-0.6-0.2-1.1-0.6-1.4-1.2-2.9c-1.5-4.1-2.7-7.5-2.5-7.5 0.2-0.1 1.6 3.2 3.1 7.3 0.4 1 0.8 2 1.1 2.9 0.2 0.4 0.3 0.9 0.2 1.5q-0.1 0.2-0.2 0.3-0.2 0.1-0.4 0.2-0.3 0.1-0.6 0.1-1.3 0.2-2.5 0z"/>
	<path id="Layer" class="s7" d="m123 87.3c0.2 0 0.2 1.6 1.6 2.8 1.4 1.1 3.1 1 3.1 1.2 0 0.1-0.4 0.3-1.1 0.3-0.9 0-1.8-0.3-2.6-0.9-0.7-0.6-1.1-1.4-1.2-2.3-0.1-0.7 0-1.1 0.2-1.1z"/>
	<path id="Layer" class="s7" d="m121.9 68.9c-0.2 0.4-1.7 0.2-3.4 0.5-1.7 0.2-3.2 0.7-3.4 0.3-0.1-0.2 0.2-0.6 0.7-0.9 0.8-0.5 1.6-0.8 2.5-0.9 0.9-0.1 1.8 0 2.7 0.3 0.6 0.2 0.9 0.5 0.9 0.7z"/>
	<path id="Layer" class="s7" d="m135.8 69.4c-0.2 0.3-1.2 0-2.5 0-1.2 0-2.2 0.2-2.5-0.1-0.1-0.2 0.1-0.6 0.5-0.9 0.6-0.4 1.3-0.6 2-0.5 0.8 0 1.4 0.2 2 0.6 0.5 0.4 0.7 0.7 0.5 0.9z"/>
	<path id="Layer" class="s10" d="m106.2 80.5c-0.1-0.1-6.6-2-6.4 4.6 0.3 6.6 6.8 5 6.8 4.8 0-0.2-0.4-9.4-0.4-9.4z"/>
	<path id="Layer" class="s11" d="m104.5 87.5c0 0-0.1 0.1-0.3 0.2q-0.4 0.1-0.8 0-0.7-0.4-1.1-1.1-0.3-0.7-0.3-1.4-0.1-0.9 0.2-1.7 0.1-0.3 0.3-0.5 0.3-0.3 0.6-0.4 0.2 0 0.4 0 0.2 0.1 0.3 0.3c0.1 0.2 0 0.3 0 0.3 0.1 0 0.2-0.1 0.1-0.4q0-0.2-0.2-0.4-0.2-0.1-0.4-0.1-0.1 0-0.3 0-0.4 0.1-0.7 0.4-0.3 0.3-0.5 0.6-0.3 0.9-0.3 1.9c0 0.6 0.2 1.2 0.5 1.7 0.3 0.5 0.8 0.8 1.3 1.1q0.3 0 0.5 0 0.3-0.1 0.5-0.2c0.2-0.1 0.3-0.3 0.2-0.3z"/>
	<path id="Layer" class="s7" d="m133.8 59.6c1-0.7-2.4-4-5-5-4-1.6-10.2-2.5-13.8-1.3-4.3 1.4-7.9 3.8-9.9 7.9-1.9 4.2-2.7 8.8-2.3 13.3 0 1.5 0.4 2.8 1.1 4 1 1.5 2.8 2.3 2.8 4.3q0 0.6 0.2 1.1 0.2 0.5 0.6 0.9c1.2 1.2 2.6 0 3.3-1.3 1.3-2.6 1.3-5.7 1.3-8.7 0.1-2.1-0.1-4.2-0.7-6.2-0.3-1.1-0.9-2.1-1.2-3.2q-0.3-0.8-0.2-1.7 0.1-0.9 0.5-1.6 0.2-0.3 0.5-0.6c0.9-0.8 2-1.4 3.2-1.7 1.2-0.3 2.4-0.2 3.6 0.1 3.8 1.2 10.2 2.9 11.8 1.5 1.1-0.8 2.1-1.9 2.8-3.1z"/>
	<path id="Layer" class="s7" d="m115.4 52.4c1.7-0.7 3.6-1.1 5.5-1.1 2 0 3.8 0.4 5.6 1.2 0.9 0.4 1.8 1 2.5 1.7q1.1 1.1 1.7 2.5c0.6 1.9-0.1 4.4-2 5.2l-0.1 0.1c-2.8 1.1-4.6 0.8-7.4-0.1-2.4-0.7-4.6-2-7-2.7-2.6-0.8-5.3-0.8-7.9 0.1 2.4-3.1 5.5-5.5 9.1-6.9z"/>
	<path id="Layer" class="s5" d="m107.1 58.3c1-0.5 2-0.8 3.1-0.8 1.2-0.1 2.4 0.1 3.5 0.6q2.1 0.8 4 1.9 1.9 1.1 4 2c1.1 0.5 2.4 0.7 3.6 0.7q1.3 0 2.4-0.4 0.5-0.2 0.8-0.5-1.5 0.6-3.2 0.6-1.8-0.1-3.5-0.8-2-0.9-3.9-2-1.9-1.2-4-2c-1.2-0.4-2.4-0.6-3.6-0.5q-1.3 0.1-2.5 0.7-0.4 0.1-0.7 0.5z"/>
	<path id="Layer" class="s5" d="m109.8 56q1.4-0.5 2.9-0.6 1.6 0.1 3.2 0.6 1.8 0.8 3.5 1.9c1.2 0.7 2.4 1.5 3.5 2.1q1.4 0.9 3 1.4 1.1 0.3 2.2 0.4 0.4 0 0.8-0.1-1.5-0.2-2.9-0.6-1.5-0.6-2.9-1.5c-1.1-0.6-2.2-1.4-3.5-2.2q-1.7-1.1-3.6-1.8-1.6-0.6-3.3-0.5-1.2 0-2.3 0.4-0.4 0.2-0.6 0.5z"/>
	<path id="Layer" class="s5" d="m125.1 53.2c0 0 0.3 0.5 0.9 1.2q1.2 1.2 2.1 2.7c0.5 1.1 0.8 2.2 0.7 3.3 0 0.9-0.3 1.4-0.2 1.5 0.1 0 0.4-0.5 0.6-1.4 0.1-1.2-0.1-2.5-0.7-3.6q-0.9-1.6-2.2-2.8c-0.7-0.6-1.2-0.9-1.2-0.9z"/>
	<path id="Layer" class="s5" d="m129.8 56.2q0.2 1.5 0.1 3-0.4 1.5-1.2 2.8c0 0 0.4-0.2 0.7-0.6q0.8-1 1-2.1c0.1-0.8 0.1-1.6-0.2-2.3-0.1-0.6-0.4-0.9-0.4-0.8z"/>
	<path id="Layer" class="s8" d="m102.6 74.8c-0.2 0.9-0.2 1.9 0.1 2.8 0.1 1 0.5 1.9 1.2 2.6 0.1-0.1-0.4-1.2-0.7-2.7q-0.2-1.4-0.6-2.7z"/>
	<path id="Layer" class="s5" d="m95.8 379.3l1 21.6c0 0-21.6 8.3-21.9 12.3l42-0.4-0.1-33.7z"/>
	<path id="Layer" class="s1" d="m109.8 399c0.4 0.1 0.7 0.4 1 0.8 0.2 0.3 0.3 0.8 0.2 1.2-0.1 0.4-0.4 0.8-0.7 1-0.4 0.2-0.8 0.3-1.2 0.2-0.4-0.1-0.8-0.4-1-0.8-0.3-0.4-0.4-0.8-0.3-1.3 0.2-0.4 0.5-0.7 0.9-0.9 0.4-0.2 0.8-0.2 1.3-0.1"/>
	<path id="Layer" class="s4" d="m116.9 412.8l-0.1-3.4-40.3 1.6c0 0-1.8 0.8-1.6 2.1z"/>
	<path id="Layer" class="s7" d="m96.1 400.7c0 0.2 1 0.3 2.1 1 1 0.6 1.5 1.5 1.7 1.4 0.2-0.1-0.1-1.3-1.4-2-1.2-0.7-2.4-0.6-2.4-0.4z"/>
	<path id="Layer" class="s7" d="m91.7 402.6c0 0.2 0.8 0.5 1.5 1.4 0.8 0.8 1 1.8 1.2 1.7 0.2 0 0.3-1.1-0.6-2.2-0.9-1-2.1-1.1-2.1-0.9z"/>
	<path id="Layer" class="s7" d="m89.2 407.9c0.2 0 0.5-1 0-2.1-0.6-1.1-1.5-1.6-1.6-1.4-0.1 0.2 0.5 0.7 0.9 1.7 0.4 0.9 0.5 1.8 0.7 1.8z"/>
	<path id="Layer" class="s7" d="m96.4 395.8c0.1 0.1 1-0.1 2.2 0 1.2 0.1 2.1 0.4 2.2 0.2 0.1-0.2-0.8-0.9-2.2-1-1.3-0.1-2.3 0.6-2.2 0.8z"/>
	<path id="Layer" class="s5" d="m159.3 379.3l-0.9 21.6c0 0 21.6 8.3 21.9 12.3l-42-0.4 0.1-33.7z"/>
	<path id="Layer" class="s1" d="m145.4 399c-0.4 0.1-0.8 0.4-1 0.7-0.2 0.4-0.3 0.8-0.2 1.2 0.1 0.5 0.3 0.8 0.7 1 0.4 0.3 0.8 0.3 1.2 0.3 0.4-0.2 0.8-0.5 1-0.8 0.3-0.4 0.4-0.9 0.3-1.3-0.2-0.4-0.5-0.8-0.9-0.9-0.4-0.2-0.9-0.3-1.3-0.1"/>
	<path id="Layer" class="s4" d="m138.2 412.8l0.2-3.4 40.2 1.6c0 0 1.9 0.8 1.7 2.1z"/>
	<path id="Layer" class="s7" d="m159.1 400.7c0 0.2-1 0.3-2.1 1-1.1 0.6-1.6 1.5-1.7 1.4-0.2-0.1 0.1-1.3 1.3-2 1.3-0.7 2.5-0.6 2.5-0.4z"/>
	<path id="Layer" class="s7" d="m163.4 402.6c0 0.2-0.8 0.5-1.5 1.4-0.7 0.8-0.9 1.8-1.1 1.7-0.2 0-0.4-1.1 0.5-2.2 0.9-1 2.1-1.1 2.1-0.9z"/>
	<path id="Layer" class="s7" d="m165.9 407.9c-0.2 0-0.5-1 0.1-2.1 0.5-1.1 1.5-1.6 1.6-1.4 0 0.2-0.5 0.7-1 1.7-0.4 0.9-0.5 1.8-0.7 1.8z"/>
	<path id="Layer" class="s7" d="m158.7 395.8c-0.1 0.1-1-0.1-2.2 0-1.2 0.1-2 0.4-2.1 0.2-0.1-0.2 0.7-0.9 2.1-1 1.4-0.1 2.3 0.6 2.2 0.8z"/>
	<path id="Layer" class="s7" d="m86.9 216.2c0 1.3 8.5 179.4 8.5 179.4l22.1 0.2 7.1-151.5c0 0 9.3 79.6 9.3 81.4 0 1.7 2.6 71 2.6 71h23.3v-165.1l-15-24.2z"/>
	<path id="Layer" class="s5" d="m147.9 396.6q0-0.2 0-0.4 0-0.4 0-1.1 0-1.6 0-4.6c0-3.9-0.1-9.6-0.3-16.7-0.5-14.1-1.3-33.6-2.3-55.1-1-21.5-2-41-2.6-55.1-0.4-7-0.7-12.7-0.9-16.7q-0.1-2.9-0.1-4.5 0-0.7 0-1.2-0.1-0.2 0-0.4 0 0.2 0 0.4c0 0.3 0 0.7 0.1 1.2q0.1 1.6 0.3 4.5c0.2 4 0.5 9.7 1 16.7 0.8 14.1 1.8 33.6 2.8 55.1 1 21.5 1.7 41 2.1 55.1 0.1 7.1 0.2 12.8 0.2 16.7 0 2 0 3.5 0 4.6q0 0.7 0 1.1-0.1 0.3-0.3 0.4z"/>
	<path id="Layer" class="s5" d="m107.2 240.8c0.2 0 0.1 34.7 0 77.4-0.1 42.8-0.4 77.5-0.5 77.5-0.2 0-0.2-34.7 0-77.5 0.1-42.7 0.4-77.4 0.5-77.4z"/>
	<path id="Layer" class="s5" d="m126.4 235.8q-0.5 0.3-1 0.5c-0.7 0.2-1.7 0.6-2.9 1l-0.3 0.1v-0.2c-0.1-2.2-0.3-5.2-0.4-8.4-0.2-3.4-0.3-6.6-0.4-8.9 0-1.1 0-2 0-2.7q0-0.5 0-1 0.2 0.5 0.2 1c0 0.7 0.1 1.6 0.2 2.7 0.1 2.3 0.3 5.4 0.5 8.9 0.1 3.2 0.3 6.2 0.3 8.4l-0.2-0.2q1.9-0.6 3-0.9 0.5-0.2 1-0.3z"/>
	<path id="Layer" class="s5" d="m124.4 216.9c0 0 0.1-0.2 0.4-0.3 0.4-0.1 0.8 0 1.1 0.1q0.5 0.2 0.7 0.7 0.3 0.4 0.2 0.8 0 0.6-0.4 1.1-0.4 0.4-1 0.6-0.5 0-1.1-0.2-0.5-0.3-0.8-0.8-0.2-0.3-0.2-0.7 0-0.4 0.1-0.7 0.1-0.4 0.4-0.6 0.2-0.3 0.6-0.4c0.3-0.1 0.4-0.1 0.4 0 0 0-0.6 0.2-0.9 1q-0.2 0.3-0.2 0.6 0 0.4 0.2 0.7 0.2 0.3 0.6 0.5 0.4 0.2 0.8 0.1 0.4-0.1 0.7-0.4 0.3-0.3 0.3-0.7 0.1-0.4-0.1-0.7-0.1-0.3-0.4-0.5c-0.4-0.2-0.9-0.3-1.4-0.2z"/>
	<path id="Layer" class="s5" d="m136.4 218.7c-0.2 0-0.4-0.7-0.5-1.7-0.1-1 0-1.8 0.1-1.8 0.1-0.1 0.3 0.7 0.4 1.7 0.2 1 0.1 1.8 0 1.8z"/>
	<path id="Layer" class="s5" d="m138.2 218.6c-0.2 0-0.3-0.9-0.3-1.9 0-1.1 0.1-1.9 0.3-1.9 0.1 0 0.2 0.8 0.2 1.9 0 1-0.1 1.9-0.2 1.9z"/>
	<path id="Layer" class="s5" d="m106.9 219.8c-0.5-1.4-0.7-2.8-0.5-4.3 0.5 1.4 0.6 2.9 0.5 4.3z"/>
	<path id="Layer" class="s5" d="m109 220c-0.5-0.6-0.7-1.4-0.6-2.2-0.1-0.8 0-1.6 0.4-2.3q0.2 1.1 0.1 2.3 0.2 1.1 0.1 2.2z"/>
	<path id="Layer" class="s7" d="m76.5 420.1l7.3 6.7c2.8 2.5 6.4 3.9 10.2 3.9h66.8c3.8 0 7.4-1.4 10.2-3.9l7.3-6.7z"/>
	<path id="Layer" class="s7" d="m181.2 412.4h-106.7v7.9h106.7z"/>
	<path id="Layer" class="s7" d="m65.8 388.5h-1.8c-3.8 0-7 3.2-7 7v43.7c0 3.8 3.2 6.9 7 6.9h1.8c3.8 0 6.9-3.1 6.9-6.9v-43.7c0-3.8-3.1-7-6.9-7z"/>
	<path id="Layer" class="s5" d="m65.5 445.4c-0.1 0-0.5-12.4-0.8-27.6-0.3-15.3-0.4-27.6-0.2-27.6 0.1 0 0.5 12.3 0.7 27.6 0.3 15.2 0.4 27.6 0.3 27.6z"/>
	<path id="Layer" class="s5" d="m65 441.1q-2.2-2.4-4-5-2-2.6-3.6-5.4 2.2 2.4 4 5 2 2.5 3.6 5.4z"/>
	<path id="Layer" class="s5" d="m65.4 434.4q-2.3-2.6-4.1-5.5-2.1-2.7-3.8-5.8 2.3 2.6 4.2 5.5 2.1 2.8 3.7 5.8z"/>
	<path id="Layer" class="s5" d="m64.5 425.8q-2.2-2.7-4-5.8-2-2.9-3.5-6.1 2.2 2.8 4 5.8 2 3 3.5 6.1z"/>
	<path id="Layer" class="s5" d="m64.5 418.9q-0.7-0.8-1.2-1.8c-0.7-1.1-1.6-2.7-2.6-4.5-1-1.7-1.9-3.3-2.5-4.5q-0.6-0.9-0.9-1.9 0.7 0.8 1.2 1.8c0.7 1.1 1.7 2.7 2.6 4.5 1 1.7 1.9 3.3 2.5 4.5q0.5 0.9 0.9 1.9z"/>
	<path id="Layer" class="s5" d="m64.3 411.2q-2.3-2.7-3.9-5.8c-1-1.7-1.7-3.3-2.3-4.4q-0.5-0.9-0.8-1.9 2 2.9 3.6 6c0.9 1.7 1.8 3.2 2.4 4.3q0.6 0.9 1 1.8z"/>
	<path id="Layer" class="s5" d="m63.4 403.3q-1.6-2.4-2.7-4.9-1.4-2.5-2.3-5.2 1.6 2.4 2.8 4.9 1.3 2.5 2.2 5.2z"/>
	<path id="Layer" class="s5" d="m72.1 429.8q-1.2 3-2.9 5.7-1.4 2.9-3.3 5.6 1.2-3 2.9-5.8 1.4-2.9 3.3-5.5z"/>
	<path id="Layer" class="s5" d="m71.9 421.5q-0.9 3.2-2.6 6.1c-0.8 1.7-1.6 3.1-2.3 4.2q-0.4 0.9-1.1 1.6 1.3-3.1 3-6c0.8-1.6 1.5-3.1 2.1-4.2q0.3-0.9 0.9-1.7z"/>
	<path id="Layer" class="s5" d="m72.1 410.4q-1.2 3.6-2.8 7-1.4 3.5-3.3 6.8 1.2-3.6 2.8-7 1.4-3.5 3.3-6.8z"/>
	<path id="Layer" class="s5" d="m71.2 404.2q-0.7 2.9-2 5.6-1 2.9-2.5 5.5 0.8-2.9 2-5.7 1-2.8 2.5-5.4z"/>
	<path id="Layer" class="s5" d="m70.5 396.8c-0.3 2-0.9 3.9-1.7 5.7-0.7 1.8-1.7 3.6-2.9 5.2-0.1-0.1 1.2-2.4 2.4-5.4 1.3-3 2.1-5.5 2.2-5.5z"/>
	<path id="Layer" class="s7" d="m59 388l15.5 27.5v-22.9c0-1.1-0.4-2.2-1.2-3-0.7-0.8-1.8-1.3-2.9-1.3z"/>
	<path id="Layer" class="s7" d="m74.5 401.4h-2.6v21.4h2.6z"/>
	<path id="Layer" class="s7" d="m191.1 446.1h1.8c3.8 0 6.9-3.1 6.9-7v-43.6c0-3.9-3.1-7-7-7h-1.7c-3.9 0-7 3.1-7 7v43.6c0 3.9 3.1 7 7 7z"/>
	<path id="Layer" class="s5" d="m191.4 445.3c-0.2 0 0-12.3 0.2-27.6 0.3-15.2 0.6-27.6 0.8-27.6 0.1 0.1 0 12.4-0.3 27.7-0.2 15.2-0.6 27.6-0.7 27.5z"/>
	<path id="Layer" class="s5" d="m191.9 441q3.4-5.5 7.6-10.4-1.6 2.9-3.6 5.4-1.8 2.7-4 5z"/>
	<path id="Layer" class="s5" d="m191.4 434.4q1.7-3.1 3.8-5.8 1.8-2.9 4.1-5.5-1.6 3-3.7 5.8-1.9 2.9-4.2 5.5z"/>
	<path id="Layer" class="s5" d="m192.4 425.8q1.5-3.2 3.5-6.1 1.7-3.1 3.9-5.8-3.3 6.2-7.4 11.9z"/>
	<path id="Layer" class="s5" d="m192.4 418.9q0.3-1.1 0.9-2c0.6-1.1 1.4-2.8 2.4-4.5 1-1.8 1.9-3.3 2.6-4.4q0.5-1 1.2-1.8-0.3 1-0.9 1.9c-0.6 1.2-1.4 2.8-2.4 4.5-1 1.8-1.9 3.4-2.6 4.5q-0.5 1-1.2 1.8z"/>
	<path id="Layer" class="s5" d="m192.5 411.2q0.4-0.9 1-1.8c0.7-1.1 1.5-2.6 2.5-4.3q1.6-3.1 3.5-6-0.2 1-0.8 1.9c-0.5 1.1-1.3 2.7-2.3 4.4q-1.6 3.1-3.9 5.8z"/>
	<path id="Layer" class="s5" d="m193.4 403.3q0.9-2.7 2.3-5.2 1.1-2.6 2.7-4.9-0.9 2.7-2.3 5.2-1.1 2.5-2.7 4.9z"/>
	<path id="Layer" class="s5" d="m184.8 429.8q3.5 5.3 6.1 11.2-1.9-2.6-3.3-5.5-1.6-2.8-2.8-5.8z"/>
	<path id="Layer" class="s5" d="m185 421.5q0.6 0.8 0.9 1.7c0.5 1.1 1.3 2.5 2.1 4.2q1.7 2.9 2.9 6-0.6-0.8-1.1-1.7c-0.6-1-1.4-2.4-2.2-4.1q-1.7-2.9-2.6-6.1z"/>
	<path id="Layer" class="s5" d="m184.8 410.4q1.9 3.3 3.3 6.8 1.6 3.4 2.8 7-1.9-3.3-3.3-6.8-1.7-3.4-2.8-7z"/>
	<path id="Layer" class="s5" d="m185.6 404.2q1.5 2.6 2.5 5.4 1.2 2.8 2 5.7-1.5-2.7-2.5-5.5-1.2-2.7-2-5.6z"/>
	<path id="Layer" class="s5" d="m186.3 396.8c0.2 0 1 2.5 2.2 5.5 1.3 2.9 2.5 5.3 2.4 5.4-2.3-3.3-3.8-7-4.6-10.9z"/>
	<path id="Layer" class="s7" d="m196.7 387.4l-15.5 27v-22.4c0-1.1 0.4-2.2 1.2-3 0.8-0.7 1.8-1.2 2.9-1.2z"/>
	<path id="Layer" class="s7" d="m184.1 400.3h-2.9v20h2.9z"/>
	<path id="Layer" class="s7" d="m184.1 420.4c0 0.1-25.2 0.2-56.3 0.2-31.1 0-56.4-0.1-56.4-0.2 0-0.2 25.2-0.3 56.4-0.3 31.1 0 56.3 0.1 56.3 0.3z"/>
	<path id="Layer" class="s5" d="m81.6 256.8c0 0-0.7-10.9-9.6-9.8-8.9 1.2-9.2 9.2-9.2 9.2l-3.8-0.7c0 0 1.4-11.4 14-11 12.6 0.3 12.3 13.1 12.3 13.1z"/>
	<g id="Layer" style="opacity: .3">
		<path id="Layer" class="s12" d="m81.6 256.8c0 0-0.7-10.9-9.6-9.8-8.9 1.2-9.2 9.2-9.2 9.2l-3.8-0.7c0 0 1.4-11.4 14-11 12.6 0.3 12.3 13.1 12.3 13.1z"/>
	</g>
	<path id="Layer" class="s5" d="m39.7 253.6l-2 51.5 68 1.2 1.2-50.8z"/>
	<path id="Layer" class="s7" d="m106.9 255.5c0 0 0 0.1-0.2 0.2l-0.4 0.6q-0.6 0.8-1.6 2.2c-1.4 1.9-3.4 4.6-6 7.9-3.1 3.9-6.5 7.5-10.3 10.7-2.3 1.8-4.8 3.4-7.4 4.6-2.9 1.3-6 2.1-9.2 2.3-3.2 0.1-6.3-0.5-9.2-1.7-2.8-1.2-5.3-2.7-7.5-4.6-3.8-3.3-6.9-7.2-9.3-11.5q-2.5-4.4-4.5-8.9l-1.1-2.5-0.3-0.7q-0.1-0.2-0.1-0.2 0.1 0.1 0.2 0.2l0.3 0.7 1.2 2.4c1 2.1 2.5 5.2 4.6 8.8 2.4 4.3 5.6 8.1 9.3 11.3 2.2 1.9 4.7 3.4 7.4 4.5 2.8 1.2 5.9 1.8 9 1.7 3.1-0.2 6.1-0.9 8.9-2.3 2.6-1.2 5.1-2.7 7.4-4.5 3.7-3.1 7.2-6.7 10.2-10.5 2.7-3.3 4.8-6 6.2-7.8l1.7-2.1 0.5-0.6q0.1-0.1 0.2-0.2z"/>
	<path id="Layer" class="s7" d="m96.4 306.1c-0.2 0 1.9-11.1 4.6-24.7 2.7-13.6 5-24.6 5.1-24.6 0.2 0-1.9 11.1-4.6 24.7-2.7 13.6-5 24.7-5.1 24.6z"/>
	<path id="Layer" class="s7" d="m106.6 255.9q0 0.3 0 0.5 0 0.6 0 1.5c-0.1 1.3-0.2 3.1-0.3 5.4-0.4 4.6-1 10.9-1.7 17.8-0.7 6.9-1.3 13.2-1.7 17.8q-0.4 3.3-0.5 5.4l-0.2 1.4q0 0.3-0.1 0.6 0-0.3 0-0.6 0-0.6 0-1.4c0-1.3 0.2-3.2 0.4-5.4 0.3-4.6 0.9-10.9 1.6-17.8 0.7-7 1.3-13.2 1.7-17.8q0.4-3.3 0.5-5.4 0.1-0.9 0.2-1.5 0-0.3 0.1-0.5z"/>
	<path id="Layer" class="s7" d="m71 282.1h-2.1l0.1 3.8h2z"/>
	<path id="Layer" class="s7" d="m106.9 255.5q-0.4 0-0.7 0h-2l-7.2-0.1-23.7-0.5-23.7-0.8-7.2-0.2-2-0.1q-0.3 0-0.6-0.1 0.3 0 0.7 0h2l7.1 0.1 23.7 0.6 23.7 0.7 7.2 0.3h2q0.3 0 0.7 0.1z"/>
	<path id="Layer" class="s8" d="m69.6 226.9c0 0-4.5 12.4-4.6 14.3-0.1 2-2.1 5.1 0.1 5.9 0 0-0.3 1.5 2 2 0 0 0 2.6 3.2 2.3 0 0 2.1 2.2 3.9 1 0 0 2.7 1.4 3.9-0.6q1.3-2.5 2.2-5.2l1.8 1.4c0.6-1.4 0.8-3 0.5-4.5-0.5-2.4-3.5-5.5-2.9-8.5q0.3-1.6 1-3.1z"/>
	<g id="Layer" style="opacity: .3">
		<path id="Layer" class="s12" d="m93.1 272.4c-2.5 6-6.5 11.2-11.6 15.1-3.6 2.9-8.1 5.3-12.7 4.8-4-0.4-7.5-2.9-10.4-5.7-5.9-5.7-10.2-12.8-12.5-20.6 0 0 11 18.2 24.1 17.9 11.8-0.3 23.1-11.5 23.1-11.5z"/>
	</g>
	<path id="Layer" class="s13" d="m139.3 111c0 0 17.9 3.7 20.2 6.4 1.7 2.2 11.1 24.1 11.1 24.1l7.6 13.4c1.6 1.3 2.8 3.1 3.4 5 0.9 4.4 1.4 8.9 1.3 13.4 0 0-1.3 8.9-6.8 9.2-2.7 0.1-5.3-0.3-7.7-1.2-2.4-0.9-4.7-2.3-6.6-4-3.2-2.9-11.1-22.5-10.8-23.5z"/>
	<path id="Layer" class="s3" d="m106.5 107l0.8-0.9 8.2 9.2 6.5 7.2 8.2-17.3 2.4 1.7c0 0 8.9 66.9 8.7 67.7-0.1 0.8 3.4 37.3 3.4 37.3 0 0-18.8 3.7-24.2 2-5.5-1.7-17.6 1-17.5 0.4 0.1-0.5-5.2-22.9-5.2-22.9l1.5-61.3z"/>
	<path id="Layer" class="s7" d="m141.5 203.7q-0.7-0.1-1.3-0.3c-0.9-0.2-2.1-0.6-3.6-1.1q-6-2-11.5-4.9-5.6-2.9-10.7-6.5c-1.3-1-2.3-1.8-3-2.3q-0.5-0.5-1-1 0.6 0.4 1.2 0.8c0.7 0.5 1.7 1.3 3.1 2.2q5.1 3.5 10.6 6.3 5.6 2.9 11.4 5c1.5 0.6 2.7 1 3.6 1.3q0.6 0.2 1.2 0.5z"/>
	<path id="Layer" class="s7" d="m122 122.5q0 0.4 0 0.8 0 0.8 0 2.1c0 2 0 4.7-0.1 8 0 6.8 0 16.1 0.1 26.4 0.2 10.4 0.4 19.7 0.6 26.5 0.1 3.3 0.2 6 0.2 8q0 1.3 0 2.1 0.1 0.4 0 0.8 0-0.4 0-0.8c0-0.5-0.1-1.2-0.2-2.1-0.1-1.9-0.2-4.7-0.4-8-0.3-6.8-0.6-16.1-0.7-26.5-0.2-10.3-0.1-19.6 0.1-26.4 0-3.4 0.1-6.1 0.2-8 0-0.9 0-1.6 0.1-2.2q0-0.3 0.1-0.7z"/>
	<path id="Layer" class="s7" d="m126.2 211.5q-0.5-3.5-0.5-7-0.3-3.5 0-7 0.5 3.5 0.5 7 0.2 3.5 0 7z"/>
	<path id="Layer" class="s13" d="m106 107.8l-6 6.6c0 0-7.6 1.9-16.3 4.8-1.7 0.7-3.2 1.8-4.5 3.2-1.2 1.4-2.1 3.1-2.6 4.9-0.7 2.2 10.3 55.2 10.3 55.2l-1.9 15.3-5.9 44.1c0 0 10.2 3.6 16.7 3.8 3.7 0.2 4.3-14.2 5.9-24.1 1.4-9.7 5.3-40.4 5.3-49 0-8.6-1.8-50-1.8-50.9 0-0.8 0.8-13.9 0.8-13.9z"/>
	<path id="Layer" class="s7" d="m105.8 185.4q-0.1-0.4-0.2-0.8-0.2-0.9-0.6-2.3c-0.5-2-1.2-4.9-2.1-8.4-1.7-7.1-4-16.9-6.6-27.7q-1.1-4.6-2.1-8.9v-0.1l5-12.4 0.2 0.3h-4.9-0.4l0.2-0.3c2-3.4 3.7-6.2 4.8-8.1l1.4-2.2q0.2-0.4 0.5-0.8-0.2 0.4-0.5 0.8l-1.2 2.3c-1.1 2-2.7 4.8-4.7 8.2l-0.1-0.3h4.9 0.3l-0.1 0.3c-1.5 3.7-3.1 7.9-4.9 12.4v-0.1q1 4.2 2.1 8.9l6.5 27.7c0.8 3.5 1.5 6.4 1.9 8.4 0.2 1 0.4 1.8 0.5 2.3q0.1 0.4 0.1 0.8z"/>
	<path id="Layer" class="s13" d="m132.6 106.6l3.8 3.6 22.3 6.3 0.3 35.5-3.3 35.6 6.8 53.2c-7.7 4.3-19.2 3.4-19.2 3.4l-5.3-31.1c-0.9-5.8-3.8-44.9-3.8-44.9z"/>
	<path id="Layer" class="s7" d="m140.6 178.8q0-0.4 0.1-0.8 0.1-0.8 0.3-2.2c0.3-2 0.7-4.8 1.3-8.2 1-6.9 2.4-16.5 3.5-27.1 0.6-5.3 1.1-10.4 1.6-15q0.2-3.5 0.5-6.6c0.1-1 0.3-2-0.3-2.7q-0.5-0.4-1.1-0.5-0.7-0.1-1.3 0.1-1.2 0.3-2.5 0.3c-0.8-0.1-1.5-0.4-2.2-0.8-1-0.7-1.8-1.5-2.5-2.6-0.5-0.8-1-1.4-1.2-1.9q-0.2-0.3-0.4-0.7 0.3 0.3 0.5 0.7c0.3 0.4 0.7 1 1.3 1.8q1 1.5 2.5 2.5c0.6 0.3 1.3 0.6 2 0.6q1.2 0 2.4-0.3 0.7-0.1 1.4-0.1c0.5 0 1 0.3 1.4 0.7 0.3 0.4 0.5 0.9 0.5 1.4q0 0.8-0.1 1.6-0.2 3.1-0.5 6.5c-0.4 4.7-0.9 9.7-1.5 15-1.2 10.7-2.6 20.2-3.7 27.1-0.6 3.5-1.1 6.3-1.4 8.2q-0.3 1.4-0.5 2.2 0 0.4-0.1 0.8z"/>
	<path id="Layer" class="s7" d="m155.6 141.3q-1.8 0.5-3.6 0.4-1.9 0.1-3.7-0.2 1.8-0.4 3.7-0.3 1.8-0.2 3.6 0.1z"/>
	<g id="Layer" style="opacity: .3">
		<path id="Layer" class="s12" d="m159.6 160c1.5-2 3.7-3.4 6.1-3.9 0.6-0.1 1.4-0.1 1.6 0.5q0.1 0.3 0 0.6-0.1 0.4-0.4 0.6l-0.8 0.9c-2.3 2.2-3.8 5.2-4.1 8.4-0.5-1.5-0.5-3 0-4.5 0.5-1.5 1.4-2.7 2.7-3.7-2.4 0.5-4.2 2.4-5.9 4.2q-0.2-0.8 0-1.7 0.2-0.8 0.8-1.4z"/>
	</g>
	<path id="Layer" class="s7" d="m157.9 163.9c0 0 0.3-0.4 0.8-1.1q1-1.3 2.3-2.2 1.3-1 2.9-1.6c0.7-0.2 1.2-0.3 1.2-0.4 0 0-0.1 0-0.3 0q-0.5 0.1-1 0.3c-2.1 0.6-4 2-5.3 3.8q-0.2 0.4-0.5 0.8c0 0.3-0.1 0.4-0.1 0.4z"/>
	<path id="Layer" class="s7" d="m162.3 169.2c0 0 0-0.7 0-1.8q0-1 0.2-1.9 0.3-1.2 0.7-2.4 0.5-1.1 1.1-2.1 0.5-0.8 1.1-1.6c0.7-0.9 1.3-1.3 1.2-1.4q-0.2 0.2-0.4 0.4-0.1 0.1-0.4 0.3-0.2 0.3-0.5 0.6-0.7 0.7-1.2 1.6-0.6 1-1.1 2.2-0.4 1.1-0.7 2.3-0.2 1-0.2 2 0 0.4 0 0.8 0 0.3 0 0.6 0.1 0.2 0.2 0.4z"/>
	<path id="Layer" class="s7" d="m158.7 130.9q0 0.3 0 0.5 0 0.7 0 1.6c-0.1 1.5-0.2 3.5-0.3 5.9-0.2 5-0.6 11.8-1 19.3-0.3 7.4-0.8 14.2-1.1 19.2-0.2 2.4-0.3 4.4-0.4 5.8 0 0.7-0.1 1.2-0.2 1.6q0 0.3 0 0.6-0.1-0.3 0-0.6c0-0.4 0-1 0-1.6 0-1.4 0.1-3.4 0.2-5.8 0.3-5 0.6-11.8 1-19.3 0.4-7.5 0.9-14.3 1.2-19.3 0.1-2.4 0.3-4.3 0.4-5.8q0-0.9 0.1-1.6 0-0.2 0.1-0.5z"/>
	<path id="Layer" class="s13" d="m82.4 120.5c0 0-5.1 1.9-6.5 9.6-1.3 7.7-10 102-10 102l14.6 0.9 7.2-51.4z"/>
	<path id="Layer" class="s7" d="m87.7 182.7c0.1 0-1.5 12-3.6 26.8-2.1 14.8-4 26.7-4.1 26.7-0.1 0 1.5-12 3.6-26.8 2.1-14.7 3.9-26.7 4.1-26.7z"/>
	<path id="Layer" class="s7" d="m83.7 137.8c0.2 0 1.2 10 2.3 22.4 1.1 12.5 1.8 22.5 1.7 22.5-0.2 0-1.1-10-2.2-22.4-1.1-12.5-1.9-22.5-1.8-22.5z"/>
	<path id="Layer" class="s7" d="m122 123q-0.6-0.4-1.1-0.9l-2.8-2.5 0.3-0.1c-0.9 2.6-2.1 6-3.5 9.8l-0.2 0.4-0.3-0.4-0.2-0.2c-2.3-2.9-4.3-6.1-6-9.5-0.6-1.3-1-2.4-1.3-3.2q-0.3-0.5-0.4-1.2 0.3 0.6 0.6 1.2c0.3 0.7 0.8 1.7 1.5 3q2.6 5 6.1 9.3l0.2 0.3-0.5 0.1c1.4-3.8 2.7-7.2 3.7-9.8l0.1-0.2 0.2 0.2 2.7 2.6q0.5 0.5 0.9 1.1z"/>
	<path id="Layer" class="s7" d="m132.7 112.8q0.1 0.6 0 1.2-0.1 1.3-0.3 3.2c-0.2 2.7-0.7 6.4-1.2 10.5v0.3l-0.1 0.7-0.3-0.6c-2.4-3.3-4.5-6.4-5.9-8.6h0.2l-2.1 2.2q-0.4 0.5-0.9 0.8 0.3-0.5 0.7-0.9l2.1-2.3 0.1-0.2 0.2 0.2c1.5 2.2 3.6 5.2 6 8.5l-0.5 0.1v-0.3c0.5-4.1 1-7.8 1.3-10.5q0.3-1.9 0.5-3.2 0.1-0.5 0.2-1.1z"/>
	<path id="Layer" class="s7" d="m77.8 225c0 0 0.2-0.1 0.5 0 0.5 0.1 0.9 0.5 1.1 0.9q0.3 0.4 0.3 0.9 0.1 0.6-0.1 1.2-0.3 0.6-0.9 1-0.6 0.4-1.3 0.4c-0.5-0.1-0.9-0.3-1.3-0.6-0.3-0.3-0.5-0.8-0.6-1.2q-0.1-0.6 0-1.1 0.2-0.5 0.6-0.9c0.3-0.4 0.8-0.6 1.3-0.7 0.3 0 0.5 0 0.5 0.1-0.6 0.1-1.1 0.4-1.5 0.8q-0.3 0.4-0.4 0.8-0.2 0.5 0 0.9 0.1 0.5 0.5 0.9 0.4 0.4 0.9 0.5 0.5 0 1-0.3 0.5-0.3 0.7-0.8 0.2-0.4 0.2-0.9 0-0.4-0.2-0.8c-0.5-1-1.4-1-1.3-1.1z"/>
	<path id="Layer" class="s14" d="m157.6 206.4c0 0-13.3 1-12.7 0.8l3.8 7.2 12.4-0.8z"/>
	<path id="Layer" class="s7" d="m157.6 206.4q0.2 0.2 0.3 0.5l0.8 1.4c0.6 1.3 1.5 3 2.6 5.2l0.2 0.2h-0.3l-12.5 1h-0.1l-0.1-0.2-0.2-0.2c-1.3-2.5-2.5-4.9-3.7-7l0.3 0.1c0 0 0.1 0 0.1-0.3 0-0.2-0.2-0.1-0.1-0.1h0.5 0.7l1.3-0.1 2.5-0.1 4.1-0.2 2.6-0.2q0.5 0 1 0-0.5 0.2-1 0.2l-2.6 0.2-4.1 0.4-2.4 0.2h-1.4-0.6-0.4-0.4c0 0 0 0.1-0.2-0.1-0.1-0.2 0.1-0.3 0.1-0.3h0.1 0.2l0.1 0.1 3.7 7 0.1 0.3-0.2-0.1 12.4-0.9-0.1 0.3-2.5-5.2-0.7-1.4q-0.1-0.4-0.1-0.7z"/>
	<path id="Layer" class="s13" d="m96.4 208.1l-12.1-1.7-2.6 8 12.4 1.8z"/>
	<path id="Layer" class="s7" d="m96.4 208.1q0 0.3-0.1 0.6l-0.4 1.6c-0.4 1.4-0.9 3.5-1.6 6v0.1h-0.2l-12.2-1.7h-0.2-0.3l0.1-0.3c0.9-2.8 1.8-5.5 2.6-8l0.1-0.2h0.2c3.6 0.6 6.6 1 8.8 1.4l2.4 0.4q0.4 0.1 0.8 0.2c0 0-0.3 0-1-0.1l-2.5-0.3c-2.1-0.2-5.1-0.6-8.6-1.1l0.2-0.1c-0.8 2.4-1.6 5.1-2.5 8l-0.2-0.4h0.1l12.2 1.8-0.2 0.2c0.7-2.5 1.3-4.4 1.8-5.9q0.3-0.9 0.5-1.6 0.1-0.3 0.2-0.6z"/>
	<path id="Layer" class="s5" d="m180.6 127q0.3 0.2 0.6 0.5 0.2 0.3 0.3 0.7c0.1 0.3 0.1 0.7-0.1 1.1l-5.5 12.3-3.6 7.2-10.6-2.6 6.8-17.1c0 0 0.6-2.3 2.8-2.3h8.4q0.5 0 0.9 0.2z"/>
	<path id="Layer" class="s4" d="m178.2 130.1h1.4q0.1 0 0.3-0.1 0.1-0.1 0.2-0.2 0-0.1 0-0.3 0-0.1-0.1-0.3 0-0.1-0.2-0.1-0.1-0.1-0.2-0.1h-1.4q-0.2 0-0.3 0.1-0.1 0.1-0.2 0.2-0.1 0.1-0.1 0.3 0.1 0.1 0.1 0.2 0.1 0.1 0.2 0.2 0.1 0.1 0.3 0.1z"/>
	<path id="Layer" class="s8" d="m180 161.2c0.4-0.8-1-2-1-2 0 0-1.7-8.1-1-9.5 0.7-1.4 0.3-3.1 0.5-5.9 0.1-2.9 1.1-3.9 1.1-3.9 0 0 0.1-1.8 0.3-3.3 0.2-1-0.1-1.9-0.6-2.6l-3.4 7.6-0.6-0.7c-1.4-2.2-3.3-4.1-5.4-5.7-1.1-0.6-1.9 0.5-2.2 1.4-0.3 0.8 0.9 2.3 1.7 2.8 0.8 0.5 2 3.9 2.4 5.2 0.5 1.2 0 1.5-0.7 2-0.8 0.5-3.8-2-5.2-2.6q-2-1.1-3.5-2.7-0.4-0.4-0.9-0.4-0.5-0.1-1 0.2c-1.2 0.5-0.6 2.7-0.6 2.7-1.8 1.3-0.9 4-0.9 4 0 0-1.8 0.1-1.9 0.7-0.1 0.6 0.5 3.8 1.5 4.6 1 0.8 5.3 3.8 5.3 3.8 0.9 1.4 2.3 2.6 3.8 3.4l0.9 4.2c1.8 0.5 3.7 0.5 5.6 0 2.2-0.6 4.2-1.8 5.8-3.3z"/>
	<path id="Layer" class="s11" d="m159.9 143.5c0 0 0 0 0 0.1q0 0.2 0 0.3 0.1 0.6 0.4 1.1 0.5 0.7 1.2 1.2 0.8 0.6 1.7 1.1 1.6 1 3.4 1.7 0.6 0.2 1 0.4l0.4 0.1c0 0-0.5-0.3-1.4-0.7q-1.7-0.7-3.3-1.7c-1.1-0.5-2.1-1.3-2.9-2.2q-0.4-0.6-0.5-1.4z"/>
	<path id="Layer" class="s11" d="m159.1 147.8q0.3 0.5 0.7 0.9 1 1 2.2 1.8 1.2 0.8 2.6 1.3 0.5 0.2 1.1 0.3c0 0-0.4-0.2-1.1-0.5q-1.3-0.5-2.5-1.3-1.2-0.7-2.2-1.7c-0.5-0.5-0.8-0.8-0.8-0.8z"/>
	<path id="Layer" class="s11" d="m176.4 147.8q0.4-0.3 0.5-0.8 0.2-1.2-0.1-2.4-0.2-1.1-0.5-2.2-0.1-0.5-0.3-0.9 0 0.4 0.2 0.9c0.1 0.6 0.3 1.4 0.4 2.3q0.3 1.1 0.1 2.3-0.1 0.4-0.3 0.8z"/>
	<path id="Layer" class="s11" d="m172.1 151.4q0.1 0 0.4 0 0.4-0.1 0.6-0.5 0.2-0.4 0.2-0.8c0-0.2-0.2-0.4-0.2-0.3q0.1 0.5-0.2 1c-0.3 0.5-0.8 0.5-0.8 0.6z"/>
	<path id="Layer" class="s11" d="m168.6 154.6c0 0 0.2 0.1 0.4 0q0.6-0.1 0.9-0.5 0.4-0.4 0.4-0.9c0-0.3 0-0.5 0-0.4-0.1 0 0 0.1-0.1 0.4q-0.1 0.4-0.4 0.8-0.4 0.3-0.8 0.5-0.2 0-0.4 0.1z"/>
	<path id="Layer" class="s11" d="m165.5 156.5c0 0 0.1 0.1 0.3 0q0.5-0.1 0.7-0.5 0.3-0.3 0.3-0.8c0-0.2-0.1-0.3-0.1-0.3q-0.1 0.5-0.3 1-0.4 0.4-0.9 0.6z"/>
	<path id="Layer" class="s11" d="m167.7 160.4q0.4 0.3 0.8 0.4 0.9 0.3 1.8 0.4 1 0.2 2 0.2 0.3 0.1 0.8 0c0 0-1.3-0.1-2.7-0.3-1.5-0.3-2.6-0.7-2.7-0.7z"/>
	<path id="Layer" class="s7" d="m164.4 143.2l0.2-0.2 0.2-0.8 1-2.7c0.9-2.4 2-5.6 3.3-9.1 0.2-0.8 0.7-1.6 1.5-2.2 0.7-0.3 1.6-0.5 2.4-0.4l4.3 0.1h2.9 0.8q0.1 0 0.3 0h-0.3-0.8l-2.9-0.1-4.3-0.1q-0.7-0.1-1.3 0-0.7 0.1-1.3 0.4c-0.7 0.6-1.3 1.4-1.5 2.3-1.3 3.5-2.4 6.7-3.2 9.1l-1 2.7q-0.1 0.5-0.2 0.8-0.1 0.1-0.1 0.2z"/>
	<path id="Layer" class="s7" d="m437.5 445.4c0 0.2-92 0.3-205.5 0.3-113.4 0-205.5-0.1-205.5-0.3 0-0.1 92-0.2 205.5-0.2 113.5 0 205.5 0.1 205.5 0.2z"/>
	<path id="Layer" class="s4" d="m352 4.5h44c4.1 0 7.5 3.4 7.5 7.5v44c0 4.1-3.4 7.5-7.5 7.5h-44c-4.1 0-7.5-3.4-7.5-7.5v-44c0-4.1 3.4-7.5 7.5-7.5z"/>
	<path id="Layer" class="s15" d="m352 4.5h44c4.1 0 7.5 3.4 7.5 7.5v44c0 4.1-3.4 7.5-7.5 7.5h-44c-4.1 0-7.5-3.4-7.5-7.5v-44c0-4.1 3.4-7.5 7.5-7.5z"/>
	<path id="Layer" fill-rule="evenodd" class="s6" d="m389.1 31h-15v6h8.8c-0.8 4.2-4.6 7-8.8 6.8-5.2-0.2-9.2-4.2-9.4-9.4-0.2-5.4 4-10 9.4-10.2 2.2 0 4.4 0.8 6.2 2.4l4.6-4.4c-2.8-2.8-6.8-4.2-10.6-4.2-8.8 0-16 7.2-16 16 0 8.8 7.2 16 16 16 9.2 0 15.4-6.4 15.4-15.6-0.2-1.2-0.2-2.2-0.6-3.4z"/>
</svg>