<svg version="1.2" xmlns="http://www.w3.org/2000/svg" viewBox="0 0 450 311" width="450" height="311">
	<title>Shop-svg</title>
	<style>
		.s0 { fill: #ebebeb } 
		.s1 { fill: #f5f5f5 } 
		.s2 { fill: #e6e6e6 } 
		.s3 { fill: #f0f0f0 } 
		.s4 { fill: #263238 } 
		.s5 { opacity: .5;fill: #ffffff } 
		.s6 { opacity: .2;fill: #000000 } 
		.s7 { fill: #ff725e } 
		.s8 { fill: #ffffff } 
		.s9 { opacity: .8;fill: #ffffff } 
		.s10 { opacity: .7;fill: #ffffff } 
		.s11 { fill: #000000 } 
		.s12 { opacity: .6;fill: #ffffff } 
		.s13 { opacity: .1;fill: #000000 } 
		.s14 { opacity: .2;fill: #ffffff } 
		.s15 { fill: #e0e0e0 } 
		.s16 { fill: #455a64 } 
		.s17 { opacity: .4;fill: #ffffff } 
		.s18 { opacity: .6;fill: #000000 } 
		.s19 { opacity: .3;fill: #ffffff } 
		.s20 { fill: #ff7c33 } 
		.s21 { fill: #ff7456 } 
		.s22 { fill: #ff5833 } 
		.s23 { opacity: .2;fill: #ff5833 } 
		.s24 { fill: #ffa47d } 
		.s25 { fill: #ff7551 } 
		.s26 { opacity: .5;fill: #ff5833 } 
		.s27 { fill: #f9b7a2 } 
		.s28 { opacity: .7;fill: #ff725e } 
		.s29 { fill: #382b26 } 
		.s30 { opacity: .2;fill: #f9b7a2 } 
		.s31 { fill: #ffead2 } 
		.s32 { fill: #adacac } 
		.s33 { opacity: .3;fill: #ffead2 } 
		.s34 { fill: #ff7e40 } 
		.s35 { fill: #ffd8c6 } 
		.s36 { opacity: .3;fill: #ff5833 } 
		.s37 { opacity: .4;fill: #000000 } 
		.s38 { fill: #ff9979 } 
		.s39 { fill: #de5753 } 
		.s40 { opacity: .1;fill: #ffffff } 
		.s41 { opacity: .1;fill: #e0e0e0 } 
		.s42 { opacity: .5;fill: #e0e0e0 } 
		.s43 { fill: #ff6e40 } 
	</style>
	<path id="Layer" class="s0" d="m450 258.4h-500v0.3h500z"/>
	<path id="Layer" class="s0" d="m399.9 274.5h-33.1v0.2h33.1z"/>
	<path id="Layer" class="s0" d="m281.2 277.2h-8.7v0.3h8.7z"/>
	<path id="Layer" class="s0" d="m365.8 265.2h-19.2v0.3h19.2z"/>
	<path id="Layer" class="s0" d="m45.7 266.9h-43.2v0.2h43.2z"/>
	<path id="Layer" class="s0" d="m60.9 266.9h-6.3v0.2h6.3z"/>
	<path id="Layer" class="s0" d="m175.2 271.1h-93.7v0.3h93.7z"/>
	<path id="Layer" fill-rule="evenodd" class="s0" d="m403.3 213.8h-193.1c-1.5 0-3-0.6-4-1.7-1.1-1-1.7-2.5-1.7-4v-271.4c0-1.5 0.6-3 1.7-4 1.1-1.1 2.5-1.7 4-1.7h193.1c1.5 0 3 0.6 4 1.7 1.1 1 1.7 2.5 1.7 4v271.4c0 1.5-0.6 3-1.7 4-1 1.1-2.5 1.7-4 1.7zm-193.1-282.6c-1.4 0-2.8 0.6-3.8 1.6-1.1 1-1.6 2.4-1.7 3.9v271.4c0.1 1.4 0.6 2.8 1.7 3.8 1 1.1 2.4 1.6 3.8 1.7h193.1c1.5-0.1 2.8-0.6 3.9-1.7 1-1 1.6-2.4 1.6-3.8v-271.4c0-1.5-0.6-2.9-1.6-3.9-1.1-1-2.4-1.6-3.9-1.6z"/>
	<path id="Layer" class="s1" d="m230.8 52.2l-4.1 5.4 8.3 3.7z"/>
	<path id="Layer" class="s1" d="m257.6 164.3l5.3-4.2-7.1-5.6z"/>
	<path id="Layer" class="s1" d="m190.8 45.7l-0.4-6.8-8.7 2.7z"/>
	<path id="Layer" class="s1" d="m215.9 156.8l-4.1 5.3 8.3 3.8z"/>
	<path id="Layer" class="s1" d="m210.2 84.4l6.6 0.5-0.9 7.4-7.8-2.1z"/>
	<path id="Layer" class="s1" d="m231.8 128.9l-3.1 5.8-6.4-3.9 5.1-6.2z"/>
	<path id="Layer" class="s1" d="m190.8 173.1l6.6 0.5-0.9 7.4-7.8-2.1z"/>
	<path id="Layer" class="s1" d="m246.1 95.2l4.2 0.8c0 0-6.2 4.2-3.4 7.5 3 3.3-2 6.2-2 6.2l-3.7-2.5c0 0 3.3-2.5 1.6-5.8-1.7-3.3 3.3-6.2 3.3-6.2z"/>
	<path id="Layer" class="s1" d="m254.6 41.3l-3.8 5.6 8.5 3.2z"/>
	<path id="Layer" class="s1" d="m285 26.4l2.3-6.3-9-1.1z"/>
	<path id="Layer" class="s1" d="m283.3 51.8l1.2-6.5 7.3 1.7-3 7.6z"/>
	<path id="Layer" class="s1" d="m290.4 87.1l-4.2 0.5c0 0 4.6-5.8 0.9-8.1-3.8-2.3 0-6.5 0-6.5l4.3 1.2c0 0-2.4 3.4 0.2 6 2.6 2.6-1.2 6.9-1.2 6.9z"/>
	<path id="Layer" class="s1" d="m221.3 192.4l4.1 0.8c0 0-6.2 4.1-3.3 7.4 2.9 3.3-2.1 6.2-2.1 6.2l-3.7-2.5c0 0 3.3-2.4 1.6-5.7-1.6-3.4 3.3-6.2 3.3-6.2z"/>
	<path id="Layer" class="s1" d="m280.8 178.2l-4.1 5.4 8.2 3.7z"/>
	<path id="Layer" class="s1" d="m295.4 131.6l6.6 0.4-0.8 7.4-7.8-2z"/>
	<path id="Layer" class="s1" d="m252.3 190l4.1 0.8c0 0-6.2 4.2-3.3 7.5 2.9 3.3-2 6.2-2 6.2l-3.7-2.5c0 0 3.3-2.5 1.6-5.8-1.6-3.3 3.3-6.2 3.3-6.2z"/>
	<path id="Layer" class="s1" d="m221.8 33.6l-2.6 0.6c0 0 1.1-5.5-2.2-7.5-3.2-1.9-2.1-6-2.1-6l3.2 1c0 1 0.1 2 0.5 3 0.3 0.9 0.9 1.8 1.7 2.5 2.6 2.3 1.5 6.4 1.5 6.4z"/>
	<path id="Layer" class="s1" d="m193.6 133.9l-3.9 1.6c0 0 2.9-6.9-1.3-8-4.3-1.2-1.7-6.3-1.7-6.3h4.4c0 0-1.3 3.9 1.8 5.7 3.2 1.9 0.7 7 0.7 7z"/>
	<path id="Layer" class="s1" d="m176.7 93.8c0 0.6-0.2 1.2-0.5 1.7-0.4 0.5-0.9 0.9-1.4 1.1-0.6 0.2-1.2 0.3-1.8 0.2-0.6-0.1-1.2-0.4-1.6-0.9-0.4-0.4-0.7-0.9-0.9-1.5-0.1-0.6 0-1.3 0.2-1.8 0.3-0.6 0.6-1.1 1.2-1.4 0.5-0.4 1.1-0.5 1.7-0.5 0.8 0 1.6 0.3 2.2 0.9 0.6 0.5 0.9 1.3 0.9 2.2z"/>
	<path id="Layer" class="s1" d="m256 17.9c0 0.7-0.2 1.3-0.5 1.8-0.4 0.5-0.8 0.9-1.4 1.1-0.6 0.2-1.2 0.3-1.8 0.2-0.6-0.1-1.2-0.4-1.6-0.9-0.4-0.4-0.7-1-0.8-1.6-0.2-0.6-0.1-1.2 0.1-1.7 0.3-0.6 0.7-1.1 1.2-1.4 0.5-0.4 1.1-0.6 1.7-0.6 0.8 0 1.6 0.4 2.2 0.9 0.6 0.6 0.9 1.4 0.9 2.2z"/>
	<path id="Layer" class="s1" d="m158 43.8l-4.9 4.6 7.5 5z"/>
	<path id="Layer" class="s1" d="m142.9 157.6l3.3-5.9-8.7-2.5z"/>
	<path id="Layer" class="s1" d="m136.4 100l4.2-0.8c0 0-4.2 6.2-0.2 8.1 3.9 1.9 0.5 6.5 0.5 6.5l-4.4-0.8c0 0 2.1-3.6-0.7-6-2.8-2.5 0.6-7 0.6-7z"/>
	<path id="Layer" class="s1" d="m127.7 71l-6.7 0.2 0.2-7.5 8 1.4z"/>
	<path id="Layer" class="s1" d="m156.2 181.4c-0.1-0.6 0-1.3 0.3-1.8 0.3-0.5 0.8-1 1.3-1.2 0.6-0.3 1.2-0.4 1.8-0.4 0.6 0.1 1.2 0.3 1.6 0.7 0.5 0.4 0.9 0.9 1 1.5 0.2 0.6 0.2 1.2 0 1.8-0.2 0.6-0.5 1.1-1 1.5-0.5 0.4-1.1 0.6-1.7 0.7q-0.6 0-1.2-0.1-0.6-0.2-1-0.6-0.5-0.4-0.8-1-0.3-0.5-0.3-1.1z"/>
	<path id="Layer" class="s2" d="m308.8 183.7c-2.8 0.8-5.6 0.5-8.2-0.6-2.6-1.1-4.7-3.1-5.9-5.6l-6.6-13 3.3-1.7 6.6 13c1 2 2.7 3.5 4.8 4.2 2.1 0.7 4.4 0.5 6.3-0.4l11.4-5.4c1.9-0.9 3.4-2.6 4.2-4.6 0.8-2 0.8-4.2 0-6.2l-2.6-6.2 3.5-1.4 2.5 6.2c1.2 2.9 1.2 6.1 0.1 9-1.1 2.9-3.3 5.2-6.1 6.6l-11.3 5.4q-1 0.4-2.1 0.7z"/>
	<path id="Layer" class="s3" d="m352.9 144.9l-6.6 3-2.4 1.1-7.3 3.3-2.4 1.1-6.9 3.1-2.4 1.1-6.4 2.9-2.5 1.1-6.1 2.8-2.4 1.1-6.2 2.8-2.4 1.1-6.2 2.8-2.4 1.1-1.7 0.7-6.9-8.3 5.1-10.1 1.8-3.6 4.8-9.8 1.9-3.6 4.8-9.7 1.8-3.6 4.9-9.7 1.8-3.7 3.9-7.8 2.1 2.1 3.2 3.2 9.6 9.7 3.2 3.2 10 10.2 3.3 3.3z"/>
	<path id="Layer" class="s2" d="m281.7 165.7l-6.6 3.2 9.4 11.4 4.1-6.3z"/>
	<path id="Layer" class="s2" d="m288.6 152l4.1 20.2-2.4 1.1-3.5-17.7z"/>
	<path id="Layer" class="s2" d="m295.3 138.6l6 29.7-2.4 1.1-5.5-27.1z"/>
	<path id="Layer" class="s2" d="m301.9 125.3l8 39.1-2.4 1.1-7.4-36.6z"/>
	<path id="Layer" class="s2" d="m308.6 111.9l9.9 48.6-2.5 1.1-9.2-46z"/>
	<path id="Layer" class="s2" d="m317.8 109.4l9.5 47.1-2.4 1.1-10.3-51.4z"/>
	<path id="Layer" class="s2" d="m330.6 122.3l6 30-2.4 1.1-6.8-34.3z"/>
	<path id="Layer" class="s2" d="m343.9 135.8l2.4 12.1-2.4 1.1-3.3-16.5z"/>
	<path id="Layer" class="s2" d="m322.4 98.8l3.4-22.2 4.4 1.2z"/>
	<path id="Layer" class="s2" d="m337.8 104.6l18.8-29.6 5.7 4.9z"/>
	<path id="Layer" class="s2" d="m351.3 117.1l28.3-18.2 2.6 6.9z"/>
	<path id="Layer" class="s2" d="m354.7 128.1l31.8-3.2 0.1 8.3z"/>
	<path id="Layer" class="s3" d="m43.5 144.9l6.7 3 2.3 1.1 7.3 3.3 2.4 1.1 7 3.1 2.4 1.1 6.4 2.9 2.4 1.1 6.2 2.8 2.4 1.1 6.2 2.8 2.4 1.1 6.2 2.8 2.4 1.1 1.7 0.7 6.9-8.3-5.1-10.1-1.8-3.6-4.9-9.8-1.8-3.6-4.8-9.7-1.8-3.6-4.9-9.7-1.8-3.7-3.9-7.8-2.1 2.1-3.2 3.2-9.6 9.7-3.2 3.2-10.1 10.2-3.2 3.3z"/>
	<path id="Layer" class="s2" d="m94.6 125.3l-8 39.1 2.4 1.1 7.4-36.6z"/>
	<path id="Layer" class="s2" d="m87.9 111.9l-9.9 48.6 2.4 1.1 9.3-46z"/>
	<path id="Layer" class="s2" d="m78.7 109.4l-9.5 47.1 2.4 1.1 10.3-51.4z"/>
	<path id="Layer" class="s2" d="m65.9 122.3l-6.1 30 2.4 1.1 6.9-34.3z"/>
	<path id="Layer" class="s2" d="m52.6 135.8l-2.4 12.1 2.3 1.1 3.3-16.5z"/>
	<path id="Layer" class="s2" d="m74 98.8l-3.3-22.2-4.4 1.2z"/>
	<path id="Layer" class="s2" d="m58.7 104.6l-18.9-29.6-5.6 4.9z"/>
	<path id="Layer" class="s2" d="m45.1 117.1l-28.2-18.2-2.6 6.9z"/>
	<path id="Layer" class="s2" d="m41.8 128.1l-31.8-3.2-0.1 8.3z"/>
	<path id="Layer" class="s1" d="m200 303.6c107.1 0 193.9-5.1 193.9-11.4 0-6.2-86.8-11.3-193.9-11.3-107.1 0-193.9 5.1-193.9 11.3 0 6.3 86.8 11.4 193.9 11.4z"/>
	<path id="Layer" class="s4" d="m72.5 138.4h-4.8v154.5h4.8z"/>
	<path id="Layer" class="s5" d="m72.5 138.4h-4.8v154.6h4.8z"/>
	<path id="Layer" class="s6" d="m72.5 139.3v36.6l-4.8-1.8v-34.8z"/>
	<path id="Layer" class="s7" d="m96.1 114.6h-52v49.5h52z"/>
	<path id="Layer" fill-rule="evenodd" class="s8" d="m94.5 162.4h-48.8v-46h48.8zm-47.7-45v43.9h46.7v-43.9z"/>
	<path id="Layer" class="s8" d="m75.1 140.4h-10v9.5h-5.4l10.4 9.1 10.4-9.1h-5.4z"/>
	<path id="Layer" class="s8" d="m63.3 125.3h1.5v2.8c-0.8 0.6-1.8 0.9-2.8 0.9q-0.7 0.1-1.4-0.2-0.7-0.2-1.3-0.7-0.5-0.5-0.8-1.2-0.3-0.7-0.3-1.4 0-0.8 0.3-1.4 0.3-0.7 0.8-1.2 0.6-0.5 1.3-0.8 0.7-0.2 1.4-0.2 0.8 0 1.6 0.3 0.7 0.3 1.2 0.9l-1 1q-0.3-0.4-0.7-0.6-0.5-0.2-1-0.2-0.5-0.1-0.9 0.1-0.4 0.2-0.8 0.5-0.3 0.3-0.5 0.7-0.1 0.4-0.1 0.9 0 0.4 0.1 0.8 0.2 0.5 0.5 0.8 0.4 0.3 0.8 0.4 0.4 0.2 0.9 0.2 0.6 0 1.2-0.3z"/>
	<path id="Layer" class="s8" d="m66.2 122h1.6v6.8h-1.6z"/>
	<path id="Layer" class="s8" d="m76 122l-3 6.8h-1.6l-2.9-6.8h1.7l2.1 4.9 2.1-4.9z"/>
	<path id="Layer" class="s8" d="m81.8 127.6v1.2h-5.3v-6.8h5.2v1.3h-3.6v1.5h3.2v1.2h-3.2v1.6z"/>
	<path id="Layer" fill-rule="evenodd" class="s8" d="m59.5 136.4h-3.1l-0.6 1.4h-1.7l3-6.8h1.6l3 6.8h-1.7zm-0.5-1.2l-1-2.6-1.1 2.6z"/>
	<path id="Layer" class="s8" d="m72.5 131l-2.3 6.8h-1.7l-1.5-4.6-1.5 4.6h-1.7l-2.3-6.8h1.7l1.5 4.8 1.6-4.8h1.5l1.5 4.8 1.6-4.8z"/>
	<path id="Layer" fill-rule="evenodd" class="s8" d="m77.6 136.4h-3.2l-0.6 1.4h-1.6l3-6.8h1.6l3 6.8h-1.6zm-0.5-1.2l-1.1-2.6-1.1 2.6z"/>
	<path id="Layer" class="s8" d="m83.4 135.4v2.4h-1.6v-2.4l-2.6-4.4h1.7l1.8 3 1.8-3h1.6z"/>
	<path id="Layer" fill-rule="evenodd" class="s4" d="m108.5 211.7c-3.4 0.4-14.7 1.2-18.6-3.2-0.7-0.7-1.2-1.6-1.4-2.6-0.2-0.9-0.1-1.9 0.2-2.9 0.8-3.4 3.3-5 6.9-5 4.7 0 10.8 3.1 14 7 2.1-3.7 6.2-9.2 12.4-8.6 4.5 0.5 7.9 3.9 7.6 7.6-0.2 2-2.1 8.4-19 7.6l-1.2 3.4zm-13-10c-1.8 0-2.8 0.6-3.3 2.3-0.3 1.2 0 1.6 0.4 2 2.1 2.4 9.6 2.7 14.7 2.3-1.9-3.1-7.6-6.6-11.8-6.6zm16.6 6.3q0-0.1 0-0.1 0 0 0 0zm13.7-4.2c0.1-1.5-1.6-3.3-4.2-3.6q-0.3 0-0.6 0c-4.5 0-7.6 5.2-8.9 7.8 10.5 0.3 13.6-2.6 13.7-4.2z"/>
	<path id="Layer" class="s7" d="m73 260.1h73.4v-50.4h-73.4z"/>
	<path id="Layer" class="s6" d="m73 260.1h73.4v-33h-73.4z"/>
	<path id="Layer" class="s4" d="m91.6 260.1h5.9v-50.4h-5.9z"/>
	<path id="Layer" class="s6" d="m117.3 260.1h29.1v-50.4h-29.1z"/>
	<path id="Layer" class="s4" d="m131.8 260.1h4.3v-50.4h-4.3z"/>
	<path id="Layer" class="s9" d="m91.6 260.1h5.9v-50.4h-5.9z"/>
	<path id="Layer" class="s10" d="m131.8 260.1h4.3v-50.4h-4.3z"/>
	<path id="Layer" fill-rule="evenodd" class="s4" d="m74.8 233.9c-2.4-0.9-24.2-9-25.4-16.7q-0.5-2.7 2.2-4.8c0.8-0.7 1.9-1.2 2.9-1.4 1.1-0.2 2.2-0.2 3.3 0.1 4.9 1.1 9.7 7.1 13.1 12.4-1.8-6.5-3.3-14.3-0.7-18 0.5-0.7 1.2-1.3 2-1.7 0.8-0.4 1.7-0.5 2.6-0.5 0.9 0 1.9 0.2 2.7 0.7 0.8 0.4 1.5 1.1 2 1.9 2.7 4 1.1 12.5-0.7 19 4-6.3 9.6-13.8 13.5-13.5 1 0.1 2.3 0.7 3.1 3 0.4 1.1 0.6 2.2 0.5 3.3-0.1 1.1-0.4 2.2-1 3.2-3.9 7.9-18.8 12.7-19.5 12.9q-0.1 0-0.2 0-0.2 0-0.4 0.1zm2.3-2.6c4.3-1.6 13.5-5.7 16.2-11.1q0.6-1.2 0.7-2.5 0.1-1.4-0.3-2.6c-0.6-1.7-1.4-1.8-1.6-1.8h-0.1c-3.5 0-10.5 10.2-14.9 18zm-24.4-17.4c-0.5 0.3-0.9 0.7-1.2 1.3-0.3 0.5-0.4 1.1-0.3 1.7 0.8 5.1 14.6 11.5 22.1 14.4-2.6-4.9-9.4-16.9-15.9-18.5q-0.7-0.1-1.4-0.1c-1.2 0-2.4 0.4-3.3 1.2zm19-7.3c-2.9 4.2 1 17.1 3.5 23.8 2.3-6.5 5.8-19 2.8-23.5q-0.5-0.8-1.4-1.3-0.8-0.4-1.8-0.4h-0.2q-0.9-0.1-1.7 0.3-0.7 0.4-1.2 1.1z"/>
	<g id="Layer" style="opacity: .3">
		<path id="Layer" fill-rule="evenodd" class="s11" d="m74.8 233.9c-2.4-0.9-24.2-9-25.4-16.7q-0.5-2.7 2.2-4.8c0.8-0.7 1.9-1.2 2.9-1.4 1.1-0.2 2.2-0.2 3.3 0.1 4.9 1.1 9.7 7.1 13.1 12.4-1.8-6.5-3.3-14.3-0.7-18 0.5-0.7 1.2-1.3 2-1.7 0.8-0.4 1.7-0.5 2.6-0.5 0.9 0 1.9 0.2 2.7 0.7 0.8 0.4 1.5 1.1 2 1.9 2.7 4 1.1 12.5-0.7 19 4-6.3 9.6-13.8 13.5-13.5 1 0.1 2.3 0.7 3.1 3 0.4 1.1 0.6 2.2 0.5 3.3-0.1 1.1-0.4 2.2-1 3.2-3.9 7.9-18.8 12.7-19.5 12.9q-0.1 0-0.2 0-0.2 0-0.4 0.1zm2.3-2.6c4.3-1.6 13.5-5.7 16.2-11.1q0.6-1.2 0.7-2.5 0.1-1.4-0.3-2.6c-0.6-1.7-1.4-1.8-1.6-1.8h-0.1c-3.5 0-10.5 10.2-14.9 18zm-24.4-17.4c-0.5 0.3-0.9 0.7-1.2 1.3-0.3 0.5-0.4 1.1-0.3 1.7 0.8 5.1 14.6 11.5 22.1 14.4-2.6-4.9-9.4-16.9-15.9-18.5q-0.7-0.1-1.4-0.1c-1.2 0-2.4 0.4-3.3 1.2zm19-7.3c-2.9 4.2 1 17.1 3.5 23.8 2.3-6.5 5.8-19 2.8-23.5q-0.5-0.8-1.4-1.3-0.8-0.4-1.8-0.4h-0.2q-0.9-0.1-1.7 0.3-0.7 0.4-1.2 1.1z"/>
	</g>
	<path id="Layer" class="s7" d="m121.9 230.2h-91.4v62.8h91.4z"/>
	<path id="Layer" class="s12" d="m121.9 230.2h-91.4v62.8h91.4z"/>
	<path id="Layer" class="s13" d="m121.9 251.9h-91.4v41.1h91.4z"/>
	<path id="Layer" class="s14" d="m66.8 230.2h-36.3v62.8h36.3z"/>
	<path id="Layer" class="s4" d="m98.8 230.2h-7.4v62.8h7.4z"/>
	<path id="Layer" class="s4" d="m48.8 230.2h-5.5v62.8h5.5z"/>
	<path id="Layer" class="s6" d="m98.8 230.2h-7.4v62.8h7.4z"/>
	<path id="Layer" class="s13" d="m48.8 230.2h-5.5v62.8h5.5z"/>
	<path id="Layer" fill-rule="evenodd" class="s7" d="m131.4 244.6c-3.5 0.3-14.8 1.2-18.7-3.2-0.7-0.8-1.1-1.6-1.4-2.6-0.2-1-0.1-2 0.2-2.9 0.8-3.4 3.3-5.1 6.9-5.1 4.7 0 10.8 3.2 14 7 2.1-3.6 6.2-9.2 12.4-8.5 4.5 0.4 7.9 3.8 7.6 7.6-0.2 2-2.1 8.4-19 7.6l-1.2 3.3zm-13-10c-1.9 0-2.9 0.6-3.3 2.3-0.3 1.2 0 1.6 0.3 2 2.1 2.4 9.6 2.7 14.7 2.3-1.8-3-7.6-6.5-11.7-6.5zm16.6 6.2c10.5 0.2 13.6-2.6 13.8-4.2 0.1-1.5-1.7-3.4-4.2-3.6q-0.3 0-0.6 0c-4.5 0-7.7 5.2-9 7.8z"/>
	<path id="Layer" class="s4" d="m95.9 292.9l73.4 0.1v-50.5h-73.4z"/>
	<path id="Layer" class="s5" d="m95.9 292.9l73.4 0.1v-50.5h-73.4z"/>
	<path id="Layer" class="s6" d="m95.9 293h73.4v-33h-73.4z"/>
	<path id="Layer" class="s7" d="m114.4 292.9l6 0.1v-50.5h-6z"/>
	<path id="Layer" class="s7" d="m154.6 292.9l4.3 0.1v-50.5h-4.3z"/>
	<path id="Layer" class="s6" d="m140.1 292.9l29.2 0.1v-50.5h-29.2z"/>
	<path id="Layer" class="s14" d="m114.4 292.9l6 0.1v-50.5h-6z"/>
	<path id="Layer" fill-rule="evenodd" class="s15" d="m57 266c-0.5-1.2-0.5-3 1.8-5.1q1-0.8 2.1-1.2c0.8-0.2 1.6-0.3 2.4-0.1 4.5 0.7 8.8 6.4 10.5 9 2.4-3.4 9.4-12.3 13.7-11.5q2.3 0.4 3 3.5c0.4 1.1 0.4 2.2 0.2 3.3-0.2 1.2-0.6 2.2-1.3 3.1-3.7 5-13.7 5.5-14.1 5.5-7.9-0.1-16.8-2.3-18.3-6.5zm17.6 4.6h0.7c0.4 0 9.5-0.5 12.7-4.7 0.5-0.7 0.8-1.5 0.9-2.4 0.2-0.8 0.1-1.7-0.1-2.5q-0.5-1.9-1.6-2.1-0.1 0-0.3 0c-3.1-0.1-9.1 7-12.4 11.7zm-14.5-8.4q-1.9 1.6-1.4 3.1c0.9 2.3 6.4 4.8 14.2 5.2-0.6-0.9-5.4-8.5-9.8-9.2q-0.3 0-0.6 0c-0.9 0-1.8 0.3-2.4 0.9z"/>
	<path id="Layer" class="s7" d="m35.9 293h73.4v-22.9h-73.4z"/>
	<path id="Layer" class="s14" d="m35.9 293h73.4v-22.9h-73.4z"/>
	<path id="Layer" class="s6" d="m35.9 293h73.4v-14.6h-73.4z"/>
	<path id="Layer" class="s8" d="m54.4 293h6v-22.9h-6z"/>
	<path id="Layer" class="s8" d="m94.6 293h4.4v-22.9h-4.4z"/>
	<path id="Layer" class="s6" d="m80.1 293h29.2v-22.9h-29.2z"/>
	<path id="Layer" class="s16" d="m317.1 293h-124.7c-1.2 0-2.4-0.2-3.5-0.7-1.1-0.5-2.2-1.2-3-2.1-0.8-0.8-1.5-1.9-1.9-3-0.4-1.2-0.6-2.4-0.5-3.6l12.4-263.7c0.1-2.6 1.2-4.9 3-6.7 1.9-1.7 4.3-2.7 6.8-2.8h124.7c1.2 0 2.4 0.3 3.6 0.7 1.1 0.5 2.1 1.2 2.9 2.1 0.9 0.9 1.5 1.9 1.9 3.1 0.5 1.1 0.6 2.3 0.6 3.6l-12.4 263.6c-0.1 2.6-1.2 5-3.1 6.7-1.8 1.8-4.2 2.8-6.8 2.8z"/>
	<path id="Layer" class="s17" d="m317.1 293h-124.7c-1.2 0-2.4-0.2-3.5-0.7-1.1-0.5-2.2-1.2-3-2.1-0.8-0.8-1.5-1.9-1.9-3-0.4-1.2-0.6-2.4-0.5-3.6l12.4-263.7c0.1-2.6 1.2-4.9 3-6.7 1.9-1.7 4.3-2.7 6.8-2.8h124.7c1.2 0 2.4 0.3 3.6 0.7 1.1 0.5 2.1 1.2 2.9 2.1 0.9 0.9 1.5 1.9 1.9 3.1 0.5 1.1 0.6 2.3 0.6 3.6l-12.4 263.6c-0.1 2.6-1.2 5-3.1 6.7-1.8 1.8-4.2 2.8-6.8 2.8z"/>
	<path id="Layer" class="s6" d="m317.1 293h-124.7c-1.2 0-2.4-0.2-3.5-0.7-1.1-0.5-2.2-1.2-3-2.1-0.8-0.8-1.5-1.9-1.9-3-0.4-1.2-0.6-2.4-0.5-3.6l12.4-263.7c0.1-2.6 1.2-4.9 3-6.7 1.9-1.7 4.3-2.7 6.8-2.8h124.7c1.2 0 2.4 0.3 3.6 0.7 1.1 0.5 2.1 1.2 2.9 2.1 0.9 0.9 1.5 1.9 1.9 3.1 0.5 1.1 0.6 2.3 0.6 3.6l-12.4 263.6c-0.1 2.6-1.2 5-3.1 6.7-1.8 1.8-4.2 2.8-6.8 2.8z"/>
	<path id="Layer" class="s16" d="m307.1 293h-124.7c-1.2 0-2.4-0.2-3.5-0.7-1.1-0.5-2.2-1.2-3-2.1-0.8-0.8-1.5-1.9-1.9-3-0.4-1.2-0.6-2.4-0.5-3.6l12.4-263.7c0.1-2.6 1.2-4.9 3-6.7 1.9-1.7 4.3-2.7 6.8-2.8h124.7c1.2 0 2.4 0.3 3.6 0.7 1.1 0.5 2.1 1.2 2.9 2.1 0.9 0.9 1.5 1.9 1.9 3.1 0.4 1.1 0.6 2.3 0.5 3.6l-12.3 263.6c-0.1 2.6-1.2 5-3.1 6.7-1.8 1.8-4.2 2.8-6.8 2.8z"/>
	<path id="Layer" class="s17" d="m307.1 293h-124.7c-1.2 0-2.4-0.2-3.5-0.7-1.1-0.5-2.2-1.2-3-2.1-0.8-0.8-1.5-1.9-1.9-3-0.4-1.2-0.6-2.4-0.5-3.6l12.4-263.7c0.1-2.6 1.2-4.9 3-6.7 1.9-1.7 4.3-2.7 6.8-2.8h124.7c1.2 0 2.4 0.3 3.6 0.7 1.1 0.5 2.1 1.2 2.9 2.1 0.9 0.9 1.5 1.9 1.9 3.1 0.4 1.1 0.6 2.3 0.5 3.6l-12.3 263.6c-0.1 2.6-1.2 5-3.1 6.7-1.8 1.8-4.2 2.8-6.8 2.8z"/>
	<path id="Layer" class="s18" d="m257.7 16.7c0 0.5-0.2 1-0.5 1.4-0.4 0.3-0.9 0.6-1.4 0.6q-0.4 0-0.7-0.2-0.3-0.2-0.6-0.5-0.2-0.2-0.4-0.6-0.1-0.4 0-0.7c0-0.5 0.2-1 0.5-1.4 0.4-0.4 0.9-0.6 1.4-0.6q0.4 0 0.7 0.1 0.4 0.2 0.6 0.5 0.2 0.3 0.4 0.6 0.1 0.4 0 0.8z"/>
	<path id="Layer" class="s18" d="m261.5 16.7c0 0.3-0.2 0.6-0.4 0.9-0.2 0.2-0.5 0.3-0.9 0.4q-0.2-0.1-0.4-0.2-0.3-0.1-0.4-0.2-0.2-0.2-0.2-0.5-0.1-0.2-0.1-0.4c0-0.4 0.1-0.7 0.4-0.9 0.2-0.3 0.5-0.4 0.8-0.4q0.3 0 0.5 0.1 0.2 0.1 0.4 0.3 0.1 0.2 0.2 0.4 0.1 0.2 0.1 0.5z"/>
	<path id="Layer" class="s4" d="m324.5 19.9l-12.4 263.1c0 1-0.4 2-1.1 2.7-0.7 0.7-1.6 1.1-2.6 1.1h-127q-0.7 0-1.3-0.3-0.6-0.3-1-0.8-0.4-0.5-0.6-1.1-0.2-0.6-0.1-1.3l12.4-263.7c0-0.8 0.3-1.6 0.8-2.2 0.5-0.6 1.3-1 2.1-1.1h31.7c0.5 0 0.9 0.2 1.3 0.5 0.4 0.3 0.6 0.7 0.7 1.1l1.2 3.5c0.1 0.5 0.4 0.9 0.7 1.1 0.4 0.3 0.8 0.5 1.3 0.5h54.1q0.7 0 1.2-0.5 0.6-0.4 0.9-1l1.4-3.6q0.3-0.7 0.9-1.1 0.6-0.4 1.3-0.5h31.3q0.6 0.1 1.2 0.4 0.5 0.3 0.9 0.8 0.4 0.5 0.6 1.1 0.2 0.6 0.1 1.3z"/>
	<path id="Layer" class="s19" d="m323.9 32.8l-11.1 236.6h-133.8l11.1-236.6z"/>
	<path id="Layer" class="s20" d="m319.2 63.3h-127.2l-9.6 202.7h127.2z"/>
	<path id="Layer" class="s9" d="m319.2 63.3h-127.2l-9.6 202.7h127.2z"/>
	<path id="Layer" fill-rule="evenodd" class="s8" d="m246.3 280.4h-1.8q-0.5 0-0.9-0.2-0.4-0.1-0.7-0.5-0.2-0.3-0.4-0.7-0.1-0.4-0.1-0.8l0.1-2.3c0-0.6 0.3-1.2 0.7-1.6 0.4-0.4 1-0.6 1.5-0.6h1.9q0.4 0 0.8 0.2 0.4 0.1 0.7 0.5 0.3 0.3 0.4 0.7 0.2 0.4 0.2 0.8l-0.1 2.3c-0.1 0.6-0.3 1.1-0.8 1.5-0.4 0.4-0.9 0.7-1.5 0.7zm-1.6-5.8c-0.3 0-0.7 0.1-0.9 0.4-0.3 0.2-0.4 0.6-0.4 0.9l-0.2 2.3q0 0.3 0.1 0.5 0.1 0.3 0.3 0.4 0.2 0.2 0.4 0.3 0.2 0.1 0.5 0.1h1.8c0.3 0 0.7-0.1 1-0.4 0.2-0.2 0.4-0.6 0.4-0.9l0.1-2.3q0-0.3-0.1-0.5-0.1-0.3-0.2-0.4-0.2-0.2-0.5-0.3-0.2-0.1-0.4-0.1z"/>
	<path id="Layer" class="s20" d="m319.3 61.3h-127.2l1.1-23.9h127.2z"/>
	<path id="Layer" class="s8" d="m313.9 45.3q0 0.4-0.3 0.7-0.3 0.3-0.7 0.3-0.2 0-0.4-0.1-0.2-0.1-0.3-0.2-0.1-0.2-0.2-0.4-0.1-0.1-0.1-0.3 0.1-0.5 0.3-0.8 0.3-0.3 0.7-0.3 0.2 0 0.4 0.1 0.2 0.1 0.3 0.2 0.2 0.2 0.2 0.4 0.1 0.2 0.1 0.4z"/>
	<path id="Layer" class="s8" d="m313.7 49.3q0 0.4-0.3 0.8-0.3 0.3-0.7 0.3-0.4 0-0.7-0.3-0.3-0.4-0.2-0.8 0-0.4 0.3-0.7 0.2-0.3 0.7-0.3 0.4 0 0.6 0.3 0.3 0.3 0.3 0.7z"/>
	<path id="Layer" class="s8" d="m313.5 53.4q0 0.4-0.3 0.7-0.3 0.3-0.7 0.4-0.4-0.1-0.7-0.4-0.2-0.3-0.2-0.7 0-0.4 0.3-0.7 0.3-0.3 0.7-0.4 0.4 0.1 0.7 0.4 0.2 0.3 0.2 0.7z"/>
	<path id="Layer" fill-rule="evenodd" class="s8" d="m227.1 53.5h-1.4l2.5-6.5h1.8l1.9 6.5h-1.5l-0.4-1.5h0.6v-1.1h-0.9l-0.6-2.4h-0.1l-0.9 2.4h-0.9l-0.1 1.1h0.6zm0.5-1.5l0.4-1h1.7l0.3 1zm5-4.1l0.1-1.2h5.6l-0.1 1.2h-2.1l-0.2 5.6h-1.5l0.3-5.6zm6.3 0v-1.2h5.6l-0.1 1.2h-2l-0.3 5.6h-1.4l0.2-5.6zm6.3 5.6l0.3-6.8h4.6l-0.1 1.2h-3.1l-0.1 1.6h2.9v1.2h-3v1.6h3.1v1.2zm11.7-6.8l-0.3 6.8h-1.3l-2.7-4.3h-0.1l-0.2 4.3h-1.4l0.3-6.8h1.3l2.7 4.3h0.1l0.2-4.3zm3.2 6.8h-2.4l0.4-6.8h2.4q1 0 1.7 0.4 0.8 0.4 1.1 1.2 0.4 0.7 0.3 1.8 0 1.1-0.5 1.8-0.4 0.8-1.2 1.2-0.7 0.4-1.8 0.4zm-0.9-1.2h0.9q0.7 0 1.1-0.3 0.5-0.2 0.7-0.7 0.3-0.4 0.3-1.2 0-0.8-0.2-1.2-0.2-0.5-0.6-0.7-0.4-0.3-1-0.3h-1zm6.1 1.3h-1.5l2.7-6.8h1.8l2 6.8h-1.5l-0.4-1.6h0.6v-1.1h-0.9l-0.7-2.6h-0.1l-1 2.6h-0.9l-0.1 1.1h0.6zm0.6-1.5l0.4-1.1h1.7l0.4 1.1zm11.2-5.3l-0.3 6.8h-1.3l-2.7-4.3h-0.1l-0.2 4.3h-1.4l0.3-6.8h1.3l2.7 4.3h0.1l0.2-4.3zm7.1 2.4h-1.5q0-0.3-0.1-0.5-0.1-0.2-0.3-0.4-0.2-0.1-0.5-0.2-0.2-0.1-0.5-0.1-0.5 0-0.9 0.3-0.4 0.2-0.7 0.7-0.2 0.5-0.3 1.2 0 0.8 0.2 1.2 0.2 0.5 0.6 0.8 0.4 0.2 0.9 0.2 0.3 0 0.5 0 0.3-0.1 0.5-0.3 0.2-0.1 0.3-0.3 0.1-0.2 0.2-0.5h1.5q-0.1 0.5-0.4 0.9-0.2 0.4-0.6 0.8-0.4 0.3-0.9 0.5-0.6 0.2-1.2 0.2-0.9 0-1.6-0.4-0.7-0.4-1.1-1.2-0.4-0.8-0.3-1.9 0-1.1 0.5-1.9 0.5-0.7 1.2-1.2 0.7-0.4 1.6-0.4 0.6 0 1.1 0.2 0.5 0.2 0.9 0.5 0.4 0.3 0.6 0.8 0.2 0.4 0.3 1zm0.8 4.4l0.3-6.8h4.6l-0.1 1.2h-3.1l-0.1 1.6h2.9v1.2h-3v1.6h3.1v1.2z"/>
	<path id="Layer" class="s8" d="m246.3 261.5q-0.1 0-0.3-0.1l-5-3q-0.2-0.1-0.2-0.2-0.1-0.2 0-0.4 0.1 0 0.1-0.1 0.1 0 0.2-0.1 0.1 0 0.1 0 0.1 0 0.2 0.1l4.9 2.9 5.1-2.9q0.1-0.1 0.2-0.1 0.1 0 0.2 0 0 0.1 0.1 0.1 0.1 0.1 0.1 0.1 0.1 0.2 0.1 0.4-0.1 0.1-0.2 0.2l-5.4 3q-0.1 0.1-0.2 0.1z"/>
	<path id="Layer" class="s8" d="m246.4 257.9q-0.1 0-0.2-0.1l-5.1-3q-0.1-0.1-0.2-0.3 0-0.1 0.1-0.3 0.1-0.1 0.2-0.2 0.2 0 0.4 0.1l4.9 2.9 5.1-3q0.2-0.1 0.3 0 0.2 0 0.3 0.2 0.1 0.1 0 0.3 0 0.2-0.2 0.3l-5.3 3q-0.1 0-0.3 0.1z"/>
	<path id="Layer" class="s12" d="m205.1 26.9h1.7l0.1-2.4h-1.7z"/>
	<path id="Layer" class="s12" d="m202.4 26.9h1.7l0.1-3.2h-1.6z"/>
	<path id="Layer" class="s12" d="m199.7 26.9h1.7l0.2-4h-1.7z"/>
	<path id="Layer" class="s12" d="m197.1 26.9h1.6l0.2-4.8h-1.6z"/>
	<path id="Layer" class="s12" d="m309.1 26.1h-1l0.1-2.5h1z"/>
	<path id="Layer" class="s12" d="m309.7 26.9h7.8l0.2-4.1h-7.8z"/>
	<path id="Layer" fill-rule="evenodd" class="s20" d="m252.8 116.1c-40.5 6.7-40.8-18.8-25.9-21.2 12.5-2 22.9 14 25.9 19.4 3-5.4 13.3-21.4 25.9-19.4 14.9 2.4 14.6 27.9-25.9 21.2zm-5.3-2.2c0 0-16.8-16.5-22.6-10.7-5.8 5.7 22.6 10.7 22.6 10.7zm33.2-10.7c-5.9-5.8-22.6 10.7-22.6 10.7 0 0 28.4-5 22.6-10.7z"/>
	<path id="Layer" fill-rule="evenodd" class="s12" d="m280 114.5c-5.6 2.6-14.4 3.7-27.2 1.6-12.9 2.1-21.7 1-27.2-1.6-12-5.6-8.9-18 1.3-19.6 12.5-2 22.9 14 25.9 19.4 3-5.4 13.3-21.4 25.9-19.4 10.2 1.6 13.2 14 1.3 19.6zm-32.5-0.6c0 0-16.8-16.5-22.6-10.7-5.8 5.7 22.6 10.7 22.6 10.7zm33.1-10.7c-5.8-5.8-22.5 10.7-22.5 10.7 0 0 28.4-5 22.5-10.7z"/>
	<path id="Layer" class="s21" d="m294.4 118l-0.7 13.7-0.1 2.9-2.5 53.5h-84.5l2.5-53.5 0.2-2.9 0.6-13.7z"/>
	<path id="Layer" class="s22" d="m296.4 116l-0.7 15.7h-88.4l0.7-15.7z"/>
	<path id="Layer" class="s10" d="m258.3 116l-0.1 2-0.6 13.7-2.7 56.4h-13l2.7-56.4 0.6-13.7 0.1-2z"/>
	<path id="Layer" class="s6" d="m293.7 131.7l-0.1 2.9h-84.5l0.2-2.9z"/>
	<path id="Layer" class="s22" d="m270.2 228.2h-46.6q-0.9 0-1.8-0.3-0.8-0.4-1.4-1-0.6-0.7-0.9-1.5-0.3-0.9-0.3-1.8l0.6-12.7c0-1.2 0.5-2.4 1.4-3.2 0.9-0.8 2.1-1.3 3.3-1.3h46.7q0.9 0 1.7 0.3 0.8 0.4 1.5 1 0.6 0.7 0.9 1.5 0.3 0.8 0.2 1.7l-0.5 12.7c-0.1 1.3-0.6 2.4-1.5 3.3-0.9 0.8-2 1.3-3.3 1.3z"/>
	<path id="Layer" class="s23" d="m270.2 228.2h-46.6q-0.9 0-1.8-0.3-0.8-0.4-1.4-1-0.6-0.7-0.9-1.5-0.3-0.9-0.3-1.8l0.6-12.7c0-1.2 0.5-2.4 1.4-3.2 0.9-0.8 2.1-1.3 3.3-1.3h46.7q0.9 0 1.7 0.3 0.8 0.4 1.5 1 0.6 0.7 0.9 1.5 0.3 0.8 0.2 1.7l-0.5 12.7c-0.1 1.3-0.6 2.4-1.5 3.3-0.9 0.8-2 1.3-3.3 1.3z"/>
	<path id="Layer" class="s8" d="m228.1 217.3c0-1.2 0.6-2.3 1.4-3.2 0.9-0.8 2.1-1.2 3.3-1.2q0.9 0 1.8 0.4 0.8 0.3 1.4 1.1l-1 0.9q-0.4-0.5-1-0.7-0.6-0.3-1.2-0.3-0.6 0-1.2 0.2-0.6 0.2-1 0.6-0.5 0.5-0.7 1-0.2 0.6-0.2 1.2-0.1 0.6 0.1 1.2 0.2 0.5 0.6 1 0.4 0.4 1 0.6 0.5 0.2 1.1 0.2 0.7 0 1.3-0.3 0.6-0.2 1-0.7l1 1q-0.6 0.7-1.5 1.1-0.9 0.3-1.9 0.3-0.9 0.1-1.7-0.2-0.8-0.4-1.5-1-0.6-0.6-0.9-1.5-0.3-0.8-0.2-1.7z"/>
	<path id="Layer" class="s8" d="m237.6 213.1h1.5l-0.2 7.1h4.3v1.3h-6z"/>
	<path id="Layer" fill-rule="evenodd" class="s8" d="m250 219.5h-4.2l-0.9 2h-1.6l4.1-8.4h1.6l3.4 8.4h-1.6zm-0.5-1.2l-1.4-3.7-1.7 3.7z"/>
	<path id="Layer" class="s8" d="m253.8 213.1h1.6l-0.4 8.4h-1.5z"/>
	<path id="Layer" class="s8" d="m265 221.5l0.2-5.6-3 4.6h-0.7l-2.5-4.5-0.2 5.5h-1.5l0.3-8.4h1.3l3.1 5.6 3.5-5.6h1.3l-0.3 8.4z"/>
	<path id="Layer" class="s14" d="m317.5 16.3l-133.1 138.6 6.3-135.4c0-0.8 0.3-1.5 0.8-2.1 0.6-0.6 1.3-1 2.1-1.1h31.8c0.4 0 0.9 0.2 1.2 0.5 0.4 0.3 0.6 0.6 0.8 1.1l1.1 3.5c0.1 0.5 0.4 0.9 0.8 1.1 0.3 0.3 0.8 0.5 1.2 0.5h54.1q0.7-0.1 1.3-0.5 0.5-0.4 0.8-1l1.5-3.6q0.2-0.7 0.8-1.1 0.6-0.4 1.3-0.5z"/>
	<path id="Layer" class="s14" d="m323.5 42l-0.6 11.4-140.7 146.5 0.6-11.4z"/>
	<path id="Layer" class="s8" d="m305 37.4h-118.4v23.9h118.4z"/>
	<g id="Layer" style="opacity: .2">
		<path id="Layer" class="s8" d="m319.3 61.3h-127.2l1.1-23.9h127.2z"/>
		<path id="Layer" class="s8" d="m313.9 45.3q0 0.4-0.3 0.7-0.3 0.3-0.7 0.3-0.2 0-0.4-0.1-0.2-0.1-0.3-0.2-0.1-0.2-0.2-0.4-0.1-0.1-0.1-0.3 0.1-0.5 0.3-0.8 0.3-0.3 0.7-0.3 0.2 0 0.4 0.1 0.2 0.1 0.3 0.2 0.2 0.2 0.2 0.4 0.1 0.2 0.1 0.4z"/>
		<path id="Layer" class="s8" d="m313.7 49.3q0 0.4-0.3 0.8-0.3 0.3-0.7 0.3-0.4 0-0.7-0.3-0.3-0.4-0.2-0.8 0-0.4 0.3-0.7 0.2-0.3 0.7-0.3 0.4 0 0.6 0.3 0.3 0.3 0.3 0.7z"/>
		<path id="Layer" class="s8" d="m313.5 53.4q0 0.4-0.3 0.7-0.3 0.3-0.7 0.4-0.4-0.1-0.7-0.4-0.2-0.3-0.2-0.7 0-0.4 0.3-0.7 0.3-0.3 0.7-0.4 0.4 0.1 0.7 0.4 0.2 0.3 0.2 0.7z"/>
	</g>
	<path id="Layer" class="s8" d="m203 66.5c2.9-2.9 2.9-7.6 0-10.5-2.9-2.9-7.6-2.9-10.5 0-2.9 2.9-2.9 7.6 0 10.5 2.9 2.9 7.6 2.9 10.5 0z"/>
	<path id="Layer" class="s8" d="m234.8 62.5c0.6-4.1-2.1-7.9-6.2-8.6-4-0.6-7.8 2.1-8.5 6.2-0.6 4 2.1 7.9 6.2 8.5 4 0.7 7.8-2.1 8.5-6.1z"/>
	<path id="Layer" class="s8" d="m264.4 63c0.9-4-1.5-8-5.5-9-4-0.9-8 1.6-9 5.5-0.9 4 1.6 8 5.5 9 4 0.9 8-1.5 9-5.5z"/>
	<path id="Layer" class="s8" d="m292.1 66.5c2.9-2.9 2.9-7.6 0-10.5-2.9-2.9-7.6-2.9-10.5 0-2.9 2.9-2.9 7.6 0 10.5 2.9 2.9 7.6 2.9 10.5 0z"/>
	<path id="Layer" class="s22" d="m309.2 61.3c0 0 2.1-19.3 11.2-23.9l-1.1 23.9z"/>
	<path id="Layer" class="s22" d="m305.5 37.4c-7.3 3.7-10.1 16.8-10.9 21.8q-0.3 1-0.3 2c0 2 0.8 3.9 2.2 5.3 1.4 1.4 3.3 2.2 5.3 2.2 1.9 0 3.8-0.8 5.2-2.2 1.4-1.4 2.2-3.3 2.2-5.3 0 0 2.1-19.3 11.2-23.8z"/>
	<path id="Layer" class="s22" d="m264.9 59.2q-0.3 1-0.3 2c0 2 0.8 3.9 2.2 5.3 1.4 1.4 3.3 2.2 5.2 2.2 2 0 3.9-0.8 5.3-2.2 1.4-1.4 2.2-3.3 2.2-5.3 0 0 2-19.3 11.2-23.8h-14.9c-7.3 3.7-10.1 16.8-10.9 21.8z"/>
	<path id="Layer" class="s22" d="m235.2 59.2q-0.3 1-0.3 2c0 2 0.9 3.8 2.2 5.1 1.4 1.4 3.3 2.1 5.2 2.1 1.9 0 3.8-0.7 5.2-2.1 1.4-1.3 2.2-3.1 2.2-5.1 0 0 2.1-19.3 11.2-23.8h-14.8c-7.3 3.7-10.1 16.8-10.9 21.8z"/>
	<path id="Layer" class="s22" d="m205.4 59.2q-0.2 1-0.3 2c0.1 2 0.9 3.8 2.3 5.1 1.4 1.4 3.2 2.1 5.2 2.1 1.9 0 3.8-0.7 5.1-2.1 1.4-1.3 2.2-3.1 2.3-5.1 0 0 2.1-19.2 11.2-23.8h-14.9c-7.3 3.7-10 16.8-10.9 21.8z"/>
	<path id="Layer" class="s22" d="m175.7 59.2q-0.3 1-0.3 2c0 2 0.8 3.9 2.2 5.3 1.4 1.4 3.3 2.2 5.3 2.2 1.9 0 3.8-0.8 5.2-2.2 1.4-1.4 2.2-3.3 2.2-5.3 0 0 2.1-19.3 11.2-23.8h-14.9c-7.3 3.7-10.1 16.8-10.9 21.8z"/>
	<path id="Layer" class="s6" d="m309.2 61.3c0 0 2.1-19.3 11.2-23.9l-1.1 23.9z"/>
	<path id="Layer" class="s24" d="m327.9 206.9l0.7 6.2h14.6l-0.8-6.3z"/>
	<path id="Layer" fill-rule="evenodd" class="s20" d="m328.9 214.1q0 0 0 0 0-0.1 0.1-0.1 0 0 0 0 0.1 0 0.1 0 0.1 0 0.1 0.1c0.1 0.3 1.4 2.8 0.9 3.6q0 0.1-0.1 0.1-0.2 0.1-0.3 0.1-0.2 0-0.4 0-0.2-0.1-0.3-0.3c-0.6-0.7-0.3-2.4-0.1-3.4q0-0.1 0-0.1zm0.2 0.6c-0.2 1.3-0.2 2.4 0.2 2.8q0 0.1 0.2 0.1 0.1 0.1 0.2 0.1 0.1 0 0.1-0.1 0.1 0 0.1 0v-0.1c0.2-0.5-0.3-1.8-0.8-2.8z"/>
	<path id="Layer" fill-rule="evenodd" class="s20" d="m328.9 214.1q0 0 0.1 0 0-0.1 0 0c0.9 0 1.8 0.4 2.4 1q0.2 0.2 0.2 0.4 0.1 0.2 0.1 0.4c-0.1 0.4-0.3 0.5-0.4 0.5-0.7 0.2-2.1-1.4-2.4-2.1q0-0.1 0-0.1 0 0 0 0 0-0.1 0-0.1zm2.5 1.8q0-0.2 0-0.3-0.1-0.2-0.2-0.3c-0.5-0.5-1.2-0.8-1.9-0.9 0.4 0.8 1.5 1.8 1.9 1.8 0 0 0.2-0.1 0.2-0.2q0 0 0-0.1z"/>
	<path id="Layer" class="s25" d="m329.8 213.5v-6.8q0-0.2-0.1-0.3-0.1-0.2-0.3-0.2l-5.5-1.4q-0.2 0-0.4 0-0.2 0-0.4 0.2-0.2 0.1-0.2 0.3-0.1 0.2-0.1 0.4c0 2.5 0.1 6 0.1 9.1-0.1 3.6 0.1 5.9 0.1 10.2 0 2.6 2.5 3.3 2.8 2.3 1.1-4.9 0.8-8.1 3.4-12.3q0.5-0.6 0.6-1.5z"/>
	<path id="Layer" class="s26" d="m329.8 213.5v-6.8q0-0.2-0.1-0.3-0.1-0.2-0.3-0.2l-5.5-1.4q-0.2 0-0.4 0-0.2 0-0.4 0.2-0.2 0.1-0.2 0.3-0.1 0.2-0.1 0.4c0 2.5 0.1 6 0.1 9.1-0.1 3.6 0.1 5.9 0.1 10.2 0 2.6 2.5 3.3 2.8 2.3 1.1-4.9 0.8-8.1 3.4-12.3q0.5-0.6 0.6-1.5z"/>
	<path id="Layer" class="s6" d="m343.2 213.1h-7.5l-0.8-6.2 7.5-0.1z"/>
	<path id="Layer" class="s4" d="m337.2 216.6l-1.4-12.6 4.1-0.4 1.7 13.8z"/>
	<path id="Layer" class="s27" d="m352 110.5c2.1 3.7 4.4 7.2 6.7 10.7q3.5 5.3 7.7 10.3 0.6 0.6 1.2 1.3 0.8 0.8 1.7 1.4c0.2 0.2 0.4 0.3 0.6 0.5l0.2 0.1 0.3 0.2 0.3 0.1q0.1 0.1 0.3 0.2c1.1 0.4 2.3 0.4 3.4 0.1q1.2-0.3 2.2-1.1 0.6-0.5 1.1-1.1 1.3-1.7 2.1-3.6 0.7-1.6 1.2-3.2 1.8-6.2 2.4-12.7l-4.6-1.1c-1.5 3.8-3.1 7.6-4.8 11q-0.6 1.3-1.3 2.5-0.5 0.9-1.2 1.6c0 0-0.1 0 0-0.1q0.4-0.3 0.8-0.4c0.6-0.1 1.3-0.1 1.9 0.1l0.2 0.1h0.1c0 0-0.3-0.3-0.5-0.6-0.3-0.3-0.6-0.7-0.8-1-1.2-1.5-2.3-3.1-3.4-4.8q-1.6-2.5-3.2-5.1l-6.5-10.3z"/>
	<path id="Layer" class="s20" d="m348.7 106.4c-1.7 5.7 9.8 21.4 9.8 21.4l12.2-7.6c-2.2-5-4.9-9.7-8.1-14.1-4.8-6.3-11.9-6-13.9 0.3z"/>
	<path id="Layer" class="s28" d="m348.7 106.4c-1.7 5.7 9.8 21.4 9.8 21.4l12.2-7.6c-2.2-5-4.9-9.7-8.1-14.1-4.8-6.3-11.9-6-13.9 0.3z"/>
	<path id="Layer" class="s6" d="m356.4 114.3c3 1.4 6.2 6.6 6.6 10.7l-4.5 2.8q-4.1-5.7-7.4-12c1-1.4 1.8-3.1 5.3-1.5z"/>
	<path id="Layer" class="s20" d="m322.6 97.8c1.4 7.1 2.2 14.2 2.5 21.4 0.2 4.9 0.2 9.5 0.1 13.6-0.3 9.6-1.2 16.8-1.1 19.2l32.8 0.8c7.7-31.8 1.4-50.3 1.4-50.3q-3.7-1.5-7.6-2.5-0.8-0.2-1.6-0.3-7.2-1.4-14.5-1.9-1.4-0.1-2.9-0.1c-4.8-0.2-9.1 0.1-9.1 0.1z"/>
	<path id="Layer" class="s28" d="m325.2 132.8c-0.4 9.6-1.2 16.8-1.1 19.2l32.8 0.8c7.7-31.8 1.4-50.3 1.4-50.3q-3.7-1.5-7.6-2.5-0.8-0.2-1.6-0.3-7.2-1.4-14.5-1.9-1.4-0.1-2.8-0.1c-4.9-0.2-9.2 0.1-9.2 0.1q1.6 8.3 2.2 16.7 0.2 2.4 0.3 4.7 0.1 3.5 0.1 6.7 0.1 3.7 0 6.9z"/>
	<path id="Layer" class="s27" d="m342.9 83.7c-0.3 4.6-1.5 13-5.4 15.1 1 1.8 2.4 3.3 4 4.5 1.6 1.2 3.5 2 5.5 2.4 3.8 0.8 4.7-1.8 4.3-3.5-4.7-2.4-3.6-6.1-1.9-9.3z"/>
	<path id="Layer" class="s6" d="m345.5 87.5l4 5.5q-0.7 1.1-1.1 2.3c-1.8-0.7-3.9-3.5-3.6-5.5q0.2-1.2 0.7-2.3z"/>
	<path id="Layer" class="s4" d="m362.3 75.5c0.3 2.5-1 7.3-4 5.1-3-2.2 3.5-9.4 4-5.1z"/>
	<path id="Layer" class="s27" d="m344.7 75.6c-1.5 6-2.7 9.4-0.6 13.4 3.1 5.9 11.2 5.4 14.5-0.1 2.9-4.9 4.8-13.9-0.2-18-1.2-0.9-2.5-1.5-3.9-1.8-1.4-0.2-2.9-0.1-4.3 0.4-1.3 0.4-2.6 1.2-3.5 2.3-1 1.1-1.7 2.4-2 3.8z"/>
	<path id="Layer" class="s4" d="m342.1 68.7h6.9v4q-0.2-0.1-0.4-0.2c-0.1-0.1-0.7 5.7-4 7.5-4.4-3.6-5.4-9.2-2.5-11.3z"/>
	<path id="Layer" class="s27" d="m340.9 79.8c0 1.5 0.6 3 1.7 4.1 1.5 1.4 3.2 0.3 3.6-1.6 0.4-1.7 0.1-4.5-1.8-5.2q-0.6-0.2-1.3-0.1-0.6 0.1-1.2 0.5-0.5 0.4-0.8 1-0.3 0.6-0.2 1.3z"/>
	<path id="Layer" class="s4" d="m353.2 79.9c-0.2 0.5 0 1 0.3 1.1 0.3 0.1 0.7-0.2 0.8-0.7 0.2-0.5 0-1-0.3-1.1-0.3-0.1-0.7 0.3-0.8 0.7z"/>
	<path id="Layer" class="s4" d="m358.6 81.6c-0.1 0.5 0 0.9 0.3 1 0.3 0.1 0.7-0.2 0.9-0.7 0.2-0.5 0-0.9-0.3-1-0.3-0.1-0.7 0.2-0.9 0.7z"/>
	<path id="Layer" class="s27" d="m356.8 81.3q0.2 2.4 1.1 4.7-0.6 0.2-1.2 0.1-0.6-0.1-1.2-0.4z"/>
	<path id="Layer" class="s4" d="m352.4 86.7q0.3 0.2 0.6 0.3 0 0 0 0 0.1 0 0.1-0.1 0 0 0 0 0 0 0.1-0.1 0 0 0 0 0 0-0.1-0.1 0 0 0 0 0 0 0 0-1-0.3-1.7-0.9-0.7-0.7-1-1.6 0 0 0 0 0 0-0.1-0.1 0 0 0 0-0.1 0-0.1 0 0 0 0 0.1-0.1 0-0.1 0 0 0 0 0.1 0 0 0 0 0.3 0.8 0.9 1.5 0.6 0.6 1.4 0.9z"/>
	<path id="Layer" class="s4" d="m352 77.7q0.1 0 0.2 0 0.1 0 0.1 0 0.5-0.4 1-0.5 0.6-0.1 1.1 0.1 0.2 0 0.3 0 0.1-0.1 0.1-0.2 0-0.1 0-0.1 0-0.1 0-0.1 0-0.1 0-0.1-0.1-0.1-0.1-0.1-0.7-0.2-1.4-0.1-0.7 0.2-1.3 0.6-0.1 0.1-0.1 0.2-0.1 0.1 0 0.2 0.1 0.1 0.1 0.1z"/>
	<path id="Layer" class="s4" d="m361.6 80.4q0 0.1 0.1 0 0.1 0 0.2-0.1 0.1-0.1 0.1-0.2-0.1-0.7-0.5-1.3-0.4-0.6-1.1-0.9 0 0-0.1 0 0 0-0.1 0 0 0-0.1 0.1 0 0-0.1 0 0 0.1 0 0.2 0 0 0 0.1 0.1 0 0.1 0.1 0 0 0.1 0 0.5 0.3 0.8 0.8 0.3 0.4 0.4 1 0 0 0 0.1 0.1 0.1 0.2 0.1z"/>
	<path id="Layer" class="s4" d="m346.4 73.8q0.2 0.2 0.4 0.4 0.6 0.4 1.3 0.4 0.7 0.1 1.4-0.2c1.7-0.8 2.5-5.6 7.2-2.9 0.6-0.1 1.1 0 1.6 0.2 0.5 0.2 0.9 0.5 1.2 0.9 1.2 1.6 0.1 7.2 2.8 6.5 2.7-0.6 2.3-1.5 2.3-1.5 0 0-0.8 0.5-1.2 0.1 0.4-0.3 0.7-0.8 0.9-1.3 0.1-0.4 0.1-1 0-1.5 0 0-0.7 0.8-1.2 0.6 0.6-2.2 0.5-4.6-0.4-6.8-1.4-3.9-10.9-3.5-10.9-3.5 0 0-1.1-2-5.4-0.8-4.4 1.2-6.6 6.2-6 8.5"/>
	<path id="Layer" class="s29" d="m333.8 217.6c8.2 1.7 15.3 2.8 21.3 3.6 27.4 3.3 33.1-2.5 30.9-13.4-3.1-15.2-28.3-46.6-28.3-46.6v-12.4h-5.7l-8.8-0.7-0.2 18.2-0.2 17.7c0 0 6.7 5.9 12.5 11.6 5.1 5 9.6 9.9 8.7 10.6-0.7 0.6-4.1 0.7-8.3 0.6-8.4-0.3-20.1-1.4-20.1-1.4z"/>
	<path id="Layer" class="s6" d="m342.8 184c0 0 6.7 5.9 12.5 11.6-0.1-12.1-9.3-32.1-9.3-32.1l-3 2.8z"/>
	<path id="Layer" class="s6" d="m333.8 217.6c8.2 1.7 15.3 2.8 21.3 3.6 0.9-4.8 1.1-9.6 0.6-14.4-8.4-0.3-20.1-1.4-20.1-1.4z"/>
	<path id="Layer" class="s29" d="m324.4 180.1c1.6 14.7 17.2 95.7 17.2 95.7h11.4l-4.8-98 3.8-29-28.2-2.1c0 0-0.2 2.7-0.3 7.1 0 1.2-0.1 2.6-0.1 4.1q-0.1 11.2 1 22.2z"/>
	<path id="Layer" class="s27" d="m352.2 288.2h-6.2l-1.8-14.4h6.3z"/>
	<path id="Layer" class="s30" d="m350.5 273.8h-6.3l0.9 7.4h6.3z"/>
	<path id="Layer" class="s29" d="m340.8 277.6h13.4v-4l-14.1-0.8z"/>
	<path id="Layer" fill-rule="evenodd" class="s20" d="m353.1 288.4q-0.1 0-0.1-0.1 0 0 0-0.1 0 0 0 0 0-0.1 0-0.1c0.3-0.2 2.3-1.4 3-1q0.1 0 0.2 0.1 0 0.2 0 0.3 0.1 0.2 0 0.4-0.1 0.2-0.3 0.4c-0.3 0.2-0.8 0.3-1.2 0.3q-0.8 0-1.6-0.2zm0.4-0.3c0.7 0.3 1.5 0.2 2.2-0.1q0.2-0.1 0.2-0.2 0.1-0.2 0-0.3 0-0.1 0-0.1 0-0.1-0.1-0.1 0 0-0.1 0-1.2 0.2-2.2 0.8z"/>
	<path id="Layer" fill-rule="evenodd" class="s20" d="m353.1 288.4q-0.1-0.1-0.1-0.1 0 0 0-0.1c0 0 0.1-1.9 0.9-2.4q0.3-0.3 0.6-0.2 0.2 0 0.3 0.1 0.1 0.1 0.2 0.3c0.1 0.6-1.2 2-1.8 2.4h-0.1q0 0 0 0zm1-2.4c-0.5 0.5-0.7 1.2-0.8 1.9 0.7-0.5 1.5-1.5 1.4-1.9 0-0.1 0-0.2-0.2-0.2h-0.1q-0.2 0-0.3 0.2z"/>
	<path id="Layer" class="s25" d="m352.6 287.5h-7.6q-0.2 0-0.3 0.1-0.2 0.1-0.2 0.3l-1.3 5.6q-0.1 0.2 0 0.4 0 0.2 0.2 0.4 0.1 0.1 0.3 0.2 0.2 0.1 0.4 0.1c2.4 0 4.2-0.2 7.3-0.2 1.9 0 7.6 0.2 10.3 0.2 2.6 0 2.9-2.6 1.9-2.8-4.8-1.1-8.4-2.5-10-3.9-0.2-0.3-0.6-0.4-1-0.4z"/>
	<path id="Layer" class="s26" d="m352.6 287.5h-7.6q-0.2 0-0.3 0.1-0.2 0.1-0.2 0.3l-1.3 5.6q-0.1 0.2 0 0.4 0 0.2 0.2 0.4 0.1 0.1 0.3 0.2 0.2 0.1 0.4 0.1c2.4 0 4.2-0.2 7.3-0.2 1.9 0 7.6 0.2 10.3 0.2 2.6 0 2.9-2.6 1.9-2.8-4.8-1.1-8.4-2.5-10-3.9-0.2-0.3-0.6-0.4-1-0.4z"/>
	<path id="Layer" class="s31" d="m347.1 105.7c0 0-1.9 1.5-4 2.9-2.2-2-7.2-6.9-6.2-10.2 0.5-0.6 1.2-1 2-1.2 2.3 3.3 5 6.1 8.2 8.5z"/>
	<path id="Layer" class="s31" d="m347.1 105.7q1.6 2 2.4 4.4c2.2-0.8 2.6-7.2 2.1-8.1-0.6-0.7-1.4-1.2-2.3-1.4 0 0 0.9 5.1-2.2 5.1z"/>
	<path id="Layer" class="s6" d="m323.4 157.9q1.4 0.9 2.9 1.4l3.3-7.4c-2.2 0-4.3 0.6-6.1 1.9q-0.1 1.9-0.1 4.1z"/>
	<path id="Layer" class="s6" d="m324.8 114.5q0.2 2.4 0.3 4.7 0.1 3.5 0.1 6.7c3-3.9 2.2-11.9 2.2-11.9-0.9-0.1-1.8 0.1-2.6 0.5z"/>
	<path id="Layer" class="s27" d="m318.6 102.4q-3.3 6.4-5.8 13.2-1.3 3.4-2.2 7c-0.3 1.2-0.6 2.5-0.8 3.8q-0.4 2.2-0.3 4.4 0.1 0.7 0.2 1.4c0 0.2 0.1 0.4 0.1 0.7l0.1 0.4 0.1 0.2c0.3 0.7 0.5 1.4 0.8 2 0.5 1.2 1.1 2.3 1.7 3.4 1.1 2.2 2.4 4.2 3.6 6.2q3.8 5.9 8.2 11.4l4-2.4-5.8-12.5q-1.5-3.1-2.8-6.1c-0.4-1.1-0.8-2.1-1.1-3-0.2-0.5-0.2-0.9-0.4-1.3v-0.2-0.5q0.1-1.3 0.3-2.5 0.4-1.4 0.8-2.9c0.7-2 1.4-4.1 2.3-6.1 1.6-4.1 3.5-8.3 5.4-12.2z"/>
	<path id="Layer" class="s20" d="m320.8 98.2c-5.5 2.4-10.8 19.4-10.8 19.4l14.5 5c2.2-4.8 3.9-9.8 5.2-14.9 1.9-8.2-2.2-12.3-8.9-9.5z"/>
	<path id="Layer" class="s28" d="m320.8 98.2c-5.5 2.4-10.8 19.4-10.8 19.4l14.5 5c2.2-4.8 3.9-9.8 5.2-14.9 1.9-8.2-2.2-12.3-8.9-9.5z"/>
	<path id="Layer" class="s32" d="m330.3 151.5c0 0-6.1 3.8-7.5 6.1 0 0 1 10.2 5.1 9.5 4.1-0.7 5.5-7.6 2.4-15.6z"/>
	<path id="Layer" class="s31" d="m345.9 115.1l-7.9-1.1v9.4c0 0 4.3 2.4 7.4 0.7z"/>
	<path id="Layer" class="s4" d="m371.4 112.2q0 0.1 0 0.2 0 0.2 0.1 0.3 0 0.1 0.1 0.2 0.1 0 0.3 0.1l6.5 1.3q0.3 0 0.6-0.1 0.2-0.2 0.3-0.4l4-12.7q0.1-0.1 0.1-0.3 0-0.1-0.1-0.2-0.1-0.2-0.2-0.2-0.1-0.1-0.2-0.2l-6.6-1.3q-0.3 0-0.5 0.2-0.2 0.1-0.3 0.4z"/>
	<path id="Layer" class="s33" d="m376.2 99.6l-4.1 12.8q0 0.1 0 0.2 0 0.1 0 0.2 0.1 0.1 0.2 0.2 0.1 0.1 0.2 0.1l5.6 1.1c0.3 0 1.1 0 1.2-0.4l4.1-12.8c0.1-0.4-0.5-0.8-0.9-0.9l-5.5-1.1q-0.3 0-0.5 0.1-0.2 0.2-0.3 0.5z"/>
	<path id="Layer" class="s27" d="m383.1 116.5l0.4-6.3-6.6 2.6c0 0 0 5.7 3 5.6z"/>
	<path id="Layer" class="s27" d="m380.5 104.6l-4.8 4.2 1.2 4.1 6.6-2.7z"/>
	<path id="Layer" class="s27" d="m143.9 116c-5.3 4.2-11.1 7.9-17.3 10.9-2.5 1.3-5.2-0.7-5.8-3-0.9-2.8-0.2-5.7 0.4-8.3 1.4-4.7 3.3-9.4 5.5-13.8 1.1-2.1 2.2-4.3 3.5-6.4 0.3-0.4 0.7-0.8 1.2-0.9 0.5-0.2 1.1-0.2 1.5 0.1 0.5 0.2 0.9 0.6 1.1 1.1 0.3 0.4 0.3 1 0.1 1.5-1.4 4.4-2.9 9-4.2 13.4-0.8 3.5-2 7.1-1.7 10.6 0 0.2 0.1 0.1-0.3-0.5l-4.9-0.8c2.7-1.7 5.3-3.5 7.9-5.2 2.6-1.8 5.2-3.8 7.7-5.6 0.9-0.6 2-0.9 3.1-0.7 1.1 0.2 2.1 0.8 2.8 1.6 0.7 0.9 1 2 0.9 3.2-0.1 1.1-0.6 2.1-1.5 2.8z"/>
	<path id="Layer" class="s34" d="m146.5 104.8c-6.3-0.1-15.7 7.4-15.7 7.4 0 0 1.8 12 5 13.1 3.1 1.1 10.7-20.5 10.7-20.5z"/>
	<path id="Layer" class="s10" d="m146.5 104.8c0 0-5.1 14.5-8.7 19.1-0.7 1.1-1.5 1.6-2 1.4-1.3-0.4-2.3-2.5-3-5q-1.3-4-1.9-8.2c0 0 9.3-7.4 15.6-7.3z"/>
	<path id="Layer" class="s13" d="m137.8 123.9c-0.8 1.1-1.5 1.6-2 1.4-1.3-0.4-2.3-2.5-3-5 1.5-1.7 3.3-3.2 5.3-4.4 0.8 2.1 0.6 5.4-0.3 8z"/>
	<path id="Layer" class="s22" d="m131.3 111.5l4 13.3-1.7 0.4-3.8-12.7z"/>
	<path id="Layer" class="s4" d="m159.4 68.4c0 0-5.3-1.7-8.7 2.8-3.4 4.5-1.5 12.5-1.5 12.5 0 0 2.6 6-1.8 9.8-3.8 3.4-0.6 7 5.5 9.6 6.2 2.7 18.4 3.6 22.2 0.5 3.7-3-1.1-7.4 0.8-14.2 1.8-6.8 3.2-13.3-3.4-18.2-5.4-4.1-10.2-4.1-13.1-2.8z"/>
	<path id="Layer" class="s35" d="m107 293c5.4 0 6.2-0.1 9.2-0.2 2.6-0.1 3.3 0.3 5.4 0.2 1.7 0 1.7-1.7 1.1-3.6-0.3-1-0.7-3-1-4.7l-8-0.5c-1.2 2.1-3.7 5.2-6.8 5.6-3 0.4-2 3.2 0.1 3.2z"/>
	<path id="Layer" class="s35" d="m147.3 293c5.5 0 6.2-0.1 9.2-0.2 2.7-0.1 3.3 0.3 5.4 0.2 1.7 0 1.7-1.7 1.1-3.6-0.2-1-0.7-3-1-4.7l-8-0.5c-1.1 2.1-3.7 5.2-6.8 5.6-3 0.4-2.1 3.2 0.1 3.2z"/>
	<path id="Layer" class="s4" d="m134 147.9c0 0-7.1 40.7-8.3 62.6-1.2 23-8.5 59.8-12.4 74.2 1 1 6.2 1.4 8.6 0.2 0 0 21.3-42.5 18.5-69 17.8-50.2 13.5-68.9 13.5-68.9z"/>
	<path id="Layer" class="s6" d="m145.7 199.9c2.5-8.3 4.3-15.6 5.6-21.8-1.2-4.8-3.1-9-5.5-11.5 0 0-3.6 13.5-0.1 33.3z"/>
	<path id="Layer" class="s4" d="m141.5 143.9c0 0 5.8 45 9.2 66.7 3.5 22.8 3.9 59.3 3.1 74.2 1.2 0.8 5.9 1.7 8.4 0.9 0 0 11.9-46.1 4-72.8 8.6-40.5-3.5-61.8-3.5-61.8z"/>
	<path id="Layer" class="s34" d="m136.2 115.4q-1.1 5.8-1.4 11.7c-0.4 5.7-0.6 11.4-0.8 20.8l28.7 3.2c0.3-8.1 2.3-17.2 9.5-34.8 0.4-0.9 0.6-1.9 0.5-2.9 0-1.1-0.2-2-0.7-2.9-0.4-0.9-1.1-1.7-1.9-2.3-0.8-0.6-1.7-1.1-2.7-1.3q-1.7-0.3-3.5-0.6-6.5-1.2-13-1.5c-1.5 0-3 0-4.4 0-5.2 0.2-9.6 5.6-10.3 10.6z"/>
	<path id="Layer" class="s10" d="m172.2 116.3q-0.3 0.6-0.5 1.2c-2 4.8-3.5 9-4.8 12.7-3 9.2-4 15.3-4.2 20.9l-28.7-3.2c0.2-9.4 0.5-15.1 0.9-20.8q0.3-5.9 1.3-11.7c0.8-5 5.2-10.5 10.3-10.6 1.4 0 2.9 0 4.4 0q6.5 0.3 13 1.5 1.8 0.3 3.5 0.7c1 0.2 1.9 0.6 2.7 1.2 0.8 0.6 1.5 1.4 1.9 2.3 0.5 0.9 0.7 1.9 0.7 2.9 0.1 1-0.1 2-0.5 2.9z"/>
	<path id="Layer" class="s27" d="m131.3 88.6l1.8 1.2q0.5 0.3 0.8 0.9 0.3 0.5 0.3 1.1l0.2 3.8c0 0.7-0.2 1.5-0.5 2.1-0.3 0.7-0.8 1.3-1.4 1.8l-0.7 0.5c-3.1-1.7-5.2-6-5.2-6l-0.7-1.1q-0.2-0.4-0.3-0.8-0.1-0.4 0-0.8 0.1-0.4 0.3-0.7 0.2-0.4 0.6-0.6l2.2-1.5q0.6-0.3 1.3-0.3 0.7 0 1.3 0.4z"/>
	<path id="Layer" class="s34" d="m136.7 84.6c1.9-2.5 5-3.4 7-2 2 1.4 2.1 4.7 0.2 7.3-1.9 2.5-5 3.4-7 2-2-1.5-2.1-4.7-0.2-7.3z"/>
	<path id="Layer" class="s34" d="m120.5 72.8l6.5-9c0 0 2.7 8.4 7.6 12l-3.3 4.5-0.5 0.6-3.3 4.5c-4.9-3.6-13.7-3.7-13.7-3.7z"/>
	<path id="Layer" class="s9" d="m136.7 84.6c1.9-2.5 5-3.4 7-2 2 1.4 2.1 4.7 0.2 7.3-1.9 2.5-5 3.4-7 2-2-1.5-2.1-4.7-0.2-7.3z"/>
	<path id="Layer" class="s9" d="m120.5 72.8l6.5-9c0 0 2.7 8.4 7.6 12l-3.3 4.5-0.5 0.6-3.3 4.5c-4.9-3.6-13.7-3.7-13.7-3.7z"/>
	<path id="Layer" class="s22" d="m136.3 90.3c0 0-4.5 5-8.3 6.6q-0.2 0.1-0.4 0.1-0.2-0.1-0.3-0.3l-2.6-4.2q-0.1-0.1-0.1-0.2 0-0.2 0.1-0.3 0-0.1 0.1-0.2 0.1-0.1 0.3-0.2c1.5-0.4 5.3-1.7 7.6-3.8 3-2.8 3.6 2.5 3.6 2.5z"/>
	<path id="Layer" class="s36" d="m136.3 90.3c0 0-4.5 5-8.3 6.6q-0.2 0.1-0.4 0.1-0.2-0.1-0.3-0.3l-2.6-4.2q-0.1-0.1-0.1-0.2 0-0.2 0.1-0.3 0-0.1 0.1-0.2 0.1-0.1 0.3-0.2c1.5-0.4 5.3-1.7 7.6-3.8 3-2.8 3.6 2.5 3.6 2.5z"/>
	<path id="Layer" class="s8" d="m113.8 82c1.1 0.8 5-2.6 8.8-7.6 3.7-5.1 5.8-9.8 4.7-10.7-1.2-0.8-5.1 2.6-8.8 7.6-3.7 5.1-5.8 9.8-4.7 10.7z"/>
	<path id="Layer" class="s37" d="m114.5 80.4c0.8 0.6 3.9-2.1 7-6.1q0.3-0.3 0.5-0.7l0.6-0.9c2.9-4.1 4.6-7.7 3.7-8.3-0.8-0.6-4.3 2.4-7.5 6.8-3.3 4.4-5.2 8.5-4.3 9.2z"/>
	<path id="Layer" class="s22" d="m137.3 93c0 0 1.4-0.8 4.3-4.7 3.1-4.2 3.2-5.5 3.2-5.5l-11-8.1c0 0-0.3 1.6-3.3 5.6-2.9 4-4.2 4.6-4.2 4.6z"/>
	<path id="Layer" class="s8" d="m121.5 74.3q0.3-0.3 0.5-0.7l0.6-0.8-1.1-0.6q-0.2-0.1-0.4 0-0.2 0.1-0.3 0.2l-0.2 0.2q-0.1 0.2-0.1 0.4 0 0.2 0.1 0.3z"/>
	<path id="Layer" class="s6" d="m121.5 74.3q0.3-0.3 0.5-0.7l0.6-0.8-1.1-0.6q-0.2-0.1-0.4 0-0.2 0.1-0.3 0.2l-0.2 0.2q-0.1 0.2-0.1 0.4 0 0.2 0.1 0.3z"/>
	<path id="Layer" class="s27" d="m164.5 91.7c-1.6 4.1-3.9 11.6-1.5 14.7 0 0-3.9-1-12.9 3.2-2-3.7-0.1-4.6-0.1-4.6 4.9-0.6 5.4-4 5.2-7.4z"/>
	<path id="Layer" class="s6" d="m160.8 93.9l-5.5 3.4q0.1 1.2 0 2.4c1.9-0.1 4.7-1.7 5.2-3.6q0.4-1.1 0.3-2.2z"/>
	<path id="Layer" class="s27" d="m169 83.7c-2 6.6-2.8 9.5-7 12.3-6.4 4.2-14 0.7-14-6.2 0-6.3 3.3-16.1 10.6-17.6 1.5-0.3 3.1-0.3 4.6 0.2 1.5 0.5 2.9 1.3 4 2.5 1 1.2 1.8 2.6 2.1 4.2 0.3 1.5 0.2 3.1-0.3 4.6z"/>
	<path id="Layer" class="s4" d="m160.3 83.6c-0.1 0.6-0.5 1-0.9 0.9-0.3-0.1-0.5-0.6-0.4-1.1 0.2-0.6 0.6-1 0.9-0.9 0.4 0.1 0.6 0.6 0.4 1.1z"/>
	<path id="Layer" class="s4" d="m153.3 82.1c-0.1 0.5-0.6 1-0.9 0.9-0.4-0.1-0.6-0.6-0.4-1.2 0.1-0.5 0.6-1 0.9-0.9 0.4 0.2 0.5 0.6 0.4 1.2z"/>
	<path id="Layer" class="s4" d="m153.1 81l-1.3-0.6c0 0 0.4 1.1 1.3 0.6z"/>
	<path id="Layer" class="s38" d="m155.1 82.9q-1.2 1.8-2.9 3.2 0.3 0.4 0.8 0.6 0.5 0.2 1.1 0.1z"/>
	<path id="Layer" class="s4" d="m162.3 80.3q-0.1 0-0.1 0-0.1-0.1-0.1-0.1-0.4-0.6-0.9-0.8-0.6-0.3-1.2-0.3-0.1 0-0.1 0-0.1-0.1-0.1-0.1-0.1 0-0.1-0.1-0.1-0.1-0.1-0.1 0-0.2 0.1-0.3 0.1-0.1 0.3-0.1 0.8 0 1.5 0.3 0.7 0.4 1.1 1.1 0.1 0.1 0.1 0.2 0 0.1-0.2 0.2-0.1 0.1-0.2 0.1z"/>
	<path id="Layer" class="s4" d="m151.4 77.8q-0.2 0-0.3-0.1-0.1-0.1-0.1-0.2 0-0.1 0.1-0.2 0.6-0.7 1.4-1 0.7-0.3 1.6-0.2 0 0 0.1 0 0 0.1 0.1 0.1 0 0.1 0 0.2 0 0 0 0.1 0 0.1-0.1 0.2-0.1 0.1-0.3 0.1-0.6-0.1-1.2 0.2-0.7 0.2-1.1 0.7-0.1 0.1-0.2 0.1z"/>
	<path id="Layer" class="s4" d="m160.1 82.5l-1.2-0.6c0 0 0.4 1.2 1.2 0.6z"/>
	<path id="Layer" class="s4" d="m152.7 89.5q0.2 1.6 0.1 3.2l0.6 0.2c0.8 0.2 1.6 0.2 2.4 0 0.8-0.2 1.6-0.6 2.2-1.1q0.5-0.5 0.7-1.3 0.1-0.4 0.1-0.9c-1-0.8-3.9-1.1-5.2-0.5q-0.4 0.2-0.9 0.4z"/>
	<path id="Layer" class="s8" d="m153.6 89.1c0 0.4 0 0.7 0.1 1q2.5-0.1 5 0.4 0.1-0.5 0.1-0.9c-1-0.8-3.9-1.1-5.2-0.5z"/>
	<path id="Layer" class="s39" d="m153.4 92.9c0.8 0.2 1.6 0.2 2.4 0 0.8-0.2 1.6-0.6 2.2-1.1q-0.7-0.4-1.4-0.4-0.8-0.1-1.5 0.1c-0.7 0.3-1.3 0.8-1.7 1.4z"/>
	<path id="Layer" class="s4" d="m166.6 88.3c0 0-1.9-7.6-0.7-13.6 0 0-7.7-4-12.7 0.5 0 0 1.8-4.6 9.1-4.4 7.3 0.1 14.3 10.1 4.3 17.5z"/>
	<path id="Layer" class="s27" d="m169.9 89.6q-0.8 0.9-1.7 1.4-1 0.4-2.1 0.5c-1.9 0.1-2.3-1.8-1.3-3.5 0.9-1.5 2.9-3.3 4.6-2.6 1.7 0.7 1.7 2.8 0.5 4.2z"/>
	<path id="Layer" class="s4" d="m159.2 72.6c0 0 0.6 13.1 8.8 11.5 8.2-1.5 2.7-15.3-8.8-11.5z"/>
	<path id="Layer" class="s13" d="m171.7 117.5c-2 4.8-3.5 9-4.8 12.7-3.5-6.1-0.5-14.4-0.5-14.4 1.9-0.8 3.8 0 5.3 1.7z"/>
	<path id="Layer" class="s27" d="m173.7 113.5c1.6 5.2 3.7 10.2 6.3 14.9q1.3 2.3 2.8 4.4l-0.6-0.6q-0.3-0.2-0.6-0.2c2.4 0 5.2-1.8 7.4-3 3.4-2 6.8-4.3 10-6.5 0.5-0.3 1-0.5 1.5-0.4 0.5 0.1 1 0.3 1.4 0.7 0.3 0.4 0.5 0.9 0.5 1.4 0 0.6-0.1 1.1-0.5 1.5-4.7 5.1-17.7 19-25 12.4-5.6-6.4-9.2-14-11.7-22.1-0.3-1.2-0.1-2.4 0.4-3.4 0.6-1 1.5-1.7 2.6-2 1.2-0.4 2.4-0.2 3.4 0.3 1 0.6 1.7 1.5 2.1 2.7z"/>
	<path id="Layer" class="s34" d="m169.1 107.6c6 2 12.1 16.6 12.1 16.6-3.1 2.6-6.6 4.9-10.2 6.9 0 0-8.6-12.6-7.1-18.2 1.5-5.7 5.2-5.3 5.2-5.3z"/>
	<path id="Layer" class="s10" d="m169.1 107.6c6 2 12.1 16.6 12.1 16.6-3.1 2.6-6.6 4.9-10.2 6.9 0 0-8.6-12.6-7.1-18.2 1.5-5.7 5.2-5.3 5.2-5.3z"/>
	<path id="Layer" class="s27" d="m200 127.5l7-3.9-4.4-5.5c0 0-5.2 2.1-5.2 6.7z"/>
	<path id="Layer" class="s27" d="m210 118.8l-4.2-3.3-3.2 2.6 4.4 5.5z"/>
	<path id="Layer" class="s22" d="m170.3 130.6l10.9-7.8 1 2.5-10.9 6.7z"/>
	<path id="Layer" class="s4" d="m146.2 123.8q-0.1 0-0.1 0-0.1-0.1-0.1-0.2c-0.1-0.5-1.6-12.3 2.9-19q0.1-0.1 0.2-0.1 0.1 0 0.2 0.1 0 0 0 0 0.1 0.1 0.1 0.1 0 0.1 0 0.1 0 0.1-0.1 0.1c-3.7 5.5-3.2 14.9-2.9 17.8 1.2-2.4 5.5-9.4 15.1-15q0-0.1 0.1-0.1 0 0 0.1 0 0.1 0 0.1 0.1 0 0 0.1 0.1 0 0 0 0.1 0 0 0 0.1 0 0-0.1 0 0 0.1 0 0.1c-11.6 6.7-15.3 15.5-15.3 15.6q0 0.1-0.1 0.1-0.1 0-0.2 0z"/>
	<path id="Layer" class="s22" d="m152.1 108.6c2.8 0.7 3.2 5 3.2 5 0 0 7.1-4 9.6-7.1q-1.1-0.9-2.2-1.8c0 0-8.8 2.4-10.6 3.9z"/>
	<path id="Layer" class="s22" d="m149.5 107.8c0 0-2.4 0.4-3.7 3.7 0.1-6.2 3-6.9 3-6.9 0.8-0.4 1.7-0.4 2.6-0.1-0.7 0.2-1.2 0.7-1.6 1.3-0.3 0.6-0.4 1.3-0.3 2z"/>
	<path id="Layer" class="s8" d="m148.5 123.1l-4.1-0.3c-0.3 0-0.6 0.2-0.6 0.6l-0.5 7.1c0 0.4 0.3 0.7 0.6 0.7l4 0.2c0.4 0.1 0.6-0.2 0.7-0.5l0.4-7.2c0-0.3-0.2-0.6-0.5-0.6z"/>
	<path id="Layer" class="s6" d="m148.8 124.3l-2.3-0.1-0.2 3 2.3 0.1z"/>
	<path id="Layer" class="s6" d="m147.9 128.4l-3.6-0.3v0.5l3.5 0.2z"/>
	<path id="Layer" class="s6" d="m147.8 129.4l-3.5-0.2-0.1 0.4 3.6 0.2z"/>
	<path id="Layer" class="s4" d="m445.2 39h-51.7c-2 0-3.5 1.6-3.5 3.5v98.7c0 1.9 1.5 3.5 3.5 3.5h51.7c2 0 3.5-1.6 3.5-3.5v-98.7c0-1.9-1.5-3.5-3.5-3.5z"/>
	<path id="Layer" class="s15" d="m446.7 42.5v98.5q0 0.3-0.1 0.6-0.1 0.2-0.3 0.4-0.2 0.2-0.5 0.3-0.2 0.1-0.5 0.1h-52q-0.3 0-0.6-0.1-0.2-0.1-0.4-0.2-0.2-0.2-0.3-0.5-0.1-0.2-0.1-0.5v-98.7q0-0.2 0.1-0.4 0.1-0.2 0.3-0.4 0.1-0.2 0.3-0.3 0.2-0.1 0.5-0.1h13q0.3 0 0.5 0.2 0.2 0.1 0.3 0.4l0.6 1.3q0.1 0.3 0.3 0.4 0.2 0.2 0.5 0.2h22.1q0.3 0 0.5-0.2 0.3-0.1 0.4-0.4l0.5-1.3q0.1-0.3 0.3-0.4 0.3-0.2 0.5-0.2h12.9c0.3 0 0.6 0.2 0.9 0.4 0.2 0.3 0.3 0.6 0.3 0.9z"/>
	<path id="Layer" class="s40" d="m443.9 41.2c-4.8 13.4-20.6 50.3-52 65.4v-64.2q0-0.2 0.1-0.4 0.1-0.2 0.2-0.4 0.2-0.2 0.4-0.3 0.2-0.1 0.5-0.1h13q0.2 0 0.5 0.2 0.2 0.1 0.3 0.4l0.5 1.3q0.1 0.3 0.4 0.4 0.2 0.2 0.5 0.2h22.1q0.3 0 0.5-0.2 0.3-0.1 0.4-0.4l0.5-1.3q0.1-0.3 0.3-0.4 0.3-0.2 0.5-0.2z"/>
	<path id="Layer" class="s41" d="m446.7 89.5v51.5q0 0.3-0.1 0.6-0.1 0.2-0.3 0.4-0.2 0.2-0.5 0.3-0.2 0.1-0.5 0.1h-52q-0.3 0-0.6-0.1-0.2-0.1-0.4-0.2-0.2-0.2-0.3-0.5-0.1-0.2-0.1-0.5v-23.4c14.5-19.1 39.4-25.8 54.8-28.2z"/>
	<path id="Layer" class="s12" d="m419.3 41.3q0 0.3-0.1 0.5-0.1 0.2-0.3 0.2-0.2 0.1-0.5 0.1-0.2-0.1-0.4-0.2-0.1-0.2-0.2-0.4 0-0.2 0.1-0.4 0.1-0.3 0.3-0.4 0.2-0.1 0.4-0.1 0.3 0 0.5 0.2 0.2 0.2 0.2 0.5z"/>
	<path id="Layer" class="s12" d="m420.9 41.3q-0.1 0.2-0.2 0.4-0.1 0.1-0.3 0.1-0.2 0-0.4-0.1-0.1-0.2-0.1-0.4 0-0.1 0-0.2 0 0 0.1-0.1 0.1-0.1 0.2-0.1 0.1-0.1 0.2-0.1 0.1 0 0.2 0.1 0.1 0 0.1 0.1 0.1 0.1 0.1 0.1 0.1 0.1 0.1 0.2z"/>
	<path id="Layer" class="s42" d="m445.7 47.5h-53.2v90.3h53.2z"/>
	<path id="Layer" class="s8" d="m444.2 58.3h-50.3v12.9h50.3z"/>
	<path id="Layer" class="s8" d="m444.2 71.9h-50.3v13h50.3z"/>
	<path id="Layer" class="s25" d="m444.2 49.4h-50.3v7.8h50.3z"/>
	<g id="Layer" style="opacity: .5">
		<path id="Layer" class="s11" d="m410.9 66.1l-0.6-0.7-0.6 0.7h-0.6l0.9-1.1-0.8-1.1h0.5l0.6 0.7 0.5-0.7h0.6l-0.8 1.1 0.8 1.1z"/>
		<path id="Layer" class="s11" d="m413.8 65.7v0.4h-2.1v-0.3l1.1-1.1c0.3-0.3 0.4-0.5 0.4-0.6q0-0.5-0.6-0.5-0.2 0-0.4 0.1-0.1 0.1-0.3 0.2l-0.4-0.3q0.3-0.2 0.5-0.3 0.3-0.2 0.7-0.1c0.6 0 1 0.3 1 0.8q0 0.3-0.1 0.5-0.1 0.3-0.4 0.4l-0.8 0.8z"/>
	</g>
	<path id="Layer" class="s43" d="m433.8 64.9q0 0.7-0.4 1.3-0.4 0.6-1.1 0.9-0.6 0.2-1.3 0.1-0.7-0.1-1.2-0.6-0.5-0.5-0.7-1.2-0.1-0.7 0.2-1.4 0.2-0.6 0.8-1 0.6-0.4 1.3-0.4c0.7 0 1.2 0.2 1.7 0.7 0.4 0.4 0.7 1 0.7 1.6z"/>
	<path id="Layer" class="s8" d="m431.6 63.6h-0.3v2.6h0.3z"/>
	<path id="Layer" class="s8" d="m432.7 64.7h-2.6v0.4h2.6z"/>
	<path id="Layer" class="s43" d="m440.8 64.9q0 0.7-0.4 1.3-0.4 0.6-1.1 0.9-0.6 0.2-1.3 0.1-0.7-0.1-1.2-0.6-0.5-0.5-0.7-1.2-0.1-0.7 0.2-1.4 0.3-0.6 0.8-1 0.6-0.4 1.3-0.4c0.7 0 1.3 0.2 1.7 0.7 0.4 0.4 0.7 1 0.7 1.6z"/>
	<path id="Layer" class="s8" d="m439.7 64.7h-2.6v0.4h2.6z"/>
	<path id="Layer" class="s43" d="m398.1 67.1q-0.2 0-0.4 0.2-0.1 0.2-0.1 0.5 0.1 0.2 0.2 0.5c0.2 0.1 2 0.4 3 0.3 1 0 2 0 3 0 1.1 0 3.1-0.1 3.2-0.3q0.1-0.3 0.1-0.5 0-0.2-0.1-0.5c-0.4-0.3-1-0.5-1.6-0.5-0.6 0.1-7.3 0.3-7.3 0.3z"/>
	<path id="Layer" class="s19" d="m398.1 67.1q-0.2 0-0.4 0.2-0.1 0.2-0.1 0.5 0.1 0.2 0.2 0.5c0.2 0.1 2 0.4 3 0.3 1 0 2 0 3 0 1.1 0 3.1-0.1 3.2-0.3q0.1-0.3 0.1-0.5 0-0.2-0.1-0.5c-0.4-0.3-1-0.5-1.6-0.5-0.6 0.1-7.3 0.3-7.3 0.3z"/>
	<path id="Layer" class="s4" d="m398 66.4c0 0.2-0.1 0.6 0 0.7 0.6 0.3 1.2 0.4 1.9 0.3q1-0.1 2-0.1c1.2 0 1.7 0.1 1.9 0q0.4-0.1 1-0.1c0.4 0 1-0.1 1.2-0.1 0.1 0 0.2 0.1 0.4 0q0.2-0.1 0.5-0.2c0 0-0.1-0.2-0.1-0.3-0.1 0-0.2 0-0.2-0.1 0 0 0 0 0-0.1-0.1-0.1-0.2-0.2-0.2-0.2z"/>
	<path id="Layer" class="s14" d="m398 66.4c0 0.2-0.1 0.6 0 0.7 0.6 0.3 1.2 0.4 1.9 0.3q1-0.1 2-0.1c1.2 0 1.7 0.1 1.9 0q0.4-0.1 1-0.1c0.4 0 1-0.1 1.2-0.1 0.1 0 0.2 0.1 0.4 0q0.2-0.1 0.5-0.2c0 0-0.1-0.2-0.1-0.3-0.1 0-0.2 0-0.2-0.1 0 0 0 0 0-0.1-0.1-0.1-0.2-0.2-0.2-0.2z"/>
	<path id="Layer" class="s43" d="m401.4 66.6q0.6 0.2 1.2 0.2 0.4-0.1 0.8 0c0.3 0 0.2-0.1 0.5 0 0.4 0.2 0.4 0.4 0.9 0.1 0.5-0.2 0.6-0.3 0.8-0.3q0.3 0.1 0.5 0c0.2-0.1 0.8-0.3 0.8-0.3 0 0 0-0.2-0.5-0.3-0.5 0-5.6 0.2-5.8 0.3-0.1 0.1 0.8 0.3 0.8 0.3z"/>
	<path id="Layer" class="s6" d="m401.4 66.6q0.6 0.2 1.2 0.2 0.4-0.1 0.8 0c0.3 0 0.2-0.1 0.5 0 0.4 0.2 0.4 0.4 0.9 0.1 0.5-0.2 0.6-0.3 0.8-0.3q0.3 0.1 0.5 0c0.2-0.1 0.8-0.3 0.8-0.3 0 0 0-0.2-0.5-0.3-0.5 0-5.6 0.2-5.8 0.3-0.1 0.1 0.8 0.3 0.8 0.3z"/>
	<path id="Layer" class="s43" d="m398.5 66c0 0-0.8 0.2-0.8 0.3 0 0.2 0.1 0.2 0.3 0.3q0.1 0.1 0.1 0.2 0.2-0.1 0.3-0.1 0.2-0.1 0.3 0c0.3 0.1 0.5 0.1 0.5 0.1 0.1-0.1 0.3 0.1 0.5 0q0.2 0 0.4 0c0.2 0 0.4-0.3 0.6-0.2q0.4-0.1 0.7-0.3z"/>
	<path id="Layer" class="s4" d="m398 64.9q-0.1 0.3 0 0.5 0.1 0.4 0 0.9 0.7-0.2 1.3 0c0.7 0.1 0.9 0.4 1.5 0.2q0.5-0.1 0.9-0.1c0.5 0 1.2-0.2 1.8-0.1 0.6 0 1.3-0.1 1.4 0 0 0 1.1 0 1.1 0 0 0 0.6-0.2 0.6-0.3 0-0.1-0.1-1.3-0.1-1.3z"/>
	<path id="Layer" class="s43" d="m399.7 66c0 0 2.5-0.1 2.9-0.1 0.3 0 0.6 0 1.1 0q0.6 0.1 1.3 0.1c0.5-0.1 1 0 1.1-0.1q-0.4 0.1-0.7 0.1-0.3 0.1-0.7 0.1-0.2-0.1-0.5-0.1c0 0.1-0.3 0-0.4 0.1-0.1 0.1-0.1 0.5-0.1 0.5q-0.2-0.3-0.5-0.4c-0.2-0.1-0.7-0.3-0.8-0.2 0 0.1-0.5 0.1-0.6 0.2q-0.2 0.2-0.5 0.2c0 0-1.6-0.4-1.6-0.4z"/>
	<path id="Layer" class="s4" d="m397.9 64.9c0 0.1-0.1 0.6 0 0.7 0.1 0 0.8 0.3 1.8 0.2q1.1-0.1 2.1-0.1c1.2 0 1.7 0.1 1.9 0q0.5 0 1-0.1c0.4 0 1 0 1.2 0 0.1 0 0.2 0.1 0.4 0q0.2-0.2 0.4-0.3c0 0 0-0.2-0.1-0.3 0 0-0.1 0-0.1 0 0-0.1 0-0.1 0-0.2l-0.2-0.2z"/>
	<path id="Layer" class="s14" d="m397.9 64.9c0 0.1-0.1 0.6 0 0.7 0.1 0 0.8 0.3 1.8 0.2q1.1-0.1 2.1-0.1c1.2 0 1.7 0.1 1.9 0q0.5 0 1-0.1c0.4 0 1 0 1.2 0 0.1 0 0.2 0.1 0.4 0q0.2-0.2 0.4-0.3c0 0 0-0.2-0.1-0.3 0 0-0.1 0-0.1 0 0-0.1 0-0.1 0-0.2l-0.2-0.2z"/>
	<path id="Layer" class="s43" d="m400.5 64.4l3.2 1.9 2.7-2z"/>
	<path id="Layer" class="s12" d="m400.5 64.4l3.2 1.9 2.7-2z"/>
	<path id="Layer" class="s43" d="m397.7 64.4l1 1.7 4.3-1.6z"/>
	<path id="Layer" class="s12" d="m397.7 64.4l1 1.7 4.3-1.6z"/>
	<path id="Layer" class="s43" d="m397.9 64.5c0 0-0.5 0.5-0.3 0.6 0.1 0.2-0.1 0.4-0.1 0.4q0.5-0.1 1 0c0.5 0.2 1.1 0.2 1.5 0 0.4-0.1 1.1-0.1 1.3-0.3q0.4-0.4 0.8-0.9z"/>
	<path id="Layer" class="s43" d="m402.9 64.3c0 0 0.9 0.9 1.5 1 0.6 0.1 0.7-0.1 1.5 0 0.7 0.1 0.8 0.3 0.9 0q0.1-0.5 0-1.1z"/>
	<path id="Layer" class="s6" d="m397.9 64.5c0 0-0.5 0.5-0.3 0.6 0.1 0.2-0.1 0.4-0.1 0.4q0.5-0.1 1 0c0.5 0.2 1.1 0.2 1.5 0 0.4-0.1 1.1-0.1 1.3-0.3q0.4-0.4 0.8-0.9z"/>
	<path id="Layer" class="s6" d="m402.9 64.3c0 0 0.9 0.9 1.5 1 0.6 0.1 0.7-0.1 1.5 0 0.7 0.1 0.8 0.3 0.9 0q0.1-0.5 0-1.1z"/>
	<path id="Layer" class="s43" d="m397.8 67.1q0.3-0.1 0.7-0.1c0.1 0 1.7 0.2 1.8 0.2q0.4-0.1 0.8 0c0.3 0.1 0.3 0.1 0.7 0q0.4-0.1 0.8-0.1c0.2 0 0.3-0.1 0.5 0q0.3 0.1 0.7 0.1c0.3 0 0.3 0.2 0.7 0.1q0.4-0.2 0.8-0.2c0.2 0 0.5-0.1 0.6 0 0.1 0 0-0.1 0.3 0q0.2 0 0.5-0.1 0 0.1 0.2 0.2c0 0-0.4 0.1-0.6 0.1-0.1 0 0.1 0-0.3 0.1-0.4 0.1-0.3 0.2-0.6 0.2-0.3 0-0.3 0-0.5 0-0.2-0.1-0.2 0.1-0.6 0q-0.4-0.2-0.8-0.2c-0.1 0 0.2 0-0.2 0.1-0.4 0.1-0.1 0-0.6 0.1-0.5 0.1-0.4 0.2-0.7 0.1-0.3-0.1-0.3-0.2-0.5-0.1-0.1 0 0 0-0.2 0-0.2 0-0.1 0-0.4 0q-0.4 0.1-0.9 0.1c-0.3 0-0.6-0.1-0.7-0.1q-0.3-0.1-0.6-0.1c-0.3-0.1-0.4 0-0.5-0.1-0.1-0.1-0.4-0.3-0.4-0.3z"/>
	<path id="Layer" class="s6" d="m397.8 67.1q0.3-0.1 0.7-0.1c0.1 0 1.7 0.2 1.8 0.2q0.4-0.1 0.8 0c0.3 0.1 0.3 0.1 0.7 0q0.4-0.1 0.8-0.1c0.2 0 0.3-0.1 0.5 0q0.3 0.1 0.7 0.1c0.3 0 0.3 0.2 0.7 0.1q0.4-0.2 0.8-0.2c0.2 0 0.5-0.1 0.6 0 0.1 0 0-0.1 0.3 0q0.2 0 0.5-0.1 0 0.1 0.2 0.2c0 0-0.4 0.1-0.6 0.1-0.1 0 0.1 0-0.3 0.1-0.4 0.1-0.3 0.2-0.6 0.2-0.3 0-0.3 0-0.5 0-0.2-0.1-0.2 0.1-0.6 0q-0.4-0.2-0.8-0.2c-0.1 0 0.2 0-0.2 0.1-0.4 0.1-0.1 0-0.6 0.1-0.5 0.1-0.4 0.2-0.7 0.1-0.3-0.1-0.3-0.2-0.5-0.1-0.1 0 0 0-0.2 0-0.2 0-0.1 0-0.4 0q-0.4 0.1-0.9 0.1c-0.3 0-0.6-0.1-0.7-0.1q-0.3-0.1-0.6-0.1c-0.3-0.1-0.4 0-0.5-0.1-0.1-0.1-0.4-0.3-0.4-0.3z"/>
	<path id="Layer" class="s43" d="m407.2 64.7c0.1 0 0-0.3 0-0.4 0-1.7-2.2-3.1-4.9-3.1-2.7 0-4.9 1.4-4.9 3.1 0 0.1-0.1 0.3 0 0.4 0.4 0.4 2.6 0 4.9 0 2.1-0.1 4.4 0.3 4.9 0z"/>
	<path id="Layer" class="s19" d="m407.2 64.7c0.1 0 0-0.3 0-0.4 0-1.7-2.2-3.1-4.9-3.1-2.7 0-4.9 1.4-4.9 3.1 0 0.1-0.1 0.3 0 0.4 0.4 0.4 2.6 0 4.9 0 2.1-0.1 4.4 0.3 4.9 0z"/>
	<path id="Layer" class="s43" d="m402.3 61.8c0 0 0.1 0.2 0 0.2-0.1 0 0-0.2 0-0.2z"/>
	<path id="Layer" class="s43" d="m403.7 61.8c0 0 0.5 0 0.5 0.1-0.1 0-0.5-0.1-0.5-0.1z"/>
	<path id="Layer" class="s43" d="m401.1 61.8c0 0-0.3 0.1-0.4 0.1 0-0.1 0.4-0.1 0.4-0.1z"/>
	<g id="Layer" style="opacity: .5">
		<path id="Layer" class="s11" d="m410 79.7l-0.6-0.8-0.6 0.8h-0.5l0.8-1.1-0.8-1.1h0.6l0.5 0.7 0.6-0.7h0.5l-0.8 1.1 0.9 1.1z"/>
		<path id="Layer" class="s11" d="m411.9 76.8v2.9h-0.6v-2.5h-0.6v-0.4z"/>
	</g>
	<path id="Layer" class="s43" d="m432.9 78.5q0 0.7-0.4 1.3-0.4 0.6-1 0.8-0.7 0.3-1.4 0.2-0.7-0.2-1.2-0.7-0.5-0.5-0.6-1.2-0.2-0.7 0.1-1.3 0.3-0.7 0.9-1.1 0.6-0.4 1.3-0.4c0.6 0 1.2 0.3 1.6 0.7 0.5 0.5 0.7 1.1 0.7 1.7z"/>
	<path id="Layer" class="s8" d="m430.7 77.2h-0.3v2.6h0.3z"/>
	<path id="Layer" class="s8" d="m431.9 78.3h-2.6v0.4h2.6z"/>
	<path id="Layer" class="s43" d="m439.9 78.5q0 0.7-0.4 1.3-0.4 0.6-1 0.8-0.7 0.3-1.4 0.2-0.7-0.2-1.2-0.7-0.5-0.5-0.6-1.2-0.2-0.7 0.1-1.3 0.3-0.7 0.9-1.1 0.6-0.4 1.3-0.4 0.4 0 0.9 0.2 0.4 0.2 0.7 0.5 0.4 0.4 0.5 0.8 0.2 0.4 0.2 0.9z"/>
	<path id="Layer" class="s8" d="m438.9 78.3h-2.6v0.4h2.6z"/>
	<path id="Layer" class="s43" d="m402.4 74.4h-1.9c-0.6 0.2-1.1 0.5-1.4 1-0.3 0.5-0.5 1.1-0.5 1.6h5.7c0-0.5-0.2-1.1-0.5-1.6-0.4-0.5-0.8-0.8-1.4-1z"/>
	<path id="Layer" class="s12" d="m402.4 74.4h-1.9c-0.6 0.2-1.1 0.5-1.4 1-0.3 0.5-0.5 1.1-0.5 1.6h5.7c0-0.5-0.2-1.1-0.5-1.6-0.4-0.5-0.8-0.8-1.4-1z"/>
	<path id="Layer" class="s6" d="m401.1 72.8l-0.4 0.1 1.1 6.2 0.4-0.1z"/>
	<path id="Layer" class="s43" d="m403.9 83.4l0.5-6.3h-5.9l0.5 6.3z"/>
	<path id="Layer" class="s43" d="m404.7 77.5h-6.5l0.1-0.9h6.3z"/>
	<path id="Layer" class="s17" d="m404.7 77.5h-6.5l0.1-0.9h6.3z"/>
	<path id="Layer" class="s25" d="m444.2 86.2h-50.3v7.8h50.3z"/>
	<path id="Layer" fill-rule="evenodd" class="s8" d="m412.1 89.4c0 0.7-0.5 1.1-1.3 1.1h-0.6v0.8h-0.6v-2.9h1.2c0.8 0 1.3 0.4 1.3 1zm-0.6 0q0-0.5-0.7-0.5h-0.6v1.1h0.6q0.7 0 0.7-0.6z"/>
	<path id="Layer" fill-rule="evenodd" class="s8" d="m414.4 90v1.3h-0.4v-0.2q-0.2 0.1-0.4 0.2-0.1 0.1-0.3 0.1c-0.6 0-0.9-0.3-0.9-0.7 0-0.4 0.3-0.7 0.9-0.7h0.6q0-0.5-0.5-0.5-0.4 0-0.7 0.2l-0.2-0.4q0.4-0.2 0.9-0.2c0.7 0 1 0.3 1 0.9zm-0.5 0.6v-0.2h-0.5c-0.4 0-0.5 0.1-0.5 0.3 0 0.1 0.2 0.3 0.5 0.3q0.1 0 0.3-0.1 0.2-0.1 0.2-0.3z"/>
	<path id="Layer" class="s8" d="m417.2 89.1l-1.1 2.4q0 0.3-0.3 0.5-0.2 0.2-0.5 0.2-0.4 0-0.6-0.2l0.2-0.4q0.1 0.1 0.4 0.1c0.1 0 0.3 0 0.4-0.3v-0.1l-1-2.2h0.6l0.7 1.7 0.7-1.7z"/>
	<path id="Layer" class="s8" d="m421.3 90v1.3h-0.6v-1.2q0-0.6-0.5-0.6c-0.3 0-0.6 0.3-0.6 0.7v1.1h-0.5v-1.2q0-0.6-0.5-0.6c-0.3 0-0.6 0.3-0.6 0.7v1.1h-0.5v-2.2h0.5v0.3q0.2-0.2 0.3-0.3 0.2 0 0.4 0 0.3 0 0.5 0.1 0.2 0.1 0.3 0.2 0.2-0.1 0.4-0.2 0.2-0.1 0.4-0.1 0.2 0 0.4 0 0.2 0.1 0.3 0.2 0.2 0.2 0.2 0.4 0.1 0.2 0.1 0.3z"/>
	<path id="Layer" fill-rule="evenodd" class="s8" d="m424.1 90.4h-1.8q0.1 0.2 0.3 0.4 0.2 0.1 0.4 0.1 0.2 0 0.4 0 0.1-0.1 0.2-0.2l0.3 0.3q-0.1 0.2-0.4 0.3-0.2 0.1-0.5 0.1-0.2 0-0.5-0.1-0.2-0.1-0.4-0.2-0.1-0.2-0.2-0.4-0.1-0.2-0.1-0.5 0-0.2 0.1-0.4 0-0.2 0.2-0.4 0.2-0.2 0.4-0.3 0.2 0 0.4 0 0.3 0 0.5 0 0.2 0.1 0.4 0.3 0.1 0.2 0.2 0.4 0.1 0.2 0.1 0.4 0 0.1 0 0.2zm-0.5-0.4q0-0.2-0.2-0.4-0.2-0.1-0.5-0.1-0.2 0-0.4 0.1-0.2 0.2-0.2 0.4z"/>
	<path id="Layer" class="s8" d="m426.8 90v1.3h-0.5v-1.2q-0.1-0.6-0.6-0.6-0.1 0-0.2 0.1-0.2 0-0.2 0.1-0.1 0.1-0.2 0.2 0 0.2 0 0.3v1.1h-0.5v-2.2h0.5v0.3q0.1-0.2 0.3-0.3 0.2 0 0.4 0 0.2 0 0.4 0 0.2 0.1 0.3 0.2 0.2 0.2 0.2 0.4 0.1 0.2 0.1 0.3z"/>
	<path id="Layer" class="s8" d="m428.8 91.2q-0.2 0.2-0.5 0.2-0.2 0-0.3-0.1-0.2 0-0.3-0.1-0.1-0.1-0.1-0.3-0.1-0.1-0.1-0.3v-1.1h-0.3v-0.4h0.3v-0.5h0.6v0.5h0.5v0.4h-0.6v1.1q0 0.3 0.4 0.3 0.1 0 0.2-0.1z"/>
	<path id="Layer" class="s8" d="m444.2 95.1h-50.3v14.4h50.3z"/>
	<g id="Layer" style="opacity: .5">
		<path id="Layer" class="s11" d="m419.4 102.3l0.5 0.3-0.1 0.3-0.5-0.3v0.5h-0.3v-0.5l-0.5 0.3-0.2-0.3 0.5-0.3-0.5-0.2 0.2-0.3 0.5 0.2v-0.5h0.3v0.5l0.5-0.2 0.1 0.2z"/>
		<path id="Layer" class="s11" d="m421.3 102.3l0.5 0.3-0.2 0.3-0.5-0.3v0.5h-0.3v-0.5l-0.5 0.3-0.2-0.3 0.5-0.3-0.5-0.2 0.2-0.3 0.5 0.2v-0.5h0.3v0.6l0.5-0.3 0.2 0.3z"/>
		<path id="Layer" class="s11" d="m423.1 102.3l0.5 0.3-0.2 0.3-0.5-0.3v0.5h-0.3v-0.5l-0.5 0.3-0.1-0.3 0.4-0.3-0.4-0.2 0.1-0.3 0.5 0.2v-0.5h0.3v0.6l0.5-0.3 0.2 0.3z"/>
		<path id="Layer" class="s11" d="m424.9 102.3l0.5 0.3-0.1 0.3-0.5-0.3v0.5h-0.3v-0.5l-0.5 0.3-0.2-0.3 0.5-0.3-0.5-0.2 0.2-0.3 0.5 0.2v-0.5h0.3v0.6l0.5-0.3 0.1 0.3z"/>
		<path id="Layer" class="s11" d="m427.9 102.3l0.4 0.3-0.1 0.3-0.5-0.3v0.5h-0.3v-0.5l-0.5 0.3-0.2-0.3 0.5-0.3-0.5-0.2 0.2-0.3 0.5 0.2v-0.5h0.3v0.5l0.5-0.2 0.1 0.2z"/>
		<path id="Layer" class="s11" d="m429.7 102.3l0.5 0.3-0.2 0.3-0.5-0.3v0.5h-0.3v-0.5l-0.5 0.3-0.1-0.3 0.4-0.3-0.4-0.2 0.1-0.3 0.5 0.2v-0.5h0.3v0.6l0.5-0.3 0.2 0.3z"/>
		<path id="Layer" class="s11" d="m431.5 102.3l0.5 0.3-0.2 0.3-0.5-0.3v0.5h-0.3v-0.5l-0.5 0.3-0.1-0.3 0.5-0.3-0.5-0.2 0.1-0.3 0.5 0.2v-0.5h0.3v0.6l0.5-0.3 0.2 0.3z"/>
		<path id="Layer" class="s11" d="m433.4 102.3l0.4 0.3-0.1 0.3-0.5-0.3v0.5h-0.3v-0.5l-0.5 0.3-0.2-0.3 0.5-0.3-0.5-0.2 0.2-0.3 0.5 0.2v-0.5h0.3v0.6l0.5-0.3 0.1 0.3z"/>
		<path id="Layer" class="s11" d="m436.3 102.3l0.4 0.3-0.1 0.3-0.5-0.3v0.5h-0.3v-0.5l-0.5 0.3-0.2-0.3 0.5-0.3-0.5-0.2 0.2-0.3 0.5 0.2v-0.5h0.3v0.5l0.5-0.2 0.2 0.2z"/>
		<path id="Layer" class="s11" d="m438.1 102.3l0.5 0.3-0.2 0.3-0.5-0.3v0.5h-0.3v-0.5l-0.5 0.3-0.1-0.3 0.4-0.3-0.4-0.2 0.1-0.3 0.5 0.2v-0.5h0.3v0.6l0.5-0.3 0.2 0.3z"/>
		<path id="Layer" class="s11" d="m439.9 102.3l0.5 0.3-0.2 0.3-0.4-0.3v0.5h-0.4v-0.5l-0.4 0.3-0.2-0.3 0.5-0.3-0.5-0.2 0.2-0.3 0.4 0.2v-0.5h0.4v0.6l0.4-0.3 0.2 0.3z"/>
	</g>
	<path id="Layer" class="s43" d="m405.8 99.3h-7.2c-0.5 0-0.9 0.5-0.9 1v4.1c0 0.5 0.4 0.9 0.9 0.9h7.2c0.5 0 0.9-0.4 0.9-0.9v-4.1c0-0.5-0.4-1-0.9-1z"/>
	<g id="Layer" style="opacity: .5">
		<path id="Layer" class="s11" d="m406.7 102.6h-9v1.5h9z"/>
	</g>
	<g id="Layer" style="opacity: .5">
		<path id="Layer" class="s11" d="m406 101.5q0 0.1-0.1 0.3-0.1 0.1-0.2 0.1-0.1 0.1-0.3 0-0.1 0-0.2-0.1-0.1-0.1-0.1-0.2 0-0.1 0-0.3 0.1-0.1 0.2-0.2 0.1 0 0.2 0 0.1 0 0.2 0 0.1 0 0.1 0.1 0.1 0 0.1 0.1 0.1 0.1 0.1 0.2z"/>
	</g>
	<path id="Layer" class="s8" d="m405.4 101.5q0 0.2-0.1 0.3-0.1 0.1-0.2 0.1-0.1 0.1-0.2 0.1-0.2-0.1-0.3-0.2-0.1-0.1-0.1-0.2 0-0.1 0-0.3 0.1-0.1 0.2-0.2 0.1 0 0.2 0 0.2 0 0.4 0.1 0.1 0.1 0.1 0.3z"/>
	<path id="Layer" class="s25" d="m430.4 117.5h-22.7c-2.8 0-5.1 2.3-5.1 5.2 0 2.8 2.3 5.1 5.1 5.1h22.7c2.8 0 5.1-2.3 5.1-5.1 0-2.9-2.3-5.2-5.1-5.2z"/>
	<path id="Layer" fill-rule="evenodd" class="s8" d="m408.9 122.3q0-0.6 0.3-1.1 0.3-0.6 0.9-0.8 0.6-0.3 1.2-0.2 0.6 0.1 1.1 0.5 0.4 0.5 0.6 1.1 0.1 0.6-0.1 1.2-0.3 0.6-0.8 1-0.5 0.3-1.2 0.3-0.4 0-0.7-0.1-0.4-0.1-0.7-0.4-0.3-0.3-0.5-0.7-0.1-0.4-0.1-0.8zm3.4 0q0-0.4-0.2-0.7-0.3-0.4-0.6-0.5-0.4-0.2-0.8-0.1-0.4 0.1-0.7 0.4-0.3 0.3-0.4 0.7-0.1 0.4 0.1 0.8 0.2 0.3 0.5 0.6 0.3 0.2 0.7 0.2 0.3 0 0.6-0.1 0.2-0.1 0.4-0.3 0.2-0.2 0.3-0.4 0.1-0.3 0.1-0.6z"/>
	<path id="Layer" fill-rule="evenodd" class="s8" d="m416.3 124.3l-0.8-1.2h-1v1.1h-0.7v-3.8h1.6c1 0 1.6 0.5 1.6 1.4q0 0.4-0.2 0.7-0.2 0.3-0.6 0.5l0.9 1.2zm-1-3.2h-0.8v1.5h0.8c0.6 0 1-0.2 1-0.7 0-0.5-0.4-0.8-1-0.8z"/>
	<path id="Layer" fill-rule="evenodd" class="s8" d="m417.8 120.4h1.7c1.2 0 2.1 0.8 2.1 1.9 0 1.2-0.9 2-2.1 2h-1.7zm1.6 3.2c0.9 0 1.4-0.5 1.4-1.3 0-0.8-0.5-1.3-1.4-1.3h-0.9v2.6z"/>
	<path id="Layer" class="s8" d="m425.2 123.7v0.6h-2.9v-3.9h2.8v0.6h-2.1v1h1.9v0.6h-1.9v1.1z"/>
	<path id="Layer" fill-rule="evenodd" class="s8" d="m428.5 124.3l-0.8-1.2h-1v1.1h-0.7v-3.8h1.6c1 0 1.6 0.5 1.6 1.4q0 0.4-0.2 0.7-0.2 0.3-0.6 0.5l0.9 1.2zm-1-3.2h-0.8v1.5h0.8c0.7 0 1-0.2 1-0.7 0-0.5-0.3-0.8-1-0.8z"/>
	<path id="Layer" fill-rule="evenodd" class="s8" d="m411.9 51.6h1.3c1 0 1.6 0.6 1.6 1.5 0 0.8-0.6 1.4-1.6 1.4h-1.3zm1.3 2.5q0.2 0 0.4 0 0.2-0.1 0.4-0.3 0.1-0.1 0.2-0.3 0.1-0.2 0.1-0.4 0-0.2-0.1-0.4-0.1-0.2-0.2-0.3-0.2-0.2-0.4-0.3-0.2 0-0.4 0h-0.7v2z"/>
	<path id="Layer" fill-rule="evenodd" class="s8" d="m417.5 53.6h-1.8q0.1 0.2 0.3 0.4 0.2 0.1 0.4 0.1 0.2 0 0.4 0 0.1-0.1 0.3-0.2l0.2 0.3q-0.2 0.2-0.6 0.3-0.3 0.1-0.7 0-0.3-0.1-0.6-0.4-0.2-0.3-0.2-0.7 0-0.2 0.1-0.4 0.1-0.3 0.2-0.4 0.2-0.2 0.4-0.3 0.2-0.1 0.4 0 0.3-0.1 0.5 0 0.2 0.1 0.4 0.3 0.1 0.2 0.2 0.4 0.1 0.2 0.1 0.4 0 0.1 0 0.2zm-1.8-0.4h1.3q0-0.2-0.2-0.4-0.2-0.1-0.4-0.1-0.3 0-0.5 0.1-0.1 0.2-0.2 0.4z"/>
	<path id="Layer" class="s8" d="m419.3 54.4q-0.2 0.2-0.5 0.2-0.1 0-0.3-0.1-0.1 0-0.2-0.1-0.1-0.2-0.2-0.3-0.1-0.1 0-0.3v-1.1h-0.4v-0.4h0.4v-0.5h0.5v0.5h0.6v0.4h-0.6v1.1q0 0 0 0.1 0 0.1 0 0.1 0.1 0.1 0.2 0.1 0 0 0.1 0 0.2 0 0.3-0.1z"/>
	<path id="Layer" fill-rule="evenodd" class="s8" d="m421.6 53.2v1.3h-0.5v-0.2q-0.1 0.1-0.3 0.2-0.2 0.1-0.4 0.1c-0.5 0-0.8-0.3-0.8-0.7 0-0.4 0.3-0.7 0.9-0.7h0.6q0-0.5-0.5-0.5-0.4 0-0.7 0.2l-0.2-0.4q0.4-0.3 0.9-0.2 1-0.1 1 0.9zm-0.5 0.6v-0.2h-0.5c-0.4 0-0.5 0.1-0.5 0.3 0 0.1 0.2 0.3 0.5 0.3q0.1 0 0.3-0.1 0.2-0.1 0.2-0.3z"/>
	<path id="Layer" class="s8" d="m422.3 51.6q0-0.1 0-0.1 0-0.1 0.1-0.1 0-0.1 0.1-0.1 0 0 0.1 0 0.1 0 0.1 0 0.1 0 0.1 0.1 0.1 0 0.1 0.1 0 0 0.1 0.1-0.1 0.1-0.2 0.2-0.1 0-0.2 0-0.1 0-0.2 0-0.1-0.1-0.1-0.2zm0 0.7h0.6v2.2h-0.5z"/>
	<path id="Layer" class="s8" d="m423.5 51.4h0.6v3.1h-0.6z"/>
	<path id="Layer" class="s8" d="m424.5 54.3l0.2-0.4q0.4 0.2 0.8 0.2 0.5 0 0.5-0.2c0-0.5-1.4 0-1.4-0.9 0-0.5 0.3-0.7 0.9-0.7q0.5-0.1 0.9 0.1l-0.2 0.4q-0.3-0.1-0.7-0.1c-0.3 0-0.4 0.1-0.4 0.2 0 0.5 1.4 0.1 1.4 1 0 0.4-0.4 0.7-1.1 0.7q-0.5 0-0.9-0.3z"/>
	<path id="Layer" class="s12" d="m398 45.2h0.7v-0.9h-0.7z"/>
	<path id="Layer" class="s12" d="m396.9 45.2h0.7v-1.2h-0.7z"/>
	<path id="Layer" class="s12" d="m395.8 45.2h0.6v-1.5h-0.6z"/>
	<path id="Layer" class="s12" d="m394.7 45.2h0.6v-1.8h-0.6z"/>
	<path id="Layer" class="s12" d="m440.5 43.9h-0.4v1h0.4z"/>
	<path id="Layer" class="s12" d="m440.8 45.2h3.2v-1.6h-3.2z"/>
</svg>