<svg version="1.2" xmlns="http://www.w3.org/2000/svg" viewBox="0 0 203 75" width="203" height="75">
	<title>Clover-svg</title>
	<defs>
		<clipPath clipPathUnits="userSpaceOnUse" id="cp1">
			<path d="m196.58 37h-150.69v43.57h150.69z"/>
		</clipPath>
		<linearGradient id="g1" x2="1" gradientUnits="userSpaceOnUse" gradientTransform="matrix(30.953,0,0,30.779,45.89,58.614)">
			<stop offset="0" stop-color="#10b098"/>
			<stop offset="1" stop-color="#1c75bc"/>
		</linearGradient>
		<linearGradient id="g2" x2="1" gradientUnits="userSpaceOnUse" gradientTransform="matrix(0,23.561,-338.229,0,60.856,47.533)">
			<stop offset="0" stop-color="#10b098"/>
			<stop offset="1" stop-color="#1c75bc"/>
		</linearGradient>
		<linearGradient id="g3" x2="1" gradientUnits="userSpaceOnUse" gradientTransform="matrix(0,27.185,-41.393,0,60.858,44.299)">
			<stop offset="0" stop-color="#10b098"/>
			<stop offset="1" stop-color="#1c75bc"/>
		</linearGradient>
		<linearGradient id="g4" x2="1" gradientUnits="userSpaceOnUse" gradientTransform="matrix(14.412,0,0,14.643,64.062,53.535)">
			<stop offset="0" stop-color="#10b098"/>
			<stop offset="1" stop-color="#1c75bc"/>
		</linearGradient>
		<linearGradient id="g5" x2="1" gradientUnits="userSpaceOnUse" gradientTransform="matrix(0,5.787,-5.689,0,60.858,56.888)">
			<stop offset="0" stop-color="#10b098"/>
			<stop offset="1" stop-color="#1c75bc"/>
		</linearGradient>
		<linearGradient id="g6" x2="1" gradientUnits="userSpaceOnUse" gradientTransform="matrix(0,4.277,-4.301,0,54.685,53.791)">
			<stop offset="0" stop-color="#10b098"/>
			<stop offset="1" stop-color="#1c75bc"/>
		</linearGradient>
		<linearGradient id="g7" x2="1" gradientUnits="userSpaceOnUse" gradientTransform="matrix(4.961,0,0,4.933,68.785,53.532)">
			<stop offset="0" stop-color="#10b098"/>
			<stop offset="1" stop-color="#1c75bc"/>
		</linearGradient>
		<linearGradient id="g8" x2="1" gradientUnits="userSpaceOnUse" gradientTransform="matrix(118.07,0,0,26.456,78.514,59.564)">
			<stop offset="0" stop-color="#10b098"/>
			<stop offset="1" stop-color="#21409a"/>
		</linearGradient>
	</defs>
	<style>
		.s0 { fill: #424242 } 
		.s1 { fill: #808080 } 
		.s2 { fill: url(#g1) } 
		.s3 { fill: url(#g2) } 
		.s4 { fill: url(#g3) } 
		.s5 { fill: url(#g4) } 
		.s6 { fill: url(#g5) } 
		.s7 { fill: url(#g6) } 
		.s8 { fill: url(#g7) } 
		.s9 { fill: url(#g8) } 
	</style>
	<path id="Layer" fill-rule="evenodd" class="s0" d="m11.9 6.9q-1.2 0-2.2 0.5-1 0.5-1.7 1.4-0.6 0.9-0.9 2.2-0.4 1.3-0.4 3 0 2.2 0.6 3.7 0.5 1.6 1.7 2.4 1.1 0.8 2.9 0.8 1.3 0 2.5-0.3 1.3-0.3 2.8-0.8v3.7q-1.4 0.6-2.7 0.8-1.3 0.3-3 0.3-3.2 0-5.3-1.3-2-1.4-3-3.8-1-2.4-1-5.5 0-2.4 0.6-4.4 0.7-1.9 1.9-3.4 1.2-1.4 3-2.2 1.9-0.7 4.2-0.7 1.6 0 3.1 0.4 1.6 0.3 3 1l-1.4 3.6q-1.2-0.6-2.4-1-1.1-0.4-2.3-0.4zm13.7 17.4h-4.3v-22.1h4.3zm19-7.9q0 1.9-0.6 3.5-0.5 1.5-1.5 2.6-1 1-2.4 1.6-1.5 0.5-3.2 0.5-1.7 0-3.1-0.5-1.4-0.6-2.4-1.6-1.1-1.1-1.6-2.6-0.6-1.6-0.6-3.5 0-2.7 0.9-4.5 1-1.8 2.7-2.8 1.7-0.9 4.1-0.9 2.3 0 4 0.9 1.7 1 2.7 2.8 1 1.8 1 4.5zm-11 0q0 1.5 0.4 2.6 0.3 1.1 1 1.6 0.7 0.5 1.9 0.5 1.2 0 1.9-0.5 0.7-0.5 1-1.6 0.4-1.1 0.4-2.6 0-1.6-0.4-2.6-0.3-1.1-1-1.6-0.8-0.5-1.9-0.5-1.7 0-2.5 1.1-0.8 1.2-0.8 3.6zm18.3 7.9l-6-15.8h4.5l3.1 9q0.2 0.8 0.4 1.7 0.1 0.9 0.2 1.5h0.1q0-0.7 0.2-1.6 0.2-0.8 0.4-1.6l3.1-9h4.5l-6 15.8zm19.3-16.1q2.2 0 3.8 0.8 1.6 0.9 2.4 2.5 0.9 1.6 0.9 3.9v2.1h-10.2q0 1.8 1 2.8 1.1 1.1 2.9 1.1 1.5 0 2.8-0.3 1.3-0.3 2.6-1v3.4q-1.2 0.6-2.5 0.8-1.3 0.3-3.1 0.3-2.4 0-4.2-0.9-1.8-0.9-2.9-2.7-1-1.8-1-4.5 0-2.8 0.9-4.6 1-1.9 2.6-2.8 1.7-0.9 4-0.9zm0 3q-1.3 0-2.1 0.9-0.8 0.8-0.9 2.5h6q0-1-0.3-1.7-0.4-0.8-1-1.2-0.7-0.5-1.7-0.5zm19.5-3q0.3 0 0.7 0 0.4 0 0.7 0.1l-0.3 4q-0.2 0-0.6-0.1-0.4 0-0.7 0-0.8 0-1.6 0.2-0.8 0.2-1.4 0.7-0.6 0.5-1 1.3-0.4 0.7-0.4 1.8v8.1h-4.3v-15.8h3.3l0.6 2.6h0.2q0.5-0.8 1.2-1.4 0.7-0.7 1.6-1.1 0.9-0.4 2-0.4z"/>
	<path id="Layer" fill-rule="evenodd" class="s1" d="m5.1 66l-4.1-10.6h1.8l2.3 6.4q0.3 0.7 0.5 1.5 0.3 0.8 0.4 1.3h0.1q0.1-0.5 0.3-1.3 0.3-0.8 0.5-1.5l2.4-6.4h1.7l-4 10.6zm9.2-10.6v10.6h-1.6v-10.6zm-0.8-4q0.4 0 0.7 0.2 0.3 0.3 0.3 0.8 0 0.6-0.3 0.8-0.3 0.3-0.7 0.3-0.4 0-0.7-0.3-0.3-0.2-0.3-0.8 0-0.5 0.3-0.8 0.3-0.2 0.7-0.2zm8.2 3.8q1.9 0 2.9 0.8 0.9 0.9 0.9 2.8v7.2h-1.2l-0.3-1.5h-0.1q-0.4 0.6-0.9 1-0.5 0.3-1.1 0.5-0.7 0.2-1.6 0.2-1 0-1.7-0.3-0.8-0.3-1.2-1-0.5-0.7-0.5-1.8 0-1.6 1.3-2.4 1.3-0.9 3.9-1l1.8-0.1v-0.6q0-1.4-0.6-2-0.6-0.5-1.7-0.5-0.8 0-1.6 0.2-0.7 0.3-1.4 0.6l-0.5-1.2q0.7-0.4 1.7-0.7 0.9-0.2 1.9-0.2zm2.2 5.6l-1.6 0.1q-2 0-2.9 0.6-0.8 0.6-0.8 1.6 0 1 0.6 1.4 0.5 0.4 1.5 0.4 1.4 0 2.3-0.8 0.9-0.8 0.9-2.3z"/>
	<g id="Clip-Path" clip-path="url(#cp1)">
		<g id="Layer">
			<path id="Layer" fill-rule="evenodd" class="s2" d="m74.9 72.1c-4.1 4.1-13.6 1.4-21-6-7.5-7.5-10.2-16.8-6.1-20.9 4.2-4.2 13.6-1.5 21.1 6 7.4 7.4 10.1 16.7 6 20.9zm-7-20.1c-7.3-7.3-16.2-10.2-19.8-6.6-3.6 3.6-0.7 12.4 6.6 19.7 7.3 7.2 16.1 10.2 19.8 6.5 3.6-3.6 0.6-12.4-6.6-19.6z"/>
			<path id="Layer" class="s3" d="m48 67.7c0 1.1 1 1.8 2.1 1.8h7.8v-0.2c0-0.5 0.3-0.9 0.8-0.9h4.3c0.5 0 0.9 0.4 0.9 0.9v0.2h7.7c1.1 0 2.1-0.7 2.1-1.8z"/>
			<path id="Layer" class="s4" d="m71.8 61.6h-0.5v2.5c0 0.5-0.5 0.9-1 0.9h-18.9c-0.5 0-1-0.4-1-0.9v-10.9c0-0.6 0.5-1 1-1h12q-0.1-0.3 0-0.6l0.2-0.7h-12.3c-1.2 0-2.2 1-2.2 2.2v11.1c0 1.1 1 2.1 2.2 2.1h19.1c1.2 0 2.2-1 2.2-2.1v-2.9q-0.3 0.3-0.8 0.3z"/>
			<path id="Layer" fill-rule="evenodd" class="s5" d="m78.4 55.3l-0.3 1c-0.1 0.3-0.4 0.5-0.7 0.4l-0.7-0.3c-0.2 0-0.5 0-0.6 0.2q-0.2 0.3-0.4 0.6c-0.1 0.1-0.1 0.4 0 0.6l0.5 0.6c0.1 0.2 0.1 0.6-0.1 0.7l-1 0.7c-0.2 0.2-0.5 0.1-0.7-0.1l-0.4-0.7c-0.2-0.1-0.4-0.2-0.6-0.1q-0.4 0.1-0.7 0.2c-0.2 0-0.4 0.2-0.4 0.5v0.7c0 0.3-0.2 0.6-0.5 0.6h-1.1c-0.3 0-0.5-0.3-0.5-0.6v-0.7c0-0.3-0.2-0.5-0.4-0.5q-0.3-0.1-0.6-0.2c-0.2-0.1-0.5 0-0.6 0.1l-0.5 0.7c-0.2 0.2-0.5 0.3-0.7 0.1l-0.9-0.7c-0.3-0.1-0.3-0.5-0.1-0.7l0.4-0.6c0.2-0.2 0.2-0.5 0-0.6q-0.2-0.3-0.4-0.6c-0.1-0.2-0.3-0.2-0.6-0.2l-0.7 0.3c-0.3 0.1-0.6-0.1-0.7-0.4l-0.3-1c-0.1-0.3 0-0.6 0.3-0.7l0.8-0.2c0.2-0.1 0.3-0.3 0.3-0.5q0-0.2 0-0.4 0-0.1 0-0.3c0-0.2-0.1-0.4-0.3-0.5l-0.8-0.2c-0.3-0.1-0.4-0.4-0.3-0.7l0.3-1.1c0.1-0.2 0.4-0.4 0.7-0.3l0.7 0.3c0.3 0 0.5-0.1 0.6-0.3q0.2-0.2 0.4-0.5c0.2-0.2 0.2-0.4 0-0.6l-0.4-0.6c-0.2-0.3-0.2-0.6 0.1-0.8l0.9-0.6c0.2-0.2 0.5-0.1 0.7 0.1l0.5 0.6c0.1 0.2 0.4 0.3 0.6 0.2q0.3-0.1 0.6-0.2c0.2 0 0.4-0.3 0.4-0.5v-0.8c0-0.3 0.2-0.5 0.5-0.5h1.1c0.3 0 0.5 0.2 0.5 0.5v0.8c0 0.2 0.2 0.5 0.4 0.5q0.3 0.1 0.7 0.2c0.2 0.1 0.4 0 0.6-0.2l0.4-0.6c0.2-0.2 0.5-0.3 0.7-0.1l1 0.6c0.2 0.2 0.2 0.5 0.1 0.8l-0.5 0.6c-0.1 0.2-0.1 0.4 0 0.6q0.2 0.3 0.4 0.5c0.1 0.2 0.4 0.3 0.6 0.3l0.7-0.3c0.3-0.1 0.6 0.1 0.7 0.3l0.3 1.1c0.1 0.3 0 0.6-0.3 0.7l-0.7 0.2c-0.3 0.1-0.4 0.3-0.4 0.5q0 0.2 0 0.3 0 0.2 0 0.4c0 0.2 0.1 0.4 0.4 0.5l0.7 0.2c0.3 0.1 0.4 0.4 0.3 0.7zm-3.3-1.8c0-2.1-1.7-3.8-3.8-3.8-2.2 0-3.9 1.7-3.9 3.8 0 2.2 1.7 3.9 3.9 3.9 2.1 0 3.8-1.7 3.8-3.9z"/>
			<path id="Layer" fill-rule="evenodd" class="s6" d="m63.8 60.6l-0.1 0.4c0 0.1-0.2 0.2-0.3 0.2l-0.3-0.1q-0.1-0.1-0.2 0-0.1 0.2-0.2 0.3-0.1 0.1 0 0.2l0.2 0.3c0.1 0.1 0 0.2 0 0.3l-0.4 0.3c-0.1 0-0.3 0-0.3-0.1l-0.2-0.3q-0.1-0.1-0.3 0-0.1 0-0.2 0.1-0.2 0-0.2 0.2v0.3c0 0.1-0.1 0.2-0.2 0.2h-0.5c-0.1 0-0.2-0.1-0.2-0.2v-0.3q0-0.2-0.1-0.2-0.2-0.1-0.3-0.1-0.2-0.1-0.3 0l-0.2 0.3c0 0.1-0.2 0.1-0.3 0.1l-0.3-0.3c-0.1-0.1-0.1-0.2-0.1-0.3l0.2-0.3q0.1-0.1 0-0.2-0.1-0.1-0.1-0.3-0.1-0.1-0.3 0l-0.3 0.1c-0.1 0-0.2-0.1-0.3-0.2l-0.1-0.4c-0.1-0.1 0-0.3 0.1-0.3l0.3-0.1q0.2-0.1 0.2-0.2 0-0.1 0-0.1 0-0.1 0-0.2 0-0.1-0.2-0.2l-0.3-0.1c-0.1 0-0.2-0.2-0.1-0.3l0.1-0.4c0.1-0.1 0.2-0.2 0.3-0.1l0.3 0.1q0.2 0 0.3-0.1 0-0.1 0.1-0.3 0.1-0.1 0-0.2l-0.2-0.3c0-0.1 0-0.2 0.1-0.3l0.3-0.2c0.1-0.1 0.3-0.1 0.3 0l0.2 0.3q0.1 0.1 0.3 0 0.1 0 0.3 0 0.1-0.1 0.1-0.3v-0.3c0-0.1 0.1-0.2 0.2-0.2h0.5c0.1 0 0.2 0.1 0.2 0.2v0.3q0 0.2 0.2 0.3 0.1 0 0.2 0 0.2 0.1 0.3 0l0.2-0.3c0-0.1 0.2-0.1 0.3 0l0.4 0.2c0 0.1 0.1 0.2 0 0.3l-0.2 0.3q-0.1 0.1 0 0.2 0.1 0.2 0.2 0.3 0.1 0.1 0.2 0.1l0.3-0.1c0.1-0.1 0.3 0 0.3 0.1l0.1 0.4c0.1 0.1 0 0.3-0.1 0.3l-0.3 0.1q-0.2 0.1-0.2 0.2 0 0.1 0 0.2 0 0 0 0.1 0 0.1 0.2 0.2l0.3 0.1c0.1 0 0.2 0.2 0.1 0.3zm-1.3-0.7c0-0.9-0.8-1.6-1.6-1.6-0.9 0-1.7 0.7-1.7 1.6 0 0.8 0.8 1.6 1.7 1.6 0.8 0 1.6-0.8 1.6-1.6z"/>
			<path id="Layer" fill-rule="evenodd" class="s7" d="m55.8 57.7l-0.3 0.2c-0.1 0-0.2 0-0.2-0.1l-0.1-0.2q-0.1-0.1-0.2-0.1-0.1 0.1-0.2 0.1-0.1 0-0.1 0.1v0.2c0 0.1-0.1 0.1-0.2 0.1h-0.3c-0.1 0-0.1-0.1-0.1-0.2v-0.2q0-0.1-0.1-0.1 0-0.1-0.1-0.1-0.1-0.1-0.2 0l-0.1 0.1c-0.1 0.1-0.2 0.1-0.2 0l-0.3-0.2c0 0 0-0.1 0-0.2l0.2-0.1q0.1-0.1 0-0.2 0-0.1-0.1-0.2 0-0.1-0.1 0h-0.2c-0.1 0-0.2 0-0.2-0.1l-0.1-0.3c0-0.1 0.1-0.2 0.2-0.2h0.2q0.1-0.1 0.1-0.2 0 0 0-0.1 0-0.1 0-0.2l-0.2-0.1c-0.1 0-0.1-0.1-0.1-0.2l0.1-0.3c0.1 0 0.2-0.1 0.2 0l0.2 0.1q0.1 0 0.2-0.1 0 0 0.1 0 0 0 0-0.1 0.1-0.1 0.1-0.1l-0.1-0.2c-0.1-0.1-0.1-0.2 0-0.2l0.3-0.2c0.1 0 0.2 0 0.2 0.1l0.1 0.2q0 0.1 0.1 0.1 0.1-0.1 0.2-0.1 0.1 0 0.2-0.1v-0.2c0-0.1 0.1-0.1 0.1-0.1h0.4c0 0 0.1 0.1 0.1 0.2l-0.1 0.2q0 0.1 0.1 0.2 0.1 0 0.2 0 0.1 0.1 0.2 0l0.1-0.1c0.1-0.1 0.2-0.1 0.2 0l0.2 0.2c0.1 0 0.1 0.1 0 0.2l-0.1 0.1q-0.1 0.1 0 0.2 0 0.1 0 0.2 0.1 0.1 0.2 0h0.2c0.1 0 0.2 0.1 0.2 0.1v0.3c0 0.1 0 0.2-0.1 0.2h-0.2q-0.1 0.1-0.1 0.2 0 0-0.1 0.1 0 0.1 0.1 0.2l0.2 0.1c0.1 0 0.1 0.1 0.1 0.2l-0.2 0.3c0 0-0.1 0.1-0.2 0l-0.2-0.1q-0.1 0-0.1 0.1-0.1 0-0.1 0 0 0.1-0.1 0.1 0 0.1 0 0.2l0.1 0.1c0 0.1 0 0.2 0 0.2zm-0.4-0.9c0.5-0.5 0.5-1.1 0-1.6-0.4-0.4-1.1-0.4-1.5 0-0.4 0.5-0.4 1.1 0 1.6 0.4 0.4 1.1 0.4 1.5 0z"/>
			<path id="Layer" class="s8" d="m73 55.3c1-1 1-2.5 0-3.5-0.9-1-2.5-1-3.5 0-1 1-1 2.5 0 3.5 1 0.9 2.6 0.9 3.5 0z"/>
			<path id="Layer" fill-rule="evenodd" class="s9" d="m81.5 55.8q-0.2-0.7-0.2-1.4 0-0.5 0.1-1.1l0.4-2q0.3-1.4 1.2-2.5 1-1.1 2.3-1.8 1.2-0.7 2.6-0.7 1.4 0 2.4 0.7 1 0.7 1.5 1.8 0.3 0.7 0.3 1.4 0 0.5-0.2 1.1l-0.4 2q-0.3 1.4-1.2 2.5-1 1.1-2.3 1.8-1.3 0.7-2.6 0.7-1.4 0-2.4-0.7-1-0.7-1.5-1.8zm2.3-2.5q0 0.3 0 0.6 0 0.7 0.5 1.3 0.5 0.7 1.6 0.7 1 0 2-0.8 0.9-0.7 1.1-1.8l0.5-2q0-0.3 0-0.6 0-0.7-0.5-1.3-0.5-0.7-1.6-0.7-1 0-2 0.8-0.9 0.7-1.1 1.8l-0.5 2zm13.5 0.2h-2.1l-0.9 4.2q-0.1 0.2-0.3 0.4-0.2 0.2-0.4 0.2h-1.3q-0.3 0-0.4-0.2-0.1-0.1-0.1-0.3 0 0 0-0.1l2.4-10.8q0-0.2 0.2-0.4 0.2-0.2 0.5-0.2h5.8q1 0 1.8 0.5 0.7 0.5 1 1.3 0.2 0.5 0.2 1.1 0 0.3-0.1 0.7-0.2 1.2-1.2 2.2-0.9 0.9-2.1 1.3l1.9 3.7q0.1 0.1 0.1 0.2 0 0.1-0.1 0.2 0 0.2-0.3 0.4-0.6 0.4-1.2 0.4-0.9 0-1.3-0.8zm-1.6-2.4h4q0.4 0 0.7-0.3 0.4-0.2 0.5-0.5 0.2-0.2 0.2-0.4 0-0.1 0-0.3 0-0.4-0.3-0.7-0.3-0.2-0.6-0.2h-4zm7.7 6.8q0-0.1 0-0.2l2.4-10.8q0-0.2 0.2-0.4 0.2-0.1 0.5-0.1h4.5q1.4 0 2.4 0.7 1 0.6 1.4 1.7 0.3 0.7 0.3 1.5 0 0.5-0.2 1l-0.4 2.1q-0.3 1.3-1.2 2.4-0.9 1.2-2.2 1.8-1.3 0.7-2.7 0.7h-4.5q-0.2 0-0.4-0.2-0.1-0.1-0.1-0.2zm2.9-2h2.6q1.1 0 2-0.7 0.9-0.8 1.1-1.8l0.5-2.1q0-0.3 0-0.5 0-0.7-0.5-1.4-0.5-0.6-1.6-0.6h-2.6zm8.6 1.8l2.3-10.8q0.1-0.2 0.3-0.4 0.2-0.1 0.4-0.1h9q0.2 0 0.3 0.1 0.2 0.2 0.2 0.3 0 0.1-0.1 0.1-0.1 0.8-0.8 1.3-0.7 0.6-1.4 0.6h-5.8l-0.5 2.3h3.2q0.3 0 0.4 0.2 0.1 0.1 0.1 0.3 0 0 0 0.1-0.2 0.8-0.9 1.3-0.6 0.5-1.4 0.5h-2l-0.5 2.4h7.1q0.3 0 0.4 0.2 0.1 0.1 0.1 0.2 0 0.1 0 0.2-0.2 0.7-0.9 1.3-0.6 0.5-1.4 0.5h-7.7q-0.2 0-0.3-0.2-0.1-0.1-0.1-0.2 0-0.1 0-0.2zm11.4 0l2.3-10.8q0.1-0.2 0.3-0.4 0.2-0.1 0.4-0.1h5.9q1 0 1.7 0.5 0.8 0.4 1.1 1.3 0.2 0.4 0.2 1 0 0.4-0.1 0.8-0.3 1.2-1.2 2.1-0.9 0.9-2.2 1.3l1.9 3.7q0.1 0.1 0.1 0.3 0 0 0 0.1-0.1 0.3-0.3 0.5-0.6 0.3-1.2 0.3-0.9 0-1.4-0.8l-2-4h-2.2l-0.9 4.2q0 0.3-0.2 0.4-0.2 0.2-0.5 0.2h-1.3q-0.2 0-0.3-0.2-0.1-0.1-0.1-0.2 0-0.1 0-0.2zm3.9-6.6h4q0.4 0 0.8-0.2 0.3-0.3 0.5-0.5 0.1-0.3 0.1-0.4 0.1-0.2 0.1-0.3 0-0.4-0.4-0.7-0.3-0.2-0.6-0.2h-4zm-47.1 11.6l-2.1 9.5q0 0.3-0.3 0.4-0.2 0.2-0.4 0.2h-1.3q-0.2 0-0.4-0.2-0.1-0.1-0.1-0.3 0 0 0-0.1l2.4-10.8q0-0.2 0.2-0.4 0.2-0.2 0.5-0.2 0.8 0 1.2 0.6 0.3 0.4 0.3 0.9 0 0.2 0 0.4zm11.6-1.7q0.1 0.1 0.1 0.3 0 0 0 0.1l-2.4 10.8q0 0.2-0.2 0.4-0.3 0.2-0.5 0.2h-1.3q-0.3 0-0.4-0.3l-3.8-7.2-1.4 6.9q-0.1 0.2-0.3 0.4-0.2 0.2-0.4 0.2h-1.4q-0.2 0-0.3-0.2-0.1-0.1-0.1-0.3 0 0 0-0.1l2.3-10.8q0.1-0.2 0.3-0.4 0.2-0.2 0.4-0.2h0.7q0.9 0 1.3 0.8l3.5 6.7 1.5-6.9q0-0.2 0.2-0.4 0.3-0.2 0.5-0.2h1.3q0.2 0 0.4 0.2zm10.6 1.7q-0.6 0.6-1.4 0.6h-2l-1.9 8.9q-0.1 0.2-0.3 0.4-0.2 0.2-0.4 0.2h-1.3q-0.3 0-0.4-0.2-0.1-0.1-0.1-0.3 0 0 0-0.1l2-8.9h-2q-0.8 0-1.2-0.6-0.3-0.4-0.3-0.9 0-0.2 0-0.4 0.1-0.2 0.3-0.4 0.2-0.2 0.4-0.2h9q0.2 0 0.4 0.2 0.1 0.1 0.1 0.3 0 0-0.1 0.1-0.1 0.8-0.8 1.3zm10.1 7.8q0.1 0.1 0.1 0.3 0 0.1 0 0.1-0.2 0.8-0.8 1.3-0.7 0.6-1.5 0.6h-7.6q-0.3 0-0.4-0.2-0.1-0.1-0.1-0.3 0 0 0-0.1l2.3-10.8q0.1-0.2 0.3-0.4 0.2-0.2 0.4-0.2h9q0.2 0 0.4 0.2 0.1 0.1 0.1 0.3 0 0.1 0 0.1-0.2 0.8-0.9 1.3-0.6 0.6-1.4 0.6h-5.8l-0.5 2.3h3.2q0.3 0 0.4 0.2 0.1 0.1 0.1 0.2 0 0.1 0 0.2-0.2 0.7-0.8 1.3-0.7 0.5-1.5 0.5h-1.9l-0.5 2.4h7q0.3 0 0.4 0.1zm11.7-4.3l-1.3 6q0 0.2-0.2 0.4-0.3 0.2-0.5 0.2h-4.5q-1.4 0-2.4-0.7-1-0.7-1.4-1.8-0.3-0.7-0.3-1.4 0-0.5 0.1-1.1l0.5-2q0.3-1.4 1.2-2.5 0.9-1.1 2.2-1.8 1.3-0.7 2.7-0.7h4.5q0.2 0 0.4 0.2 0.1 0.1 0.1 0.3 0 0.1-0.1 0.1-0.1 0.8-0.8 1.3-0.6 0.6-1.4 0.6h-3.2q-1.1 0-2 0.7-0.9 0.8-1.2 1.8l-0.4 2q-0.1 0.3-0.1 0.6 0 0.7 0.6 1.3 0.5 0.7 1.6 0.7h2.5l0.6-2.4h-0.8q-0.8 0-1.2-0.5-0.3-0.4-0.3-0.9 0-0.2 0-0.4 0-0.2 0.3-0.4 0.2-0.2 0.4-0.2h4q0.2 0 0.3 0.2 0.1 0.1 0.1 0.3 0 0 0 0.1zm10.6 0.4q-0.9 0.9-2.2 1.3l2 3.7q0 0.1 0 0.2 0 0.1 0 0.2 0 0.3-0.3 0.4-0.6 0.4-1.2 0.4-0.9 0-1.3-0.8l-2.1-4h-2.1l-0.9 4.2q-0.1 0.3-0.3 0.4-0.2 0.2-0.4 0.2h-1.3q-0.3 0-0.4-0.2-0.1-0.1-0.1-0.3 0 0 0-0.1l2.3-10.8q0.1-0.2 0.3-0.4 0.2-0.1 0.4-0.1h5.9q1 0 1.8 0.4 0.7 0.5 1 1.3 0.2 0.5 0.2 1.1 0 0.3-0.1 0.7-0.3 1.2-1.2 2.2zm-1.2-2.4q0-0.5-0.4-0.7-0.2-0.2-0.6-0.2h-4l-0.5 2.3h4q0.4 0 0.8-0.2 0.3-0.3 0.5-0.5 0.1-0.3 0.1-0.5 0.1-0.1 0.1-0.2zm12.9 7.8q0.1 0 0.1 0.1 0 0-0.1 0.1 0 0.2-0.2 0.4-0.2 0.2-0.5 0.2h-1.3q-0.4 0-0.5-0.4l-0.6-3.2h-3.2l-1.9 3.2q0 0.2-0.2 0.3-0.2 0.1-0.4 0.1h-1.4q-0.1 0-0.2 0-0.3-0.2-0.3-0.4 0-0.1 0.1-0.2 0-0.1 0-0.2l6.4-10.7q0.3-0.4 0.6-0.4 0.8 0 1.3 0.3 0.5 0.4 0.6 1.1zm-3.5-5.2l-0.4-1.8-1 1.8zm12.4-4q-0.6 0.5-1.4 0.5h-2l-1.9 9q-0.1 0.2-0.3 0.4-0.2 0.1-0.4 0.1h-1.3q-0.3 0-0.4-0.1-0.1-0.2-0.1-0.3 0-0.1 0-0.1l2-9h-2q-0.8 0-1.2-0.5-0.3-0.4-0.3-0.9 0-0.2 0-0.4 0.1-0.3 0.3-0.4 0.2-0.2 0.4-0.2h9q0.2 0 0.4 0.2 0.1 0.1 0.1 0.2 0 0.1-0.1 0.2-0.1 0.7-0.8 1.3zm4.1-1.4q0.3 0.4 0.3 0.9 0 0.2-0.1 0.4l-2 9.6q-0.1 0.2-0.3 0.4-0.2 0.1-0.4 0.1h-1.3q-0.3 0-0.4-0.1-0.1-0.1-0.1-0.3 0-0.1 0-0.1l2.3-10.8q0.1-0.3 0.3-0.4 0.2-0.2 0.4-0.2 0.8 0 1.3 0.5zm11 4.5l-0.5 2q-0.3 1.3-1.2 2.5-0.9 1.1-2.2 1.8-1.3 0.6-2.7 0.6-1.4 0-2.4-0.6-1-0.7-1.5-1.8-0.2-0.7-0.2-1.5 0-0.5 0.1-1l0.4-2q0.3-1.4 1.3-2.5 0.9-1.2 2.2-1.8 1.3-0.7 2.7-0.7 1.4 0 2.4 0.7 1 0.6 1.4 1.8 0.3 0.6 0.3 1.4 0 0.5-0.1 1.1zm-2.5 0q0-0.3 0-0.6 0-0.7-0.5-1.3-0.5-0.7-1.6-0.7-1 0-2 0.8-0.9 0.7-1.1 1.8l-0.4 2q-0.1 0.3-0.1 0.5 0 0.7 0.5 1.4 0.5 0.6 1.6 0.6 1.1 0 2-0.7 0.9-0.8 1.1-1.8l0.5-2zm14.8-4.4l-2.3 10.8q-0.1 0.2-0.3 0.4-0.2 0.1-0.4 0.1h-1.3q-0.3 0-0.5-0.2l-3.7-7.2-1.5 6.9q0 0.2-0.2 0.4-0.3 0.1-0.5 0.1h-1.3q-0.2 0-0.4-0.1-0.1-0.2-0.1-0.3 0-0.1 0-0.1l2.4-10.8q0-0.3 0.2-0.4 0.3-0.2 0.5-0.2h0.6q1 0 1.4 0.8l3.5 6.6 1.4-6.8q0.1-0.3 0.3-0.4 0.2-0.2 0.4-0.2h1.4q0.2 0 0.3 0.2 0.1 0.1 0.1 0.2 0 0.1 0 0.2zm10.9 2.5q0 0.7-0.1 0.7 0 0.2-0.1 0.3-0.2 0.2-0.4 0.3h-0.1q-0.4 0.1-0.6 0.1-0.4 0-0.7-0.2-0.4-0.3-0.5-0.9-0.1-0.3-0.5-0.5-0.8-0.5-1.9-0.5-1.2 0-2.1 0.5-0.7 0.4-0.7 0.7 0 0.1 0 0.1 0 0.4 0.5 0.6 0.8 0.3 2 0.5 0 0 0 0 0.9 0.1 1.7 0.3 0.8 0.2 1.5 0.5 1 0.6 1 1.9 0 0.4-0.1 0.8-0.2 0.9-0.8 1.6-0.6 0.7-1.5 1.1-1.6 0.9-2.5 0.9-1 0-1.1 0-1.7 0-2.9-0.7-1.4-0.9-1.4-2.3v-0.1q0.1-0.7 0.1-0.7 0.1-0.6 1.2-0.6 0.4 0 0.7 0.2 0.4 0.2 0.5 0.8 0.1 0.3 0.5 0.6 0.8 0.4 1.9 0.4 1.2 0 2.1-0.5 0.7-0.3 0.7-0.7 0.1 0 0.1-0.1 0-0.4-0.6-0.6-0.8-0.3-2-0.4-0.8-0.2-1.6-0.3-1.9-0.4-2.4-1.6-0.2-0.4-0.2-0.9 0-0.4 0.1-0.8 0.2-0.9 0.8-1.6 0.6-0.7 1.5-1.1 1.6-0.9 2.6-0.9 0.9 0 1 0 1.7 0 2.9 0.8 0.6 0.3 1 0.9 0.4 0.6 0.4 1.3z"/>
		</g>
	</g>
</svg>