<svg width="256" height="52" viewBox="0 0 256 52" fill="none" xmlns="http://www.w3.org/2000/svg">
<g clip-path="url(#clip0_363_11836)">
<path d="M183.963 21.1068C183.075 23.3672 182.19 25.6274 181.304 27.8878C180.549 29.8236 179.793 31.7592 179.037 33.695H177.41C175.782 29.5258 174.156 25.3654 172.532 21.2141C172.49 21.156 172.464 21.0867 172.394 21.0465C172.27 21.0465 172.268 21.1269 172.304 21.2229C172.4 25.3661 172.33 29.5093 172.354 33.686H170.495V17.6762H173.221L178.15 30.5724L178.288 30.5858L183.211 17.6717H185.978V33.6726H184.068V23.231C184.14 22.5214 184.147 21.8063 184.085 21.0957C184.085 21.022 184.085 21.1269 184.049 21.0666C184.033 21.0421 183.985 21.0689 183.963 21.1068ZM64.7726 19.7467L63.3259 21.0398C62.8869 20.774 62.4939 20.2826 61.9494 19.9655C58.4545 17.9308 53.7302 20.0682 52.9113 24.0797C52.3142 27.0167 53.3372 29.697 55.638 31.1912C57.7915 32.5871 61.0801 32.6385 63.2008 30.5457C64.1689 29.592 64.5838 28.3992 64.7529 26.972H59.0078C58.876 26.369 58.9419 25.7905 58.9572 25.1674H66.6035C66.867 27.6667 66.4389 29.9337 64.6408 31.792C62.6409 33.858 60.1603 34.3784 57.4688 33.9094C55.8586 33.6411 54.3683 32.8759 53.1998 31.7173C52.0312 30.5588 51.2408 29.0629 50.9356 27.4322C50.2528 23.796 51.682 20.3631 54.6675 18.4668C57.6532 16.5705 62.2239 16.9927 64.5311 19.434C64.608 19.5323 64.665 19.6193 64.7726 19.7467ZM202.256 33.6905H200.446V22.2817H202.184C202.381 22.7395 202.194 23.2153 202.315 23.7134C202.673 23.4029 202.945 23.0433 203.308 22.7664C204.963 21.5289 207.478 21.596 208.89 22.9495C209.802 23.8295 210.087 24.9731 210.096 26.197C210.117 28.6159 210.109 31.0349 210.109 33.4537C210.1 33.5342 210.083 33.6134 210.058 33.6905H208.269C208.114 33.4671 208.175 33.2438 208.173 33.0204C208.155 30.7869 208.173 28.5534 208.118 26.3198C208.082 24.9216 207.459 24.102 206.362 23.8071C205.769 23.6241 205.133 23.6374 204.549 23.8449C203.964 24.0524 203.458 24.4436 203.106 24.9619C202.568 25.767 202.295 26.725 202.326 27.6979C202.311 29.4847 202.326 31.2715 202.326 33.0583C202.355 33.2718 202.331 33.4891 202.256 33.6905ZM135.712 33.6972H133.762V19.5501H129.371V17.6918H140.019V19.5233H135.712V33.6972ZM256 22.1991V24.169C255.655 24.2807 255.407 24.0618 255.134 23.997C253.159 23.5257 251.813 25.1741 251.552 26.6013C251.383 27.5238 251.458 28.4551 251.449 29.3843V33.6726H249.55V22.2928H251.306C251.46 22.7798 251.306 23.2689 251.409 23.7692C253.046 22.0092 254.573 21.491 256 22.1991ZM110.053 33.6994H108.238V17.6784H110.053V33.6994ZM162.299 22.8289C162.299 22.6502 162.354 22.4537 162.208 22.3018C161.618 22.2101 161.016 22.2237 160.431 22.342V23.7782C160.337 23.6995 160.247 23.616 160.161 23.528C158.499 21.4039 155.027 21.3503 153.062 23.3046C151.161 25.1875 150.693 28.5869 152.003 31.1219C153.854 34.6956 158.389 34.6956 160.203 32.2812C160.211 32.2603 160.224 32.2421 160.242 32.2279C160.259 32.2136 160.279 32.204 160.301 32.1998C160.323 32.1956 160.345 32.197 160.367 32.2037C160.387 32.2105 160.407 32.2225 160.422 32.2387C160.45 32.7264 160.44 33.2156 160.392 33.7017C160.192 36.8955 157.383 37.5477 155.476 36.8286C154.57 36.4913 153.987 35.7944 153.562 34.8765L151.818 35.618C151.931 36.1242 152.166 36.5935 152.504 36.9827C153.602 38.3495 155.065 38.8879 156.762 38.8856C158.459 38.8834 160.009 38.4389 161.153 37.0229C162.055 35.9061 162.282 34.566 162.295 33.2081C162.325 29.7483 162.304 26.2886 162.299 22.8289ZM160.09 29.7729C159.855 30.4423 159.427 31.0243 158.863 31.4436C158.298 31.8629 157.623 32.1002 156.926 32.1248C156.217 32.1595 155.515 31.9675 154.92 31.5757C154.323 31.1839 153.863 30.612 153.604 29.9404C153.307 29.2675 153.162 28.5358 153.178 27.7986C153.196 27.0612 153.374 26.3371 153.7 25.6788C154.308 24.3991 155.676 23.5793 156.994 23.6933C158.53 23.8251 159.56 24.6693 160.115 26.1144C160.333 26.7274 160.435 27.3769 160.416 28.0285C160.404 28.6244 160.293 29.2139 160.09 29.7729ZM105.498 22.7752C105.498 22.6145 105.542 22.4403 105.408 22.2861H103.612V23.8117C101.658 21.1605 97.6539 21.3547 95.8099 23.8339C94.2907 25.8866 94.1152 28.1647 94.9626 30.4965C95.8824 33.0204 98.126 34.2578 100.734 33.8469C101.902 33.6637 102.817 33.0405 103.588 32.0935C103.847 34.5393 103.166 36.1496 101.612 36.7838C100.846 37.0983 100.003 37.1669 99.1973 36.9804C98.0426 36.7303 97.2742 35.9731 96.7825 34.8652L95.0569 35.609C95.1096 35.9488 95.2405 36.271 95.4389 36.5493C96.5014 38.1821 98.0447 38.8588 99.9217 38.8745C101.663 38.8879 103.215 38.4411 104.374 37.0229C105.252 35.9485 105.496 34.6554 105.504 33.3197C105.498 29.8108 105.498 26.302 105.498 22.7752ZM103.199 29.9896C102.541 31.4637 101.188 32.2678 99.7374 32.1136C98.9944 32.048 98.2909 31.7453 97.7272 31.2487C97.1634 30.7522 96.7682 30.0871 96.5981 29.3485C96.4867 28.911 96.4343 28.4603 96.4422 28.0084C96.4203 26.5365 96.8088 25.3282 97.8933 24.4526C98.292 24.1245 98.7583 23.8921 99.2576 23.7729C99.7568 23.6535 100.276 23.6505 100.777 23.7639C101.277 23.8772 101.746 24.1041 102.149 24.4276C102.551 24.751 102.876 25.1627 103.101 25.632C103.447 26.3012 103.636 27.0436 103.651 27.8002C103.666 28.5566 103.508 29.3064 103.188 29.9896H103.199ZM234.497 22.2973H232.709V23.7536C232.6 23.6799 232.562 23.6686 232.545 23.6419C230.831 21.2766 226.874 21.2743 224.928 23.7692C223.39 25.7391 223.127 28.8728 224.279 31.0929C226.152 34.7022 230.786 34.7112 232.596 32.1605L232.681 32.1806C232.9 35.1355 231.922 36.3372 230.554 36.842C228.662 37.5433 227.303 36.9827 225.79 34.8988L224.13 35.6068C224.158 35.9456 224.282 36.2689 224.486 36.5382C225.478 38.0659 226.901 38.794 228.683 38.8678C230.523 38.9415 232.172 38.5461 233.417 37.0497C234.331 35.9485 234.556 34.6152 234.565 33.2415C234.586 29.7796 234.565 26.3177 234.565 22.8557C234.599 22.6669 234.576 22.4717 234.497 22.2973ZM232.698 27.9235C232.664 29.5897 232.137 31.0013 230.584 31.7853C228.389 32.902 225.814 31.3229 225.551 28.7142C225.454 27.747 225.478 26.7844 225.893 25.8709C226.552 24.4526 227.973 23.5436 229.347 23.6954C230.127 23.7613 230.865 24.086 231.447 24.6198C232.03 25.1536 232.424 25.8669 232.569 26.6505C232.671 27.0663 232.716 27.495 232.698 27.9235ZM247.343 28.3725C247.377 28.2006 247.398 28.0268 247.409 27.852C247.412 27.5537 247.399 27.2555 247.37 26.9586C247.15 24.8569 246.273 23.1617 244.266 22.3309C242.259 21.4999 240.332 21.6741 238.644 23.1103C236.955 24.5465 236.468 26.4606 236.602 28.6226C236.85 32.6429 240.437 35.0999 244.406 33.6614C245.665 33.2147 246.567 32.2722 247.181 31.0058L245.578 30.2241C243.9 32.2342 242.415 32.7301 240.668 31.9036C239.383 31.2984 238.38 29.6143 238.599 28.3702L247.343 28.3725ZM242.112 23.682C243.818 23.7067 245.282 25.0758 245.276 26.6772H238.733C238.799 25.087 240.415 23.6598 242.112 23.6843V23.682ZM118.488 28.3658H122.879C122.989 27.8768 123.001 27.3698 122.913 26.876C122.402 21.8774 117.597 21.0018 114.937 22.5809C112.681 23.9211 111.757 26.5141 112.242 29.3127C112.808 32.5826 115.37 34.4297 118.609 34.0166C120.481 33.7798 121.826 32.7524 122.751 31.0148L121.131 30.2129C119.539 32.2431 117.882 32.7636 116.108 31.8478C114.865 31.2046 113.888 29.4692 114.184 28.3658H118.488ZM117.61 23.6753C119.335 23.662 120.882 25.0914 120.812 26.675H114.314C114.252 25.2143 115.926 23.6977 117.603 23.682L117.61 23.6753ZM149.435 26.2729C149.422 24.8145 148.915 23.5726 147.678 22.7485C146.262 21.8082 144.695 21.7099 143.095 22.065C142.494 22.1796 141.923 22.4168 141.415 22.7624C140.908 23.1078 140.473 23.5545 140.14 24.0752C140.549 24.5366 141.039 24.9154 141.587 25.1919C143.191 23.6419 144.805 23.2711 146.249 24.1198C146.737 24.3875 147.127 24.81 147.358 25.3231C147.589 25.8362 147.649 26.4121 147.529 26.9632C147.443 26.948 147.358 26.9272 147.274 26.9006C145.833 26.3367 144.259 26.2224 142.755 26.5723C139.965 27.1642 138.728 30.3446 140.439 32.5558C141.911 34.4677 145.303 34.566 147.061 32.7792C147.218 32.6184 147.321 32.3906 147.569 32.2967C147.69 32.7859 147.529 33.2549 147.678 33.695H149.435C149.439 31.1755 149.455 28.7231 149.435 26.2729ZM143.773 32.3034C142.202 32.1314 141.277 30.8137 141.837 29.4625C141.979 29.1274 142.201 28.833 142.481 28.6053C142.762 28.3775 143.093 28.2232 143.446 28.1558C144.737 27.8346 146.098 27.9931 147.284 28.6025C147.392 28.6679 147.495 28.7425 147.591 28.8259C147.529 30.8517 145.634 32.5023 143.773 32.2967V32.3034ZM197.839 25.938C197.84 25.3595 197.709 24.7889 197.457 24.2707C197.204 23.7525 196.837 23.3011 196.384 22.9517C194.458 21.4441 191.174 21.549 189.348 23.1751C189.04 23.4475 188.706 23.7223 188.586 24.1868C189.05 24.5375 189.499 24.8815 189.975 25.2456C191.606 23.6307 193.269 23.2555 194.735 24.1288C195.721 24.7273 196.246 25.9156 195.942 26.9363C195.842 26.9095 195.736 26.8872 195.638 26.8515C194.206 26.3115 192.651 26.2121 191.166 26.5656C188.397 27.1977 187.2 30.2396 188.832 32.491C190.054 34.1774 192.988 34.5928 194.803 33.351C195.224 33.022 195.62 32.6606 195.987 32.2699C196.127 32.7792 195.962 33.2527 196.105 33.6704H197.861C197.854 31.0661 197.888 28.502 197.839 25.938ZM191.554 32.1494C190.796 31.8813 190.237 31.3765 190.125 30.5412C190.065 30.1703 190.11 29.7898 190.255 29.444C190.4 29.0983 190.639 28.8018 190.943 28.5891C192.106 27.6957 194.896 27.8386 195.993 28.8571C195.912 31.1532 193.603 32.8686 191.554 32.1494ZM221.731 26.6526C221.741 26.3179 221.729 25.9828 221.694 25.6498C221.542 24.5621 221.103 23.6173 220.229 22.9383C218.414 21.5245 215.342 21.5289 213.49 22.9383C213.031 23.2434 212.662 23.6706 212.425 24.1734L213.806 25.2299C215.823 23.5503 217.217 23.2578 218.657 24.1891C219.114 24.4688 219.472 24.8895 219.678 25.3899C219.884 25.8903 219.927 26.4445 219.803 26.972C218.299 26.3308 216.632 26.1917 215.044 26.5745C213.645 26.9318 212.488 27.6667 212.109 29.1877C211.729 30.7088 212.037 32.0421 213.239 33.0785C214.634 34.2824 217.048 34.4075 218.591 33.3957C219.059 33.0722 219.476 32.6809 219.832 32.2342C220.01 32.7636 219.832 33.2415 219.966 33.6726H221.738C221.733 31.3006 221.733 28.9822 221.731 26.6526ZM215.483 32.1649C214.589 31.8813 214.049 31.2403 213.981 30.3781C213.945 29.9472 214.047 29.5161 214.272 29.1488C214.496 28.7814 214.831 28.4974 215.227 28.339C216.822 27.7002 218.361 27.9347 219.852 28.7433C219.85 31.0817 217.555 32.8261 215.483 32.1649ZM79.8829 27.6577C79.873 26.761 79.6608 25.8784 79.2628 25.0781C78.8648 24.2778 78.2916 23.5812 77.5873 23.0417C76.883 22.5023 76.0664 22.1346 75.2005 21.9667C74.3345 21.799 73.4422 21.8357 72.5923 22.074C69.9952 22.7597 68.3202 25.0714 68.3158 27.928L68.351 28.5266C68.6275 33.0629 73.0973 35.3009 76.7765 33.4202C79.0597 32.2565 79.9422 30.1816 79.8829 27.6577ZM77.1784 30.6172C76.7336 31.2739 76.0967 31.7715 75.3583 32.0394C74.6198 32.3072 73.8172 32.3316 73.0643 32.1091C72.2742 31.8604 71.5792 31.3686 71.0752 30.7014C70.5712 30.0342 70.2829 29.2245 70.2499 28.3836V27.9928C70.2697 26.4516 70.7724 25.1495 72.0962 24.2941C72.5072 24.0231 72.9671 23.8379 73.4491 23.7493C73.9311 23.6609 74.4256 23.6707 74.9037 23.7783C75.3819 23.886 75.8344 24.0893 76.2346 24.3765C76.6349 24.6636 76.9751 25.0289 77.2354 25.451C77.7095 26.2285 77.956 27.1276 77.9458 28.0426C77.9358 28.9575 77.6695 29.8507 77.1784 30.6172ZM87.2394 21.8818C83.9091 21.8483 81.446 24.4035 81.4109 27.9235C81.3758 31.4436 83.7906 34.0479 87.1187 34.0657C90.4467 34.0835 92.9363 31.5574 92.9627 28.0888C92.9846 24.5263 90.5851 21.9153 87.2394 21.8818ZM86.9957 32.2454C86.408 32.2313 85.8326 32.0703 85.3204 31.7766C84.8081 31.4829 84.3748 31.0655 84.0584 30.5613C83.5497 29.7532 83.2924 28.8079 83.3203 27.8488C83.3481 26.8896 83.6597 25.9613 84.2143 25.1852C84.6747 24.5917 85.296 24.1484 86.0015 23.9102C86.707 23.672 87.4655 23.6494 88.1835 23.8451C88.9213 24.0749 89.5775 24.5183 90.0718 25.1212C90.5661 25.724 90.8772 26.4603 90.967 27.2401C90.9956 27.5171 91.0066 27.7962 91.0198 27.9682C90.9605 30.5747 89.2767 32.3325 86.9957 32.2454Z" fill="#757575"/>
<path d="M26.1501 45.0137L18.9727 37.9747L34.3871 22.1436L41.8182 29.4684L26.1501 45.0137Z" fill="#8AB4F8"/>
<path d="M26.182 13.8927L19.0304 6.54883L3.39285 22.1272C2.42588 23.1018 1.88281 24.4224 1.88281 25.7992C1.88281 27.1759 2.42588 28.4965 3.39285 29.471L18.7955 45.0636L26.0786 38.2113L14.3433 25.7992L26.182 13.8927Z" fill="#4285F4"/>
<path d="M41.7147 22.2481L26.2087 6.65317C25.2351 5.6995 23.9272 5.16983 22.5683 5.17882C21.2092 5.18782 19.9085 5.73478 18.9475 6.70126C17.9865 7.66775 17.4427 8.97601 17.4337 10.3428C17.4247 11.7096 17.9514 13.0249 18.8997 14.0041L34.4056 29.599C34.8833 30.0921 35.4535 30.485 36.0833 30.7547C36.7131 31.0244 37.3898 31.1656 38.0743 31.1701C38.7587 31.1747 39.4373 31.0424 40.0706 30.7811C40.7038 30.5197 41.2791 30.1344 41.7631 29.6477C42.2471 29.1609 42.6302 28.5824 42.89 27.9455C43.1499 27.3086 43.2814 26.6262 43.2769 25.9378C43.2724 25.2493 43.132 24.5687 42.8638 23.9354C42.5956 23.302 42.205 22.7285 41.7147 22.2481Z" fill="#8AB4F8"/>
<path d="M22.4379 46.7169C25.2277 46.7169 27.4891 44.4424 27.4891 41.6368C27.4891 38.831 25.2277 36.5566 22.4379 36.5566C19.6483 36.5566 17.3867 38.831 17.3867 41.6368C17.3867 44.4424 19.6483 46.7169 22.4379 46.7169Z" fill="#246FDB"/>
</g>
<defs>
<clipPath id="clip0_363_11836">
<rect width="256" height="51.8481" fill="white"/>
</clipPath>
</defs>
</svg>
