<svg version="1.2" xmlns="http://www.w3.org/2000/svg" viewBox="0 0 256 57" width="256" height="57">
	<title>Overload-svg</title>
	<style>
		.s0 { fill: #ec2a2a } 
	</style>
	<path id="Layer" class="s0" d="m41.9 30.6c-2 1.2-6.7 3.5-9.9 5.8q0 0.2 0 0.4c0 1.2-0.9 2.2-2 2.3q-0.2 0-0.4 0c-1.1 0-2.1-0.9-2.2-2 0-0.7 0-0.8 0.3-1.4 0 0-0.7-0.6-0.4-1.8-0.6-1.1-1.4-2.4-1.4-2.4-1.8-0.2-1.8-0.2-4.5-5.4l0.8-0.5 2.5 4.6 0.4-0.4c-0.4-0.8-2.1-3.7-2.5-4.5l0.9-0.7 2.5 4.5 0.4-0.3c-0.4-0.8-2.5-4.5-2.5-4.5l0.7-0.5c3.6 5.3 3.2 6 2.5 7 0.6 1.1 1.3 2.4 1.3 2.4 1.4 0.6 1.5 1.4 1.5 1.4 0.3 0 0.7 0 1.2 0.3 0.3-0.2 1.6-0.8 1.6-0.8 0.2 0-0.7-2.1 2.3-3 4.1-1.2 6.9-0.5 6.9-0.5z"/>
	<path id="Layer" fill-rule="evenodd" class="s0" d="m47.5 35.7c0 9.8-7.9 17.7-17.6 17.7-9.7 0-17.6-7.9-17.6-17.7q0-2.7 0.8-5.2-0.3-0.1-0.8-0.6c-1.1-1.4-2.2-2.7-3.2-4.1-1-1.1-1.8-2.4-2.6-3.6-2.2 0.8-3.8 0.4-4.9-1.2-0.9-1.2-0.8-3.1 0.1-4.3 1.1-1.3 2.8-1.7 4.3-1.1 1.8 0.8 2.4 2.2 2 4.9 2.4 0.7 4.8 1.5 6.9-0.6 1.8-1.8 1.2-4 0.8-6.2q-3.5 0.1-4.3-2.7c-0.4-1.5 0.3-3.2 1.7-4 1.4-0.9 3.2-0.7 4.4 0.5 1.3 1.3 1.4 2.9 0.2 5.1 1.7 1.5 3.4 2.1 5.9 1.2 2.7-0.8 3.2-2.3 3.7-4.6q-3.3-1.2-3.2-3.9c0.1-1.7 1.3-3.1 2.9-3.4 1.6-0.3 3.3 0.5 4 1.9 0.8 1.7 0.4 3.2-1.4 5q0 0.1 0.1 0.3c1.1 2.7 2.3 5.5 3.4 8.3q0.2 0.5 0.2 0.8c8.1 1.7 14.2 8.8 14.2 17.5zm-3.7 1h-2.9v-2.2h2.9c-0.6-6.9-6.2-12.5-13.1-12.8v2.8h-2.1v-2.8c-4.4 0.4-8.3 2.9-10.5 6.5-1.1 1.9-1.9 4-2 6.3h2.7v2.2h-2.8c0.5 6.8 5.8 12.3 12.6 12.9v-2.9h2.1v3q-0.4 0-0.8 0h0.8c7-0.4 12.6-6 13.1-13z"/>
	<path id="Layer" fill-rule="evenodd" class="s0" d="m72.4 44.9q-3.3 3.3-8.2 3.3-4.9 0-8.2-3.3-3.3-3.3-3.3-8.1 0-4.9 3.3-8.2 3.3-3.3 8.2-3.3 4.9 0 8.2 3.3 3.3 3.3 3.3 8.2 0 4.8-3.3 8.1zm-1.7-8.1q0-3-1.9-5.1-1.8-2.1-4.6-2.1-2.7 0-4.6 2.1-1.9 2.1-1.9 5.1 0 2.9 1.9 5 1.9 2.1 4.6 2.1 2.8 0 4.6-2.1 1.9-2.1 1.9-5z"/>
	<path id="Layer" fill-rule="evenodd" class="s0" d="m97.7 33.2q0 5.3-4.2 6.8l5.6 8h-6.1l-4.8-7.1h-3.4v7.1h-4.9v-22.2h8.3q5.1 0 7.3 1.8 2.2 1.7 2.2 5.6zm-5.9 2.6q0.9-0.8 0.9-2.6 0-1.8-1-2.5-0.9-0.6-3.3-0.6h-3.6v6.5h3.5q2.6 0 3.5-0.8z"/>
	<path id="Layer" fill-rule="evenodd" class="s0" d="m119.5 28.7q3.1 2.9 3.1 8.1 0 5.1-3.1 8.2-3 3-9.3 3h-7.5v-22.2h7.8q5.8 0 9 2.9zm-3.6 13.2q1.8-1.7 1.8-5 0-3.2-1.8-5-1.8-1.8-5.6-1.8h-2.7v13.5h3.1q3.4 0 5.2-1.7z"/>
	<path id="Layer" class="s0" d="m142.7 25.8v4.4h-11v4.6h9.9v4.2h-9.9v4.6h11.3v4.4h-16.2v-22.2z"/>
	<path id="Layer" fill-rule="evenodd" class="s0" d="m165.2 33.2q0 5.3-4.2 6.8l5.6 8h-6.1l-4.8-7.1h-3.4v7.1h-4.9v-22.2h8.3q5.1 0 7.3 1.8 2.2 1.7 2.2 5.6zm-5.9 2.6q0.9-0.8 0.9-2.6 0-1.8-0.9-2.5-1-0.6-3.3-0.6h-3.7v6.5h3.6q2.5 0 3.4-0.8z"/>
	<path id="Layer" class="s0" d="m170.5 48v-21.7h3.6v18.2h9.9v3.5z"/>
	<path id="Layer" fill-rule="evenodd" class="s0" d="m205.3 45q-3.2 3.2-8 3.2-4.8 0-8.1-3.2-3.3-3.2-3.3-8 0-4.8 3.3-8.1 3.3-3.2 8.1-3.2 4.8 0 8 3.2 3.3 3.3 3.3 8.1 0 4.8-3.3 8zm-2.6-13.6q-2.2-2.3-5.4-2.3-3.2 0-5.4 2.3-2.2 2.3-2.2 5.6 0 3.2 2.2 5.5 2.2 2.3 5.4 2.3 3.2 0 5.4-2.3 2.2-2.3 2.2-5.5 0-3.3-2.2-5.6z"/>
	<path id="Layer" fill-rule="evenodd" class="s0" d="m230.4 33.3q0 5.4-4.7 6.8l5.7 7.9h-4.6l-5.2-7.3h-4.8v7.3h-3.6v-21.7h8q4.9 0 7.1 1.6 2.1 1.7 2.1 5.4zm-4.9 3.1q1.2-1 1.2-3.1 0-2.1-1.2-2.9-1.1-0.8-4-0.8h-4.7v7.7h4.6q3 0 4.1-0.9z"/>
	<path id="Layer" fill-rule="evenodd" class="s0" d="m251.9 29.1q3.1 2.8 3.1 7.9 0 5.1-3 8-3 3-9.2 3h-7.2v-21.7h7.4q5.8 0 8.9 2.8zm-0.5 8q0-7.5-8.5-7.5h-3.6v14.9h4q3.9 0 6-1.9 2.1-1.8 2.1-5.5z"/>
</svg>