<svg version="1.2" xmlns="http://www.w3.org/2000/svg" viewBox="0 0 256 92" width="256" height="92">
	<title>Otter-svg</title>
	<style>
		.s0 { fill: #303030 } 
	</style>
	<path id="Layer" class="s0" d="m97.4 5.1h-17.1v16.3h-10v16.8h10v47.6h17.1v-47.6h10.2v-16.8h-10.2z"/>
	<path id="Layer" class="s0" d="m139.8 5.1h-17.1v16.3h-10.1v16.8h10.1v47.6h17.1v-47.6h10.1v-16.8h-10.1z"/>
	<path id="Layer" fill-rule="evenodd" class="s0" d="m67.7 53.5c0 18.3-15 33.5-33.9 33.5-18.8 0-33.8-15.2-33.8-33.5 0-18.4 15-33.3 33.8-33.3 18.9 0 34 14.9 33.9 33.3zm-16.2 0c0-9.2-7.8-17.3-17.7-17.3-9.6 0-17.6 8.1-17.6 17.3 0 9.4 8 17.6 17.6 17.6 9.9 0 17.8-8.2 17.7-17.6z"/>
	<path id="Layer" fill-rule="evenodd" class="s0" d="m217.6 53.2c0 1.8-0.1 3.7-0.4 5.3h-48.6c1.8 7.8 8.1 13.3 17.7 13.3 5.7 0 11.9-2.1 15.6-7l11.2 9.1c-5.7 8.2-15.9 13.1-26.8 13.1-19.1 0-33.9-14.6-33.9-33.4 0-18 12.8-33.4 33-33.4 18.8 0 32.1 15.2 32.2 33zm-16.7-6.3c-1-6.6-7.7-11.6-15.6-11.6-7.6 0-13.8 4.6-16.2 11.6z"/>
	<path id="Layer" class="s0" d="m253.7 21.2c-17.1 0-31 14-31 31.3v33.2h17.2v-33.1c0-7.7 6.2-14 13.8-14h2.3v-17.3h-2.3z"/>
</svg>