<svg width="256" height="93" viewBox="0 0 256 93" fill="none" xmlns="http://www.w3.org/2000/svg">
<g clip-path="url(#clip0_363_11864)">
<mask id="mask0_363_11864" style="mask-type:luminance" maskUnits="userSpaceOnUse" x="0" y="0" width="256" height="93">
<path d="M256 0H0V92.391H256V0Z" fill="white"/>
</mask>
<g mask="url(#mask0_363_11864)">
<path d="M43.8823 77.7937H39.7285V75.835H50.3658V77.7937H46.2121V88.8621H43.8823V77.7937Z" fill="black"/>
<path d="M56.8964 79.6045C57.9562 79.6045 58.745 79.9127 59.2624 80.5284C59.7802 81.1444 60.0389 82.0746 60.0389 83.3186V88.8621H57.7815V83.448C57.7815 82.7458 57.6492 82.2346 57.3842 81.9143C57.1313 81.5942 56.7282 81.4339 56.174 81.4339C55.524 81.4339 55.0003 81.6433 54.6028 82.0621C54.2179 82.4811 54.025 83.0415 54.025 83.7436V88.8621H51.7676V75.835H54.025V81.0828C54.3262 80.6023 54.7235 80.2389 55.217 79.9926C55.7227 79.7339 56.2824 79.6045 56.8964 79.6045Z" fill="black"/>
<path d="M70.0771 84.7609H64.0632C64.1354 85.5984 64.382 86.2207 64.8037 86.6272C65.2249 87.0337 65.8267 87.237 66.6096 87.237C67.5849 87.237 68.4757 86.9169 69.2825 86.2761L69.9327 87.8652C69.5231 88.2103 69.0054 88.4875 68.3794 88.6967C67.7654 88.906 67.145 89.0109 66.5193 89.0109C65.0745 89.0109 63.9304 88.5918 63.0879 87.7544C62.2572 86.9169 61.8418 85.7712 61.8418 84.3174C61.8418 83.3935 62.0223 82.5745 62.3836 81.8598C62.7447 81.1451 63.2506 80.5908 63.9006 80.1968C64.5625 79.8028 65.3093 79.6055 66.1401 79.6055C67.356 79.6055 68.3132 80.006 69.0115 80.8066C69.7218 81.6071 70.0771 82.7098 70.0771 84.1141V84.7609ZM66.1942 81.2316C65.5919 81.2316 65.1044 81.4288 64.7313 81.8229C64.3702 82.2169 64.1471 82.7837 64.0632 83.5229H68.1448C68.1203 82.7712 67.9398 82.2049 67.603 81.8229C67.2657 81.4288 66.7961 81.2316 66.1942 81.2316Z" fill="black"/>
<path d="M77.0234 75.835H85.3671V77.7382H79.317V81.286H85.006V83.1893H79.317V88.8621H77.0234V75.835Z" fill="black"/>
<path d="M94.9893 79.8271V88.863H92.786V87.4771C92.5088 87.9699 92.1358 88.3516 91.6663 88.6228C91.1967 88.8815 90.6666 89.0108 90.077 89.0108C87.9098 89.0108 86.8262 87.7666 86.8262 85.2782V79.8271H89.0836V85.2967C89.0836 85.9373 89.2101 86.4114 89.463 86.7195C89.7157 87.0275 90.1132 87.1815 90.6548 87.1815C91.2806 87.1815 91.7804 86.9721 92.1539 86.5532C92.539 86.1221 92.7317 85.5554 92.7317 84.8532V79.8271H94.9893Z" fill="black"/>
<path d="M101.855 87.2725C102.119 87.2725 102.396 87.254 102.685 87.217L102.577 88.9355C102.216 88.9725 101.884 88.9909 101.584 88.9909C100.343 88.9909 99.4281 88.7012 98.8384 88.1225C98.2484 87.5311 97.9535 86.6567 97.9535 85.4986V81.5627H96.2559V79.8257H97.9535V77.1279H100.211V79.8257H102.541V81.5627H100.211V85.4616C100.211 86.6686 100.759 87.2725 101.855 87.2725Z" fill="black"/>
<path d="M112.114 79.8271V88.863H109.911V87.4771C109.634 87.9699 109.261 88.3516 108.791 88.6228C108.322 88.8815 107.792 89.0108 107.202 89.0108C105.035 89.0108 103.951 87.7666 103.951 85.2782V79.8271H106.209V85.2967C106.209 85.9373 106.335 86.4114 106.588 86.7195C106.841 87.0275 107.238 87.1815 107.78 87.1815C108.406 87.1815 108.906 86.9721 109.279 86.5532C109.664 86.1221 109.857 85.5554 109.857 84.8532V79.8271H112.114Z" fill="black"/>
<path d="M120.278 81.5232L118.96 81.6526C117.467 81.8129 116.72 82.589 116.72 83.9808V88.8591H114.463V79.8232H116.612V81.4124C117.07 80.3281 118.015 79.7368 119.447 79.6384L120.134 79.583L120.278 81.5232Z" fill="black"/>
<path d="M128.95 84.7609H122.936C123.008 85.5984 123.255 86.2207 123.677 86.6272C124.098 87.0337 124.7 87.237 125.483 87.237C126.458 87.237 127.349 86.9169 128.155 86.2761L128.806 87.8652C128.397 88.2103 127.879 88.4875 127.252 88.6967C126.638 88.906 126.018 89.0109 125.392 89.0109C123.948 89.0109 122.804 88.5918 121.961 87.7544C121.13 86.9169 120.715 85.7712 120.715 84.3174C120.715 83.3935 120.895 82.5745 121.257 81.8598C121.618 81.1451 122.123 80.5908 122.774 80.1968C123.436 79.8028 124.182 79.6055 125.013 79.6055C126.229 79.6055 127.187 80.006 127.885 80.8066C128.595 81.6071 128.95 82.7098 128.95 84.1141V84.7609ZM125.067 81.2316C124.465 81.2316 123.978 81.4288 123.604 81.8229C123.243 82.2169 123.021 82.7837 122.936 83.5229H127.018C126.994 82.7712 126.813 82.2049 126.476 81.8229C126.139 81.4288 125.669 81.2316 125.067 81.2316Z" fill="black"/>
<path d="M139.726 89.0109C138.823 89.0109 138.028 88.8201 137.342 88.4381C136.667 88.056 136.144 87.5082 135.771 86.7935C135.397 86.0788 135.211 85.2473 135.211 84.2989C135.211 83.3506 135.397 82.525 135.771 81.8229C136.144 81.1082 136.667 80.5604 137.342 80.1783C138.028 79.7962 138.823 79.6055 139.726 79.6055C140.629 79.6055 141.417 79.7962 142.092 80.1783C142.778 80.5604 143.302 81.1082 143.663 81.8229C144.036 82.525 144.223 83.3506 144.223 84.2989C144.223 85.2473 144.036 86.0788 143.663 86.7935C143.302 87.5082 142.778 88.056 142.092 88.4381C141.417 88.8201 140.629 89.0109 139.726 89.0109ZM139.708 87.2185C140.442 87.2185 141.002 86.9723 141.387 86.4794C141.773 85.9864 141.965 85.2598 141.965 84.2989C141.965 83.3506 141.773 82.6299 141.387 82.137C141.002 81.6321 140.448 81.3794 139.726 81.3794C139.004 81.3794 138.444 81.6321 138.046 82.137C137.661 82.6299 137.468 83.3506 137.468 84.2989C137.468 85.2598 137.661 85.9864 138.046 86.4794C138.432 86.9723 138.985 87.2185 139.708 87.2185Z" fill="black"/>
<path d="M148.906 79.8279H151.236V81.5648H148.906V88.8637H146.649V81.5648H144.951V79.8279H146.649C146.649 78.5344 146.974 77.561 147.624 76.9083C148.286 76.2556 149.31 75.892 150.694 75.8181L151.579 75.7627L151.724 77.4812L150.875 77.5181C150.165 77.5551 149.659 77.7214 149.358 78.017C149.057 78.3002 148.906 78.7621 148.906 79.4029V79.8279Z" fill="black"/>
<path d="M157.605 75.835H159.935V86.9034H165.877V88.8621H157.605V75.835Z" fill="black"/>
<path d="M171.398 89.0109C170.495 89.0109 169.7 88.8201 169.014 88.4381C168.34 88.056 167.816 87.5082 167.443 86.7935C167.069 86.0788 166.883 85.2473 166.883 84.2989C166.883 83.3506 167.069 82.525 167.443 81.8229C167.816 81.1082 168.34 80.5604 169.014 80.1783C169.7 79.7962 170.495 79.6055 171.398 79.6055C172.301 79.6055 173.09 79.7962 173.764 80.1783C174.45 80.5604 174.974 81.1082 175.335 81.8229C175.708 82.525 175.895 83.3506 175.895 84.2989C175.895 85.2473 175.708 86.0788 175.335 86.7935C174.974 87.5082 174.45 88.056 173.764 88.4381C173.09 88.8201 172.301 89.0109 171.398 89.0109ZM171.38 87.2185C172.114 87.2185 172.674 86.9723 173.059 86.4794C173.444 85.9864 173.637 85.2598 173.637 84.2989C173.637 83.3506 173.444 82.6299 173.059 82.137C172.674 81.6321 172.12 81.3794 171.398 81.3794C170.675 81.3794 170.116 81.6321 169.718 82.137C169.333 82.6299 169.14 83.3506 169.14 84.2989C169.14 85.2598 169.333 85.9864 169.718 86.4794C170.103 86.9723 170.657 87.2185 171.38 87.2185Z" fill="black"/>
<path d="M186.035 79.8457L180.726 92.1891H178.45L180.057 88.512L176.373 79.8457H178.757L181.249 86.2207L183.814 79.8457H186.035Z" fill="black"/>
<path d="M190.798 79.6055C192.038 79.6055 192.959 79.9136 193.561 80.5294C194.164 81.1451 194.464 82.0941 194.464 83.375V88.863H192.315V87.4772C192.11 87.9576 191.785 88.3331 191.34 88.6044C190.907 88.8756 190.4 89.0109 189.823 89.0109C189.233 89.0109 188.697 88.8875 188.215 88.6413C187.734 88.3951 187.355 88.056 187.077 87.625C186.801 87.194 186.662 86.7136 186.662 86.1837C186.662 85.5185 186.825 84.9951 187.15 84.6131C187.487 84.231 188.029 83.9538 188.775 83.7815C189.522 83.6093 190.551 83.5229 191.864 83.5229H192.315V83.0978C192.315 82.4821 192.183 82.0386 191.918 81.7674C191.665 81.4962 191.238 81.3609 190.636 81.3609C190.166 81.3609 189.672 81.4473 189.154 81.6196C188.649 81.7799 188.149 82.0076 187.655 82.3033L187.024 80.7142C187.517 80.3941 188.113 80.1288 188.811 79.9196C189.51 79.7104 190.172 79.6055 190.798 79.6055ZM190.274 87.3478C190.876 87.3478 191.364 87.1446 191.737 86.7381C192.122 86.319 192.315 85.7832 192.315 85.1304V84.7424H191.99C191.183 84.7424 190.557 84.7794 190.112 84.8533C189.666 84.9272 189.347 85.0565 189.154 85.2413C188.962 85.4261 188.865 85.6788 188.865 85.9989C188.865 86.3929 188.998 86.7196 189.263 86.9783C189.528 87.2245 189.865 87.3478 190.274 87.3478Z" fill="black"/>
<path d="M196.756 75.835H199.014V88.8621H196.756V75.835Z" fill="black"/>
<path d="M205.855 87.2725C206.119 87.2725 206.396 87.254 206.685 87.217L206.577 88.9355C206.215 88.9725 205.884 88.9909 205.584 88.9909C204.344 88.9909 203.428 88.7012 202.839 88.1225C202.248 87.5311 201.954 86.6567 201.954 85.4986V81.5627H200.256V79.8257H201.954V77.1279H204.211V79.8257H206.54V81.5627H204.211V85.4616C204.211 86.6686 204.76 87.2725 205.855 87.2725Z" fill="black"/>
<path d="M216.565 79.8457L211.254 92.1891H208.979L210.586 88.512L206.902 79.8457H209.287L211.78 86.2207L214.344 79.8457H216.565Z" fill="black"/>
<path fill-rule="evenodd" clip-rule="evenodd" d="M17.1778 8.59375C12.093 8.59375 8.02756 9.58262 5.13798 11.7236L5.13282 11.7273L5.12776 11.7312C2.20247 13.9502 0.743205 17.0768 0.743205 20.9279C0.743205 23.0072 1.11289 24.8687 1.98631 26.3855C2.68602 28.1373 3.94586 29.4552 5.64401 30.3389C7.1676 31.3361 9.91515 32.1851 13.7719 32.9578L14.5722 33.1625L14.8217 33.2646L14.9219 33.2854C18.3416 33.9943 20.8013 34.7882 22.3792 35.6406C24.0086 36.5206 24.3566 37.2634 24.3566 37.743C24.3566 38.8735 23.9214 39.658 23.0327 40.2305C22.0709 40.8501 20.5108 41.2539 18.2162 41.2539C15.6736 41.2539 13.794 40.7659 12.5084 39.9148L12.4838 39.8984L12.4584 39.8836C11.3458 39.228 10.6282 38.1128 10.3478 36.1872L10.2045 35.2023H0L0.0677713 36.4228C0.308867 40.7642 1.96708 44.2042 5.07706 46.474C7.98341 48.8199 12.1598 49.8462 17.4938 49.8462C22.6774 49.8462 26.8673 48.8078 29.8831 46.6326L29.9027 46.6187L29.9218 46.6033C32.9751 44.1965 34.5153 40.8437 34.5153 36.6343C34.5153 34.6408 34.0619 32.8236 33.1006 31.1153L33.0844 31.0864L33.0665 31.0585C32.1011 29.5508 30.787 28.3182 29.1062 27.3573L29.0387 27.3188L28.9669 27.2899C28.5971 27.1419 28.2097 26.9829 27.8133 26.8203C27.136 26.5425 26.4327 26.254 25.7463 25.9907L25.6679 25.9607L25.5863 25.9428C25.3197 25.8843 25.016 25.8075 24.6488 25.7147L24.531 25.685C24.1171 25.5805 23.6417 25.462 23.1064 25.3428C22.2976 25.163 21.4029 24.8949 20.3214 24.5708C20.0804 24.4984 19.83 24.4235 19.5694 24.3459L19.493 24.3232L19.4142 24.3119C18.8342 24.227 17.9331 24.0528 16.6652 23.695L16.6272 23.6844L16.5886 23.6763C14.4045 23.2249 12.8903 22.6702 11.9491 22.0641C11.0278 21.4707 10.8117 20.9435 10.8117 20.5121C10.8117 19.4652 11.2115 18.7129 12.0333 18.1411L12.0616 18.1214L12.0888 18.1C12.7815 17.5523 14.14 17.1399 16.3651 17.1399C18.6169 17.1399 20.2269 17.5741 21.3829 18.3321C21.9323 18.7216 22.3124 19.1746 22.6412 19.7682C23.1091 20.6894 23.7545 21.4241 24.5914 21.9211C25.4298 22.4188 26.3911 22.6371 27.4268 22.6371H33.3106L33.2496 21.4231C33.054 17.5216 31.5685 14.3005 28.6882 11.8616L28.6724 11.8482L28.656 11.8353C25.8612 9.63958 22.0175 8.59375 17.1778 8.59375Z" fill="black"/>
<path d="M45.7147 57.1933C45.7147 58.4868 45.2181 59.6417 44.2247 60.5656C43.2315 61.4895 42.0575 61.9514 40.703 61.9514H35.6914V27.0738C35.6914 20.5603 37.723 16.0793 41.7415 13.6772C45.7599 11.275 50.1394 10.1201 54.8802 10.1201C57.3182 10.1201 59.8014 10.5821 62.3298 11.4598C64.8583 12.3375 66.8449 13.631 68.2896 15.294C71.2244 18.9435 72.7144 23.6092 72.7144 29.2912C72.7144 35.1581 71.2244 39.9162 68.2896 43.5656C65.3549 47.1227 61.5624 48.8781 56.9119 48.8781C54.4737 48.8781 52.3066 48.4624 50.4103 47.6308C48.4237 46.7069 46.8886 45.2287 45.6696 43.2885V57.1933H45.7147ZM62.5556 29.707C62.5556 26.0575 61.8332 23.2858 60.3432 21.2994C58.8532 19.3592 56.7313 18.3429 53.9771 18.3429C51.3134 18.3429 49.2365 19.313 47.7915 21.2994C46.392 23.0548 45.7147 25.8728 45.7147 29.707C45.7147 33.264 46.4371 35.8972 47.9271 37.6988C49.417 39.639 51.539 40.6553 54.2932 40.6553C56.8668 40.6553 58.8532 39.6852 60.3432 37.6988C61.788 35.7586 62.5556 33.0793 62.5556 29.707Z" fill="black"/>
<path d="M79.3473 44.8545C77.2704 43.1915 75.8257 40.9277 74.9227 38.0636C74.0196 35.1995 73.6133 32.243 73.6133 29.1479C73.6133 26.6071 73.9746 24.1126 74.742 21.5718C75.4644 19.0311 76.6383 16.9524 78.2186 15.2893C80.7921 12.4714 84.0881 10.8084 88.1063 10.3002C92.1248 9.79205 95.7819 10.0692 99.0327 11.2241C102.78 12.61 105.534 15.0583 107.295 18.523C108.966 21.618 109.824 25.2212 109.824 29.3326C109.824 32.3354 109.462 34.8761 108.785 37.0473C108.108 39.2185 107.205 41.0201 106.121 42.4984C103.774 45.5935 100.748 47.4877 97.1364 48.2268C93.8856 49.0583 90.6348 49.1507 87.3389 48.4578C83.9526 47.7186 81.3339 46.5176 79.3473 44.8545ZM86.4358 20.1859C84.3589 22.3571 83.456 25.5446 83.6365 29.7946C83.8173 34.0446 84.675 37.0011 86.165 38.7103C86.7519 39.4495 87.7903 40.0962 89.2803 40.6043C90.7703 41.1125 92.2603 41.1587 93.7953 40.7429C95.3304 40.3272 96.6849 39.2647 97.8588 37.6016C99.0327 35.9386 99.6648 33.2131 99.7551 29.4712C99.7551 26.099 99.1682 23.6044 98.0393 21.8952C96.9106 20.2321 95.6014 19.1235 94.1114 18.6616C92.6214 18.1996 91.1766 18.1534 89.6866 18.5692C88.1968 18.985 87.1131 19.5392 86.4358 20.1859Z" fill="black"/>
<path d="M116.238 44.8545C114.161 43.1915 112.716 40.9277 111.813 38.0636C110.91 35.1995 110.504 32.243 110.504 29.1479C110.504 26.6071 110.865 24.1126 111.633 21.5718C112.355 19.0311 113.529 16.9524 115.109 15.2893C117.683 12.4714 120.979 10.8084 124.997 10.3002C129.015 9.79205 132.672 10.0692 135.923 11.2241C139.671 12.61 142.425 15.0583 144.186 18.523C145.856 21.618 146.714 25.2212 146.714 29.3326C146.714 32.3354 146.353 34.8761 145.676 37.0473C144.998 39.2185 144.095 41.0201 143.012 42.4984C140.664 45.5935 137.639 47.4877 134.027 48.2268C130.776 49.0583 127.525 49.1507 124.229 48.4578C120.843 47.7186 118.225 46.5176 116.238 44.8545ZM123.326 20.1859C121.25 22.3571 120.346 25.5446 120.527 29.7946C120.708 34.0446 121.566 37.0011 123.055 38.7103C123.642 39.4495 124.681 40.0962 126.171 40.6043C127.661 41.1125 129.151 41.1587 130.686 40.7429C132.221 40.3272 133.575 39.2647 134.749 37.6016C135.923 35.9386 136.555 33.2131 136.646 29.4712C136.646 26.099 136.059 23.6044 134.93 21.8952C133.801 20.2321 132.492 19.1235 131.002 18.6616C129.512 18.1996 128.067 18.1534 126.577 18.5692C125.087 18.985 124.004 19.5392 123.326 20.1859Z" fill="black"/>
<path d="M182.517 48.1825H177.369C175.88 48.1825 174.706 47.7206 173.757 46.8429C172.809 45.9651 172.358 44.8103 172.358 43.4244V24.3919C172.358 22.1283 171.635 20.5114 170.236 19.4951C168.791 18.4789 167.211 17.9708 165.45 17.9708C163.689 17.9708 162.109 18.4789 160.709 19.4951C159.309 20.5114 158.632 22.1745 158.632 24.3919V48.2287H148.293V26.3321C148.293 20.0033 150.054 15.7534 153.53 13.5822C157.007 11.4572 160.89 10.2561 165.134 10.0713C169.468 10.0713 173.441 11.1338 177.099 13.305C180.756 15.4762 182.562 19.8185 182.562 26.3321V48.1825H182.517Z" fill="black"/>
<path d="M185 0H190.328C191.682 0 192.901 0.461955 193.85 1.38586C194.843 2.30977 195.34 3.41847 195.34 4.75813V7.71465H185V0ZM185 10.9483H190.328C191.682 10.9483 192.901 11.4103 193.85 12.3342C194.843 13.2581 195.34 14.3668 195.34 15.7065V48.2281H185V10.9483Z" fill="#FF9900"/>
<path d="M215.07 48.1819C211.82 48.3667 208.298 48.3205 204.506 48.0433C200.712 47.7661 198.816 45.4564 198.816 41.1602V0H204.144C205.409 0 206.537 0.461955 207.53 1.38586C208.523 2.30977 209.02 3.41847 209.02 4.75813V11.0869H215.07V13.0271C215.07 14.413 214.573 15.5679 213.58 16.4456C212.587 17.3233 211.412 17.7853 210.059 17.7853H209.02V38.527C209.02 40.0977 210.013 40.9292 211.955 40.9292H215.07V48.1819Z" fill="#FF9900"/>
<path d="M223.468 61.3927V53.6781H226.267C228.255 53.6781 229.789 53.2161 230.917 52.3384C232.047 51.4607 232.273 50.0286 231.595 48.0884L217.869 10.9473H229.249L237.194 37.2787L244.102 14.3195C244.689 12.056 246.27 10.9473 248.843 10.9473H255.932L240.896 53.4009C239.723 56.496 238.232 58.6672 236.472 60.0069C234.711 61.1156 231.776 61.6699 227.757 61.6699C227.441 61.6699 227.126 61.6699 226.719 61.6699C226.313 61.6699 225.998 61.6699 225.68 61.6699C225.364 61.5775 225.004 61.4851 224.552 61.4389C224.146 61.3927 223.74 61.3927 223.468 61.3927Z" fill="#FF9900"/>
</g>
</g>
<defs>
<clipPath id="clip0_363_11864">
<rect width="256" height="92.391" fill="white"/>
</clipPath>
</defs>
</svg>
