<svg width="256" height="85" viewBox="0 0 256 85" fill="none" xmlns="http://www.w3.org/2000/svg">
<path d="M80.7843 35.0852C80.1591 34.0042 79.827 32.7789 79.8203 31.5303C79.8203 30.2076 80.116 29.2629 80.7073 28.696C81.3311 28.1098 82.1646 27.7989 83.02 27.8337H105.174C105.457 28.3114 105.678 28.8229 105.834 29.3559C106.038 30.0115 106.14 30.6942 106.138 31.3804C106.138 32.7003 105.842 33.6452 105.25 34.2146C104.629 34.8052 103.795 35.1191 102.938 35.0852H97.2963V58.5689C96.72 58.7066 96.1356 58.8081 95.5467 58.8725C94.7622 58.9737 93.9724 59.0251 93.1814 59.0265C92.4914 59.0337 91.8025 58.9741 91.124 58.8484C90.5838 58.7491 90.0721 58.5322 89.6255 58.2126C89.2054 57.8847 88.8878 57.4437 88.7102 56.9412C88.4853 56.2532 88.3825 55.5309 88.4064 54.8074V35.0852H80.7843Z" fill="url(#paint0_linear_363_11895)"/>
<path d="M132.306 46.4241C132.337 48.3397 132.011 50.2443 131.342 52.04C130.75 53.6013 129.822 55.0138 128.625 56.178C127.425 57.3134 125.996 58.1791 124.433 58.7167C122.683 59.3131 120.843 59.6061 118.994 59.5832C117.142 59.6067 115.301 59.2968 113.559 58.6681C111.994 58.0973 110.567 57.2064 109.367 56.0525C108.174 54.8828 107.247 53.4701 106.649 51.9104C105.98 50.1597 105.651 48.298 105.677 46.4241C105.652 44.568 105.981 42.7239 106.645 40.9905C107.244 39.4325 108.171 38.0213 109.363 36.8525C110.562 35.6957 111.99 34.8034 113.555 34.2328C115.297 33.6055 117.138 33.2969 118.99 33.3218C120.845 33.2955 122.69 33.614 124.429 34.2613C125.99 34.8486 127.416 35.7468 128.621 36.9011C129.812 38.0718 130.739 39.4842 131.338 41.0431C131.998 42.7597 132.326 44.5855 132.306 46.4241ZM114.523 46.4241C114.523 48.4918 114.928 50.0748 115.738 51.1735C116.494 52.2543 117.748 52.8765 119.067 52.8255C120.378 52.8827 121.623 52.2459 122.343 51.1491C123.105 50.0317 123.485 48.4567 123.485 46.4241C123.485 44.3916 123.084 42.8219 122.282 41.7153C121.503 40.6754 120.279 40.0633 118.98 40.0633C117.68 40.0633 116.456 40.6754 115.677 41.7153C114.907 42.8166 114.523 44.3861 114.523 46.4241Z" fill="url(#paint1_linear_363_11895)"/>
<path d="M162.077 46.4225C162.111 48.3383 161.784 50.2431 161.114 52.0383C160.521 53.5997 159.593 55.0121 158.396 56.1763C157.196 57.3119 155.767 58.1775 154.204 58.715C152.455 59.3112 150.617 59.6043 148.769 59.5815C146.919 59.5998 145.081 59.2858 143.342 58.6542C141.779 58.0817 140.351 57.191 139.15 56.0386C137.959 54.8681 137.032 53.4557 136.433 51.8965C135.764 50.1501 135.433 48.2924 135.457 46.4225C135.43 44.5666 135.757 42.7225 136.42 40.9888C137.021 39.4316 137.948 38.0208 139.138 36.8508C140.34 35.6901 141.772 34.7936 143.342 34.2191C145.086 33.5916 146.928 33.283 148.781 33.3081C150.635 33.2822 152.478 33.6008 154.216 34.2474C155.778 34.8347 157.204 35.7329 158.408 36.8873C159.6 38.0579 160.526 39.4703 161.126 41.0292C161.783 42.7501 162.106 44.5806 162.077 46.4225ZM144.298 46.4225C144.298 48.4901 144.695 50.0733 145.488 51.1718C146.245 52.2526 147.499 52.875 148.818 52.8238C150.129 52.881 151.373 52.2442 152.094 51.1476C152.856 50.03 153.238 48.455 153.24 46.4225C153.243 44.3899 152.853 42.8244 152.07 41.7257C151.29 40.6858 150.067 40.0737 148.767 40.0737C147.467 40.0737 146.243 40.6858 145.464 41.7257C144.686 42.8189 144.298 44.3846 144.298 46.4225Z" fill="url(#paint2_linear_363_11895)"/>
<path d="M190.426 54.2867C190.262 55.8768 189.796 57.0914 189.03 57.9308C188.264 58.7703 187.155 59.1942 185.705 59.2025C184.681 59.2138 183.677 58.9327 182.808 58.3924C181.749 57.6663 180.82 56.7653 180.063 55.7283L175.033 49.4605V58.7042C174.66 58.7731 174.11 58.8661 173.385 58.9835C172.654 59.1018 171.914 59.1615 171.173 59.1617C170.495 59.1687 169.818 59.1188 169.148 59.012C168.608 58.9279 168.095 58.7185 167.65 58.4006C167.231 58.0773 166.907 57.6481 166.71 57.1575C166.469 56.4995 166.358 55.801 166.382 55.1006V25.6892C166.755 25.5881 167.302 25.4788 168.031 25.3573C168.762 25.239 169.501 25.1794 170.242 25.1792C170.92 25.1732 171.597 25.2247 172.267 25.333C172.808 25.4133 173.322 25.623 173.765 25.9444C174.185 26.2669 174.509 26.6963 174.705 27.1875C174.946 27.8455 175.058 28.5439 175.033 29.2443V42.6543L183.772 33.7142C185.536 33.7142 186.95 34.1042 188.018 34.8844C189.012 35.5331 189.614 36.6399 189.618 37.8279C189.623 38.3056 189.537 38.78 189.362 39.2248C189.166 39.6931 188.901 40.1298 188.576 40.5205C188.16 41.0242 187.701 41.4915 187.203 41.9173C186.645 42.4073 185.988 42.9782 185.246 43.6179L182.298 46.1606L190.426 54.2867Z" fill="url(#paint3_linear_363_11895)"/>
<path d="M204.757 33.3075C206.443 33.2923 208.124 33.4812 209.764 33.8703C211.146 34.1874 212.456 34.7644 213.623 35.5709C214.674 36.3143 215.523 37.3097 216.09 38.4658C216.692 39.7605 216.986 41.1766 216.953 42.6038V53.9854C216.983 54.7714 216.722 55.541 216.215 56.1434C215.71 56.714 215.119 57.2016 214.462 57.5888C212.258 58.9089 209.153 59.5701 205.147 59.5729C203.512 59.5909 201.881 59.4198 200.286 59.0627C198.971 58.7763 197.718 58.261 196.581 57.5403C195.574 56.8953 194.752 56.003 194.19 54.949C193.615 53.8223 193.327 52.5702 193.353 51.305C193.353 48.9701 194.047 47.1751 195.435 45.92C196.822 44.6647 198.982 43.8874 201.914 43.5877L208.568 42.8752V42.5189C208.616 41.6158 208.101 40.7776 207.273 40.4133C206.409 40.0085 205.163 39.7778 203.539 39.7778C202.274 39.7746 201.014 39.9103 199.78 40.1826C198.652 40.4266 197.546 40.7666 196.475 41.1988C195.989 40.8372 195.603 40.3561 195.357 39.8019C195.057 39.1939 194.9 38.5248 194.9 37.8463C194.861 37.0921 195.087 36.3481 195.535 35.7409C196.069 35.1389 196.74 34.6759 197.492 34.3926C198.616 33.9877 199.787 33.7159 200.975 33.5829C202.228 33.4134 203.493 33.3214 204.757 33.3075ZM205.163 53.2688C205.802 53.2622 206.439 53.2027 207.07 53.0905C207.612 53.0216 208.136 52.8587 208.621 52.6087V48.5598L204.976 48.8635C204.162 48.8972 203.365 49.1057 202.64 49.4749C202.063 49.7605 201.706 50.3548 201.724 50.9973C201.709 51.6422 202.003 52.2559 202.515 52.6493C203.019 53.0582 203.911 53.2688 205.163 53.2688Z" fill="url(#paint4_linear_363_11895)"/>
<path d="M237.881 43.1107C237.881 42.062 237.584 41.2887 236.993 40.7988C236.297 40.2725 235.436 40.0112 234.563 40.0618C233.88 40.0608 233.201 40.1464 232.538 40.317C231.929 40.4644 231.354 40.7225 230.838 41.0781V58.7031C230.305 58.8416 229.763 58.9444 229.217 59.0108C228.469 59.1126 227.713 59.1628 226.958 59.1607C226.28 59.1679 225.602 59.1178 224.933 59.0108C224.392 58.9278 223.879 58.7182 223.434 58.3994C223.015 58.0772 222.69 57.6478 222.494 57.1565C222.253 56.4985 222.141 55.7998 222.166 55.0995V39.8593C222.131 39.0728 222.336 38.2938 222.749 37.6244C223.188 37.0043 223.737 36.4702 224.369 36.0493C225.699 35.1532 227.168 34.4842 228.714 34.0695C230.607 33.5404 232.567 33.284 234.532 33.3082C238.359 33.3082 241.306 34.1463 243.372 35.8227C245.437 37.4988 246.47 39.827 246.47 42.807V58.7031C245.939 58.8416 245.397 58.9444 244.851 59.0108C244.101 59.1126 243.347 59.1628 242.591 59.1607C241.913 59.1679 241.235 59.1178 240.566 59.0108C240.024 58.9278 239.512 58.7182 239.067 58.3994C238.647 58.0772 238.322 57.6478 238.128 57.1565C237.883 56.4992 237.77 55.8004 237.796 55.0995L237.881 43.1107Z" fill="url(#paint5_linear_363_11895)"/>
<path d="M28.2043 64.8828L28.3662 43.0835L45.1254 62.7732V60.6841C45.2631 56.4691 45.3401 49.347 45.3401 48.4766C45.3132 46.65 45.038 44.8357 44.5219 43.0835C42.2377 35.026 35.5065 25.0049 26.3332 20.3406V20.3851C26.3163 20.3593 26.2974 20.335 26.2765 20.3124L26.0619 20.1988H40.1763L40.2653 20.2636H42.3632C49.8436 20.2636 58.5957 20.7698 58.5957 23.1789C58.5957 5.93457 40.0668 5.93457 40.0668 5.93457H26.0619V5.9953C25.1101 5.98316 12.7898 5.87788 8.47656 5.9953L8.55756 41.5205C8.47656 41.5205 27.5442 64.3645 27.5442 64.397V64.6803H27.702V78.8151H58.3609L46.7737 64.8828H28.2043ZM58.531 22.7336C58.4743 22.6202 58.4095 22.5148 58.3488 22.4056C58.4451 22.4908 58.5096 22.6066 58.531 22.7336Z" fill="url(#paint6_linear_363_11895)"/>
<defs>
<linearGradient id="paint0_linear_363_11895" x1="79.8203" y1="42.3733" x2="246.521" y2="42.3733" gradientUnits="userSpaceOnUse">
<stop stop-color="#37C87C"/>
<stop offset="0.55" stop-color="#2FA894"/>
<stop offset="0.71" stop-color="#2EA598"/>
<stop offset="0.88" stop-color="#2A9CA4"/>
<stop offset="1" stop-color="#2692B1"/>
</linearGradient>
<linearGradient id="paint1_linear_363_11895" x1="79.8218" y1="42.3752" x2="246.521" y2="42.3752" gradientUnits="userSpaceOnUse">
<stop stop-color="#37C87C"/>
<stop offset="0.55" stop-color="#2FA894"/>
<stop offset="0.71" stop-color="#2EA598"/>
<stop offset="0.88" stop-color="#2A9CA4"/>
<stop offset="1" stop-color="#2692B1"/>
</linearGradient>
<linearGradient id="paint2_linear_363_11895" x1="79.8212" y1="42.3735" x2="246.521" y2="42.3735" gradientUnits="userSpaceOnUse">
<stop stop-color="#37C87C"/>
<stop offset="0.55" stop-color="#2FA894"/>
<stop offset="0.71" stop-color="#2EA598"/>
<stop offset="0.88" stop-color="#2A9CA4"/>
<stop offset="1" stop-color="#2692B1"/>
</linearGradient>
<linearGradient id="paint3_linear_363_11895" x1="79.8207" y1="42.3751" x2="246.521" y2="42.3751" gradientUnits="userSpaceOnUse">
<stop stop-color="#37C87C"/>
<stop offset="0.55" stop-color="#2FA894"/>
<stop offset="0.71" stop-color="#2EA598"/>
<stop offset="0.88" stop-color="#2A9CA4"/>
<stop offset="1" stop-color="#2692B1"/>
</linearGradient>
<linearGradient id="paint4_linear_363_11895" x1="79.8218" y1="42.3731" x2="246.522" y2="42.3731" gradientUnits="userSpaceOnUse">
<stop stop-color="#37C87C"/>
<stop offset="0.55" stop-color="#2FA894"/>
<stop offset="0.71" stop-color="#2EA598"/>
<stop offset="0.88" stop-color="#2A9CA4"/>
<stop offset="1" stop-color="#2692B1"/>
</linearGradient>
<linearGradient id="paint5_linear_363_11895" x1="79.8196" y1="42.3738" x2="246.52" y2="42.3738" gradientUnits="userSpaceOnUse">
<stop stop-color="#37C87C"/>
<stop offset="0.55" stop-color="#2FA894"/>
<stop offset="0.71" stop-color="#2EA598"/>
<stop offset="0.88" stop-color="#2A9CA4"/>
<stop offset="1" stop-color="#2692B1"/>
</linearGradient>
<linearGradient id="paint6_linear_363_11895" x1="28.2001" y1="5.27865" x2="55.3975" y2="65.1927" gradientUnits="userSpaceOnUse">
<stop stop-color="#37C87C"/>
<stop offset="0.55" stop-color="#2FA894"/>
<stop offset="0.71" stop-color="#2EA598"/>
<stop offset="0.88" stop-color="#2A9CA4"/>
<stop offset="1" stop-color="#2692B1"/>
</linearGradient>
</defs>
</svg>
