<svg width="84" height="58" viewBox="0 0 84 58" fill="none" xmlns="http://www.w3.org/2000/svg">
<path fill-rule="evenodd" clip-rule="evenodd" d="M47.1221 31.2317H45.7208C45.5826 31.2243 45.4737 31.1086 45.4719 30.9673V23.5957C45.4867 23.4558 45.6041 23.3508 45.7419 23.3543H47.0462C47.165 23.3581 47.2667 23.4423 47.2951 23.5601V24.6875H47.3225C47.7158 23.6796 48.2671 23.1992 49.2379 23.1992C49.8676 23.1992 50.4824 23.4318 50.8795 24.0673C51.2466 24.657 51.2466 25.6496 51.2466 26.3626V31.0003C51.2261 31.1356 51.1106 31.2345 50.9765 31.2317H49.5627C49.4359 31.2261 49.3311 31.1287 49.3138 31.0003V26.9981C49.3138 26.9356 49.3144 26.8709 49.3149 26.8046C49.3217 26.0166 49.3303 25.0129 48.4339 25.0129C48.073 25.0299 47.755 25.2603 47.62 25.6026C47.4233 26.0525 47.3972 26.5024 47.3972 27.0006V30.9673C47.3918 31.1169 47.27 31.2345 47.1234 31.2317H47.1221ZM41.1856 23.2094C43.2727 23.2094 44.4015 25.0395 44.4015 27.3654C44.4015 29.6137 43.157 31.3969 41.1856 31.3969C39.1383 31.3969 38.0232 29.5667 38.0232 27.2879C38.0232 25.009 39.152 23.2094 41.1856 23.2094ZM41.1993 24.7142C40.1626 24.7142 40.0966 26.1554 40.0966 27.0553V27.0851C40.0965 27.9968 40.0962 29.8768 41.1856 29.8768C42.287 29.8768 42.3281 28.3262 42.3281 27.3806C42.3281 26.7604 42.302 26.0156 42.1178 25.4272C41.9597 24.9188 41.6449 24.7142 41.1993 24.7142ZM15.2043 31.247H13.7992C13.6689 31.24 13.563 31.1368 13.5503 31.0041V23.6326C13.555 23.4849 13.6744 23.368 13.8191 23.3695H15.1296C15.2639 23.3771 15.3711 23.4866 15.3785 23.6237V24.5858H15.4047C15.7457 23.6542 16.3891 23.2208 17.2553 23.2208C18.1215 23.2208 18.6853 23.6542 19.0798 24.5858C19.3432 23.8689 19.9647 23.3527 20.7057 23.2355C21.4467 23.1183 22.192 23.4183 22.6555 24.0202C23.0378 24.5509 23.0255 25.2901 23.014 25.9844C23.0121 26.1015 23.0102 26.2175 23.0102 26.3308V30.9813C23.0088 31.0533 22.9795 31.1218 22.9286 31.1717C22.8776 31.2215 22.8094 31.2486 22.7388 31.247H21.3337C21.1955 31.2395 21.0866 31.1239 21.0848 30.9825V27.0756C21.0848 27.0164 21.0858 26.9403 21.0869 26.8539C21.0914 26.4872 21.0984 25.9339 21.045 25.6954C20.9405 25.1997 20.6256 25.0599 20.2186 25.0599C19.8456 25.0715 19.5152 25.3089 19.3785 25.6636C19.2445 26.0105 19.2456 26.569 19.2465 26.9828L19.2466 27.0756V30.9813C19.2453 31.0531 19.2161 31.1214 19.1655 31.1712C19.1148 31.221 19.0469 31.2483 18.9766 31.247H17.5677C17.4298 31.2389 17.3212 31.1236 17.3188 30.9825V27.0756C17.3188 26.9956 17.32 26.9118 17.3212 26.8258C17.3324 26.0289 17.3463 25.0421 16.4476 25.0421C15.4755 25.0421 15.4763 26.1653 15.4768 27.0145L15.4769 27.0756V30.9813C15.4756 31.0533 15.4462 31.1218 15.3953 31.1717C15.3444 31.2215 15.2761 31.2486 15.2056 31.247H15.2043ZM11.0214 31.3371C11.1281 31.3985 11.2611 31.3848 11.3537 31.3028L11.3649 31.3054C11.6449 31.0499 12.1552 30.5974 12.4426 30.3521C12.5522 30.2568 12.5323 30.0979 12.4426 29.9709C12.4153 29.9324 12.3878 29.8947 12.3604 29.8572C12.13 29.5418 11.9112 29.2423 11.9112 28.6402V26.4045C11.9112 26.3323 11.9116 26.2606 11.9119 26.1893C11.9162 25.326 11.9201 24.536 11.2889 23.9325C10.7513 23.4038 9.85769 23.2183 9.17318 23.2183C7.83528 23.2183 6.34182 23.7279 6.02944 25.4157C6.01648 25.4841 6.03152 25.5548 6.07103 25.6115C6.11054 25.6682 6.17108 25.7058 6.23852 25.7157L7.59011 25.8669C7.7221 25.8465 7.82419 25.7381 7.83902 25.6026C7.95601 25.0217 8.43392 24.7409 8.97032 24.7409C9.26154 24.7409 9.58762 24.8489 9.75937 25.1133C9.93563 25.3787 9.93289 25.731 9.93043 26.0474C9.93015 26.0839 9.92987 26.12 9.92987 26.1554V26.341C9.80225 26.3557 9.6685 26.3697 9.53074 26.384C8.78868 26.4614 7.92973 26.5509 7.28644 26.8392C6.41525 27.2281 5.79297 28.0199 5.79297 29.1854C5.79297 30.6775 6.71394 31.4236 7.89751 31.4236C8.89689 31.4236 9.44325 31.1833 10.2161 30.3801C10.2534 30.4355 10.287 30.4867 10.3187 30.535C10.5031 30.8159 10.6232 30.9988 11.0214 31.3371ZM9.93613 27.8722L9.93609 27.8026V27.4938C8.91929 27.4938 7.84524 27.7162 7.84524 28.9388C7.84524 29.5616 8.16011 29.981 8.699 29.981C9.09477 29.981 9.44947 29.7319 9.67349 29.3278C9.93705 28.8491 9.93663 28.4009 9.93613 27.8722ZM30.8695 29.9658C30.8421 29.9273 30.8145 29.8895 30.7871 29.852C30.5568 29.5366 30.3381 29.2372 30.3381 28.6363V26.3995C30.3381 26.3233 30.3385 26.2476 30.3389 26.1725V26.1714C30.3438 25.3125 30.3483 24.5278 29.7158 23.9275C29.1769 23.3987 28.2833 23.2132 27.6001 23.2132C26.2622 23.2132 24.7687 23.7216 24.4551 25.4107C24.4418 25.4794 24.4568 25.5506 24.4966 25.6076C24.5364 25.6646 24.5975 25.7024 24.6654 25.7119L26.0282 25.8618C26.16 25.841 26.2619 25.7328 26.2771 25.5975C26.3953 25.0167 26.8708 24.7358 27.4072 24.7358C27.6971 24.7358 28.0294 24.8451 28.1962 25.1094C28.3737 25.3739 28.371 25.7263 28.3685 26.0428C28.3682 26.0792 28.368 26.1151 28.368 26.1504V26.3321C28.2428 26.3464 28.1116 26.3599 27.9766 26.3738C27.2324 26.4506 26.3692 26.5397 25.7245 26.829C24.8434 27.218 24.2248 28.0098 24.2248 29.1765C24.2248 30.6673 25.1458 31.4134 26.3294 31.4134C27.325 31.4134 27.8751 31.1732 28.6467 30.3699C28.6834 30.4244 28.7165 30.4748 28.7477 30.5222C28.9347 30.8068 29.0533 30.9872 29.4532 31.327C29.5599 31.3879 29.6924 31.3748 29.7855 31.2939C30.0655 31.0397 30.5758 30.586 30.8633 30.3407C30.984 30.253 30.9641 30.0979 30.8695 29.9658ZM28.1066 29.3214C27.8838 29.7243 27.5279 29.9734 27.1334 29.9734C26.5945 29.9734 26.2796 29.554 26.2796 28.9325C26.2796 27.7085 27.3536 27.4874 28.3704 27.4874V27.7975L28.3705 27.8545C28.3708 28.3898 28.3711 28.8402 28.1066 29.3214ZM32.0593 24.657V23.6072C32.056 23.5353 32.0827 23.4654 32.1328 23.4147C32.1828 23.3641 32.2516 23.3375 32.3219 23.3415H36.9429C37.0132 23.3391 37.0814 23.3661 37.1317 23.4163C37.182 23.4664 37.21 23.5354 37.2093 23.6072V24.5108C37.2093 24.6621 37.0848 24.8603 36.862 25.173L34.4675 28.663C35.3561 28.6414 36.2958 28.7774 37.1035 29.2413C37.2527 29.3226 37.3477 29.4793 37.3524 29.6518V30.7805C37.3524 30.9355 37.1869 31.1147 37.0114 31.0219C35.4785 30.2174 33.659 30.2207 32.129 31.0308C31.9685 31.1185 31.8004 30.9419 31.8004 30.7868V29.7129C31.7858 29.4597 31.8456 29.2078 31.9722 28.9897L34.7463 24.9226H32.3269C32.2564 24.9254 32.1879 24.8986 32.1373 24.8484C32.0868 24.7982 32.0586 24.729 32.0593 24.657ZM56.4837 24.2782C56.8369 23.9602 57.2405 23.7057 57.6772 23.5258C58.0898 23.3579 58.5299 23.2716 58.974 23.2716C59.4155 23.2633 59.8534 23.3535 60.2572 23.536C60.6376 23.7141 60.9709 23.9826 61.2292 24.3189C61.5104 24.6915 61.7183 25.1162 61.8415 25.5695C61.9907 26.1068 62.0629 26.6633 62.0555 27.2218C62.0623 27.7921 61.9851 28.3602 61.8265 28.9071C61.6938 29.3711 61.4763 29.8054 61.1856 30.1869C60.9156 30.5338 60.5728 30.8144 60.1825 31.008C59.7723 31.2024 59.3241 31.2985 58.872 31.2888C58.027 31.3031 57.2092 30.9845 56.5882 30.3992V33.9273C56.6001 34.0104 56.5729 34.0942 56.5148 34.1535C56.4567 34.2129 56.3746 34.2407 56.2933 34.2286H55.4221C55.3408 34.2407 55.2587 34.2129 55.2006 34.1535C55.1425 34.0942 55.1152 34.0104 55.1271 33.9273V23.7965C55.1158 23.7136 55.1432 23.6301 55.2012 23.5709C55.2591 23.5118 55.3409 23.4838 55.4221 23.4953H56.0705C56.1551 23.4872 56.2393 23.5149 56.3034 23.5718C56.3676 23.6286 56.4062 23.7099 56.4102 23.7965L56.4837 24.2782ZM58.5621 24.474C57.8475 24.4797 57.1542 24.7229 56.587 25.1666V29.3608C57.2159 29.8438 57.8643 30.0848 58.5322 30.084C59.888 30.084 60.5658 29.1519 60.5658 27.2879C60.5658 25.4238 59.8979 24.4854 58.5621 24.4727V24.474ZM63.8962 24.8451L64.007 24.807C64.708 24.5865 65.4366 24.4709 66.17 24.4638C66.76 24.4646 67.1727 24.5752 67.4084 24.7955C67.644 25.0158 67.7618 25.3971 67.7618 25.9394V26.9282C67.1548 26.7692 66.5316 26.6838 65.905 26.674C65.0404 26.6731 64.3526 26.8913 63.8415 27.3285C63.3304 27.7657 63.0748 28.3504 63.0748 29.0825C63.0765 29.7645 63.2839 30.3089 63.6971 30.7156C64.1103 31.1223 64.6704 31.3257 65.3773 31.3257C65.8144 31.3238 66.2472 31.2376 66.6529 31.0715C67.0808 30.9009 67.4769 30.6568 67.8241 30.3496L67.8987 30.8465C67.9024 30.9291 67.9392 31.0064 68.0004 31.0605C68.0615 31.1146 68.1418 31.1406 68.2223 31.1325H68.857C68.9382 31.1441 69.02 31.1161 69.078 31.0569C69.1359 30.9977 69.1633 30.9142 69.152 30.8313V25.689C69.1512 24.8654 68.9296 24.2583 68.4874 23.8677C68.0452 23.4771 67.3574 23.2818 66.4239 23.2818C65.9594 23.2818 65.4958 23.3244 65.0387 23.4089C64.6398 23.474 64.2494 23.5853 63.8751 23.7406C63.7845 23.7719 63.7035 23.8267 63.6399 23.8995C63.5915 23.989 63.5707 24.0913 63.5801 24.1931V24.596C63.5801 24.7777 63.6473 24.868 63.7718 24.868C63.8142 24.8673 63.8563 24.8596 63.8962 24.8451ZM66.7488 30.0039C66.4233 30.1281 66.0793 30.1939 65.732 30.1984C65.3486 30.1992 65.0537 30.0967 64.8471 29.8908C64.6405 29.6849 64.5372 29.3913 64.5372 29.01C64.5364 28.1364 65.0918 27.6997 66.2037 27.6997C66.4671 27.7002 66.7302 27.718 66.9914 27.753C67.2518 27.7865 67.5102 27.834 67.7656 27.8954V29.432C67.4568 29.6739 67.114 29.8667 66.7488 30.0039ZM73.0263 33.9566C73.3748 33.6549 73.6822 33.158 73.9485 32.4657L77.1918 24.0368C77.2454 23.9226 77.2803 23.8002 77.2951 23.6745C77.2951 23.5551 77.2267 23.4941 77.0885 23.4941H76.2634C76.15 23.483 76.0362 23.5092 75.9385 23.569C75.8553 23.664 75.7952 23.7776 75.7631 23.9008L73.7718 29.7408L71.7071 23.9008C71.6749 23.7776 71.6148 23.664 71.5316 23.569C71.4339 23.5092 71.3201 23.483 71.2068 23.4941H70.3219C70.185 23.4941 70.1165 23.5551 70.1165 23.6745C70.1307 23.8002 70.1652 23.9226 70.2186 24.0368L73.0586 31.2062L72.7786 31.9688C72.6119 32.4509 72.4252 32.7822 72.2186 32.9627C71.9697 33.1574 71.6603 33.2536 71.3474 33.2334C71.2144 33.2362 71.0815 33.226 70.9504 33.2029C70.8774 33.1869 70.8034 33.1771 70.7288 33.1737C70.5807 33.1737 70.5073 33.269 70.5073 33.4596V33.8511C70.4991 33.959 70.5248 34.0667 70.5807 34.1587C70.642 34.2317 70.7251 34.2822 70.8172 34.3023C71.0913 34.3761 71.3739 34.4116 71.6573 34.4078C72.2215 34.4086 72.6778 34.2582 73.0263 33.9566Z" fill="#232F3E"/>
<path fill-rule="evenodd" clip-rule="evenodd" d="M34.3706 35.9345C34.6905 35.1223 35.4024 33.3023 35.0638 32.8613H35.0663C34.7293 32.4193 32.8375 32.6513 31.9866 32.7556L31.9848 32.7558C31.726 32.7876 31.6861 32.5575 31.9189 32.3911C33.4297 31.3069 35.9052 31.617 36.1927 31.9831C36.4802 32.3491 36.1143 34.8834 34.6992 36.0933C34.4814 36.2789 34.2736 36.1798 34.3706 35.9345ZM24.2039 37.1876C27.4945 37.1876 31.3265 36.1264 33.9661 34.1373V34.1412C34.403 33.8056 34.0284 33.3125 33.5828 33.5057C30.7015 34.7468 27.6085 35.3947 24.4814 35.4121C20.1429 35.4121 15.9463 34.1971 12.5511 32.1801C12.2537 32.0034 12.0321 32.3148 12.281 32.5423C15.5496 35.5539 19.8016 37.2106 24.2039 37.1876Z" fill="#FF9900"/>
</svg>
