<svg width="84" height="58" viewBox="0 0 84 58" fill="none" xmlns="http://www.w3.org/2000/svg">
<g clip-path="url(#clip0_326_16395)">
<path d="M80 0.5H4C2.067 0.5 0.5 2.067 0.5 4V54C0.5 55.933 2.067 57.5 4 57.5H80C81.933 57.5 83.5 55.933 83.5 54V4C83.5 2.067 81.933 0.5 80 0.5Z" fill="#006FCF" stroke="#F3F3F3"/>
<path fill-rule="evenodd" clip-rule="evenodd" d="M17.1812 41.8961V29.9561H30.6844L32.1332 31.7243L33.6298 29.9561H82.6433V41.0727C82.6433 41.0727 81.3615 41.8842 79.879 41.8961H52.7393L51.1059 40.014V41.8961H45.7533V38.6832C45.7533 38.6832 45.0222 39.1317 43.4414 39.1317H41.6195V41.8961H33.5153L32.0686 40.09L30.5997 41.8961H17.1812ZM1.44824 20.9569L4.48637 14.3105H9.74049L11.4647 18.0335V14.3105H17.9961L19.0225 17.0014L20.0175 14.3105H49.3366V15.6633C49.3366 15.6633 50.8778 14.3105 53.4108 14.3105L62.9238 14.3417L64.6182 18.016V14.3105H70.084L71.5883 16.4211V14.3105H77.1042V26.2505H71.5883L70.1466 24.1331V26.2505H62.1162L61.3086 24.3684H59.1498L58.3553 26.2505H52.9094C50.7298 26.2505 49.3366 24.9253 49.3366 24.9253V26.2505H41.1253L39.4956 24.3684V26.2505H8.96213L8.15511 24.3684H6.00314L5.20182 26.2505H1.44824V20.9569ZM1.46391 24.7228L5.56168 15.7824H8.66831L12.7622 24.7228H10.0356L9.28337 22.9325H4.88786L4.13177 24.7228H1.46391ZM8.41759 20.9915L7.07778 17.8631L5.73406 20.9915H8.41759ZM13.0443 24.7213V15.7809L16.8354 15.7941L19.0405 21.5583L21.1928 15.7809H24.9536V24.7213H22.5718V18.1336L20.0469 24.7213H17.958L15.4261 18.1336V24.7213H13.0443ZM26.5834 24.7213V15.7809H34.3558V17.7807H28.9903V19.31H34.2304V21.1922H28.9903V22.7803H34.3558V24.7213H26.5834ZM35.7348 24.7228V15.7824H41.0352C42.7915 15.7824 44.3652 16.8015 44.3652 18.6829C44.3652 20.2912 43.0384 21.3271 41.7522 21.429L44.8862 24.7228H41.9755L39.1195 21.5466H38.1167V24.7228H35.7348ZM40.8394 17.7822H38.1167V19.6644H40.8746C41.352 19.6644 41.9676 19.3173 41.9676 18.7233C41.9676 18.2617 41.4925 17.7822 40.8394 17.7822ZM47.7695 24.7213H45.3375V15.7809H47.7695V24.7213ZM53.5362 24.7213H53.0112C50.4713 24.7213 48.9291 22.8435 48.9291 20.2879C48.9291 17.6691 50.454 15.7809 53.6615 15.7809H56.2941V17.8984H53.5653C52.2632 17.8984 51.3423 18.8519 51.3423 20.3099C51.3423 22.0413 52.3953 22.7685 53.9123 22.7685H54.5391L53.5362 24.7213ZM54.6213 24.7228L58.7191 15.7824H61.8257L65.9196 24.7228H63.193L62.4408 22.9325H58.0453L57.2892 24.7228H54.6213ZM61.575 20.9915L60.2352 17.8631L58.8915 20.9915H61.575ZM66.1977 24.7213V15.7809H69.226L73.0927 21.3981V15.7809H75.4745V24.7213H72.5442L68.5796 18.9571V24.7213H66.1977ZM18.8109 40.3669V31.4265H26.5834V33.4263H21.2179V34.9556H26.458V36.8378H21.2179V38.4259H26.5834V40.3669H18.8109ZM56.8959 40.3669V31.4265H64.6683V33.4263H59.3028V34.9556H64.5179V36.8378H59.3028V38.4259H64.6683V40.3669H56.8959ZM26.885 40.3669L30.6694 35.9518L26.7949 31.4265H29.7957L32.1032 34.2241L34.4185 31.4265H37.3018L33.4783 35.8967L37.2696 40.3669H34.2692L32.0288 37.6134L29.8428 40.3669H26.885ZM37.5525 40.3684V31.428H42.8138C44.9726 31.428 46.2338 32.7337 46.2338 34.4351C46.2338 36.489 44.6258 37.5451 42.5043 37.5451H39.9971V40.3684H37.5525ZM42.6375 33.4499H39.9971V35.5085H42.6297C43.3254 35.5085 43.8128 35.0759 43.8128 34.4792C43.8128 33.8441 43.3229 33.4499 42.6375 33.4499ZM47.2681 40.3669V31.4265H52.5685C54.3248 31.4265 55.8985 32.4457 55.8985 34.327C55.8985 35.9353 54.5717 36.9712 53.2855 37.0731L56.4195 40.3669H53.5088L50.6529 37.1907H49.65V40.3669H47.2681ZM52.3727 33.4263H49.65V35.3085H52.4079C52.8853 35.3085 53.5009 34.9614 53.5009 34.3674C53.5009 33.9058 53.0258 33.4263 52.3727 33.4263ZM65.7715 40.3669V38.4259H70.5384C71.2437 38.4259 71.5491 38.0682 71.5491 37.6759C71.5491 37.3001 71.2447 36.9201 70.5384 36.9201H68.3843C66.5119 36.9201 65.4691 35.8496 65.4691 34.2424C65.4691 32.8089 66.424 31.4265 69.2064 31.4265H73.8448L72.8419 33.4381H68.8303C68.0635 33.4381 67.8274 33.8158 67.8274 34.1763C67.8274 34.5469 68.1192 34.9556 68.705 34.9556H70.9615C73.0488 34.9556 73.9545 36.0666 73.9545 37.5216C73.9545 39.0857 72.9452 40.3669 70.8479 40.3669H65.7715ZM74.1645 40.3669V38.4259H78.9314C79.6367 38.4259 79.9421 38.0682 79.9421 37.6759C79.9421 37.3001 79.6377 36.9201 78.9314 36.9201H76.7773C74.9049 36.9201 73.8621 35.8496 73.8621 34.2424C73.8621 32.8089 74.817 31.4265 77.5994 31.4265H82.2378L81.2349 33.4381H77.2233C76.4565 33.4381 76.2204 33.8158 76.2204 34.1763C76.2204 34.5469 76.5122 34.9556 77.098 34.9556H79.3545C81.4418 34.9556 82.3475 36.0666 82.3475 37.5216C82.3475 39.0857 81.3382 40.3669 79.2409 40.3669H74.1645Z" fill="white"/>
</g>
<defs>
<clipPath id="clip0_326_16395">
<rect width="84" height="58" fill="white"/>
</clipPath>
</defs>
</svg>
