<svg width="84" height="58" viewBox="0 0 84 58" fill="none" xmlns="http://www.w3.org/2000/svg">
<path fill-rule="evenodd" clip-rule="evenodd" d="M25.4566 21.6431C24.8456 22.375 23.8681 22.9522 22.8905 22.8698C22.7683 21.8802 23.2469 20.8288 23.807 20.1793C24.418 19.4269 25.4872 18.8908 26.3528 18.8496C26.4546 19.8804 26.0574 20.8906 25.4566 21.6431ZM26.3426 23.0656C25.4813 23.0154 24.6955 23.3278 24.0608 23.5801C23.6523 23.7425 23.3064 23.8799 23.0432 23.8799C22.7479 23.8799 22.3877 23.7351 21.9833 23.5725C21.4534 23.3594 20.8476 23.1158 20.2123 23.1275C18.7561 23.1481 17.4017 23.983 16.6584 25.3128C15.1309 27.9722 16.2612 31.9099 17.7378 34.0746C18.4608 35.1466 19.3264 36.3218 20.4669 36.2805C20.9686 36.2614 21.3296 36.1063 21.7031 35.9459C22.1332 35.7612 22.5799 35.5693 23.2774 35.5693C23.9508 35.5693 24.378 35.7562 24.7881 35.9356C25.178 36.1062 25.5525 36.27 26.1084 36.2599C27.2896 36.2393 28.033 35.1879 28.756 34.1158C29.5362 32.9653 29.8791 31.8423 29.9311 31.6719L29.9372 31.6522C29.936 31.651 29.9264 31.6465 29.9094 31.6386C29.6485 31.5177 27.655 30.5939 27.6358 28.1166C27.6167 26.0372 29.2171 24.9837 29.469 24.8178C29.4844 24.8077 29.4947 24.8009 29.4994 24.7974C28.4811 23.2718 26.8925 23.1068 26.3426 23.0656ZM34.5197 36.1465V20.0763H40.4768C43.5522 20.0763 45.7008 22.2203 45.7008 25.354C45.7008 28.4876 43.5114 30.6523 40.3954 30.6523H36.984V36.1465H34.5197ZM36.984 22.1791H39.8251C41.9636 22.1791 43.1856 23.3336 43.1856 25.3643C43.1856 27.395 41.9636 28.5598 39.8149 28.5598H36.984V22.1791ZM53.8372 34.2189C53.1855 35.4765 51.7496 36.2702 50.2018 36.2702C47.9106 36.2702 46.3118 34.8889 46.3118 32.8067C46.3118 30.7451 47.8597 29.5597 50.7211 29.3844L53.7965 29.1989V28.3124C53.7965 27.0033 52.9513 26.292 51.4441 26.292C50.2018 26.292 49.2955 26.9414 49.1122 27.931H46.8923C46.9635 25.8488 48.8983 24.3335 51.5154 24.3335C54.3362 24.3335 56.1691 25.8282 56.1691 28.1475V36.1465H53.8881V34.2189H53.8372ZM50.8637 34.3632C49.5501 34.3632 48.715 33.7241 48.715 32.7449C48.715 31.7347 49.5195 31.1471 51.0572 31.0543L53.7965 30.8791V31.7862C53.7965 33.2912 52.5337 34.3632 50.8637 34.3632ZM63.7353 36.7753C62.7475 39.5894 61.6171 40.5171 59.2139 40.5171C59.0306 40.5171 58.4196 40.4965 58.2771 40.4553V38.5277C58.4298 38.5483 58.8066 38.5689 59.0001 38.5689C60.0897 38.5689 60.7007 38.1051 61.0774 36.899L61.3015 36.1878L57.1264 24.4881H59.7027L62.6049 33.9818H62.6558L65.558 24.4881H68.0631L63.7353 36.7753Z" fill="black"/>
</svg>
