<svg version="1.2" xmlns="http://www.w3.org/2000/svg" viewBox="0 0 108 58" width="108" height="58">
	<title>Discover-svg</title>
	<defs>
		<clipPath clipPathUnits="userSpaceOnUse" id="cp1">
			<path d="m-18 0h151.51v58h-151.51z"/>
		</clipPath>
	</defs>
	<style>
		.s0 { fill: #4d4d4d } 
		.s1 { fill: #f47216 } 
	</style>
	<g id="Clip-Path" clip-path="url(#cp1)">
		<g id="Layer">
			<path id="Layer" fill-rule="evenodd" class="s0" d="m44.7 21.4c1.2 0 2.3 0.2 3.6 0.8v3.3c-1.2-1.2-2.3-1.6-3.7-1.6-2.7 0-4.8 2.1-4.8 4.8 0 2.8 2 4.8 5 4.8 1.3 0 2.3-0.4 3.5-1.5v3.2c-1.4 0.6-2.4 0.8-3.7 0.8-4.4 0-7.8-3.2-7.8-7.3 0-4.1 3.5-7.3 7.9-7.3zm-13.7 0.1c1.6 0 3.1 0.5 4.3 1.5l-1.5 1.9c-0.7-0.8-1.4-1.1-2.3-1.1-1.3 0-2.2 0.6-2.2 1.5 0 0.8 0.5 1.2 2.3 1.8 3.3 1.1 4.3 2.1 4.3 4.3 0 2.8-2.2 4.6-5.2 4.6-2.2 0-3.8-0.8-5.1-2.6l1.9-1.7c0.6 1.2 1.7 1.8 3.1 1.8 1.3 0 2.3-0.8 2.3-1.9 0-0.6-0.3-1.1-0.9-1.5-0.3-0.1-0.9-0.4-2-0.8-2.7-0.9-3.7-1.9-3.7-3.8 0-2.3 2-4 4.7-4zm33.1 0.2h3.2l4 9.4 4-9.4h3.1l-6.4 14.4h-1.6zm-56.1 0h4.3c4.7 0 8 2.9 8 7 0 2.1-1 4.1-2.7 5.4-1.5 1.1-3.1 1.6-5.4 1.6h-4.2zm13.6 0h2.9v14h-2.9zm58.2 0h8.2v2.4h-5.3v3.1h5.1v2.4h-5.1v3.7h5.3v2.4h-8.2zm10.1 0h4.3c3.4 0 5.3 1.5 5.3 4.2 0 2.1-1.2 3.5-3.4 3.9l4.7 5.9h-3.6l-4-5.6h-0.4v5.6h-2.9zm2.9 2.2v4.3h0.9c1.8 0 2.8-0.8 2.8-2.2 0-1.4-1-2.1-2.8-2.1zm-81.9 0.2v9.3h0.8c1.9 0 3-0.4 4-1.2 1-0.8 1.6-2.1 1.6-3.5 0-1.3-0.6-2.6-1.6-3.5-1-0.8-2.1-1.1-4-1.1z"/>
			<path id="Layer" fill-rule="evenodd" class="s1" d="m57.1 22c4.4 0 7.9 3.3 7.9 7.4v0.1c0 4.1-3.5 7.4-7.9 7.4-4.3 0-7.9-3.3-7.9-7.4v-0.1c0-4.1 3.6-7.4 7.9-7.4z"/>
		</g>
	</g>
</svg>