<svg width="1250" height="642" viewBox="0 0 1250 642" fill="none" xmlns="http://www.w3.org/2000/svg">
<g clip-path="url(#clip0_326_15879)">
<rect width="1250" height="642" fill="white"/>
<g opacity="0.2">
<mask id="mask0_326_15879" style="mask-type:alpha" maskUnits="userSpaceOnUse" x="-335" y="0" width="1920" height="582">
<path d="M-335 0H1585V582H-335V0Z" fill="url(#paint0_linear_326_15879)"/>
</mask>
<g mask="url(#mask0_326_15879)">
<rect width="1920" height="582" transform="translate(-335 55)" fill="white"/>
<path d="M-335 55H1585V637H-335V55Z" fill="#636363"/>
</g>
</g>
<path fill-rule="evenodd" clip-rule="evenodd" d="M1250.37 0H-0.370117V450.96C-0.370117 457.587 5.00247 462.96 11.6299 462.96H34.1013C40.7912 420.994 77.1501 388.922 121 388.922C164.85 388.922 201.209 420.994 207.898 462.96H1238.37C1245 462.96 1250.37 457.587 1250.37 450.96V0Z" fill="#E1EBFF"/>
<path opacity="0.9" d="M250.094 516.96H245.109V503.554C245.109 502.106 245.172 500.507 245.297 498.757H245.172C244.911 500.132 244.677 501.121 244.469 501.726L239.219 516.96H235.094L229.75 501.882C229.604 501.476 229.37 500.434 229.047 498.757H228.906C229.042 500.965 229.109 502.903 229.109 504.569V516.96H224.562V494.554H231.953L236.531 507.835C236.896 508.897 237.161 509.965 237.328 511.038H237.422C237.703 509.799 238 508.72 238.312 507.804L242.891 494.554H250.094V516.96ZM269.938 500.96L263.438 518.241C261.875 522.397 259.521 524.476 256.375 524.476C255.177 524.476 254.193 524.34 253.422 524.069V520.132C254.078 520.517 254.792 520.71 255.562 520.71C256.833 520.71 257.719 520.111 258.219 518.913L259.062 516.929L252.562 500.96H258.031L261.016 510.694C261.203 511.299 261.349 512.012 261.453 512.835H261.516C261.609 512.231 261.781 511.528 262.031 510.726L265.047 500.96H269.938ZM300.047 516.96H294.25L290.766 511.194C290.505 510.757 290.255 510.366 290.016 510.022C289.776 509.679 289.531 509.387 289.281 509.147C289.042 508.897 288.786 508.71 288.516 508.585C288.255 508.45 287.969 508.382 287.656 508.382H286.297V516.96H281.25V494.554H289.25C294.688 494.554 297.406 496.585 297.406 500.647C297.406 501.429 297.286 502.153 297.047 502.819C296.807 503.476 296.469 504.069 296.031 504.601C295.594 505.132 295.062 505.59 294.438 505.976C293.823 506.361 293.135 506.663 292.375 506.882V506.944C292.708 507.049 293.031 507.22 293.344 507.46C293.656 507.689 293.958 507.96 294.25 508.272C294.542 508.585 294.818 508.924 295.078 509.288C295.349 509.642 295.594 509.991 295.812 510.335L300.047 516.96ZM286.297 498.335V504.569H288.484C289.568 504.569 290.438 504.257 291.094 503.632C291.76 502.996 292.094 502.21 292.094 501.272C292.094 499.314 290.922 498.335 288.578 498.335H286.297ZM315.234 510.366H304.797C304.964 512.689 306.427 513.851 309.188 513.851C310.948 513.851 312.495 513.434 313.828 512.601V516.163C312.349 516.955 310.427 517.351 308.062 517.351C305.479 517.351 303.474 516.637 302.047 515.21C300.62 513.772 299.906 511.772 299.906 509.21C299.906 506.554 300.677 504.45 302.219 502.897C303.76 501.345 305.656 500.569 307.906 500.569C310.24 500.569 312.042 501.262 313.312 502.647C314.594 504.033 315.234 505.913 315.234 508.288V510.366ZM310.656 507.335C310.656 505.043 309.729 503.897 307.875 503.897C307.083 503.897 306.396 504.226 305.812 504.882C305.24 505.538 304.891 506.356 304.766 507.335H310.656ZM317.125 516.538V512.538C317.938 513.028 318.745 513.392 319.547 513.632C320.359 513.871 321.125 513.991 321.844 513.991C322.719 513.991 323.406 513.871 323.906 513.632C324.417 513.392 324.672 513.028 324.672 512.538C324.672 512.226 324.557 511.965 324.328 511.757C324.099 511.549 323.802 511.366 323.438 511.21C323.083 511.054 322.693 510.913 322.266 510.788C321.839 510.663 321.427 510.522 321.031 510.366C320.396 510.127 319.833 509.871 319.344 509.601C318.865 509.319 318.458 508.996 318.125 508.632C317.802 508.267 317.552 507.845 317.375 507.366C317.208 506.887 317.125 506.319 317.125 505.663C317.125 504.767 317.318 503.996 317.703 503.351C318.099 502.705 318.62 502.179 319.266 501.772C319.922 501.356 320.667 501.054 321.5 500.866C322.344 500.668 323.219 500.569 324.125 500.569C324.833 500.569 325.552 500.627 326.281 500.741C327.01 500.845 327.729 501.002 328.438 501.21V505.022C327.812 504.658 327.141 504.387 326.422 504.21C325.714 504.022 325.016 503.929 324.328 503.929C324.005 503.929 323.698 503.96 323.406 504.022C323.125 504.075 322.875 504.158 322.656 504.272C322.438 504.377 322.266 504.517 322.141 504.694C322.016 504.861 321.953 505.054 321.953 505.272C321.953 505.564 322.047 505.814 322.234 506.022C322.422 506.231 322.667 506.413 322.969 506.569C323.271 506.715 323.604 506.851 323.969 506.976C324.344 507.09 324.714 507.21 325.078 507.335C325.734 507.564 326.328 507.814 326.859 508.085C327.391 508.356 327.844 508.674 328.219 509.038C328.604 509.403 328.896 509.83 329.094 510.319C329.302 510.809 329.406 511.392 329.406 512.069C329.406 513.017 329.198 513.83 328.781 514.507C328.375 515.174 327.828 515.72 327.141 516.147C326.464 516.564 325.677 516.866 324.781 517.054C323.896 517.252 322.974 517.351 322.016 517.351C320.255 517.351 318.625 517.08 317.125 516.538ZM341.938 516.772C341.208 517.158 340.109 517.351 338.641 517.351C335.161 517.351 333.422 515.543 333.422 511.929V504.601H330.828V500.96H333.422V497.507L338.344 496.101V500.96H341.938V504.601H338.344V511.069C338.344 512.736 339.005 513.569 340.328 513.569C340.849 513.569 341.385 513.418 341.938 513.116V516.772ZM358.047 516.96H353.375V514.663H353.312C352.24 516.455 350.651 517.351 348.547 517.351C346.995 517.351 345.771 516.913 344.875 516.038C343.99 515.153 343.547 513.976 343.547 512.507C343.547 509.403 345.385 507.611 349.062 507.132L353.406 506.554C353.406 504.804 352.458 503.929 350.562 503.929C348.656 503.929 346.844 504.496 345.125 505.632V501.913C345.812 501.559 346.75 501.246 347.938 500.976C349.135 500.705 350.224 500.569 351.203 500.569C355.766 500.569 358.047 502.845 358.047 507.397V516.96ZM353.406 510.46V509.382L350.5 509.757C348.896 509.965 348.094 510.689 348.094 511.929C348.094 512.491 348.286 512.955 348.672 513.319C349.068 513.674 349.599 513.851 350.266 513.851C351.193 513.851 351.948 513.533 352.531 512.897C353.115 512.252 353.406 511.439 353.406 510.46ZM377.156 516.96H372.234V514.522H372.156C370.938 516.408 369.307 517.351 367.266 517.351C363.557 517.351 361.703 515.106 361.703 510.616V500.96H366.625V510.179C366.625 512.439 367.521 513.569 369.312 513.569C370.198 513.569 370.906 513.262 371.438 512.647C371.969 512.022 372.234 511.179 372.234 510.116V500.96H377.156V516.96ZM391.766 505.413C391.172 505.09 390.479 504.929 389.688 504.929C388.615 504.929 387.776 505.325 387.172 506.116C386.568 506.897 386.266 507.965 386.266 509.319V516.96H381.328V500.96H386.266V503.929H386.328C387.109 501.762 388.516 500.679 390.547 500.679C391.068 500.679 391.474 500.741 391.766 500.866V505.413ZM407.391 516.96H402.719V514.663H402.656C401.583 516.455 399.995 517.351 397.891 517.351C396.339 517.351 395.115 516.913 394.219 516.038C393.333 515.153 392.891 513.976 392.891 512.507C392.891 509.403 394.729 507.611 398.406 507.132L402.75 506.554C402.75 504.804 401.802 503.929 399.906 503.929C398 503.929 396.188 504.496 394.469 505.632V501.913C395.156 501.559 396.094 501.246 397.281 500.976C398.479 500.705 399.568 500.569 400.547 500.569C405.109 500.569 407.391 502.845 407.391 507.397V516.96ZM402.75 510.46V509.382L399.844 509.757C398.24 509.965 397.438 510.689 397.438 511.929C397.438 512.491 397.63 512.955 398.016 513.319C398.411 513.674 398.943 513.851 399.609 513.851C400.536 513.851 401.292 513.533 401.875 512.897C402.458 512.252 402.75 511.439 402.75 510.46ZM426.75 516.96H421.828V508.069C421.828 505.59 420.943 504.351 419.172 504.351C418.318 504.351 417.615 504.679 417.062 505.335C416.51 505.991 416.234 506.825 416.234 507.835V516.96H411.297V500.96H416.234V503.491H416.297C417.474 501.543 419.188 500.569 421.438 500.569C424.979 500.569 426.75 502.767 426.75 507.163V516.96ZM440.344 516.772C439.615 517.158 438.516 517.351 437.047 517.351C433.568 517.351 431.828 515.543 431.828 511.929V504.601H429.234V500.96H431.828V497.507L436.75 496.101V500.96H440.344V504.601H436.75V511.069C436.75 512.736 437.411 513.569 438.734 513.569C439.255 513.569 439.792 513.418 440.344 513.116V516.772Z" fill="#18191A"/>
<path opacity="0.6" d="M226.504 530.223V540.96H224.805V532.303C224.498 532.522 224.166 532.71 223.809 532.867C223.458 533.018 223.055 533.152 222.601 533.27V531.819C222.884 531.727 223.157 531.629 223.421 531.526C223.685 531.424 223.943 531.309 224.197 531.182C224.456 531.055 224.715 530.914 224.974 530.757C225.237 530.601 225.508 530.423 225.787 530.223H226.504ZM228.936 540.572V538.975C229.62 539.517 230.391 539.788 231.25 539.788C231.949 539.788 232.505 539.629 232.92 539.312C233.34 538.995 233.55 538.565 233.55 538.023C233.55 536.832 232.64 536.236 230.818 536.236H230.005V534.874H230.782C232.398 534.874 233.206 534.312 233.206 533.189C233.206 532.154 232.576 531.636 231.316 531.636C230.613 531.636 229.952 531.888 229.332 532.391V530.882C230.044 530.481 230.887 530.281 231.858 530.281C232.791 530.281 233.538 530.516 234.1 530.984C234.661 531.453 234.942 532.054 234.942 532.786C234.942 534.168 234.239 535.057 232.833 535.452V535.481C233.589 535.555 234.188 535.821 234.627 536.28C235.066 536.734 235.286 537.303 235.286 537.986C235.286 538.929 234.932 539.69 234.224 540.271C233.516 540.848 232.583 541.136 231.426 541.136C230.386 541.136 229.556 540.948 228.936 540.572ZM245.613 540.96H243.343L239.688 536.155C239.551 535.975 239.468 535.853 239.439 535.789H239.41V540.96H237.667V530.457H239.41V535.394H239.439C239.498 535.286 239.581 535.167 239.688 535.035L243.211 530.457H245.298L241.175 535.496L245.613 540.96ZM252.483 540.96H250.777V529.856H252.483V540.96ZM255.56 531.885C255.281 531.885 255.042 531.795 254.842 531.614C254.646 531.434 254.549 531.204 254.549 530.926C254.549 530.647 254.646 530.416 254.842 530.23C255.042 530.044 255.281 529.952 255.56 529.952C255.848 529.952 256.092 530.044 256.292 530.23C256.492 530.416 256.592 530.647 256.592 530.926C256.592 531.189 256.492 531.417 256.292 531.607C256.092 531.792 255.848 531.885 255.56 531.885ZM256.402 540.96H254.703V533.46H256.402V540.96ZM265.433 540.96H263.279L260.364 537.356H260.335V540.96H258.628V529.856H260.335V536.895H260.364L263.118 533.46H265.162L262.063 537.078L265.433 540.96ZM272.596 537.671H267.483C267.503 538.365 267.715 538.899 268.121 539.275C268.531 539.651 269.092 539.839 269.805 539.839C270.606 539.839 271.341 539.6 272.01 539.122V540.491C271.326 540.921 270.423 541.136 269.3 541.136C268.196 541.136 267.33 540.796 266.7 540.118C266.075 539.434 265.762 538.475 265.762 537.239C265.762 536.072 266.106 535.123 266.795 534.39C267.488 533.653 268.348 533.284 269.373 533.284C270.398 533.284 271.192 533.614 271.753 534.273C272.315 534.932 272.596 535.848 272.596 537.02V537.671ZM270.955 536.47C270.95 535.86 270.806 535.386 270.523 535.049C270.24 534.708 269.849 534.537 269.351 534.537C268.863 534.537 268.448 534.715 268.106 535.071C267.769 535.428 267.562 535.894 267.483 536.47H270.955ZM273.746 540.726V539.151C274.38 539.634 275.081 539.876 275.848 539.876C276.873 539.876 277.386 539.573 277.386 538.968C277.386 538.797 277.342 538.653 277.254 538.536C277.166 538.414 277.046 538.306 276.895 538.213C276.749 538.121 276.573 538.038 276.368 537.964C276.167 537.891 275.943 537.808 275.694 537.715C275.386 537.593 275.108 537.464 274.859 537.327C274.615 537.19 274.41 537.037 274.244 536.866C274.083 536.69 273.96 536.492 273.877 536.272C273.794 536.053 273.753 535.796 273.753 535.503C273.753 535.142 273.838 534.825 274.009 534.551C274.18 534.273 274.41 534.041 274.698 533.855C274.986 533.665 275.313 533.523 275.679 533.431C276.045 533.333 276.424 533.284 276.814 533.284C277.508 533.284 278.128 533.389 278.675 533.599V535.086C278.147 534.725 277.542 534.544 276.858 534.544C276.644 534.544 276.448 534.566 276.272 534.61C276.102 534.654 275.955 534.715 275.833 534.793C275.711 534.871 275.616 534.966 275.547 535.079C275.479 535.186 275.445 535.306 275.445 535.438C275.445 535.599 275.479 535.735 275.547 535.848C275.616 535.96 275.716 536.06 275.848 536.148C275.984 536.231 276.146 536.309 276.331 536.382C276.521 536.451 276.739 536.526 276.983 536.609C277.305 536.741 277.593 536.875 277.847 537.012C278.106 537.149 278.326 537.305 278.506 537.481C278.687 537.652 278.826 537.852 278.924 538.082C279.021 538.306 279.07 538.575 279.07 538.887C279.07 539.268 278.982 539.6 278.807 539.883C278.631 540.167 278.396 540.401 278.104 540.586C277.811 540.772 277.471 540.909 277.085 540.997C276.705 541.089 276.302 541.136 275.877 541.136C275.057 541.136 274.346 540.999 273.746 540.726Z" fill="#18191A"/>
<path opacity="0.6" d="M288.178 537.972C287.67 537.972 287.233 537.793 286.867 537.437C286.5 537.081 286.317 536.648 286.317 536.141C286.317 535.638 286.5 535.203 286.867 534.837C287.233 534.466 287.67 534.28 288.178 534.28C288.686 534.28 289.118 534.463 289.474 534.83C289.831 535.196 290.009 535.633 290.009 536.141C290.009 536.648 289.831 537.081 289.474 537.437C289.118 537.793 288.686 537.972 288.178 537.972Z" fill="#18191A"/>
<path opacity="0.6" d="M297.504 530.223V540.96H295.805V532.303C295.498 532.522 295.166 532.71 294.809 532.867C294.458 533.018 294.055 533.152 293.601 533.27V531.819C293.884 531.727 294.157 531.629 294.421 531.526C294.685 531.424 294.943 531.309 295.197 531.182C295.456 531.055 295.715 530.914 295.974 530.757C296.237 530.601 296.508 530.423 296.787 530.223H297.504ZM306.835 537.583C306.835 538.111 306.748 538.592 306.572 539.026C306.401 539.461 306.162 539.837 305.854 540.154C305.546 540.467 305.18 540.711 304.755 540.887C304.335 541.058 303.879 541.143 303.386 541.143C302.858 541.143 302.373 541.041 301.928 540.835C301.489 540.63 301.108 540.325 300.786 539.92C300.468 539.515 300.222 539.012 300.046 538.411C299.87 537.806 299.782 537.105 299.782 536.309C299.782 535.337 299.897 534.476 300.126 533.724C300.361 532.972 300.681 532.342 301.086 531.834C301.491 531.326 301.967 530.94 302.514 530.677C303.061 530.413 303.652 530.281 304.287 530.281C304.682 530.281 305.041 530.308 305.363 530.362C305.69 530.416 305.952 530.489 306.147 530.582V532.112C305.898 531.985 305.632 531.878 305.349 531.79C305.065 531.702 304.741 531.658 304.375 531.658C303.964 531.658 303.586 531.741 303.239 531.907C302.893 532.073 302.592 532.317 302.338 532.64C302.089 532.957 301.892 533.353 301.745 533.826C301.604 534.295 301.53 534.837 301.525 535.452H301.569C301.794 535.105 302.097 534.832 302.478 534.632C302.863 534.432 303.315 534.332 303.833 534.332C304.292 534.332 304.704 534.407 305.07 534.559C305.441 534.705 305.756 534.92 306.015 535.203C306.279 535.481 306.481 535.823 306.623 536.229C306.765 536.629 306.835 537.081 306.835 537.583ZM305.122 537.723C305.122 537.42 305.085 537.144 305.012 536.895C304.943 536.646 304.836 536.434 304.689 536.258C304.548 536.077 304.367 535.938 304.147 535.84C303.933 535.743 303.679 535.694 303.386 535.694C303.093 535.694 302.834 535.748 302.609 535.855C302.39 535.958 302.204 536.094 302.053 536.265C301.901 536.436 301.787 536.631 301.708 536.851C301.635 537.071 301.599 537.295 301.599 537.525C301.599 537.774 301.633 538.03 301.701 538.294C301.774 538.553 301.884 538.79 302.031 539.004C302.177 539.219 302.363 539.397 302.587 539.539C302.817 539.676 303.088 539.744 303.4 539.744C303.679 539.744 303.925 539.693 304.14 539.59C304.355 539.488 304.533 539.346 304.675 539.166C304.821 538.985 304.931 538.772 305.004 538.528C305.083 538.279 305.122 538.011 305.122 537.723ZM316.657 540.96H314.387L310.732 536.155C310.595 535.975 310.512 535.853 310.483 535.789H310.454V540.96H308.71V530.457H310.454V535.394H310.483C310.542 535.286 310.625 535.167 310.732 535.035L314.255 530.457H316.342L312.219 535.496L316.657 540.96ZM326.062 531.241C325.832 531.109 325.571 531.043 325.278 531.043C324.453 531.043 324.04 531.509 324.04 532.442V533.46H325.783V534.793H324.047V540.96H322.348V534.793H321.066V533.46H322.348V532.244C322.348 531.453 322.607 530.831 323.125 530.376C323.642 529.917 324.289 529.688 325.065 529.688C325.485 529.688 325.817 529.734 326.062 529.827V531.241ZM330.317 541.136C329.16 541.136 328.234 540.787 327.541 540.088C326.853 539.385 326.508 538.455 326.508 537.298C326.508 536.038 326.867 535.054 327.585 534.346C328.308 533.638 329.279 533.284 330.5 533.284C331.672 533.284 332.585 533.628 333.239 534.317C333.894 535.005 334.221 535.96 334.221 537.181C334.221 538.377 333.867 539.336 333.159 540.059C332.456 540.777 331.508 541.136 330.317 541.136ZM330.397 534.639C329.733 534.639 329.208 534.871 328.823 535.335C328.437 535.799 328.244 536.438 328.244 537.254C328.244 538.04 328.439 538.66 328.83 539.114C329.221 539.563 329.743 539.788 330.397 539.788C331.066 539.788 331.579 539.566 331.936 539.122C332.297 538.677 332.478 538.045 332.478 537.225C332.478 536.399 332.297 535.762 331.936 535.313C331.579 534.864 331.066 534.639 330.397 534.639ZM337.663 540.96H335.957V529.856H337.663V540.96ZM341.589 540.96H339.882V529.856H341.589V540.96ZM347.133 541.136C345.976 541.136 345.051 540.787 344.357 540.088C343.669 539.385 343.325 538.455 343.325 537.298C343.325 536.038 343.684 535.054 344.401 534.346C345.124 533.638 346.096 533.284 347.316 533.284C348.488 533.284 349.401 533.628 350.056 534.317C350.71 535.005 351.037 535.96 351.037 537.181C351.037 538.377 350.683 539.336 349.975 540.059C349.272 540.777 348.325 541.136 347.133 541.136ZM347.214 534.639C346.55 534.639 346.025 534.871 345.639 535.335C345.253 535.799 345.061 536.438 345.061 537.254C345.061 538.04 345.256 538.66 345.646 539.114C346.037 539.563 346.56 539.788 347.214 539.788C347.883 539.788 348.396 539.566 348.752 539.122C349.113 538.677 349.294 538.045 349.294 537.225C349.294 536.399 349.113 535.762 348.752 535.313C348.396 534.864 347.883 534.639 347.214 534.639ZM362.858 533.46L360.646 540.96H358.867L357.504 535.877C357.451 535.682 357.417 535.462 357.402 535.218H357.373C357.363 535.384 357.319 535.599 357.241 535.862L355.761 540.96H354.018L351.813 533.46H353.571L354.934 538.865C354.978 539.026 355.007 539.241 355.021 539.51H355.073C355.087 539.305 355.126 539.085 355.19 538.851L356.706 533.46H358.303L359.65 538.887C359.694 539.058 359.726 539.273 359.746 539.532H359.797C359.807 539.351 359.843 539.136 359.907 538.887L361.24 533.46H362.858ZM370.402 537.671H365.29C365.31 538.365 365.522 538.899 365.927 539.275C366.337 539.651 366.899 539.839 367.612 539.839C368.413 539.839 369.147 539.6 369.816 539.122V540.491C369.133 540.921 368.229 541.136 367.106 541.136C366.003 541.136 365.136 540.796 364.506 540.118C363.881 539.434 363.569 538.475 363.569 537.239C363.569 536.072 363.913 535.123 364.602 534.39C365.295 533.653 366.154 533.284 367.18 533.284C368.205 533.284 368.999 533.614 369.56 534.273C370.122 534.932 370.402 535.848 370.402 537.02V537.671ZM368.762 536.47C368.757 535.86 368.613 535.386 368.33 535.049C368.046 534.708 367.656 534.537 367.158 534.537C366.669 534.537 366.254 534.715 365.913 535.071C365.576 535.428 365.368 535.894 365.29 536.47H368.762ZM376.372 535.079C376.167 534.917 375.871 534.837 375.485 534.837C374.982 534.837 374.562 535.064 374.226 535.518C373.889 535.972 373.72 536.59 373.72 537.371V540.96H372.021V533.46H373.72V535.005H373.75C373.916 534.478 374.169 534.068 374.511 533.775C374.858 533.477 375.244 533.328 375.668 533.328C375.976 533.328 376.21 533.375 376.372 533.467V535.079ZM377.207 540.726V539.151C377.841 539.634 378.542 539.876 379.309 539.876C380.334 539.876 380.847 539.573 380.847 538.968C380.847 538.797 380.803 538.653 380.715 538.536C380.627 538.414 380.507 538.306 380.356 538.213C380.209 538.121 380.034 538.038 379.829 537.964C379.628 537.891 379.404 537.808 379.155 537.715C378.847 537.593 378.569 537.464 378.32 537.327C378.076 537.19 377.871 537.037 377.705 536.866C377.543 536.69 377.421 536.492 377.338 536.272C377.255 536.053 377.214 535.796 377.214 535.503C377.214 535.142 377.299 534.825 377.47 534.551C377.641 534.273 377.871 534.041 378.159 533.855C378.447 533.665 378.774 533.523 379.14 533.431C379.506 533.333 379.885 533.284 380.275 533.284C380.969 533.284 381.589 533.389 382.136 533.599V535.086C381.608 534.725 381.003 534.544 380.319 534.544C380.104 534.544 379.909 534.566 379.733 534.61C379.562 534.654 379.416 534.715 379.294 534.793C379.172 534.871 379.077 534.966 379.008 535.079C378.94 535.186 378.906 535.306 378.906 535.438C378.906 535.599 378.94 535.735 379.008 535.848C379.077 535.96 379.177 536.06 379.309 536.148C379.445 536.231 379.606 536.309 379.792 536.382C379.982 536.451 380.2 536.526 380.444 536.609C380.766 536.741 381.054 536.875 381.308 537.012C381.567 537.149 381.787 537.305 381.967 537.481C382.148 537.652 382.287 537.852 382.385 538.082C382.482 538.306 382.531 538.575 382.531 538.887C382.531 539.268 382.443 539.6 382.268 539.883C382.092 540.167 381.857 540.401 381.564 540.586C381.271 540.772 380.932 540.909 380.546 540.997C380.166 541.089 379.763 541.136 379.338 541.136C378.518 541.136 377.807 540.999 377.207 540.726Z" fill="#18191A"/>
<rect x="900.83" y="508.96" width="120" height="36" rx="6" fill="#0866FF"/>
<path d="M920.83 518.96C919.248 518.96 917.701 519.429 916.386 520.308C915.07 521.187 914.045 522.437 913.439 523.898C912.834 525.36 912.675 526.969 912.984 528.521C913.292 530.073 914.054 531.498 915.173 532.617C916.292 533.736 917.718 534.498 919.269 534.806C920.821 535.115 922.43 534.956 923.892 534.351C925.353 533.745 926.603 532.72 927.482 531.405C928.361 530.089 928.83 528.542 928.83 526.96C928.83 524.838 927.987 522.803 926.487 521.303C924.987 519.803 922.952 518.96 920.83 518.96ZM921.59 526.858V530.651H920.063V526.858H919.303V525.338H921.583L921.59 526.858ZM921.779 524.582H919.874V522.684H921.772L921.779 524.582Z" fill="#FEFEFE"/>
<path d="M943.359 521.457L939.587 531.96H937.639L933.933 521.457H935.837L938.43 529.426C938.513 529.68 938.576 529.975 938.62 530.312H938.649C938.684 530.034 938.754 529.733 938.862 529.411L941.513 521.457H943.359ZM945.417 522.885C945.139 522.885 944.899 522.795 944.699 522.614C944.504 522.434 944.406 522.204 944.406 521.926C944.406 521.647 944.504 521.416 944.699 521.23C944.899 521.044 945.139 520.952 945.417 520.952C945.705 520.952 945.949 521.044 946.149 521.23C946.35 521.416 946.45 521.647 946.45 521.926C946.45 522.189 946.35 522.417 946.149 522.607C945.949 522.792 945.705 522.885 945.417 522.885ZM946.259 531.96H944.56V524.46H946.259V531.96ZM954.836 528.671H949.724C949.743 529.365 949.956 529.899 950.361 530.275C950.771 530.651 951.333 530.839 952.045 530.839C952.846 530.839 953.581 530.6 954.25 530.122V531.491C953.566 531.921 952.663 532.136 951.54 532.136C950.437 532.136 949.57 531.796 948.94 531.118C948.315 530.434 948.002 529.475 948.002 528.239C948.002 527.072 948.347 526.123 949.035 525.39C949.729 524.653 950.588 524.284 951.613 524.284C952.639 524.284 953.432 524.614 953.994 525.273C954.555 525.932 954.836 526.848 954.836 528.02V528.671ZM953.195 527.47C953.19 526.86 953.046 526.386 952.763 526.049C952.48 525.708 952.089 525.537 951.591 525.537C951.103 525.537 950.688 525.715 950.346 526.071C950.009 526.428 949.802 526.894 949.724 527.47H953.195ZM966.54 524.46L964.328 531.96H962.548L961.186 526.877C961.132 526.682 961.098 526.462 961.083 526.218H961.054C961.044 526.384 961 526.599 960.922 526.862L959.443 531.96H957.7L955.495 524.46H957.253L958.615 529.865C958.659 530.026 958.688 530.241 958.703 530.51H958.754C958.769 530.305 958.808 530.085 958.872 529.851L960.388 524.46H961.984L963.332 529.887C963.376 530.058 963.408 530.273 963.427 530.532H963.479C963.488 530.351 963.525 530.136 963.588 529.887L964.921 524.46H966.54ZM983.408 531.96H981.679V525.163C981.679 524.606 981.713 523.925 981.782 523.12H981.752C981.645 523.579 981.55 523.908 981.467 524.108L978.332 531.96H977.131L973.989 524.167C973.901 523.938 973.808 523.588 973.71 523.12H973.681C973.72 523.54 973.74 524.226 973.74 525.178V531.96H972.128V521.457H974.582L977.343 528.452C977.553 528.989 977.69 529.389 977.753 529.653H977.79C977.971 529.101 978.117 528.691 978.229 528.422L981.042 521.457H983.408V531.96ZM992.16 528.671H987.048C987.067 529.365 987.28 529.899 987.685 530.275C988.095 530.651 988.657 530.839 989.37 530.839C990.17 530.839 990.905 530.6 991.574 530.122V531.491C990.891 531.921 989.987 532.136 988.864 532.136C987.761 532.136 986.894 531.796 986.264 531.118C985.639 530.434 985.327 529.475 985.327 528.239C985.327 527.072 985.671 526.123 986.359 525.39C987.053 524.653 987.912 524.284 988.938 524.284C989.963 524.284 990.756 524.614 991.318 525.273C991.879 525.932 992.16 526.848 992.16 528.02V528.671ZM990.52 527.47C990.515 526.86 990.371 526.386 990.087 526.049C989.804 525.708 989.414 525.537 988.916 525.537C988.427 525.537 988.012 525.715 987.67 526.071C987.333 526.428 987.126 526.894 987.048 527.47H990.52ZM1000.46 531.96H998.759V527.734C998.759 526.333 998.264 525.632 997.272 525.632C996.755 525.632 996.328 525.827 995.991 526.218C995.654 526.604 995.485 527.092 995.485 527.683V531.96H993.779V524.46H995.485V525.705H995.515C996.076 524.758 996.887 524.284 997.946 524.284C998.762 524.284 999.384 524.55 999.814 525.083C1000.24 525.61 1000.46 526.374 1000.46 527.375V531.96ZM1009.08 531.96H1007.38V530.773H1007.35C1006.86 531.682 1006.09 532.136 1005.05 532.136C1003.28 532.136 1002.39 531.071 1002.39 528.942V524.46H1004.09V528.767C1004.09 530.114 1004.61 530.788 1005.65 530.788C1006.15 530.788 1006.57 530.603 1006.89 530.231C1007.22 529.86 1007.38 529.375 1007.38 528.774V524.46H1009.08V531.96Z" fill="#FEFEFE"/>
<g clip-path="url(#clip1_326_15879)">
<rect opacity="0.1" width="78" height="36" transform="matrix(-1 0 0 1 1107 508.921)" fill="#18191A"/>
<path d="M1056.21 527.204C1057.15 527.865 1056.98 529.257 1055.97 529.779C1056.49 530.649 1055.83 531.798 1054.93 532.041C1055.06 532.285 1055.13 532.494 1055.1 532.737C1054.96 533.747 1053.85 533.921 1053.01 533.921H1048.45C1046.64 533.921 1045.74 532.911 1045.74 532.076V527.795C1045.74 525.533 1048.28 523.619 1048.28 522.018L1048.07 520.069C1048.07 519.965 1048.07 519.652 1048.17 519.582C1048.31 519.443 1048.73 519.199 1049.32 519.199C1049.7 519.199 1049.98 519.269 1050.3 519.443C1051.34 519.965 1051.48 521.253 1051.48 522.297C1051.48 522.784 1050.85 524.28 1050.78 524.802C1051.58 524.524 1053.46 524.211 1054.93 524.42C1056.63 524.663 1057.12 525.812 1056.21 527.204ZM1041.91 525.568H1043.37C1043.65 525.568 1043.93 525.672 1044.14 525.881C1044.35 526.09 1044.45 526.368 1044.45 526.647V533.642C1044.45 533.921 1044.35 534.199 1044.14 534.408C1043.93 534.617 1043.65 534.721 1043.37 534.721H1041.91C1041.63 534.721 1041.35 534.617 1041.14 534.408C1040.93 534.199 1040.83 533.921 1040.83 533.642V526.647C1040.83 526.368 1040.93 526.09 1041.14 525.881C1041.35 525.672 1041.63 525.568 1041.91 525.568Z" fill="#18191A"/>
<path opacity="0.9" d="M1068.94 531.96H1063.13V521.457H1064.87V530.488H1068.94V531.96ZM1071.13 522.885C1070.85 522.885 1070.61 522.795 1070.41 522.614C1070.22 522.434 1070.12 522.204 1070.12 521.926C1070.12 521.647 1070.22 521.416 1070.41 521.23C1070.61 521.044 1070.85 520.952 1071.13 520.952C1071.42 520.952 1071.66 521.044 1071.86 521.23C1072.06 521.416 1072.16 521.647 1072.16 521.926C1072.16 522.189 1072.06 522.417 1071.86 522.607C1071.66 522.792 1071.42 522.885 1071.13 522.885ZM1071.97 531.96H1070.27V524.46H1071.97V531.96ZM1081 531.96H1078.85L1075.94 528.356H1075.91V531.96H1074.2V520.856H1075.91V527.895H1075.94L1078.69 524.46H1080.73L1077.64 528.078L1081 531.96ZM1088.17 528.671H1083.06C1083.08 529.365 1083.29 529.899 1083.69 530.275C1084.1 530.651 1084.66 530.839 1085.38 530.839C1086.18 530.839 1086.91 530.6 1087.58 530.122V531.491C1086.9 531.921 1086 532.136 1084.87 532.136C1083.77 532.136 1082.9 531.796 1082.27 531.118C1081.65 530.434 1081.33 529.475 1081.33 528.239C1081.33 527.072 1081.68 526.123 1082.37 525.39C1083.06 524.653 1083.92 524.284 1084.95 524.284C1085.97 524.284 1086.76 524.614 1087.33 525.273C1087.89 525.932 1088.17 526.848 1088.17 528.02V528.671ZM1086.53 527.47C1086.52 526.86 1086.38 526.386 1086.1 526.049C1085.81 525.708 1085.42 525.537 1084.92 525.537C1084.44 525.537 1084.02 525.715 1083.68 526.071C1083.34 526.428 1083.13 526.894 1083.06 527.47H1086.53ZM1096.61 531.96H1094.91V530.686H1094.88C1094.33 531.652 1093.49 532.136 1092.35 532.136C1091.43 532.136 1090.69 531.801 1090.13 531.132C1089.58 530.458 1089.3 529.543 1089.3 528.386C1089.3 527.146 1089.61 526.152 1090.22 525.405C1090.83 524.658 1091.65 524.284 1092.67 524.284C1093.68 524.284 1094.42 524.689 1094.88 525.5H1094.91V520.856H1096.61V531.96ZM1094.93 528.532V527.551C1094.93 527.019 1094.75 526.567 1094.41 526.196C1094.06 525.825 1093.62 525.639 1093.08 525.639C1092.45 525.639 1091.95 525.876 1091.58 526.35C1091.22 526.823 1091.04 527.48 1091.04 528.32C1091.04 529.082 1091.21 529.685 1091.56 530.129C1091.91 530.568 1092.38 530.788 1092.97 530.788C1093.55 530.788 1094.02 530.576 1094.39 530.151C1094.75 529.721 1094.93 529.182 1094.93 528.532Z" fill="#18191A"/>
</g>
<g clip-path="url(#clip2_326_15879)">
<rect opacity="0.1" x="1115" y="508.921" width="103" height="36" fill="#18191A"/>
<path d="M1126.83 526.96C1126.83 522.219 1130.67 518.375 1135.42 518.375C1140.16 518.375 1144 522.219 1144 526.96C1144 531.701 1140.16 535.545 1135.42 535.545C1133.98 535.545 1132.63 535.193 1131.44 534.569C1131.34 534.511 1131.22 534.492 1131.1 534.517L1128.56 535.175C1128.38 535.224 1128.18 535.223 1127.99 535.172C1127.8 535.121 1127.63 535.021 1127.49 534.883C1127.35 534.745 1127.25 534.574 1127.2 534.385C1127.15 534.197 1127.15 533.999 1127.2 533.81L1127.86 531.272C1127.88 531.159 1127.86 531.04 1127.81 530.94C1127.16 529.712 1126.83 528.346 1126.83 526.96ZM1139.94 525.892C1140.03 525.776 1140.07 525.632 1140.07 525.485C1140.06 525.338 1140 525.199 1139.9 525.094C1139.79 524.988 1139.66 524.922 1139.51 524.909C1139.36 524.896 1139.22 524.936 1139.1 525.021L1136.91 526.586L1134.61 524.965C1134.38 524.799 1134.08 524.73 1133.8 524.773C1133.51 524.815 1133.26 524.967 1133.08 525.195L1130.89 528.027C1130.8 528.143 1130.76 528.287 1130.77 528.433C1130.77 528.579 1130.83 528.717 1130.94 528.823C1131.04 528.928 1131.17 528.994 1131.32 529.008C1131.47 529.021 1131.61 528.983 1131.73 528.898L1133.92 527.333L1136.22 528.955C1136.45 529.121 1136.75 529.19 1137.03 529.147C1137.32 529.105 1137.57 528.953 1137.75 528.725L1139.94 525.893L1139.94 525.892Z" fill="#18191A"/>
<path opacity="0.9" d="M1161.58 531.96H1159.85V525.163C1159.85 524.606 1159.88 523.925 1159.95 523.12H1159.92C1159.81 523.579 1159.72 523.908 1159.63 524.108L1156.5 531.96H1155.3L1152.16 524.167C1152.07 523.938 1151.98 523.588 1151.88 523.12H1151.85C1151.89 523.54 1151.91 524.226 1151.91 525.178V531.96H1150.3V521.457H1152.75L1155.51 528.452C1155.72 528.989 1155.86 529.389 1155.92 529.653H1155.96C1156.14 529.101 1156.29 528.691 1156.4 528.422L1159.21 521.457H1161.58V531.96ZM1170.33 528.671H1165.22C1165.24 529.365 1165.45 529.899 1165.85 530.275C1166.26 530.651 1166.82 530.839 1167.54 530.839C1168.34 530.839 1169.07 530.6 1169.74 530.122V531.491C1169.06 531.921 1168.16 532.136 1167.03 532.136C1165.93 532.136 1165.06 531.796 1164.43 531.118C1163.81 530.434 1163.49 529.475 1163.49 528.239C1163.49 527.072 1163.84 526.123 1164.53 525.39C1165.22 524.653 1166.08 524.284 1167.11 524.284C1168.13 524.284 1168.92 524.614 1169.49 525.273C1170.05 525.932 1170.33 526.848 1170.33 528.02V528.671ZM1168.69 527.47C1168.68 526.86 1168.54 526.386 1168.26 526.049C1167.97 525.708 1167.58 525.537 1167.08 525.537C1166.6 525.537 1166.18 525.715 1165.84 526.071C1165.5 526.428 1165.29 526.894 1165.22 527.47H1168.69ZM1171.48 531.726V530.151C1172.11 530.634 1172.81 530.876 1173.58 530.876C1174.61 530.876 1175.12 530.573 1175.12 529.968C1175.12 529.797 1175.07 529.653 1174.99 529.536C1174.9 529.414 1174.78 529.306 1174.63 529.213C1174.48 529.121 1174.31 529.038 1174.1 528.964C1173.9 528.891 1173.68 528.808 1173.43 528.715C1173.12 528.593 1172.84 528.464 1172.59 528.327C1172.35 528.19 1172.14 528.037 1171.98 527.866C1171.81 527.69 1171.69 527.492 1171.61 527.272C1171.53 527.053 1171.49 526.796 1171.49 526.503C1171.49 526.142 1171.57 525.825 1171.74 525.551C1171.91 525.273 1172.14 525.041 1172.43 524.855C1172.72 524.665 1173.05 524.523 1173.41 524.431C1173.78 524.333 1174.16 524.284 1174.55 524.284C1175.24 524.284 1175.86 524.389 1176.41 524.599V526.086C1175.88 525.725 1175.27 525.544 1174.59 525.544C1174.38 525.544 1174.18 525.566 1174 525.61C1173.83 525.654 1173.69 525.715 1173.57 525.793C1173.44 525.871 1173.35 525.966 1173.28 526.079C1173.21 526.186 1173.18 526.306 1173.18 526.438C1173.18 526.599 1173.21 526.735 1173.28 526.848C1173.35 526.96 1173.45 527.06 1173.58 527.148C1173.72 527.231 1173.88 527.309 1174.06 527.382C1174.25 527.451 1174.47 527.526 1174.72 527.609C1175.04 527.741 1175.33 527.875 1175.58 528.012C1175.84 528.149 1176.06 528.305 1176.24 528.481C1176.42 528.652 1176.56 528.852 1176.66 529.082C1176.75 529.306 1176.8 529.575 1176.8 529.887C1176.8 530.268 1176.71 530.6 1176.54 530.883C1176.36 531.167 1176.13 531.401 1175.84 531.586C1175.54 531.772 1175.2 531.909 1174.82 531.997C1174.44 532.089 1174.03 532.136 1173.61 532.136C1172.79 532.136 1172.08 531.999 1171.48 531.726ZM1177.95 531.726V530.151C1178.59 530.634 1179.29 530.876 1180.05 530.876C1181.08 530.876 1181.59 530.573 1181.59 529.968C1181.59 529.797 1181.55 529.653 1181.46 529.536C1181.37 529.414 1181.25 529.306 1181.1 529.213C1180.96 529.121 1180.78 529.038 1180.57 528.964C1180.37 528.891 1180.15 528.808 1179.9 528.715C1179.59 528.593 1179.31 528.464 1179.07 528.327C1178.82 528.19 1178.62 528.037 1178.45 527.866C1178.29 527.69 1178.17 527.492 1178.08 527.272C1178 527.053 1177.96 526.796 1177.96 526.503C1177.96 526.142 1178.05 525.825 1178.22 525.551C1178.39 525.273 1178.62 525.041 1178.9 524.855C1179.19 524.665 1179.52 524.523 1179.89 524.431C1180.25 524.333 1180.63 524.284 1181.02 524.284C1181.71 524.284 1182.33 524.389 1182.88 524.599V526.086C1182.35 525.725 1181.75 525.544 1181.07 525.544C1180.85 525.544 1180.66 525.566 1180.48 525.61C1180.31 525.654 1180.16 525.715 1180.04 525.793C1179.92 525.871 1179.82 525.966 1179.75 526.079C1179.69 526.186 1179.65 526.306 1179.65 526.438C1179.65 526.599 1179.69 526.735 1179.75 526.848C1179.82 526.96 1179.92 527.06 1180.05 527.148C1180.19 527.231 1180.35 527.309 1180.54 527.382C1180.73 527.451 1180.95 527.526 1181.19 527.609C1181.51 527.741 1181.8 527.875 1182.05 528.012C1182.31 528.149 1182.53 528.305 1182.71 528.481C1182.89 528.652 1183.03 528.852 1183.13 529.082C1183.23 529.306 1183.28 529.575 1183.28 529.887C1183.28 530.268 1183.19 530.6 1183.01 530.883C1182.84 531.167 1182.6 531.401 1182.31 531.586C1182.02 531.772 1181.68 531.909 1181.29 531.997C1180.91 532.089 1180.51 532.136 1180.08 532.136C1179.26 532.136 1178.55 531.999 1177.95 531.726ZM1190.65 531.96H1189V530.788H1188.98C1188.46 531.687 1187.7 532.136 1186.7 532.136C1185.96 532.136 1185.38 531.936 1184.96 531.535C1184.55 531.135 1184.34 530.605 1184.34 529.946C1184.34 528.53 1185.15 527.705 1186.79 527.47L1189.01 527.155C1189.01 526.086 1188.5 525.551 1187.49 525.551C1186.6 525.551 1185.79 525.859 1185.07 526.474V524.987C1185.86 524.519 1186.78 524.284 1187.81 524.284C1189.71 524.284 1190.65 525.217 1190.65 527.082V531.96ZM1189.01 528.276L1187.44 528.496C1186.95 528.559 1186.58 528.679 1186.33 528.854C1186.09 529.025 1185.97 529.328 1185.97 529.763C1185.97 530.08 1186.08 530.341 1186.3 530.546C1186.53 530.747 1186.84 530.847 1187.22 530.847C1187.74 530.847 1188.16 530.666 1188.5 530.305C1188.84 529.938 1189.01 529.479 1189.01 528.928V528.276ZM1199.56 531.359C1199.56 534.113 1198.17 535.49 1195.41 535.49C1194.43 535.49 1193.58 535.327 1192.85 535V533.447C1193.67 533.916 1194.45 534.15 1195.19 534.15C1196.97 534.15 1197.86 533.273 1197.86 531.521V530.7H1197.83C1197.27 531.657 1196.42 532.136 1195.3 532.136C1194.38 532.136 1193.65 531.804 1193.08 531.14C1192.53 530.471 1192.25 529.575 1192.25 528.452C1192.25 527.177 1192.55 526.164 1193.15 525.412C1193.75 524.66 1194.58 524.284 1195.63 524.284C1196.62 524.284 1197.35 524.689 1197.83 525.5H1197.86V524.46H1199.56V531.359ZM1197.87 528.525V527.551C1197.87 527.023 1197.7 526.574 1197.35 526.203C1197 525.827 1196.57 525.639 1196.04 525.639C1195.4 525.639 1194.89 525.878 1194.53 526.357C1194.17 526.831 1193.99 527.495 1193.99 528.349C1193.99 529.086 1194.16 529.677 1194.51 530.122C1194.86 530.561 1195.32 530.781 1195.9 530.781C1196.48 530.781 1196.96 530.571 1197.33 530.151C1197.69 529.726 1197.87 529.184 1197.87 528.525ZM1208.12 528.671H1203.01C1203.03 529.365 1203.24 529.899 1203.65 530.275C1204.06 530.651 1204.62 530.839 1205.33 530.839C1206.13 530.839 1206.87 530.6 1207.54 530.122V531.491C1206.85 531.921 1205.95 532.136 1204.83 532.136C1203.72 532.136 1202.85 531.796 1202.23 531.118C1201.6 530.434 1201.29 529.475 1201.29 528.239C1201.29 527.072 1201.63 526.123 1202.32 525.39C1203.01 524.653 1203.87 524.284 1204.9 524.284C1205.92 524.284 1206.72 524.614 1207.28 525.273C1207.84 525.932 1208.12 526.848 1208.12 528.02V528.671ZM1206.48 527.47C1206.48 526.86 1206.33 526.386 1206.05 526.049C1205.77 525.708 1205.37 525.537 1204.88 525.537C1204.39 525.537 1203.97 525.715 1203.63 526.071C1203.29 526.428 1203.09 526.894 1203.01 527.47H1206.48Z" fill="#18191A"/>
</g>
<path d="M121 560.96C167.392 560.96 205 523.352 205 476.96C205 430.568 167.392 392.96 121 392.96C74.6081 392.96 37 430.568 37 476.96C37 523.352 74.6081 560.96 121 560.96Z" fill="#C0CDE7" stroke="white"/>
<path opacity="0.1" d="M32 580.96H1218V581.96H32V580.96Z" fill="#18191A"/>
<g filter="url(#filter0_d_326_15879)">
<g clip-path="url(#clip3_326_15879)">
<path d="M51.0322 613.651V617.46H49.2964V606.957H52.4824C53.6885 606.957 54.6235 607.238 55.2876 607.799C55.9517 608.361 56.2837 609.152 56.2837 610.172C56.2837 611.193 55.937 612.028 55.2437 612.677C54.5503 613.327 53.6128 613.651 52.4312 613.651H51.0322ZM51.0322 608.393V612.23H52.1602C52.9072 612.23 53.4761 612.057 53.8667 611.71C54.2573 611.364 54.4526 610.875 54.4526 610.246C54.4526 609.01 53.7349 608.393 52.2993 608.393H51.0322ZM60.6929 617.636C59.5356 617.636 58.6104 617.287 57.917 616.588C57.2285 615.885 56.8843 614.955 56.8843 613.798C56.8843 612.538 57.2432 611.554 57.9609 610.846C58.6836 610.138 59.6553 609.784 60.876 609.784C62.0479 609.784 62.9609 610.128 63.6152 610.817C64.2695 611.505 64.5967 612.46 64.5967 613.681C64.5967 614.877 64.2427 615.836 63.5347 616.559C62.8315 617.277 61.8843 617.636 60.6929 617.636ZM60.7734 611.139C60.1094 611.139 59.5845 611.371 59.1987 611.835C58.813 612.299 58.6201 612.938 58.6201 613.754C58.6201 614.54 58.8154 615.16 59.2061 615.614C59.5967 616.063 60.1191 616.288 60.7734 616.288C61.4424 616.288 61.9551 616.066 62.3115 615.622C62.6729 615.177 62.8535 614.545 62.8535 613.725C62.8535 612.899 62.6729 612.262 62.3115 611.813C61.9551 611.364 61.4424 611.139 60.7734 611.139ZM65.8638 617.226V615.651C66.4985 616.134 67.1992 616.376 67.9658 616.376C68.9912 616.376 69.5039 616.073 69.5039 615.468C69.5039 615.297 69.46 615.153 69.3721 615.036C69.2842 614.914 69.1646 614.806 69.0132 614.713C68.8667 614.621 68.6909 614.538 68.4858 614.464C68.2856 614.391 68.061 614.308 67.812 614.215C67.5044 614.093 67.2261 613.964 66.9771 613.827C66.7329 613.69 66.5278 613.537 66.3618 613.366C66.2007 613.19 66.0786 612.992 65.9956 612.772C65.9126 612.553 65.8711 612.296 65.8711 612.003C65.8711 611.642 65.9565 611.325 66.1274 611.051C66.2983 610.773 66.5278 610.541 66.8159 610.355C67.104 610.165 67.4312 610.023 67.7974 609.931C68.1636 609.833 68.542 609.784 68.9326 609.784C69.626 609.784 70.2461 609.889 70.793 610.099V611.586C70.2656 611.225 69.6602 611.044 68.9766 611.044C68.7617 611.044 68.5664 611.066 68.3906 611.11C68.2197 611.154 68.0732 611.215 67.9512 611.293C67.8291 611.371 67.7339 611.466 67.6655 611.579C67.5972 611.686 67.563 611.806 67.563 611.938C67.563 612.099 67.5972 612.235 67.6655 612.348C67.7339 612.46 67.834 612.56 67.9658 612.648C68.1025 612.731 68.2637 612.809 68.4492 612.882C68.6396 612.951 68.8569 613.026 69.1011 613.109C69.4233 613.241 69.7114 613.375 69.9653 613.512C70.2241 613.649 70.4438 613.805 70.6245 613.981C70.8052 614.152 70.9443 614.352 71.042 614.582C71.1396 614.806 71.1885 615.075 71.1885 615.387C71.1885 615.768 71.1006 616.1 70.9248 616.383C70.749 616.667 70.5146 616.901 70.2217 617.086C69.9287 617.272 69.5894 617.409 69.2036 617.497C68.8228 617.589 68.4199 617.636 67.9951 617.636C67.1748 617.636 66.4644 617.499 65.8638 617.226ZM76.7622 617.379C76.4302 617.545 75.9932 617.628 75.4512 617.628C73.9961 617.628 73.2686 616.93 73.2686 615.534V611.293H72.0161V609.96H73.2686V608.224L74.9678 607.741V609.96H76.7622V611.293H74.9678V615.043C74.9678 615.487 75.0483 615.805 75.2095 615.995C75.3706 616.186 75.6392 616.281 76.0151 616.281C76.3032 616.281 76.5522 616.198 76.7622 616.032V617.379ZM77.7583 617.226V615.651C78.3931 616.134 79.0938 616.376 79.8604 616.376C80.8857 616.376 81.3984 616.073 81.3984 615.468C81.3984 615.297 81.3545 615.153 81.2666 615.036C81.1787 614.914 81.0591 614.806 80.9077 614.713C80.7612 614.621 80.5854 614.538 80.3804 614.464C80.1802 614.391 79.9556 614.308 79.7065 614.215C79.3989 614.093 79.1206 613.964 78.8716 613.827C78.6274 613.69 78.4224 613.537 78.2563 613.366C78.0952 613.19 77.9731 612.992 77.8901 612.772C77.8071 612.553 77.7656 612.296 77.7656 612.003C77.7656 611.642 77.8511 611.325 78.022 611.051C78.1929 610.773 78.4224 610.541 78.7104 610.355C78.9985 610.165 79.3257 610.023 79.6919 609.931C80.0581 609.833 80.4365 609.784 80.8271 609.784C81.5205 609.784 82.1406 609.889 82.6875 610.099V611.586C82.1602 611.225 81.5547 611.044 80.8711 611.044C80.6562 611.044 80.4609 611.066 80.2852 611.11C80.1143 611.154 79.9678 611.215 79.8457 611.293C79.7236 611.371 79.6284 611.466 79.5601 611.579C79.4917 611.686 79.4575 611.806 79.4575 611.938C79.4575 612.099 79.4917 612.235 79.5601 612.348C79.6284 612.46 79.7285 612.56 79.8604 612.648C79.9971 612.731 80.1582 612.809 80.3438 612.882C80.5342 612.951 80.7515 613.026 80.9956 613.109C81.3179 613.241 81.606 613.375 81.8599 613.512C82.1187 613.649 82.3384 613.805 82.519 613.981C82.6997 614.152 82.8389 614.352 82.9365 614.582C83.0342 614.806 83.083 615.075 83.083 615.387C83.083 615.768 82.9951 616.1 82.8193 616.383C82.6436 616.667 82.4092 616.901 82.1162 617.086C81.8232 617.272 81.4839 617.409 81.0981 617.497C80.7173 617.589 80.3145 617.636 79.8896 617.636C79.0693 617.636 78.3589 617.499 77.7583 617.226Z" fill="#0866FF"/>
<path d="M32 639.96C32 639.408 32.4477 638.96 33 638.96H98.58C99.1323 638.96 99.58 639.408 99.58 639.96V641.96H32V639.96Z" fill="#0866FF"/>
<path opacity="0.6" d="M125.504 617.46H123.593L122.648 614.787H118.517L117.609 617.46H115.705L119.638 606.957H121.601L125.504 617.46ZM122.187 613.366L120.729 609.176C120.685 609.04 120.639 608.82 120.59 608.517H120.561C120.517 608.795 120.468 609.015 120.414 609.176L118.971 613.366H122.187ZM128.493 616.376H128.463V617.46H126.764V606.356H128.463V611.278H128.493C129.074 610.282 129.923 609.784 131.042 609.784C131.989 609.784 132.729 610.121 133.261 610.795C133.798 611.464 134.066 612.362 134.066 613.49C134.066 614.745 133.766 615.751 133.166 616.508C132.565 617.26 131.745 617.636 130.705 617.636C129.728 617.636 128.991 617.216 128.493 616.376ZM128.449 613.395V614.325C128.449 614.872 128.622 615.336 128.969 615.717C129.32 616.098 129.765 616.288 130.302 616.288C130.932 616.288 131.425 616.044 131.781 615.556C132.143 615.062 132.323 614.376 132.323 613.498C132.323 612.76 132.155 612.184 131.818 611.769C131.486 611.349 131.034 611.139 130.463 611.139C129.857 611.139 129.369 611.354 128.998 611.784C128.632 612.213 128.449 612.75 128.449 613.395ZM139.127 617.636C137.97 617.636 137.045 617.287 136.352 616.588C135.663 615.885 135.319 614.955 135.319 613.798C135.319 612.538 135.678 611.554 136.396 610.846C137.118 610.138 138.09 609.784 139.311 609.784C140.482 609.784 141.396 610.128 142.05 610.817C142.704 611.505 143.031 612.46 143.031 613.681C143.031 614.877 142.677 615.836 141.969 616.559C141.266 617.277 140.319 617.636 139.127 617.636ZM139.208 611.139C138.544 611.139 138.019 611.371 137.633 611.835C137.248 612.299 137.055 612.938 137.055 613.754C137.055 614.54 137.25 615.16 137.641 615.614C138.031 616.063 138.554 616.288 139.208 616.288C139.877 616.288 140.39 616.066 140.746 615.622C141.107 615.177 141.288 614.545 141.288 613.725C141.288 612.899 141.107 612.262 140.746 611.813C140.39 611.364 139.877 611.139 139.208 611.139ZM151.308 617.46H149.608V616.273H149.579C149.086 617.182 148.319 617.636 147.279 617.636C145.507 617.636 144.621 616.571 144.621 614.442V609.96H146.32V614.267C146.32 615.614 146.84 616.288 147.88 616.288C148.383 616.288 148.795 616.103 149.118 615.731C149.445 615.36 149.608 614.875 149.608 614.274V609.96H151.308V617.46ZM157.482 617.379C157.15 617.545 156.713 617.628 156.171 617.628C154.716 617.628 153.988 616.93 153.988 615.534V611.293H152.736V609.96H153.988V608.224L155.688 607.741V609.96H157.482V611.293H155.688V615.043C155.688 615.487 155.768 615.805 155.929 615.995C156.09 616.186 156.359 616.281 156.735 616.281C157.023 616.281 157.272 616.198 157.482 616.032V617.379Z" fill="#18191A"/>
<path opacity="0.6" d="M202.406 617.46H200.677V610.663C200.677 610.106 200.711 609.425 200.78 608.62H200.75C200.643 609.079 200.548 609.408 200.465 609.608L197.33 617.46H196.129L192.987 609.667C192.899 609.438 192.806 609.088 192.708 608.62H192.679C192.718 609.04 192.738 609.726 192.738 610.678V617.46H191.126V606.957H193.58L196.341 613.952C196.551 614.489 196.688 614.889 196.751 615.153H196.788C196.969 614.601 197.115 614.191 197.228 613.922L200.04 606.957H202.406V617.46ZM211.158 614.171H206.046C206.065 614.865 206.278 615.399 206.683 615.775C207.093 616.151 207.655 616.339 208.368 616.339C209.168 616.339 209.903 616.1 210.572 615.622V616.991C209.889 617.421 208.985 617.636 207.862 617.636C206.759 617.636 205.892 617.296 205.262 616.618C204.637 615.934 204.325 614.975 204.325 613.739C204.325 612.572 204.669 611.623 205.357 610.89C206.051 610.153 206.91 609.784 207.936 609.784C208.961 609.784 209.754 610.114 210.316 610.773C210.877 611.432 211.158 612.348 211.158 613.52V614.171ZM209.518 612.97C209.513 612.36 209.369 611.886 209.085 611.549C208.802 611.208 208.412 611.037 207.914 611.037C207.425 611.037 207.01 611.215 206.668 611.571C206.332 611.928 206.124 612.394 206.046 612.97H209.518ZM219.457 617.46H217.757V613.234C217.757 611.833 217.262 611.132 216.271 611.132C215.753 611.132 215.326 611.327 214.989 611.718C214.652 612.104 214.483 612.592 214.483 613.183V617.46H212.777V609.96H214.483V611.205H214.513C215.074 610.258 215.885 609.784 216.944 609.784C217.76 609.784 218.382 610.05 218.812 610.583C219.242 611.11 219.457 611.874 219.457 612.875V617.46ZM225.492 617.379C225.16 617.545 224.723 617.628 224.181 617.628C222.726 617.628 221.998 616.93 221.998 615.534V611.293H220.746V609.96H221.998V608.224L223.697 607.741V609.96H225.492V611.293H223.697V615.043C223.697 615.487 223.778 615.805 223.939 615.995C224.1 616.186 224.369 616.281 224.745 616.281C225.033 616.281 225.282 616.198 225.492 616.032V617.379ZM227.813 608.385C227.535 608.385 227.296 608.295 227.096 608.114C226.9 607.934 226.803 607.704 226.803 607.426C226.803 607.147 226.9 606.916 227.096 606.73C227.296 606.544 227.535 606.452 227.813 606.452C228.102 606.452 228.346 606.544 228.546 606.73C228.746 606.916 228.846 607.147 228.846 607.426C228.846 607.689 228.746 607.917 228.546 608.107C228.346 608.292 228.102 608.385 227.813 608.385ZM228.656 617.46H226.957V609.96H228.656V617.46ZM234.208 617.636C233.05 617.636 232.125 617.287 231.432 616.588C230.743 615.885 230.399 614.955 230.399 613.798C230.399 612.538 230.758 611.554 231.476 610.846C232.198 610.138 233.17 609.784 234.391 609.784C235.562 609.784 236.476 610.128 237.13 610.817C237.784 611.505 238.111 612.46 238.111 613.681C238.111 614.877 237.757 615.836 237.049 616.559C236.346 617.277 235.399 617.636 234.208 617.636ZM234.288 611.139C233.624 611.139 233.099 611.371 232.713 611.835C232.328 612.299 232.135 612.938 232.135 613.754C232.135 614.54 232.33 615.16 232.721 615.614C233.111 616.063 233.634 616.288 234.288 616.288C234.957 616.288 235.47 616.066 235.826 615.622C236.188 615.177 236.368 614.545 236.368 613.725C236.368 612.899 236.188 612.262 235.826 611.813C235.47 611.364 234.957 611.139 234.288 611.139ZM246.527 617.46H244.828V613.234C244.828 611.833 244.332 611.132 243.341 611.132C242.823 611.132 242.396 611.327 242.059 611.718C241.722 612.104 241.554 612.592 241.554 613.183V617.46H239.847V609.96H241.554V611.205H241.583C242.145 610.258 242.955 609.784 244.015 609.784C244.83 609.784 245.453 610.05 245.882 610.583C246.312 611.11 246.527 611.874 246.527 612.875V617.46ZM248.138 617.226V615.651C248.773 616.134 249.474 616.376 250.24 616.376C251.266 616.376 251.778 616.073 251.778 615.468C251.778 615.297 251.734 615.153 251.646 615.036C251.559 614.914 251.439 614.806 251.288 614.713C251.141 614.621 250.965 614.538 250.76 614.464C250.56 614.391 250.335 614.308 250.086 614.215C249.779 614.093 249.5 613.964 249.251 613.827C249.007 613.69 248.802 613.537 248.636 613.366C248.475 613.19 248.353 612.992 248.27 612.772C248.187 612.553 248.146 612.296 248.146 612.003C248.146 611.642 248.231 611.325 248.402 611.051C248.573 610.773 248.802 610.541 249.09 610.355C249.378 610.165 249.706 610.023 250.072 609.931C250.438 609.833 250.816 609.784 251.207 609.784C251.9 609.784 252.521 609.889 253.067 610.099V611.586C252.54 611.225 251.935 611.044 251.251 611.044C251.036 611.044 250.841 611.066 250.665 611.11C250.494 611.154 250.348 611.215 250.226 611.293C250.104 611.371 250.008 611.466 249.94 611.579C249.872 611.686 249.837 611.806 249.837 611.938C249.837 612.099 249.872 612.235 249.94 612.348C250.008 612.46 250.108 612.56 250.24 612.648C250.377 612.731 250.538 612.809 250.724 612.882C250.914 612.951 251.131 613.026 251.375 613.109C251.698 613.241 251.986 613.375 252.24 613.512C252.499 613.649 252.718 613.805 252.899 613.981C253.08 614.152 253.219 614.352 253.316 614.582C253.414 614.806 253.463 615.075 253.463 615.387C253.463 615.768 253.375 616.1 253.199 616.383C253.023 616.667 252.789 616.901 252.496 617.086C252.203 617.272 251.864 617.409 251.478 617.497C251.097 617.589 250.694 617.636 250.27 617.636C249.449 617.636 248.739 617.499 248.138 617.226Z" fill="#18191A"/>
<path opacity="0.6" d="M295.352 617.46H293.315L291.638 614.647C291.487 614.389 291.338 614.169 291.191 613.988C291.05 613.803 290.903 613.651 290.752 613.534C290.605 613.417 290.444 613.332 290.269 613.278C290.093 613.224 289.895 613.197 289.675 613.197H288.972V617.46H287.236V606.957H290.693C291.187 606.957 291.641 607.016 292.056 607.133C292.471 607.25 292.832 607.428 293.14 607.667C293.447 607.902 293.687 608.197 293.857 608.554C294.033 608.905 294.121 609.318 294.121 609.792C294.121 610.163 294.065 610.504 293.953 610.817C293.845 611.125 293.689 611.4 293.484 611.645C293.284 611.884 293.04 612.089 292.751 612.26C292.468 612.431 292.148 612.562 291.792 612.655V612.685C291.982 612.792 292.148 612.912 292.29 613.043C292.432 613.17 292.566 613.302 292.693 613.439C292.82 613.576 292.944 613.732 293.066 613.908C293.193 614.079 293.333 614.279 293.484 614.508L295.352 617.46ZM288.972 608.371V611.784H290.422C290.691 611.784 290.938 611.742 291.162 611.659C291.392 611.576 291.589 611.457 291.755 611.3C291.921 611.144 292.051 610.954 292.144 610.729C292.236 610.504 292.283 610.253 292.283 609.975C292.283 609.472 292.124 609.079 291.807 608.795C291.489 608.512 291.033 608.371 290.437 608.371H288.972ZM302.346 614.171H297.234C297.253 614.865 297.466 615.399 297.871 615.775C298.281 616.151 298.843 616.339 299.556 616.339C300.356 616.339 301.091 616.1 301.76 615.622V616.991C301.077 617.421 300.173 617.636 299.05 617.636C297.947 617.636 297.08 617.296 296.45 616.618C295.825 615.934 295.513 614.975 295.513 613.739C295.513 612.572 295.857 611.623 296.545 610.89C297.239 610.153 298.098 609.784 299.124 609.784C300.149 609.784 300.942 610.114 301.504 610.773C302.065 611.432 302.346 612.348 302.346 613.52V614.171ZM300.706 612.97C300.701 612.36 300.557 611.886 300.273 611.549C299.99 611.208 299.6 611.037 299.102 611.037C298.613 611.037 298.198 611.215 297.856 611.571C297.52 611.928 297.312 612.394 297.234 612.97H300.706ZM310.425 609.96L307.524 617.46H305.686L302.925 609.96H304.771L306.433 615.204C306.56 615.59 306.638 615.927 306.667 616.215H306.689C306.733 615.854 306.802 615.526 306.895 615.233L308.638 609.96H310.425ZM312.439 608.385C312.161 608.385 311.921 608.295 311.721 608.114C311.526 607.934 311.428 607.704 311.428 607.426C311.428 607.147 311.526 606.916 311.721 606.73C311.921 606.544 312.161 606.452 312.439 606.452C312.727 606.452 312.971 606.544 313.171 606.73C313.372 606.916 313.472 607.147 313.472 607.426C313.472 607.689 313.372 607.917 313.171 608.107C312.971 608.292 312.727 608.385 312.439 608.385ZM313.281 617.46H311.582V609.96H313.281V617.46ZM321.858 614.171H316.746C316.765 614.865 316.978 615.399 317.383 615.775C317.793 616.151 318.354 616.339 319.067 616.339C319.868 616.339 320.603 616.1 321.272 615.622V616.991C320.588 617.421 319.685 617.636 318.562 617.636C317.458 617.636 316.592 617.296 315.962 616.618C315.337 615.934 315.024 614.975 315.024 613.739C315.024 612.572 315.369 611.623 316.057 610.89C316.75 610.153 317.61 609.784 318.635 609.784C319.661 609.784 320.454 610.114 321.016 610.773C321.577 611.432 321.858 612.348 321.858 613.52V614.171ZM320.217 612.97C320.212 612.36 320.068 611.886 319.785 611.549C319.502 611.208 319.111 611.037 318.613 611.037C318.125 611.037 317.71 611.215 317.368 611.571C317.031 611.928 316.824 612.394 316.746 612.97H320.217ZM333.562 609.96L331.35 617.46H329.57L328.208 612.377C328.154 612.182 328.12 611.962 328.105 611.718H328.076C328.066 611.884 328.022 612.099 327.944 612.362L326.465 617.46H324.722L322.517 609.96H324.275L325.637 615.365C325.681 615.526 325.71 615.741 325.725 616.01H325.776C325.791 615.805 325.83 615.585 325.894 615.351L327.41 609.96H329.006L330.354 615.387C330.398 615.558 330.43 615.773 330.449 616.032H330.5C330.51 615.851 330.547 615.636 330.61 615.387L331.943 609.96H333.562ZM334.36 617.226V615.651C334.995 616.134 335.696 616.376 336.462 616.376C337.488 616.376 338 616.073 338 615.468C338 615.297 337.957 615.153 337.869 615.036C337.781 614.914 337.661 614.806 337.51 614.713C337.363 614.621 337.188 614.538 336.982 614.464C336.782 614.391 336.558 614.308 336.309 614.215C336.001 614.093 335.723 613.964 335.474 613.827C335.229 613.69 335.024 613.537 334.858 613.366C334.697 613.19 334.575 612.992 334.492 612.772C334.409 612.553 334.368 612.296 334.368 612.003C334.368 611.642 334.453 611.325 334.624 611.051C334.795 610.773 335.024 610.541 335.312 610.355C335.601 610.165 335.928 610.023 336.294 609.931C336.66 609.833 337.039 609.784 337.429 609.784C338.123 609.784 338.743 609.889 339.29 610.099V611.586C338.762 611.225 338.157 611.044 337.473 611.044C337.258 611.044 337.063 611.066 336.887 611.11C336.716 611.154 336.57 611.215 336.448 611.293C336.326 611.371 336.23 611.466 336.162 611.579C336.094 611.686 336.06 611.806 336.06 611.938C336.06 612.099 336.094 612.235 336.162 612.348C336.23 612.46 336.331 612.56 336.462 612.648C336.599 612.731 336.76 612.809 336.946 612.882C337.136 612.951 337.354 613.026 337.598 613.109C337.92 613.241 338.208 613.375 338.462 613.512C338.721 613.649 338.94 613.805 339.121 613.981C339.302 614.152 339.441 614.352 339.539 614.582C339.636 614.806 339.685 615.075 339.685 615.387C339.685 615.768 339.597 616.1 339.421 616.383C339.246 616.667 339.011 616.901 338.718 617.086C338.425 617.272 338.086 617.409 337.7 617.497C337.319 617.589 336.917 617.636 336.492 617.636C335.671 617.636 334.961 617.499 334.36 617.226Z" fill="#18191A"/>
<path opacity="0.6" d="M379.135 608.437H375.209V611.593H378.828V613.065H375.209V617.46H373.466V606.957H379.135V608.437ZM384.145 617.636C382.988 617.636 382.062 617.287 381.369 616.588C380.681 615.885 380.336 614.955 380.336 613.798C380.336 612.538 380.695 611.554 381.413 610.846C382.136 610.138 383.107 609.784 384.328 609.784C385.5 609.784 386.413 610.128 387.067 610.817C387.722 611.505 388.049 612.46 388.049 613.681C388.049 614.877 387.695 615.836 386.987 616.559C386.284 617.277 385.336 617.636 384.145 617.636ZM384.226 611.139C383.562 611.139 383.037 611.371 382.651 611.835C382.265 612.299 382.072 612.938 382.072 613.754C382.072 614.54 382.268 615.16 382.658 615.614C383.049 616.063 383.571 616.288 384.226 616.288C384.895 616.288 385.407 616.066 385.764 615.622C386.125 615.177 386.306 614.545 386.306 613.725C386.306 612.899 386.125 612.262 385.764 611.813C385.407 611.364 384.895 611.139 384.226 611.139ZM391.491 617.46H389.785V606.356H391.491V617.46ZM395.417 617.46H393.71V606.356H395.417V617.46ZM400.961 617.636C399.804 617.636 398.879 617.287 398.186 616.588C397.497 615.885 397.153 614.955 397.153 613.798C397.153 612.538 397.512 611.554 398.229 610.846C398.952 610.138 399.924 609.784 401.145 609.784C402.316 609.784 403.229 610.128 403.884 610.817C404.538 611.505 404.865 612.46 404.865 613.681C404.865 614.877 404.511 615.836 403.803 616.559C403.1 617.277 402.153 617.636 400.961 617.636ZM401.042 611.139C400.378 611.139 399.853 611.371 399.467 611.835C399.082 612.299 398.889 612.938 398.889 613.754C398.889 614.54 399.084 615.16 399.475 615.614C399.865 616.063 400.388 616.288 401.042 616.288C401.711 616.288 402.224 616.066 402.58 615.622C402.941 615.177 403.122 614.545 403.122 613.725C403.122 612.899 402.941 612.262 402.58 611.813C402.224 611.364 401.711 611.139 401.042 611.139ZM416.687 609.96L414.475 617.46H412.695L411.333 612.377C411.279 612.182 411.245 611.962 411.23 611.718H411.201C411.191 611.884 411.147 612.099 411.069 612.362L409.589 617.46H407.846L405.642 609.96H407.399L408.762 615.365C408.806 615.526 408.835 615.741 408.85 616.01H408.901C408.916 615.805 408.955 615.585 409.018 615.351L410.534 609.96H412.131L413.479 615.387C413.522 615.558 413.554 615.773 413.574 616.032H413.625C413.635 615.851 413.671 615.636 413.735 615.387L415.068 609.96H416.687ZM424.23 614.171H419.118C419.138 614.865 419.35 615.399 419.755 615.775C420.166 616.151 420.727 616.339 421.44 616.339C422.241 616.339 422.976 616.1 423.645 615.622V616.991C422.961 617.421 422.058 617.636 420.935 617.636C419.831 617.636 418.964 617.296 418.334 616.618C417.709 615.934 417.397 614.975 417.397 613.739C417.397 612.572 417.741 611.623 418.43 610.89C419.123 610.153 419.982 609.784 421.008 609.784C422.033 609.784 422.827 610.114 423.388 610.773C423.95 611.432 424.23 612.348 424.23 613.52V614.171ZM422.59 612.97C422.585 612.36 422.441 611.886 422.158 611.549C421.875 611.208 421.484 611.037 420.986 611.037C420.498 611.037 420.083 611.215 419.741 611.571C419.404 611.928 419.196 612.394 419.118 612.97H422.59ZM430.2 611.579C429.995 611.417 429.699 611.337 429.313 611.337C428.811 611.337 428.391 611.564 428.054 612.018C427.717 612.472 427.548 613.09 427.548 613.871V617.46H425.849V609.96H427.548V611.505H427.578C427.744 610.978 427.998 610.568 428.339 610.275C428.686 609.977 429.072 609.828 429.497 609.828C429.804 609.828 430.039 609.875 430.2 609.967V611.579ZM431.035 617.226V615.651C431.669 616.134 432.37 616.376 433.137 616.376C434.162 616.376 434.675 616.073 434.675 615.468C434.675 615.297 434.631 615.153 434.543 615.036C434.455 614.914 434.335 614.806 434.184 614.713C434.038 614.621 433.862 614.538 433.657 614.464C433.457 614.391 433.232 614.308 432.983 614.215C432.675 614.093 432.397 613.964 432.148 613.827C431.904 613.69 431.699 613.537 431.533 613.366C431.372 613.19 431.25 612.992 431.167 612.772C431.083 612.553 431.042 612.296 431.042 612.003C431.042 611.642 431.127 611.325 431.298 611.051C431.469 610.773 431.699 610.541 431.987 610.355C432.275 610.165 432.602 610.023 432.968 609.931C433.334 609.833 433.713 609.784 434.104 609.784C434.797 609.784 435.417 609.889 435.964 610.099V611.586C435.437 611.225 434.831 611.044 434.147 611.044C433.933 611.044 433.737 611.066 433.562 611.11C433.391 611.154 433.244 611.215 433.122 611.293C433 611.371 432.905 611.466 432.836 611.579C432.768 611.686 432.734 611.806 432.734 611.938C432.734 612.099 432.768 612.235 432.836 612.348C432.905 612.46 433.005 612.56 433.137 612.648C433.273 612.731 433.435 612.809 433.62 612.882C433.811 612.951 434.028 613.026 434.272 613.109C434.594 613.241 434.882 613.375 435.136 613.512C435.395 613.649 435.615 613.805 435.795 613.981C435.976 614.152 436.115 614.352 436.213 614.582C436.311 614.806 436.359 615.075 436.359 615.387C436.359 615.768 436.271 616.1 436.096 616.383C435.92 616.667 435.686 616.901 435.393 617.086C435.1 617.272 434.76 617.409 434.375 617.497C433.994 617.589 433.591 617.636 433.166 617.636C432.346 617.636 431.635 617.499 431.035 617.226Z" fill="#18191A"/>
<path opacity="0.6" d="M471.862 613.651V617.46H470.126V606.957H473.312C474.519 606.957 475.454 607.238 476.118 607.799C476.782 608.361 477.114 609.152 477.114 610.172C477.114 611.193 476.767 612.028 476.074 612.677C475.38 613.327 474.443 613.651 473.261 613.651H471.862ZM471.862 608.393V612.23H472.99C473.737 612.23 474.306 612.057 474.697 611.71C475.087 611.364 475.283 610.875 475.283 610.246C475.283 609.01 474.565 608.393 473.129 608.393H471.862ZM485.375 617.46H483.676V613.358C483.676 611.874 483.181 611.132 482.189 611.132C481.691 611.132 481.271 611.347 480.93 611.776C480.588 612.206 480.417 612.755 480.417 613.424V617.46H478.71V606.356H480.417V611.205H480.446C481.013 610.258 481.823 609.784 482.878 609.784C484.543 609.784 485.375 610.802 485.375 612.838V617.46ZM490.766 617.636C489.609 617.636 488.684 617.287 487.99 616.588C487.302 615.885 486.958 614.955 486.958 613.798C486.958 612.538 487.316 611.554 488.034 610.846C488.757 610.138 489.729 609.784 490.949 609.784C492.121 609.784 493.034 610.128 493.688 610.817C494.343 611.505 494.67 612.46 494.67 613.681C494.67 614.877 494.316 615.836 493.608 616.559C492.905 617.277 491.958 617.636 490.766 617.636ZM490.847 611.139C490.183 611.139 489.658 611.371 489.272 611.835C488.886 612.299 488.693 612.938 488.693 613.754C488.693 614.54 488.889 615.16 489.279 615.614C489.67 616.063 490.192 616.288 490.847 616.288C491.516 616.288 492.028 616.066 492.385 615.622C492.746 615.177 492.927 614.545 492.927 613.725C492.927 612.899 492.746 612.262 492.385 611.813C492.028 611.364 491.516 611.139 490.847 611.139ZM500.361 617.379C500.029 617.545 499.592 617.628 499.05 617.628C497.595 617.628 496.867 616.93 496.867 615.534V611.293H495.615V609.96H496.867V608.224L498.566 607.741V609.96H500.361V611.293H498.566V615.043C498.566 615.487 498.647 615.805 498.808 615.995C498.969 616.186 499.238 616.281 499.614 616.281C499.902 616.281 500.151 616.198 500.361 616.032V617.379ZM505.063 617.636C503.906 617.636 502.98 617.287 502.287 616.588C501.599 615.885 501.254 614.955 501.254 613.798C501.254 612.538 501.613 611.554 502.331 610.846C503.054 610.138 504.025 609.784 505.246 609.784C506.418 609.784 507.331 610.128 507.985 610.817C508.64 611.505 508.967 612.46 508.967 613.681C508.967 614.877 508.613 615.836 507.905 616.559C507.202 617.277 506.254 617.636 505.063 617.636ZM505.144 611.139C504.479 611.139 503.955 611.371 503.569 611.835C503.183 612.299 502.99 612.938 502.99 613.754C502.99 614.54 503.186 615.16 503.576 615.614C503.967 616.063 504.489 616.288 505.144 616.288C505.812 616.288 506.325 616.066 506.682 615.622C507.043 615.177 507.224 614.545 507.224 613.725C507.224 612.899 507.043 612.262 506.682 611.813C506.325 611.364 505.812 611.139 505.144 611.139ZM510.234 617.226V615.651C510.869 616.134 511.569 616.376 512.336 616.376C513.361 616.376 513.874 616.073 513.874 615.468C513.874 615.297 513.83 615.153 513.742 615.036C513.654 614.914 513.535 614.806 513.383 614.713C513.237 614.621 513.061 614.538 512.856 614.464C512.656 614.391 512.431 614.308 512.182 614.215C511.875 614.093 511.596 613.964 511.347 613.827C511.103 613.69 510.898 613.537 510.732 613.366C510.571 613.19 510.449 612.992 510.366 612.772C510.283 612.553 510.241 612.296 510.241 612.003C510.241 611.642 510.327 611.325 510.498 611.051C510.668 610.773 510.898 610.541 511.186 610.355C511.474 610.165 511.801 610.023 512.167 609.931C512.534 609.833 512.912 609.784 513.303 609.784C513.996 609.784 514.616 609.889 515.163 610.099V611.586C514.636 611.225 514.03 611.044 513.347 611.044C513.132 611.044 512.937 611.066 512.761 611.11C512.59 611.154 512.443 611.215 512.321 611.293C512.199 611.371 512.104 611.466 512.036 611.579C511.967 611.686 511.933 611.806 511.933 611.938C511.933 612.099 511.967 612.235 512.036 612.348C512.104 612.46 512.204 612.56 512.336 612.648C512.473 612.731 512.634 612.809 512.819 612.882C513.01 612.951 513.227 613.026 513.471 613.109C513.793 613.241 514.082 613.375 514.335 613.512C514.594 613.649 514.814 613.805 514.995 613.981C515.175 614.152 515.314 614.352 515.412 614.582C515.51 614.806 515.559 615.075 515.559 615.387C515.559 615.768 515.471 616.1 515.295 616.383C515.119 616.667 514.885 616.901 514.592 617.086C514.299 617.272 513.959 617.409 513.574 617.497C513.193 617.589 512.79 617.636 512.365 617.636C511.545 617.636 510.834 617.499 510.234 617.226Z" fill="#18191A"/>
<path opacity="0.6" d="M560.625 617.46H558.897V610.663C558.897 610.106 558.931 609.425 559 608.62H558.97C558.863 609.079 558.768 609.408 558.685 609.608L555.55 617.46H554.349L551.207 609.667C551.119 609.438 551.026 609.088 550.928 608.62H550.899C550.938 609.04 550.958 609.726 550.958 610.678V617.46H549.346V606.957H551.8L554.561 613.952C554.771 614.489 554.908 614.889 554.971 615.153H555.008C555.188 614.601 555.335 614.191 555.447 613.922L558.26 606.957H560.625V617.46ZM566.353 617.636C565.196 617.636 564.271 617.287 563.577 616.588C562.889 615.885 562.544 614.955 562.544 613.798C562.544 612.538 562.903 611.554 563.621 610.846C564.344 610.138 565.315 609.784 566.536 609.784C567.708 609.784 568.621 610.128 569.275 610.817C569.93 611.505 570.257 612.46 570.257 613.681C570.257 614.877 569.903 615.836 569.195 616.559C568.492 617.277 567.544 617.636 566.353 617.636ZM566.434 611.139C565.77 611.139 565.245 611.371 564.859 611.835C564.473 612.299 564.28 612.938 564.28 613.754C564.28 614.54 564.476 615.16 564.866 615.614C565.257 616.063 565.779 616.288 566.434 616.288C567.103 616.288 567.615 616.066 567.972 615.622C568.333 615.177 568.514 614.545 568.514 613.725C568.514 612.899 568.333 612.262 567.972 611.813C567.615 611.364 567.103 611.139 566.434 611.139ZM576.343 611.579C576.138 611.417 575.843 611.337 575.457 611.337C574.954 611.337 574.534 611.564 574.197 612.018C573.86 612.472 573.692 613.09 573.692 613.871V617.46H571.993V609.96H573.692V611.505H573.721C573.887 610.978 574.141 610.568 574.483 610.275C574.83 609.977 575.215 609.828 575.64 609.828C575.948 609.828 576.182 609.875 576.343 609.967V611.579ZM583.763 614.171H578.65C578.67 614.865 578.882 615.399 579.288 615.775C579.698 616.151 580.259 616.339 580.972 616.339C581.773 616.339 582.508 616.1 583.177 615.622V616.991C582.493 617.421 581.59 617.636 580.467 617.636C579.363 617.636 578.497 617.296 577.867 616.618C577.242 615.934 576.929 614.975 576.929 613.739C576.929 612.572 577.273 611.623 577.962 610.89C578.655 610.153 579.515 609.784 580.54 609.784C581.565 609.784 582.359 610.114 582.92 610.773C583.482 611.432 583.763 612.348 583.763 613.52V614.171ZM582.122 612.97C582.117 612.36 581.973 611.886 581.69 611.549C581.407 611.208 581.016 611.037 580.518 611.037C580.03 611.037 579.615 611.215 579.273 611.571C578.936 611.928 578.729 612.394 578.65 612.97H582.122Z" fill="#18191A"/>
<path opacity="0.6" d="M596.27 615.16C596.155 615.159 596.042 615.134 595.938 615.086C595.833 615.038 595.741 614.968 595.666 614.88L592.533 611.305C592.397 611.147 592.309 610.952 592.28 610.745C592.251 610.538 592.282 610.327 592.369 610.137C592.441 609.968 592.561 609.823 592.713 609.72C592.866 609.618 593.046 609.562 593.23 609.56H599.31C599.494 609.562 599.673 609.617 599.826 609.72C599.978 609.822 600.098 609.967 600.169 610.136C600.257 610.325 600.289 610.536 600.261 610.743C600.232 610.949 600.145 611.144 600.009 611.302L596.875 614.88C596.8 614.968 596.707 615.038 596.603 615.086C596.498 615.134 596.385 615.159 596.27 615.16Z" fill="#18191A"/>
</g>
<g clip-path="url(#clip4_326_15879)">
<rect opacity="0.1" x="1170" y="593.921" width="48" height="36" fill="#18191A"/>
<path opacity="0.9" d="M1194 613.626C1194.92 613.626 1195.67 612.88 1195.67 611.96C1195.67 611.039 1194.92 610.293 1194 610.293C1193.08 610.293 1192.33 611.039 1192.33 611.96C1192.33 612.88 1193.08 613.626 1194 613.626Z" fill="#18191A"/>
<path opacity="0.9" d="M1199 613.626C1199.92 613.626 1200.67 612.88 1200.67 611.96C1200.67 611.039 1199.92 610.293 1199 610.293C1198.08 610.293 1197.33 611.039 1197.33 611.96C1197.33 612.88 1198.08 613.626 1199 613.626Z" fill="#18191A"/>
<path opacity="0.9" d="M1189 613.626C1189.92 613.626 1190.67 612.88 1190.67 611.96C1190.67 611.039 1189.92 610.293 1189 610.293C1188.08 610.293 1187.33 611.039 1187.33 611.96C1187.33 612.88 1188.08 613.626 1189 613.626Z" fill="#18191A"/>
</g>
</g>
</g>
<defs>
<filter id="filter0_d_326_15879" x="-337" y="580.96" width="1924" height="64" filterUnits="userSpaceOnUse" color-interpolation-filters="sRGB">
<feFlood flood-opacity="0" result="BackgroundImageFix"/>
<feColorMatrix in="SourceAlpha" type="matrix" values="0 0 0 0 0 0 0 0 0 0 0 0 0 0 0 0 0 0 127 0" result="hardAlpha"/>
<feOffset dy="1"/>
<feGaussianBlur stdDeviation="1"/>
<feComposite in2="hardAlpha" operator="out"/>
<feColorMatrix type="matrix" values="0 0 0 0 0 0 0 0 0 0 0 0 0 0 0 0 0 0 0.1 0"/>
<feBlend mode="normal" in2="BackgroundImageFix" result="effect1_dropShadow_326_15879"/>
<feBlend mode="normal" in="SourceGraphic" in2="effect1_dropShadow_326_15879" result="shape"/>
</filter>
<linearGradient id="paint0_linear_326_15879" x1="625" y1="0" x2="625" y2="582" gradientUnits="userSpaceOnUse">
<stop stop-color="white"/>
<stop offset="1" stop-color="white" stop-opacity="0"/>
</linearGradient>
<clipPath id="clip0_326_15879">
<rect width="1250" height="642" fill="white"/>
</clipPath>
<clipPath id="clip1_326_15879">
<rect x="1028.83" y="508.96" width="78" height="36" rx="6" fill="white"/>
</clipPath>
<clipPath id="clip2_326_15879">
<rect x="1114.83" y="508.96" width="103.17" height="36" rx="6" fill="white"/>
</clipPath>
<clipPath id="clip3_326_15879">
<rect width="1138" height="60" fill="white" transform="translate(32 581.96)"/>
</clipPath>
<clipPath id="clip4_326_15879">
<rect x="1170" y="593.96" width="48" height="36" rx="6" fill="white"/>
</clipPath>
</defs>
</svg>
