<svg width="84" height="58" viewBox="0 0 84 58" fill="none" xmlns="http://www.w3.org/2000/svg">
<path d="M14 7.87384V50.0952C14 52.1162 15.6465 53.7698 17.6589 53.7698H42.7775C61.7674 53.7698 70 43.095 70 28.9294C70 14.8372 61.7674 4.19922 42.7775 4.19922H17.6589C15.6465 4.19922 14 5.85279 14 7.87384Z" fill="white"/>
<path d="M30.813 14.5626V45.7601H44.3328C56.6085 45.7601 61.9323 38.7968 61.9323 28.9488C61.9323 19.5234 56.6085 12.2109 44.3328 12.2109H33.1547C31.8558 12.2109 30.813 13.2765 30.813 14.5626Z" fill="#CC0066"/>
<path d="M42.7774 50.4078H20.9335C18.9943 50.4078 17.4209 48.8277 17.4209 46.8801V11.1077C17.4209 9.16017 18.9943 7.58008 20.9335 7.58008H42.7774C63.5053 7.58008 66.597 20.9741 66.597 28.948C66.597 42.7829 58.1266 50.4078 42.7774 50.4078ZM20.9335 8.75596C19.6346 8.75596 18.5918 9.80322 18.5918 11.1077V46.8801C18.5918 48.1846 19.6346 49.2319 20.9335 49.2319H42.7774C57.3765 49.2319 65.4262 42.0296 65.4262 28.948C65.4262 11.3833 51.2295 8.75596 42.7774 8.75596H20.9335Z" fill="black"/>
<path d="M35.5693 24.741C36.045 24.741 36.484 24.8145 36.9048 24.9615C37.3256 25.1085 37.6732 25.3474 37.9842 25.6413C38.2769 25.9536 38.5147 26.3395 38.6977 26.7804C38.8623 27.2398 38.9538 27.7726 38.9538 28.3973C38.9538 28.9485 38.8807 29.4445 38.7526 29.9039C38.6062 30.3632 38.405 30.7674 38.1306 31.0981C37.8562 31.4288 37.5085 31.686 37.0878 31.8882C36.667 32.0719 36.173 32.1821 35.6059 32.1821H32.4043V24.7227H35.5693V24.741ZM35.4596 30.8225C35.6974 30.8225 35.9169 30.7858 36.1547 30.7123C36.3743 30.6388 36.5755 30.5102 36.7401 30.3264C36.9048 30.1427 37.0512 29.9222 37.1609 29.6283C37.2707 29.3343 37.3256 29.0036 37.3256 28.581C37.3256 28.2136 37.289 27.8645 37.2158 27.5705C37.1426 27.2765 37.0146 27.0009 36.8499 26.7988C36.6853 26.5967 36.4657 26.413 36.1913 26.3027C35.9169 26.1925 35.5876 26.1374 35.1851 26.1374H34.0143V30.8409H35.4596V30.8225Z" fill="white"/>
<path d="M45.5584 24.741V26.119H41.6433V27.7175H45.2474V28.9852H41.6433V30.8041H45.6499V32.1821H40.0151V24.7227H45.5584V24.741Z" fill="white"/>
<path d="M51.1563 24.7402L53.9371 32.1997H52.2357L51.6685 30.5461H48.8877L48.3023 32.1997H46.6558L49.4549 24.7402H51.1563ZM51.2478 29.3151L50.3147 26.5775H50.2964L49.3268 29.3151H51.2478Z" fill="white"/>
<path d="M56.5901 24.7402V30.8217H60.2125V32.1997H54.9619V24.7402H56.5901Z" fill="white"/>
<path d="M24.7024 31.9068C26.5918 31.9068 28.1235 30.3685 28.1235 28.471C28.1235 26.5735 26.5918 25.0352 24.7024 25.0352C22.813 25.0352 21.2812 26.5735 21.2812 28.471C21.2812 30.3685 22.813 31.9068 24.7024 31.9068Z" fill="black"/>
<path d="M27.2819 45.7596C24.4097 45.7596 22.1045 43.4262 22.1045 40.56V36.4995C22.1045 35.0664 23.2571 33.8906 24.7024 33.8906C26.1294 33.8906 27.3002 35.0481 27.3002 36.4995V45.7596H27.2819Z" fill="black"/>
</svg>
