<svg width="84" height="58" viewBox="0 0 84 58" fill="none" xmlns="http://www.w3.org/2000/svg">
<path fill-rule="evenodd" clip-rule="evenodd" d="M10.7359 37.4046H7.24121V21.75H10.7359V37.4046ZM19.4643 21.75H16.0444C16.0444 24.6308 14.7557 27.275 12.5087 29.0049L11.1538 30.0478L16.4037 37.4052H20.7201L15.8895 30.6352C18.1793 28.2918 19.4643 25.1391 19.4643 21.75ZM25.039 37.3994H21.7387V21.7521H25.039V37.3994ZM35.0143 26.5765V27.2689C34.1235 26.6443 33.0484 26.2773 31.8887 26.2773C28.8196 26.2773 26.3317 28.8343 26.3317 31.9886C26.3317 35.1429 28.8196 37.7 31.8887 37.7C33.0484 37.7 34.1235 37.333 35.0143 36.7086V37.4003H38.1676V26.5765H35.0143ZM35.0039 31.9886C35.0039 33.5267 33.7247 34.7735 32.1467 34.7735C30.5689 34.7735 29.2896 33.5267 29.2896 31.9886C29.2896 30.4506 30.5689 29.204 32.1467 29.204C33.7247 29.204 35.0039 30.4506 35.0039 31.9886ZM68.2795 27.2689V26.5765H71.4326V37.4003H68.2795V36.7086C67.3887 37.333 66.3135 37.7 65.1538 37.7C62.0847 37.7 59.5967 35.1429 59.5967 31.9886C59.5967 28.8343 62.0847 26.2773 65.1538 26.2773C66.3135 26.2773 67.3887 26.6443 68.2795 27.2689ZM65.4118 34.7735C66.9898 34.7735 68.2689 33.5267 68.2689 31.9886C68.2689 30.4506 66.9898 29.204 65.4118 29.204C63.8339 29.204 62.5548 30.4506 62.5548 31.9886C62.5548 33.5267 63.8339 34.7735 65.4118 34.7735ZM72.8011 35.5949C72.8011 34.4717 73.6869 33.5612 74.7797 33.5612C75.8725 33.5612 76.7585 34.4717 76.7585 35.5949C76.7585 36.7179 75.8725 37.6285 74.7797 37.6285C73.6869 37.6285 72.8011 36.7179 72.8011 35.5949ZM53.9936 26.2853C52.7341 26.2853 51.542 26.6872 50.7451 27.796V26.5771H47.6055V37.4003H50.7836V31.7123C50.7836 30.0664 51.8576 29.2604 53.1506 29.2604C54.5364 29.2604 55.333 30.1112 55.333 31.6899V37.4003H58.4824V30.5172C58.4824 27.9983 56.5338 26.2853 53.9936 26.2853ZM43.0452 26.5766V27.9863C43.6773 27.1407 44.8551 26.5772 46.1355 26.5772V29.7268L46.1273 29.7266L46.118 29.7261C46.1114 29.7258 46.1048 29.7254 46.0981 29.7254C44.8505 29.7254 43.0525 30.6419 43.0525 32.3468V37.4003H39.8169V26.5766H43.0452Z" fill="#17120F"/>
</svg>
