<svg width="84" height="58" viewBox="0 0 84 58" fill="none" xmlns="http://www.w3.org/2000/svg">
<path d="M49.6904 42.0154H34.6992V15.2422H49.6904V42.0154Z" fill="#FF5F00"/>
<path d="M35.6599 28.6268C35.6599 23.1957 38.2188 18.3579 42.2037 15.2402C39.2897 12.9603 35.612 11.5996 31.6151 11.5996C22.153 11.5996 14.4829 19.2228 14.4829 28.6268C14.4829 38.0307 22.153 45.6539 31.6151 45.6539C35.612 45.6539 39.2897 44.2932 42.2037 42.0134C38.2188 38.8957 35.6599 34.0578 35.6599 28.6268Z" fill="#EB001B"/>
<path d="M69.9094 28.6268C69.9094 38.0307 62.2392 45.6539 52.7771 45.6539C48.7803 45.6539 45.1026 44.2932 42.1875 42.0134C46.1734 38.8957 48.7323 34.0578 48.7323 28.6268C48.7323 23.1957 46.1734 18.3579 42.1875 15.2402C45.1026 12.9603 48.7803 11.5996 52.7771 11.5996C62.2392 11.5996 69.9094 19.2228 69.9094 28.6268Z" fill="#F79E1B"/>
</svg>
