<svg width="694" height="282" viewBox="0 0 694 282" fill="none" xmlns="http://www.w3.org/2000/svg">
<rect x="0.5" y="0.5" width="693" height="281" rx="10.5" fill="white"/>
<rect x="0.5" y="0.5" width="693" height="281" rx="10.5" stroke="#B4B4B4"/>
<mask id="path-2-inside-1_335_11443" fill="white">
<path d="M31 25H663V94H31V25Z"/>
</mask>
<path d="M663 93H31V95H663V93Z" fill="black" fill-opacity="0.2" mask="url(#path-2-inside-1_335_11443)"/>
<rect x="31" y="25" width="50" height="49" rx="24.5" fill="#E8E8E8"/>
<path d="M46.877 48.4395H65.627C65.8756 48.4395 66.1141 48.5382 66.2899 48.714C66.4657 48.8899 66.5645 49.1283 66.5645 49.377C66.5645 49.6256 66.4657 49.8641 66.2899 50.0399C66.1141 50.2157 65.8756 50.3145 65.627 50.3145H46.877C46.6283 50.3145 46.3899 50.2157 46.214 50.0399C46.0382 49.8641 45.9395 49.6256 45.9395 49.377C45.9395 49.1283 46.0382 48.8899 46.214 48.714C46.3899 48.5382 46.6283 48.4395 46.877 48.4395Z" fill="black"/>
<path d="M47.2648 49.3762L55.0404 57.1499C55.2165 57.326 55.3154 57.5647 55.3154 57.8137C55.3154 58.0626 55.2165 58.3014 55.0404 58.4774C54.8644 58.6535 54.6256 58.7524 54.3767 58.7524C54.1277 58.7524 53.889 58.6535 53.7129 58.4774L45.2754 50.0399C45.1881 49.9528 45.1189 49.8494 45.0716 49.7355C45.0243 49.6216 45 49.4995 45 49.3762C45 49.2529 45.0243 49.1308 45.0716 49.0169C45.1189 48.903 45.1881 48.7995 45.2754 48.7124L53.7129 40.2749C53.889 40.0989 54.1277 40 54.3767 40C54.6256 40 54.8644 40.0989 55.0404 40.2749C55.2165 40.451 55.3154 40.6897 55.3154 40.9387C55.3154 41.1876 55.2165 41.4264 55.0404 41.6024L47.2648 49.3762Z" fill="black"/>
<path d="M291.221 49.3182C291.221 51.5388 290.8 53.428 289.958 54.9858C289.123 56.5436 287.983 57.7334 286.538 58.5554C285.1 59.3707 283.482 59.7784 281.686 59.7784C279.876 59.7784 278.252 59.3674 276.814 58.5455C275.375 57.7235 274.238 56.5336 273.403 54.9759C272.568 53.4181 272.15 51.5322 272.15 49.3182C272.15 47.0975 272.568 45.2083 273.403 43.6506C274.238 42.0928 275.375 40.9062 276.814 40.0909C278.252 39.2689 279.876 38.858 281.686 38.858C283.482 38.858 285.1 39.2689 286.538 40.0909C287.983 40.9062 289.123 42.0928 289.958 43.6506C290.8 45.2083 291.221 47.0975 291.221 49.3182ZM286.856 49.3182C286.856 47.8797 286.641 46.6667 286.21 45.679C285.786 44.6913 285.186 43.9422 284.41 43.4318C283.635 42.9214 282.726 42.6662 281.686 42.6662C280.645 42.6662 279.737 42.9214 278.961 43.4318C278.186 43.9422 277.583 44.6913 277.152 45.679C276.727 46.6667 276.515 47.8797 276.515 49.3182C276.515 50.7566 276.727 51.9697 277.152 52.9574C277.583 53.9451 278.186 54.6941 278.961 55.2045C279.737 55.715 280.645 55.9702 281.686 55.9702C282.726 55.9702 283.635 55.715 284.41 55.2045C285.186 54.6941 285.786 53.9451 286.21 52.9574C286.641 51.9697 286.856 50.7566 286.856 49.3182ZM294.331 59.5V44.2273H298.438V46.892H298.597C298.875 45.9441 299.342 45.2282 299.999 44.7443C300.655 44.2538 301.411 44.0085 302.266 44.0085C302.478 44.0085 302.706 44.0218 302.952 44.0483C303.197 44.0748 303.412 44.1113 303.598 44.1577V47.9162C303.399 47.8565 303.124 47.8035 302.773 47.7571C302.421 47.7107 302.1 47.6875 301.808 47.6875C301.185 47.6875 300.628 47.8234 300.138 48.0952C299.654 48.3603 299.269 48.7315 298.984 49.2088C298.706 49.6861 298.567 50.2363 298.567 50.8594V59.5H294.331ZM310.705 59.7486C309.545 59.7486 308.494 59.4503 307.553 58.8537C306.618 58.2505 305.876 57.3655 305.326 56.1989C304.782 55.0256 304.51 53.5871 304.51 51.8835C304.51 50.1335 304.792 48.6785 305.355 47.5185C305.919 46.3518 306.668 45.4801 307.603 44.9034C308.544 44.3201 309.575 44.0284 310.695 44.0284C311.55 44.0284 312.263 44.1742 312.833 44.4659C313.409 44.7509 313.873 45.1089 314.225 45.5398C314.583 45.964 314.855 46.3816 315.04 46.7926H315.169V39.1364H319.395V59.5H315.219V57.054H315.04C314.841 57.4782 314.56 57.8991 314.195 58.3168C313.837 58.7277 313.37 59.0691 312.793 59.3409C312.223 59.6127 311.527 59.7486 310.705 59.7486ZM312.047 56.3778C312.73 56.3778 313.307 56.1922 313.777 55.821C314.255 55.4432 314.619 54.9162 314.871 54.2401C315.13 53.5639 315.259 52.7718 315.259 51.8636C315.259 50.9555 315.133 50.1667 314.881 49.4972C314.629 48.8277 314.265 48.3106 313.787 47.946C313.31 47.5814 312.73 47.3991 312.047 47.3991C311.351 47.3991 310.765 47.5881 310.287 47.9659C309.81 48.3437 309.449 48.8674 309.203 49.5369C308.958 50.2064 308.836 50.982 308.836 51.8636C308.836 52.7519 308.958 53.5374 309.203 54.2202C309.455 54.8963 309.817 55.4266 310.287 55.8111C310.765 56.1889 311.351 56.3778 312.047 56.3778ZM329.838 59.7983C328.267 59.7983 326.915 59.4801 325.781 58.8438C324.654 58.2008 323.786 57.2926 323.176 56.1193C322.566 54.9394 322.261 53.544 322.261 51.9332C322.261 50.3622 322.566 48.9834 323.176 47.7969C323.786 46.6103 324.644 45.6856 325.751 45.0227C326.865 44.3598 328.171 44.0284 329.669 44.0284C330.677 44.0284 331.615 44.1908 332.483 44.5156C333.358 44.8338 334.12 45.3144 334.77 45.9574C335.426 46.6004 335.937 47.4091 336.301 48.3835C336.666 49.3513 336.848 50.4848 336.848 51.7841V52.9474H323.952V50.3224H332.861C332.861 49.7126 332.728 49.1723 332.463 48.7017C332.198 48.2311 331.83 47.8632 331.359 47.598C330.895 47.3262 330.355 47.1903 329.739 47.1903C329.096 47.1903 328.526 47.3395 328.028 47.6378C327.538 47.9295 327.153 48.3239 326.875 48.821C326.597 49.3116 326.454 49.8584 326.447 50.4616V52.9574C326.447 53.7131 326.587 54.366 326.865 54.9162C327.15 55.4664 327.551 55.8906 328.068 56.1889C328.585 56.4872 329.198 56.6364 329.908 56.6364C330.378 56.6364 330.809 56.5701 331.2 56.4375C331.591 56.3049 331.926 56.1061 332.205 55.8409C332.483 55.5758 332.695 55.2509 332.841 54.8665L336.759 55.125C336.56 56.0663 336.152 56.8883 335.536 57.5909C334.926 58.2869 334.137 58.8305 333.169 59.2216C332.208 59.6061 331.098 59.7983 329.838 59.7983ZM339.612 59.5V44.2273H343.719V46.892H343.878C344.156 45.9441 344.624 45.2282 345.28 44.7443C345.936 44.2538 346.692 44.0085 347.547 44.0085C347.759 44.0085 347.988 44.0218 348.233 44.0483C348.478 44.0748 348.694 44.1113 348.879 44.1577V47.9162C348.68 47.8565 348.405 47.8035 348.054 47.7571C347.703 47.7107 347.381 47.6875 347.089 47.6875C346.466 47.6875 345.91 47.8234 345.419 48.0952C344.935 48.3603 344.551 48.7315 344.266 49.2088C343.987 49.6861 343.848 50.2363 343.848 50.8594V59.5H339.612ZM357.629 59.5V39.1364H371.112V42.6861H361.935V47.5384H370.217V51.0881H361.935V59.5H357.629ZM379.708 59.7983C378.164 59.7983 376.828 59.4702 375.701 58.8139C374.581 58.151 373.716 57.2296 373.106 56.0497C372.496 54.8632 372.191 53.4877 372.191 51.9233C372.191 50.3456 372.496 48.9669 373.106 47.7869C373.716 46.6004 374.581 45.679 375.701 45.0227C376.828 44.3598 378.164 44.0284 379.708 44.0284C381.253 44.0284 382.585 44.3598 383.705 45.0227C384.832 45.679 385.701 46.6004 386.31 47.7869C386.92 48.9669 387.225 50.3456 387.225 51.9233C387.225 53.4877 386.92 54.8632 386.31 56.0497C385.701 57.2296 384.832 58.151 383.705 58.8139C382.585 59.4702 381.253 59.7983 379.708 59.7983ZM379.728 56.517C380.431 56.517 381.017 56.3182 381.488 55.9205C381.959 55.5161 382.313 54.9659 382.552 54.2699C382.797 53.5739 382.92 52.7817 382.92 51.8935C382.92 51.0052 382.797 50.2131 382.552 49.517C382.313 48.821 381.959 48.2708 381.488 47.8665C381.017 47.4621 380.431 47.2599 379.728 47.2599C379.019 47.2599 378.422 47.4621 377.938 47.8665C377.461 48.2708 377.1 48.821 376.854 49.517C376.616 50.2131 376.496 51.0052 376.496 51.8935C376.496 52.7817 376.616 53.5739 376.854 54.2699C377.1 54.9659 377.461 55.5161 377.938 55.9205C378.422 56.3182 379.019 56.517 379.728 56.517ZM396.88 59.7983C395.335 59.7983 394 59.4702 392.873 58.8139C391.753 58.151 390.888 57.2296 390.278 56.0497C389.668 54.8632 389.363 53.4877 389.363 51.9233C389.363 50.3456 389.668 48.9669 390.278 47.7869C390.888 46.6004 391.753 45.679 392.873 45.0227C394 44.3598 395.335 44.0284 396.88 44.0284C398.424 44.0284 399.757 44.3598 400.877 45.0227C402.004 45.679 402.872 46.6004 403.482 47.7869C404.092 48.9669 404.397 50.3456 404.397 51.9233C404.397 53.4877 404.092 54.8632 403.482 56.0497C402.872 57.2296 402.004 58.151 400.877 58.8139C399.757 59.4702 398.424 59.7983 396.88 59.7983ZM396.9 56.517C397.603 56.517 398.189 56.3182 398.66 55.9205C399.13 55.5161 399.485 54.9659 399.724 54.2699C399.969 53.5739 400.092 52.7817 400.092 51.8935C400.092 51.0052 399.969 50.2131 399.724 49.517C399.485 48.821 399.13 48.2708 398.66 47.8665C398.189 47.4621 397.603 47.2599 396.9 47.2599C396.191 47.2599 395.594 47.4621 395.11 47.8665C394.633 48.2708 394.272 48.821 394.026 49.517C393.788 50.2131 393.668 51.0052 393.668 51.8935C393.668 52.7817 393.788 53.5739 394.026 54.2699C394.272 54.9659 394.633 55.5161 395.11 55.9205C395.594 56.3182 396.191 56.517 396.9 56.517ZM412.779 59.7486C411.619 59.7486 410.568 59.4503 409.627 58.8537C408.692 58.2505 407.95 57.3655 407.4 56.1989C406.856 55.0256 406.585 53.5871 406.585 51.8835C406.585 50.1335 406.866 48.6785 407.43 47.5185C407.993 46.3518 408.742 45.4801 409.677 44.9034C410.618 44.3201 411.649 44.0284 412.769 44.0284C413.624 44.0284 414.337 44.1742 414.907 44.4659C415.484 44.7509 415.948 45.1089 416.299 45.5398C416.657 45.964 416.929 46.3816 417.114 46.7926H417.244V39.1364H421.469V59.5H417.293V57.054H417.114C416.915 57.4782 416.634 57.8991 416.269 58.3168C415.911 58.7277 415.444 59.0691 414.867 59.3409C414.297 59.6127 413.601 59.7486 412.779 59.7486ZM414.121 56.3778C414.804 56.3778 415.381 56.1922 415.852 55.821C416.329 55.4432 416.693 54.9162 416.945 54.2401C417.204 53.5639 417.333 52.7718 417.333 51.8636C417.333 50.9555 417.207 50.1667 416.955 49.4972C416.703 48.8277 416.339 48.3106 415.862 47.946C415.384 47.5814 414.804 47.3991 414.121 47.3991C413.425 47.3991 412.839 47.5881 412.362 47.9659C411.884 48.3437 411.523 48.8674 411.278 49.5369C411.032 50.2064 410.91 50.982 410.91 51.8636C410.91 52.7519 411.032 53.5374 411.278 54.2202C411.53 54.8963 411.891 55.4266 412.362 55.8111C412.839 56.1889 413.425 56.3778 414.121 56.3778Z" fill="black"/>
<rect x="613" y="25" width="50" height="49" rx="24.5" fill="#E8E8E8"/>
<path d="M647 40L629 58M629 40L647 58" stroke="black" stroke-width="2" stroke-linecap="round" stroke-linejoin="round"/>
<path d="M36.3949 161L31.4688 143.545H34.8693L38.0142 156.372H38.1761L41.5341 143.545H44.6278L47.9943 156.381H48.1477L51.2926 143.545H54.6932L49.767 161H46.6477L43.1534 148.753H43.017L39.5142 161H36.3949ZM59.8345 153.33V161H56.7493V143.545H59.7663V150.134H59.9197C60.2266 149.395 60.701 148.812 61.343 148.386C61.9908 147.955 62.8146 147.739 63.8146 147.739C64.7237 147.739 65.5163 147.929 66.1925 148.31C66.8686 148.69 67.3913 149.247 67.7607 149.98C68.1357 150.713 68.3232 151.608 68.3232 152.665V161H65.2379V153.142C65.2379 152.261 65.0107 151.577 64.5561 151.088C64.1072 150.594 63.4766 150.347 62.6641 150.347C62.1186 150.347 61.63 150.466 61.1982 150.705C60.772 150.937 60.4368 151.276 60.1925 151.719C59.9538 152.162 59.8345 152.699 59.8345 153.33ZM77.2635 161.256C75.951 161.256 74.8175 160.983 73.8629 160.438C72.9141 159.886 72.1839 159.108 71.6726 158.102C71.1612 157.091 70.9055 155.901 70.9055 154.531C70.9055 153.185 71.1612 152.003 71.6726 150.986C72.1896 149.963 72.9112 149.168 73.8374 148.599C74.7635 148.026 75.8516 147.739 77.1016 147.739C77.9084 147.739 78.6697 147.869 79.3857 148.131C80.1072 148.386 80.7436 148.784 81.2947 149.324C81.8516 149.864 82.2891 150.551 82.6072 151.386C82.9254 152.216 83.0845 153.205 83.0845 154.352V155.298H72.3544V153.219H80.1271C80.1214 152.628 79.9936 152.102 79.7436 151.642C79.4936 151.176 79.1442 150.81 78.6953 150.543C78.2521 150.276 77.7351 150.142 77.1442 150.142C76.5135 150.142 75.9595 150.295 75.4822 150.602C75.005 150.903 74.6328 151.301 74.3658 151.795C74.1044 152.284 73.9709 152.821 73.9652 153.406V155.222C73.9652 155.983 74.1044 156.636 74.3828 157.182C74.6612 157.722 75.0504 158.136 75.5504 158.426C76.0504 158.71 76.6357 158.852 77.3061 158.852C77.755 158.852 78.1612 158.79 78.5249 158.665C78.8885 158.534 79.2038 158.344 79.4709 158.094C79.7379 157.844 79.9396 157.534 80.076 157.165L82.9567 157.489C82.7749 158.25 82.4283 158.915 81.9169 159.483C81.4112 160.045 80.7635 160.483 79.9737 160.795C79.1839 161.102 78.2805 161.256 77.2635 161.256ZM85.6946 161V147.909H88.6861V150.091H88.8224C89.0611 149.335 89.4702 148.753 90.0497 148.344C90.6349 147.929 91.3026 147.722 92.0526 147.722C92.223 147.722 92.4134 147.73 92.6236 147.747C92.8395 147.759 93.0185 147.778 93.1605 147.807V150.645C93.0298 150.599 92.8224 150.56 92.5384 150.526C92.2599 150.486 91.9901 150.466 91.7287 150.466C91.1662 150.466 90.6605 150.588 90.2116 150.832C89.7685 151.071 89.419 151.403 89.1634 151.83C88.9077 152.256 88.7798 152.747 88.7798 153.304V161H85.6946ZM100.467 161.256C99.1541 161.256 98.0206 160.983 97.0661 160.438C96.1172 159.886 95.3871 159.108 94.8757 158.102C94.3643 157.091 94.1087 155.901 94.1087 154.531C94.1087 153.185 94.3643 152.003 94.8757 150.986C95.3928 149.963 96.1143 149.168 97.0405 148.599C97.9666 148.026 99.0547 147.739 100.305 147.739C101.112 147.739 101.873 147.869 102.589 148.131C103.31 148.386 103.947 148.784 104.498 149.324C105.055 149.864 105.492 150.551 105.81 151.386C106.129 152.216 106.288 153.205 106.288 154.352V155.298H95.5575V153.219H103.33C103.325 152.628 103.197 152.102 102.947 151.642C102.697 151.176 102.347 150.81 101.898 150.543C101.455 150.276 100.938 150.142 100.347 150.142C99.7166 150.142 99.1626 150.295 98.6854 150.602C98.2081 150.903 97.8359 151.301 97.5689 151.795C97.3075 152.284 97.174 152.821 97.1683 153.406V155.222C97.1683 155.983 97.3075 156.636 97.5859 157.182C97.8643 157.722 98.2536 158.136 98.7536 158.426C99.2536 158.71 99.8388 158.852 100.509 158.852C100.958 158.852 101.364 158.79 101.728 158.665C102.092 158.534 102.407 158.344 102.674 158.094C102.941 157.844 103.143 157.534 103.279 157.165L106.16 157.489C105.978 158.25 105.631 158.915 105.12 159.483C104.614 160.045 103.967 160.483 103.177 160.795C102.387 161.102 101.484 161.256 100.467 161.256ZM120.561 161.256C119.254 161.256 118.132 160.969 117.195 160.395C116.263 159.821 115.544 159.028 115.038 158.017C114.538 157 114.288 155.83 114.288 154.506C114.288 153.176 114.544 152.003 115.055 150.986C115.567 149.963 116.288 149.168 117.22 148.599C118.158 148.026 119.266 147.739 120.544 147.739C121.607 147.739 122.547 147.935 123.365 148.327C124.189 148.713 124.845 149.261 125.334 149.972C125.822 150.676 126.101 151.5 126.169 152.443H123.22C123.101 151.812 122.817 151.287 122.368 150.866C121.925 150.44 121.331 150.227 120.587 150.227C119.956 150.227 119.402 150.398 118.925 150.739C118.447 151.074 118.075 151.557 117.808 152.188C117.547 152.818 117.416 153.574 117.416 154.455C117.416 155.347 117.547 156.114 117.808 156.756C118.07 157.392 118.436 157.884 118.908 158.23C119.385 158.571 119.945 158.741 120.587 158.741C121.041 158.741 121.447 158.656 121.805 158.486C122.169 158.31 122.473 158.057 122.717 157.727C122.962 157.398 123.129 156.997 123.22 156.526H126.169C126.095 157.452 125.822 158.273 125.351 158.989C124.879 159.699 124.237 160.256 123.425 160.659C122.612 161.057 121.658 161.256 120.561 161.256ZM132.469 161.264C131.64 161.264 130.893 161.116 130.228 160.821C129.569 160.52 129.046 160.077 128.66 159.491C128.279 158.906 128.089 158.185 128.089 157.327C128.089 156.588 128.225 155.977 128.498 155.494C128.771 155.011 129.143 154.625 129.614 154.335C130.086 154.045 130.617 153.827 131.208 153.679C131.805 153.526 132.421 153.415 133.058 153.347C133.825 153.267 134.447 153.196 134.924 153.134C135.401 153.065 135.748 152.963 135.964 152.827C136.185 152.685 136.296 152.466 136.296 152.17V152.119C136.296 151.477 136.106 150.98 135.725 150.628C135.344 150.276 134.796 150.099 134.08 150.099C133.325 150.099 132.725 150.264 132.282 150.594C131.844 150.923 131.549 151.312 131.396 151.761L128.515 151.352C128.742 150.557 129.117 149.892 129.64 149.358C130.163 148.818 130.802 148.415 131.558 148.148C132.313 147.875 133.148 147.739 134.063 147.739C134.694 147.739 135.322 147.812 135.947 147.96C136.572 148.108 137.143 148.352 137.66 148.693C138.177 149.028 138.592 149.486 138.904 150.065C139.222 150.645 139.381 151.369 139.381 152.239V161H136.415V159.202H136.313C136.126 159.565 135.862 159.906 135.521 160.224C135.185 160.537 134.762 160.79 134.251 160.983C133.745 161.17 133.151 161.264 132.469 161.264ZM133.271 158.997C133.89 158.997 134.427 158.875 134.881 158.631C135.336 158.381 135.685 158.051 135.93 157.642C136.18 157.233 136.305 156.787 136.305 156.304V154.761C136.208 154.841 136.043 154.915 135.81 154.983C135.583 155.051 135.327 155.111 135.043 155.162C134.759 155.213 134.478 155.259 134.2 155.298C133.921 155.338 133.68 155.372 133.475 155.401C133.015 155.463 132.603 155.565 132.239 155.707C131.876 155.849 131.589 156.048 131.379 156.304C131.168 156.554 131.063 156.878 131.063 157.276C131.063 157.844 131.271 158.273 131.685 158.562C132.1 158.852 132.629 158.997 133.271 158.997ZM145.569 153.33V161H142.484V147.909H145.433V150.134H145.586C145.887 149.401 146.367 148.818 147.026 148.386C147.691 147.955 148.512 147.739 149.489 147.739C150.393 147.739 151.18 147.932 151.85 148.318C152.526 148.705 153.049 149.264 153.418 149.997C153.793 150.73 153.978 151.619 153.972 152.665V161H150.887V153.142C150.887 152.267 150.66 151.582 150.205 151.088C149.756 150.594 149.134 150.347 148.339 150.347C147.799 150.347 147.319 150.466 146.898 150.705C146.484 150.937 146.157 151.276 145.918 151.719C145.685 152.162 145.569 152.699 145.569 153.33ZM163.062 165.909V147.909H166.096V150.074H166.275C166.434 149.756 166.658 149.418 166.948 149.06C167.238 148.696 167.63 148.386 168.124 148.131C168.619 147.869 169.249 147.739 170.016 147.739C171.028 147.739 171.94 147.997 172.752 148.514C173.57 149.026 174.218 149.784 174.695 150.79C175.178 151.79 175.42 153.017 175.42 154.472C175.42 155.909 175.184 157.131 174.712 158.136C174.241 159.142 173.599 159.909 172.786 160.438C171.974 160.966 171.053 161.23 170.025 161.23C169.275 161.23 168.653 161.105 168.158 160.855C167.664 160.605 167.266 160.304 166.965 159.952C166.67 159.594 166.44 159.256 166.275 158.938H166.147V165.909H163.062ZM166.087 154.455C166.087 155.301 166.207 156.043 166.445 156.679C166.69 157.315 167.039 157.812 167.494 158.17C167.954 158.523 168.511 158.699 169.164 158.699C169.846 158.699 170.417 158.517 170.877 158.153C171.337 157.784 171.684 157.281 171.917 156.645C172.156 156.003 172.275 155.273 172.275 154.455C172.275 153.642 172.158 152.92 171.925 152.29C171.692 151.659 171.346 151.165 170.886 150.807C170.425 150.449 169.852 150.27 169.164 150.27C168.505 150.27 167.945 150.443 167.485 150.79C167.025 151.136 166.675 151.622 166.437 152.247C166.204 152.872 166.087 153.608 166.087 154.455ZM183.857 161.256C182.545 161.256 181.411 160.983 180.457 160.438C179.508 159.886 178.778 159.108 178.266 158.102C177.755 157.091 177.499 155.901 177.499 154.531C177.499 153.185 177.755 152.003 178.266 150.986C178.783 149.963 179.505 149.168 180.431 148.599C181.357 148.026 182.445 147.739 183.695 147.739C184.502 147.739 185.263 147.869 185.979 148.131C186.701 148.386 187.337 148.784 187.888 149.324C188.445 149.864 188.883 150.551 189.201 151.386C189.519 152.216 189.678 153.205 189.678 154.352V155.298H178.948V153.219H186.721C186.715 152.628 186.587 152.102 186.337 151.642C186.087 151.176 185.738 150.81 185.289 150.543C184.846 150.276 184.329 150.142 183.738 150.142C183.107 150.142 182.553 150.295 182.076 150.602C181.599 150.903 181.227 151.301 180.96 151.795C180.698 152.284 180.565 152.821 180.559 153.406V155.222C180.559 155.983 180.698 156.636 180.977 157.182C181.255 157.722 181.644 158.136 182.144 158.426C182.644 158.71 183.229 158.852 183.9 158.852C184.349 158.852 184.755 158.79 185.119 158.665C185.482 158.534 185.798 158.344 186.065 158.094C186.332 157.844 186.533 157.534 186.67 157.165L189.55 157.489C189.369 158.25 189.022 158.915 188.511 159.483C188.005 160.045 187.357 160.483 186.567 160.795C185.778 161.102 184.874 161.256 183.857 161.256ZM197.999 161.256C196.72 161.256 195.612 160.974 194.675 160.412C193.737 159.849 193.01 159.062 192.493 158.051C191.982 157.04 191.726 155.858 191.726 154.506C191.726 153.153 191.982 151.969 192.493 150.952C193.01 149.935 193.737 149.145 194.675 148.582C195.612 148.02 196.72 147.739 197.999 147.739C199.277 147.739 200.385 148.02 201.322 148.582C202.26 149.145 202.984 149.935 203.496 150.952C204.013 151.969 204.271 153.153 204.271 154.506C204.271 155.858 204.013 157.04 203.496 158.051C202.984 159.062 202.26 159.849 201.322 160.412C200.385 160.974 199.277 161.256 197.999 161.256ZM198.016 158.784C198.709 158.784 199.288 158.594 199.754 158.213C200.22 157.827 200.567 157.31 200.794 156.662C201.027 156.014 201.143 155.293 201.143 154.497C201.143 153.696 201.027 152.972 200.794 152.324C200.567 151.67 200.22 151.151 199.754 150.764C199.288 150.378 198.709 150.185 198.016 150.185C197.305 150.185 196.714 150.378 196.243 150.764C195.777 151.151 195.428 151.67 195.195 152.324C194.967 152.972 194.854 153.696 194.854 154.497C194.854 155.293 194.967 156.014 195.195 156.662C195.428 157.31 195.777 157.827 196.243 158.213C196.714 158.594 197.305 158.784 198.016 158.784ZM206.89 165.909V147.909H209.924V150.074H210.103C210.262 149.756 210.487 149.418 210.776 149.06C211.066 148.696 211.458 148.386 211.952 148.131C212.447 147.869 213.077 147.739 213.844 147.739C214.856 147.739 215.768 147.997 216.58 148.514C217.398 149.026 218.046 149.784 218.523 150.79C219.006 151.79 219.248 153.017 219.248 154.472C219.248 155.909 219.012 157.131 218.54 158.136C218.069 159.142 217.427 159.909 216.614 160.438C215.802 160.966 214.881 161.23 213.853 161.23C213.103 161.23 212.481 161.105 211.987 160.855C211.492 160.605 211.094 160.304 210.793 159.952C210.498 159.594 210.268 159.256 210.103 158.938H209.975V165.909H206.89ZM209.915 154.455C209.915 155.301 210.035 156.043 210.273 156.679C210.518 157.315 210.867 157.812 211.322 158.17C211.782 158.523 212.339 158.699 212.992 158.699C213.674 158.699 214.245 158.517 214.705 158.153C215.165 157.784 215.512 157.281 215.745 156.645C215.984 156.003 216.103 155.273 216.103 154.455C216.103 153.642 215.987 152.92 215.754 152.29C215.521 151.659 215.174 151.165 214.714 150.807C214.254 150.449 213.68 150.27 212.992 150.27C212.333 150.27 211.773 150.443 211.313 150.79C210.853 151.136 210.504 151.622 210.265 152.247C210.032 152.872 209.915 153.608 209.915 154.455ZM224.975 143.545V161H221.89V143.545H224.975ZM233.943 161.256C232.631 161.256 231.497 160.983 230.543 160.438C229.594 159.886 228.864 159.108 228.352 158.102C227.841 157.091 227.585 155.901 227.585 154.531C227.585 153.185 227.841 152.003 228.352 150.986C228.869 149.963 229.591 149.168 230.517 148.599C231.443 148.026 232.531 147.739 233.781 147.739C234.588 147.739 235.349 147.869 236.065 148.131C236.787 148.386 237.423 148.784 237.974 149.324C238.531 149.864 238.969 150.551 239.287 151.386C239.605 152.216 239.764 153.205 239.764 154.352V155.298H229.034V153.219H236.807C236.801 152.628 236.673 152.102 236.423 151.642C236.173 151.176 235.824 150.81 235.375 150.543C234.932 150.276 234.415 150.142 233.824 150.142C233.193 150.142 232.639 150.295 232.162 150.602C231.685 150.903 231.313 151.301 231.045 151.795C230.784 152.284 230.651 152.821 230.645 153.406V155.222C230.645 155.983 230.784 156.636 231.062 157.182C231.341 157.722 231.73 158.136 232.23 158.426C232.73 158.71 233.315 158.852 233.986 158.852C234.435 158.852 234.841 158.79 235.205 158.665C235.568 158.534 235.884 158.344 236.151 158.094C236.418 157.844 236.619 157.534 236.756 157.165L239.636 157.489C239.455 158.25 239.108 158.915 238.597 159.483C238.091 160.045 237.443 160.483 236.653 160.795C235.864 161.102 234.96 161.256 233.943 161.256ZM254.038 161.256C252.759 161.256 251.651 160.974 250.714 160.412C249.776 159.849 249.049 159.062 248.532 158.051C248.021 157.04 247.765 155.858 247.765 154.506C247.765 153.153 248.021 151.969 248.532 150.952C249.049 149.935 249.776 149.145 250.714 148.582C251.651 148.02 252.759 147.739 254.038 147.739C255.316 147.739 256.424 148.02 257.362 148.582C258.299 149.145 259.023 149.935 259.535 150.952C260.052 151.969 260.31 153.153 260.31 154.506C260.31 155.858 260.052 157.04 259.535 158.051C259.023 159.062 258.299 159.849 257.362 160.412C256.424 160.974 255.316 161.256 254.038 161.256ZM254.055 158.784C254.748 158.784 255.327 158.594 255.793 158.213C256.259 157.827 256.606 157.31 256.833 156.662C257.066 156.014 257.183 155.293 257.183 154.497C257.183 153.696 257.066 152.972 256.833 152.324C256.606 151.67 256.259 151.151 255.793 150.764C255.327 150.378 254.748 150.185 254.055 150.185C253.344 150.185 252.754 150.378 252.282 150.764C251.816 151.151 251.467 151.67 251.234 152.324C251.006 152.972 250.893 153.696 250.893 154.497C250.893 155.293 251.006 156.014 251.234 156.662C251.467 157.31 251.816 157.827 252.282 158.213C252.754 158.594 253.344 158.784 254.055 158.784ZM262.929 161V147.909H265.92V150.091H266.057C266.295 149.335 266.705 148.753 267.284 148.344C267.869 147.929 268.537 147.722 269.287 147.722C269.457 147.722 269.648 147.73 269.858 147.747C270.074 147.759 270.253 147.778 270.395 147.807V150.645C270.264 150.599 270.057 150.56 269.773 150.526C269.494 150.486 269.224 150.466 268.963 150.466C268.401 150.466 267.895 150.588 267.446 150.832C267.003 151.071 266.653 151.403 266.398 151.83C266.142 152.256 266.014 152.747 266.014 153.304V161H262.929ZM276.763 161.23C275.735 161.23 274.815 160.966 274.002 160.438C273.19 159.909 272.548 159.142 272.076 158.136C271.604 157.131 271.369 155.909 271.369 154.472C271.369 153.017 271.607 151.79 272.085 150.79C272.567 149.784 273.218 149.026 274.036 148.514C274.854 147.997 275.766 147.739 276.772 147.739C277.539 147.739 278.17 147.869 278.664 148.131C279.158 148.386 279.55 148.696 279.84 149.06C280.13 149.418 280.354 149.756 280.513 150.074H280.641V143.545H283.735V161H280.701V158.938H280.513C280.354 159.256 280.124 159.594 279.823 159.952C279.522 160.304 279.124 160.605 278.63 160.855C278.136 161.105 277.513 161.23 276.763 161.23ZM277.624 158.699C278.278 158.699 278.835 158.523 279.295 158.17C279.755 157.812 280.104 157.315 280.343 156.679C280.582 156.043 280.701 155.301 280.701 154.455C280.701 153.608 280.582 152.872 280.343 152.247C280.11 151.622 279.763 151.136 279.303 150.79C278.849 150.443 278.289 150.27 277.624 150.27C276.937 150.27 276.363 150.449 275.903 150.807C275.442 151.165 275.096 151.659 274.863 152.29C274.63 152.92 274.513 153.642 274.513 154.455C274.513 155.273 274.63 156.003 274.863 156.645C275.102 157.281 275.451 157.784 275.911 158.153C276.377 158.517 276.948 158.699 277.624 158.699ZM292.818 161.256C291.506 161.256 290.372 160.983 289.418 160.438C288.469 159.886 287.739 159.108 287.227 158.102C286.716 157.091 286.46 155.901 286.46 154.531C286.46 153.185 286.716 152.003 287.227 150.986C287.744 149.963 288.466 149.168 289.392 148.599C290.318 148.026 291.406 147.739 292.656 147.739C293.463 147.739 294.224 147.869 294.94 148.131C295.662 148.386 296.298 148.784 296.849 149.324C297.406 149.864 297.844 150.551 298.162 151.386C298.48 152.216 298.639 153.205 298.639 154.352V155.298H287.909V153.219H295.682C295.676 152.628 295.548 152.102 295.298 151.642C295.048 151.176 294.699 150.81 294.25 150.543C293.807 150.276 293.29 150.142 292.699 150.142C292.068 150.142 291.514 150.295 291.037 150.602C290.56 150.903 290.188 151.301 289.92 151.795C289.659 152.284 289.526 152.821 289.52 153.406V155.222C289.52 155.983 289.659 156.636 289.938 157.182C290.216 157.722 290.605 158.136 291.105 158.426C291.605 158.71 292.19 158.852 292.861 158.852C293.31 158.852 293.716 158.79 294.08 158.665C294.443 158.534 294.759 158.344 295.026 158.094C295.293 157.844 295.494 157.534 295.631 157.165L298.511 157.489C298.33 158.25 297.983 158.915 297.472 159.483C296.966 160.045 296.318 160.483 295.528 160.795C294.739 161.102 293.835 161.256 292.818 161.256ZM301.249 161V147.909H304.241V150.091H304.377C304.616 149.335 305.025 148.753 305.604 148.344C306.19 147.929 306.857 147.722 307.607 147.722C307.778 147.722 307.968 147.73 308.178 147.747C308.394 147.759 308.573 147.778 308.715 147.807V150.645C308.585 150.599 308.377 150.56 308.093 150.526C307.815 150.486 307.545 150.466 307.283 150.466C306.721 150.466 306.215 150.588 305.766 150.832C305.323 151.071 304.974 151.403 304.718 151.83C304.462 152.256 304.335 152.747 304.335 153.304V161H301.249ZM318.636 165.909C318.215 165.909 317.826 165.875 317.468 165.807C317.116 165.744 316.835 165.67 316.624 165.585L317.34 163.182C317.789 163.313 318.19 163.375 318.542 163.369C318.894 163.364 319.204 163.253 319.471 163.037C319.744 162.827 319.974 162.474 320.161 161.98L320.425 161.273L315.678 147.909H318.951L321.968 157.795H322.104L325.13 147.909H328.411L323.17 162.585C322.925 163.278 322.602 163.872 322.198 164.366C321.795 164.866 321.3 165.247 320.715 165.509C320.136 165.776 319.442 165.909 318.636 165.909ZM335.811 161.256C334.533 161.256 333.425 160.974 332.487 160.412C331.55 159.849 330.822 159.062 330.305 158.051C329.794 157.04 329.538 155.858 329.538 154.506C329.538 153.153 329.794 151.969 330.305 150.952C330.822 149.935 331.55 149.145 332.487 148.582C333.425 148.02 334.533 147.739 335.811 147.739C337.089 147.739 338.197 148.02 339.135 148.582C340.072 149.145 340.797 149.935 341.308 150.952C341.825 151.969 342.084 153.153 342.084 154.506C342.084 155.858 341.825 157.04 341.308 158.051C340.797 159.062 340.072 159.849 339.135 160.412C338.197 160.974 337.089 161.256 335.811 161.256ZM335.828 158.784C336.521 158.784 337.101 158.594 337.567 158.213C338.033 157.827 338.379 157.31 338.607 156.662C338.839 156.014 338.956 155.293 338.956 154.497C338.956 153.696 338.839 152.972 338.607 152.324C338.379 151.67 338.033 151.151 337.567 150.764C337.101 150.378 336.521 150.185 335.828 150.185C335.118 150.185 334.527 150.378 334.055 150.764C333.589 151.151 333.24 151.67 333.007 152.324C332.78 152.972 332.666 153.696 332.666 154.497C332.666 155.293 332.78 156.014 333.007 156.662C333.24 157.31 333.589 157.827 334.055 158.213C334.527 158.594 335.118 158.784 335.828 158.784ZM353.046 155.494V147.909H356.131V161H353.14V158.673H353.004C352.708 159.406 352.222 160.006 351.546 160.472C350.876 160.937 350.049 161.17 349.066 161.17C348.208 161.17 347.45 160.98 346.79 160.599C346.137 160.213 345.626 159.653 345.256 158.92C344.887 158.182 344.702 157.29 344.702 156.244V147.909H347.788V155.767C347.788 156.597 348.015 157.256 348.469 157.744C348.924 158.233 349.521 158.477 350.259 158.477C350.714 158.477 351.154 158.366 351.58 158.145C352.006 157.923 352.356 157.594 352.629 157.156C352.907 156.713 353.046 156.159 353.046 155.494ZM359.304 161V147.909H362.295V150.091H362.432C362.67 149.335 363.08 148.753 363.659 148.344C364.244 147.929 364.912 147.722 365.662 147.722C365.832 147.722 366.023 147.73 366.233 147.747C366.449 147.759 366.628 147.778 366.77 147.807V150.645C366.639 150.599 366.432 150.56 366.148 150.526C365.869 150.486 365.599 150.466 365.338 150.466C364.776 150.466 364.27 150.588 363.821 150.832C363.378 151.071 363.028 151.403 362.773 151.83C362.517 152.256 362.389 152.747 362.389 153.304V161H359.304ZM381.403 147.909V150.295H373.665V147.909H381.403ZM375.599 161V146.673C375.599 145.793 375.781 145.06 376.145 144.474C376.514 143.889 377.009 143.452 377.628 143.162C378.247 142.872 378.935 142.727 379.69 142.727C380.224 142.727 380.699 142.77 381.114 142.855C381.528 142.94 381.835 143.017 382.034 143.085L381.42 145.472C381.29 145.432 381.125 145.392 380.926 145.352C380.727 145.307 380.506 145.284 380.261 145.284C379.688 145.284 379.281 145.423 379.043 145.702C378.81 145.974 378.693 146.366 378.693 146.878V161H375.599ZM389.038 161.256C387.759 161.256 386.651 160.974 385.714 160.412C384.776 159.849 384.049 159.062 383.532 158.051C383.021 157.04 382.765 155.858 382.765 154.506C382.765 153.153 383.021 151.969 383.532 150.952C384.049 149.935 384.776 149.145 385.714 148.582C386.651 148.02 387.759 147.739 389.038 147.739C390.316 147.739 391.424 148.02 392.362 148.582C393.299 149.145 394.023 149.935 394.535 150.952C395.052 151.969 395.31 153.153 395.31 154.506C395.31 155.858 395.052 157.04 394.535 158.051C394.023 159.062 393.299 159.849 392.362 160.412C391.424 160.974 390.316 161.256 389.038 161.256ZM389.055 158.784C389.748 158.784 390.327 158.594 390.793 158.213C391.259 157.827 391.606 157.31 391.833 156.662C392.066 156.014 392.183 155.293 392.183 154.497C392.183 153.696 392.066 152.972 391.833 152.324C391.606 151.67 391.259 151.151 390.793 150.764C390.327 150.378 389.748 150.185 389.055 150.185C388.344 150.185 387.754 150.378 387.282 150.764C386.816 151.151 386.467 151.67 386.234 152.324C386.006 152.972 385.893 153.696 385.893 154.497C385.893 155.293 386.006 156.014 386.234 156.662C386.467 157.31 386.816 157.827 387.282 158.213C387.754 158.594 388.344 158.784 389.055 158.784ZM403.639 161.256C402.361 161.256 401.253 160.974 400.315 160.412C399.378 159.849 398.651 159.062 398.134 158.051C397.622 157.04 397.366 155.858 397.366 154.506C397.366 153.153 397.622 151.969 398.134 150.952C398.651 149.935 399.378 149.145 400.315 148.582C401.253 148.02 402.361 147.739 403.639 147.739C404.918 147.739 406.026 148.02 406.963 148.582C407.901 149.145 408.625 149.935 409.136 150.952C409.653 151.969 409.912 153.153 409.912 154.506C409.912 155.858 409.653 157.04 409.136 158.051C408.625 159.062 407.901 159.849 406.963 160.412C406.026 160.974 404.918 161.256 403.639 161.256ZM403.656 158.784C404.349 158.784 404.929 158.594 405.395 158.213C405.861 157.827 406.207 157.31 406.435 156.662C406.668 156.014 406.784 155.293 406.784 154.497C406.784 153.696 406.668 152.972 406.435 152.324C406.207 151.67 405.861 151.151 405.395 150.764C404.929 150.378 404.349 150.185 403.656 150.185C402.946 150.185 402.355 150.378 401.884 150.764C401.418 151.151 401.068 151.67 400.835 152.324C400.608 152.972 400.494 153.696 400.494 154.497C400.494 155.293 400.608 156.014 400.835 156.662C401.068 157.31 401.418 157.827 401.884 158.213C402.355 158.594 402.946 158.784 403.656 158.784ZM417.388 161.23C416.36 161.23 415.44 160.966 414.627 160.438C413.815 159.909 413.173 159.142 412.701 158.136C412.229 157.131 411.994 155.909 411.994 154.472C411.994 153.017 412.232 151.79 412.71 150.79C413.192 149.784 413.843 149.026 414.661 148.514C415.479 147.997 416.391 147.739 417.397 147.739C418.164 147.739 418.795 147.869 419.289 148.131C419.783 148.386 420.175 148.696 420.465 149.06C420.755 149.418 420.979 149.756 421.138 150.074H421.266V143.545H424.36V161H421.326V158.938H421.138C420.979 159.256 420.749 159.594 420.448 159.952C420.147 160.304 419.749 160.605 419.255 160.855C418.761 161.105 418.138 161.23 417.388 161.23ZM418.249 158.699C418.903 158.699 419.46 158.523 419.92 158.17C420.38 157.812 420.729 157.315 420.968 156.679C421.207 156.043 421.326 155.301 421.326 154.455C421.326 153.608 421.207 152.872 420.968 152.247C420.735 151.622 420.388 151.136 419.928 150.79C419.474 150.443 418.914 150.27 418.249 150.27C417.562 150.27 416.988 150.449 416.528 150.807C416.067 151.165 415.721 151.659 415.488 152.29C415.255 152.92 415.138 153.642 415.138 154.455C415.138 155.273 415.255 156.003 415.488 156.645C415.727 157.281 416.076 157.784 416.536 158.153C417.002 158.517 417.573 158.699 418.249 158.699ZM439.311 161.256C438.033 161.256 436.925 160.974 435.987 160.412C435.05 159.849 434.322 159.062 433.805 158.051C433.294 157.04 433.038 155.858 433.038 154.506C433.038 153.153 433.294 151.969 433.805 150.952C434.322 149.935 435.05 149.145 435.987 148.582C436.925 148.02 438.033 147.739 439.311 147.739C440.589 147.739 441.697 148.02 442.635 148.582C443.572 149.145 444.297 149.935 444.808 150.952C445.325 151.969 445.584 153.153 445.584 154.506C445.584 155.858 445.325 157.04 444.808 158.051C444.297 159.062 443.572 159.849 442.635 160.412C441.697 160.974 440.589 161.256 439.311 161.256ZM439.328 158.784C440.021 158.784 440.601 158.594 441.067 158.213C441.533 157.827 441.879 157.31 442.107 156.662C442.339 156.014 442.456 155.293 442.456 154.497C442.456 153.696 442.339 152.972 442.107 152.324C441.879 151.67 441.533 151.151 441.067 150.764C440.601 150.378 440.021 150.185 439.328 150.185C438.618 150.185 438.027 150.378 437.555 150.764C437.089 151.151 436.74 151.67 436.507 152.324C436.28 152.972 436.166 153.696 436.166 154.497C436.166 155.293 436.28 156.014 436.507 156.662C436.74 157.31 437.089 157.827 437.555 158.213C438.027 158.594 438.618 158.784 439.328 158.784ZM451.288 153.33V161H448.202V147.909H451.151V150.134H451.305C451.606 149.401 452.086 148.818 452.745 148.386C453.41 147.955 454.231 147.739 455.208 147.739C456.112 147.739 456.898 147.932 457.569 148.318C458.245 148.705 458.768 149.264 459.137 149.997C459.512 150.73 459.697 151.619 459.691 152.665V161H456.606V153.142C456.606 152.267 456.379 151.582 455.924 151.088C455.475 150.594 454.853 150.347 454.058 150.347C453.518 150.347 453.038 150.466 452.617 150.705C452.202 150.937 451.876 151.276 451.637 151.719C451.404 152.162 451.288 152.699 451.288 153.33ZM465.913 143.545V161H462.827V143.545H465.913ZM469.085 161V147.909H472.17V161H469.085ZM470.636 146.051C470.148 146.051 469.727 145.889 469.375 145.565C469.023 145.236 468.847 144.841 468.847 144.381C468.847 143.915 469.023 143.52 469.375 143.196C469.727 142.866 470.148 142.702 470.636 142.702C471.131 142.702 471.551 142.866 471.898 143.196C472.25 143.52 472.426 143.915 472.426 144.381C472.426 144.841 472.25 145.236 471.898 145.565C471.551 145.889 471.131 146.051 470.636 146.051ZM478.428 153.33V161H475.343V147.909H478.292V150.134H478.445C478.746 149.401 479.227 148.818 479.886 148.386C480.55 147.955 481.371 147.739 482.349 147.739C483.252 147.739 484.039 147.932 484.71 148.318C485.386 148.705 485.908 149.264 486.278 149.997C486.653 150.73 486.837 151.619 486.832 152.665V161H483.746V153.142C483.746 152.267 483.519 151.582 483.065 151.088C482.616 150.594 481.994 150.347 481.198 150.347C480.658 150.347 480.178 150.466 479.758 150.705C479.343 150.937 479.016 151.276 478.778 151.719C478.545 152.162 478.428 152.699 478.428 153.33ZM495.763 161.256C494.451 161.256 493.317 160.983 492.363 160.438C491.414 159.886 490.684 159.108 490.173 158.102C489.661 157.091 489.406 155.901 489.406 154.531C489.406 153.185 489.661 152.003 490.173 150.986C490.69 149.963 491.411 149.168 492.337 148.599C493.263 148.026 494.352 147.739 495.602 147.739C496.408 147.739 497.17 147.869 497.886 148.131C498.607 148.386 499.244 148.784 499.795 149.324C500.352 149.864 500.789 150.551 501.107 151.386C501.425 152.216 501.585 153.205 501.585 154.352V155.298H490.854V153.219H498.627C498.621 152.628 498.494 152.102 498.244 151.642C497.994 151.176 497.644 150.81 497.195 150.543C496.752 150.276 496.235 150.142 495.644 150.142C495.013 150.142 494.46 150.295 493.982 150.602C493.505 150.903 493.133 151.301 492.866 151.795C492.604 152.284 492.471 152.821 492.465 153.406V155.222C492.465 155.983 492.604 156.636 492.883 157.182C493.161 157.722 493.55 158.136 494.05 158.426C494.55 158.71 495.136 158.852 495.806 158.852C496.255 158.852 496.661 158.79 497.025 158.665C497.388 158.534 497.704 158.344 497.971 158.094C498.238 157.844 498.44 157.534 498.576 157.165L501.457 157.489C501.275 158.25 500.928 158.915 500.417 159.483C499.911 160.045 499.263 160.483 498.474 160.795C497.684 161.102 496.781 161.256 495.763 161.256ZM507.143 155.869V155.648C507.149 154.619 507.246 153.801 507.433 153.193C507.626 152.585 507.899 152.097 508.251 151.727C508.604 151.352 509.033 151.009 509.538 150.696C509.885 150.48 510.195 150.244 510.467 149.989C510.746 149.727 510.964 149.437 511.124 149.119C511.283 148.795 511.362 148.435 511.362 148.037C511.362 147.588 511.257 147.199 511.047 146.869C510.837 146.54 510.553 146.284 510.195 146.102C509.842 145.92 509.447 145.83 509.01 145.83C508.607 145.83 508.223 145.918 507.859 146.094C507.501 146.264 507.203 146.526 506.964 146.878C506.732 147.224 506.601 147.665 506.572 148.199H503.538C503.567 147.119 503.828 146.216 504.322 145.489C504.822 144.761 505.482 144.216 506.3 143.852C507.124 143.489 508.033 143.307 509.027 143.307C510.112 143.307 511.067 143.497 511.891 143.878C512.72 144.259 513.365 144.801 513.825 145.506C514.291 146.205 514.524 147.034 514.524 147.994C514.524 148.642 514.419 149.222 514.209 149.733C514.004 150.244 513.712 150.699 513.331 151.097C512.95 151.494 512.499 151.849 511.976 152.162C511.516 152.446 511.138 152.741 510.842 153.048C510.553 153.355 510.337 153.716 510.195 154.131C510.058 154.54 509.987 155.045 509.982 155.648V155.869H507.143ZM508.626 161.188C508.115 161.188 507.675 161.006 507.305 160.642C506.936 160.278 506.751 159.835 506.751 159.312C506.751 158.801 506.936 158.364 507.305 158C507.675 157.636 508.115 157.455 508.626 157.455C509.132 157.455 509.57 157.636 509.939 158C510.314 158.364 510.501 158.801 510.501 159.312C510.501 159.659 510.413 159.974 510.237 160.259C510.067 160.543 509.839 160.77 509.555 160.94C509.277 161.105 508.967 161.188 508.626 161.188Z" fill="black"/>
<rect x="31.5" y="191.5" width="631" height="59" rx="3.5" stroke="black" stroke-opacity="0.6"/>
<path d="M55.696 228.5L51.6619 213.955H53.9702L56.804 225.219H56.9389L59.8864 213.955H62.1733L65.1207 225.226H65.2557L68.0824 213.955H70.3977L66.3565 228.5H64.1477L61.0866 217.605H60.973L57.9119 228.5H55.696ZM75.8558 228.72C74.781 228.72 73.8554 228.491 73.0788 228.031C72.3071 227.567 71.7105 226.916 71.2891 226.078C70.8724 225.235 70.6641 224.248 70.6641 223.116C70.6641 221.999 70.8724 221.014 71.2891 220.162C71.7105 219.31 72.2976 218.644 73.0504 218.166C73.808 217.688 74.6934 217.449 75.7067 217.449C76.3222 217.449 76.9188 217.551 77.4964 217.754C78.0741 217.958 78.5926 218.277 79.0518 218.713C79.5111 219.149 79.8733 219.714 80.1385 220.411C80.4036 221.102 80.5362 221.942 80.5362 222.932V223.685H71.8643V222.094H78.4553C78.4553 221.535 78.3416 221.04 78.1143 220.609C77.8871 220.174 77.5675 219.83 77.1555 219.58C76.7483 219.329 76.2701 219.203 75.7209 219.203C75.1243 219.203 74.6035 219.35 74.1584 219.643C73.718 219.932 73.3771 220.311 73.1357 220.78C72.8989 221.244 72.7805 221.748 72.7805 222.293V223.536C72.7805 224.265 72.9084 224.885 73.1641 225.396C73.4245 225.908 73.7867 226.298 74.2507 226.568C74.7147 226.833 75.2569 226.966 75.8771 226.966C76.2796 226.966 76.6465 226.909 76.978 226.795C77.3094 226.677 77.5959 226.502 77.8374 226.27C78.0788 226.038 78.2635 225.751 78.3913 225.411L80.4013 225.773C80.2403 226.365 79.9515 226.883 79.5348 227.328C79.1229 227.768 78.6044 228.112 77.9794 228.358C77.3591 228.599 76.6513 228.72 75.8558 228.72ZM83.0629 228.5V213.955H85.1864V219.359H85.3143C85.4374 219.132 85.6149 218.869 85.8469 218.571C86.079 218.273 86.4009 218.012 86.8129 217.79C87.2248 217.562 87.7693 217.449 88.4464 217.449C89.3271 217.449 90.113 217.671 90.8043 218.116C91.4956 218.562 92.0378 219.203 92.4308 220.041C92.8285 220.879 93.0273 221.888 93.0273 223.067C93.0273 224.246 92.8308 225.257 92.4379 226.099C92.0449 226.937 91.5051 227.584 90.8185 228.038C90.132 228.488 89.3484 228.713 88.4677 228.713C87.8048 228.713 87.2627 228.602 86.8413 228.379C86.4246 228.157 86.0979 227.896 85.8612 227.598C85.6244 227.3 85.4421 227.035 85.3143 226.803H85.1367V228.5H83.0629ZM85.1438 223.045C85.1438 223.812 85.2551 224.485 85.4776 225.062C85.7002 225.64 86.0221 226.092 86.4435 226.419C86.8649 226.741 87.381 226.902 87.9918 226.902C88.6263 226.902 89.1566 226.734 89.5827 226.398C90.0089 226.057 90.3308 225.595 90.5487 225.013C90.7712 224.43 90.8825 223.775 90.8825 223.045C90.8825 222.326 90.7736 221.679 90.5558 221.107C90.3427 220.534 90.0207 220.081 89.5898 219.75C89.1637 219.419 88.631 219.253 87.9918 219.253C87.3763 219.253 86.8555 219.411 86.4293 219.729C86.0079 220.046 85.6883 220.489 85.4705 221.057C85.2527 221.625 85.1438 222.288 85.1438 223.045ZM103.587 220.254L101.662 220.595C101.581 220.349 101.454 220.115 101.278 219.892C101.108 219.67 100.876 219.487 100.582 219.345C100.289 219.203 99.9219 219.132 99.4815 219.132C98.8802 219.132 98.3783 219.267 97.9759 219.537C97.5734 219.802 97.3722 220.145 97.3722 220.567C97.3722 220.931 97.5071 221.225 97.777 221.447C98.0469 221.67 98.4825 221.852 99.0838 221.994L100.817 222.392C101.821 222.624 102.569 222.982 103.061 223.464C103.554 223.947 103.8 224.575 103.8 225.347C103.8 226 103.61 226.582 103.232 227.094C102.857 227.6 102.334 227.998 101.662 228.287C100.994 228.576 100.22 228.72 99.3395 228.72C98.1179 228.72 97.1212 228.46 96.3494 227.939C95.5777 227.413 95.1042 226.668 94.929 225.702L96.9815 225.389C97.1094 225.924 97.3722 226.329 97.7699 226.604C98.1676 226.874 98.6861 227.009 99.3253 227.009C100.021 227.009 100.578 226.864 100.994 226.575C101.411 226.282 101.619 225.924 101.619 225.503C101.619 225.162 101.491 224.875 101.236 224.643C100.985 224.411 100.599 224.236 100.078 224.118L98.2315 223.713C97.2135 223.481 96.4607 223.112 95.973 222.605C95.4901 222.098 95.2486 221.457 95.2486 220.68C95.2486 220.036 95.4285 219.473 95.7884 218.99C96.1482 218.507 96.6454 218.131 97.2798 217.861C97.9143 217.586 98.6411 217.449 99.4602 217.449C100.639 217.449 101.567 217.705 102.244 218.216C102.921 218.723 103.369 219.402 103.587 220.254ZM106.135 228.5V217.591H108.258V228.5H106.135ZM107.207 215.908C106.838 215.908 106.52 215.785 106.255 215.538C105.995 215.287 105.865 214.989 105.865 214.643C105.865 214.293 105.995 213.995 106.255 213.749C106.52 213.498 106.838 213.372 107.207 213.372C107.576 213.372 107.891 213.498 108.152 213.749C108.417 213.995 108.549 214.293 108.549 214.643C108.549 214.989 108.417 215.287 108.152 215.538C107.891 215.785 107.576 215.908 107.207 215.908ZM116.207 217.591V219.295H110.249V217.591H116.207ZM111.847 214.977H113.97V225.297C113.97 225.709 114.032 226.019 114.155 226.227C114.278 226.431 114.437 226.571 114.631 226.646C114.83 226.717 115.045 226.753 115.277 226.753C115.447 226.753 115.597 226.741 115.724 226.717C115.852 226.694 115.952 226.675 116.023 226.661L116.406 228.415C116.283 228.462 116.108 228.509 115.881 228.557C115.653 228.609 115.369 228.637 115.028 228.642C114.47 228.652 113.949 228.552 113.466 228.344C112.983 228.135 112.592 227.813 112.294 227.378C111.996 226.942 111.847 226.395 111.847 225.737V214.977ZM123.141 228.72C122.066 228.72 121.141 228.491 120.364 228.031C119.592 227.567 118.996 226.916 118.574 226.078C118.158 225.235 117.949 224.248 117.949 223.116C117.949 221.999 118.158 221.014 118.574 220.162C118.996 219.31 119.583 218.644 120.336 218.166C121.093 217.688 121.979 217.449 122.992 217.449C123.607 217.449 124.204 217.551 124.782 217.754C125.359 217.958 125.878 218.277 126.337 218.713C126.796 219.149 127.158 219.714 127.424 220.411C127.689 221.102 127.821 221.942 127.821 222.932V223.685H119.15V222.094H125.74C125.74 221.535 125.627 221.04 125.4 220.609C125.172 220.174 124.853 219.83 124.441 219.58C124.033 219.329 123.555 219.203 123.006 219.203C122.409 219.203 121.889 219.35 121.444 219.643C121.003 219.932 120.662 220.311 120.421 220.78C120.184 221.244 120.066 221.748 120.066 222.293V223.536C120.066 224.265 120.194 224.885 120.449 225.396C120.71 225.908 121.072 226.298 121.536 226.568C122 226.833 122.542 226.966 123.162 226.966C123.565 226.966 123.932 226.909 124.263 226.795C124.595 226.677 124.881 226.502 125.123 226.27C125.364 226.038 125.549 225.751 125.676 225.411L127.686 225.773C127.525 226.365 127.237 226.883 126.82 227.328C126.408 227.768 125.89 228.112 125.265 228.358C124.644 228.599 123.936 228.72 123.141 228.72Z" fill="black" fill-opacity="0.5"/>
<path d="M598.639 165.058C599.224 164.121 598.938 162.888 598.001 162.303C597.064 161.718 595.83 162.004 595.246 162.941L598.639 165.058ZM524.416 208.93C523.741 209.805 523.903 211.061 524.778 211.735L539.03 222.73C539.905 223.405 541.161 223.242 541.835 222.368C542.51 221.493 542.348 220.237 541.473 219.563L528.805 209.79L538.578 197.121C539.252 196.247 539.09 194.991 538.216 194.316C537.341 193.642 536.085 193.804 535.41 194.678L524.416 208.93ZM595.246 162.941C585.557 178.47 577.039 188.558 566.613 195.374C556.193 202.186 543.674 205.855 525.744 208.168L526.255 212.135C544.454 209.787 557.657 206.008 568.802 198.722C579.94 191.441 588.828 180.784 598.639 165.058L595.246 162.941Z" fill="#FF5833"/>
</svg>
