<svg width="84" height="58" viewBox="0 0 84 58" fill="none" xmlns="http://www.w3.org/2000/svg">
<path fill-rule="evenodd" clip-rule="evenodd" d="M38.2907 29.3714L38.6564 27.0392L37.8417 27.0201H33.9517L36.6551 9.8093C36.6636 9.75718 36.6908 9.7088 36.7306 9.67439C36.7705 9.63997 36.8214 9.62109 36.8747 9.62109H43.4339C45.6116 9.62109 47.1143 10.076 47.8988 10.9739C48.2666 11.3952 48.5009 11.8355 48.6143 12.3199C48.7332 12.8283 48.7352 13.4356 48.6192 14.1764L48.6108 14.2303V14.7051L48.9786 14.9143C49.2883 15.0793 49.5345 15.2681 49.7233 15.4843C50.0379 15.8446 50.2414 16.3024 50.3274 16.845C50.4163 17.4031 50.387 18.0675 50.2414 18.8195C50.0736 19.6845 49.8023 20.4379 49.4358 21.0542C49.0989 21.6222 48.6696 22.0934 48.1597 22.4584C47.673 22.8053 47.0947 23.0687 46.4409 23.2372C45.8073 23.4028 45.0849 23.4864 44.2926 23.4864H43.7822C43.4172 23.4864 43.0627 23.6184 42.7844 23.8549C42.5053 24.0964 42.3207 24.4265 42.2641 24.7873L42.2256 24.9974L41.5794 29.1083L41.5502 29.2591C41.5424 29.3069 41.529 29.3307 41.5094 29.3468C41.492 29.3616 41.4669 29.3714 41.4425 29.3714H38.2907Z" fill="#28356A"/>
<path fill-rule="evenodd" clip-rule="evenodd" d="M49.3267 14.2852C49.3073 14.4109 49.2848 14.5393 49.2597 14.6712C48.3947 19.1304 45.4353 20.6709 41.6558 20.6709H39.7313C39.2691 20.6709 38.8795 21.0078 38.8076 21.4657L37.5432 29.5181C37.4964 29.8188 37.7272 30.0896 38.0292 30.0896H41.4425C41.8465 30.0896 42.1899 29.7948 42.2536 29.3946L42.2871 29.2206L42.9297 25.1258L42.971 24.9012C43.0339 24.4996 43.3781 24.2046 43.7821 24.2046H44.2926C47.5995 24.2046 50.1883 22.8567 50.945 18.9556C51.2609 17.326 51.0974 15.9653 50.261 15.0083C50.0079 14.7198 49.694 14.4803 49.3267 14.2852Z" fill="#298FC2"/>
<path fill-rule="evenodd" clip-rule="evenodd" d="M48.422 13.923C48.2897 13.8843 48.1534 13.8493 48.0136 13.8176C47.8729 13.7867 47.729 13.7594 47.5807 13.7354C47.0618 13.6512 46.4932 13.6113 45.8842 13.6113H40.7432C40.6165 13.6113 40.4962 13.64 40.3887 13.692C40.1515 13.8064 39.9754 14.0318 39.9327 14.3077L38.8389 21.263L38.8076 21.4658C38.8795 21.0079 39.2691 20.671 39.7313 20.671H41.6558C45.4353 20.671 48.3947 19.1298 49.2597 14.6713C49.2856 14.5394 49.3073 14.411 49.3267 14.2853C49.1079 14.1687 48.8709 14.069 48.6157 13.984C48.5526 13.963 48.4876 13.9427 48.422 13.923Z" fill="#22284F"/>
<path fill-rule="evenodd" clip-rule="evenodd" d="M39.9328 14.3079C39.9755 14.032 40.1516 13.8066 40.3888 13.6929C40.4971 13.6408 40.6166 13.6121 40.7433 13.6121H45.8844C46.4934 13.6121 47.062 13.6522 47.5808 13.7364C47.7291 13.7602 47.8731 13.7877 48.0137 13.8186C48.1536 13.8501 48.2899 13.8853 48.4221 13.9238C48.4877 13.9435 48.5528 13.9639 48.6164 13.9842C48.8716 14.0692 49.1088 14.1697 49.3276 14.2855C49.585 12.6376 49.3255 11.5157 48.4382 10.4997C47.4598 9.38102 45.6942 8.90234 43.4348 8.90234H36.8755C36.414 8.90234 36.0203 9.23923 35.949 9.69785L33.217 27.0857C33.1631 27.4296 33.4273 27.74 33.7728 27.74H37.8223L39.9328 14.3079Z" fill="#28356A"/>
<path fill-rule="evenodd" clip-rule="evenodd" d="M18.9648 34.1055H14.1824C13.8551 34.1055 13.5768 34.3443 13.5256 34.6688L11.5914 46.9816C11.553 47.2247 11.7405 47.4436 11.9859 47.4436H14.269C14.5963 47.4436 14.8746 47.205 14.9257 46.8799L15.4473 43.5588C15.4977 43.2337 15.7766 42.995 16.1033 42.995H17.6172C20.7674 42.995 22.5855 41.4643 23.0605 38.4314C23.2744 37.1043 23.0695 36.0617 22.4506 35.3315C21.7709 34.5297 20.5653 34.1055 18.9648 34.1055ZM19.5163 38.6027C19.2548 40.3256 17.9436 40.3256 16.6759 40.3256H15.9541L16.4605 37.1078C16.4906 36.9133 16.6583 36.7701 16.8542 36.7701H17.185C18.0486 36.7701 18.8632 36.7701 19.2842 37.2644C19.5353 37.5592 19.6121 37.9973 19.5163 38.6027Z" fill="#28356A"/>
<path fill-rule="evenodd" clip-rule="evenodd" d="M33.3822 38.4546H31.092C30.8969 38.4546 30.7283 38.5978 30.6983 38.7923L30.5969 39.4354L30.4368 39.2023C29.9411 38.4798 28.8354 38.2383 27.732 38.2383C25.2012 38.2383 23.0397 40.1629 22.6188 42.8625C22.4 44.2091 22.7111 45.4968 23.472 46.3948C24.1699 47.2204 25.1685 47.5646 26.3564 47.5646C28.3957 47.5646 29.5262 46.2481 29.5262 46.2481L29.4242 46.887C29.3858 47.1313 29.5732 47.3504 29.8173 47.3504H31.88C32.2081 47.3504 32.4851 47.1116 32.5368 46.7866L33.7745 38.9166C33.8137 38.6743 33.6268 38.4546 33.3822 38.4546ZM30.1898 42.9299C29.9689 44.2435 28.9306 45.1253 27.6061 45.1253C26.9411 45.1253 26.4097 44.9111 26.0683 44.5054C25.7298 44.1025 25.6013 43.5288 25.7089 42.8898C25.9153 41.5875 26.9711 40.6767 28.2754 40.6767C28.9257 40.6767 29.4543 40.8939 29.8026 41.3029C30.1514 41.7165 30.2899 42.2937 30.1898 42.9299Z" fill="#28356A"/>
<path fill-rule="evenodd" clip-rule="evenodd" d="M45.4031 38.6504H43.1016C42.8821 38.6504 42.6758 38.76 42.5514 38.9432L39.3773 43.6375L38.0319 39.1263C37.9473 38.8441 37.6879 38.6504 37.3941 38.6504H35.1328C34.8578 38.6504 34.667 38.92 34.7543 39.1798L37.2893 46.6488L34.9061 50.0267C34.7187 50.2928 34.9075 50.6586 35.2313 50.6586H37.5299C37.7481 50.6586 37.9522 50.5518 38.0759 50.3723L45.7302 39.2788C45.9136 39.0135 45.7253 38.6504 45.4031 38.6504Z" fill="#28356A"/>
<path fill-rule="evenodd" clip-rule="evenodd" d="M53.075 34.1055H48.292C47.9655 34.1055 47.6871 34.3443 47.636 34.6688L45.7018 46.9816C45.6634 47.2247 45.8508 47.4436 46.0949 47.4436H48.5493C48.7771 47.4436 48.9722 47.2766 49.0079 47.0491L49.5569 43.5588C49.6073 43.2337 49.8864 42.995 50.2129 42.995H51.7262C54.877 42.995 56.6945 41.4643 57.1701 38.4314C57.3847 37.1043 57.1785 36.0617 56.5595 35.3315C55.8805 34.5297 54.6756 34.1055 53.075 34.1055ZM53.6268 38.6027C53.3659 40.3256 52.0547 40.3256 50.7863 40.3256H50.0655L50.5724 37.1078C50.6024 36.9133 50.7688 36.7701 50.9653 36.7701H51.2961C52.159 36.7701 52.9744 36.7701 53.3953 37.2644C53.6464 37.5592 53.7226 37.9973 53.6268 38.6027Z" fill="#298FC2"/>
<path fill-rule="evenodd" clip-rule="evenodd" d="M67.4894 38.4546H65.2007C65.0042 38.4546 64.8371 38.5978 64.8078 38.7923L64.7063 39.4354L64.5455 39.2023C64.0497 38.4798 62.9448 38.2383 61.8413 38.2383C59.3106 38.2383 57.1499 40.1629 56.729 42.8625C56.5108 44.2091 56.8205 45.4968 57.5812 46.3948C58.2807 47.2204 59.2777 47.5646 60.4659 47.5646C62.5049 47.5646 63.6357 46.2481 63.6357 46.2481L63.5336 46.887C63.4952 47.1313 63.6825 47.3504 63.9281 47.3504H65.9902C66.3167 47.3504 66.5951 47.1116 66.6462 46.7866L67.8845 38.9166C67.9223 38.6743 67.7349 38.4546 67.4894 38.4546ZM64.2972 42.9299C64.0776 44.2435 63.0377 45.1253 61.7132 45.1253C61.0496 45.1253 60.5169 44.9111 60.1754 44.5054C59.8372 44.1025 59.7099 43.5288 59.816 42.8898C60.0238 41.5875 61.0782 40.6767 62.3825 40.6767C63.0328 40.6767 63.5615 40.8939 63.9097 41.3029C64.26 41.7165 64.3984 42.2937 64.2972 42.9299Z" fill="#298FC2"/>
<path fill-rule="evenodd" clip-rule="evenodd" d="M69.9986 34.444L68.0358 46.9822C67.9974 47.2253 68.1847 47.4442 68.4287 47.4442H70.4021C70.7302 47.4442 71.0084 47.2056 71.0587 46.8805L72.9943 34.5683C73.0329 34.3252 72.8455 34.1055 72.6014 34.1055H70.3918C70.1967 34.1061 70.0288 34.2495 69.9986 34.444Z" fill="#298FC2"/>
</svg>
