<svg width="530" height="256" viewBox="0 0 530 256" fill="none" xmlns="http://www.w3.org/2000/svg">
<path d="M125.919 247.993C1.19933 214.393 7.99933 65.0335 7.99933 63.5135C8.0841 62.0348 8.57772 60.6086 9.4252 59.3939C10.2727 58.1791 11.4408 57.2235 12.7993 56.6335L124.799 8.63348C125.786 8.21543 126.847 8 127.919 8C128.991 8 130.052 8.21543 131.039 8.63348L243.039 56.6335C244.398 57.2235 245.566 58.1791 246.413 59.3939C247.261 60.6086 247.755 62.0348 247.839 63.5135C247.839 65.0335 254.719 214.393 129.999 247.513C128.694 247.982 127.298 248.146 125.919 247.993ZM23.9993 69.2735C23.9993 142.953 56.4793 211.513 127.999 231.993C226.239 203.993 231.999 93.9135 231.999 69.2735L127.999 24.7135L23.9993 69.2735Z" fill="#2C3E50"/>
<path d="M125.359 214.154C55.9991 190.154 42.7991 116.234 40.4791 85.5142C40.3418 83.8462 40.7311 82.1772 41.5922 80.742C42.4533 79.3069 43.7428 78.178 45.2791 77.5142L125.279 43.3542C126.266 42.9361 127.327 42.7207 128.399 42.7207C129.471 42.7207 130.532 42.9361 131.519 43.3542L211.519 77.5142C213.055 78.178 214.345 79.3069 215.206 80.742C216.067 82.1772 216.456 83.8462 216.319 85.5142C213.199 116.234 199.999 190.154 130.639 214.154C128.924 214.716 127.074 214.716 125.359 214.154ZM56.9591 89.9942C60.5591 124.234 74.8791 177.994 127.999 198.074C181.199 178.154 195.519 124.234 199.039 89.9942L127.999 59.5142L56.9591 89.9942Z" fill="#FF5833"/>
<path d="M114.318 149.666L98.3176 133.666C96.8111 132.159 95.9648 130.116 95.9648 127.986C95.9648 125.855 96.8111 123.812 98.3176 122.306C99.824 120.799 101.867 119.953 103.998 119.953C106.128 119.953 108.171 120.799 109.678 122.306L119.998 132.706L146.318 106.306C147.824 104.799 149.867 103.953 151.998 103.953C154.128 103.953 156.171 104.799 157.678 106.306C159.184 107.812 160.03 109.855 160.03 111.986C160.03 114.116 159.184 116.159 157.678 117.666L125.678 149.666C124.934 150.416 124.049 151.011 123.074 151.417C122.099 151.823 121.054 152.032 119.998 152.032C118.941 152.032 117.896 151.823 116.921 151.417C115.946 151.011 115.061 150.416 114.318 149.666Z" fill="#FF5833"/>
<path d="M298.828 145H291.586V125.172C291.586 124.625 291.594 123.953 291.609 123.156C291.625 122.344 291.648 121.516 291.68 120.672C291.711 119.812 291.742 119.039 291.773 118.352C291.602 118.555 291.25 118.906 290.719 119.406C290.203 119.891 289.719 120.328 289.266 120.719L285.328 123.883L281.836 119.523L292.875 110.734H298.828V145ZM332.156 127.867C332.156 130.633 331.938 133.102 331.5 135.273C331.078 137.445 330.391 139.289 329.438 140.805C328.5 142.32 327.266 143.477 325.734 144.273C324.203 145.07 322.344 145.469 320.156 145.469C317.406 145.469 315.148 144.773 313.383 143.383C311.617 141.977 310.312 139.961 309.469 137.336C308.625 134.695 308.203 131.539 308.203 127.867C308.203 124.164 308.586 121 309.352 118.375C310.133 115.734 311.398 113.711 313.148 112.305C314.898 110.898 317.234 110.195 320.156 110.195C322.891 110.195 325.141 110.898 326.906 112.305C328.688 113.695 330.008 115.711 330.867 118.352C331.727 120.977 332.156 124.148 332.156 127.867ZM315.398 127.867C315.398 130.477 315.539 132.656 315.82 134.406C316.117 136.141 316.609 137.445 317.297 138.32C317.984 139.195 318.938 139.633 320.156 139.633C321.359 139.633 322.305 139.203 322.992 138.344C323.695 137.469 324.195 136.164 324.492 134.43C324.789 132.68 324.938 130.492 324.938 127.867C324.938 125.258 324.789 123.078 324.492 121.328C324.195 119.578 323.695 118.266 322.992 117.391C322.305 116.5 321.359 116.055 320.156 116.055C318.938 116.055 317.984 116.5 317.297 117.391C316.609 118.266 316.117 119.578 315.82 121.328C315.539 123.078 315.398 125.258 315.398 127.867ZM359.625 127.867C359.625 130.633 359.406 133.102 358.969 135.273C358.547 137.445 357.859 139.289 356.906 140.805C355.969 142.32 354.734 143.477 353.203 144.273C351.672 145.07 349.812 145.469 347.625 145.469C344.875 145.469 342.617 144.773 340.852 143.383C339.086 141.977 337.781 139.961 336.938 137.336C336.094 134.695 335.672 131.539 335.672 127.867C335.672 124.164 336.055 121 336.82 118.375C337.602 115.734 338.867 113.711 340.617 112.305C342.367 110.898 344.703 110.195 347.625 110.195C350.359 110.195 352.609 110.898 354.375 112.305C356.156 113.695 357.477 115.711 358.336 118.352C359.195 120.977 359.625 124.148 359.625 127.867ZM342.867 127.867C342.867 130.477 343.008 132.656 343.289 134.406C343.586 136.141 344.078 137.445 344.766 138.32C345.453 139.195 346.406 139.633 347.625 139.633C348.828 139.633 349.773 139.203 350.461 138.344C351.164 137.469 351.664 136.164 351.961 134.43C352.258 132.68 352.406 130.492 352.406 127.867C352.406 125.258 352.258 123.078 351.961 121.328C351.664 119.578 351.164 118.266 350.461 117.391C349.773 116.5 348.828 116.055 347.625 116.055C346.406 116.055 345.453 116.5 344.766 117.391C344.078 118.266 343.586 119.578 343.289 121.328C343.008 123.078 342.867 125.258 342.867 127.867ZM370.969 110.242C373.656 110.242 375.695 111.18 377.086 113.055C378.477 114.93 379.172 117.562 379.172 120.953C379.172 124.344 378.516 126.992 377.203 128.898C375.891 130.805 373.812 131.758 370.969 131.758C368.328 131.758 366.32 130.805 364.945 128.898C363.57 126.992 362.883 124.344 362.883 120.953C362.883 117.562 363.523 114.93 364.805 113.055C366.102 111.18 368.156 110.242 370.969 110.242ZM371.016 115.141C370.25 115.141 369.688 115.625 369.328 116.594C368.969 117.562 368.789 119.031 368.789 121C368.789 122.969 368.969 124.445 369.328 125.43C369.688 126.414 370.25 126.906 371.016 126.906C371.781 126.906 372.344 126.422 372.703 125.453C373.078 124.469 373.266 122.984 373.266 121C373.266 119.031 373.078 117.562 372.703 116.594C372.344 115.625 371.781 115.141 371.016 115.141ZM395.297 110.734L376.289 145H370.664L389.672 110.734H395.297ZM394.969 123.93C397.656 123.93 399.695 124.867 401.086 126.742C402.477 128.617 403.172 131.25 403.172 134.641C403.172 138.016 402.516 140.656 401.203 142.562C399.891 144.469 397.812 145.422 394.969 145.422C392.328 145.422 390.32 144.469 388.945 142.562C387.57 140.656 386.883 138.016 386.883 134.641C386.883 131.25 387.523 128.617 388.805 126.742C390.102 124.867 392.156 123.93 394.969 123.93ZM395.016 128.828C394.25 128.828 393.688 129.312 393.328 130.281C392.969 131.25 392.789 132.719 392.789 134.688C392.789 136.656 392.969 138.133 393.328 139.117C393.688 140.102 394.25 140.594 395.016 140.594C395.781 140.594 396.344 140.109 396.703 139.141C397.078 138.156 397.266 136.672 397.266 134.688C397.266 132.719 397.078 131.25 396.703 130.281C396.344 129.312 395.781 128.828 395.016 128.828ZM441.68 135.484C441.68 137.516 441.188 139.281 440.203 140.781C439.219 142.281 437.781 143.438 435.891 144.25C434.016 145.062 431.734 145.469 429.047 145.469C427.859 145.469 426.695 145.391 425.555 145.234C424.43 145.078 423.344 144.852 422.297 144.555C421.266 144.242 420.281 143.859 419.344 143.406V136.656C420.969 137.375 422.656 138.023 424.406 138.602C426.156 139.18 427.891 139.469 429.609 139.469C430.797 139.469 431.75 139.312 432.469 139C433.203 138.688 433.734 138.258 434.062 137.711C434.391 137.164 434.555 136.539 434.555 135.836C434.555 134.977 434.266 134.242 433.688 133.633C433.109 133.023 432.312 132.453 431.297 131.922C430.297 131.391 429.164 130.82 427.898 130.211C427.102 129.836 426.234 129.383 425.297 128.852C424.359 128.305 423.469 127.641 422.625 126.859C421.781 126.078 421.086 125.133 420.539 124.023C420.008 122.898 419.742 121.555 419.742 119.992C419.742 117.945 420.211 116.195 421.148 114.742C422.086 113.289 423.422 112.18 425.156 111.414C426.906 110.633 428.969 110.242 431.344 110.242C433.125 110.242 434.82 110.453 436.43 110.875C438.055 111.281 439.75 111.875 441.516 112.656L439.172 118.305C437.594 117.664 436.18 117.172 434.93 116.828C433.68 116.469 432.406 116.289 431.109 116.289C430.203 116.289 429.43 116.438 428.789 116.734C428.148 117.016 427.664 117.422 427.336 117.953C427.008 118.469 426.844 119.07 426.844 119.758C426.844 120.57 427.078 121.258 427.547 121.82C428.031 122.367 428.75 122.898 429.703 123.414C430.672 123.93 431.875 124.531 433.312 125.219C435.062 126.047 436.555 126.914 437.789 127.82C439.039 128.711 440 129.766 440.672 130.984C441.344 132.188 441.68 133.688 441.68 135.484ZM468.867 145L466.383 136.844H453.891L451.406 145H443.578L455.672 110.594H464.555L476.695 145H468.867ZM464.648 130.75L462.164 122.781C462.008 122.25 461.797 121.57 461.531 120.742C461.281 119.898 461.023 119.047 460.758 118.188C460.508 117.312 460.305 116.555 460.148 115.914C459.992 116.555 459.773 117.352 459.492 118.305C459.227 119.242 458.969 120.133 458.719 120.977C458.469 121.82 458.289 122.422 458.18 122.781L455.719 130.75H464.648ZM488.18 145H481.031V110.734H500.672V116.688H488.18V125.523H499.805V131.453H488.18V145ZM527.109 145H507.375V110.734H527.109V116.688H514.641V124.211H526.242V130.164H514.641V139H527.109V145Z" fill="#2C3E50"/>
</svg>
