<svg width="84" height="58" viewBox="0 0 84 58" fill="none" xmlns="http://www.w3.org/2000/svg">
<path fill-rule="evenodd" clip-rule="evenodd" d="M11.3315 38.206L11.9725 38.1413C12.0111 38.3577 12.0894 38.5165 12.2073 38.6182C12.3253 38.7197 12.4844 38.7703 12.6848 38.7703C12.8969 38.7703 13.0567 38.7253 13.1644 38.6352C13.2719 38.5449 13.3256 38.4395 13.3256 38.3187C13.3256 38.2413 13.303 38.1755 13.258 38.1209C13.2129 38.0666 13.1341 38.0195 13.0216 37.979C12.9446 37.9526 12.7693 37.9053 12.4956 37.8373C12.1432 37.7501 11.8963 37.6426 11.7542 37.515C11.5545 37.3357 11.4546 37.117 11.4546 36.8588C11.4546 36.693 11.5016 36.5375 11.5959 36.3931C11.6899 36.2485 11.8259 36.1383 12.003 36.0627C12.1803 35.9872 12.3943 35.9492 12.645 35.9492C13.0544 35.9492 13.3624 36.0395 13.5694 36.2196C13.7764 36.4 13.8849 36.6405 13.8953 36.9414L13.235 36.9673C13.2069 36.7992 13.1464 36.6785 13.0535 36.6046C12.9609 36.5309 12.8219 36.494 12.6365 36.494C12.4451 36.494 12.2955 36.5334 12.1872 36.6123C12.1173 36.6627 12.0825 36.7303 12.0825 36.815C12.0825 36.8924 12.1153 36.9584 12.1805 37.0136C12.2634 37.0833 12.465 37.1562 12.7853 37.2315C13.1053 37.307 13.3421 37.3853 13.4956 37.4666C13.649 37.5478 13.7691 37.6588 13.8559 37.7995C13.9425 37.9406 13.986 38.1145 13.986 38.3216C13.986 38.5096 13.934 38.6854 13.83 38.8494C13.726 39.0133 13.5791 39.1351 13.3892 39.2148C13.1992 39.2945 12.9624 39.3345 12.6788 39.3345C12.2661 39.3345 11.9491 39.2385 11.7279 39.0463C11.5068 38.8541 11.3746 38.5742 11.3315 38.206Z" fill="#0B4A8E"/>
<path fill-rule="evenodd" clip-rule="evenodd" d="M14.6704 36.9073H15.2983V39.2743H14.6704V36.9073ZM14.6704 36.0059H15.2983V36.5832H14.6704V36.0059Z" fill="#0B4A8E"/>
<path fill-rule="evenodd" clip-rule="evenodd" d="M18.2295 39.2749H17.6016V38.0642C17.6016 37.8082 17.5881 37.6426 17.5616 37.5674C17.5349 37.4923 17.4918 37.4336 17.4319 37.3919C17.3721 37.3504 17.3 37.3294 17.2159 37.3294C17.1079 37.3294 17.0112 37.3593 16.9254 37.4188C16.8396 37.4784 16.781 37.5573 16.7493 37.6556C16.7174 37.7538 16.7017 37.9354 16.7017 38.2006V39.2749H16.0737V36.9079H16.6563V37.2557C16.8624 36.9849 17.1222 36.8496 17.435 36.8496C17.573 36.8496 17.6992 36.8747 17.8133 36.9245C17.9275 36.9743 18.0139 37.038 18.0725 37.1154C18.1311 37.1929 18.172 37.2806 18.195 37.379C18.2179 37.4772 18.2295 37.6179 18.2295 37.8009V39.2749Z" fill="#0B4A8E"/>
<path fill-rule="evenodd" clip-rule="evenodd" d="M19.4993 38.0404C19.4993 38.2923 19.5474 38.4768 19.6439 38.5936C19.7402 38.7109 19.8591 38.7692 20.0006 38.7692C20.1521 38.7692 20.2801 38.7092 20.3847 38.5893C20.4892 38.4693 20.5416 38.2915 20.5416 38.0559C20.5416 37.8102 20.4914 37.6276 20.3914 37.5083C20.2911 37.3892 20.1647 37.3294 20.0116 37.3294C19.8629 37.3294 19.7402 37.3881 19.6439 37.505C19.5474 37.6222 19.4993 37.8005 19.4993 38.0404ZM18.9361 39.4306L19.6481 39.5084C19.6601 39.5966 19.6877 39.6572 19.7308 39.6904C19.7905 39.7377 19.8843 39.7614 20.0123 39.7614C20.1762 39.7614 20.2991 39.7369 20.3811 39.6879C20.436 39.6551 20.4779 39.6024 20.5062 39.5296C20.5255 39.4773 20.5352 39.3816 20.5352 39.2417L20.5371 38.8962C20.3519 39.1488 20.117 39.2749 19.8319 39.2749C19.5139 39.2749 19.2624 39.1405 19.0768 38.8709C18.9311 38.658 18.8584 38.3927 18.8584 38.0757C18.8584 37.678 18.9537 37.3744 19.1445 37.1644C19.3353 36.9546 19.5727 36.8496 19.8563 36.8496C20.1489 36.8496 20.3902 36.9785 20.5804 37.2358V36.9079H21.1632V39.0357C21.1632 39.3156 21.1402 39.5248 21.094 39.663C21.048 39.8016 20.9833 39.9102 20.9001 39.989C20.8168 40.0679 20.7057 40.1297 20.5667 40.1743C20.4277 40.219 20.252 40.2414 20.0397 40.2414C19.6384 40.2414 19.3537 40.1721 19.1857 40.0336C19.0177 39.8952 18.9338 39.7197 18.9338 39.5069C18.9338 39.486 18.9346 39.4607 18.9361 39.4306Z" fill="#0B4A8E"/>
<path fill-rule="evenodd" clip-rule="evenodd" d="M21.915 36.0059H22.543V39.2743H21.915V36.0059Z" fill="#0B4A8E"/>
<path fill-rule="evenodd" clip-rule="evenodd" d="M24.7293 37.8937C24.7249 37.7094 24.6779 37.5695 24.5882 37.4734C24.4987 37.3775 24.3897 37.3294 24.2613 37.3294C24.1239 37.3294 24.0104 37.3802 23.9209 37.4813C23.8312 37.5824 23.7873 37.72 23.7887 37.8937H24.7293ZM24.6969 38.5293L25.3184 38.6331C25.238 38.8611 25.1111 39.035 24.9377 39.1544C24.7642 39.2739 24.5471 39.3335 24.2867 39.3335C23.8742 39.3335 23.5691 39.1984 23.3712 38.9284C23.2148 38.7121 23.1367 38.4392 23.1367 38.1093C23.1367 37.7158 23.2393 37.4072 23.4448 37.1841C23.6501 36.961 23.9097 36.8496 24.2235 36.8496C24.5763 36.8496 24.8546 36.9667 25.0584 37.2005C25.2623 37.4348 25.3597 37.7932 25.3507 38.2763H23.7777C23.7821 38.4627 23.833 38.6075 23.9304 38.7113C24.0278 38.8146 24.1492 38.8665 24.2946 38.8665C24.3934 38.8665 24.4767 38.84 24.544 38.7866C24.6114 38.7335 24.6625 38.6476 24.6969 38.5293Z" fill="#0B4A8E"/>
<path fill-rule="evenodd" clip-rule="evenodd" d="M27.4053 39.2743V36.0059H29.8203V36.5572H28.0657V37.2836H29.6972V37.8348H28.0657V38.7232H29.8849V39.2743H27.4053Z" fill="#0B4A8E"/>
<path fill-rule="evenodd" clip-rule="evenodd" d="M32.1299 39.2752V38.9208C32.0435 39.0471 31.9302 39.1476 31.7895 39.2221C31.6488 39.2964 31.5005 39.3337 31.3443 39.3337C31.185 39.3337 31.0425 39.2987 30.9159 39.2287C30.7895 39.1588 30.6979 39.0604 30.6414 38.934C30.5848 38.8075 30.5566 38.6325 30.5566 38.4092V36.9082H31.1846V37.9969C31.1846 38.3302 31.196 38.5344 31.2192 38.6093C31.2422 38.6848 31.284 38.7442 31.3449 38.7882C31.4058 38.8319 31.4829 38.8537 31.5765 38.8537C31.6834 38.8537 31.7794 38.8247 31.8639 38.7657C31.9486 38.707 32.0064 38.6342 32.0377 38.547C32.0688 38.4601 32.0845 38.2469 32.0845 37.9078V36.9082H32.7125V39.2752H32.1299Z" fill="#0B4A8E"/>
<path fill-rule="evenodd" clip-rule="evenodd" d="M34.0923 39.2749H33.4644V36.9079H34.0469V37.2445C34.1466 37.0856 34.2361 36.9801 34.3156 36.9278C34.3952 36.8758 34.4853 36.8496 34.5864 36.8496C34.7289 36.8496 34.8665 36.8892 34.9987 36.9683L34.8076 37.5164C34.702 37.4481 34.6034 37.4139 34.5126 37.4139C34.4246 37.4139 34.3502 37.4381 34.2891 37.4863C34.228 37.5348 34.1799 37.6222 34.1449 37.7486C34.1099 37.875 34.0923 38.14 34.0923 38.543V39.2749Z" fill="#0B4A8E"/>
<path fill-rule="evenodd" clip-rule="evenodd" d="M35.8928 38.0914C35.8928 38.3274 35.9486 38.5077 36.0602 38.6331C36.1719 38.7584 36.3095 38.8211 36.4733 38.8211C36.637 38.8211 36.7744 38.7584 36.8852 38.6331C36.996 38.5077 37.0516 38.3257 37.0516 38.0871C37.0516 37.8544 36.996 37.6751 36.8852 37.55C36.7744 37.4247 36.637 37.362 36.4733 37.362C36.3095 37.362 36.1719 37.4247 36.0602 37.55C35.9486 37.6751 35.8928 37.8559 35.8928 38.0914ZM35.252 38.0578C35.252 37.849 35.3031 37.6469 35.4057 37.4514C35.508 37.2561 35.653 37.1069 35.8409 37.004C36.0286 36.9011 36.2385 36.8496 36.4701 36.8496C36.8279 36.8496 37.121 36.9662 37.3498 37.1997C37.5783 37.4332 37.6926 37.7283 37.6926 38.0848C37.6926 38.4442 37.577 38.7424 37.3462 38.9788C37.1155 39.2152 36.8248 39.3335 36.4745 39.3335C36.2578 39.3335 36.051 39.2841 35.8544 39.1859C35.6576 39.0873 35.508 38.9431 35.4057 38.7528C35.3031 38.5625 35.252 38.3311 35.252 38.0578Z" fill="#0B4A8E"/>
<path fill-rule="evenodd" clip-rule="evenodd" d="M40.3976 36.5572V37.4911H40.7573C41.0162 37.4911 41.1894 37.4741 41.2769 37.4396C41.3641 37.4052 41.4327 37.3512 41.4822 37.2778C41.5317 37.2045 41.5565 37.1192 41.5565 37.0219C41.5565 36.9022 41.5217 36.8034 41.4521 36.7255C41.3825 36.6477 41.2945 36.5992 41.188 36.5797C41.1095 36.5647 40.952 36.5572 40.715 36.5572H40.3976ZM39.7373 39.2743V36.0059H40.7943C41.1948 36.0059 41.456 36.0225 41.5776 36.055C41.7645 36.104 41.9209 36.2109 42.0471 36.3753C42.1732 36.5394 42.2362 36.7517 42.2362 37.0119C42.2362 37.2126 42.1999 37.3811 42.1272 37.5183C42.0547 37.6548 41.9623 37.7623 41.8504 37.8404C41.7386 37.9186 41.6248 37.9701 41.5092 37.9954C41.352 38.0267 41.1245 38.0423 40.8268 38.0423H40.3976V39.2743H39.7373Z" fill="#0B4A8E"/>
<path fill-rule="evenodd" clip-rule="evenodd" d="M44.2089 38.1402C44.1287 38.1672 44.0021 38.1991 43.8289 38.2365C43.6557 38.2736 43.5424 38.3104 43.4894 38.3461C43.4077 38.4044 43.3673 38.4782 43.3673 38.5677C43.3673 38.6559 43.3997 38.7318 43.4647 38.7962C43.53 38.8603 43.6128 38.8925 43.7137 38.8925C43.8262 38.8925 43.9333 38.8551 44.0357 38.7806C44.1111 38.7237 44.1608 38.6544 44.1844 38.5723C44.2006 38.5185 44.2089 38.4162 44.2089 38.2653V38.1402ZM43.3674 37.6278L42.8041 37.5241C42.8679 37.2947 42.9777 37.1252 43.1335 37.015C43.2895 36.9048 43.5211 36.8496 43.8284 36.8496C44.1074 36.8496 44.3154 36.8828 44.4519 36.9488C44.5885 37.0154 44.6848 37.0995 44.7403 37.2014C44.796 37.3033 44.824 37.4906 44.824 37.7631L44.8176 38.4957C44.8176 38.704 44.8275 38.858 44.8474 38.9568C44.8675 39.0558 44.905 39.1618 44.9599 39.2749H44.3384C44.3218 39.234 44.3019 39.1732 44.2781 39.0927C44.2678 39.056 44.2603 39.0319 44.2562 39.0201C44.1493 39.1245 44.0351 39.2029 43.9135 39.2552C43.7919 39.3073 43.6624 39.3335 43.5244 39.3335C43.2812 39.3335 43.0894 39.267 42.9493 39.1346C42.8093 39.002 42.7393 38.8344 42.7393 38.6318C42.7393 38.498 42.7712 38.3784 42.8348 38.2734C42.8988 38.1684 42.9883 38.0879 43.1033 38.0321C43.2184 37.9765 43.3844 37.9273 43.6011 37.8856C43.8934 37.8306 44.096 37.7793 44.2089 37.7316V37.6683C44.2089 37.5463 44.1791 37.4593 44.1194 37.4072C44.0596 37.3553 43.9471 37.3294 43.7813 37.3294C43.6695 37.3294 43.5822 37.3516 43.5195 37.3956C43.4567 37.4398 43.4059 37.5172 43.3674 37.6278Z" fill="#0B4A8E"/>
<path fill-rule="evenodd" clip-rule="evenodd" d="M45.2749 36.9082H45.9416L46.5082 38.5887L47.0617 36.9082H47.7092L46.7243 39.6025C46.6692 39.7411 46.6167 39.8467 46.567 39.9198C46.5173 39.9926 46.4599 40.052 46.3953 40.0972C46.3304 40.1427 46.2513 40.1784 46.1568 40.2035C46.0624 40.229 45.9557 40.2416 45.8367 40.2416C45.7164 40.2416 45.5979 40.229 45.4821 40.2037L45.4237 39.7129C45.5221 39.7326 45.6111 39.7421 45.6901 39.7421C45.8365 39.7421 45.9445 39.6988 46.0147 39.6124C46.0849 39.5257 46.1386 39.4155 46.1759 39.2819L45.2749 36.9082Z" fill="#0B4A8E"/>
<path fill-rule="evenodd" clip-rule="evenodd" d="M48.1987 36.9079H48.7749V37.2312C48.9818 36.9768 49.2282 36.8496 49.5141 36.8496C49.6657 36.8496 49.7975 36.8807 49.9091 36.9432C50.0208 37.0059 50.1124 37.1005 50.1836 37.2269C50.2876 37.1005 50.4001 37.0059 50.5203 36.9432C50.6409 36.8807 50.7691 36.8496 50.9058 36.8496C51.0799 36.8496 51.2269 36.8849 51.3473 36.9559C51.4677 37.0262 51.5578 37.1302 51.6173 37.2674C51.6601 37.3684 51.6817 37.5322 51.6817 37.7586V39.2749H51.0537V37.9192C51.0537 37.6839 51.0322 37.5322 50.9893 37.4637C50.9313 37.374 50.8424 37.3294 50.7225 37.3294C50.6348 37.3294 50.5524 37.3562 50.4753 37.4099C50.3983 37.4637 50.3427 37.5421 50.3088 37.6457C50.2746 37.749 50.2574 37.9125 50.2574 38.1358V39.2749H49.6295V37.9752C49.6295 37.744 49.6185 37.5954 49.5961 37.5282C49.5739 37.4612 49.5395 37.4114 49.4927 37.3786C49.4459 37.346 49.3827 37.3294 49.3025 37.3294C49.2062 37.3294 49.1194 37.3556 49.0423 37.4076C48.9653 37.4597 48.9102 37.5351 48.8766 37.6332C48.8432 37.7316 48.8267 37.8945 48.8267 38.1223V39.2749H48.1987V36.9079Z" fill="#0B4A8E"/>
<path fill-rule="evenodd" clip-rule="evenodd" d="M53.8446 37.8937C53.8401 37.7094 53.7933 37.5695 53.7033 37.4734C53.6141 37.3775 53.5049 37.3294 53.3764 37.3294C53.2393 37.3294 53.1255 37.3802 53.0363 37.4813C52.9466 37.5824 52.9026 37.72 52.9041 37.8937H53.8446ZM53.8124 38.5293L54.4339 38.6331C54.3533 38.8611 54.2265 39.035 54.0531 39.1544C53.8795 39.2739 53.6626 39.3335 53.402 39.3335C52.9897 39.3335 52.6845 39.1984 52.4865 38.9284C52.3301 38.7121 52.252 38.4392 52.252 38.1093C52.252 37.7158 52.3549 37.4072 52.56 37.1841C52.7655 36.961 53.0249 36.8496 53.339 36.8496C53.6918 36.8496 53.9698 36.9667 54.1737 37.2005C54.3775 37.4348 54.4751 37.7932 54.4662 38.2763H52.8929C52.8975 38.4627 52.9485 38.6075 53.0458 38.7113C53.143 38.8146 53.2644 38.8665 53.41 38.8665C53.5089 38.8665 53.5919 38.84 53.6593 38.7866C53.727 38.7335 53.778 38.6476 53.8124 38.5293Z" fill="#0B4A8E"/>
<path fill-rule="evenodd" clip-rule="evenodd" d="M57.2608 39.2749H56.6329V38.0642C56.6329 37.8082 56.6194 37.6426 56.5931 37.5674C56.5664 37.4923 56.5231 37.4336 56.4632 37.3919C56.4033 37.3504 56.3312 37.3294 56.2471 37.3294C56.1394 37.3294 56.0424 37.3593 55.9569 37.4188C55.8711 37.4784 55.8125 37.5573 55.7806 37.6556C55.7489 37.7538 55.7329 37.9354 55.7329 38.2006V39.2749H55.105V36.9079H55.6875V37.2557C55.8939 36.9849 56.1535 36.8496 56.4663 36.8496C56.6043 36.8496 56.7306 36.8747 56.8446 36.9245C56.9587 36.9743 57.0453 37.038 57.104 37.1154C57.1626 37.1929 57.2032 37.2806 57.2262 37.379C57.2494 37.4772 57.2608 37.6179 57.2608 37.8009V39.2749Z" fill="#0B4A8E"/>
<path fill-rule="evenodd" clip-rule="evenodd" d="M59.1136 36.9074V37.4067H58.6862V38.3644C58.6862 38.5583 58.6902 38.6714 58.6982 38.7033C58.7061 38.7355 58.7244 38.7618 58.7527 38.7828C58.7813 38.8035 58.8157 38.8141 58.8565 38.8141C58.9137 38.8141 58.9957 38.794 59.1039 38.754L59.1588 39.2391C59.014 39.3016 58.8501 39.3329 58.6672 39.3329C58.5547 39.3329 58.4538 39.3138 58.3637 39.2759C58.2738 39.2381 58.2077 39.1887 58.1654 39.1283C58.1233 39.0681 58.0943 38.9866 58.0782 38.8839C58.0647 38.8108 58.0583 38.6633 58.0583 38.4414V37.4067H57.7734V36.9074H58.0583V36.4341L58.6862 36.0645V36.9074H59.1136Z" fill="#0B4A8E"/>
<path fill-rule="evenodd" clip-rule="evenodd" d="M59.4668 38.6071L60.0947 38.5098C60.1215 38.6308 60.1755 38.7225 60.2569 38.7854C60.3386 38.8483 60.4525 38.8794 60.5992 38.8794C60.761 38.8794 60.8826 38.8495 60.964 38.7897C61.0189 38.7476 61.0465 38.6918 61.0465 38.6212C61.0465 38.5735 61.0314 38.5337 61.0015 38.5025C60.97 38.4724 60.9 38.4448 60.791 38.4193C60.2837 38.307 59.9619 38.2047 59.8264 38.1124C59.6383 37.9843 59.5445 37.8061 59.5445 37.5784C59.5445 37.3726 59.6255 37.1997 59.7881 37.0598C59.951 36.9198 60.2031 36.8496 60.5447 36.8496C60.87 36.8496 61.1115 36.9021 61.2698 37.0069C61.4279 37.1119 61.5368 37.2669 61.5967 37.4722L61.0075 37.5824C60.982 37.4904 60.9336 37.4197 60.8623 37.3707C60.7908 37.3215 60.6891 37.297 60.5571 37.297C60.3906 37.297 60.271 37.3201 60.1991 37.3668C60.1509 37.3995 60.127 37.4421 60.127 37.4944C60.127 37.5394 60.1478 37.5776 60.1896 37.6091C60.2462 37.6509 60.4419 37.71 60.7765 37.7864C61.1111 37.8627 61.3448 37.9561 61.4776 38.0667C61.6085 38.1788 61.6744 38.3351 61.6744 38.5353C61.6744 38.7534 61.5837 38.941 61.4028 39.0979C61.2215 39.255 60.9539 39.3335 60.5992 39.3335C60.2775 39.3335 60.0226 39.2681 59.8349 39.138C59.6472 39.0074 59.5246 38.8308 59.4668 38.6071Z" fill="#0B4A8E"/>
<path fill-rule="evenodd" clip-rule="evenodd" d="M65.4963 37.984L65.0401 36.7712L64.5992 37.984H65.4963ZM66.7071 39.2743H65.9961L65.714 38.5351H64.3988L64.1299 39.2743H63.4312L64.6951 36.0059H65.3895L66.7071 39.2743Z" fill="#0B4A8E"/>
<path fill-rule="evenodd" clip-rule="evenodd" d="M67.7852 39.2749H67.1572V36.9079H67.7398V37.2445C67.8394 37.0856 67.9287 36.9801 68.0085 36.9278C68.0878 36.8758 68.1779 36.8496 68.2793 36.8496C68.4218 36.8496 68.5591 36.8892 68.6915 36.9683L68.5005 37.5164C68.3946 37.4481 68.2962 37.4139 68.2055 37.4139C68.1172 37.4139 68.0429 37.4381 67.9818 37.4863C67.9206 37.5348 67.8726 37.6222 67.8378 37.7486C67.8026 37.875 67.7852 38.14 67.7852 38.543V39.2749Z" fill="#0B4A8E"/>
<path fill-rule="evenodd" clip-rule="evenodd" d="M70.5048 37.8937C70.5002 37.7094 70.4532 37.5695 70.3637 37.4734C70.274 37.3775 70.165 37.3294 70.0368 37.3294C69.8992 37.3294 69.7859 37.3802 69.6964 37.4813C69.6067 37.5824 69.5626 37.72 69.5642 37.8937H70.5048ZM70.4725 38.5293L71.094 38.6331C71.0136 38.8611 70.8866 39.035 70.7132 39.1544C70.5398 39.2739 70.3227 39.3335 70.0623 39.3335C69.6498 39.3335 69.3445 39.1984 69.1466 38.9284C68.9902 38.7121 68.9121 38.4392 68.9121 38.1093C68.9121 37.7158 69.0149 37.4072 69.2204 37.1841C69.4255 36.961 69.6853 36.8496 69.9991 36.8496C70.3517 36.8496 70.63 36.9667 70.834 37.2005C71.0377 37.4348 71.1352 37.7932 71.1263 38.2763H69.5531C69.5577 38.4627 69.6086 38.6075 69.7058 38.7113C69.8034 38.8146 69.9248 38.8665 70.07 38.8665C70.169 38.8665 70.2521 38.84 70.3196 38.7866C70.387 38.7335 70.4379 38.6476 70.4725 38.5293Z" fill="#0B4A8E"/>
<path fill-rule="evenodd" clip-rule="evenodd" d="M73.073 38.1402C72.993 38.1672 72.8662 38.1991 72.693 38.2365C72.5198 38.2736 72.4067 38.3104 72.3535 38.3461C72.2719 38.4044 72.2315 38.4782 72.2315 38.5677C72.2315 38.6559 72.2638 38.7318 72.329 38.7962C72.3941 38.8603 72.4769 38.8925 72.5778 38.8925C72.6903 38.8925 72.7974 38.8551 72.8998 38.7806C72.9752 38.7237 73.0249 38.6544 73.0485 38.5723C73.0647 38.5185 73.073 38.4162 73.073 38.2653V38.1402ZM72.2314 37.6278L71.6682 37.5241C71.732 37.2947 71.8418 37.1252 71.9976 37.015C72.1536 36.9048 72.3852 36.8496 72.6924 36.8496C72.9715 36.8496 73.1795 36.8828 73.316 36.9488C73.4525 37.0154 73.5488 37.0995 73.6044 37.2014C73.6601 37.3033 73.6881 37.4906 73.6881 37.7631L73.6816 38.4957C73.6816 38.704 73.6916 38.858 73.7115 38.9568C73.7316 39.0558 73.7691 39.1618 73.8238 39.2749H73.2025C73.1859 39.234 73.1662 39.1732 73.1422 39.0927C73.132 39.056 73.1244 39.0319 73.1202 39.0201C73.0133 39.1245 72.8994 39.2029 72.7778 39.2552C72.6561 39.3073 72.5265 39.3335 72.3885 39.3335C72.1453 39.3335 71.9534 39.267 71.8134 39.1346C71.6735 39.002 71.6035 38.8344 71.6035 38.6318C71.6035 38.498 71.6352 38.3784 71.699 38.2734C71.7628 38.1684 71.8523 38.0879 71.9673 38.0321C72.0825 37.9765 72.2484 37.9273 72.4651 37.8856C72.7575 37.8306 72.9601 37.7793 73.073 37.7316V37.6683C73.073 37.5463 73.0431 37.4593 72.9835 37.4072C72.9238 37.3553 72.8111 37.3294 72.6454 37.3294C72.5335 37.3294 72.4463 37.3516 72.3835 37.3956C72.3209 37.4398 72.27 37.5172 72.2314 37.6278Z" fill="#0B4A8E"/>
<path fill-rule="evenodd" clip-rule="evenodd" d="M25.1988 23.163H20.9232C20.9232 22.4601 20.8407 21.9884 20.6766 21.7483C20.4222 21.393 19.7199 21.2152 18.5705 21.2152C17.4543 21.2152 16.7143 21.3175 16.3532 21.5223C15.9923 21.7278 15.8117 22.1746 15.8117 22.8625C15.8117 23.4853 15.9716 23.8954 16.2923 24.0919C16.522 24.2313 16.8255 24.3133 17.204 24.3378L18.0663 24.3988C19.9143 24.5217 21.0684 24.6082 21.5287 24.6574C22.9901 24.8049 24.0496 25.1942 24.7069 25.8251C25.2242 26.3174 25.5327 26.9607 25.6311 27.7551C25.6887 28.2303 25.7173 28.768 25.7173 29.3654C25.7173 30.7426 25.5862 31.7511 25.3235 32.3903C24.8474 33.563 23.778 34.3037 22.114 34.6147C21.4169 34.7463 20.3503 34.8121 18.9159 34.8121C16.5214 34.8121 14.8527 34.6693 13.9104 34.3823C12.754 34.0308 11.9916 33.3186 11.6227 32.2461C11.4172 31.649 11.3154 30.6548 11.3154 29.2629H15.591C15.591 29.4182 15.5914 29.5369 15.5914 29.6186C15.5914 30.3614 15.8046 30.8391 16.2299 31.0518C16.5247 31.1985 16.8807 31.2755 17.2991 31.2846H18.8709C19.6731 31.2846 20.185 31.2435 20.4059 31.1609C20.7989 31.0061 21.0568 30.7569 21.1801 30.412C21.2455 30.1997 21.2781 29.9249 21.2781 29.5887C21.2781 28.8356 21.0036 28.3774 20.4556 28.2131C20.2507 28.1481 19.2973 28.0576 17.5956 27.9429C16.2291 27.8451 15.2798 27.7511 14.7482 27.66C13.3484 27.3977 12.4155 26.8584 11.95 26.0395C11.5408 25.3437 11.3361 24.2909 11.3361 22.8826C11.3361 21.8102 11.4468 20.9502 11.6678 20.3033C11.8891 19.6563 12.2456 19.1651 12.7377 18.8291C13.4584 18.3134 14.3807 18.0106 15.5034 17.9201C16.4375 17.8386 17.4738 17.7969 18.6136 17.7969C20.4081 17.7969 21.687 17.9002 22.4494 18.105C24.31 18.6058 25.2402 20.0084 25.2402 22.3134C25.2402 22.5025 25.2263 22.7851 25.1988 23.163Z" fill="#0B4A8E"/>
<path fill-rule="evenodd" clip-rule="evenodd" d="M48.5966 26.4282H51.4617C52.3702 26.3954 52.9227 26.3255 53.1216 26.2159C53.3932 26.0663 53.5755 25.7668 53.6662 25.3175C53.7243 25.0185 53.7533 24.574 53.7533 23.9834C53.7533 23.2599 53.6957 22.7237 53.5799 22.3734C53.4145 21.8828 53.0186 21.584 52.3915 21.4754C52.2676 21.459 51.9708 21.4503 51.5005 21.4503H48.5966V26.4282ZM44.0005 34.8127V17.707H52.5631C53.7375 17.707 54.6337 17.8031 55.2494 17.9951C56.6578 18.4371 57.6027 19.3421 58.0866 20.7099C58.3365 21.4277 58.4614 22.5085 58.4614 23.9516C58.4614 25.6867 58.3228 26.9337 58.0487 27.6928C57.4995 29.194 56.369 30.0588 54.6619 30.2829C54.4612 30.3165 53.607 30.3466 52.0994 30.3707L51.3364 30.3962H48.5964V34.8127H44.0005Z" fill="#0B4A8E"/>
<path fill-rule="evenodd" clip-rule="evenodd" d="M67.359 28.524L65.2057 21.109L63.116 28.524H67.359ZM68.2718 31.8564H62.1269L61.3014 34.8127H56.5464L61.6772 17.707H68.6099L73.8037 34.8127H69.1486L68.2718 31.8564Z" fill="#0B4A8E"/>
<path fill-rule="evenodd" clip-rule="evenodd" d="M37.6574 20.1137C39.553 20.1137 41.2447 20.9884 42.3568 22.3585L43.3475 20.2307C41.7981 18.7638 39.6893 17.8594 37.3634 17.8594C33.7421 17.8594 30.6442 20.0502 29.3728 23.1514H27.441L26.3003 25.601H28.7855C28.7669 25.8283 28.7548 26.0557 28.7548 26.2877C28.7548 26.5685 28.7694 26.8459 28.7971 27.1201H27.5481L26.4076 29.5705H29.4321C30.7398 32.5933 33.7988 34.7154 37.3634 34.7154C39.1598 34.7154 40.8267 34.1763 42.2068 33.2553V30.2522C41.0954 31.5198 39.4697 32.3208 37.6574 32.3208C35.5389 32.3208 33.6754 31.2265 32.5902 29.5705H38.9236L40.0641 27.1201H31.6583C31.615 26.8252 31.5918 26.5239 31.5918 26.2169C31.5918 26.0094 31.6026 25.804 31.6225 25.601H40.7709L41.9114 23.1514H32.4137C33.464 21.3356 35.4187 20.1137 37.6574 20.1137Z" fill="#F6BC25"/>
</svg>
