<svg version="1.2" xmlns="http://www.w3.org/2000/svg" viewBox="0 0 407 219" width="407" height="219">
	<title>SSL-svg</title>
	<style>
		.s0 { fill: #ff5833 } 
		.s1 { fill: #2c3e50 } 
	</style>
	<path id="Layer" class="s0" d="m217.9 111.4l8.9-10.7c5.6 5.2 12.9 8.1 20.5 8.4 6.2 0 9.9-2.5 9.9-6.5v-0.2c0-3.8-2.3-5.8-13.8-8.7-13.9-3.5-22.8-7.4-22.8-21v-0.2c0-12.5 10-20.7 24.1-20.7 9.3-0.2 18.3 2.9 25.5 8.7l-7.9 11.4c-5.1-4-11.4-6.4-17.9-6.8-5.8 0-8.8 2.7-8.8 6v0.2c0 4.5 2.9 6 14.8 9 13.9 3.6 21.8 8.6 21.8 20.6v0.2c0 13.7-10.4 21.3-25.2 21.3-10.6 0-21-3.9-29.1-11z"/>
	<path id="Layer" class="s0" d="m279.8 111.4l8.9-10.7c5.6 5.2 12.9 8.1 20.5 8.4 6.2 0 9.9-2.5 9.9-6.5v-0.2c0-3.8-2.3-5.8-13.8-8.7-13.9-3.5-22.8-7.4-22.8-21v-0.2c0-12.5 10-20.7 24.1-20.7 9.3-0.2 18.3 2.9 25.5 8.7l-7.9 11.4c-5.1-4-11.4-6.4-17.9-6.8-5.8 0-8.8 2.7-8.8 6v0.2c0 4.5 2.9 6 14.8 9 13.9 3.6 21.8 8.6 21.8 20.6v0.2c0 13.7-10.4 21.3-25.2 21.3-10.7 0-21-3.9-29.1-11z"/>
	<path id="Layer" class="s0" d="m347.4 52.6h15.1v55h34.3v13.8h-49.4z"/>
	<path id="Layer" class="s0" d="m216.1 156.2l3.4-4.1c2.2 2 5 3.1 7.9 3.2 2.4 0 3.8-0.9 3.8-2.5v-0.1c0-1.5-0.9-2.2-5.3-3.4-5.3-1.4-8.8-2.8-8.8-8.1v-0.1c0.1-4.6 3.9-8.2 8.5-8 0.2 0 0.5 0 0.7 0.1 3.6-0.1 7 1.1 9.8 3.4l-3 4.4c-2-1.5-4.4-2.5-6.9-2.6-2.2 0-3.4 1-3.4 2.3v0.1c0 1.7 1.1 2.3 5.7 3.5 5.4 1.4 8.4 3.3 8.4 7.9v0.1c0 5.3-4 8.2-9.7 8.2-4-0.1-8-1.6-11.1-4.3z"/>
	<path id="Layer" class="s0" d="m242.1 133.6h19.9v5.2h-14.2v5.4h12.5v5.2h-12.5v5.6h14.4v5.2h-20.1z"/>
	<path id="Layer" class="s0" d="m266.3 146.9c-0.1-7.5 5.8-13.6 13.2-13.8q0.3 0 0.6 0c3.9-0.2 7.7 1.3 10.4 4.1l-3.7 4.3c-1.8-1.8-4.2-2.9-6.8-3-4.3 0.1-7.8 3.7-7.7 8 0 0.1 0 0.2 0 0.2v0.1c-0.3 4.3 3.1 8 7.4 8.3q0.2 0 0.3 0c2.6 0 5.2-1.1 7-3.1l3.7 3.7c-2.7 3.2-6.7 4.9-10.8 4.7-7.4 0.1-13.4-5.8-13.6-13.1 0-0.1 0-0.2 0-0.4z"/>
	<path id="Layer" class="s0" d="m294.9 148.7v-15.1h5.8v14.9c0 4.3 2.2 6.5 5.7 6.5 3.5 0 5.7-2.2 5.7-6.3v-15.1h5.8v14.9c0.7 5.8-3.4 11.2-9.2 11.9q-1.2 0.2-2.4 0c-5.8 0.6-10.9-3.6-11.5-9.4 0-0.7 0-1.5 0.1-2.3z"/>
	<path id="Layer" fill-rule="evenodd" class="s0" d="m323.9 133.6h12.1c2.8-0.2 5.6 0.8 7.7 2.7 1.5 1.6 2.4 3.8 2.3 6v0.1c0.2 3.7-2.1 7.1-5.7 8.2l6.5 9.4h-6.8l-5.7-8.5h-4.6v8.5h-5.8zm11.7 12.9c2.8 0 4.5-1.5 4.5-3.7v-0.1c0-2.5-1.7-3.8-4.6-3.8h-5.8v7.6z"/>
	<path id="Layer" class="s0" d="m351.3 133.6h19.9v5.2h-14.2v5.4h12.5v5.2h-12.5v5.6h14.4v5.2h-20.1z"/>
	<path id="Layer" fill-rule="evenodd" class="s0" d="m376.6 133.6h10.3c7.3-0.5 13.5 5 14 12.3q0 0.5 0 0.9v0.1c0 7.3-5.9 13.2-13.2 13.3-0.3 0-0.6 0-0.8 0h-10.3zm10.3 21.2c4.2 0.2 7.7-2.9 8-7.1 0-0.3 0-0.5 0-0.8v-0.1c0.2-4.2-3-7.8-7.2-8-0.3 0-0.5 0-0.8 0h-4.5v15.9z"/>
	<path id="Layer" fill-rule="evenodd" class="s1" d="m11.1 31.9c0-3.1 2.1-5.8 5.1-6.5l81.5-20.2c1-0.3 2.1-0.3 3.2 0l81.5 20.2c3 0.7 5.1 3.4 5.1 6.5v81c0 60.5-58.9 91.2-84.3 101.6l-0.9 0.4c-1.8 0.9-4 0.9-5.9 0l-0.9-0.4c-25.3-10.4-84.3-41.1-84.3-101.6m163-75.8l-74.7-18.5-74.7 18.5v75.8c0 51.5 51.2 78.9 74.7 88.7 23.4-9.8 74.7-37.2 74.7-88.7z"/>
	<path id="Layer" fill-rule="evenodd" class="s0" d="m126.6 72.7v6.7c5.4 0.7 9.6 5.3 9.6 10.8v47.6c0 6-4.9 10.9-10.9 10.9h-51.5c-6 0-10.9-4.9-10.9-10.9v-47.6c0-5.3 3.8-9.8 9.1-10.7v-6.7c0-15 12.2-27.2 27.2-27.2 15 0 27.1 12.1 27.4 27.1zm-42.7 0.1v6.5h30.7v-6.5c0-8.5-6.9-15.4-15.4-15.4-8.5 0-15.4 6.9-15.3 15.4zm40.3 18.4h-49.5v45.6h49.5zm-15.4 8l8.2 8.2-20.6 20.6-14.5-14.5 8.2-8.2 6.3 6.3z"/>
	<path id="Layer" fill-rule="evenodd" class="s1" d="m228.2 38h-4.2v-16.5h-5.4v-3.5h15.1v3.5h-5.5zm12.4-21.2v4.3q0 1.1-0.1 2.2-0.1 1-0.1 1.4h0.2q0.5-0.8 1.2-1.3 0.6-0.5 1.5-0.7 0.8-0.2 1.7-0.2 1.7 0 2.9 0.6 1.2 0.5 1.9 1.8 0.7 1.2 0.7 3.2v9.9h-4.2v-8.9q0-1.6-0.6-2.5-0.6-0.8-1.8-0.8-1.3 0-2 0.6-0.7 0.6-1 1.7-0.3 1.1-0.3 2.7v7.2h-4.2v-21.2zm18.4 6v15.2h-4.2v-15.2zm-2-6q0.9 0 1.6 0.4 0.6 0.4 0.6 1.6 0 1.2-0.6 1.6-0.7 0.5-1.6 0.5-1 0-1.7-0.5-0.6-0.4-0.6-1.6 0-1.2 0.6-1.6 0.7-0.4 1.7-0.4zm17.1 16.7q0 1.6-0.8 2.6-0.7 1.1-2.1 1.7-1.5 0.5-3.6 0.5-1.6 0-2.8-0.2-1.1-0.2-2.3-0.7v-3.4q1.3 0.5 2.7 0.9 1.4 0.4 2.5 0.4 1.2 0 1.7-0.4 0.6-0.4 0.6-0.9 0-0.4-0.2-0.7-0.3-0.3-0.9-0.7-0.7-0.4-2.2-1.1-1.5-0.6-2.4-1.2-0.9-0.6-1.4-1.4-0.4-0.9-0.4-2.2 0-2.1 1.6-3.2 1.7-1 4.4-1 1.5 0 2.8 0.3 1.3 0.2 2.6 0.9l-1.2 3q-1.2-0.5-2.2-0.8-1-0.3-2-0.3-0.9 0-1.4 0.2-0.5 0.2-0.5 0.8 0 0.3 0.3 0.6 0.2 0.3 0.9 0.7 0.7 0.3 2 0.8 1.3 0.6 2.3 1.2 0.9 0.5 1.5 1.4 0.5 0.8 0.5 2.2zm21.2 0q0 1.6-0.8 2.6-0.7 1.1-2.1 1.7-1.5 0.5-3.6 0.5-1.6 0-2.8-0.2-1.1-0.2-2.3-0.7v-3.4q1.3 0.5 2.7 0.9 1.4 0.4 2.5 0.4 1.2 0 1.7-0.4 0.6-0.4 0.6-0.9 0-0.4-0.3-0.7-0.2-0.3-0.9-0.7-0.7-0.4-2.1-1.1-1.5-0.6-2.4-1.2-0.9-0.6-1.4-1.4-0.4-0.9-0.4-2.2 0-2.1 1.6-3.2 1.7-1 4.4-1 1.5 0 2.7 0.3 1.3 0.2 2.7 0.9l-1.2 3q-1.2-0.5-2.2-0.8-1-0.3-2-0.3-0.9 0-1.4 0.2-0.5 0.2-0.5 0.8 0 0.3 0.3 0.6 0.2 0.3 0.9 0.7 0.7 0.3 2 0.8 1.3 0.6 2.3 1.2 0.9 0.5 1.5 1.4 0.5 0.8 0.5 2.2zm7.4-10.7v15.2h-4.2v-15.2zm-2-6q0.9 0 1.6 0.4 0.6 0.4 0.6 1.6 0 1.2-0.6 1.6-0.7 0.5-1.6 0.5-1 0-1.7-0.5-0.6-0.4-0.6-1.6 0-1.2 0.6-1.6 0.7-0.4 1.7-0.4zm12.9 18.2q0.6 0 1.3-0.1 0.6-0.2 1.3-0.4v3.1q-0.7 0.3-1.7 0.5-1 0.2-2.1 0.2-1.4 0-2.5-0.4-1.1-0.5-1.7-1.6-0.6-1.1-0.6-3v-7.4h-2v-1.8l2.3-1.4 1.2-3.2h2.6v3.3h4.3v3.1h-4.3v7.4q0 0.8 0.5 1.3 0.5 0.4 1.4 0.4zm12-12.5q2.1 0 3.6 0.8 1.6 0.8 2.4 2.3 0.8 1.6 0.8 3.8v2h-9.8q0.1 1.8 1 2.8 1 1 2.8 1 1.5 0 2.7-0.3 1.2-0.3 2.5-0.9v3.2q-1.2 0.6-2.4 0.9-1.2 0.2-3 0.2-2.3 0-4.1-0.8-1.7-0.9-2.7-2.6-1-1.8-1-4.4 0-2.7 0.9-4.5 0.9-1.7 2.5-2.6 1.6-0.9 3.8-0.9zm0 2.9q-1.2 0-2 0.8-0.8 0.8-0.9 2.5h5.8q0-1-0.3-1.7-0.3-0.7-1-1.1-0.6-0.5-1.6-0.5zm21.7-2.6v15.2h-4.2v-15.2zm-2.1-6q1 0 1.6 0.4 0.7 0.4 0.7 1.6 0 1.2-0.7 1.6-0.6 0.5-1.6 0.5-0.9 0-1.6-0.5-0.6-0.4-0.6-1.6 0-1.2 0.6-1.6 0.7-0.4 1.6-0.4zm17.2 16.7q0 1.6-0.8 2.6-0.7 1.1-2.2 1.7-1.4 0.5-3.6 0.5-1.6 0-2.7-0.2-1.1-0.2-2.3-0.7v-3.4q1.2 0.5 2.7 0.9 1.4 0.4 2.5 0.4 1.2 0 1.7-0.4 0.5-0.4 0.5-0.9 0-0.4-0.2-0.7-0.2-0.3-0.9-0.7-0.7-0.4-2.2-1.1-1.4-0.6-2.3-1.2-0.9-0.6-1.4-1.4-0.4-0.9-0.4-2.2 0-2.1 1.6-3.2 1.7-1 4.4-1 1.4 0 2.7 0.3 1.3 0.2 2.7 0.9l-1.3 3q-1.1-0.5-2.1-0.8-1-0.3-2-0.3-1 0-1.4 0.2-0.5 0.2-0.5 0.8 0 0.3 0.2 0.6 0.3 0.3 1 0.7 0.7 0.3 2 0.8 1.3 0.6 2.3 1.2 0.9 0.5 1.4 1.4 0.6 0.8 0.6 2.2z"/>
</svg>