<svg width="84" height="58" viewBox="0 0 84 58" fill="none" xmlns="http://www.w3.org/2000/svg">
<path fill-rule="evenodd" clip-rule="evenodd" d="M44.3977 20.7364L40.3586 21.6238V18.2714L44.3977 17.4004V20.7364ZM52.7977 22.5933C51.2207 22.5933 50.2069 23.3493 49.6437 23.8751L49.4345 22.8563H45.8943V42.0175L49.9173 41.1466L49.9333 36.4959C50.5127 36.9232 51.3655 37.5312 52.7816 37.5312C55.6621 37.5312 58.2851 35.1648 58.2851 29.9555C58.269 25.1898 55.6138 22.5933 52.7977 22.5933ZM51.832 33.9159C50.8826 33.9159 50.3194 33.5708 49.9332 33.1435L49.9171 27.0468C50.3355 26.5702 50.9148 26.2415 51.832 26.2415C53.2964 26.2415 54.3102 27.9177 54.3102 30.0705C54.3102 32.2726 53.3125 33.9159 51.832 33.9159ZM70.9656 30.1198C70.9656 25.9129 68.9702 22.5933 65.1564 22.5933C61.3265 22.5933 59.0093 25.9129 59.0093 30.0869C59.0093 35.0334 61.7449 37.5312 65.6713 37.5312C67.5863 37.5312 69.0346 37.0875 70.1288 36.4631V33.1764C69.0346 33.7351 67.7794 34.0802 66.1863 34.0802C64.6254 34.0802 63.2414 33.5215 63.0644 31.5824H70.9334C70.9334 31.4918 70.9392 31.286 70.9458 31.049C70.9548 30.727 70.9656 30.3468 70.9656 30.1198ZM63.0161 28.5586C63.0161 26.7017 64.1265 25.9293 65.1403 25.9293C66.1219 25.9293 67.1678 26.7017 67.1678 28.5586H63.0161ZM40.3586 22.8727H44.3977V37.2519H40.3586V22.8727ZM35.7725 22.8727L36.03 24.0888C36.9794 22.314 38.8622 22.6755 39.3771 22.8727V26.6524C38.8783 26.4716 37.2691 26.2415 36.3197 27.5069V37.2519H32.2967V22.8727H35.7725ZM27.9839 19.3067L24.0575 20.1612L24.0414 33.3243C24.0414 35.7564 25.8276 37.5477 28.2092 37.5477C29.5288 37.5477 30.4943 37.3012 31.0253 37.0054V33.6694C30.5104 33.883 27.9678 34.639 27.9678 32.2068V26.373H31.0253V22.8727H27.9678L27.9839 19.3067ZM18.4738 26.1594C17.6209 26.1594 17.1059 26.4059 17.1059 27.0468C17.1059 27.7465 17.9922 28.0543 19.0916 28.4362C20.884 29.0588 23.2431 29.8782 23.2531 32.9135C23.2531 35.855 20.9519 37.5477 17.6048 37.5477C16.2209 37.5477 14.7082 37.2683 13.2117 36.611V32.6998C14.5634 33.4558 16.2692 34.0145 17.6048 34.0145C18.5059 34.0145 19.1496 33.768 19.1496 33.0121C19.1496 32.237 18.1889 31.8827 17.0291 31.4549C15.2628 30.8035 13.0347 29.9818 13.0347 27.244C13.0347 24.3353 15.2071 22.5933 18.4738 22.5933C19.8094 22.5933 21.1289 22.807 22.4646 23.3493V27.2111C21.2416 26.5373 19.6967 26.1594 18.4738 26.1594Z" fill="#6772E5"/>
</svg>
