<svg width="84" height="58" viewBox="0 0 84 58" fill="none" xmlns="http://www.w3.org/2000/svg">
<path d="M37.2956 39.7776H31.7031L35.201 19.4766H40.7932L37.2956 39.7776Z" fill="#15195A"/>
<path d="M57.5685 19.9737C56.4654 19.5629 54.7158 19.1094 52.5524 19.1094C47.0297 19.1094 43.1406 21.8736 43.1167 25.8257C43.0708 28.7415 45.9012 30.361 48.0181 31.3332C50.1817 32.3267 50.9172 32.9751 50.9172 33.8607C50.8952 35.2207 49.1689 35.8476 47.5587 35.8476C45.326 35.8476 44.1296 35.5244 42.3115 34.7677L41.5751 34.4434L40.7925 39.0005C42.1042 39.5614 44.5207 40.0591 47.0297 40.081C52.8977 40.081 56.718 37.3595 56.7632 33.1479C56.7856 30.8369 55.291 29.0662 52.0689 27.6192C50.1129 26.6903 48.915 26.0639 48.915 25.1135C48.938 24.2495 49.9282 23.3646 52.1362 23.3646C53.9543 23.3212 55.2901 23.7314 56.3021 24.1419L56.8079 24.3575L57.5685 19.9737Z" fill="#15195A"/>
<path fill-rule="evenodd" clip-rule="evenodd" d="M67.5795 19.4766H71.9053L76.417 39.7773H71.2389C71.2389 39.7773 70.7322 37.4448 70.5716 36.732H63.3913C63.1837 37.2717 62.2176 39.7773 62.2176 39.7773H56.3496L64.6565 21.161C65.2321 19.8434 66.2455 19.4766 67.5795 19.4766ZM67.235 26.9056C67.235 26.9056 65.4627 31.4194 65.0022 32.5857H69.6506C69.4206 31.5707 68.3616 26.7113 68.3616 26.7113L67.9708 24.962C67.8062 25.4125 67.5682 26.0318 67.4076 26.4495C67.2988 26.7326 67.2256 26.9231 67.235 26.9056Z" fill="#15195A"/>
<path fill-rule="evenodd" clip-rule="evenodd" d="M7.47193 19.4766H16.4697C17.6893 19.5193 18.6789 19.8865 19.0009 21.1831L20.9562 30.5096L20.957 30.5123L21.5555 33.3199L27.0324 19.4766H32.946L24.1556 39.7561H18.2417L13.2571 22.1163C11.5373 21.1726 9.57446 20.4135 7.37988 19.8868L7.47193 19.4766Z" fill="#15195A"/>
</svg>
