<svg width="84" height="58" viewBox="0 0 84 58" fill="none" xmlns="http://www.w3.org/2000/svg">
<path fill-rule="evenodd" clip-rule="evenodd" d="M38.4282 23.0026C38.2988 23.0678 38.1531 23.1056 37.9982 23.1056C37.6397 23.1056 37.3283 22.9085 37.1644 22.6165L37.1018 22.4794L34.4918 16.7521C34.4636 16.6897 34.4462 16.6193 34.4462 16.5507C34.4462 16.2868 34.6601 16.0728 34.9241 16.0728C35.0313 16.0728 35.1302 16.1085 35.2099 16.1677L38.29 18.3606C38.515 18.5078 38.7838 18.5942 39.073 18.5942C39.2454 18.5942 39.4099 18.5619 39.5631 18.5063L54.0475 12.0597C51.4512 8.99972 47.1753 7 42.3365 7C34.4184 7 28 12.3489 28 18.9475C28 22.5473 29.9311 25.7878 32.9536 27.9781C33.1961 28.1512 33.3548 28.4357 33.3548 28.7567C33.3548 28.8628 33.3322 28.9598 33.3044 29.061C33.063 29.9615 32.6767 31.4036 32.6586 31.4711C32.6285 31.5842 32.5815 31.7021 32.5815 31.8204C32.5815 32.0843 32.7954 32.2981 33.0597 32.2981C33.1631 32.2981 33.248 32.2597 33.3355 32.2092L36.4741 30.3972C36.7103 30.261 36.9601 30.1765 37.2356 30.1765C37.3821 30.1765 37.5237 30.1991 37.6568 30.2399C39.1211 30.661 40.7008 30.895 42.3365 30.895C50.2542 30.895 56.6735 25.5457 56.6735 18.9475C56.6735 16.9489 56.0813 15.0667 55.0404 13.411L38.5328 22.9421L38.4282 23.0026Z" fill="#1AAD19"/>
<path fill-rule="evenodd" clip-rule="evenodd" d="M72.1376 41.8734L73.5733 45.747C73.7223 46.1805 73.8849 46.6951 73.9933 47.0879H74.0203C74.1423 46.6951 74.2776 46.194 74.4402 45.7197L75.7404 41.8734H77L75.2121 46.546C74.3589 48.7945 73.7765 49.9457 72.964 50.6499C72.5151 51.0465 72.0664 51.2583 71.7477 51.3593C71.6501 51.1841 71.2032 50.4197 71.2032 50.4197C71.5011 50.325 71.8939 50.1353 72.246 49.8375C72.5711 49.5799 72.9774 49.1194 73.2482 48.5099C73.3025 48.3882 73.3431 48.2932 73.3431 48.2255C73.3431 48.1579 73.316 48.0629 73.2618 47.9142L70.8374 41.8734H72.1376ZM44.688 41.7243C46.6924 41.7243 47.1802 43.0922 47.1802 44.4061V46.8577C47.1802 47.4263 47.2071 47.9818 47.2884 48.4287H46.2049L46.1101 47.6024H46.0693C45.7037 48.1173 44.9995 48.5778 44.0649 48.5778C42.7375 48.5778 42.0603 47.643 42.0603 46.6951C42.0603 45.1106 43.4688 44.2437 46.0017 44.2572V44.1216C46.0017 43.58 45.8527 42.6047 44.5118 42.6047C43.9603 42.6047 43.3868 42.7599 42.9414 43.0102C42.8302 42.8192 42.5344 42.3069 42.5344 42.3069C43.0761 41.9545 43.8617 41.7243 44.688 41.7243ZM66.9919 41.7243C68.9963 41.7243 69.484 43.0922 69.484 44.4061V46.8577C69.484 47.4263 69.511 47.9818 69.5923 48.4287H68.5088L68.414 47.6024H68.3733C68.0076 48.1173 67.3034 48.5778 66.3688 48.5778C65.0415 48.5778 64.3642 47.643 64.3642 46.6951C64.3642 45.1106 65.7728 44.2437 68.3056 44.2572V44.1216C68.3056 43.58 68.1565 42.6047 66.8157 42.6047C66.2642 42.6047 65.6906 42.7599 65.2454 43.0102C65.1341 42.8192 64.8383 42.3069 64.8383 42.3069C65.3801 41.9545 66.1655 41.7243 66.9919 41.7243ZM30.6587 39.1509C31.7965 39.1509 32.5144 39.3947 32.8258 39.5573C32.8258 39.5573 32.4658 40.1833 32.3184 40.4217C31.8926 40.2556 31.3394 40.1398 30.6993 40.1398C28.5593 40.1398 27.1373 41.5076 27.1373 43.905C27.1373 46.1396 28.424 47.5754 30.6452 47.5754C31.2513 47.5754 31.8673 47.4691 32.3296 47.2974C32.437 47.4847 32.8122 48.1308 32.8122 48.1308C32.3788 48.3475 31.5119 48.5643 30.4014 48.5643C27.828 48.5643 25.8912 46.9388 25.8912 43.9455C25.8912 41.0878 27.828 39.1509 30.6587 39.1509ZM21.8022 41.7243C23.9422 41.7243 24.511 43.607 24.511 44.8123C24.511 45.056 24.484 45.2457 24.4704 45.3678H19.8653C19.8924 46.9794 20.9218 47.643 22.1137 47.643C22.8166 47.643 23.2898 47.542 23.6847 47.4005C23.7941 47.5809 24.1318 48.1579 24.1318 48.1579C23.712 48.3475 22.994 48.5642 21.9511 48.5642C19.933 48.5642 18.7277 47.237 18.7277 45.2593C18.7277 43.2818 19.8924 41.7243 21.8022 41.7243ZM50.8901 39.9907V41.8734H52.5967V42.7809H50.8901V46.3158C50.8901 47.1285 51.1204 47.589 51.7841 47.589C51.8815 47.589 51.9711 47.585 52.0527 47.5782C52.1926 47.8136 52.5288 48.4018 52.5288 48.4018C52.2986 48.4963 51.933 48.5642 51.4726 48.5642C50.9173 48.5642 50.4703 48.3882 50.1859 48.0629C49.8473 47.711 49.7254 47.1285 49.7254 46.3563V42.7809H48.7095V41.8734H49.7254V39.9907H50.8901ZM59.9226 39.2324C61.0874 39.2324 61.9407 39.5032 62.4825 39.9907C62.9837 40.4241 63.2816 41.0878 63.2816 41.9005C63.2816 42.7268 63.0378 43.3768 62.5773 43.8509C61.9543 44.5145 60.9385 44.853 59.7872 44.853C59.435 44.853 59.1101 44.8393 58.839 44.7717V48.4287H57.6607V39.4082C58.2297 39.3135 58.9746 39.2324 59.9226 39.2324ZM8.24597 39.3L9.3295 43.9186C9.60044 45.056 9.8442 46.194 10.0068 47.0744H10.0338C10.1828 46.1669 10.4673 45.0835 10.7788 43.905L11.9977 39.3H13.2302L14.3409 43.932C14.5982 45.0155 14.842 46.0991 14.9774 47.0609H15.0046C15.1941 46.0585 15.4516 45.0425 15.736 43.905L16.9414 39.3H18.1468L15.5599 48.4288H14.3272L13.1761 43.6748C12.8916 42.51 12.7021 41.6161 12.5801 40.6949H12.553C12.3906 41.6027 12.1873 42.4965 11.8488 43.6748L10.5486 48.4288H9.31597L7 39.3H8.24597ZM35.8449 38.8125V42.9029H35.872C36.0616 42.5641 36.3596 42.2663 36.7252 42.0631C37.0776 41.8599 37.4972 41.7244 37.9444 41.7244C38.8247 41.7244 40.2333 42.2663 40.2333 44.528V48.4287H39.0414V44.6636C39.0414 43.6071 38.6486 42.7131 37.5245 42.7131C36.7523 42.7131 36.1428 43.2548 35.9262 43.905C35.8585 44.0675 35.8449 44.2437 35.8449 44.4739V48.4287H34.653V38.8125H35.8449ZM43.2522 46.5596C43.2522 47.3317 43.7668 47.6975 44.3765 47.6975C45.2297 47.6975 45.7714 47.1555 45.9609 46.6004C46.0017 46.4784 46.0287 46.3428 46.0287 46.2211V45.0835C44.7285 45.056 43.2522 45.2863 43.2522 46.5596ZM65.5561 46.5596C65.5561 47.3317 66.0708 47.6975 66.6803 47.6975C67.5336 47.6975 68.0754 47.1555 68.2649 46.6004C68.3056 46.4784 68.3327 46.3428 68.3327 46.2211V45.0835C67.0324 45.056 65.5561 45.2863 65.5561 46.5596ZM21.7073 42.5776C20.5019 42.5776 19.9736 43.6882 19.8788 44.5145H23.3598C23.3733 43.7559 23.0483 42.5776 21.7073 42.5776ZM59.9498 40.1669C59.435 40.1669 59.0422 40.2074 58.839 40.2615V43.8102C59.0965 43.8778 59.4216 43.905 59.8143 43.905C61.2365 43.905 62.1034 43.2142 62.1034 41.9545C62.1034 40.7493 61.2501 40.1669 59.9498 40.1669Z" fill="#4D4D4D"/>
</svg>
